<?xml version="1.0" encoding="UTF-8" standalone="no"?>
<svg
   width="128"
   height="128"
   version="1.1"
   id="svg73"
   sodipodi:docname="abcd.svg"
   inkscape:version="1.2.2 (b0a8486541, 2022-12-01)"
   xmlns:inkscape="http://www.inkscape.org/namespaces/inkscape"
   xmlns:sodipodi="http://sodipodi.sourceforge.net/DTD/sodipodi-0.dtd"
   xmlns="http://www.w3.org/2000/svg"
   xmlns:svg="http://www.w3.org/2000/svg"
   xmlns:rdf="http://www.w3.org/1999/02/22-rdf-syntax-ns#"
   xmlns:cc="http://creativecommons.org/ns#"
   xmlns:dc="http://purl.org/dc/elements/1.1/">
  <metadata
     id="metadata77">
    <rdf:RDF>
      <cc:Work
         rdf:about="">
        <dc:format>image/svg+xml</dc:format>
        <dc:type
           rdf:resource="http://purl.org/dc/dcmitype/StillImage" />
      </cc:Work>
    </rdf:RDF>
  </metadata>
  <sodipodi:namedview
     pagecolor="#f5f7fa"
     bordercolor="#666666"
     borderopacity="1"
     objecttolerance="10"
     gridtolerance="10"
     guidetolerance="10"
     inkscape:pageopacity="0"
     inkscape:pageshadow="2"
     inkscape:window-width="1226"
     inkscape:window-height="605"
     id="namedview75"
     showgrid="false"
     inkscape:zoom="2"
     inkscape:cx="76"
     inkscape:cy="42.5"
     inkscape:window-x="35"
     inkscape:window-y="32"
     inkscape:window-maximized="0"
     inkscape:current-layer="g877"
     inkscape:document-rotation="0"
     inkscape:pagecheckerboard="0"
     inkscape:showpageshadow="2"
     inkscape:deskcolor="#d1d1d1" />
  <defs
     id="defs29">
    <filter
       style="color-interpolation-filters:sRGB;"
       inkscape:label="Blur"
       id="filter6"
       x="-0.044145008"
       y="-0.044145008"
       width="1.08829"
       height="1.08829">
      <feGaussianBlur
         stdDeviation="1 1"
         result="blur"
         id="feGaussianBlur6" />
    </filter>
    <filter
       style="color-interpolation-filters:sRGB;"
       inkscape:label="Blur"
       id="filter7"
       x="-0.098100013"
       y="-0.098100021"
       width="1.1962"
       height="1.1962">
      <feGaussianBlur
         stdDeviation="2 2"
         result="blur"
         id="feGaussianBlur7" />
    </filter>
    <clipPath
       id="clip0_515_3621">
      <rect
         width="16"
         height="16"
         fill="#ffffff"
         transform="translate(0.00292969)"
         id="rect7969"
         x="0"
         y="0" />
    </clipPath>
    <filter
       style="color-interpolation-filters:sRGB;"
       inkscape:label="Blur"
       id="filter3991"
       x="-0.12945447"
       y="-0.10485813"
       width="1.2589089"
       height="1.2097163">
      <feGaussianBlur
         stdDeviation="4 4"
         result="blur"
         id="feGaussianBlur3989" />
    </filter>
  </defs>
  <g
     id="g877"
     transform="matrix(1.1,0,0,1.1,-3.1845928,-3.2065454)">
    <rect
       style="fill:#000000;fill-opacity:1;stroke:none;stroke-width:1.39173;stroke-dasharray:none;stroke-dashoffset:0;stroke-opacity:1;filter:url(#filter3991);opacity:0.5"
       id="rect1-6-5"
       width="74.157349"
       height="91.552269"
       x="23.998228"
       y="15.320724"
       rx="8.293788"
       ry="10.239242" />
    <path
       style="fill:#f5f7fa;fill-opacity:1;stroke-width:0.408852"
       d=""
       id="path3" />
    <rect
       style="fill:#f4e3cf;fill-opacity:1;stroke:none;stroke-width:1.39173;stroke-dasharray:none;stroke-dashoffset:0;stroke-opacity:1"
       id="rect1-6"
       width="74.157349"
       height="91.552269"
       x="23.998228"
       y="15.320724"
       rx="8.293788"
       ry="10.239242" />
    <rect
       style="fill:#1e2430;fill-opacity:1;stroke:none;stroke-width:1.45399;stroke-dasharray:none;stroke-dashoffset:0;stroke-opacity:1"
       id="rect1-6-7"
       width="66.257729"
       height="82.625931"
       x="27.948032"
       y="19.783897"
       rx="5.1944203"
       ry="6.4776425" />
    <g
       fill="#1976d2"
       id="g6"
       transform="matrix(1.6363636,0,0,1.6363636,8.7132673,-7.6315858)"
       style="fill:#f4e3cf;fill-opacity:1">
      <path
         d="m 32,30 c -0.116,0 -0.23,0.05 -0.293,0.152 l -0.625,1.012 -0.293,0.028 -0.809,-0.867 c -0.163,-0.176 -0.498,-0.108 -0.582,0.118 l -0.414,1.105 -0.285,0.086 -0.96,-0.691 c -0.196,-0.14 -0.505,-0.02 -0.544,0.226 l -0.191,1.168 -0.262,0.14 -1.078,-0.492 c -0.219,-0.1 -0.501,0.088 -0.492,0.328 l 0.043,1.188 -0.227,0.188 -1.156,-0.274 c -0.234,-0.054 -0.473,0.184 -0.418,0.418 l 0.274,1.156 -0.188,0.227 -1.187,-0.042 c -0.24,-0.02 -0.428,0.273 -0.328,0.492 l 0.492,1.078 -0.14,0.262 -1.169,0.192 c -0.237,0.038 -0.366,0.348 -0.226,0.543 l 0.691,0.961 -0.086,0.285 -1.11,0.414 c -0.224,0.084 -0.288,0.418 -0.113,0.582 l 0.868,0.805 -0.032,0.297 -1.007,0.625 c -0.205,0.126 -0.205,0.464 0,0.59 l 1.007,0.62 0.032,0.298 -0.868,0.808 c -0.175,0.164 -0.111,0.494 0.114,0.578 l 1.109,0.414 0.086,0.285 -0.691,0.961 c -0.14,0.196 -0.01,0.509 0.226,0.547 l 1.168,0.188 0.14,0.262 -0.491,1.078 c -0.1,0.22 0.089,0.502 0.328,0.492 l 1.187,-0.042 0.188,0.227 -0.274,1.156 c -0.055,0.234 0.184,0.473 0.418,0.418 l 1.156,-0.273 0.227,0.188 -0.043,1.183 c -0.01,0.24 0.273,0.428 0.492,0.328 l 1.078,-0.488 0.262,0.136 0.191,1.168 c 0.039,0.238 0.348,0.367 0.543,0.227 l 0.961,-0.692 0.285,0.086 0.414,1.11 c 0.084,0.224 0.415,0.29 0.579,0.113 l 0.808,-0.867 0.297,0.032 0.625,1.008 c 0.126,0.203 0.464,0.204 0.59,0 l 0.621,-1.008 0.297,-0.032 0.808,0.867 c 0.164,0.176 0.495,0.11 0.579,-0.114 l 0.414,-1.109 0.285,-0.086 0.96,0.692 c 0.196,0.14 0.505,0.02 0.544,-0.227 l 0.191,-1.168 0.262,-0.136 1.078,0.488 c 0.219,0.1 0.5,-0.086 0.492,-0.328 l -0.043,-1.183 0.227,-0.188 1.156,0.273 c 0.234,0.054 0.473,-0.184 0.418,-0.418 l -0.274,-1.156 0.188,-0.227 1.187,0.042 c 0.24,0.02 0.429,-0.273 0.328,-0.492 l -0.492,-1.078 0.14,-0.262 1.169,-0.188 c 0.238,-0.038 0.367,-0.351 0.226,-0.547 l -0.691,-0.96 0.086,-0.286 1.11,-0.414 c 0.225,-0.084 0.289,-0.414 0.113,-0.578 L 42.808,43.218 42.84,42.921 43.847,42.3 c 0.205,-0.126 0.205,-0.464 0,-0.59 l -1.007,-0.625 -0.032,-0.297 0.868,-0.805 c 0.176,-0.164 0.112,-0.498 -0.114,-0.582 l -1.109,-0.414 -0.086,-0.285 0.691,-0.961 c 0.141,-0.194 0.012,-0.504 -0.226,-0.543 l -1.168,-0.192 -0.14,-0.262 0.491,-1.078 c 0.101,-0.22 -0.086,-0.501 -0.328,-0.492 l -1.187,0.042 -0.188,-0.227 0.274,-1.156 c 0.055,-0.234 -0.184,-0.473 -0.418,-0.418 l -1.152,0.274 -0.23,-0.188 0.042,-1.188 c 0.01,-0.24 -0.273,-0.428 -0.492,-0.328 l -1.078,0.492 -0.262,-0.14 -0.187,-1.168 C 36.77,30.932 36.457,30.802 36.262,30.943 l -0.961,0.691 -0.285,-0.086 -0.414,-1.105 c -0.084,-0.226 -0.415,-0.292 -0.578,-0.118 l -0.81,0.867 -0.292,-0.028 -0.625,-1.012 A 0.344,0.344 0 0 0 32,30 Z m 0,3.996 a 8,8 0 0 1 8,8 8,8 0 0 1 -8,8 8,8 0 0 1 -8,-8 8,8 0 0 1 8,-8 z"
         id="path5"
         style="fill:#f4e3cf;fill-opacity:1" />
      <path
         d="m 24,36 v 2 h 2 v 8 h -2 v 2 h 8 v -2 h -2 v -4 c 2,0 2,6 4,6 h 4 c 2,0 2,-6 2,-6 h -2 c 0,0 0,4 -2,4 -0.943,0 -2,-4 -2,-4 h 1 c 1.662,0 3,-1.338 3,-3 0,-1.662 -1.338,-3 -3,-3 h -3 z m 6,2 h 4 c 0.554,0 1,0.446 1,1 0,0.554 -0.446,1 -1,1 h -4 z"
         id="path6"
         style="fill:#f4e3cf;fill-opacity:1" />
    </g>
    <g
       id="g6019"
       style="fill:#f4e3cf;fill-opacity:1"
       transform="matrix(1.6363636,0,0,1.6363636,8.6240773,-3.6100595)" />
  </g>
</svg>
