<?xml version="1.0" encoding="UTF-8" standalone="no"?>
<svg
   width="128"
   height="128"
   version="1.1"
   id="svg73"
   sodipodi:docname="abcd.svg"
   inkscape:version="1.2.2 (b0a8486541, 2022-12-01)"
   xmlns:inkscape="http://www.inkscape.org/namespaces/inkscape"
   xmlns:sodipodi="http://sodipodi.sourceforge.net/DTD/sodipodi-0.dtd"
   xmlns="http://www.w3.org/2000/svg"
   xmlns:svg="http://www.w3.org/2000/svg"
   xmlns:rdf="http://www.w3.org/1999/02/22-rdf-syntax-ns#"
   xmlns:cc="http://creativecommons.org/ns#"
   xmlns:dc="http://purl.org/dc/elements/1.1/">
  <metadata
     id="metadata77">
    <rdf:RDF>
      <cc:Work
         rdf:about="">
        <dc:format>image/svg+xml</dc:format>
        <dc:type
           rdf:resource="http://purl.org/dc/dcmitype/StillImage" />
      </cc:Work>
    </rdf:RDF>
  </metadata>
  <sodipodi:namedview
     pagecolor="#f5f7fa"
     bordercolor="#666666"
     borderopacity="1"
     objecttolerance="10"
     gridtolerance="10"
     guidetolerance="10"
     inkscape:pageopacity="0"
     inkscape:pageshadow="2"
     inkscape:window-width="1226"
     inkscape:window-height="605"
     id="namedview75"
     showgrid="false"
     inkscape:zoom="2"
     inkscape:cx="39.5"
     inkscape:cy="55.5"
     inkscape:window-x="35"
     inkscape:window-y="32"
     inkscape:window-maximized="0"
     inkscape:current-layer="g877"
     inkscape:document-rotation="0"
     inkscape:pagecheckerboard="0"
     inkscape:showpageshadow="2"
     inkscape:deskcolor="#d1d1d1" />
  <defs
     id="defs29">
    <filter
       style="color-interpolation-filters:sRGB;"
       inkscape:label="Blur"
       id="filter6"
       x="-0.044145008"
       y="-0.044145008"
       width="1.08829"
       height="1.08829">
      <feGaussianBlur
         stdDeviation="1 1"
         result="blur"
         id="feGaussianBlur6" />
    </filter>
    <filter
       style="color-interpolation-filters:sRGB;"
       inkscape:label="Blur"
       id="filter7"
       x="-0.098100013"
       y="-0.098100021"
       width="1.1962"
       height="1.1962">
      <feGaussianBlur
         stdDeviation="2 2"
         result="blur"
         id="feGaussianBlur7" />
    </filter>
    <clipPath
       id="clip0_515_3621">
      <rect
         width="16"
         height="16"
         fill="#ffffff"
         transform="translate(0.00292969)"
         id="rect7969"
         x="0"
         y="0" />
    </clipPath>
    <filter
       style="color-interpolation-filters:sRGB;"
       inkscape:label="Blur"
       id="filter3991"
       x="-0.12945447"
       y="-0.10485813"
       width="1.2589089"
       height="1.2097163">
      <feGaussianBlur
         stdDeviation="4 4"
         result="blur"
         id="feGaussianBlur3989" />
    </filter>
  </defs>
  <g
     id="g877"
     transform="matrix(1.1,0,0,1.1,-3.1845928,-3.2065454)">
    <rect
       style="fill:#000000;fill-opacity:1;stroke:none;stroke-width:1.39173;stroke-dasharray:none;stroke-dashoffset:0;stroke-opacity:1;filter:url(#filter3991);opacity:0.5"
       id="rect1-6-5"
       width="74.157349"
       height="91.552269"
       x="23.998228"
       y="15.320724"
       rx="8.293788"
       ry="10.239242" />
    <path
       style="fill:#f5f7fa;fill-opacity:1;stroke-width:0.408852"
       d=""
       id="path3" />
    <rect
       style="fill:#f4e3cf;fill-opacity:1;stroke:none;stroke-width:1.39173;stroke-dasharray:none;stroke-dashoffset:0;stroke-opacity:1"
       id="rect1-6"
       width="74.157349"
       height="91.552269"
       x="23.998228"
       y="15.320724"
       rx="8.293788"
       ry="10.239242" />
    <rect
       style="fill:#1e2430;fill-opacity:1;stroke:none;stroke-width:1.45399;stroke-dasharray:none;stroke-dashoffset:0;stroke-opacity:1"
       id="rect1-6-7"
       width="66.257729"
       height="82.625931"
       x="27.948032"
       y="19.783897"
       rx="5.1944203"
       ry="6.4776425" />
    <path
       d="m 80.236136,65.598657 c -0.792,-0.781198 -2.547,-1.1934 -5.2182,-1.2276 -1.809,-0.02878 -3.9852,0.1368 -6.274798,0.459 -1.024202,-0.5922 -2.080802,-1.2348 -2.9106,-2.0106 -2.232002,-2.082598 -4.093202,-4.975198 -5.254202,-8.154 0.0756,-0.297 0.1404,-0.558 0.1998,-0.8244 0,0 1.256402,-7.1388 0.9252,-9.5508 -0.0468,-0.3312 -0.0738,-0.4284 -0.1638,-0.6858 l -0.109818,-0.279 c -0.3402,-0.7884 -1.0116,-1.6236 -2.0628,-1.576798 l -0.615598,-0.0288 h -0.0162 c -1.1718,0 -2.1276,0.599398 -2.3778,1.494 -0.761402,2.8098 0.0234,7.0128 1.448998,12.456 l -0.365398,0.885598 c -1.018802,2.487602 -2.2986,4.993202 -3.4254,7.201802 l -0.1476,0.288 c -1.1862,2.322 -2.2626,4.2948 -3.238198,5.9634 l -1.008002,0.5328 c -0.0738,0.0396 -1.8018,0.9522 -2.2068,1.198798 -3.4362,2.052002 -5.714998,4.381202 -6.091198,6.229802 -0.1206,0.5886 -0.03062,1.3446 0.579598,1.6938 l 0.9756,0.491398 c 0.423002,0.212402 0.8676,0.318602 1.3248,0.318602 2.448,0 5.2902,-3.0492 9.2052,-9.882002 4.5198,-1.470598 9.666,-2.6946 14.1768,-3.369598 3.436202,1.9368 7.6644,3.2796 10.332,3.2796 0.4734,0 0.882,-0.045 1.215,-0.1332 0.5112,-0.135 0.9414,-0.426598 1.206,-0.822598 0.5166,-0.779402 0.621002,-1.852202 0.4806,-2.9502 -0.0414,-0.325802 -0.3024,-0.729002 -0.5832,-1.004402 z m -36.5634,13.0248 c 0.4464,-1.2204 2.214,-3.634198 4.8258,-5.7744 0.1656,-0.1332 0.5706,-0.512998 0.9396,-0.864 -2.730598,4.3578 -4.5612,6.094802 -5.7654,6.6384 z m 15.4746,-35.6346 c 0.786602,0 1.2348,1.9836 1.2726,3.843 0.036,1.8594 -0.3978,3.1644 -0.9378,4.131 -0.4464,-1.430998 -0.6624,-3.6828 -0.6624,-5.156998 0,0 -0.0324,-2.817002 0.3276,-2.817002 z m -4.6152,25.3944 c 0.5472,-0.981 1.1178,-2.016 1.701002,-3.113998 1.420198,-2.685602 2.3166,-4.788002 2.9862,-6.516002 1.3284,2.417402 2.982598,4.473 4.928398,6.120002 0.243002,0.205198 0.500402,0.412198 0.7704,0.617398 -3.956398,0.783 -7.3764,1.7352 -10.386,2.8926 z m 24.944402,-0.221398 c -0.241202,0.1494 -0.9324,0.239398 -1.375202,0.239398 -1.434598,0 -3.2058,-0.655198 -5.691598,-1.7208 0.953998,-0.072 1.830598,-0.108018 2.615398,-0.108018 1.4364,0 1.863,0 3.2688,0.352802 1.4058,0.358198 1.422002,1.0854 1.182602,1.2366 z"
       style="clip-rule:evenodd;fill:#f4e3cf;fill-opacity:1;fill-rule:nonzero;stroke-width:1.8;stroke-linejoin:round;stroke-miterlimit:2"
       id="path5" />
    <g
       id="g6019"
       style="fill:#f4e3cf;fill-opacity:1"
       transform="matrix(1.6363636,0,0,1.6363636,8.6240773,-3.6100595)" />
  </g>
</svg>
