<?xml version="1.0" encoding="UTF-8" standalone="no"?>
<svg
   width="128"
   height="128"
   version="1.1"
   id="svg73"
   sodipodi:docname="abcd.svg"
   inkscape:version="1.2.2 (b0a8486541, 2022-12-01)"
   xmlns:inkscape="http://www.inkscape.org/namespaces/inkscape"
   xmlns:sodipodi="http://sodipodi.sourceforge.net/DTD/sodipodi-0.dtd"
   xmlns="http://www.w3.org/2000/svg"
   xmlns:svg="http://www.w3.org/2000/svg"
   xmlns:rdf="http://www.w3.org/1999/02/22-rdf-syntax-ns#"
   xmlns:cc="http://creativecommons.org/ns#"
   xmlns:dc="http://purl.org/dc/elements/1.1/">
  <metadata
     id="metadata77">
    <rdf:RDF>
      <cc:Work
         rdf:about="">
        <dc:format>image/svg+xml</dc:format>
        <dc:type
           rdf:resource="http://purl.org/dc/dcmitype/StillImage" />
      </cc:Work>
    </rdf:RDF>
  </metadata>
  <sodipodi:namedview
     pagecolor="#f5f7fa"
     bordercolor="#666666"
     borderopacity="1"
     objecttolerance="10"
     gridtolerance="10"
     guidetolerance="10"
     inkscape:pageopacity="0"
     inkscape:pageshadow="2"
     inkscape:window-width="1226"
     inkscape:window-height="605"
     id="namedview75"
     showgrid="false"
     inkscape:zoom="2.2235194"
     inkscape:cx="82.30196"
     inkscape:cy="105.23857"
     inkscape:window-x="35"
     inkscape:window-y="32"
     inkscape:window-maximized="0"
     inkscape:current-layer="g877"
     inkscape:document-rotation="0"
     inkscape:pagecheckerboard="0"
     inkscape:showpageshadow="2"
     inkscape:deskcolor="#d1d1d1" />
  <defs
     id="defs29">
    <filter
       style="color-interpolation-filters:sRGB;"
       inkscape:label="Blur"
       id="filter1745"
       x="-0.13107264"
       y="-0.13107267"
       width="1.2621453"
       height="1.2621453">
      <feGaussianBlur
         stdDeviation="5 5"
         result="blur"
         id="feGaussianBlur1743" />
    </filter>
  </defs>
  <g
     id="g877"
     transform="matrix(1.1,0,0,1.1,-3.1845928,-3.2065454)">
    <rect
       style="fill:#000000;fill-opacity:1;stroke:none;stroke-width:1.54636;stroke-dasharray:none;stroke-dashoffset:0;stroke-opacity:1;filter:url(#filter1745);opacity:0.5"
       id="rect1-6-2"
       width="91.552284"
       height="91.552269"
       x="15.30076"
       y="15.320724"
       rx="10.239244"
       ry="10.239242" />
    <path
       style="fill:#f5f7fa;stroke-width:0.204426;fill-opacity:1"
       d=""
       id="path3" />
    <rect
       style="fill:#f4e3cf;fill-opacity:1;stroke:none;stroke-width:1.54636;stroke-dasharray:none;stroke-dashoffset:0;stroke-opacity:1"
       id="rect1-6"
       width="91.552284"
       height="91.552269"
       x="15.30076"
       y="15.320724"
       rx="10.239244"
       ry="10.239242" />
    <rect
       style="fill:#1e2430;fill-opacity:1;stroke:none;stroke-width:1.62368;stroke-dasharray:none;stroke-dashoffset:0;stroke-opacity:1"
       id="rect1-6-7"
       width="82.625923"
       height="82.625931"
       x="19.763933"
       y="19.783899"
       rx="6.4776411"
       ry="6.4776425" />
    <path
       style="fill:#f4e3cf;fill-opacity:1;stroke:none;stroke-width:0.0575544"
       d="m 56.338343,82.412417 c -0.459676,-0.227532 -0.484058,-0.298932 -1.00573,-2.943718 l -0.471318,-2.389464 -0.460354,-0.18822 c -1.097156,-0.448588 -2.522822,-1.26141 -3.535872,-2.015928 l -0.522102,-0.388818 -2.27763,0.77306 c -1.582054,0.53691 -2.35613,0.773058 -2.53467,0.773058 -0.271054,0 -0.620282,-0.14568 -0.778514,-0.324838 -0.05188,-0.0591 -1.085584,-1.826594 -2.297038,-3.928326 -2.42015,-4.198634 -2.373078,-4.09719 -2.14188,-4.616128 0.09262,-0.20796 0.44377,-0.541398 1.963382,-1.864732 1.846912,-1.608332 1.850522,-1.611924 1.823672,-1.812968 -0.210432,-1.575624 -0.210564,-3.18087 -3.76e-4,-4.777016 0.02644,-0.200894 0.02178,-0.20555 -1.823606,-1.812962 -1.518612,-1.322764 -1.870358,-1.6569 -1.963004,-1.864736 -0.230452,-0.516952 -0.277324,-0.415964 2.141854,-4.614274 1.211682,-2.10278 2.24543,-3.871316 2.297224,-3.930082 0.15758,-0.17878 0.50704,-0.324812 0.777348,-0.324812 0.17748,0 0.955404,0.237586 2.533642,0.77378 l 2.27753,0.773788 0.523124,-0.389622 c 1.013818,-0.755076 2.438412,-1.56741 3.536774,-2.016738 l 0.460224,-0.18828 0.453524,-2.311024 c 0.24944,-1.27106 0.489996,-2.400726 0.534574,-2.510358 0.10558,-0.25966 0.229744,-0.39255 0.491644,-0.526218 0.20416,-0.10418 0.41142,-0.10898 4.71568,-0.10898 4.470224,0 4.50393,8.72e-4 4.754332,0.12208 0.463014,0.224144 0.486662,0.293056 1.01013,2.944346 l 0.471872,2.39 0.460226,0.18836 c 1.099476,0.449986 2.523128,1.261878 3.537688,2.01751 l 0.524046,0.39031 2.280034,-0.77448 c 1.561622,-0.530442 2.35964,-0.774478 2.532712,-0.774478 0.267252,0 0.616762,0.14666 0.774138,0.324812 0.05154,0.05882 1.085584,1.826446 2.297048,3.928184 2.419668,4.19787 2.372738,4.096742 2.142404,4.616172 -0.09236,0.20829 -0.440496,0.538984 -1.962598,1.864734 -1.844554,1.606524 -1.850218,1.612144 -1.824194,1.81297 0.210146,1.62096 0.210078,3.164922 -1.58e-4,4.777016 -0.02612,0.200896 -0.02062,0.206134 1.823672,1.812966 1.5187,1.322978 1.870134,1.656854 1.962742,1.864724 0.231242,0.519112 0.278316,0.417668 -2.141448,4.616374 -1.211184,2.101632 -2.244856,3.869228 -2.297022,3.927996 -0.15868,0.17868 -0.507772,0.32484 -0.77613,0.32484 -0.17516,0 -0.963958,-0.241206 -2.534444,-0.774886 l -2.28022,-0.774888 -0.388736,0.295358 c -0.992176,0.75384 -2.451198,1.6026 -3.528074,2.052428 l -0.6017,0.25131 -0.471872,2.388886 c -0.523462,2.650024 -0.54717,2.719122 -1.010132,2.943232 -0.250374,0.12122 -0.284376,0.12212 -4.737652,0.12212 -4.470044,-4e-5 -4.486316,-4.66e-4 -4.734772,-0.12342 z m 8.626934,-13.659138 c 2.071498,-2.48623 3.774996,-4.546148 3.785546,-4.577604 0.0124,-0.03742 -0.784946,-0.05738 -2.28707,-0.05738 h -2.306246 l -0.015,-6.55104 -0.0152,-6.551032 -0.15314,-0.231394 c -0.299036,-0.451834 -0.29252,-0.450832 -2.897246,-0.450832 -2.604734,0 -2.598214,-10e-4 -2.897248,0.450832 l -0.15314,0.231394 -0.0152,6.551032 -0.015,6.55104 h -2.301412 c -1.2658,0 -2.301066,0.0192 -2.300592,0.04322 4.7e-4,0.02412 1.724422,2.110472 3.831004,4.637164 2.884106,3.459296 3.847872,4.57929 3.901908,4.534442 0.03952,-0.0323 1.766624,-2.093742 3.838124,-4.579976 z"
       id="path5" />
  </g>
</svg>
