<?xml version="1.0" encoding="UTF-8" standalone="no"?>
<svg
   width="128"
   height="128"
   version="1.1"
   id="svg73"
   sodipodi:docname="abcd.svg"
   inkscape:version="1.2.2 (b0a8486541, 2022-12-01)"
   xmlns:inkscape="http://www.inkscape.org/namespaces/inkscape"
   xmlns:sodipodi="http://sodipodi.sourceforge.net/DTD/sodipodi-0.dtd"
   xmlns="http://www.w3.org/2000/svg"
   xmlns:svg="http://www.w3.org/2000/svg"
   xmlns:rdf="http://www.w3.org/1999/02/22-rdf-syntax-ns#"
   xmlns:cc="http://creativecommons.org/ns#"
   xmlns:dc="http://purl.org/dc/elements/1.1/">
  <metadata
     id="metadata77">
    <rdf:RDF>
      <cc:Work
         rdf:about="">
        <dc:format>image/svg+xml</dc:format>
        <dc:type
           rdf:resource="http://purl.org/dc/dcmitype/StillImage" />
      </cc:Work>
    </rdf:RDF>
  </metadata>
  <sodipodi:namedview
     pagecolor="#f5f7fa"
     bordercolor="#666666"
     borderopacity="1"
     objecttolerance="10"
     gridtolerance="10"
     guidetolerance="10"
     inkscape:pageopacity="0"
     inkscape:pageshadow="2"
     inkscape:window-width="1226"
     inkscape:window-height="605"
     id="namedview75"
     showgrid="false"
     inkscape:zoom="2"
     inkscape:cx="76"
     inkscape:cy="42.5"
     inkscape:window-x="35"
     inkscape:window-y="32"
     inkscape:window-maximized="0"
     inkscape:current-layer="g877"
     inkscape:document-rotation="0"
     inkscape:pagecheckerboard="0"
     inkscape:showpageshadow="2"
     inkscape:deskcolor="#d1d1d1" />
  <defs
     id="defs29">
    <filter
       style="color-interpolation-filters:sRGB;"
       inkscape:label="Blur"
       id="filter6"
       x="-0.044145008"
       y="-0.044145008"
       width="1.08829"
       height="1.08829">
      <feGaussianBlur
         stdDeviation="1 1"
         result="blur"
         id="feGaussianBlur6" />
    </filter>
    <filter
       style="color-interpolation-filters:sRGB;"
       inkscape:label="Blur"
       id="filter7"
       x="-0.098100013"
       y="-0.098100021"
       width="1.1962"
       height="1.1962">
      <feGaussianBlur
         stdDeviation="2 2"
         result="blur"
         id="feGaussianBlur7" />
    </filter>
    <clipPath
       id="clip0_515_3621">
      <rect
         width="16"
         height="16"
         fill="#ffffff"
         transform="translate(0.00292969)"
         id="rect7969"
         x="0"
         y="0" />
    </clipPath>
    <filter
       style="color-interpolation-filters:sRGB;"
       inkscape:label="Blur"
       id="filter3991"
       x="-0.12945447"
       y="-0.10485813"
       width="1.2589089"
       height="1.2097163">
      <feGaussianBlur
         stdDeviation="4 4"
         result="blur"
         id="feGaussianBlur3989" />
    </filter>
  </defs>
  <g
     id="g877"
     transform="matrix(1.1,0,0,1.1,-3.1845928,-3.2065454)">
    <rect
       style="fill:#000000;fill-opacity:1;stroke:none;stroke-width:1.39173;stroke-dasharray:none;stroke-dashoffset:0;stroke-opacity:1;filter:url(#filter3991);opacity:0.5"
       id="rect1-6-5"
       width="74.157349"
       height="91.552269"
       x="23.998228"
       y="15.320724"
       rx="8.293788"
       ry="10.239242" />
    <path
       style="fill:#f5f7fa;fill-opacity:1;stroke-width:0.408852"
       d=""
       id="path3" />
    <rect
       style="fill:#f4e3cf;fill-opacity:1;stroke:none;stroke-width:1.39173;stroke-dasharray:none;stroke-dashoffset:0;stroke-opacity:1"
       id="rect1-6"
       width="74.157349"
       height="91.552269"
       x="23.998228"
       y="15.320724"
       rx="8.293788"
       ry="10.239242" />
    <rect
       style="fill:#1e2430;fill-opacity:1;stroke:none;stroke-width:1.45399;stroke-dasharray:none;stroke-dashoffset:0;stroke-opacity:1"
       id="rect1-6-7"
       width="66.257729"
       height="82.625931"
       x="27.948032"
       y="19.783897"
       rx="5.1944203"
       ry="6.4776425" />
    <g
       id="g8"
       style="clip-rule:evenodd;fill:#f4e3cf;fill-opacity:1;fill-rule:evenodd;stroke-linejoin:round;stroke-miterlimit:2"
       transform="matrix(1.6363636,0,0,1.6363636,7.0769621,17.662042)">
      <path
         d="m 31.141,29.047 c 0.752,0 0.639,0.024 1.296,0.057 0.208,-0.461 0.314,-1.019 0.125,-1.629 -0.99,-0.051 -1.01,-0.063 -1.421,-0.063 -0.177,0 -0.314,0.02 -0.621,0.025 0.368,0.534 0.719,1.066 0.96,1.61 m -2.623,-1.59 c -2.988,0.106 -7.856,0.579 -7.857,2.756 0,3.112 1.334,5.904 3.436,7.82 -1.95,0.521 -3.428,1.354 -3.428,2.647 0,2.686 6.372,3.402 10.138,3.402 3.766,0 10.141,-0.716 10.141,-3.402 0,-1.293 -1.48,-2.126 -3.43,-2.647 0.41,-0.373 0.796,-0.774 1.143,-1.211 0.046,10e-4 0.09,0.002 0.156,0.002 0.904,0 3.141,-0.161 4.416,-1.656 1.633,-1.915 1.903,-4.276 0.615,-5.375 -0.414,-0.354 -0.951,-0.541 -1.552,-0.541 -0.487,0 -1.007,0.13 -1.522,0.359 -0.693,-1.234 -3.03,-1.769 -5.541,-2.007 -0.24,0.601 -0.683,1.113 -1.144,1.541 2.972,0.204 4.375,0.699 5.033,1.068 -0.846,0.474 -3.693,1.166 -8.32,1.166 -4.629,0 -7.477,-0.692 -8.323,-1.166 0.846,-0.475 3.084,-1.123 7.725,-1.166 -0.589,-0.585 -1.158,-1.07 -1.686,-1.59 z m 13.778,3.43 c 0.21,0 0.375,0.051 0.492,0.15 0.498,0.424 0.261,1.827 -0.799,3.07 -0.553,0.648 -1.488,0.907 -2.226,1.012 0.585,-1.13 0.973,-2.381 1.121,-3.709 0.533,-0.356 1.045,-0.523 1.412,-0.523 z M 36.551,39.4 c 1.987,0.414 3.011,0.98 3.103,1.262 -0.156,0.509 -2.916,1.787 -8.508,1.787 -5.591,0 -8.35,-1.278 -8.505,-1.752 0.092,-0.303 1.115,-0.878 3.101,-1.295 -0.034,0.102 -0.058,0.209 -0.058,0.325 0,1.492 2.97,1.804 5.462,1.804 2.492,0 5.463,-0.312 5.463,-1.804 0,-0.117 -0.024,-0.224 -0.058,-0.327 z"
         style="fill:#f4e3cf;fill-opacity:1;fill-rule:nonzero"
         id="path6" />
      <path
         d="M 32.787,26.473 C 26.813,19.59 39.32,16.467 39.32,16.467 c -7.968,4.621 -6.496,5.961 -4.577,8.658 2.055,2.893 -2.419,5.203 -2.419,5.203 0,0 2.225,-1.826 0.463,-3.855 z M 34.743,9.005 c 0,0 3.796,3.797 -3.6,9.636 -5.931,4.684 -1.353,7.355 -0.003,10.406 -3.462,-3.124 -6.003,-5.873 -4.298,-8.432 2.502,-3.757 9.432,-5.578 7.901,-11.61 z"
         style="fill:#f4e3cf;fill-opacity:1;fill-rule:nonzero"
         id="path7" />
    </g>
    <g
       id="g6019"
       style="fill:#f4e3cf;fill-opacity:1"
       transform="matrix(1.6363636,0,0,1.6363636,8.6240773,-3.6100595)" />
  </g>
</svg>
