<?xml version="1.0" encoding="UTF-8" standalone="no"?>
<svg
   width="128"
   height="128"
   version="1.1"
   id="svg73"
   sodipodi:docname="abcd.svg"
   inkscape:version="1.2.2 (b0a8486541, 2022-12-01)"
   xmlns:inkscape="http://www.inkscape.org/namespaces/inkscape"
   xmlns:sodipodi="http://sodipodi.sourceforge.net/DTD/sodipodi-0.dtd"
   xmlns="http://www.w3.org/2000/svg"
   xmlns:svg="http://www.w3.org/2000/svg"
   xmlns:rdf="http://www.w3.org/1999/02/22-rdf-syntax-ns#"
   xmlns:cc="http://creativecommons.org/ns#"
   xmlns:dc="http://purl.org/dc/elements/1.1/">
  <metadata
     id="metadata77">
    <rdf:RDF>
      <cc:Work
         rdf:about="">
        <dc:format>image/svg+xml</dc:format>
        <dc:type
           rdf:resource="http://purl.org/dc/dcmitype/StillImage" />
      </cc:Work>
    </rdf:RDF>
  </metadata>
  <sodipodi:namedview
     pagecolor="#f5f7fa"
     bordercolor="#666666"
     borderopacity="1"
     objecttolerance="10"
     gridtolerance="10"
     guidetolerance="10"
     inkscape:pageopacity="0"
     inkscape:pageshadow="2"
     inkscape:window-width="1226"
     inkscape:window-height="605"
     id="namedview75"
     showgrid="false"
     inkscape:zoom="2"
     inkscape:cx="39.5"
     inkscape:cy="55.5"
     inkscape:window-x="35"
     inkscape:window-y="32"
     inkscape:window-maximized="0"
     inkscape:current-layer="g877"
     inkscape:document-rotation="0"
     inkscape:pagecheckerboard="0"
     inkscape:showpageshadow="2"
     inkscape:deskcolor="#d1d1d1" />
  <defs
     id="defs29">
    <filter
       style="color-interpolation-filters:sRGB;"
       inkscape:label="Blur"
       id="filter6"
       x="-0.044145008"
       y="-0.044145008"
       width="1.08829"
       height="1.08829">
      <feGaussianBlur
         stdDeviation="1 1"
         result="blur"
         id="feGaussianBlur6" />
    </filter>
    <filter
       style="color-interpolation-filters:sRGB;"
       inkscape:label="Blur"
       id="filter7"
       x="-0.098100013"
       y="-0.098100021"
       width="1.1962"
       height="1.1962">
      <feGaussianBlur
         stdDeviation="2 2"
         result="blur"
         id="feGaussianBlur7" />
    </filter>
    <clipPath
       id="clip0_515_3621">
      <rect
         width="16"
         height="16"
         fill="#ffffff"
         transform="translate(0.00292969)"
         id="rect7969"
         x="0"
         y="0" />
    </clipPath>
    <filter
       style="color-interpolation-filters:sRGB;"
       inkscape:label="Blur"
       id="filter3991"
       x="-0.12945447"
       y="-0.10485813"
       width="1.2589089"
       height="1.2097163">
      <feGaussianBlur
         stdDeviation="4 4"
         result="blur"
         id="feGaussianBlur3989" />
    </filter>
  </defs>
  <g
     id="g877"
     transform="matrix(1.1,0,0,1.1,-3.1845928,-3.2065454)">
    <rect
       style="fill:#000000;fill-opacity:1;stroke:none;stroke-width:1.39173;stroke-dasharray:none;stroke-dashoffset:0;stroke-opacity:1;filter:url(#filter3991);opacity:0.5"
       id="rect1-6-5"
       width="74.157349"
       height="91.552269"
       x="23.998228"
       y="15.320724"
       rx="8.293788"
       ry="10.239242" />
    <path
       style="fill:#f5f7fa;fill-opacity:1;stroke-width:0.408852"
       d=""
       id="path3" />
    <rect
       style="fill:#f4e3cf;fill-opacity:1;stroke:none;stroke-width:1.39173;stroke-dasharray:none;stroke-dashoffset:0;stroke-opacity:1"
       id="rect1-6"
       width="74.157349"
       height="91.552269"
       x="23.998228"
       y="15.320724"
       rx="8.293788"
       ry="10.239242" />
    <rect
       style="fill:#1e2430;fill-opacity:1;stroke:none;stroke-width:1.45399;stroke-dasharray:none;stroke-dashoffset:0;stroke-opacity:1"
       id="rect1-6-7"
       width="66.257729"
       height="82.625931"
       x="27.948032"
       y="19.783897"
       rx="5.1944203"
       ry="6.4776425" />
    <path
       id="path72"
       style="fill:#f4e3cf;fill-opacity:1;stroke:none;stroke-width:1.28609;stroke-dasharray:none;stroke-dashoffset:2.2;stroke-opacity:0.3"
       d="m 61.036713,42.949938 c -12.278778,0 -12.329624,0.0018 -12.720208,0.308964 -0.877747,0.69045 -0.831436,-0.346017 -0.831436,17.769104 0,9.996962 0.05724,16.763443 0.14067,16.982881 0.186969,0.491762 0.714215,0.961931 1.258457,1.122824 0.251061,0.07421 5.736629,0.122436 12.486602,0.107964 11.557514,-0.025 12.056722,-0.03796 12.45395,-0.306386 0.890195,-0.603349 0.841484,0.423375 0.841484,-17.897214 0,-15.275356 -0.02144,-16.824237 -0.24117,-17.196394 C 73.869246,42.900695 74.60085,42.94992 61.036718,42.94992 Z M 41.135014,45.90392 v 1.846238 1.848751 h 1.919085 1.921593 V 47.750158 45.90392 h -1.921593 z m 35.894898,0 v 1.846238 1.848751 h 1.994444 1.994436 V 47.750158 45.90392 h -1.994436 z m -22.89587,1.476993 h 0.886696 0.884184 v 2.290842 2.288329 h -0.884184 -0.886696 v -2.288329 z m 6.056161,0 h 0.886698 0.886698 v 6.13152 6.129007 h -0.788735 c -0.43331,0 -0.832525,-0.04379 -0.886696,-0.09794 -0.05416,-0.05416 -0.09796,-2.811506 -0.09796,-6.129009 z m 6.20437,0 h 0.811337 0.813858 v 4.579171 4.581688 H 67.20591 66.394573 v -4.581688 z m -25.259559,5.317666 v 1.84875 1.84624 h 1.919085 1.921593 v -1.84624 -1.84875 h -1.921593 z m 35.894898,0 v 1.84875 1.84624 h 1.994444 1.994436 v -1.84624 -1.84875 h -1.994436 z m -22.89587,0.74101 h 0.889207 0.889209 l -0.04021,2.326009 -0.04023,2.326008 -0.74352,0.04268 c -0.409295,0.02398 -0.791154,-0.0023 -0.848965,-0.06026 -0.05782,-0.05782 -0.105498,-1.125466 -0.105498,-2.371224 z m 12.260531,4.579173 h 0.811337 0.813858 v 2.288331 2.290842 H 67.20591 66.394573 V 60.307093 Z M 54.134042,59.49575 h 0.886696 0.884184 v 4.579177 4.579173 h -0.884184 -0.886696 v -4.579173 z m -12.999028,0.14571 v 1.773393 1.773392 h 1.919085 1.921593 v -1.773394 -1.773394 h -1.921593 z m 35.894898,0 v 1.773394 1.773393 h 1.994444 1.994436 v -1.773396 -1.773394 h -1.994436 z m -15.066313,1.316225 v 6.136546 6.139056 h -0.889211 -0.886696 l 0.03767,-6.093842 0.03767,-6.093843 0.849021,-0.04268 z m 4.430974,3.117258 h 0.811337 0.813858 v 5.390514 5.393025 H 67.20591 66.394573 v -5.393025 z m -25.259559,2.363681 v 1.846242 1.846235 h 1.919085 1.921593 v -1.846235 -1.846242 h -1.921593 z m 35.894898,0 v 1.846242 1.846235 h 1.994444 1.994436 v -1.846235 -1.846242 h -1.994436 z m -35.894898,6.79466 v 1.84624 1.846242 h 1.919085 1.921593 v -1.846242 -1.84624 h -1.921593 z m 35.894898,0 v 1.84624 1.846242 h 1.994444 1.994436 v -1.846242 -1.84624 h -1.994436 z" />
    <g
       id="g6019"
       style="fill:#f4e3cf;fill-opacity:1"
       transform="matrix(1.6363636,0,0,1.6363636,8.6240773,-3.6100595)" />
  </g>
</svg>
