<?xml version="1.0" encoding="UTF-8" standalone="no"?>
<svg
   width="128"
   height="128"
   version="1.1"
   id="svg73"
   sodipodi:docname="application-illustrator.svg"
   inkscape:version="1.2.2 (b0a8486541, 2022-12-01)"
   xmlns:inkscape="http://www.inkscape.org/namespaces/inkscape"
   xmlns:sodipodi="http://sodipodi.sourceforge.net/DTD/sodipodi-0.dtd"
   xmlns="http://www.w3.org/2000/svg"
   xmlns:svg="http://www.w3.org/2000/svg"
   xmlns:rdf="http://www.w3.org/1999/02/22-rdf-syntax-ns#"
   xmlns:cc="http://creativecommons.org/ns#"
   xmlns:dc="http://purl.org/dc/elements/1.1/">
  <metadata
     id="metadata77">
    <rdf:RDF>
      <cc:Work
         rdf:about="">
        <dc:format>image/svg+xml</dc:format>
        <dc:type
           rdf:resource="http://purl.org/dc/dcmitype/StillImage" />
      </cc:Work>
    </rdf:RDF>
  </metadata>
  <sodipodi:namedview
     pagecolor="#f5f7fa"
     bordercolor="#666666"
     borderopacity="1"
     objecttolerance="10"
     gridtolerance="10"
     guidetolerance="10"
     inkscape:pageopacity="0"
     inkscape:pageshadow="2"
     inkscape:window-width="1226"
     inkscape:window-height="605"
     id="namedview75"
     showgrid="false"
     inkscape:zoom="2.8284271"
     inkscape:cx="51.618795"
     inkscape:cy="55.861436"
     inkscape:window-x="35"
     inkscape:window-y="32"
     inkscape:window-maximized="0"
     inkscape:current-layer="g877"
     inkscape:document-rotation="0"
     inkscape:pagecheckerboard="0"
     inkscape:showpageshadow="2"
     inkscape:deskcolor="#d1d1d1" />
  <defs
     id="defs29">
    <filter
       style="color-interpolation-filters:sRGB;"
       inkscape:label="Blur"
       id="filter6"
       x="-0.044145008"
       y="-0.044145008"
       width="1.08829"
       height="1.08829">
      <feGaussianBlur
         stdDeviation="1 1"
         result="blur"
         id="feGaussianBlur6" />
    </filter>
    <filter
       style="color-interpolation-filters:sRGB;"
       inkscape:label="Blur"
       id="filter7"
       x="-0.098100013"
       y="-0.098100021"
       width="1.1962"
       height="1.1962">
      <feGaussianBlur
         stdDeviation="2 2"
         result="blur"
         id="feGaussianBlur7" />
    </filter>
    <clipPath
       id="clip0_515_3621">
      <rect
         width="16"
         height="16"
         fill="#ffffff"
         transform="translate(0.00292969)"
         id="rect7969"
         x="0"
         y="0" />
    </clipPath>
    <filter
       style="color-interpolation-filters:sRGB;"
       inkscape:label="Blur"
       id="filter3991"
       x="-0.12945447"
       y="-0.10485813"
       width="1.2589089"
       height="1.2097163">
      <feGaussianBlur
         stdDeviation="4 4"
         result="blur"
         id="feGaussianBlur3989" />
    </filter>
  </defs>
  <g
     id="g877"
     transform="matrix(1.1,0,0,1.1,-3.1845928,-3.2065454)">
    <rect
       style="fill:#000000;fill-opacity:1;stroke:none;stroke-width:1.39173;stroke-dasharray:none;stroke-dashoffset:0;stroke-opacity:1;filter:url(#filter3991);opacity:0.5"
       id="rect1-6-5"
       width="74.157349"
       height="91.552269"
       x="23.998228"
       y="15.320724"
       rx="8.293788"
       ry="10.239242" />
    <path
       style="fill:#f5f7fa;fill-opacity:1;stroke-width:0.408852"
       d=""
       id="path3" />
    <rect
       style="fill:#f4e3cf;fill-opacity:1;stroke:none;stroke-width:1.39173;stroke-dasharray:none;stroke-dashoffset:0;stroke-opacity:1"
       id="rect1-6"
       width="74.157349"
       height="91.552269"
       x="23.998228"
       y="15.320724"
       rx="8.293788"
       ry="10.239242" />
    <rect
       style="fill:#1e2430;fill-opacity:1;stroke:none;stroke-width:1.45399;stroke-dasharray:none;stroke-dashoffset:0;stroke-opacity:1"
       id="rect1-6-7"
       width="66.257729"
       height="82.625931"
       x="27.948032"
       y="19.783897"
       rx="5.1944203"
       ry="6.4776425" />
    <path
       d="m 69.567647,68.380111 c 0.17432,0.437832 0.297172,0.905384 0.362552,1.402654 0.253592,1.899928 -0.324908,4.132686 -1.672094,6.454602 -2.963806,5.109396 -7.770088,7.00338 -10.979556,6.599224 -0.07132,-0.008 -0.13868,-0.03172 -0.19812,-0.06538 -0.10104,-0.05944 -0.18226,-0.15254 -0.22585,-0.265476 -0.07134,-0.1783 -0.03764,-0.382364 0.08718,-0.53095 1.26992,-1.49577 0.929164,-2.993524 0.497274,-4.88949 -0.451704,-1.983134 -0.964826,-4.229762 0.423964,-6.85479 1.747376,-3.30655 3.835516,-4.49326 5.277794,-4.907324 0.299156,-0.08522 0.60029,-0.14462 0.903406,-0.18226 z M 82.496665,39.633559 c 1.107462,0.643876 1.531428,2.032668 0.966802,3.183716 -0.35265,0.723118 -8.667554,17.7135 -10.052376,20.102772 -0.695384,1.196618 -1.981154,2.825126 -3.183718,4.251554 l -5.52544,-3.239186 c 0.641896,-1.751338 1.412564,-3.667116 2.096062,-4.847882 1.36898,-2.359558 12.001834,-18.042374 12.453536,-18.708042 0.71916,-1.0619 2.135686,-1.384828 3.245134,-0.742932 z M 55.959099,74.327533 c 0.05744,1.091618 0.287268,2.094082 0.49331,2.997488 0.443776,1.945492 0.618118,2.926162 -0.271422,3.976176 -0.18028,0.213966 -0.29519,0.465572 -0.344722,0.729064 -0.338774,-0.34076 -0.594346,-0.792464 -0.701328,-1.366996 -0.13868,-0.937084 -0.433872,-1.408598 -1.024254,-1.636434 -0.82614,-0.289246 -1.739452,-0.31302 -2.529934,-0.31302 -0.14858,0 -0.297176,0 -0.445762,0.0018 -1.810774,0.0118 -3.574,0.0118 -4.903356,-1.717664 -1.51162,-1.969268 -0.63595,-3.744382 0.210004,-5.46204 0.447742,-0.909354 0.911328,-1.84842 1.004444,-2.803332 0.02378,-0.210004 -0.0178,-0.37444 -0.13076,-0.51114 -0.42793,-0.52303 -1.814736,-0.630008 -3.15796,-0.73501 -1.365012,-0.10502 -2.775598,-0.213964 -3.649284,-0.733026 -1.620586,-0.966806 -2.01682,-2.391252 -2.062384,-3.419474 -0.08718,-1.92568 1.012372,-4.108912 2.672578,-5.311474 0.08918,-0.06538 0.213964,-0.04952 0.283306,0.03566 0.07134,0.08522 0.06538,0.210002 -0.0136,0.287266 -1.297656,1.244168 -2.559652,4.231748 -1.50766,5.899878 0.56661,0.867746 1.501716,1.238222 3.128242,1.238222 0.473498,0 0.966806,-0.02972 1.444264,-0.05744 0.46557,-0.02772 0.946994,-0.05744 1.396712,-0.05744 0.54482,0 0.97473,0.04162 1.347188,0.13076 1.279826,0.243682 2.432856,1.085676 2.926162,2.143612 0.59237,1.27388 0.277366,2.615124 -0.15058,3.875134 -0.02972,0.08916 -0.0832,0.213966 -0.15058,0.37246 -0.265474,0.624062 -0.881616,2.078228 -0.453684,2.613144 0.03764,0.03368 0.16048,0.09906 0.513118,0.09906 0.503212,0 1.222372,-0.12482 1.985116,-0.25755 0.853876,-0.15058 1.73747,-0.303116 2.442764,-0.303116 0.08718,0 0.17038,0.0018 0.249628,0.0058 0.46755,0.02972 0.929158,0.12282 1.400674,0.279342 z"
       fill="#4d2167"
       id="path8"
       style="fill:#f4e3cf;fill-opacity:1;stroke-width:1.98117" />
    <path
       d="m 78.43841,85.977889 -1.946022,5.276992 h 3.899148 z m -0.809658,-1.413352 h 1.62642 l 4.041194,10.603696 H 81.80489 l -0.96591,-2.72017 h -4.779832 l -0.96591,2.72017 h -1.512784 z m 7.159092,2.649148 h 1.30682 v 7.954548 h -1.30682 z m 0,-3.096592 h 1.30682 v 1.65483 h -1.30682 z"
       id="text1"
       style="font-size:7.27273px;fill:#f4e3cf;stroke-width:1.81818;fill-opacity:1"
       aria-label="Ai" />
  </g>
</svg>
