<?xml version="1.0" encoding="UTF-8" standalone="no"?>
<svg
   width="128"
   height="128"
   version="1.1"
   id="svg73"
   sodipodi:docname="abcd.svg"
   inkscape:version="1.2.2 (b0a8486541, 2022-12-01)"
   xmlns:inkscape="http://www.inkscape.org/namespaces/inkscape"
   xmlns:sodipodi="http://sodipodi.sourceforge.net/DTD/sodipodi-0.dtd"
   xmlns="http://www.w3.org/2000/svg"
   xmlns:svg="http://www.w3.org/2000/svg"
   xmlns:rdf="http://www.w3.org/1999/02/22-rdf-syntax-ns#"
   xmlns:cc="http://creativecommons.org/ns#"
   xmlns:dc="http://purl.org/dc/elements/1.1/">
  <metadata
     id="metadata77">
    <rdf:RDF>
      <cc:Work
         rdf:about="">
        <dc:format>image/svg+xml</dc:format>
        <dc:type
           rdf:resource="http://purl.org/dc/dcmitype/StillImage" />
      </cc:Work>
    </rdf:RDF>
  </metadata>
  <sodipodi:namedview
     pagecolor="#f5f7fa"
     bordercolor="#666666"
     borderopacity="1"
     objecttolerance="10"
     gridtolerance="10"
     guidetolerance="10"
     inkscape:pageopacity="0"
     inkscape:pageshadow="2"
     inkscape:window-width="1226"
     inkscape:window-height="605"
     id="namedview75"
     showgrid="false"
     inkscape:zoom="2"
     inkscape:cx="76"
     inkscape:cy="80"
     inkscape:window-x="35"
     inkscape:window-y="32"
     inkscape:window-maximized="0"
     inkscape:current-layer="g877"
     inkscape:document-rotation="0"
     inkscape:pagecheckerboard="0"
     inkscape:showpageshadow="2"
     inkscape:deskcolor="#d1d1d1" />
  <defs
     id="defs29">
    <filter
       style="color-interpolation-filters:sRGB;"
       inkscape:label="Blur"
       id="filter6"
       x="-0.044145008"
       y="-0.044145008"
       width="1.08829"
       height="1.08829">
      <feGaussianBlur
         stdDeviation="1 1"
         result="blur"
         id="feGaussianBlur6" />
    </filter>
    <filter
       style="color-interpolation-filters:sRGB;"
       inkscape:label="Blur"
       id="filter7"
       x="-0.098100013"
       y="-0.098100021"
       width="1.1962"
       height="1.1962">
      <feGaussianBlur
         stdDeviation="2 2"
         result="blur"
         id="feGaussianBlur7" />
    </filter>
    <clipPath
       id="clip0_515_3621">
      <rect
         width="16"
         height="16"
         fill="#ffffff"
         transform="translate(0.00292969)"
         id="rect7969"
         x="0"
         y="0" />
    </clipPath>
    <filter
       style="color-interpolation-filters:sRGB;"
       inkscape:label="Blur"
       id="filter3991"
       x="-0.12945447"
       y="-0.10485813"
       width="1.2589089"
       height="1.2097163">
      <feGaussianBlur
         stdDeviation="4 4"
         result="blur"
         id="feGaussianBlur3989" />
    </filter>
  </defs>
  <g
     id="g877"
     transform="matrix(1.1,0,0,1.1,-3.1845928,-3.2065454)">
    <rect
       style="fill:#000000;fill-opacity:1;stroke:none;stroke-width:1.39173;stroke-dasharray:none;stroke-dashoffset:0;stroke-opacity:1;filter:url(#filter3991);opacity:0.5"
       id="rect1-6-5"
       width="74.157349"
       height="91.552269"
       x="23.998228"
       y="15.320724"
       rx="8.293788"
       ry="10.239242" />
    <path
       style="fill:#f5f7fa;fill-opacity:1;stroke-width:0.408852"
       d=""
       id="path3" />
    <rect
       style="fill:#f4e3cf;fill-opacity:1;stroke:none;stroke-width:1.39173;stroke-dasharray:none;stroke-dashoffset:0;stroke-opacity:1"
       id="rect1-6"
       width="74.157349"
       height="91.552269"
       x="23.998228"
       y="15.320724"
       rx="8.293788"
       ry="10.239242" />
    <rect
       style="fill:#1e2430;fill-opacity:1;stroke:none;stroke-width:1.45399;stroke-dasharray:none;stroke-dashoffset:0;stroke-opacity:1"
       id="rect1-6-7"
       width="66.257729"
       height="82.625931"
       x="27.948032"
       y="19.783897"
       rx="5.1944203"
       ry="6.4776425" />
    <path
       style="fill:#f4e3cf;fill-opacity:1;stroke-width:1.44342"
       d="m 61.076898,40.888982 c -11.160524,0 -20.20788,9.047356 -20.20788,20.20788 0,11.16052 9.047356,20.207875 20.20788,20.207875 11.160535,0 20.207889,-9.047355 20.207889,-20.207875 0,-11.160524 -9.047354,-20.20788 -20.207889,-20.20788 z m -2.024172,3.862276 c 0.2356,-0.02455 0.534755,0.01404 0.772457,0 0.02831,0.112698 -0.171072,0.512671 -0.439795,1.09948 -1.711008,3.737862 -1.807868,8.119384 -0.21989,10.459159 0.287355,0.424215 0.546921,0.827098 0.546921,0.879581 0,0.0524 -0.309287,0.107136 -0.659691,0.107136 -0.82258,0 -1.600834,-0.499727 -3.19131,-1.759167 -0.706545,-0.559483 -1.623204,-1.028351 -1.979064,-1.099483 -0.558812,-0.111618 -0.70922,-0.06331 -1.43214,0.659689 -0.672615,0.672493 -0.879588,1.03639 -0.879588,1.652042 0,2.334634 2.770029,4.185444 7.921896,5.27751 6.996436,1.482847 8.721268,2.816404 8.914248,6.495379 0.24228,4.613341 -2.215215,8.093191 -7.594873,10.786181 -0.642096,0.321551 -1.049973,0.443043 -1.319375,0.546923 -0.119358,-0.01098 -0.207996,0.01098 -0.327021,0 -0.04576,-0.142668 -0.11277,-0.472507 -0.11277,-1.099478 0,-2.450286 -0.963541,-4.972212 -2.418854,-6.38263 -0.390656,-0.378612 -1.487813,-1.17933 -2.424497,-1.759164 -0.93665,-0.579803 -1.881238,-1.251916 -2.091833,-1.539272 -0.348993,-0.47687 -0.37526,-0.771103 -0.107136,-1.65204 0.488659,-1.608926 1.068236,-2.50738 2.19896,-3.523973 0.592795,-0.532953 1.188054,-0.976028 1.319374,-0.986711 0.131346,-0.01098 -0.752896,-0.279814 -2.086189,-0.552559 -1.333218,-0.273269 -3.288081,-0.847301 -4.296431,-1.212246 -1.843855,-0.667174 -4.328424,-2.064877 -5.277506,-3.078545 -0.04016,-0.04297 -0.07789,-0.07472 -0.11277,-0.11277 1.359808,-5.416625 5.174795,-9.853398 10.233621,-11.992792 1.058499,-0.447705 2.152224,-0.756756 3.304078,-0.992351 0.573745,-0.117252 1.16676,-0.15966 1.759169,-0.219891 z m 16.509128,8.254559 c 0.413585,0.255658 1.973049,3.635019 2.418855,5.283144 0.575577,2.127733 0.533936,5.808206 0,7.921888 -0.203218,0.80448 -0.460285,1.558363 -0.546919,1.65204 -0.08663,0.09369 -0.402893,-0.444571 -0.772456,-1.099479 -0.369614,-0.654813 -1.550534,-2.048998 -2.531621,-3.084181 -2.831889,-2.988211 -3.278061,-4.544689 -2.091834,-6.929541 0.598223,-1.2026 3.203862,-3.941448 3.523975,-3.743871 z"
       id="path14" />
    <g
       id="g6019"
       style="fill:#f4e3cf;fill-opacity:1"
       transform="matrix(1.6363636,0,0,1.6363636,8.6240773,-3.6100595)" />
  </g>
</svg>
