<?xml version="1.0" encoding="UTF-8" standalone="no"?>
<svg
   width="128"
   height="128"
   version="1.1"
   id="svg73"
   sodipodi:docname="abcd.svg"
   inkscape:version="1.2.2 (b0a8486541, 2022-12-01)"
   xmlns:inkscape="http://www.inkscape.org/namespaces/inkscape"
   xmlns:sodipodi="http://sodipodi.sourceforge.net/DTD/sodipodi-0.dtd"
   xmlns="http://www.w3.org/2000/svg"
   xmlns:svg="http://www.w3.org/2000/svg"
   xmlns:rdf="http://www.w3.org/1999/02/22-rdf-syntax-ns#"
   xmlns:cc="http://creativecommons.org/ns#"
   xmlns:dc="http://purl.org/dc/elements/1.1/">
  <metadata
     id="metadata77">
    <rdf:RDF>
      <cc:Work
         rdf:about="">
        <dc:format>image/svg+xml</dc:format>
        <dc:type
           rdf:resource="http://purl.org/dc/dcmitype/StillImage" />
      </cc:Work>
    </rdf:RDF>
  </metadata>
  <sodipodi:namedview
     pagecolor="#f5f7fa"
     bordercolor="#666666"
     borderopacity="1"
     objecttolerance="10"
     gridtolerance="10"
     guidetolerance="10"
     inkscape:pageopacity="0"
     inkscape:pageshadow="2"
     inkscape:window-width="1226"
     inkscape:window-height="605"
     id="namedview75"
     showgrid="false"
     inkscape:zoom="2"
     inkscape:cx="76"
     inkscape:cy="80"
     inkscape:window-x="35"
     inkscape:window-y="32"
     inkscape:window-maximized="0"
     inkscape:current-layer="g877"
     inkscape:document-rotation="0"
     inkscape:pagecheckerboard="0"
     inkscape:showpageshadow="2"
     inkscape:deskcolor="#d1d1d1" />
  <defs
     id="defs29">
    <filter
       style="color-interpolation-filters:sRGB;"
       inkscape:label="Blur"
       id="filter6"
       x="-0.044145008"
       y="-0.044145008"
       width="1.08829"
       height="1.08829">
      <feGaussianBlur
         stdDeviation="1 1"
         result="blur"
         id="feGaussianBlur6" />
    </filter>
    <filter
       style="color-interpolation-filters:sRGB;"
       inkscape:label="Blur"
       id="filter7"
       x="-0.098100013"
       y="-0.098100021"
       width="1.1962"
       height="1.1962">
      <feGaussianBlur
         stdDeviation="2 2"
         result="blur"
         id="feGaussianBlur7" />
    </filter>
    <clipPath
       id="clip0_515_3621">
      <rect
         width="16"
         height="16"
         fill="#ffffff"
         transform="translate(0.00292969)"
         id="rect7969"
         x="0"
         y="0" />
    </clipPath>
    <filter
       style="color-interpolation-filters:sRGB;"
       inkscape:label="Blur"
       id="filter3991"
       x="-0.12945447"
       y="-0.10485813"
       width="1.2589089"
       height="1.2097163">
      <feGaussianBlur
         stdDeviation="4 4"
         result="blur"
         id="feGaussianBlur3989" />
    </filter>
  </defs>
  <g
     id="g877"
     transform="matrix(1.1,0,0,1.1,-3.1845928,-3.2065454)">
    <rect
       style="fill:#000000;fill-opacity:1;stroke:none;stroke-width:1.39173;stroke-dasharray:none;stroke-dashoffset:0;stroke-opacity:1;filter:url(#filter3991);opacity:0.5"
       id="rect1-6-5"
       width="74.157349"
       height="91.552269"
       x="23.998228"
       y="15.320724"
       rx="8.293788"
       ry="10.239242" />
    <path
       style="fill:#f5f7fa;fill-opacity:1;stroke-width:0.408852"
       d=""
       id="path3" />
    <rect
       style="fill:#f4e3cf;fill-opacity:1;stroke:none;stroke-width:1.39173;stroke-dasharray:none;stroke-dashoffset:0;stroke-opacity:1"
       id="rect1-6"
       width="74.157349"
       height="91.552269"
       x="23.998228"
       y="15.320724"
       rx="8.293788"
       ry="10.239242" />
    <rect
       style="fill:#1e2430;fill-opacity:1;stroke:none;stroke-width:1.45399;stroke-dasharray:none;stroke-dashoffset:0;stroke-opacity:1"
       id="rect1-6-7"
       width="66.257729"
       height="82.625931"
       x="27.948032"
       y="19.783897"
       rx="5.1944203"
       ry="6.4776425" />
    <g
       id="g12"
       style="clip-rule:evenodd;fill:#f4e3cf;fill-opacity:1;fill-rule:evenodd;stroke-linejoin:round;stroke-miterlimit:2"
       transform="matrix(1.4727273,0,0,1.4727273,16.895054,19.860176)">
      <path
         d="m 16.415,25.642 c -0.062,0 -0.078,-0.031 -0.047,-0.078 l 0.327,-0.42 c 0.032,-0.047 0.109,-0.078 0.172,-0.078 h 5.562 c 0.062,0 0.078,0.047 0.047,0.093 l -0.265,0.405 c -0.031,0.047 -0.109,0.094 -0.156,0.094 z"
         style="fill:#f4e3cf;fill-opacity:1;fill-rule:nonzero"
         id="path7" />
      <path
         d="m 14.062,27.076 c -0.062,0 -0.078,-0.032 -0.046,-0.078 l 0.327,-0.421 c 0.031,-0.047 0.109,-0.078 0.171,-0.078 h 7.105 c 0.062,0 0.093,0.047 0.078,0.094 l -0.125,0.374 c -0.016,0.062 -0.078,0.093 -0.14,0.093 z"
         style="fill:#f4e3cf;fill-opacity:1;fill-rule:nonzero"
         id="path8" />
      <path
         d="m 17.833,28.509 c -0.063,0 -0.078,-0.047 -0.047,-0.093 l 0.218,-0.39 c 0.031,-0.047 0.094,-0.093 0.156,-0.093 h 3.116 c 0.062,0 0.093,0.046 0.093,0.109 l -0.031,0.374 c 0,0.062 -0.062,0.109 -0.109,0.109 z"
         style="fill:#f4e3cf;fill-opacity:1;fill-rule:nonzero"
         id="path9" />
      <path
         d="m 34.005,25.362 c -0.981,0.249 -1.651,0.436 -2.617,0.685 -0.234,0.063 -0.25,0.078 -0.452,-0.155 -0.234,-0.265 -0.405,-0.437 -0.733,-0.593 -0.981,-0.482 -1.931,-0.342 -2.82,0.234 -1.059,0.686 -1.604,1.698 -1.589,2.96 0.016,1.247 0.873,2.275 2.104,2.447 1.059,0.14 1.947,-0.234 2.648,-1.029 0.14,-0.171 0.265,-0.358 0.421,-0.576 H 27.96 c -0.327,0 -0.405,-0.203 -0.296,-0.468 0.202,-0.483 0.576,-1.293 0.795,-1.698 0.046,-0.093 0.155,-0.249 0.389,-0.249 h 5.671 c -0.031,0.421 -0.031,0.841 -0.093,1.262 -0.172,1.122 -0.592,2.15 -1.278,3.054 -1.122,1.48 -2.586,2.399 -4.44,2.648 -1.527,0.203 -2.945,-0.093 -4.191,-1.028 -1.153,-0.873 -1.808,-2.026 -1.979,-3.459 -0.203,-1.698 0.296,-3.225 1.324,-4.565 1.107,-1.449 2.571,-2.368 4.363,-2.695 1.464,-0.265 2.867,-0.094 4.129,0.763 0.825,0.545 1.417,1.293 1.807,2.197 0.093,0.14 0.031,0.218 -0.156,0.265 z"
         style="fill:#f4e3cf;fill-opacity:1;fill-rule:nonzero"
         id="path10" />
      <path
         d="m 39.162,33.978 c -1.418,-0.031 -2.711,-0.437 -3.801,-1.371 -0.92,-0.795 -1.496,-1.808 -1.683,-3.007 -0.281,-1.761 0.202,-3.319 1.262,-4.706 1.137,-1.495 2.508,-2.274 4.362,-2.602 1.59,-0.28 3.085,-0.124 4.441,0.795 1.231,0.841 1.994,1.979 2.197,3.474 0.264,2.104 -0.343,3.818 -1.792,5.282 -1.028,1.044 -2.29,1.698 -3.739,1.994 -0.421,0.078 -0.842,0.094 -1.247,0.141 z m 3.708,-6.295 c -0.015,-0.202 -0.015,-0.358 -0.046,-0.514 -0.281,-1.542 -1.699,-2.415 -3.179,-2.072 -1.449,0.327 -2.384,1.246 -2.726,2.711 -0.281,1.215 0.311,2.446 1.433,2.945 0.857,0.374 1.714,0.327 2.54,-0.094 1.23,-0.639 1.9,-1.636 1.978,-2.976 z"
         style="fill:#f4e3cf;fill-opacity:1;fill-rule:nonzero"
         id="path11" />
    </g>
    <g
       id="g6019"
       style="fill:#f4e3cf;fill-opacity:1"
       transform="matrix(1.6363636,0,0,1.6363636,8.6240773,-3.6100595)" />
  </g>
</svg>
