<?xml version="1.0" encoding="UTF-8" standalone="no"?>
<svg
   width="128"
   height="128"
   version="1.1"
   id="svg73"
   sodipodi:docname="abcd.svg"
   inkscape:version="1.2.2 (b0a8486541, 2022-12-01)"
   xmlns:inkscape="http://www.inkscape.org/namespaces/inkscape"
   xmlns:sodipodi="http://sodipodi.sourceforge.net/DTD/sodipodi-0.dtd"
   xmlns="http://www.w3.org/2000/svg"
   xmlns:svg="http://www.w3.org/2000/svg"
   xmlns:rdf="http://www.w3.org/1999/02/22-rdf-syntax-ns#"
   xmlns:cc="http://creativecommons.org/ns#"
   xmlns:dc="http://purl.org/dc/elements/1.1/">
  <metadata
     id="metadata77">
    <rdf:RDF>
      <cc:Work
         rdf:about="">
        <dc:format>image/svg+xml</dc:format>
        <dc:type
           rdf:resource="http://purl.org/dc/dcmitype/StillImage" />
      </cc:Work>
    </rdf:RDF>
  </metadata>
  <sodipodi:namedview
     pagecolor="#f5f7fa"
     bordercolor="#666666"
     borderopacity="1"
     objecttolerance="10"
     gridtolerance="10"
     guidetolerance="10"
     inkscape:pageopacity="0"
     inkscape:pageshadow="2"
     inkscape:window-width="1226"
     inkscape:window-height="605"
     id="namedview75"
     showgrid="false"
     inkscape:zoom="2"
     inkscape:cx="76"
     inkscape:cy="80"
     inkscape:window-x="35"
     inkscape:window-y="32"
     inkscape:window-maximized="0"
     inkscape:current-layer="g877"
     inkscape:document-rotation="0"
     inkscape:pagecheckerboard="0"
     inkscape:showpageshadow="2"
     inkscape:deskcolor="#d1d1d1" />
  <defs
     id="defs29">
    <filter
       style="color-interpolation-filters:sRGB;"
       inkscape:label="Blur"
       id="filter6"
       x="-0.044145008"
       y="-0.044145008"
       width="1.08829"
       height="1.08829">
      <feGaussianBlur
         stdDeviation="1 1"
         result="blur"
         id="feGaussianBlur6" />
    </filter>
    <filter
       style="color-interpolation-filters:sRGB;"
       inkscape:label="Blur"
       id="filter7"
       x="-0.098100013"
       y="-0.098100021"
       width="1.1962"
       height="1.1962">
      <feGaussianBlur
         stdDeviation="2 2"
         result="blur"
         id="feGaussianBlur7" />
    </filter>
    <clipPath
       id="clip0_515_3621">
      <rect
         width="16"
         height="16"
         fill="#ffffff"
         transform="translate(0.00292969)"
         id="rect7969"
         x="0"
         y="0" />
    </clipPath>
    <filter
       style="color-interpolation-filters:sRGB;"
       inkscape:label="Blur"
       id="filter3991"
       x="-0.12945447"
       y="-0.10485813"
       width="1.2589089"
       height="1.2097163">
      <feGaussianBlur
         stdDeviation="4 4"
         result="blur"
         id="feGaussianBlur3989" />
    </filter>
  </defs>
  <g
     id="g877"
     transform="matrix(1.1,0,0,1.1,-3.1845928,-3.2065454)">
    <rect
       style="fill:#000000;fill-opacity:1;stroke:none;stroke-width:1.39173;stroke-dasharray:none;stroke-dashoffset:0;stroke-opacity:1;filter:url(#filter3991);opacity:0.5"
       id="rect1-6-5"
       width="74.157349"
       height="91.552269"
       x="23.998228"
       y="15.320724"
       rx="8.293788"
       ry="10.239242" />
    <path
       style="fill:#f5f7fa;fill-opacity:1;stroke-width:0.408852"
       d=""
       id="path3" />
    <rect
       style="fill:#f4e3cf;fill-opacity:1;stroke:none;stroke-width:1.39173;stroke-dasharray:none;stroke-dashoffset:0;stroke-opacity:1"
       id="rect1-6"
       width="74.157349"
       height="91.552269"
       x="23.998228"
       y="15.320724"
       rx="8.293788"
       ry="10.239242" />
    <rect
       style="fill:#1e2430;fill-opacity:1;stroke:none;stroke-width:1.45399;stroke-dasharray:none;stroke-dashoffset:0;stroke-opacity:1"
       id="rect1-6-7"
       width="66.257729"
       height="82.625931"
       x="27.948032"
       y="19.783897"
       rx="5.1944203"
       ry="6.4776425" />
    <g
       id="g2"
       style="fill:#f4e3cf;fill-opacity:1"
       transform="matrix(1.6363636,0,0,1.6363636,8.6668102,-4.5364753)">
      <path
         fill="#f5f7fa"
         d="m 44.222739,39.683319 v 1.251354 H 19.886271 v -1.251354 z m 0,6.256766 v 1.251357 H 19.886271 v -1.251357 z m -7.8408,6.256773 v 1.251357 H 19.886271 v -1.251357 z"
         id="path42-7"
         style="fill:#f4e3cf;fill-opacity:1;stroke:none;stroke-width:1.089;stroke-dasharray:none;stroke-opacity:0.3"
         sodipodi:nodetypes="ccccccccccccccc" />
      <path
         d="m 19.834042,34.268997 h 4.565348 v -1.216004 h -3.189343 v -6.186686 h -1.376005 z m 8.853372,0.096 c 2.218673,0 3.701345,-1.536004 3.701345,-3.861345 0,-2.240007 -1.440005,-3.733345 -3.594678,-3.733345 -2.197341,0 -3.658679,1.536005 -3.658679,3.850679 0,2.250673 1.418672,3.744011 3.552012,3.744011 z m 0.106667,-1.205337 c -1.344005,0 -2.229341,-1.045336 -2.229341,-2.656008 0,-1.514671 0.84267,-2.528008 2.122674,-2.528008 1.365337,0 2.272007,1.056003 2.272007,2.645342 0,1.536005 -0.864003,2.538674 -2.16534,2.538674 z m 8.362691,1.216004 c 1.09867,0 2.06934,-0.330668 2.858676,-0.97067 v -3.285343 h -3.16801 v 1.16267 h 1.834672 v 2.186674 l 0.234668,-0.757336 c -0.405335,0.298668 -0.960003,0.469335 -1.578672,0.469335 -1.557338,0 -2.549341,-1.045337 -2.549341,-2.688009 0,-1.610671 0.928003,-2.506674 2.581341,-2.506674 0.650669,0 1.408005,0.128 1.97334,0.341334 l 0.384001,-1.077337 c -0.640002,-0.309334 -1.450671,-0.480001 -2.272007,-0.480001 -2.485341,0 -4.096013,1.557338 -4.096013,3.872012 0,2.240007 1.514671,3.733345 3.797345,3.733345 z"
         id="text1"
         style="font-weight:bold;font-size:10.6667px;line-height:0.8;font-family:Cantarell;-inkscape-font-specification:'Cantarell Bold';text-align:center;letter-spacing:0px;text-anchor:middle;fill:#f4e3cf;fill-opacity:1;stroke-width:2"
         aria-label="LOG" />
    </g>
    <g
       id="g6019"
       style="fill:#f4e3cf;fill-opacity:1"
       transform="matrix(1.6363636,0,0,1.6363636,8.6240773,-3.6100595)" />
  </g>
</svg>
