<?xml version="1.0" encoding="UTF-8" standalone="no"?>
<svg
   width="128"
   height="128"
   version="1.1"
   id="svg73"
   sodipodi:docname="abcd.svg"
   inkscape:version="1.2.2 (b0a8486541, 2022-12-01)"
   xmlns:inkscape="http://www.inkscape.org/namespaces/inkscape"
   xmlns:sodipodi="http://sodipodi.sourceforge.net/DTD/sodipodi-0.dtd"
   xmlns="http://www.w3.org/2000/svg"
   xmlns:svg="http://www.w3.org/2000/svg"
   xmlns:rdf="http://www.w3.org/1999/02/22-rdf-syntax-ns#"
   xmlns:cc="http://creativecommons.org/ns#"
   xmlns:dc="http://purl.org/dc/elements/1.1/">
  <metadata
     id="metadata77">
    <rdf:RDF>
      <cc:Work
         rdf:about="">
        <dc:format>image/svg+xml</dc:format>
        <dc:type
           rdf:resource="http://purl.org/dc/dcmitype/StillImage" />
      </cc:Work>
    </rdf:RDF>
  </metadata>
  <sodipodi:namedview
     pagecolor="#f5f7fa"
     bordercolor="#666666"
     borderopacity="1"
     objecttolerance="10"
     gridtolerance="10"
     guidetolerance="10"
     inkscape:pageopacity="0"
     inkscape:pageshadow="2"
     inkscape:window-width="1226"
     inkscape:window-height="605"
     id="namedview75"
     showgrid="false"
     inkscape:zoom="2"
     inkscape:cx="76.5"
     inkscape:cy="42.5"
     inkscape:window-x="35"
     inkscape:window-y="32"
     inkscape:window-maximized="0"
     inkscape:current-layer="g877"
     inkscape:document-rotation="0"
     inkscape:pagecheckerboard="0"
     inkscape:showpageshadow="2"
     inkscape:deskcolor="#d1d1d1" />
  <defs
     id="defs29">
    <filter
       style="color-interpolation-filters:sRGB;"
       inkscape:label="Blur"
       id="filter6"
       x="-0.044145008"
       y="-0.044145008"
       width="1.08829"
       height="1.08829">
      <feGaussianBlur
         stdDeviation="1 1"
         result="blur"
         id="feGaussianBlur6" />
    </filter>
    <filter
       style="color-interpolation-filters:sRGB;"
       inkscape:label="Blur"
       id="filter7"
       x="-0.098100013"
       y="-0.098100021"
       width="1.1962"
       height="1.1962">
      <feGaussianBlur
         stdDeviation="2 2"
         result="blur"
         id="feGaussianBlur7" />
    </filter>
    <clipPath
       id="clip0_515_3621">
      <rect
         width="16"
         height="16"
         fill="#ffffff"
         transform="translate(0.00292969)"
         id="rect7969"
         x="0"
         y="0" />
    </clipPath>
    <filter
       style="color-interpolation-filters:sRGB;"
       inkscape:label="Blur"
       id="filter3991"
       x="-0.12945447"
       y="-0.10485813"
       width="1.2589089"
       height="1.2097163">
      <feGaussianBlur
         stdDeviation="4 4"
         result="blur"
         id="feGaussianBlur3989" />
    </filter>
  </defs>
  <g
     id="g877"
     transform="matrix(1.1,0,0,1.1,-3.1845928,-3.2065454)">
    <rect
       style="fill:#000000;fill-opacity:1;stroke:none;stroke-width:1.39173;stroke-dasharray:none;stroke-dashoffset:0;stroke-opacity:1;filter:url(#filter3991);opacity:0.5"
       id="rect1-6-5"
       width="74.157349"
       height="91.552269"
       x="23.998228"
       y="15.320724"
       rx="8.293788"
       ry="10.239242" />
    <path
       style="fill:#f5f7fa;fill-opacity:1;stroke-width:0.408852"
       d=""
       id="path3" />
    <rect
       style="fill:#f4e3cf;fill-opacity:1;stroke:none;stroke-width:1.39173;stroke-dasharray:none;stroke-dashoffset:0;stroke-opacity:1"
       id="rect1-6"
       width="74.157349"
       height="91.552269"
       x="23.998228"
       y="15.320724"
       rx="8.293788"
       ry="10.239242" />
    <rect
       style="fill:#1e2430;fill-opacity:1;stroke:none;stroke-width:1.45399;stroke-dasharray:none;stroke-dashoffset:0;stroke-opacity:1"
       id="rect1-6-7"
       width="66.257729"
       height="82.625931"
       x="27.948032"
       y="19.783897"
       rx="5.1944203"
       ry="6.4776425" />
    <path
       d="m 81.647634,57.571314 c 0,2.829272 -0.458182,5.391819 -1.372908,7.687636 -0.9,2.281091 -2.158364,4.043455 -3.78,5.288728 -1.606911,1.248544 -3.411819,1.873636 -5.411455,1.873636 -1.557819,0 -2.763819,-0.335455 -3.618,-1.008 -0.849273,-0.667636 -1.274728,-1.669092 -1.274728,-3.006 l 0.06872,-1.602 h -0.142362 c -1.039091,1.872 -2.330181,3.280908 -3.871636,4.225091 -1.525092,0.927817 -3.179455,1.390909 -4.959819,1.390909 -2.474181,0 -4.396909,-0.775636 -5.771454,-2.325273 -1.351636,-1.554544 -2.027455,-3.706363 -2.027455,-6.457091 0,-2.493817 0.502364,-4.814181 1.508728,-6.957817 1.026,-2.143636 2.452908,-3.848728 4.279091,-5.115274 1.827817,-1.261637 3.852,-1.891637 6.074181,-1.891637 3.447819,0 5.817273,1.384364 7.113273,4.156364 h 0.142362 l 0.921272,-3.649089 h 3.685091 l -2.745817,11.539636 c -0.577638,2.495453 -0.865638,4.418181 -0.865638,5.771453 0,1.430183 0.636547,2.145273 1.911274,2.145273 1.256726,0 2.413637,-0.525273 3.46909,-1.577454 1.071819,-1.047272 1.916183,-2.488908 2.529819,-4.328183 0.615272,-1.844181 0.921272,-3.884725 0.921272,-6.123272 0,-2.721272 -0.605455,-5.13 -1.818,-7.224545 -1.212544,-2.114183 -2.960181,-3.735819 -5.244544,-4.86 -2.284364,-1.142183 -4.956547,-1.713272 -8.014911,-1.713272 -3.811089,0 -7.180362,0.813272 -10.112726,2.443089 -2.927455,1.628183 -5.226546,3.978 -6.895636,7.049456 -1.670727,3.055091 -2.505274,6.484908 -2.505274,10.286181 0,2.935638 0.613636,5.529274 1.842547,7.78091 1.242,2.233636 3.028908,3.953453 5.362363,5.157817 2.349818,1.199455 5.084181,1.8 8.201454,1.8 2.284364,0 4.599819,-0.289636 6.944727,-0.867272 2.351456,-0.564545 4.783092,-1.507092 7.298183,-2.826 l 1.299273,2.554364 c -2.279456,1.318908 -4.760183,2.323636 -7.440547,3.012544 -2.662364,0.700364 -5.364,1.050547 -8.101636,1.050547 -3.798,0 -7.12309,-0.731455 -9.975273,-2.194364 -2.834181,-1.443272 -5.005636,-3.505091 -6.519272,-6.185455 -1.497272,-2.688545 -2.245091,-5.781272 -2.245091,-9.276545 0,-4.259455 0.976908,-8.131091 2.930727,-11.614908 1.966909,-3.485456 4.693092,-6.192 8.176909,-8.121275 3.480546,-1.945636 7.376727,-2.919272 11.688546,-2.919272 3.802909,0 7.080545,0.690547 9.834545,2.071636 2.758909,1.369636 4.861636,3.307092 6.308181,5.814 1.467819,2.515092 2.202547,5.429455 2.202547,8.744728 z m -14.324727,0.186545 c 0,-1.554545 -0.518728,-2.804726 -1.557819,-3.748909 -1.03909,-0.955636 -2.42509,-1.435091 -4.156362,-1.435091 -1.592183,0 -3.010911,0.487638 -4.256183,1.459638 -1.227272,0.957272 -2.197636,2.295817 -2.906181,4.014 -0.708547,1.703453 -1.063636,3.550908 -1.063636,5.542362 0,1.826182 0.371453,3.256363 1.112726,4.292182 0.754363,1.030909 1.911274,1.546364 3.470727,1.546364 1.970183,0 3.773455,-0.798546 5.411455,-2.394 1.641273,-1.595455 2.775273,-3.586908 3.402,-5.974364 0.361637,-1.402363 0.543273,-2.505272 0.543273,-3.308727 z"
       fill="#ffffff"
       fill-opacity="0.5"
       fill-rule="nonzero"
       id="path3-3"
       style="fill:#f4e3cf;fill-opacity:1;stroke-width:1.63636" />
  </g>
</svg>
