<?xml version="1.0" encoding="UTF-8" standalone="no"?>
<svg
   width="128"
   height="128"
   version="1.1"
   id="svg73"
   sodipodi:docname="abcd.svg"
   inkscape:version="1.2.2 (b0a8486541, 2022-12-01)"
   xmlns:inkscape="http://www.inkscape.org/namespaces/inkscape"
   xmlns:sodipodi="http://sodipodi.sourceforge.net/DTD/sodipodi-0.dtd"
   xmlns="http://www.w3.org/2000/svg"
   xmlns:svg="http://www.w3.org/2000/svg"
   xmlns:rdf="http://www.w3.org/1999/02/22-rdf-syntax-ns#"
   xmlns:cc="http://creativecommons.org/ns#"
   xmlns:dc="http://purl.org/dc/elements/1.1/">
  <metadata
     id="metadata77">
    <rdf:RDF>
      <cc:Work
         rdf:about="">
        <dc:format>image/svg+xml</dc:format>
        <dc:type
           rdf:resource="http://purl.org/dc/dcmitype/StillImage" />
      </cc:Work>
    </rdf:RDF>
  </metadata>
  <sodipodi:namedview
     pagecolor="#f5f7fa"
     bordercolor="#666666"
     borderopacity="1"
     objecttolerance="10"
     gridtolerance="10"
     guidetolerance="10"
     inkscape:pageopacity="0"
     inkscape:pageshadow="2"
     inkscape:window-width="1226"
     inkscape:window-height="605"
     id="namedview75"
     showgrid="false"
     inkscape:zoom="2"
     inkscape:cx="76.5"
     inkscape:cy="42.5"
     inkscape:window-x="35"
     inkscape:window-y="32"
     inkscape:window-maximized="0"
     inkscape:current-layer="g877"
     inkscape:document-rotation="0"
     inkscape:pagecheckerboard="0"
     inkscape:showpageshadow="2"
     inkscape:deskcolor="#d1d1d1" />
  <defs
     id="defs29">
    <filter
       style="color-interpolation-filters:sRGB;"
       inkscape:label="Blur"
       id="filter6"
       x="-0.044145008"
       y="-0.044145008"
       width="1.08829"
       height="1.08829">
      <feGaussianBlur
         stdDeviation="1 1"
         result="blur"
         id="feGaussianBlur6" />
    </filter>
    <filter
       style="color-interpolation-filters:sRGB;"
       inkscape:label="Blur"
       id="filter7"
       x="-0.098100013"
       y="-0.098100021"
       width="1.1962"
       height="1.1962">
      <feGaussianBlur
         stdDeviation="2 2"
         result="blur"
         id="feGaussianBlur7" />
    </filter>
    <clipPath
       id="clip0_515_3621">
      <rect
         width="16"
         height="16"
         fill="#ffffff"
         transform="translate(0.00292969)"
         id="rect7969"
         x="0"
         y="0" />
    </clipPath>
    <filter
       style="color-interpolation-filters:sRGB;"
       inkscape:label="Blur"
       id="filter3991"
       x="-0.12945447"
       y="-0.10485813"
       width="1.2589089"
       height="1.2097163">
      <feGaussianBlur
         stdDeviation="4 4"
         result="blur"
         id="feGaussianBlur3989" />
    </filter>
  </defs>
  <g
     id="g877"
     transform="matrix(1.1,0,0,1.1,-3.1845928,-3.2065454)">
    <rect
       style="fill:#000000;fill-opacity:1;stroke:none;stroke-width:1.39173;stroke-dasharray:none;stroke-dashoffset:0;stroke-opacity:1;filter:url(#filter3991);opacity:0.5"
       id="rect1-6-5"
       width="74.157349"
       height="91.552269"
       x="23.998228"
       y="15.320724"
       rx="8.293788"
       ry="10.239242" />
    <path
       style="fill:#f5f7fa;fill-opacity:1;stroke-width:0.408852"
       d=""
       id="path3" />
    <rect
       style="fill:#f4e3cf;fill-opacity:1;stroke:none;stroke-width:1.39173;stroke-dasharray:none;stroke-dashoffset:0;stroke-opacity:1"
       id="rect1-6"
       width="74.157349"
       height="91.552269"
       x="23.998228"
       y="15.320724"
       rx="8.293788"
       ry="10.239242" />
    <rect
       style="fill:#1e2430;fill-opacity:1;stroke:none;stroke-width:1.45399;stroke-dasharray:none;stroke-dashoffset:0;stroke-opacity:1"
       id="rect1-6-7"
       width="66.257729"
       height="82.625931"
       x="27.948032"
       y="19.783897"
       rx="5.1944203"
       ry="6.4776425" />
    <path
       d="m 73.962366,97.215002 c -0.05454,0 -0.114541,-0.0018 -0.18182,-0.009 -0.06546,-0.0054 -0.12364,-0.0128 -0.17454,-0.02182 v -0.692726 c 0.04546,0.009 0.09818,0.0164 0.16,0.0182 0.06182,0.0072 0.12,0.011 0.17454,0.011 0.116359,0 0.218182,-0.0146 0.30909,-0.04728 0.09454,-0.0291 0.18,-0.07454 0.254546,-0.14 0.07636,-0.06728 0.14182,-0.15272 0.19636,-0.26 0.06182,-0.10546 0.116359,-0.236364 0.1709,-0.389092 l 0.09818,-0.301818 -1.878182,-5.076362 h 0.87091 l 1.42,4.23818 h 0.02 l 1.42,-4.23818 h 0.86 l -1.985456,5.381818 c -0.1091,0.294544 -0.21818,0.538182 -0.327272,0.732726 -0.1109,0.19818 -0.232728,0.356364 -0.367272,0.47091 -0.13092,0.12 -0.281818,0.203636 -0.45091,0.24909 -0.16728,0.05092 -0.361818,0.07454 -0.58909,0.07454 z M 69.329638,91.76773 h -0.785454 c 0.0072,-0.212728 0.06,-0.41091 0.16,-0.596364 0.10182,-0.18364 0.236364,-0.343636 0.40909,-0.48 0.17272,-0.13454 0.372728,-0.24 0.601818,-0.314546 0.232728,-0.07818 0.481818,-0.11636 0.749092,-0.11636 0.3,0 0.570908,0.03818 0.814546,0.11636 0.24,0.07454 0.445454,0.18364 0.62,0.329092 0.17272,0.14182 0.303636,0.312726 0.394544,0.516362 0.09272,0.201818 0.14182,0.427274 0.14182,0.674546 v 3.481818 h -0.776362 v -0.88 h -0.02 c -0.07272,0.14 -0.16364,0.269092 -0.278182,0.385454 -0.11092,0.11092 -0.24,0.21091 -0.38,0.29091 -0.14182,0.08 -0.294546,0.14 -0.461818,0.18364 -0.16182,0.04364 -0.334546,0.06546 -0.51091,0.06546 -0.256364,0 -0.492728,-0.03454 -0.7,-0.10364 -0.21091,-0.0709 -0.392728,-0.17272 -0.543636,-0.301818 -0.15092,-0.1309 -0.267274,-0.287272 -0.347274,-0.46909 -0.08182,-0.18546 -0.12364,-0.39091 -0.12364,-0.616364 0,-0.438182 0.16364,-0.783636 0.485456,-1.03091 0.321818,-0.247272 0.794544,-0.38909 1.416362,-0.42909 l 1.42,-0.08182 v -0.423636 c 0,-0.318182 -0.1,-0.558182 -0.3,-0.725456 -0.19636,-0.16908 -0.485454,-0.254544 -0.861818,-0.254544 -0.14728,0 -0.283636,0.02 -0.40909,0.05818 -0.12546,0.03454 -0.238182,0.08546 -0.34,0.15454 -0.09636,0.06546 -0.17636,0.14546 -0.241818,0.245456 -0.06364,0.09636 -0.10728,0.203636 -0.13272,0.321818 z m -14.858182,3.656362 c -0.36,0 -0.681818,-0.06 -0.970908,-0.18364 -0.285456,-0.12182 -0.527274,-0.294544 -0.734546,-0.516364 -0.203636,-0.225454 -0.358182,-0.49818 -0.469092,-0.814544 -0.1091,-0.32 -0.16364,-0.674546 -0.16364,-1.067274 0,-0.394544 0.05454,-0.750908 0.16364,-1.06909 0.1109,-0.32 0.265456,-0.589092 0.469092,-0.812728 0.207272,-0.225454 0.44909,-0.4 0.734546,-0.518182 0.28909,-0.12182 0.610908,-0.18182 0.970908,-0.18182 0.356364,0 0.678182,0.06 0.963636,0.18182 0.289092,0.11818 0.534546,0.292728 0.738181,0.518182 0.203637,0.223636 0.36,0.492728 0.469093,0.812728 0.112719,0.318182 0.165459,0.674546 0.165459,1.06909 0,0.392728 -0.05272,0.747274 -0.165459,1.067274 -0.1091,0.316364 -0.265456,0.58909 -0.469093,0.814544 -0.203636,0.22182 -0.449089,0.394546 -0.738181,0.516364 -0.285454,0.12364 -0.607272,0.18364 -0.963636,0.18364 z m 12.901818,-0.04546 h -0.781819 v -0.856358 h -0.0146 c -0.163639,0.292728 -0.387272,0.518182 -0.665453,0.67091 -0.28,0.15272 -0.603636,0.230908 -0.974546,0.230908 -0.32,0 -0.614544,-0.06 -0.88,-0.18364 -0.261819,-0.12364 -0.492727,-0.301818 -0.687272,-0.527272 -0.1909,-0.225454 -0.338182,-0.496364 -0.445454,-0.814546 -0.10728,-0.32 -0.16,-0.670908 -0.16,-1.056364 0,-0.385454 0.05272,-0.736362 0.16,-1.054544 0.10728,-0.32 0.252726,-0.59091 0.441818,-0.816364 0.1909,-0.229092 0.418182,-0.4 0.68,-0.523636 0.265454,-0.12728 0.556364,-0.18728 0.870908,-0.18728 0.363638,0 0.685456,0.07454 0.965456,0.225456 0.278182,0.1509 0.496364,0.363636 0.654544,0.645454 h 0.0164 v -2.836364 h 0.82 z m -8.934545,-5.072726 v 0.825454 h 0.02 c 0.321818,-0.581818 0.874544,-0.87091 1.656362,-0.87091 0.278182,0 0.530911,0.04364 0.752729,0.13092 0.223636,0.08546 0.412728,0.20909 0.567272,0.370908 0.15818,0.16 0.276364,0.356364 0.36,0.589092 0.08364,0.227272 0.12546,0.487272 0.12546,0.776364 v 3.250908 h -0.816368 v -3.110908 c 0,-0.416364 -0.10728,-0.734546 -0.316364,-0.95091 -0.21091,-0.218182 -0.516364,-0.32909 -0.918182,-0.32909 -0.205454,0 -0.394546,0.03636 -0.567272,0.10364 -0.1691,0.0691 -0.314546,0.16728 -0.438182,0.290908 -0.12,0.12728 -0.21091,0.28 -0.276364,0.458182 -0.06908,0.17818 -0.1,0.376364 -0.1,0.592728 v 2.945454 h -0.82 V 90.30592 Z m -13.178182,5.072726 h -0.789092 v -6.78909 h 0.981819 l 2.343636,5.663636 h 0.03636 l 2.341818,-5.663636 h 0.983638 v 6.78909 h -0.789092 v -5.232726 h -0.03454 l -2.161818,5.183636 h -0.716364 l -2.163636,-5.183636 h -0.03272 z m 24.920001,-0.665454 c 0.207272,0 0.4,-0.0309 0.574544,-0.09454 0.17636,-0.06182 0.327274,-0.1491 0.45091,-0.261818 0.12728,-0.11272 0.22909,-0.247272 0.301818,-0.4 0.0709,-0.15636 0.10728,-0.327272 0.10728,-0.50909 v -0.409092 l -1.325454,0.08546 c -0.383636,0.02546 -0.672729,0.10546 -0.865454,0.243638 -0.19454,0.13636 -0.29091,0.325454 -0.29091,0.570908 0,0.11818 0.02182,0.225454 0.0691,0.32 0.0509,0.09454 0.12182,0.17454 0.210907,0.243636 0.09454,0.0691 0.207275,0.12182 0.334546,0.16 0.1291,0.03454 0.272728,0.05092 0.432728,0.05092 z m -15.709092,-0.0182 c 0.234546,0 0.445454,-0.04182 0.629092,-0.12728 0.18728,-0.08364 0.347272,-0.205456 0.476362,-0.36 0.13092,-0.16 0.229091,-0.356364 0.294546,-0.585456 0.07092,-0.22909 0.105459,-0.48909 0.105459,-0.78 0,-0.290908 -0.03454,-0.552726 -0.105459,-0.78 -0.06546,-0.230908 -0.16364,-0.425454 -0.294546,-0.585454 -0.12908,-0.16 -0.28909,-0.28 -0.476362,-0.36 -0.18364,-0.08546 -0.394546,-0.1291 -0.629092,-0.1291 -0.236364,0 -0.447272,0.04364 -0.636364,0.1291 -0.18364,0.08364 -0.343636,0.205454 -0.474544,0.365454 -0.1291,0.15818 -0.227274,0.349092 -0.296364,0.58 -0.06546,0.227274 -0.09818,0.489092 -0.09818,0.78 0,0.29091 0.03272,0.55091 0.10364,0.78 0.06728,0.229092 0.16728,0.425456 0.296364,0.585456 0.12728,0.15454 0.285454,0.276362 0.46909,0.36 0.1891,0.08546 0.4,0.12728 0.636364,0.12728 z m 10.61091,-3.707272 c -0.223636,0 -0.425456,0.04364 -0.607274,0.13272 -0.18182,0.08728 -0.338182,0.214546 -0.46909,0.376364 -0.1291,0.16 -0.23091,0.354546 -0.301818,0.581818 -0.0691,0.23091 -0.10364,0.485454 -0.10364,0.763636 0,0.281818 0.03454,0.538182 0.10364,0.765456 0.0709,0.225454 0.17272,0.42 0.301818,0.585454 0.1309,0.16 0.287272,0.283636 0.46909,0.370908 0.18182,0.08728 0.383638,0.13092 0.607274,0.13092 0.22,0 0.418182,-0.04364 0.603636,-0.13092 0.18182,-0.09272 0.336364,-0.21818 0.465453,-0.381818 0.127281,-0.16182 0.227274,-0.358182 0.300001,-0.583636 0.07272,-0.227272 0.10728,-0.48 0.10728,-0.756364 0,-0.276362 -0.03454,-0.525454 -0.10728,-0.754544 -0.07272,-0.227274 -0.17272,-0.423638 -0.300001,-0.585456 -0.129099,-0.16364 -0.283636,-0.28909 -0.465453,-0.376362 -0.185461,-0.09272 -0.383636,-0.13818 -0.603636,-0.13818 z"
       style="clip-rule:evenodd;fill:#f4e3cf;fill-opacity:1;fill-rule:nonzero;stroke-width:1.81818;stroke-linejoin:round;stroke-miterlimit:2"
       id="path2" />
    <path
       d="m 43.04542,42.830168 h -3.933951 c 0,-2.452091 0.892032,-4.486662 2.678744,-6.102391 1.801292,-1.63031 4.0824,-2.445465 6.847299,-2.445465 2.921301,0 5.209036,0.77274 6.868505,2.316895 1.658144,1.546805 2.486552,3.694041 2.486552,6.443035 0,1.346661 -0.4374,2.650909 -1.317501,3.912741 -0.864196,1.261834 -2.049152,2.20423 -3.550892,2.82852 1.701884,0.538134 3.012757,1.432816 3.933948,2.678744 0.934445,1.247252 1.403657,2.77285 1.403657,4.571492 0,2.780804 -0.906612,4.983709 -2.722484,6.614018 -1.814548,1.63031 -4.173856,2.445465 -7.080577,2.445465 -2.905398,0 -5.273984,-0.785995 -7.101787,-2.360635 -1.814548,-1.573315 -2.722484,-3.650301 -2.722484,-6.229636 h 3.955156 c 0,1.628984 0.531508,2.933231 1.595848,3.912741 1.061689,0.97686 2.487879,1.465954 4.273267,1.465954 1.899376,0 3.352073,-0.49572 4.35942,-1.48716 1.00602,-0.994091 1.509692,-2.417629 1.509692,-4.275918 0,-1.798641 -0.55404,-3.181091 -1.658144,-4.146021 -1.106755,-0.96228 -2.699951,-1.459325 -4.786216,-1.48716 h -2.954439 v -3.211576 h 2.954439 c 1.858288,-0.02783 3.317612,-0.518254 4.381952,-1.467279 1.063016,-0.95035 1.593197,-2.232065 1.593197,-3.84912 0,-3.627769 -1.805269,-5.442315 -5.421109,-5.442315 -1.700559,0 -3.0618,0.489091 -4.0824,1.465951 -1.00602,0.964931 -1.509692,2.246645 -1.509692,3.84912 z m 40.273936,9.632079 c 0,4.60728 -0.78732,8.032255 -2.360635,10.270948 -1.573316,2.240017 -4.033359,3.360027 -7.378805,3.360027 -3.303034,0 -5.748496,-1.092175 -7.335067,-3.275199 -1.58922,-2.196277 -2.411001,-5.471476 -2.467996,-9.824268 v -5.251452 c 0,-4.551611 0.78732,-7.93152 2.36196,-10.142377 1.571989,-2.210859 4.039987,-3.317614 7.398688,-3.317614 3.332192,0 5.784283,1.070969 7.357599,3.211576 1.573313,2.126029 2.380516,5.414483 2.424256,9.866684 z m -3.933951,-5.38002 c 0,-3.330868 -0.467884,-5.753799 -1.402329,-7.271444 -0.937096,-1.5309 -2.417631,-2.295686 -4.445575,-2.295686 -2.01204,0 -3.479319,0.75816 -4.401836,2.27448 -0.921189,1.517645 -1.395703,3.84912 -1.424863,6.995749 v 6.293257 c 0,3.345448 0.482466,5.820072 1.446071,7.422545 0.979511,1.587895 2.453416,2.380518 4.423043,2.380518 1.943116,0 3.381233,-0.750209 4.31568,-2.253274 0.951676,-1.503065 1.447396,-3.870326 1.489809,-7.101785 z"
       style="clip-rule:evenodd;fill:#f4e3cf;fill-opacity:1;fill-rule:nonzero;stroke-width:1.32546;stroke-linejoin:round;stroke-miterlimit:2"
       id="path3-6" />
  </g>
</svg>
