<?xml version="1.0" encoding="UTF-8" standalone="no"?>
<svg
   width="64"
   height="64"
   version="1.1"
   id="svg73"
   sodipodi:docname="chromium.svg"
   inkscape:version="1.2.2 (b0a8486541, 2022-12-01)"
   xmlns:inkscape="http://www.inkscape.org/namespaces/inkscape"
   xmlns:sodipodi="http://sodipodi.sourceforge.net/DTD/sodipodi-0.dtd"
   xmlns="http://www.w3.org/2000/svg"
   xmlns:svg="http://www.w3.org/2000/svg"
   xmlns:rdf="http://www.w3.org/1999/02/22-rdf-syntax-ns#"
   xmlns:cc="http://creativecommons.org/ns#"
   xmlns:dc="http://purl.org/dc/elements/1.1/">
  <metadata
     id="metadata77">
    <rdf:RDF>
      <cc:Work
         rdf:about="">
        <dc:format>image/svg+xml</dc:format>
        <dc:type
           rdf:resource="http://purl.org/dc/dcmitype/StillImage" />
      </cc:Work>
    </rdf:RDF>
  </metadata>
  <sodipodi:namedview
     pagecolor="#f5f7fa"
     bordercolor="#666666"
     borderopacity="1"
     objecttolerance="10"
     gridtolerance="10"
     guidetolerance="10"
     inkscape:pageopacity="0"
     inkscape:pageshadow="2"
     inkscape:window-width="1280"
     inkscape:window-height="603"
     id="namedview75"
     showgrid="false"
     inkscape:zoom="6.2890625"
     inkscape:cx="56.288199"
     inkscape:cy="37.843478"
     inkscape:window-x="35"
     inkscape:window-y="32"
     inkscape:window-maximized="0"
     inkscape:current-layer="g877"
     inkscape:document-rotation="0"
     inkscape:pagecheckerboard="0"
     inkscape:showpageshadow="2"
     inkscape:deskcolor="#d1d1d1" />
  <defs
     id="defs29">
    <filter
       style="color-interpolation-filters:sRGB;"
       inkscape:label="Blur"
       id="filter1"
       x="-0.091333304"
       y="-0.091333304"
       width="1.1826666"
       height="1.1826666">
      <feGaussianBlur
         stdDeviation="1.3 1.3"
         result="blur"
         id="feGaussianBlur1" />
    </filter>
  </defs>
  <circle
     cx="32.516094"
     cy="31.877844"
     r="0"
     fill="url(#b)"
     stroke-width="1.5715"
     id="circle41"
     style="fill:url(#b)" />
  <g
     aria-label="GZ"
     transform="matrix(1.2212657,0,0,0.81882264,0.4960938,-0.1661539)"
     id="text93"
     style="font-weight:bold;font-size:11.5263px;line-height:1.25;font-family:sans-serif;-inkscape-font-specification:'sans-serif Bold';fill:#f2f2f2;stroke-width:0.288159" />
  <g
     id="g877"
     transform="matrix(1.1,0,0,1.1,-3.1845928,-3.2065454)">
    <rect
       style="fill:none;fill-opacity:1;stroke:#000000;stroke-width:2.72727;stroke-dasharray:none;stroke-opacity:1;filter:url(#filter1);opacity:0.5"
       id="rect1-5"
       width="49.090908"
       height="49.090908"
       x="7.4405394"
       y="7.4604964"
       rx="7.4768682"
       ry="7.477273" />
    <rect
       style="opacity:1;fill:#c4c2c5;stroke-width:2.72727273;stroke-opacity:1;fill-opacity:1;stroke:#1e2430;stroke-dasharray:none"
       id="rect1"
       width="49.090908"
       height="49.090908"
       x="7.4405394"
       y="7.4604964"
       rx="7.4768682"
       ry="7.477273" />
    <rect
       style="fill:#1e2430;fill-opacity:1;stroke:none;stroke-width:2.33829;stroke-dasharray:none;stroke-opacity:1"
       id="rect1-6"
       width="42.089317"
       height="42.089317"
       x="10.941335"
       y="10.961291"
       rx="5.5927272"
       ry="5.5927272" />
    <path
       style="color:#444444;fill:#f4e3cf;fill-opacity:1;stroke:none;stroke-width:0.434235;stroke-dasharray:none;stroke-opacity:0.6"
       class="ColorScheme-Text"
       d="m 21.998107,21.110073 c 0,0 -3.631962,0 -3.631962,3.631958 v 14.527834 c 0,3.631961 3.631962,3.631961 3.631962,3.631961 h 19.975777 c 0,0 3.631958,0 3.631958,-3.631961 V 24.742031 c 0,-3.631958 -3.631958,-3.631958 -3.631958,-3.631958 z m 0.453995,3.631958 h 2.72397 c 0.251511,0 0.453991,0.202485 0.453991,0.453997 v 2.723968 c 0,0.251511 -0.202481,0.453996 -0.453991,0.453996 h -2.72397 c -0.251511,0 -0.453995,-0.202488 -0.453995,-0.453996 v -2.723968 c 0,-0.251501 0.202481,-0.453997 0.453995,-0.453997 z m 5.447938,0 h 2.723969 c 0.251507,0 0.453996,0.202485 0.453996,0.453997 v 2.723968 c 0,0.251511 -0.202485,0.453996 -0.453996,0.453996 H 27.90004 c -0.251515,0 -0.453996,-0.202488 -0.453996,-0.453996 v -2.723968 c 0,-0.251501 0.202485,-0.453997 0.453996,-0.453997 z m 5.447937,0 h 2.723969 c 0.251524,0 0.454,0.202485 0.454,0.453997 v 2.723968 c 0,0.251511 -0.2025,0.453996 -0.454,0.453996 h -2.723969 c -0.251502,0 -0.453994,-0.202488 -0.453994,-0.453996 v -2.723968 c 0,-0.251501 0.202484,-0.453997 0.453994,-0.453997 z m 5.447943,0 h 2.723967 c 0.251535,0 0.453997,0.202485 0.453997,0.453997 v 2.723968 c 0,0.251511 -0.20249,0.453996 -0.453997,0.453996 H 38.79592 c -0.251505,0 -0.453995,-0.202488 -0.453995,-0.453996 v -2.723968 c 0,-0.251501 0.20249,-0.453997 0.453995,-0.453997 z m -16.343819,5.447943 h 2.723971 c 0.251511,0 0.453991,0.202481 0.453991,0.453992 v 2.723967 c 0,0.251511 -0.202481,0.453996 -0.453991,0.453996 h -2.723971 c -0.251512,0 -0.453994,-0.202483 -0.453994,-0.453996 v -2.723967 c 0,-0.251512 0.202481,-0.453992 0.453994,-0.453992 z m 5.447939,0 h 2.723969 c 0.251507,0 0.453996,0.202481 0.453996,0.453992 v 2.723967 c 0,0.251511 -0.202485,0.453996 -0.453996,0.453996 H 27.90004 c -0.251515,0 -0.453996,-0.202483 -0.453996,-0.453996 v -2.723967 c 0,-0.251512 0.202485,-0.453992 0.453996,-0.453992 z m 5.447937,0 h 2.723969 c 0.251524,0 0.454,0.202481 0.454,0.453992 v 2.723967 c 0,0.251511 -0.2025,0.453996 -0.454,0.453996 h -2.723969 c -0.251502,0 -0.453994,-0.202483 -0.453994,-0.453996 v -2.723967 c 0,-0.251512 0.202484,-0.453992 0.453994,-0.453992 z m 5.447943,0 h 2.723967 c 0.251535,0 0.453997,0.202481 0.453997,0.453992 v 2.723967 c 0,0.251511 -0.20249,0.453996 -0.453997,0.453996 H 38.79592 c -0.251505,0 -0.453995,-0.202483 -0.453995,-0.453996 v -2.723967 c 0,-0.251512 0.20249,-0.453992 0.453995,-0.453992 z m -12.711863,5.447934 h 11.803871 c 0.251475,0 0.453997,0.202469 0.453997,0.453993 v 2.723969 c 0,0.251475 -0.202491,0.453995 -0.453997,0.453995 H 26.084057 c -0.251505,0 -0.453994,-0.20249 -0.453994,-0.453995 v -2.723969 c 0,-0.251499 0.202487,-0.453993 0.453994,-0.453993 z"
       id="path5-6" />
  </g>
</svg>
