<?xml version="1.0" encoding="UTF-8" standalone="no"?>
<svg
   width="64"
   height="64"
   version="1.1"
   id="svg73"
   sodipodi:docname="accessories-character-map.svg"
   inkscape:version="1.2.2 (b0a8486541, 2022-12-01)"
   xmlns:inkscape="http://www.inkscape.org/namespaces/inkscape"
   xmlns:sodipodi="http://sodipodi.sourceforge.net/DTD/sodipodi-0.dtd"
   xmlns="http://www.w3.org/2000/svg"
   xmlns:svg="http://www.w3.org/2000/svg"
   xmlns:rdf="http://www.w3.org/1999/02/22-rdf-syntax-ns#"
   xmlns:cc="http://creativecommons.org/ns#"
   xmlns:dc="http://purl.org/dc/elements/1.1/">
  <metadata
     id="metadata77">
    <rdf:RDF>
      <cc:Work
         rdf:about="">
        <dc:format>image/svg+xml</dc:format>
        <dc:type
           rdf:resource="http://purl.org/dc/dcmitype/StillImage" />
      </cc:Work>
    </rdf:RDF>
  </metadata>
  <sodipodi:namedview
     pagecolor="#f5f7fa"
     bordercolor="#666666"
     borderopacity="1"
     objecttolerance="10"
     gridtolerance="10"
     guidetolerance="10"
     inkscape:pageopacity="0"
     inkscape:pageshadow="2"
     inkscape:window-width="1280"
     inkscape:window-height="603"
     id="namedview75"
     showgrid="false"
     inkscape:zoom="6.2890625"
     inkscape:cx="52.313043"
     inkscape:cy="37.843478"
     inkscape:window-x="35"
     inkscape:window-y="32"
     inkscape:window-maximized="0"
     inkscape:current-layer="g877"
     inkscape:document-rotation="0"
     inkscape:pagecheckerboard="0"
     inkscape:showpageshadow="2"
     inkscape:deskcolor="#d1d1d1" />
  <defs
     id="defs29">
    <filter
       style="color-interpolation-filters:sRGB;"
       inkscape:label="Blur"
       id="filter1"
       x="-0.091333304"
       y="-0.091333304"
       width="1.1826666"
       height="1.1826666">
      <feGaussianBlur
         stdDeviation="1.3 1.3"
         result="blur"
         id="feGaussianBlur1" />
    </filter>
  </defs>
  <circle
     cx="32.516094"
     cy="31.877844"
     r="0"
     fill="url(#b)"
     stroke-width="1.5715"
     id="circle41"
     style="fill:url(#b)" />
  <g
     aria-label="GZ"
     transform="matrix(1.2212657,0,0,0.81882264,0.4960938,-0.1661539)"
     id="text93"
     style="font-weight:bold;font-size:11.5263px;line-height:1.25;font-family:sans-serif;-inkscape-font-specification:'sans-serif Bold';fill:#f2f2f2;stroke-width:0.288159" />
  <g
     id="g877"
     transform="matrix(1.1,0,0,1.1,-3.1845928,-3.2065454)">
    <rect
       style="fill:none;fill-opacity:1;stroke:#000000;stroke-width:2.72727;stroke-dasharray:none;stroke-opacity:1;filter:url(#filter1);opacity:0.5"
       id="rect1-5"
       width="49.090908"
       height="49.090908"
       x="7.4405394"
       y="7.4604964"
       rx="7.4768682"
       ry="7.477273" />
    <rect
       style="opacity:1;fill:#c4c2c5;stroke-width:2.72727273;stroke-opacity:1;fill-opacity:1;stroke:#1e2430;stroke-dasharray:none"
       id="rect1"
       width="49.090908"
       height="49.090908"
       x="7.4405394"
       y="7.4604964"
       rx="7.4768682"
       ry="7.477273" />
    <rect
       style="fill:#1e2430;fill-opacity:1;stroke:none;stroke-width:2.33829;stroke-dasharray:none;stroke-opacity:1"
       id="rect1-6"
       width="42.089317"
       height="42.089317"
       x="10.941335"
       y="10.961291"
       rx="5.5927272"
       ry="5.5927272" />
    <path
       style="fill:#f4e3cf;fill-opacity:1;stroke:none;stroke-width:0.425595;stroke-dasharray:none;stroke-dashoffset:2.2;stroke-opacity:0.6"
       d="m 24.688059,43.974953 -1.280692,-1.619986 -1.228098,-3.93e-4 c -1.457745,-4.66e-4 -1.819917,-0.145386 -2.01156,-0.804739 -0.08184,-0.281535 -0.10629,-3.600096 -0.0841,-11.407147 l 0.03131,-11.010148 0.390465,-0.357812 0.390461,-0.357813 h 11.034962 c 12.116624,0 11.466473,-0.03437 11.8068,0.623778 0.138849,0.268461 0.158516,1.693228 0.158516,11.442939 v 11.136305 l -0.305034,0.341389 -0.305034,0.341364 -7.322104,0.02845 -7.322122,0.02845 -1.276999,1.618179 c -0.702339,0.889808 -1.303807,1.617867 -1.336588,1.617725 -0.03266,-1.51e-4 -0.635913,-0.729268 -1.340297,-1.620261 z m 0.921704,-5.491385 c 0.182306,-0.09753 0.202193,-0.229147 0.202193,-1.338024 0,-0.817142 -0.04209,-1.271905 -0.125443,-1.355249 -0.172989,-0.172989 -2.503057,-0.172989 -2.676041,0 -0.08266,0.0827 -0.125447,0.525652 -0.125447,1.299193 0,1.521103 -0.01787,1.502289 1.425535,1.502289 0.603353,0 1.187989,-0.04874 1.299198,-0.108203 z m 14.805606,-0.09654 c 0.774738,-0.472398 0.923424,-1.599665 0.300643,-2.279365 l -0.357788,-0.390478 -5.339101,-0.02892 c -4.692132,-0.02539 -5.37769,-0.009 -5.657498,0.135742 -0.978902,0.506213 -0.968313,2.103611 0.01723,2.589081 0.314845,0.155146 0.914715,0.174195 5.527549,0.175989 4.949934,0.0021 5.1889,-0.0068 5.509038,-0.202089 z m -14.83574,-6.648082 c 0.216394,-0.151559 0.232323,-0.242451 0.232323,-1.324564 0,-1.547907 0.0036,-1.544166 -1.4453,-1.544166 -1.488063,0 -1.481628,-0.0065 -1.481628,1.526004 0,1.488293 0.01688,1.505452 1.463462,1.505452 0.73482,0 1.06022,-0.04303 1.231143,-0.162726 z m 14.705558,-0.04413 c 0.531878,-0.257477 0.806016,-0.704773 0.806016,-1.315184 0,-0.583443 -0.270863,-1.059799 -0.747536,-1.314669 -0.34089,-0.182273 -0.687919,-0.194757 -5.412934,-0.194757 -5.445744,0 -5.458244,0.0014 -5.97167,0.558045 -0.320381,0.347515 -0.416864,1.155734 -0.190253,1.593951 0.205904,0.398177 0.503357,0.661055 0.873505,0.771976 0.164284,0.04924 2.530002,0.09356 5.257147,0.0985 4.737101,0.0085 4.977516,-2.5e-4 5.385725,-0.197858 z M 25.686514,24.98159 c 0.172986,-0.172989 0.172986,-2.503054 0,-2.676043 -0.172989,-0.172989 -2.503056,-0.172989 -2.676043,0 -0.172988,0.172991 -0.172988,2.503054 0,2.676043 0.172986,0.172992 2.503055,0.172992 2.676043,0 z m 14.652475,-0.02981 c 1.019286,-0.527094 1.019286,-2.089382 0,-2.616479 -0.459055,-0.237391 -10.522587,-0.231289 -10.982724,0.0067 -0.93268,0.482306 -0.970506,2.007188 -0.06349,2.560213 0.320076,0.195159 0.56165,0.204065 5.540367,0.204439 4.399872,3.31e-4 5.252168,-0.0236 5.505869,-0.15483 z"
       id="path79" />
  </g>
</svg>
