<?xml version="1.0" encoding="UTF-8" standalone="no"?>
<svg
   width="64"
   height="64"
   version="1.1"
   id="svg73"
   sodipodi:docname="1password.svg"
   inkscape:version="1.4.2 (ebf0e940d0, 2025-05-08)"
   xmlns:inkscape="http://www.inkscape.org/namespaces/inkscape"
   xmlns:sodipodi="http://sodipodi.sourceforge.net/DTD/sodipodi-0.dtd"
   xmlns="http://www.w3.org/2000/svg"
   xmlns:svg="http://www.w3.org/2000/svg"
   xmlns:rdf="http://www.w3.org/1999/02/22-rdf-syntax-ns#"
   xmlns:cc="http://creativecommons.org/ns#"
   xmlns:dc="http://purl.org/dc/elements/1.1/">
  <metadata
     id="metadata77">
    <rdf:RDF>
      <cc:Work
         rdf:about="">
        <dc:format>image/svg+xml</dc:format>
        <dc:type
           rdf:resource="http://purl.org/dc/dcmitype/StillImage" />
      </cc:Work>
    </rdf:RDF>
  </metadata>
  <sodipodi:namedview
     pagecolor="#f5f7fa"
     bordercolor="#666666"
     borderopacity="1"
     objecttolerance="10"
     gridtolerance="10"
     guidetolerance="10"
     inkscape:pageopacity="0"
     inkscape:pageshadow="2"
     inkscape:window-width="1920"
     inkscape:window-height="931"
     id="namedview75"
     showgrid="false"
     inkscape:zoom="6.2890625"
     inkscape:cx="52.313043"
     inkscape:cy="37.684472"
     inkscape:window-x="0"
     inkscape:window-y="0"
     inkscape:window-maximized="1"
     inkscape:current-layer="g877"
     inkscape:document-rotation="0"
     inkscape:pagecheckerboard="0"
     inkscape:showpageshadow="2"
     inkscape:deskcolor="#d1d1d1" />
  <defs
     id="defs29">
    <filter
       style="color-interpolation-filters:sRGB;"
       inkscape:label="Blur"
       id="filter1"
       x="-0.091333304"
       y="-0.091333304"
       width="1.1826666"
       height="1.1826666">
      <feGaussianBlur
         stdDeviation="1.3 1.3"
         result="blur"
         id="feGaussianBlur1" />
    </filter>
  </defs>
  <circle
     cx="32.516094"
     cy="31.877844"
     r="0"
     fill="url(#b)"
     stroke-width="1.5715"
     id="circle41"
     style="fill:url(#b)" />
  <g
     aria-label="GZ"
     transform="matrix(1.2212657,0,0,0.81882264,0.4960938,-0.1661539)"
     id="text93"
     style="font-weight:bold;font-size:11.5263px;line-height:1.25;font-family:sans-serif;-inkscape-font-specification:'sans-serif Bold';fill:#f2f2f2;stroke-width:0.288159" />
  <g
     id="g877"
     transform="matrix(1.1,0,0,1.1,-3.1845928,-3.2065454)">
    <rect
       style="fill:none;fill-opacity:1;stroke:#000000;stroke-width:2.72727;stroke-dasharray:none;stroke-opacity:1;filter:url(#filter1);opacity:0.5"
       id="rect1-5"
       width="49.090908"
       height="49.090908"
       x="7.4405394"
       y="7.4604964"
       rx="7.4768682"
       ry="7.477273" />
    <rect
       style="opacity:1;fill:#c4c2c5;stroke-width:2.72727273;stroke-opacity:1;fill-opacity:1;stroke:#1e2430;stroke-dasharray:none"
       id="rect1"
       width="49.090908"
       height="49.090908"
       x="7.4405394"
       y="7.4604964"
       rx="7.4768682"
       ry="7.477273" />
    <rect
       style="fill:#1e2430;fill-opacity:1;stroke:none;stroke-width:2.33829;stroke-dasharray:none;stroke-opacity:1"
       id="rect1-6"
       width="42.089317"
       height="42.089317"
       x="10.941335"
       y="10.961291"
       rx="5.5927272"
       ry="5.5927272" />
    <path
       d="m 33.866523,28.246777 h 1.004407 c 1.298088,2.24963 3.729805,3.759171 6.513943,3.759171 0.646108,0 1.280469,-0.08223 1.879587,-0.234945 v 0.234945 1.879589 11.277526 c 0,1.039647 -0.839941,1.879587 -1.879587,1.879587 -1.039647,0 -1.879587,-0.83994 -1.879587,-1.879587 v -8.270185 l -7.988246,6.390599 h 3.289278 c 1.039647,0 1.879587,0.839938 1.879587,1.879586 0,1.039647 -0.83994,1.879587 -1.879587,1.879587 h -8.458143 c -3.113068,0 -5.638763,-2.525696 -5.638763,-5.638763 V 28.276143 c 0,-0.945666 -0.704846,-1.750365 -1.644638,-1.867839 L 18.600749,26.34957 C 17.566976,26.22622 16.838637,25.286426 16.961984,24.252654 17.085332,23.21888 18.031,22.49054 19.058899,22.619761 l 0.464023,0.05873 c 2.819381,0.352424 4.939791,2.748896 4.939791,5.597646 v 5.010277 c 2.020556,-3.03671 5.474298,-5.039644 9.397936,-5.039644 z m 9.397937,1.556531 v 0 c -0.587371,0.205581 -1.221729,0.323055 -1.879587,0.323055 -1.668132,0 -3.171803,-0.72834 -4.205577,-1.879586 v 0 C 36.961969,28.005953 36.768137,27.74751 36.5978,27.471446 36.057418,26.602138 35.746111,25.580111 35.746111,24.4876 v 0 -5.638761 -1.174743 -0.07636 c 0,-0.346547 0.276065,-0.622612 0.622614,-0.628485 h 0.01175 c 0.193833,0 0.375917,0.09398 0.493391,0.246695 v 0.0059 l 0.751835,0.998531 1.59765,2.132156 0.281938,0.375917 h 3.759175 l 0.281942,-0.375917 1.597648,-2.132156 0.751835,-0.998531 v -0.0059 c 0.117473,-0.152718 0.299559,-0.246695 0.493392,-0.246695 h 0.01177 c 0.346545,0.0058 0.622612,0.281938 0.622612,0.628485 v 0.07636 1.174742 5.638762 c 0,1.016153 -0.270193,1.973566 -0.74009,2.795886 -0.663735,1.162995 -1.738624,2.067547 -3.019095,2.519821 z M 40.445081,24.4876 c 0,-0.516886 -0.422908,-0.939793 -0.939795,-0.939793 -0.516887,0 -0.939793,0.422907 -0.939793,0.939793 0,0.516888 0.422906,0.939794 0.939793,0.939794 0.516887,0 0.939795,-0.422906 0.939795,-0.939794 z m 2.819379,0.939794 c 0.516887,0 0.939796,-0.422906 0.939796,-0.939794 0,-0.516886 -0.422909,-0.939793 -0.939796,-0.939793 -0.516885,0 -0.939792,0.422907 -0.939792,0.939793 0,0.516888 0.422907,0.939794 0.939792,0.939794 z"
       id="path1"
       style="stroke-width:0.058737;fill:#f4e3cf;fill-opacity:1" />
  </g>
</svg>
