<?xml version="1.0" encoding="UTF-8" standalone="no"?>
<svg
   width="64"
   height="64"
   version="1.1"
   id="svg73"
   sodipodi:docname="accessories-character-map.svg"
   inkscape:version="1.2.2 (b0a8486541, 2022-12-01)"
   xmlns:inkscape="http://www.inkscape.org/namespaces/inkscape"
   xmlns:sodipodi="http://sodipodi.sourceforge.net/DTD/sodipodi-0.dtd"
   xmlns="http://www.w3.org/2000/svg"
   xmlns:svg="http://www.w3.org/2000/svg"
   xmlns:rdf="http://www.w3.org/1999/02/22-rdf-syntax-ns#"
   xmlns:cc="http://creativecommons.org/ns#"
   xmlns:dc="http://purl.org/dc/elements/1.1/">
  <metadata
     id="metadata77">
    <rdf:RDF>
      <cc:Work
         rdf:about="">
        <dc:format>image/svg+xml</dc:format>
        <dc:type
           rdf:resource="http://purl.org/dc/dcmitype/StillImage" />
      </cc:Work>
    </rdf:RDF>
  </metadata>
  <sodipodi:namedview
     pagecolor="#f5f7fa"
     bordercolor="#666666"
     borderopacity="1"
     objecttolerance="10"
     gridtolerance="10"
     guidetolerance="10"
     inkscape:pageopacity="0"
     inkscape:pageshadow="2"
     inkscape:window-width="1280"
     inkscape:window-height="603"
     id="namedview75"
     showgrid="false"
     inkscape:zoom="6.2890625"
     inkscape:cx="52.313043"
     inkscape:cy="37.843478"
     inkscape:window-x="35"
     inkscape:window-y="32"
     inkscape:window-maximized="0"
     inkscape:current-layer="g877"
     inkscape:document-rotation="0"
     inkscape:pagecheckerboard="0"
     inkscape:showpageshadow="2"
     inkscape:deskcolor="#d1d1d1" />
  <defs
     id="defs29">
    <filter
       style="color-interpolation-filters:sRGB;"
       inkscape:label="Blur"
       id="filter1"
       x="-0.091333304"
       y="-0.091333304"
       width="1.1826666"
       height="1.1826666">
      <feGaussianBlur
         stdDeviation="1.3 1.3"
         result="blur"
         id="feGaussianBlur1" />
    </filter>
  </defs>
  <circle
     cx="32.516094"
     cy="31.877844"
     r="0"
     fill="url(#b)"
     stroke-width="1.5715"
     id="circle41"
     style="fill:url(#b)" />
  <g
     aria-label="GZ"
     transform="matrix(1.2212657,0,0,0.81882264,0.4960938,-0.1661539)"
     id="text93"
     style="font-weight:bold;font-size:11.5263px;line-height:1.25;font-family:sans-serif;-inkscape-font-specification:'sans-serif Bold';fill:#f2f2f2;stroke-width:0.288159" />
  <g
     id="g877"
     transform="matrix(1.1,0,0,1.1,-3.1845928,-3.2065454)">
    <rect
       style="fill:none;fill-opacity:1;stroke:#000000;stroke-width:2.72727;stroke-dasharray:none;stroke-opacity:1;filter:url(#filter1);opacity:0.5"
       id="rect1-5"
       width="49.090908"
       height="49.090908"
       x="7.4405394"
       y="7.4604964"
       rx="7.4768682"
       ry="7.477273" />
    <rect
       style="opacity:1;fill:#c4c2c5;stroke-width:2.72727273;stroke-opacity:1;fill-opacity:1;stroke:#1e2430;stroke-dasharray:none"
       id="rect1"
       width="49.090908"
       height="49.090908"
       x="7.4405394"
       y="7.4604964"
       rx="7.4768682"
       ry="7.477273" />
    <rect
       style="fill:#1e2430;fill-opacity:1;stroke:none;stroke-width:2.33829;stroke-dasharray:none;stroke-opacity:1"
       id="rect1-6"
       width="42.089317"
       height="42.089317"
       x="10.941335"
       y="10.961291"
       rx="5.5927272"
       ry="5.5927272" />
    <g
       fill-rule="nonzero"
       id="g3"
       transform="matrix(0.76606921,0,0,0.76606921,13.600333,13.620289)"
       style="fill:#f4e3cf;fill-opacity:1;stroke:none;stroke-width:0.566836;stroke-dasharray:none;stroke-opacity:0.6">
      <path
         d="m 21.724,13.756 c -0.631,0 -1.139,0.508 -1.139,1.138 v 4.613 c 0,0 1.234,1.085 1.234,1.816 0,0.732 -1.234,1.817 -1.234,1.817 v 9.966 c 0,0.63 0.508,1.138 1.139,1.138 h 4.552 c 0.631,0 1.139,-0.508 1.139,-1.138 v -4.595 l -0.012,-0.016 c 0,0 -1.286,-1.131 -1.287,-1.894 0,-0.764 1.287,-1.896 1.287,-1.896 l 0.012,-0.016 v -9.795 c 0,-0.63 -0.508,-1.138 -1.139,-1.138 z"
         fill="#2d3439"
         id="path2-3"
         style="fill:#f4e3cf;fill-opacity:1;stroke:none;stroke-width:0.566836;stroke-dasharray:none;stroke-opacity:0.6" />
      <path
         d="M 24,5.789 C 13.969,5.789 5.789,13.969 5.789,24 5.789,34.031 13.969,42.211 24,42.211 34.031,42.211 42.211,34.031 42.211,24 42.211,13.969 34.031,5.789 24,5.789 Z m 0,4.553 C 31.57,10.342 37.658,16.43 37.658,24 37.658,31.57 31.57,37.658 24,37.658 16.43,37.658 10.342,31.57 10.342,24 10.342,16.43 16.43,10.342 24,10.342 Z"
         fill="#0064e2"
         id="path3-3"
         style="fill:#f4e3cf;fill-opacity:1;stroke:none;stroke-width:0.566836;stroke-dasharray:none;stroke-opacity:0.6" />
    </g>
  </g>
</svg>
