<?xml version="1.0" encoding="UTF-8" standalone="no"?>
<svg
   width="64"
   height="64"
   version="1.1"
   id="svg73"
   sodipodi:docname="appimagekit-1password.svg"
   inkscape:version="1.2.2 (b0a8486541, 2022-12-01)"
   xmlns:inkscape="http://www.inkscape.org/namespaces/inkscape"
   xmlns:sodipodi="http://sodipodi.sourceforge.net/DTD/sodipodi-0.dtd"
   xmlns="http://www.w3.org/2000/svg"
   xmlns:svg="http://www.w3.org/2000/svg"
   xmlns:rdf="http://www.w3.org/1999/02/22-rdf-syntax-ns#"
   xmlns:cc="http://creativecommons.org/ns#"
   xmlns:dc="http://purl.org/dc/elements/1.1/">
  <metadata
     id="metadata77">
    <rdf:RDF>
      <cc:Work
         rdf:about="">
        <dc:format>image/svg+xml</dc:format>
        <dc:type
           rdf:resource="http://purl.org/dc/dcmitype/StillImage" />
      </cc:Work>
    </rdf:RDF>
  </metadata>
  <sodipodi:namedview
     pagecolor="#f5f7fa"
     bordercolor="#666666"
     borderopacity="1"
     objecttolerance="10"
     gridtolerance="10"
     guidetolerance="10"
     inkscape:pageopacity="0"
     inkscape:pageshadow="2"
     inkscape:window-width="1280"
     inkscape:window-height="603"
     id="namedview75"
     showgrid="false"
     inkscape:zoom="6.2890625"
     inkscape:cx="48.178882"
     inkscape:cy="37.843478"
     inkscape:window-x="35"
     inkscape:window-y="32"
     inkscape:window-maximized="0"
     inkscape:current-layer="g877"
     inkscape:document-rotation="0"
     inkscape:pagecheckerboard="0"
     inkscape:showpageshadow="2"
     inkscape:deskcolor="#d1d1d1" />
  <defs
     id="defs29">
    <filter
       style="color-interpolation-filters:sRGB;"
       inkscape:label="Blur"
       id="filter1"
       x="-0.091333304"
       y="-0.091333304"
       width="1.1826666"
       height="1.1826666">
      <feGaussianBlur
         stdDeviation="1.3 1.3"
         result="blur"
         id="feGaussianBlur1" />
    </filter>
  </defs>
  <circle
     cx="32.516094"
     cy="31.877844"
     r="0"
     fill="url(#b)"
     stroke-width="1.5715"
     id="circle41"
     style="fill:url(#b)" />
  <g
     aria-label="GZ"
     transform="matrix(1.2212657,0,0,0.81882264,0.4960938,-0.1661539)"
     id="text93"
     style="font-weight:bold;font-size:11.5263px;line-height:1.25;font-family:sans-serif;-inkscape-font-specification:'sans-serif Bold';fill:#f2f2f2;stroke-width:0.288159" />
  <g
     id="g877"
     transform="matrix(1.1,0,0,1.1,-3.1845928,-3.2065454)">
    <rect
       style="fill:none;fill-opacity:1;stroke:#000000;stroke-width:2.72727;stroke-dasharray:none;stroke-opacity:1;filter:url(#filter1);opacity:0.5"
       id="rect1-5"
       width="49.090908"
       height="49.090908"
       x="7.4405394"
       y="7.4604964"
       rx="7.4768682"
       ry="7.477273" />
    <rect
       style="opacity:1;fill:#c4c2c5;stroke-width:2.72727273;stroke-opacity:1;fill-opacity:1;stroke:#1e2430;stroke-dasharray:none"
       id="rect1"
       width="49.090908"
       height="49.090908"
       x="7.4405394"
       y="7.4604964"
       rx="7.4768682"
       ry="7.477273" />
    <rect
       style="fill:#1e2430;fill-opacity:1;stroke:none;stroke-width:2.33829;stroke-dasharray:none;stroke-opacity:1"
       id="rect1-6"
       width="42.089317"
       height="42.089317"
       x="10.941335"
       y="10.961291"
       rx="5.5927272"
       ry="5.5927272" />
    <path
       style="fill:#f4e3cf;fill-opacity:1;stroke:none;stroke-width:0.470741;stroke-dasharray:none;stroke-opacity:0.6"
       d="m 18.813607,45.907576 c -0.136444,-0.05512 -0.361113,-0.243914 -0.49926,-0.419548 L 18.063174,45.16875 v -8.765817 -8.765785 l 4.728817,-4.72773 4.728811,-4.727733 h 8.778694 8.778691 l 0.383641,0.342751 0.383636,0.342746 0.03167,8.830615 0.03167,8.83061 -4.789202,4.741812 -4.789212,4.741815 -8.634241,-0.0022 c -4.749307,-0.0012 -8.746355,-0.04727 -8.882807,-0.102388 z M 38.033532,37.03605 v -2.055773 h -3.939108 c -4.342981,0 -4.443688,-0.01427 -5.208735,-0.740158 -0.679077,-0.644279 -0.832175,-1.134852 -0.832175,-2.666546 0,-1.531703 0.153101,-2.022272 0.832175,-2.666553 0.765047,-0.725847 0.865754,-0.740156 5.208735,-0.740156 h 3.939108 V 26.11109 24.055319 l -4.082173,0.0019 c -3.222756,0.0013 -4.240384,0.03904 -4.83364,0.178873 -2.384661,0.562114 -4.438186,2.615641 -5.000301,5.000303 -0.2347,0.995677 -0.237093,3.668915 -0.004,4.656805 0.565274,2.397463 2.49244,4.367471 4.909449,5.018588 0.468024,0.126051 1.59709,0.166591 4.811187,0.172502 l 4.199646,0.0074 z"
       id="path5-5" />
  </g>
</svg>
