<?xml version="1.0" encoding="UTF-8" standalone="no"?>
<svg
   width="64"
   height="64"
   version="1.1"
   id="svg73"
   sodipodi:docname="beekeeper-studio.svg"
   inkscape:version="1.4.2 (ebf0e940d0, 2025-05-08)"
   xmlns:inkscape="http://www.inkscape.org/namespaces/inkscape"
   xmlns:sodipodi="http://sodipodi.sourceforge.net/DTD/sodipodi-0.dtd"
   xmlns="http://www.w3.org/2000/svg"
   xmlns:svg="http://www.w3.org/2000/svg"
   xmlns:rdf="http://www.w3.org/1999/02/22-rdf-syntax-ns#"
   xmlns:cc="http://creativecommons.org/ns#"
   xmlns:dc="http://purl.org/dc/elements/1.1/">
  <metadata
     id="metadata77">
    <rdf:RDF>
      <cc:Work
         rdf:about="">
        <dc:format>image/svg+xml</dc:format>
        <dc:type
           rdf:resource="http://purl.org/dc/dcmitype/StillImage" />
      </cc:Work>
    </rdf:RDF>
  </metadata>
  <sodipodi:namedview
     pagecolor="#f5f7fa"
     bordercolor="#666666"
     borderopacity="1"
     objecttolerance="10"
     gridtolerance="10"
     guidetolerance="10"
     inkscape:pageopacity="0"
     inkscape:pageshadow="2"
     inkscape:window-width="1920"
     inkscape:window-height="931"
     id="namedview75"
     showgrid="false"
     inkscape:zoom="6.2890625"
     inkscape:cx="52.313043"
     inkscape:cy="37.684472"
     inkscape:window-x="0"
     inkscape:window-y="0"
     inkscape:window-maximized="1"
     inkscape:current-layer="g877"
     inkscape:document-rotation="0"
     inkscape:pagecheckerboard="0"
     inkscape:showpageshadow="2"
     inkscape:deskcolor="#d1d1d1" />
  <defs
     id="defs29">
    <filter
       style="color-interpolation-filters:sRGB;"
       inkscape:label="Blur"
       id="filter1"
       x="-0.091333304"
       y="-0.091333304"
       width="1.1826666"
       height="1.1826666">
      <feGaussianBlur
         stdDeviation="1.3 1.3"
         result="blur"
         id="feGaussianBlur1" />
    </filter>
  </defs>
  <circle
     cx="32.516094"
     cy="31.877844"
     r="0"
     fill="url(#b)"
     stroke-width="1.5715"
     id="circle41"
     style="fill:url(#b)" />
  <g
     aria-label="GZ"
     transform="matrix(1.2212657,0,0,0.81882264,0.4960938,-0.1661539)"
     id="text93"
     style="font-weight:bold;font-size:11.5263px;line-height:1.25;font-family:sans-serif;-inkscape-font-specification:'sans-serif Bold';fill:#f2f2f2;stroke-width:0.288159" />
  <g
     id="g877"
     transform="matrix(1.1,0,0,1.1,-3.1845928,-3.2065454)">
    <rect
       style="fill:none;fill-opacity:1;stroke:#000000;stroke-width:2.72727;stroke-dasharray:none;stroke-opacity:1;filter:url(#filter1);opacity:0.5"
       id="rect1-5"
       width="49.090908"
       height="49.090908"
       x="7.4405394"
       y="7.4604964"
       rx="7.4768682"
       ry="7.477273" />
    <rect
       style="opacity:1;fill:#c4c2c5;stroke-width:2.72727273;stroke-opacity:1;fill-opacity:1;stroke:#1e2430;stroke-dasharray:none"
       id="rect1"
       width="49.090908"
       height="49.090908"
       x="7.4405394"
       y="7.4604964"
       rx="7.4768682"
       ry="7.477273" />
    <rect
       style="fill:#1e2430;fill-opacity:1;stroke:none;stroke-width:2.33829;stroke-dasharray:none;stroke-opacity:1"
       id="rect1-6"
       width="42.089317"
       height="42.089317"
       x="10.941335"
       y="10.961291"
       rx="5.5927272"
       ry="5.5927272" />
    <path
       id="path5"
       style="opacity:1;fill:#f4e3cf;fill-opacity:1;stroke:none;stroke-width:0.0247412;stroke-opacity:0.5"
       d="m 31.926836,16.820909 c -0.327245,0.0041 -0.654774,0.02763 -0.854731,0.07017 -0.750106,0.159559 -0.943903,0.253508 -2.844851,1.37884 l -1.114126,0.659121 v 6.406231 6.405165 l 0.131824,0.359327 c 0.450321,1.232204 1.682079,2.3761 3.085109,2.865051 0.368077,0.128272 0.449885,0.138174 1.163031,0.137138 0.704215,-8.57e-4 0.801298,-0.01249 1.18748,-0.139264 1.511442,-0.496136 2.573867,-1.610469 2.950098,-3.093615 0.135371,-0.533644 0.163678,-1.309071 0.06697,-1.842351 -0.14442,-0.796426 -0.544537,-1.569817 -1.126883,-2.179351 -0.75955,-0.795013 -1.661949,-1.22866 -2.818274,-1.353324 l -0.309362,-0.03296 v -1.61059 -1.610595 l 0.458195,0.02872 c 0.521626,0.0326 1.176705,0.207387 1.635045,0.436934 0.168827,0.08456 1.0116,0.56632 1.87318,1.07054 1.666663,0.975376 2.097585,1.291599 2.564192,1.881684 0.506081,0.640001 0.836977,1.342375 0.996123,2.113439 0.08029,0.389036 0.09194,0.6881 0.09249,2.340942 5.29e-4,1.538922 -0.01384,1.966324 -0.0776,2.276094 -0.221652,1.076774 -0.702759,1.943487 -1.49259,2.688575 -0.451905,0.426303 -0.51086,0.465118 -2.314364,1.517041 -1.654194,0.964832 -2.065541,1.157583 -2.793824,1.308674 -0.917103,0.190265 -2.095624,0.05833 -2.945845,-0.328497 -0.303009,-0.137877 -3.03741,-1.736512 -3.498654,-2.045413 C 25.551423,36.268754 24.918306,35.6248 24.646742,35.21358 24.386717,34.819844 24.100659,34.194651 23.963167,33.719932 l -0.114812,-0.396537 -0.01382,-6.222312 c -0.0076,-3.422327 -0.02466,-6.222315 -0.03827,-6.222315 -0.09822,0 -3.417145,2.011725 -3.676194,2.228254 -0.814616,0.680903 -1.366329,1.588978 -1.621226,2.670503 -0.0802,0.340286 -0.08933,0.821393 -0.106308,5.788571 -0.01885,5.513901 -0.001,6.233149 0.165842,6.879308 0.257126,0.994668 0.887891,1.96389 1.670128,2.567383 0.240575,0.185601 2.261917,1.381894 7.825466,4.629791 2.279828,1.330925 2.600349,1.472696 3.499719,1.555314 0.225163,0.02068 0.464575,0.03202 0.532613,0.02446 0.06803,-0.0076 0.269449,-0.02642 0.447564,-0.04147 0.447856,-0.03783 0.993136,-0.196701 1.433057,-0.417797 0.416487,-0.209322 9.256051,-5.377457 9.593398,-5.608907 0.367029,-0.251817 0.872548,-0.761897 1.141768,-1.151336 0.503833,-0.728821 0.762214,-1.454492 0.844099,-2.373899 0.06197,-0.695705 0.06197,-10.510376 0,-11.197613 -0.130604,-1.448731 -0.859444,-2.73756 -2.004999,-3.547568 -0.312726,-0.221121 -9.173167,-5.416313 -9.59872,-5.628042 -0.30644,-0.152466 -0.803507,-0.317786 -1.163029,-0.385904 -0.198296,-0.03756 -0.52536,-0.05299 -0.852605,-0.04891 z m -1.028016,6.527423 v 1.580825 c 0,1.700121 0.0088,1.640363 -0.249827,1.640363 -0.05117,0 -0.260487,0.05287 -0.465638,0.118005 l -0.373148,0.119067 v -1.627605 c 0,-0.895214 0.0094,-1.627605 0.02125,-1.627603 0.01182,0 0.173846,-0.03134 0.359329,-0.0691 0.185481,-0.03776 0.419922,-0.0831 0.521981,-0.100993 z m -1.632919,0.557064 v 1.591459 1.59252 l -0.231754,0.146708 c -0.1276,0.08062 -0.373309,0.278106 -0.545371,0.439059 l -0.312551,0.292352 0.01277,-1.816834 0.01276,-1.816836 0.532611,-0.214745 z" />
  </g>
</svg>
