<?xml version="1.0" encoding="UTF-8" standalone="no"?>
<svg
   width="64"
   height="64"
   version="1.1"
   id="svg73"
   sodipodi:docname="bluetooth-active.svg"
   inkscape:version="1.2.2 (b0a8486541, 2022-12-01)"
   xmlns:inkscape="http://www.inkscape.org/namespaces/inkscape"
   xmlns:sodipodi="http://sodipodi.sourceforge.net/DTD/sodipodi-0.dtd"
   xmlns="http://www.w3.org/2000/svg"
   xmlns:svg="http://www.w3.org/2000/svg"
   xmlns:rdf="http://www.w3.org/1999/02/22-rdf-syntax-ns#"
   xmlns:cc="http://creativecommons.org/ns#"
   xmlns:dc="http://purl.org/dc/elements/1.1/">
  <metadata
     id="metadata77">
    <rdf:RDF>
      <cc:Work
         rdf:about="">
        <dc:format>image/svg+xml</dc:format>
        <dc:type
           rdf:resource="http://purl.org/dc/dcmitype/StillImage" />
      </cc:Work>
    </rdf:RDF>
  </metadata>
  <sodipodi:namedview
     pagecolor="#f5f7fa"
     bordercolor="#666666"
     borderopacity="1"
     objecttolerance="10"
     gridtolerance="10"
     guidetolerance="10"
     inkscape:pageopacity="0"
     inkscape:pageshadow="2"
     inkscape:window-width="1280"
     inkscape:window-height="603"
     id="namedview75"
     showgrid="false"
     inkscape:zoom="6.2890625"
     inkscape:cx="44.203727"
     inkscape:cy="37.843478"
     inkscape:window-x="35"
     inkscape:window-y="32"
     inkscape:window-maximized="0"
     inkscape:current-layer="g877"
     inkscape:document-rotation="0"
     inkscape:pagecheckerboard="0"
     inkscape:showpageshadow="2"
     inkscape:deskcolor="#d1d1d1" />
  <defs
     id="defs29">
    <filter
       style="color-interpolation-filters:sRGB;"
       inkscape:label="Blur"
       id="filter1"
       x="-0.091333304"
       y="-0.091333304"
       width="1.1826666"
       height="1.1826666">
      <feGaussianBlur
         stdDeviation="1.3 1.3"
         result="blur"
         id="feGaussianBlur1" />
    </filter>
  </defs>
  <circle
     cx="32.516094"
     cy="31.877844"
     r="0"
     fill="url(#b)"
     stroke-width="1.5715"
     id="circle41"
     style="fill:url(#b)" />
  <g
     aria-label="GZ"
     transform="matrix(1.2212657,0,0,0.81882264,0.4960938,-0.1661539)"
     id="text93"
     style="font-weight:bold;font-size:11.5263px;line-height:1.25;font-family:sans-serif;-inkscape-font-specification:'sans-serif Bold';fill:#f2f2f2;stroke-width:0.288159" />
  <g
     id="g877"
     transform="matrix(1.1,0,0,1.1,-3.1845928,-3.2065454)">
    <rect
       style="fill:none;fill-opacity:1;stroke:#000000;stroke-width:2.72727;stroke-dasharray:none;stroke-opacity:1;filter:url(#filter1);opacity:0.5"
       id="rect1-5"
       width="49.090908"
       height="49.090908"
       x="7.4405394"
       y="7.4604964"
       rx="7.4768682"
       ry="7.477273" />
    <rect
       style="opacity:1;fill:#c4c2c5;stroke-width:2.72727273;stroke-opacity:1;fill-opacity:1;stroke:#1e2430;stroke-dasharray:none"
       id="rect1"
       width="49.090908"
       height="49.090908"
       x="7.4405394"
       y="7.4604964"
       rx="7.4768682"
       ry="7.477273" />
    <rect
       style="fill:#1e2430;fill-opacity:1;stroke:none;stroke-width:2.33829;stroke-dasharray:none;stroke-opacity:1"
       id="rect1-6"
       width="42.089317"
       height="42.089317"
       x="10.941335"
       y="10.961291"
       rx="5.5927272"
       ry="5.5927272" />
    <path
       style="fill:#f4e3cf;fill-opacity:1;stroke:none;stroke-width:0.459509;stroke-dasharray:none;stroke-opacity:0.6"
       d="m 20.986155,45.539277 c -0.773672,-0.222637 -1.617851,-0.842988 -2.063387,-1.516232 -0.990109,-1.496166 -0.805808,-3.3084 0.465771,-4.57998 0.380627,-0.380625 0.856856,-0.733421 1.058286,-0.783974 l 0.366238,-0.09191 v -6.548352 -6.548334 l -0.436742,-0.180906 c -0.576229,-0.238682 -1.335956,-0.993626 -1.681463,-1.670874 -0.882203,-1.729259 -0.253041,-3.783738 1.468647,-4.795758 0.611684,-0.359547 0.891082,-0.425666 1.784575,-0.422296 1.514295,0.0058 2.617183,0.655013 3.270654,1.925535 l 0.291882,0.567509 h 6.508102 6.508104 l 0.137489,-0.361527 c 0.415897,-1.093875 2.06739,-2.206831 3.278923,-2.2097 2.021756,-0.0048 3.714058,1.632399 3.726068,3.604724 0.0029,0.477338 -0.108203,1.126842 -0.250392,1.46354 -0.304508,0.721168 -1.17325,1.65108 -1.775628,1.90059 l -0.432525,0.179161 v 6.546381 6.546383 l 0.43673,0.180844 c 0.641203,0.265607 1.384141,1.047773 1.727017,1.818211 1.225123,2.752916 -1.415952,5.789214 -4.301194,4.944875 -0.976274,-0.285646 -1.84797,-0.971271 -2.258764,-1.77649 L 38.513192,43.140025 H 32.023206 25.53323 l -0.396094,0.675891 c -0.48854,0.833628 -1.213224,1.401575 -2.146935,1.682581 -0.805064,0.242352 -1.270912,0.251815 -2.004046,0.04082 z m 17.792309,-5.20239 0.254226,-0.533133 -0.878666,-0.887922 c -0.840069,-0.848935 -0.905452,-0.884328 -1.488898,-0.806081 -0.719047,0.09645 -1.486574,-0.251894 -1.785414,-0.810253 -0.194302,-0.363069 -0.20309,-0.364213 -2.799912,-0.364213 h -2.604995 l -0.624471,0.624474 c -0.595159,0.59516 -0.659446,0.621108 -1.369678,0.552862 -0.739896,-0.07109 -0.751417,-0.06531 -1.617377,0.80977 l -0.872169,0.881363 0.254227,0.533133 0.254235,0.533135 h 6.512335 6.512328 z M 25.077361,38.195015 c 0.836738,-0.827997 0.864919,-0.881628 0.781828,-1.487846 -0.100727,-0.734919 0.20647,-1.452841 0.783448,-1.83089 l 0.375188,-0.245832 v -2.627483 -2.627481 l -0.386073,-0.252965 c -0.582969,-0.381976 -0.873723,-1.057871 -0.772563,-1.795925 0.08318,-0.606801 0.05539,-0.659373 -0.79103,-1.496966 l -0.877234,-0.868075 -0.553913,0.264139 -0.553915,0.264146 v 6.465473 6.465472 l 0.491841,0.304076 c 0.270517,0.167237 0.523918,0.309713 0.563121,0.316572 0.03922,0.0071 0.461889,-0.373998 0.939302,-0.846427 z m 15.711049,-6.168329 -9e-4,-6.517238 -0.478716,-0.272534 -0.478722,-0.272527 -0.88854,0.877874 c -0.838619,0.828556 -0.883271,0.909215 -0.79501,1.435744 0.11513,0.686792 -0.275131,1.593461 -0.786104,1.826289 -0.352215,0.160477 -0.354383,0.177872 -0.354383,2.843806 v 2.682344 l 0.390976,0.256184 c 0.529224,0.346757 0.870297,1.201871 0.745253,1.868414 -0.09203,0.490763 -0.03884,0.588326 0.765271,1.400839 l 0.864217,0.87334 0.508836,-0.242629 0.508839,-0.242661 -9e-4,-6.517235 z m -5.932315,3.478922 c 0.09281,-0.203685 0.34209,-0.483924 0.553967,-0.62275 l 0.38523,-0.252415 v -2.620661 -2.620664 l -0.445055,-0.31691 c -0.24478,-0.174299 -0.487725,-0.45134 -0.539875,-0.615647 -0.0897,-0.282619 -0.239489,-0.29874 -2.776028,-0.29874 h -2.681216 l -0.262746,0.444797 c -0.144514,0.244646 -0.397548,0.487584 -0.562302,0.539875 -0.283753,0.09005 -0.299558,0.237339 -0.299558,2.791512 v 2.696441 l 0.385229,0.252417 c 0.211877,0.13883 0.461163,0.419061 0.553968,0.622745 l 0.168742,0.370332 h 2.675456 2.675459 z m -0.04571,-8.705876 c 0.05215,-0.164301 0.300073,-0.444896 0.550949,-0.623531 0.362769,-0.258313 0.606665,-0.31033 1.191586,-0.254126 0.727821,0.06993 0.74451,0.06152 1.60763,-0.810699 l 0.872168,-0.881371 -0.254214,-0.533131 -0.254244,-0.533128 h -6.49494 -6.494932 l -0.302069,0.511968 -0.302071,0.511968 0.889946,0.880654 c 0.843018,0.834227 0.925291,0.878485 1.56043,0.839425 0.794259,-0.04886 1.457181,0.25418 1.749009,0.79946 l 0.209392,0.391253 h 2.688272 c 2.543566,0 2.693376,-0.01605 2.783088,-0.298742 z"
       id="path2647" />
  </g>
</svg>
