<?xml version="1.0" encoding="UTF-8" standalone="no"?>
<svg
   width="64"
   height="64"
   version="1.1"
   id="svg73"
   sodipodi:docname="1password.svg"
   inkscape:version="1.2.2 (b0a8486541, 2022-12-01)"
   xmlns:inkscape="http://www.inkscape.org/namespaces/inkscape"
   xmlns:sodipodi="http://sodipodi.sourceforge.net/DTD/sodipodi-0.dtd"
   xmlns="http://www.w3.org/2000/svg"
   xmlns:svg="http://www.w3.org/2000/svg"
   xmlns:rdf="http://www.w3.org/1999/02/22-rdf-syntax-ns#"
   xmlns:cc="http://creativecommons.org/ns#"
   xmlns:dc="http://purl.org/dc/elements/1.1/">
  <metadata
     id="metadata77">
    <rdf:RDF>
      <cc:Work
         rdf:about="">
        <dc:format>image/svg+xml</dc:format>
        <dc:type
           rdf:resource="http://purl.org/dc/dcmitype/StillImage" />
      </cc:Work>
    </rdf:RDF>
  </metadata>
  <sodipodi:namedview
     pagecolor="#f5f7fa"
     bordercolor="#666666"
     borderopacity="1"
     objecttolerance="10"
     gridtolerance="10"
     guidetolerance="10"
     inkscape:pageopacity="0"
     inkscape:pageshadow="2"
     inkscape:window-width="1280"
     inkscape:window-height="603"
     id="namedview75"
     showgrid="false"
     inkscape:zoom="6.2890625"
     inkscape:cx="48.178882"
     inkscape:cy="37.843478"
     inkscape:window-x="35"
     inkscape:window-y="32"
     inkscape:window-maximized="0"
     inkscape:current-layer="g877"
     inkscape:document-rotation="0"
     inkscape:pagecheckerboard="0"
     inkscape:showpageshadow="2"
     inkscape:deskcolor="#d1d1d1" />
  <defs
     id="defs29">
    <filter
       style="color-interpolation-filters:sRGB;"
       inkscape:label="Blur"
       id="filter1"
       x="-0.091333304"
       y="-0.091333304"
       width="1.1826666"
       height="1.1826666">
      <feGaussianBlur
         stdDeviation="1.3 1.3"
         result="blur"
         id="feGaussianBlur1" />
    </filter>
  </defs>
  <circle
     cx="32.516094"
     cy="31.877844"
     r="0"
     fill="url(#b)"
     stroke-width="1.5715"
     id="circle41"
     style="fill:url(#b)" />
  <g
     aria-label="GZ"
     transform="matrix(1.2212657,0,0,0.81882264,0.4960938,-0.1661539)"
     id="text93"
     style="font-weight:bold;font-size:11.5263px;line-height:1.25;font-family:sans-serif;-inkscape-font-specification:'sans-serif Bold';fill:#f2f2f2;stroke-width:0.288159" />
  <g
     id="g877"
     transform="matrix(1.1,0,0,1.1,-3.1845928,-3.2065454)">
    <rect
       style="fill:none;fill-opacity:1;stroke:#000000;stroke-width:2.72727;stroke-dasharray:none;stroke-opacity:1;filter:url(#filter1);opacity:0.5"
       id="rect1-5"
       width="49.090908"
       height="49.090908"
       x="7.4405394"
       y="7.4604964"
       rx="7.4768682"
       ry="7.477273" />
    <rect
       style="opacity:1;fill:#c4c2c5;stroke-width:2.72727273;stroke-opacity:1;fill-opacity:1;stroke:#1e2430;stroke-dasharray:none"
       id="rect1"
       width="49.090908"
       height="49.090908"
       x="7.4405394"
       y="7.4604964"
       rx="7.4768682"
       ry="7.477273" />
    <rect
       style="fill:#1e2430;fill-opacity:1;stroke:none;stroke-width:2.33829;stroke-dasharray:none;stroke-opacity:1"
       id="rect1-6"
       width="42.089317"
       height="42.089317"
       x="10.941335"
       y="10.961291"
       rx="5.5927272"
       ry="5.5927272" />
    <path
       style="fill:#f4e3cf;fill-opacity:1;stroke:none;stroke-width:0.416787;stroke-dasharray:none;stroke-opacity:0.6"
       d="m 23.785485,45.491455 c 0.05508,-0.401982 0.29995,-1.449962 0.500988,-2.144269 0.499221,-1.724089 1.306743,-3.32107 2.118729,-4.190057 0.189283,-0.202596 0.628113,-0.582874 0.975177,-0.845126 0.990345,-0.74832 1.566062,-1.241663 2.400043,-2.056638 2.567251,-2.508765 4.688376,-5.736226 6.086522,-9.261158 0.310397,-0.782544 0.706801,-1.952541 0.672996,-1.986347 -0.01263,-0.01322 -0.05385,0.06836 -0.09034,0.181174 -0.234618,0.725432 -0.93515,2.213131 -1.526647,3.242128 -2.025958,3.524465 -4.680426,6.456747 -8.525502,9.41778 -0.830129,0.639274 -1.376692,1.22753 -2.062965,2.220344 -0.203993,0.295116 -0.378451,0.546068 -0.387683,0.557677 -0.07154,0.08992 -0.579047,-0.81949 -0.875939,-1.569624 -0.731128,-1.847253 -1.03777,-3.683374 -0.912864,-5.466039 0.304872,-4.351234 3.05195,-7.926967 8.138957,-10.594078 0.952402,-0.499346 1.942074,-0.941438 3.251961,-1.452674 1.267306,-0.494617 2.038613,-0.870993 2.813153,-1.37273 0.676671,-0.438342 1.610475,-1.139554 2.094234,-1.57259 0.200913,-0.179899 0.386797,-0.327085 0.412966,-0.327085 0.153124,0 1.326513,2.29725 1.734631,3.39618 0.571365,1.538503 0.970901,3.179637 1.144182,4.699906 0.19723,1.730019 0.07233,4.04951 -0.293577,5.45344 -0.556321,2.134584 -1.801977,4.340828 -3.360432,5.951855 -2.121826,2.193399 -4.68545,3.387027 -7.882227,3.66999 -0.695384,0.06154 -2.510829,0.04024 -3.145006,-0.03704 l -0.273776,-0.0333 -0.35483,0.700336 c -0.376131,0.742426 -0.683672,1.629953 -0.86731,2.503031 l -0.111605,0.53058 -0.645016,0.226557 c -0.35476,0.124666 -0.739031,0.266975 -0.853938,0.316331 l -0.208916,0.08974 z"
       id="path1" />
  </g>
</svg>
