<?xml version="1.0" encoding="UTF-8" standalone="no"?>
<svg
   width="64"
   height="64"
   version="1.1"
   id="svg73"
   sodipodi:docname="accessories-character-map.svg"
   inkscape:version="1.2.2 (b0a8486541, 2022-12-01)"
   xmlns:inkscape="http://www.inkscape.org/namespaces/inkscape"
   xmlns:sodipodi="http://sodipodi.sourceforge.net/DTD/sodipodi-0.dtd"
   xmlns="http://www.w3.org/2000/svg"
   xmlns:svg="http://www.w3.org/2000/svg"
   xmlns:rdf="http://www.w3.org/1999/02/22-rdf-syntax-ns#"
   xmlns:cc="http://creativecommons.org/ns#"
   xmlns:dc="http://purl.org/dc/elements/1.1/">
  <metadata
     id="metadata77">
    <rdf:RDF>
      <cc:Work
         rdf:about="">
        <dc:format>image/svg+xml</dc:format>
        <dc:type
           rdf:resource="http://purl.org/dc/dcmitype/StillImage" />
      </cc:Work>
    </rdf:RDF>
  </metadata>
  <sodipodi:namedview
     pagecolor="#f5f7fa"
     bordercolor="#666666"
     borderopacity="1"
     objecttolerance="10"
     gridtolerance="10"
     guidetolerance="10"
     inkscape:pageopacity="0"
     inkscape:pageshadow="2"
     inkscape:window-width="1280"
     inkscape:window-height="603"
     id="namedview75"
     showgrid="false"
     inkscape:zoom="6.2890625"
     inkscape:cx="52.313043"
     inkscape:cy="37.843478"
     inkscape:window-x="35"
     inkscape:window-y="32"
     inkscape:window-maximized="0"
     inkscape:current-layer="g877"
     inkscape:document-rotation="0"
     inkscape:pagecheckerboard="0"
     inkscape:showpageshadow="2"
     inkscape:deskcolor="#d1d1d1" />
  <defs
     id="defs29">
    <filter
       style="color-interpolation-filters:sRGB;"
       inkscape:label="Blur"
       id="filter1"
       x="-0.091333304"
       y="-0.091333304"
       width="1.1826666"
       height="1.1826666">
      <feGaussianBlur
         stdDeviation="1.3 1.3"
         result="blur"
         id="feGaussianBlur1" />
    </filter>
  </defs>
  <circle
     cx="32.516094"
     cy="31.877844"
     r="0"
     fill="url(#b)"
     stroke-width="1.5715"
     id="circle41"
     style="fill:url(#b)" />
  <g
     aria-label="GZ"
     transform="matrix(1.2212657,0,0,0.81882264,0.4960938,-0.1661539)"
     id="text93"
     style="font-weight:bold;font-size:11.5263px;line-height:1.25;font-family:sans-serif;-inkscape-font-specification:'sans-serif Bold';fill:#f2f2f2;stroke-width:0.288159" />
  <g
     id="g877"
     transform="matrix(1.1,0,0,1.1,-3.1845928,-3.2065454)">
    <rect
       style="fill:none;fill-opacity:1;stroke:#000000;stroke-width:2.72727;stroke-dasharray:none;stroke-opacity:1;filter:url(#filter1);opacity:0.5"
       id="rect1-5"
       width="49.090908"
       height="49.090908"
       x="7.4405394"
       y="7.4604964"
       rx="7.4768682"
       ry="7.477273" />
    <rect
       style="opacity:1;fill:#c4c2c5;stroke-width:2.72727273;stroke-opacity:1;fill-opacity:1;stroke:#1e2430;stroke-dasharray:none"
       id="rect1"
       width="49.090908"
       height="49.090908"
       x="7.4405394"
       y="7.4604964"
       rx="7.4768682"
       ry="7.477273" />
    <rect
       style="fill:#1e2430;fill-opacity:1;stroke:none;stroke-width:2.33829;stroke-dasharray:none;stroke-opacity:1"
       id="rect1-6"
       width="42.089317"
       height="42.089317"
       x="10.941335"
       y="10.961291"
       rx="5.5927272"
       ry="5.5927272" />
    <path
       id="path9"
       style="fill:#f4e3cf;fill-opacity:1;stroke-width:0.0384242"
       d="m 33.480449,22.370976 c -0.119706,-0.0017 -0.240068,-2.3e-5 -0.360658,0.0045 -1.172393,0.04392 -2.162232,0.324645 -3.169497,0.898491 -0.983322,0.560204 -1.837864,1.389069 -2.452671,2.379821 l -0.184378,0.296801 -0.414624,0.10883 c -0.759712,0.198125 -1.432131,0.575511 -2.018263,1.132346 -0.689362,0.65491 -1.162839,1.519697 -1.348204,2.463466 -0.03871,0.197005 -0.06135,0.240143 -0.12322,0.240143 -0.04148,0 -0.250336,0.03563 -0.464993,0.07914 -1.148376,0.232906 -2.093832,0.734895 -2.959933,1.571259 -2.455566,2.371261 -2.366097,6.343775 0.193371,8.615383 0.855724,0.75948 1.905945,1.255565 3.032788,1.431847 0.285747,0.04474 1.751869,0.05281 8.911283,0.04669 l 8.568613,-0.0073 0.356178,-0.0827 c 1.602689,-0.37154 2.859968,-1.220618 3.73972,-2.524464 0.924664,-1.370495 1.217446,-3.09417 0.80407,-4.730947 -0.445128,-1.762528 -1.73245,-3.253144 -3.433943,-3.97634 -0.420905,-0.178903 -1.112896,-0.366239 -1.488508,-0.402931 -0.463913,-0.04532 -0.420019,0.02029 -0.420019,-0.614293 0,-1.895194 -0.696645,-3.596039 -2.016465,-4.921533 -1.269106,-1.274568 -2.95505,-1.984241 -4.750647,-2.008371 z m -7.027035,7.332832 h 5.533128 5.533124 v 4.610339 4.611236 h -5.533124 -5.533128 v -4.611236 z m 2.80524,1.421057 v 1.11436 1.114359 h 2.727888 2.727888 v -1.114359 -1.11436 h -2.727888 z m 0,3.650678 v 1.364391 1.363493 h 2.727888 2.727888 v -1.363493 -1.364391 h -2.727888 z" />
  </g>
</svg>
