<?xml version="1.0" encoding="UTF-8" standalone="no"?>
<svg
   width="64"
   height="64"
   version="1.1"
   id="svg73"
   sodipodi:docname="fr.handbrake.ghb.svg"
   inkscape:version="1.2.2 (b0a8486541, 2022-12-01)"
   xmlns:inkscape="http://www.inkscape.org/namespaces/inkscape"
   xmlns:sodipodi="http://sodipodi.sourceforge.net/DTD/sodipodi-0.dtd"
   xmlns="http://www.w3.org/2000/svg"
   xmlns:svg="http://www.w3.org/2000/svg"
   xmlns:rdf="http://www.w3.org/1999/02/22-rdf-syntax-ns#"
   xmlns:cc="http://creativecommons.org/ns#"
   xmlns:dc="http://purl.org/dc/elements/1.1/">
  <metadata
     id="metadata77">
    <rdf:RDF>
      <cc:Work
         rdf:about="">
        <dc:format>image/svg+xml</dc:format>
        <dc:type
           rdf:resource="http://purl.org/dc/dcmitype/StillImage" />
      </cc:Work>
    </rdf:RDF>
  </metadata>
  <sodipodi:namedview
     pagecolor="#f5f7fa"
     bordercolor="#666666"
     borderopacity="1"
     objecttolerance="10"
     gridtolerance="10"
     guidetolerance="10"
     inkscape:pageopacity="0"
     inkscape:pageshadow="2"
     inkscape:window-width="1280"
     inkscape:window-height="603"
     id="namedview75"
     showgrid="false"
     inkscape:zoom="6.2890625"
     inkscape:cx="39.592547"
     inkscape:cy="37.843478"
     inkscape:window-x="35"
     inkscape:window-y="32"
     inkscape:window-maximized="0"
     inkscape:current-layer="g877"
     inkscape:document-rotation="0"
     inkscape:pagecheckerboard="0"
     inkscape:showpageshadow="2"
     inkscape:deskcolor="#d1d1d1" />
  <defs
     id="defs29">
    <filter
       style="color-interpolation-filters:sRGB;"
       inkscape:label="Blur"
       id="filter1"
       x="-0.091333304"
       y="-0.091333304"
       width="1.1826666"
       height="1.1826666">
      <feGaussianBlur
         stdDeviation="1.3 1.3"
         result="blur"
         id="feGaussianBlur1" />
    </filter>
    <filter
       style="color-interpolation-filters:sRGB"
       inkscape:label="Blur"
       id="filter1-3"
       x="-0.091333304"
       y="-0.091333304"
       width="1.1826666"
       height="1.1826666">
      <feGaussianBlur
         stdDeviation="1.3 1.3"
         result="blur"
         id="feGaussianBlur1-6" />
    </filter>
  </defs>
  <circle
     cx="32.516094"
     cy="31.877844"
     r="0"
     fill="url(#b)"
     stroke-width="1.5715"
     id="circle41"
     style="fill:url(#b)" />
  <g
     aria-label="GZ"
     transform="matrix(1.2212657,0,0,0.81882264,0.4960938,-0.1661539)"
     id="text93"
     style="font-weight:bold;font-size:11.5263px;line-height:1.25;font-family:sans-serif;-inkscape-font-specification:'sans-serif Bold';fill:#f2f2f2;stroke-width:0.288159" />
  <g
     id="g877"
     transform="matrix(1.1,0,0,1.1,-3.1845928,-3.2065454)">
    <rect
       style="fill:none;fill-opacity:1;stroke:#000000;stroke-width:2.72727;stroke-dasharray:none;stroke-opacity:1;filter:url(#filter1);opacity:0.5"
       id="rect1-5"
       width="49.090908"
       height="49.090908"
       x="7.4405394"
       y="7.4604964"
       rx="7.4768682"
       ry="7.477273" />
    <rect
       style="opacity:1;fill:#c4c2c5;stroke-width:2.72727273;stroke-opacity:1;fill-opacity:1;stroke:#1e2430;stroke-dasharray:none"
       id="rect1"
       width="49.090908"
       height="49.090908"
       x="7.4405394"
       y="7.4604964"
       rx="7.4768682"
       ry="7.477273" />
    <rect
       style="fill:#1e2430;fill-opacity:1;stroke:none;stroke-width:2.33829;stroke-dasharray:none;stroke-opacity:1"
       id="rect1-6"
       width="42.089317"
       height="42.089317"
       x="10.941335"
       y="10.961291"
       rx="5.5927272"
       ry="5.5927272" />
    <path
       id="path102"
       style="fill:#f4e3cf;fill-opacity:1;stroke:none;stroke-width:0.446513;stroke-dasharray:none;stroke-dashoffset:2.2;stroke-opacity:0.6"
       d="m 27.927869,17.913351 c -6.652461,0 -6.423702,-0.02173 -6.811521,0.634835 -0.156726,0.265356 -0.171675,1.453654 -0.171675,13.399497 0,14.474956 -0.04647,13.513138 0.661658,13.944919 0.327682,0.199724 0.604806,0.205279 10.359446,0.205678 10.92011,4.22e-4 10.355368,0.03104 10.844059,-0.590131 0.218902,-0.278246 0.218105,-0.31056 0.218105,-9.415235 v -9.134488 h -3.9699 c -4.451152,-1.85e-4 -4.527349,-0.01255 -4.889133,-0.73677 -0.165309,-0.330892 -0.184032,-0.769416 -0.184204,-4.338339 v -3.969966 z m 7.319388,0.160946 v 3.395922 c 0,3.706752 0.01899,3.849118 0.604436,4.166669 0.237023,0.128597 0.880099,0.157458 3.639125,0.160945 l 3.351216,0.0036 -1.791844,-1.866948 c -0.986152,-1.026748 -2.695413,-2.76612 -3.798284,-3.864523 z m -9.359806,13.40665 h 6.098001 6.099791 v 0.788624 0.788627 h -6.099791 -6.098001 v -0.788627 z m 0,2.943488 h 6.098001 6.099791 v 0.842275 0.840491 h -6.099791 -6.098001 v -0.840493 z m 0,3.050793 h 6.098001 6.099791 v 0.840481 0.842282 h -6.099791 -6.098001 v -0.842282 z m 0,3.048993 h 3.837628 3.839419 v 0.842276 0.840481 h -3.839419 -3.837628 v -0.840481 z" />
    <rect
       style="opacity:0.5;fill:none;fill-opacity:1;stroke:#000000;stroke-width:2.72727;stroke-dasharray:none;stroke-opacity:1;filter:url(#filter1-3)"
       id="rect1-5-5"
       width="49.090908"
       height="49.090908"
       x="7.4405394"
       y="7.4604964"
       rx="7.4768682"
       ry="7.477273"
       transform="matrix(0.43046721,0,0,0.43046721,34.695898,34.707264)" />
    <rect
       style="fill:#c4c2c5;fill-opacity:1;stroke:#1e2430;stroke-width:1.174;stroke-dasharray:none;stroke-opacity:1"
       id="rect1-3"
       width="21.132023"
       height="21.132023"
       x="37.898808"
       y="37.918762"
       rx="3.2185469"
       ry="3.2187209" />
    <rect
       style="fill:#1e2430;fill-opacity:1;stroke:none;stroke-width:1.00656;stroke-dasharray:none;stroke-opacity:1"
       id="rect1-6-5"
       width="18.118069"
       height="18.118069"
       x="39.405781"
       y="39.425739"
       rx="2.4074855"
       ry="2.4074855" />
    <path
       d="m 48.498716,43.257769 c -2.820702,0 -5.122294,2.204438 -5.293604,4.982213 h -1.652755 l 2.658779,3.976196 2.658778,-3.976196 h -1.892283 c 0.16324,-1.802218 1.675749,-3.209694 3.521085,-3.209694 0.68256,0 1.328531,0.19296 1.868333,0.526967 l 0.910208,-1.50904 c -0.808076,-0.496879 -1.761015,-0.790446 -2.778541,-0.790446 z m 4.191769,1.532987 -2.658776,3.976196 h 1.892281 c -0.16324,1.802218 -1.675751,3.209695 -3.521085,3.209695 -0.682563,0 -1.328527,-0.19296 -1.868333,-0.526967 l -0.910212,1.509039 c 0.808078,0.496879 1.761023,0.790446 2.778545,0.790446 2.820699,0 5.122294,-2.204436 5.293604,-4.982213 h 1.652755 z"
       style="clip-rule:evenodd;fill:#f4e3cf;fill-opacity:1;fill-rule:evenodd;stroke:none;stroke-width:0.38659;stroke-linejoin:round;stroke-miterlimit:1.41421;stroke-dasharray:none;stroke-opacity:0.6"
       id="path2-3" />
  </g>
</svg>
