<?xml version="1.0" encoding="UTF-8" standalone="no"?>
<svg
   width="64"
   height="64"
   version="1.1"
   id="svg73"
   sodipodi:docname="1password.svg"
   inkscape:version="1.2.2 (b0a8486541, 2022-12-01)"
   xmlns:inkscape="http://www.inkscape.org/namespaces/inkscape"
   xmlns:sodipodi="http://sodipodi.sourceforge.net/DTD/sodipodi-0.dtd"
   xmlns="http://www.w3.org/2000/svg"
   xmlns:svg="http://www.w3.org/2000/svg"
   xmlns:rdf="http://www.w3.org/1999/02/22-rdf-syntax-ns#"
   xmlns:cc="http://creativecommons.org/ns#"
   xmlns:dc="http://purl.org/dc/elements/1.1/">
  <metadata
     id="metadata77">
    <rdf:RDF>
      <cc:Work
         rdf:about="">
        <dc:format>image/svg+xml</dc:format>
        <dc:type
           rdf:resource="http://purl.org/dc/dcmitype/StillImage" />
      </cc:Work>
    </rdf:RDF>
  </metadata>
  <sodipodi:namedview
     pagecolor="#f5f7fa"
     bordercolor="#666666"
     borderopacity="1"
     objecttolerance="10"
     gridtolerance="10"
     guidetolerance="10"
     inkscape:pageopacity="0"
     inkscape:pageshadow="2"
     inkscape:window-width="1280"
     inkscape:window-height="603"
     id="namedview75"
     showgrid="false"
     inkscape:zoom="4.4470387"
     inkscape:cx="44.299142"
     inkscape:cy="19.113843"
     inkscape:window-x="35"
     inkscape:window-y="32"
     inkscape:window-maximized="0"
     inkscape:current-layer="g877"
     inkscape:document-rotation="0"
     inkscape:pagecheckerboard="0"
     inkscape:showpageshadow="2"
     inkscape:deskcolor="#d1d1d1" />
  <defs
     id="defs29">
    <filter
       style="color-interpolation-filters:sRGB;"
       inkscape:label="Blur"
       id="filter1"
       x="-0.091333304"
       y="-0.091333304"
       width="1.1826666"
       height="1.1826666">
      <feGaussianBlur
         stdDeviation="1.3 1.3"
         result="blur"
         id="feGaussianBlur1" />
    </filter>
  </defs>
  <circle
     cx="32.516094"
     cy="31.877844"
     r="0"
     fill="url(#b)"
     stroke-width="1.5715"
     id="circle41"
     style="fill:url(#b)" />
  <g
     aria-label="GZ"
     transform="matrix(1.2212657,0,0,0.81882264,0.4960938,-0.1661539)"
     id="text93"
     style="font-weight:bold;font-size:11.5263px;line-height:1.25;font-family:sans-serif;-inkscape-font-specification:'sans-serif Bold';fill:#f2f2f2;stroke-width:0.288159" />
  <g
     id="g877"
     transform="matrix(1.1,0,0,1.1,-3.1845928,-3.2065454)">
    <rect
       style="fill:none;fill-opacity:1;stroke:#000000;stroke-width:2.72727;stroke-dasharray:none;stroke-opacity:1;filter:url(#filter1);opacity:0.5"
       id="rect1-5"
       width="49.090908"
       height="49.090908"
       x="7.4405394"
       y="7.4604964"
       rx="7.4768682"
       ry="7.477273" />
    <rect
       style="opacity:1;fill:#c4c2c5;stroke-width:2.72727273;stroke-opacity:1;fill-opacity:1;stroke:#1e2430;stroke-dasharray:none"
       id="rect1"
       width="49.090908"
       height="49.090908"
       x="7.4405394"
       y="7.4604964"
       rx="7.4768682"
       ry="7.477273" />
    <rect
       style="fill:#1e2430;fill-opacity:1;stroke:none;stroke-width:2.33829;stroke-dasharray:none;stroke-opacity:1"
       id="rect1-6"
       width="42.089317"
       height="42.089317"
       x="10.941335"
       y="10.961291"
       rx="5.5927272"
       ry="5.5927272" />
    <path
       id="path10"
       style="fill:#f4e3cf;fill-opacity:1;stroke:none;stroke-width:0.379759;stroke-dasharray:none;stroke-opacity:0.6"
       d="m 38.235922,20.062225 c -0.13857,-3e-5 -2.472317,0.853947 -6.93718,2.537398 l -6.72775,2.536464 0.167355,0.190727 c 0.09492,0.108104 0.208218,0.337083 0.26085,0.526362 l 0.09349,0.33471 h 0.293571 c 0.250045,0 1.246923,-0.359558 6.720269,-2.422404 3.534521,-1.332125 6.481187,-2.471936 6.548243,-2.533661 0.312648,-0.287819 0.307106,-0.715469 -0.0133,-0.996634 -0.14423,-0.126648 -0.252866,-0.172923 -0.405766,-0.172961 z m -14.616691,4.784032 c -0.335424,-0.0023 -0.675986,0.111759 -0.948017,0.350602 -0.211493,0.185694 -0.461878,0.653276 -0.462789,0.86481 v 0.126216 h 1.404265 c 0.772664,0 1.40537,-0.01886 1.405197,-0.04208 -0.0014,-0.151385 -0.149922,-0.526328 -0.288892,-0.728313 -0.255972,-0.372041 -0.678497,-0.568068 -1.109764,-0.571243 z m 12.469155,1.393983 v 8.854714 8.85472 l 3.975316,-0.01794 c 3.634809,-0.01639 3.997504,-0.02597 4.228686,-0.115965 0.374264,-0.146301 0.770472,-0.45916 0.960172,-0.758229 0.349466,-0.550932 0.331898,-0.137147 0.331898,-7.999257 0,-7.139305 -4.39e-4,-7.182268 -0.116893,-7.493463 -0.212077,-0.566937 -0.682162,-1.036559 -1.220997,-1.219206 -0.15527,-0.05262 -1.195841,-0.07468 -4.182875,-0.08788 z m -0.05609,0.0019 -8.077787,0.01497 -8.078723,0.01497 -0.353406,0.163589 c -0.443938,0.205007 -0.856276,0.640065 -1.019076,1.075181 -0.115473,0.30864 -0.115928,0.366223 -0.115928,7.584149 0,7.198719 7.6e-4,7.276033 0.115,7.581343 0.223967,0.598596 0.834892,1.100474 1.465032,1.205127 0.166445,0.02752 3.848799,0.05341 8.183437,0.057 l 7.881458,0.0065 v -8.850963 z m -8.956625,2.371913 c 0.963054,-0.01874 1.930513,0.171755 2.811334,0.578719 0.395581,0.182773 1.368738,0.782359 1.368738,0.843308 -10e-7,0.01608 -1.838738,0.02897 -4.085645,0.02897 -2.368853,0 -4.06237,-0.02075 -4.031413,-0.04955 0.02931,-0.02733 0.224322,-0.165669 0.433804,-0.307589 1.033264,-0.699987 2.264969,-1.069743 3.503182,-1.093851 z m 13.833215,1.916602 c 0.68137,0.02687 1.345198,0.40933 1.67914,1.09761 0.134118,0.276458 0.154992,0.388274 0.155177,0.825541 1.58e-4,0.398109 -0.02597,0.561722 -0.120604,0.770383 -0.167701,0.367913 -0.589798,0.80043 -0.956433,0.979805 -0.523507,0.256125 -1.237814,0.235722 -1.788528,-0.05142 -0.278285,-0.145124 -0.649206,-0.552241 -0.805901,-0.884443 -0.123263,-0.261462 -0.146086,-0.386479 -0.145838,-0.814326 3.46e-4,-0.60789 0.11009,-0.892166 0.508602,-1.318249 0.403814,-0.431713 0.944431,-0.625806 1.474391,-0.604897 z M 39.98518,31.40762 c -0.05513,0.0021 -0.111605,0.02229 -0.163651,0.06545 -0.113274,0.094 -0.101894,0.372498 0.01763,0.442223 0.151095,0.08802 0.267338,0.07179 0.380508,-0.0533 0.17704,-0.195628 -0.01824,-0.462026 -0.234621,-0.454376 z m -18.217102,0.06266 h 5.405763 5.406699 l 0.177634,0.294508 c 0.218697,0.36213 0.519822,1.020857 0.519822,1.136875 0,0.07604 -0.675478,0.086 -6.096675,0.086 -5.05156,0 -6.096676,-0.01352 -6.096676,-0.07574 0,-0.04131 0.153322,-0.382308 0.34125,-0.758228 z m -1.005981,2.865565 h 6.42016 6.420162 l 0.03366,0.126216 c 0.04428,0.16532 0.0459,1.187639 0.0019,1.302357 -0.0308,0.08034 -0.651918,0.08882 -6.454755,0.08882 H 20.76219 l -0.03552,-0.260845 c -0.01969,-0.143392 -0.03551,-0.366931 -0.03551,-0.497382 0,-0.130453 0.01587,-0.354923 0.03551,-0.498318 z m 18.885572,1.461275 c 0.691165,0 0.711482,0.02097 0.711482,0.740464 0,0.446696 -0.01701,0.549655 -0.102853,0.627343 -0.07985,0.0723 -0.217303,0.09348 -0.617989,0.09348 -0.698468,0 -0.740463,-0.04171 -0.740463,-0.731114 0,-0.6912 0.04027,-0.73018 0.749814,-0.73018 z m 2.377526,0 c 0.709545,0 0.749818,0.03897 0.749818,0.730182 0,0.430817 -0.01639,0.52225 -0.112224,0.61799 -0.09636,0.09636 -0.187461,0.11309 -0.637622,0.11309 -0.6972,0 -0.739527,-0.04212 -0.739527,-0.731117 0,-0.688985 0.0423,-0.730179 0.739527,-0.730179 z m -14.843873,1.404263 c 3.870951,0 6.096676,0.0201 6.096676,0.05424 0,0.11513 -0.241752,0.667458 -0.46279,1.056478 l -0.230926,0.406704 H 27.20376 21.822304 l -0.118736,-0.167392 c -0.139015,-0.195192 -0.618922,-1.191898 -0.618922,-1.285523 0,-0.0471 1.588211,-0.0645 6.096673,-0.0645 z m 12.429891,0.955493 c 0.400495,0 0.616362,0.059 0.704935,0.191667 0.02289,0.03405 0.04159,0.295634 0.04202,0.581538 7.61e-4,0.44556 -0.01484,0.535672 -0.111264,0.632013 -0.09447,0.09447 -0.187308,0.112223 -0.582463,0.112223 -0.390465,0 -0.495935,-0.01917 -0.61892,-0.115965 -0.141045,-0.110924 -0.147693,-0.141354 -0.147693,-0.642294 0,-0.500976 0.0068,-0.531312 0.147693,-0.642302 0.119614,-0.0941 0.228281,-0.116893 0.565634,-0.116893 z m 2.658,9e-4 c 0.216097,3.86e-4 0.260844,0.03 0.362755,0.131829 0.132446,0.132447 0.143023,0.182266 0.143023,0.647914 0,0.477782 -0.0071,0.510429 -0.147724,0.620787 -0.122614,0.09648 -0.228189,0.115965 -0.612379,0.115965 -0.677614,0 -0.729248,-0.05319 -0.729248,-0.751679 0,-0.703224 0.02597,-0.730935 0.702136,-0.757302 0.118749,-0.0047 0.209387,-0.0071 0.28144,-0.0071 z m -15.087899,1.910093 c 2.494416,0 4.074426,0.0201 4.074426,0.05235 0,0.09611 -0.957473,0.691541 -1.461299,0.908748 -0.560058,0.241455 -1.169843,0.408339 -1.816567,0.496451 -1.174936,0.160063 -2.52522,-0.06383 -3.606022,-0.597409 -0.438585,-0.21653 -1.264959,-0.750247 -1.264959,-0.817132 0,-0.02381 1.833701,-0.04305 4.074421,-0.04305 z" />
  </g>
</svg>
