<?xml version="1.0" encoding="UTF-8" standalone="no"?>
<svg
   width="64"
   height="64"
   version="1.1"
   id="svg73"
   sodipodi:docname="1password.svg"
   inkscape:version="1.4.2 (ebf0e940d0, 2025-05-08)"
   xmlns:inkscape="http://www.inkscape.org/namespaces/inkscape"
   xmlns:sodipodi="http://sodipodi.sourceforge.net/DTD/sodipodi-0.dtd"
   xmlns="http://www.w3.org/2000/svg"
   xmlns:svg="http://www.w3.org/2000/svg"
   xmlns:rdf="http://www.w3.org/1999/02/22-rdf-syntax-ns#"
   xmlns:cc="http://creativecommons.org/ns#"
   xmlns:dc="http://purl.org/dc/elements/1.1/">
  <metadata
     id="metadata77">
    <rdf:RDF>
      <cc:Work
         rdf:about="">
        <dc:format>image/svg+xml</dc:format>
        <dc:type
           rdf:resource="http://purl.org/dc/dcmitype/StillImage" />
      </cc:Work>
    </rdf:RDF>
  </metadata>
  <sodipodi:namedview
     pagecolor="#f5f7fa"
     bordercolor="#666666"
     borderopacity="1"
     objecttolerance="10"
     gridtolerance="10"
     guidetolerance="10"
     inkscape:pageopacity="0"
     inkscape:pageshadow="2"
     inkscape:window-width="1920"
     inkscape:window-height="931"
     id="namedview75"
     showgrid="false"
     inkscape:zoom="6.2890625"
     inkscape:cx="52.313043"
     inkscape:cy="37.684472"
     inkscape:window-x="0"
     inkscape:window-y="0"
     inkscape:window-maximized="1"
     inkscape:current-layer="g877"
     inkscape:document-rotation="0"
     inkscape:pagecheckerboard="0"
     inkscape:showpageshadow="2"
     inkscape:deskcolor="#d1d1d1" />
  <defs
     id="defs29">
    <filter
       style="color-interpolation-filters:sRGB;"
       inkscape:label="Blur"
       id="filter1"
       x="-0.091333304"
       y="-0.091333304"
       width="1.1826666"
       height="1.1826666">
      <feGaussianBlur
         stdDeviation="1.3 1.3"
         result="blur"
         id="feGaussianBlur1" />
    </filter>
  </defs>
  <circle
     cx="32.516094"
     cy="31.877844"
     r="0"
     fill="url(#b)"
     stroke-width="1.5715"
     id="circle41"
     style="fill:url(#b)" />
  <g
     aria-label="GZ"
     transform="matrix(1.2212657,0,0,0.81882264,0.4960938,-0.1661539)"
     id="text93"
     style="font-weight:bold;font-size:11.5263px;line-height:1.25;font-family:sans-serif;-inkscape-font-specification:'sans-serif Bold';fill:#f2f2f2;stroke-width:0.288159" />
  <g
     id="g877"
     transform="matrix(1.1,0,0,1.1,-3.1845928,-3.2065454)">
    <rect
       style="fill:none;fill-opacity:1;stroke:#000000;stroke-width:2.72727;stroke-dasharray:none;stroke-opacity:1;filter:url(#filter1);opacity:0.5"
       id="rect1-5"
       width="49.090908"
       height="49.090908"
       x="7.4405394"
       y="7.4604964"
       rx="7.4768682"
       ry="7.477273" />
    <rect
       style="opacity:1;fill:#c4c2c5;stroke-width:2.72727273;stroke-opacity:1;fill-opacity:1;stroke:#1e2430;stroke-dasharray:none"
       id="rect1"
       width="49.090908"
       height="49.090908"
       x="7.4405394"
       y="7.4604964"
       rx="7.4768682"
       ry="7.477273" />
    <rect
       style="fill:#1e2430;fill-opacity:1;stroke:none;stroke-width:2.33829;stroke-dasharray:none;stroke-opacity:1"
       id="rect1-6"
       width="42.089317"
       height="42.089317"
       x="10.941335"
       y="10.961291"
       rx="5.5927272"
       ry="5.5927272" />
    <path
       style="fill:#f4e3cf;stroke-width:0.699546;fill-opacity:1"
       d="m 29.747539,18.015042 c -0.927223,0 -1.678272,0.751035 -1.678272,1.678272 0,0.927235 0.751049,1.680548 1.678272,1.680548 4.327155,0 7.835729,3.506355 7.835729,7.833452 0,0.927247 0.751024,1.67827 1.678272,1.67827 0.927247,0 1.678271,-0.751023 1.678271,-1.67827 0,-6.18157 -5.010738,-11.192272 -11.192272,-11.192272 z m -0.560183,5.03709 c -6.181569,1.3e-5 -11.192271,5.010682 -11.192271,11.192273 0,0.927247 0.751034,1.678272 1.678272,1.678272 0.927235,0 1.680548,-0.751025 1.680548,-1.678272 0,-4.327155 3.506353,-7.83573 7.833451,-7.83573 0.927247,0 1.678271,-0.751035 1.678271,-1.678272 0,-0.927234 -0.751024,-1.678271 -1.678271,-1.678271 z m 15.111275,5.037092 c -0.927247,0 -1.680548,0.75105 -1.680548,1.678272 0,4.327155 -3.506297,7.835729 -7.833453,7.835729 -0.927247,0 -1.67827,0.751023 -1.67827,1.678271 0,0.927247 0.751023,1.678272 1.67827,1.678272 6.181533,0 11.192272,-5.010739 11.192272,-11.192272 0,-0.927224 -0.751023,-1.678272 -1.678271,-1.678272 z m -19.588184,5.037093 c -0.927237,0 -1.678271,0.751024 -1.678271,1.678271 0,6.181534 5.010679,11.192271 11.192272,11.192271 0.927247,0 1.678272,-0.751024 1.678272,-1.678272 0,-0.927247 -0.751025,-1.680546 -1.678272,-1.680546 -4.327155,0 -7.835729,-3.506299 -7.835729,-7.833453 0,-0.927247 -0.751036,-1.678271 -1.678272,-1.678271 z"
       id="path3" />
  </g>
</svg>
