<?xml version="1.0" encoding="UTF-8" standalone="no"?>
<svg
   width="64"
   height="64"
   version="1.1"
   id="svg73"
   sodipodi:docname="bluetooth-active.svg"
   inkscape:version="1.2.2 (b0a8486541, 2022-12-01)"
   xmlns:inkscape="http://www.inkscape.org/namespaces/inkscape"
   xmlns:sodipodi="http://sodipodi.sourceforge.net/DTD/sodipodi-0.dtd"
   xmlns="http://www.w3.org/2000/svg"
   xmlns:svg="http://www.w3.org/2000/svg"
   xmlns:rdf="http://www.w3.org/1999/02/22-rdf-syntax-ns#"
   xmlns:cc="http://creativecommons.org/ns#"
   xmlns:dc="http://purl.org/dc/elements/1.1/">
  <metadata
     id="metadata77">
    <rdf:RDF>
      <cc:Work
         rdf:about="">
        <dc:format>image/svg+xml</dc:format>
        <dc:type
           rdf:resource="http://purl.org/dc/dcmitype/StillImage" />
      </cc:Work>
    </rdf:RDF>
  </metadata>
  <sodipodi:namedview
     pagecolor="#f5f7fa"
     bordercolor="#666666"
     borderopacity="1"
     objecttolerance="10"
     gridtolerance="10"
     guidetolerance="10"
     inkscape:pageopacity="0"
     inkscape:pageshadow="2"
     inkscape:window-width="1280"
     inkscape:window-height="603"
     id="namedview75"
     showgrid="false"
     inkscape:zoom="4.4470387"
     inkscape:cx="8.7698809"
     inkscape:cy="34.854655"
     inkscape:window-x="35"
     inkscape:window-y="32"
     inkscape:window-maximized="0"
     inkscape:current-layer="g877"
     inkscape:document-rotation="0"
     inkscape:pagecheckerboard="0"
     inkscape:showpageshadow="2"
     inkscape:deskcolor="#d1d1d1" />
  <defs
     id="defs29">
    <filter
       style="color-interpolation-filters:sRGB;"
       inkscape:label="Blur"
       id="filter1"
       x="-0.091333304"
       y="-0.091333304"
       width="1.1826666"
       height="1.1826666">
      <feGaussianBlur
         stdDeviation="1.3 1.3"
         result="blur"
         id="feGaussianBlur1" />
    </filter>
  </defs>
  <circle
     cx="32.516094"
     cy="31.877844"
     r="0"
     fill="url(#b)"
     stroke-width="1.5715"
     id="circle41"
     style="fill:url(#b)" />
  <g
     aria-label="GZ"
     transform="matrix(1.2212657,0,0,0.81882264,0.4960938,-0.1661539)"
     id="text93"
     style="font-weight:bold;font-size:11.5263px;line-height:1.25;font-family:sans-serif;-inkscape-font-specification:'sans-serif Bold';fill:#f2f2f2;stroke-width:0.288159" />
  <g
     id="g877"
     transform="matrix(1.1,0,0,1.1,-3.1845928,-3.2065454)">
    <rect
       style="fill:none;fill-opacity:1;stroke:#000000;stroke-width:2.72727;stroke-dasharray:none;stroke-opacity:1;filter:url(#filter1);opacity:0.5"
       id="rect1-5"
       width="49.090908"
       height="49.090908"
       x="7.4405394"
       y="7.4604964"
       rx="7.4768682"
       ry="7.477273" />
    <rect
       style="opacity:1;fill:#c4c2c5;stroke-width:2.72727273;stroke-opacity:1;fill-opacity:1;stroke:#1e2430;stroke-dasharray:none"
       id="rect1"
       width="49.090908"
       height="49.090908"
       x="7.4405394"
       y="7.4604964"
       rx="7.4768682"
       ry="7.477273" />
    <rect
       style="fill:#1e2430;fill-opacity:1;stroke:none;stroke-width:2.33829;stroke-dasharray:none;stroke-opacity:1"
       id="rect1-6"
       width="42.089317"
       height="42.089317"
       x="10.941335"
       y="10.961291"
       rx="5.5927272"
       ry="5.5927272" />
    <path
       fill="#f5f7fa"
       d="m 37.701952,43.420943 -1.174277,-2.292685 c -1.312428,0.839584 -3.557375,1.453115 -5.733243,1.453115 -6.423994,0 -9.912294,-3.099976 -9.912294,-9.073877 0,-6.490566 5.284254,-12.044676 12.364465,-12.044676 6.21677,0 9.877753,2.906225 9.877753,8.105138 0,3.42288 -1.657808,6.748888 -4.524426,6.748888 -1.036128,0 -1.450576,-0.484371 -1.450576,-1.420821 0,-0.484365 0.103591,-1.388529 0.241731,-2.131227 l 1.070694,-6.490566 c -1.105207,-0.645824 -2.935694,-1.033323 -4.593501,-1.033323 -4.213587,0 -8.461713,2.680184 -8.461713,8.492628 0,2.809354 1.485118,5.069745 5.077027,5.069745 1.623269,0 3.073847,-0.581239 4.040905,-1.711441 h 0.138158 c 0.483523,1.001034 1.588729,1.711441 3.522838,1.711441 4.835267,0 7.978188,-4.101007 7.978188,-9.590533 0,-6.264526 -4.938876,-10.33324 -12.468076,-10.33324 -9.117931,0 -15.887299,6.619733 -15.887299,14.950903 0,6.910351 4.351736,11.301979 12.468076,11.301979 2.901156,0 5.664163,-0.678123 7.425583,-1.711448 z M 31.10527,36.349139 c -1.795954,0 -2.659395,-0.968739 -2.659395,-3.132259 0,-3.229142 2.175867,-5.489534 5.042492,-5.489534 0.656209,0 1.27789,0.129168 1.692338,0.258335 l -0.794362,5.069743 c -0.06907,0.355197 -0.172668,1.25936 -0.172668,1.646851 -0.518063,0.871874 -1.692343,1.646864 -3.108387,1.646864 z"
       id="path42"
       style="fill:#f4e3cf;fill-opacity:1;stroke:none;stroke-width:0.446513;stroke-dasharray:none;stroke-opacity:0.6" />
  </g>
</svg>
