<?xml version="1.0" encoding="UTF-8" standalone="no"?>
<svg
   width="64"
   height="64"
   version="1.1"
   id="svg73"
   sodipodi:docname="1password.svg"
   inkscape:version="1.2.2 (b0a8486541, 2022-12-01)"
   xmlns:inkscape="http://www.inkscape.org/namespaces/inkscape"
   xmlns:sodipodi="http://sodipodi.sourceforge.net/DTD/sodipodi-0.dtd"
   xmlns="http://www.w3.org/2000/svg"
   xmlns:svg="http://www.w3.org/2000/svg"
   xmlns:rdf="http://www.w3.org/1999/02/22-rdf-syntax-ns#"
   xmlns:cc="http://creativecommons.org/ns#"
   xmlns:dc="http://purl.org/dc/elements/1.1/">
  <metadata
     id="metadata77">
    <rdf:RDF>
      <cc:Work
         rdf:about="">
        <dc:format>image/svg+xml</dc:format>
        <dc:type
           rdf:resource="http://purl.org/dc/dcmitype/StillImage" />
      </cc:Work>
    </rdf:RDF>
  </metadata>
  <sodipodi:namedview
     pagecolor="#f5f7fa"
     bordercolor="#666666"
     borderopacity="1"
     objecttolerance="10"
     gridtolerance="10"
     guidetolerance="10"
     inkscape:pageopacity="0"
     inkscape:pageshadow="2"
     inkscape:window-width="1280"
     inkscape:window-height="603"
     id="namedview75"
     showgrid="false"
     inkscape:zoom="4.4470387"
     inkscape:cx="32.15623"
     inkscape:cy="31.031886"
     inkscape:window-x="35"
     inkscape:window-y="32"
     inkscape:window-maximized="0"
     inkscape:current-layer="g877"
     inkscape:document-rotation="0"
     inkscape:pagecheckerboard="0"
     inkscape:showpageshadow="2"
     inkscape:deskcolor="#d1d1d1" />
  <defs
     id="defs29">
    <filter
       style="color-interpolation-filters:sRGB;"
       inkscape:label="Blur"
       id="filter1"
       x="-0.091333304"
       y="-0.091333304"
       width="1.1826666"
       height="1.1826666">
      <feGaussianBlur
         stdDeviation="1.3 1.3"
         result="blur"
         id="feGaussianBlur1" />
    </filter>
  </defs>
  <circle
     cx="32.516094"
     cy="31.877844"
     r="0"
     fill="url(#b)"
     stroke-width="1.5715"
     id="circle41"
     style="fill:url(#b)" />
  <g
     aria-label="GZ"
     transform="matrix(1.2212657,0,0,0.81882264,0.4960938,-0.1661539)"
     id="text93"
     style="font-weight:bold;font-size:11.5263px;line-height:1.25;font-family:sans-serif;-inkscape-font-specification:'sans-serif Bold';fill:#f2f2f2;stroke-width:0.288159" />
  <g
     id="g877"
     transform="matrix(1.1,0,0,1.1,-3.1845928,-3.2065454)">
    <rect
       style="fill:none;fill-opacity:1;stroke:#000000;stroke-width:2.72727;stroke-dasharray:none;stroke-opacity:1;filter:url(#filter1);opacity:0.5"
       id="rect1-5"
       width="49.090908"
       height="49.090908"
       x="7.4405394"
       y="7.4604964"
       rx="7.4768682"
       ry="7.477273" />
    <rect
       style="opacity:1;fill:#c4c2c5;stroke-width:2.72727273;stroke-opacity:1;fill-opacity:1;stroke:#1e2430;stroke-dasharray:none"
       id="rect1"
       width="49.090908"
       height="49.090908"
       x="7.4405394"
       y="7.4604964"
       rx="7.4768682"
       ry="7.477273" />
    <rect
       style="fill:#1e2430;fill-opacity:1;stroke:none;stroke-width:2.33829;stroke-dasharray:none;stroke-opacity:1"
       id="rect1-6"
       width="42.089317"
       height="42.089317"
       x="10.941335"
       y="10.961291"
       rx="5.5927272"
       ry="5.5927272" />
    <path
       id="path72"
       style="fill:#f4e3cf;fill-opacity:1;stroke:none;stroke-width:0.429897;stroke-dasharray:none;stroke-dashoffset:2.2;stroke-opacity:0.6"
       d="m 31.957601,19.18689 c -8.673779,0 -8.709697,0.0014 -8.985607,0.21825 -0.620046,0.487737 -0.587331,-0.24443 -0.587331,12.552173 0,7.061899 0.04046,11.841769 0.09936,11.996785 0.132071,0.347397 0.504524,0.679511 0.888976,0.793166 0.177361,0.05242 4.052382,0.0865 8.820591,0.07629 8.164284,-0.01794 8.516929,-0.0269 8.797527,-0.216437 0.628834,-0.426222 0.594428,0.299066 0.594428,-12.642675 0,-10.790577 -0.01546,-11.884713 -0.17033,-12.147608 -0.392644,-0.664752 0.124191,-0.629981 -9.457597,-0.629979 z m -14.058645,2.086707 v 1.30419 1.305966 h 1.355649 1.357423 v -1.305966 -1.30419 h -1.357423 z m 25.356309,0 v 1.30419 1.305966 h 1.408886 1.408879 v -1.305966 -1.30419 h -1.408879 z m -16.17374,1.043352 h 0.626366 0.624593 v 1.61826 1.616489 h -0.624593 -0.626366 v -1.616489 z m 4.2781,0 h 0.626367 0.626368 v 4.331333 4.32956 h -0.557167 c -0.306092,0 -0.588099,-0.03089 -0.626367,-0.06919 -0.03826,-0.03827 -0.0692,-1.986066 -0.0692,-4.329563 z m 4.382793,0 h 0.573133 0.574914 v 3.234749 3.236522 h -0.574914 -0.573133 v -3.236522 z m -17.843462,3.756424 v 1.305966 1.304193 h 1.355649 1.357423 v -1.304193 -1.305966 h -1.357423 z m 25.356309,0 v 1.305966 1.304193 h 1.408886 1.408879 v -1.304193 -1.305966 h -1.408879 z m -16.17374,0.523451 h 0.62814 0.628141 l -0.02842,1.643104 -0.02842,1.643102 -0.525227,0.03015 c -0.289033,0.01695 -0.558777,-0.0016 -0.599613,-0.04253 -0.04083,-0.04083 -0.07454,-0.795033 -0.07454,-1.675044 z m 8.660893,3.234749 h 0.573133 0.574914 v 1.616487 1.618261 H 36.315551 35.742418 V 31.44806 Z m -8.660893,1.043352 h 0.626366 0.624593 v 3.23475 3.234742 h -0.624593 -0.626366 v -3.234742 z m -9.182569,0.102915 v 1.252733 1.252731 h 1.355649 1.357423 V 32.23057 30.977836 h -1.357423 z m 25.356309,0 v 1.252734 1.252734 h 1.408886 1.408879 V 32.230572 30.977839 H 44.664151 Z M 32.61236,31.90763 v 4.334881 4.336657 h -0.628141 -0.626367 l 0.02662,-4.304717 0.0266,-4.304717 0.599749,-0.03012 z m 3.130058,2.202043 h 0.573133 0.574914 v 3.807877 3.809666 h -0.574914 -0.573133 v -3.809663 z m -17.843462,1.66972 v 1.304192 1.304195 h 1.355649 1.357423 v -1.304195 -1.304192 h -1.357423 z m 25.356309,0 v 1.304192 1.304195 h 1.408886 1.408879 V 37.083585 35.779393 H 44.664151 Z M 17.898956,40.57917 v 1.304193 1.304189 h 1.355649 1.357423 V 41.883363 40.57917 h -1.357423 z m 25.356309,0 v 1.304193 1.304189 h 1.408886 1.408879 V 41.883363 40.57917 h -1.408879 z" />
  </g>
</svg>
