<?xml version="1.0" encoding="UTF-8" standalone="no"?>
<svg
   width="64"
   height="64"
   version="1.1"
   id="svg73"
   sodipodi:docname="org.gnome.Yelp.svg"
   inkscape:version="1.2.2 (b0a8486541, 2022-12-01)"
   xmlns:inkscape="http://www.inkscape.org/namespaces/inkscape"
   xmlns:sodipodi="http://sodipodi.sourceforge.net/DTD/sodipodi-0.dtd"
   xmlns="http://www.w3.org/2000/svg"
   xmlns:svg="http://www.w3.org/2000/svg"
   xmlns:rdf="http://www.w3.org/1999/02/22-rdf-syntax-ns#"
   xmlns:cc="http://creativecommons.org/ns#"
   xmlns:dc="http://purl.org/dc/elements/1.1/">
  <metadata
     id="metadata77">
    <rdf:RDF>
      <cc:Work
         rdf:about="">
        <dc:format>image/svg+xml</dc:format>
        <dc:type
           rdf:resource="http://purl.org/dc/dcmitype/StillImage" />
      </cc:Work>
    </rdf:RDF>
  </metadata>
  <sodipodi:namedview
     pagecolor="#f5f7fa"
     bordercolor="#666666"
     borderopacity="1"
     objecttolerance="10"
     gridtolerance="10"
     guidetolerance="10"
     inkscape:pageopacity="0"
     inkscape:pageshadow="2"
     inkscape:window-width="1280"
     inkscape:window-height="603"
     id="namedview75"
     showgrid="false"
     inkscape:zoom="6.2890625"
     inkscape:cx="48.337888"
     inkscape:cy="37.843478"
     inkscape:window-x="35"
     inkscape:window-y="32"
     inkscape:window-maximized="0"
     inkscape:current-layer="g877"
     inkscape:document-rotation="0"
     inkscape:pagecheckerboard="0"
     inkscape:showpageshadow="2"
     inkscape:deskcolor="#d1d1d1" />
  <defs
     id="defs29">
    <filter
       style="color-interpolation-filters:sRGB;"
       inkscape:label="Blur"
       id="filter1"
       x="-0.091333304"
       y="-0.091333304"
       width="1.1826666"
       height="1.1826666">
      <feGaussianBlur
         stdDeviation="1.3 1.3"
         result="blur"
         id="feGaussianBlur1" />
    </filter>
    <clipPath
       id="clip0_1957_1318">
      <rect
         width="96"
         height="96"
         fill="#ffffff"
         id="rect1410"
         x="0"
         y="0" />
    </clipPath>
  </defs>
  <circle
     cx="32.516094"
     cy="31.877844"
     r="0"
     fill="url(#b)"
     stroke-width="1.5715"
     id="circle41"
     style="fill:url(#b)" />
  <g
     aria-label="GZ"
     transform="matrix(1.2212657,0,0,0.81882264,0.4960938,-0.1661539)"
     id="text93"
     style="font-weight:bold;font-size:11.5263px;line-height:1.25;font-family:sans-serif;-inkscape-font-specification:'sans-serif Bold';fill:#f2f2f2;stroke-width:0.288159" />
  <g
     id="g877"
     transform="matrix(1.1,0,0,1.1,-3.1845928,-3.2065454)">
    <rect
       style="fill:none;fill-opacity:1;stroke:#000000;stroke-width:2.72727;stroke-dasharray:none;stroke-opacity:1;filter:url(#filter1);opacity:0.5"
       id="rect1-5"
       width="49.090908"
       height="49.090908"
       x="7.4405394"
       y="7.4604964"
       rx="7.4768682"
       ry="7.477273" />
    <rect
       style="opacity:1;fill:#c4c2c5;stroke-width:2.72727273;stroke-opacity:1;fill-opacity:1;stroke:#1e2430;stroke-dasharray:none"
       id="rect1"
       width="49.090908"
       height="49.090908"
       x="7.4405394"
       y="7.4604964"
       rx="7.4768682"
       ry="7.477273" />
    <rect
       style="fill:#1e2430;fill-opacity:1;stroke:none;stroke-width:2.33829;stroke-dasharray:none;stroke-opacity:1"
       id="rect1-6"
       width="42.089317"
       height="42.089317"
       x="10.941335"
       y="10.961291"
       rx="5.5927272"
       ry="5.5927272" />
    <path
       style="fill:#f4e3cf;stroke-width:0.51709;fill-opacity:1"
       d="M 25.830831,42.637798 C 22.362284,41.270963 18.99246,37.986284 18.143384,35.14459 17.793619,33.973994 17.507446,31.705258 17.507446,30.102952 v -2.91328 h 1.809819 1.809817 v 2.602066 c 0,3.36232 0.942348,5.546705 3.27728,7.596802 3.190183,2.801017 5.613334,3.069273 17.336488,1.919245 4.001438,-0.392536 4.089078,0.288232 0.336457,2.613503 -2.304938,1.428228 -2.911365,1.556128 -7.973538,1.681675 -4.584051,0.11369 -5.935197,-0.04394 -8.272938,-0.965165 z m 3.311162,-5.792009 c -2.974811,-1.164064 -3.794077,-1.903494 -4.680404,-4.224307 -1.025218,-2.684498 -0.774565,-6.853579 0.53193,-8.847542 1.661392,-2.535607 3.523009,-3.022967 12.288214,-3.216982 l 8.139738,-0.180169 0.521534,1.37174 c 0.286845,0.754457 0.521536,1.568841 0.521536,1.809739 0,0.240899 -3.743956,0.516615 -8.319904,0.6127 -8.018502,0.168377 -8.355687,0.218928 -9.307637,1.395444 -1.344052,1.661113 -1.325155,5.202802 0.03555,6.66335 1.097563,1.178094 5.463339,2.132105 6.218274,1.358818 0.242895,-0.248799 0.599662,-1.092261 0.79282,-1.874362 0.34512,-1.397413 0.309711,-1.421998 -2.048004,-1.421998 -2.589547,0 -3.528117,-0.927532 -2.361272,-2.333496 0.836539,-1.007967 9.098624,-1.115402 9.435025,-0.122687 0.420921,1.242123 -2.474242,8.818536 -3.527396,9.230915 -1.521525,0.595779 -6.493298,0.462337 -8.240003,-0.221163 z"
       id="path1714" />
  </g>
</svg>
