<?xml version="1.0" encoding="UTF-8" standalone="no"?>
<svg
   width="64"
   height="64"
   version="1.1"
   id="svg73"
   sodipodi:docname="io.github.TransmissionRemoteGtk.svg"
   inkscape:version="1.2.2 (b0a8486541, 2022-12-01)"
   xmlns:inkscape="http://www.inkscape.org/namespaces/inkscape"
   xmlns:sodipodi="http://sodipodi.sourceforge.net/DTD/sodipodi-0.dtd"
   xmlns="http://www.w3.org/2000/svg"
   xmlns:svg="http://www.w3.org/2000/svg"
   xmlns:rdf="http://www.w3.org/1999/02/22-rdf-syntax-ns#"
   xmlns:cc="http://creativecommons.org/ns#"
   xmlns:dc="http://purl.org/dc/elements/1.1/">
  <metadata
     id="metadata77">
    <rdf:RDF>
      <cc:Work
         rdf:about="">
        <dc:format>image/svg+xml</dc:format>
        <dc:type
           rdf:resource="http://purl.org/dc/dcmitype/StillImage" />
      </cc:Work>
    </rdf:RDF>
  </metadata>
  <sodipodi:namedview
     pagecolor="#f5f7fa"
     bordercolor="#666666"
     borderopacity="1"
     objecttolerance="10"
     gridtolerance="10"
     guidetolerance="10"
     inkscape:pageopacity="0"
     inkscape:pageshadow="2"
     inkscape:window-width="1280"
     inkscape:window-height="603"
     id="namedview75"
     showgrid="false"
     inkscape:zoom="6.2890625"
     inkscape:cx="27.508075"
     inkscape:cy="37.843478"
     inkscape:window-x="35"
     inkscape:window-y="32"
     inkscape:window-maximized="0"
     inkscape:current-layer="g877"
     inkscape:document-rotation="0"
     inkscape:pagecheckerboard="0"
     inkscape:showpageshadow="2"
     inkscape:deskcolor="#d1d1d1" />
  <defs
     id="defs29">
    <filter
       style="color-interpolation-filters:sRGB;"
       inkscape:label="Blur"
       id="filter1"
       x="-0.091333304"
       y="-0.091333304"
       width="1.1826666"
       height="1.1826666">
      <feGaussianBlur
         stdDeviation="1.3 1.3"
         result="blur"
         id="feGaussianBlur1" />
    </filter>
    <filter
       style="color-interpolation-filters:sRGB"
       inkscape:label="Blur"
       id="filter1-3"
       x="-0.091333304"
       y="-0.091333304"
       width="1.1826666"
       height="1.1826666">
      <feGaussianBlur
         stdDeviation="1.3 1.3"
         result="blur"
         id="feGaussianBlur1-6" />
    </filter>
  </defs>
  <circle
     cx="32.516094"
     cy="31.877844"
     r="0"
     fill="url(#b)"
     stroke-width="1.5715"
     id="circle41"
     style="fill:url(#b)" />
  <g
     aria-label="GZ"
     transform="matrix(1.2212657,0,0,0.81882264,0.4960938,-0.1661539)"
     id="text93"
     style="font-weight:bold;font-size:11.5263px;line-height:1.25;font-family:sans-serif;-inkscape-font-specification:'sans-serif Bold';fill:#f2f2f2;stroke-width:0.288159" />
  <g
     id="g877"
     transform="matrix(1.1,0,0,1.1,-3.1845928,-3.2065454)">
    <rect
       style="fill:none;fill-opacity:1;stroke:#000000;stroke-width:2.72727;stroke-dasharray:none;stroke-opacity:1;filter:url(#filter1);opacity:0.5"
       id="rect1-5"
       width="49.090908"
       height="49.090908"
       x="7.4405394"
       y="7.4604964"
       rx="7.4768682"
       ry="7.477273" />
    <rect
       style="opacity:1;fill:#c4c2c5;stroke-width:2.72727273;stroke-opacity:1;fill-opacity:1;stroke:#1e2430;stroke-dasharray:none"
       id="rect1"
       width="49.090908"
       height="49.090908"
       x="7.4405394"
       y="7.4604964"
       rx="7.4768682"
       ry="7.477273" />
    <rect
       style="fill:#1e2430;fill-opacity:1;stroke:none;stroke-width:2.33829;stroke-dasharray:none;stroke-opacity:1"
       id="rect1-6"
       width="42.089317"
       height="42.089317"
       x="10.941335"
       y="10.961291"
       rx="5.5927272"
       ry="5.5927272" />
    <g
       style="fill:#f4e3cf;fill-opacity:1;stroke:none;stroke-width:0.386703;stroke-dasharray:none;stroke-opacity:0.6"
       transform="matrix(1.1457162,0,0,1.1457162,18.229243,18.249441)"
       id="g5">
      <g
         id="g4"
         style="fill:#f4e3cf;fill-opacity:1;stroke:none;stroke-width:0.386703;stroke-dasharray:none;stroke-opacity:0.6">
        <path
           d="m 24.013,0.001 c 0,0 -3.601,-0.101 -7.2,1.7 -1.1,0.5 -2.3,1.3 -3.3,2.3 -1.617,1.617 -4.129,4.594 -6.107,7 H 3.013 l -2,3 3.392,0.917 c 0.01,0.121 0.042,0.292 0.136,0.523 L 4.014,16.6 c 0,0 -0.2,0.4 1.3,2 1.6,1.601 2.1,1.4 2.1,1.4 l 1.243,-0.564 c 0.186,0.058 0.324,0.078 0.414,0.078 l 0.943,3.486 3,-2 v -4.527 c 2.423,-1.959 5.396,-4.421 7,-5.973 1,-1 1.8,-2.2 2.399,-3.3 1.699,-3.599 1.6,-7.199 1.6,-7.199 z m -7,9 c -1.101,0 -2,-0.9 -2,-2 0,-1.101 0.899,-2 2,-2 1.1,0 2,0.899 2,2 0,1.1 -0.901,2 -2,2 z m -10.5,12 c 0.2,0.101 0.3,0.2 0.5,0.3 -0.2,0.2 -0.4,0.5 -0.601,0.7 -2.301,2.3 -6.399,2 -6.399,2 0,0 -0.3,-4.101 2,-6.399 0.2,-0.201 0.5,-0.399 0.7,-0.601 0.1,0.2 0.199,0.3 0.3,0.5 -1.5,1.899 -1.3,4.8 -1.3,4.8 0,0 2.899,0.2 4.8,-1.3 z"
           id="path3-5"
           style="fill:#f4e3cf;fill-opacity:1;stroke:none;stroke-width:0.386703;stroke-dasharray:none;stroke-opacity:0.6" />
      </g>
    </g>
    <rect
       style="opacity:0.5;fill:none;fill-opacity:1;stroke:#000000;stroke-width:2.72727;stroke-dasharray:none;stroke-opacity:1;filter:url(#filter1-3)"
       id="rect1-5-5"
       width="49.090908"
       height="49.090908"
       x="7.4405394"
       y="7.4604964"
       rx="7.4768682"
       ry="7.477273"
       transform="matrix(0.43046721,0,0,0.43046721,34.695898,34.707264)" />
    <rect
       style="fill:#c4c2c5;fill-opacity:1;stroke:#1e2430;stroke-width:1.174;stroke-dasharray:none;stroke-opacity:1"
       id="rect1-3"
       width="21.132023"
       height="21.132023"
       x="37.898808"
       y="37.918762"
       rx="3.2185469"
       ry="3.2187209" />
    <rect
       style="fill:#1e2430;fill-opacity:1;stroke:none;stroke-width:1.00656;stroke-dasharray:none;stroke-opacity:1"
       id="rect1-6-5"
       width="18.118069"
       height="18.118069"
       x="39.405781"
       y="39.425739"
       rx="2.4074855"
       ry="2.4074855" />
    <path
       style="baseline-shift:baseline;display:inline;overflow:visible;fill:#f4e3cf;fill-opacity:1;stroke:none;stroke-width:0.368181;stroke-linecap:round;stroke-linejoin:round;stroke-dasharray:none;stroke-opacity:0.6;enable-background:accumulate;stop-color:#000000"
       d="m 48.122543,42.500992 a 1.0673289,1.0673289 0 0 0 -1.067871,1.066287 v 6.404063 a 1.0674356,1.0674356 0 0 0 0.313242,0.754629 l 3.20203,3.202034 a 1.0673289,1.0673289 0 0 0 1.509259,0 1.0673289,1.0673289 0 0 0 0,-1.509259 l -2.888792,-2.888789 v -5.962678 a 1.0673289,1.0673289 0 0 0 -1.067868,-1.066287 z"
       id="path1" />
  </g>
</svg>
