<?xml version="1.0" encoding="UTF-8" standalone="no"?>
<svg
   width="64"
   height="64"
   version="1.1"
   id="svg73"
   sodipodi:docname="1password.svg"
   inkscape:version="1.2.2 (b0a8486541, 2022-12-01)"
   xmlns:inkscape="http://www.inkscape.org/namespaces/inkscape"
   xmlns:sodipodi="http://sodipodi.sourceforge.net/DTD/sodipodi-0.dtd"
   xmlns="http://www.w3.org/2000/svg"
   xmlns:svg="http://www.w3.org/2000/svg"
   xmlns:rdf="http://www.w3.org/1999/02/22-rdf-syntax-ns#"
   xmlns:cc="http://creativecommons.org/ns#"
   xmlns:dc="http://purl.org/dc/elements/1.1/">
  <metadata
     id="metadata77">
    <rdf:RDF>
      <cc:Work
         rdf:about="">
        <dc:format>image/svg+xml</dc:format>
        <dc:type
           rdf:resource="http://purl.org/dc/dcmitype/StillImage" />
      </cc:Work>
    </rdf:RDF>
  </metadata>
  <sodipodi:namedview
     pagecolor="#f5f7fa"
     bordercolor="#666666"
     borderopacity="1"
     objecttolerance="10"
     gridtolerance="10"
     guidetolerance="10"
     inkscape:pageopacity="0"
     inkscape:pageshadow="2"
     inkscape:window-width="1280"
     inkscape:window-height="603"
     id="namedview75"
     showgrid="false"
     inkscape:zoom="6.2890625"
     inkscape:cx="48.178882"
     inkscape:cy="37.843478"
     inkscape:window-x="35"
     inkscape:window-y="32"
     inkscape:window-maximized="0"
     inkscape:current-layer="g877"
     inkscape:document-rotation="0"
     inkscape:pagecheckerboard="0"
     inkscape:showpageshadow="2"
     inkscape:deskcolor="#d1d1d1" />
  <defs
     id="defs29">
    <filter
       style="color-interpolation-filters:sRGB;"
       inkscape:label="Blur"
       id="filter1"
       x="-0.091333304"
       y="-0.091333304"
       width="1.1826666"
       height="1.1826666">
      <feGaussianBlur
         stdDeviation="1.3 1.3"
         result="blur"
         id="feGaussianBlur1" />
    </filter>
  </defs>
  <circle
     cx="32.516094"
     cy="31.877844"
     r="0"
     fill="url(#b)"
     stroke-width="1.5715"
     id="circle41"
     style="fill:url(#b)" />
  <g
     aria-label="GZ"
     transform="matrix(1.2212657,0,0,0.81882264,0.4960938,-0.1661539)"
     id="text93"
     style="font-weight:bold;font-size:11.5263px;line-height:1.25;font-family:sans-serif;-inkscape-font-specification:'sans-serif Bold';fill:#f2f2f2;stroke-width:0.288159" />
  <g
     id="g877"
     transform="matrix(1.1,0,0,1.1,-3.1845928,-3.2065454)">
    <rect
       style="fill:none;fill-opacity:1;stroke:#000000;stroke-width:2.72727;stroke-dasharray:none;stroke-opacity:1;filter:url(#filter1);opacity:0.5"
       id="rect1-5"
       width="49.090908"
       height="49.090908"
       x="7.4405394"
       y="7.4604964"
       rx="7.4768682"
       ry="7.477273" />
    <rect
       style="opacity:1;fill:#c4c2c5;stroke-width:2.72727273;stroke-opacity:1;fill-opacity:1;stroke:#1e2430;stroke-dasharray:none"
       id="rect1"
       width="49.090908"
       height="49.090908"
       x="7.4405394"
       y="7.4604964"
       rx="7.4768682"
       ry="7.477273" />
    <rect
       style="fill:#1e2430;fill-opacity:1;stroke:none;stroke-width:2.33829;stroke-dasharray:none;stroke-opacity:1"
       id="rect1-6"
       width="42.089317"
       height="42.089317"
       x="10.941335"
       y="10.961291"
       rx="5.5927272"
       ry="5.5927272" />
    <path
       style="fill:#f4e3cf;fill-opacity:1;stroke:none;stroke-width:0.446513;stroke-dasharray:none;stroke-opacity:0.6"
       d="m 31.091978,46.186435 c -3.426813,-0.229871 -6.704465,-1.716228 -9.136642,-4.143315 -2.217996,-2.213364 -3.57957,-4.960886 -4.065169,-8.203134 -0.09826,-0.656096 -0.09826,-3.028349 0,-3.684444 0.343201,-2.291493 1.058704,-4.189385 2.257171,-5.98723 1.444435,-2.166822 3.272921,-3.773682 5.580519,-4.904118 1.435136,-0.703036 2.677907,-1.090779 4.28046,-1.335489 1.077574,-0.164544 2.877786,-0.164544 3.955365,0 1.606225,0.245276 2.875022,0.640894 4.280457,1.334685 1.483263,0.732214 2.638522,1.557887 3.792466,2.71051 2.205979,2.203441 3.560023,4.942069 4.045223,8.181642 0.09825,0.656095 0.09825,3.028348 0,3.684444 -0.335874,2.242517 -1.063203,4.188301 -2.221439,5.942845 -1.978453,2.997046 -5.033913,5.15994 -8.48795,6.008433 -1.252769,0.307757 -3.075354,0.476003 -4.280461,0.395171 z m -4.127897,-8.589581 c 0.255691,-0.136209 0.250269,-0.0653 0.252083,-3.294751 l 0.0018,-3.059776 2.126686,2.12002 c 1.79554,1.789913 2.160431,2.129201 2.343417,2.179001 0.269924,0.07348 0.326642,0.07342 0.596013,-4.51e-4 0.182617,-0.05006 0.551441,-0.392924 2.343417,-2.178388 l 2.126686,-2.118958 0.0018,3.059166 c 0.0014,2.319334 0.0178,3.079956 0.06774,3.145133 0.145842,0.189998 0.290887,0.212029 1.394097,0.212029 h 1.091394 l 0.158392,-0.158392 0.158425,-0.158395 v -5.34533 -5.345366 l -0.158425,-0.158377 -0.158392,-0.158374 -0.830459,0.0012 c -0.697352,9e-4 -0.865198,0.01746 -1.047193,0.102842 -0.144953,0.06798 -1.068991,0.955809 -2.790212,2.680871 -1.415412,1.41857 -2.610244,2.579218 -2.65518,2.579218 -0.04494,0 -1.239769,-1.159802 -2.655184,-2.57734 -1.41547,-1.417536 -2.663998,-2.624464 -2.774564,-2.68206 -0.173644,-0.09049 -0.316319,-0.104756 -1.047196,-0.104756 H 24.66305 L 24.504672,26.493995 24.3463,26.65237 v 5.345372 5.34536 l 0.158372,0.158394 0.158378,0.158392 h 1.09139 c 0.725809,0 1.131033,-0.02056 1.209741,-0.06299 z"
       id="path5" />
  </g>
</svg>
