<?xml version="1.0" encoding="UTF-8" standalone="no"?>
<svg
   width="64"
   height="64"
   version="1.1"
   id="svg73"
   sodipodi:docname="accessories-calculator.svg"
   inkscape:version="1.2.2 (b0a8486541, 2022-12-01)"
   xmlns:inkscape="http://www.inkscape.org/namespaces/inkscape"
   xmlns:sodipodi="http://sodipodi.sourceforge.net/DTD/sodipodi-0.dtd"
   xmlns="http://www.w3.org/2000/svg"
   xmlns:svg="http://www.w3.org/2000/svg"
   xmlns:rdf="http://www.w3.org/1999/02/22-rdf-syntax-ns#"
   xmlns:cc="http://creativecommons.org/ns#"
   xmlns:dc="http://purl.org/dc/elements/1.1/">
  <metadata
     id="metadata77">
    <rdf:RDF>
      <cc:Work
         rdf:about="">
        <dc:format>image/svg+xml</dc:format>
        <dc:type
           rdf:resource="http://purl.org/dc/dcmitype/StillImage" />
      </cc:Work>
    </rdf:RDF>
  </metadata>
  <sodipodi:namedview
     pagecolor="#f5f7fa"
     bordercolor="#666666"
     borderopacity="1"
     objecttolerance="10"
     gridtolerance="10"
     guidetolerance="10"
     inkscape:pageopacity="0"
     inkscape:pageshadow="2"
     inkscape:window-width="1280"
     inkscape:window-height="603"
     id="namedview75"
     showgrid="false"
     inkscape:zoom="6.2890625"
     inkscape:cx="51.677019"
     inkscape:cy="37.843478"
     inkscape:window-x="35"
     inkscape:window-y="32"
     inkscape:window-maximized="0"
     inkscape:current-layer="g877"
     inkscape:document-rotation="0"
     inkscape:pagecheckerboard="0"
     inkscape:showpageshadow="2"
     inkscape:deskcolor="#d1d1d1" />
  <defs
     id="defs29">
    <filter
       style="color-interpolation-filters:sRGB;"
       inkscape:label="Blur"
       id="filter1"
       x="-0.091333304"
       y="-0.091333304"
       width="1.1826666"
       height="1.1826666">
      <feGaussianBlur
         stdDeviation="1.3 1.3"
         result="blur"
         id="feGaussianBlur1" />
    </filter>
    <filter
       style="color-interpolation-filters:sRGB"
       inkscape:label="Blur"
       id="filter1-3"
       x="-0.091333304"
       y="-0.091333304"
       width="1.1826666"
       height="1.1826666">
      <feGaussianBlur
         stdDeviation="1.3 1.3"
         result="blur"
         id="feGaussianBlur1-6" />
    </filter>
  </defs>
  <circle
     cx="32.516094"
     cy="31.877844"
     r="0"
     fill="url(#b)"
     stroke-width="1.5715"
     id="circle41"
     style="fill:url(#b)" />
  <g
     aria-label="GZ"
     transform="matrix(1.2212657,0,0,0.81882264,0.4960938,-0.1661539)"
     id="text93"
     style="font-weight:bold;font-size:11.5263px;line-height:1.25;font-family:sans-serif;-inkscape-font-specification:'sans-serif Bold';fill:#f2f2f2;stroke-width:0.288159" />
  <g
     id="g877"
     transform="matrix(1.1,0,0,1.1,-3.1845928,-3.2065454)">
    <rect
       style="fill:none;fill-opacity:1;stroke:#000000;stroke-width:2.72727;stroke-dasharray:none;stroke-opacity:1;filter:url(#filter1);opacity:0.5"
       id="rect1-5"
       width="49.090908"
       height="49.090908"
       x="7.4405394"
       y="7.4604964"
       rx="7.4768682"
       ry="7.477273" />
    <rect
       style="opacity:1;fill:#c4c2c5;stroke-width:2.72727273;stroke-opacity:1;fill-opacity:1;stroke:#1e2430;stroke-dasharray:none"
       id="rect1"
       width="49.090908"
       height="49.090908"
       x="7.4405394"
       y="7.4604964"
       rx="7.4768682"
       ry="7.477273" />
    <rect
       style="fill:#1e2430;fill-opacity:1;stroke:none;stroke-width:2.33829;stroke-dasharray:none;stroke-opacity:1"
       id="rect1-6"
       width="42.089317"
       height="42.089317"
       x="10.941335"
       y="10.961291"
       rx="5.5927272"
       ry="5.5927272" />
    <path
       fill="#f5f7fa"
       d="m 31.985999,45.684499 c -7.669159,0 -13.886235,-6.124093 -13.886235,-13.678546 0,-7.554456 6.217076,-13.67855 13.886235,-13.67855 7.669147,0 13.886226,6.124094 13.886226,13.67855 0,7.554453 -6.217079,13.678546 -13.886226,13.678546 z m 0,-24.317426 c -5.964903,0 -10.800407,4.763194 -10.800407,10.63888 0,0.41969 0.345393,0.759914 0.771457,0.759914 0.426065,0 0.771457,-0.340218 0.771457,-0.759914 0,-5.036306 4.14472,-9.119039 9.257493,-9.119039 0.426063,0 0.771457,-0.340228 0.771457,-0.759916 0,-0.419693 -0.345395,-0.759925 -0.771457,-0.759925 z m 0,16.718236 c 3.408512,0 6.171661,-2.721829 6.171661,-6.079356 0,-3.357535 -2.763149,-6.079361 -6.171661,-6.079361 -3.408515,0 -6.17166,2.721826 -6.17166,6.079361 0,3.357527 2.763145,6.079356 6.17166,6.079356 z m 0,-1.519842 c -2.556387,0 -4.628745,-2.041362 -4.628745,-4.559513 0,-2.518156 2.072358,-4.559522 4.628745,-4.559522 2.556384,0 4.628745,2.041366 4.628745,4.559522 0,2.518151 -2.072361,4.559513 -4.628745,4.559513 z m 0,-1.519842 c 1.704252,0 3.085828,-1.360904 3.085828,-3.039671 0,-1.678775 -1.381576,-3.039683 -3.085828,-3.039683 -1.704258,0 -3.085828,1.360908 -3.085828,3.039683 0,1.678767 1.38157,3.039671 3.085828,3.039671 z"
       id="path42"
       style="fill:#f4e3cf;fill-opacity:1;stroke:none;stroke-width:0.416787;stroke-dasharray:none;stroke-opacity:0.6" />
    <rect
       style="opacity:0.5;fill:none;fill-opacity:1;stroke:#000000;stroke-width:2.72727;stroke-dasharray:none;stroke-opacity:1;filter:url(#filter1-3)"
       id="rect1-5-5"
       width="49.090908"
       height="49.090908"
       x="7.4405394"
       y="7.4604964"
       rx="7.4768682"
       ry="7.477273"
       transform="matrix(0.43046721,0,0,0.43046721,34.695898,34.707264)" />
    <rect
       style="fill:#c4c2c5;fill-opacity:1;stroke:#1e2430;stroke-width:1.174;stroke-dasharray:none;stroke-opacity:1"
       id="rect1-3"
       width="21.132023"
       height="21.132023"
       x="37.898808"
       y="37.918762"
       rx="3.2185469"
       ry="3.2187209" />
    <rect
       style="fill:#1e2430;fill-opacity:1;stroke:none;stroke-width:1.00656;stroke-dasharray:none;stroke-opacity:1"
       id="rect1-6-5"
       width="18.118069"
       height="18.118069"
       x="39.405781"
       y="39.425739"
       rx="2.4074855"
       ry="2.4074855" />
    <path
       style="fill:#f4e3cf;fill-opacity:1;stroke:none;stroke-width:0.365329;stroke-dasharray:none;stroke-opacity:0.6"
       d="m 50.10393,42.24996 c -3.827506,1.5597 -6.124945,5.215644 -6.124945,7.798515 0,2.553857 2.009521,4.626074 4.50551,4.674581 -1.247265,-0.02477 -2.252054,-1.058573 -2.252054,-2.33503 0,-1.292103 1.148425,-3.119404 3.062474,-3.899257 0,2.729483 2.055067,3.124085 1.531221,4.679109 -0.297009,0.881748 -1.021496,1.550984 -2.277472,1.558173 0.0076,4.2e-5 0.01615,8.91e-4 0.02366,8.91e-4 2.53701,0 3.996422,-1.346333 4.593633,-3.119407 1.047735,-3.110152 -3.06239,-3.899206 -3.06239,-9.358166 z"
       id="path12447"
       inkscape:transform-center-x="0.15047303"
       inkscape:transform-center-y="3.5720928" />
  </g>
</svg>
