<?xml version="1.0" encoding="UTF-8" standalone="no"?>
<svg
   width="64"
   height="64"
   version="1.1"
   id="svg73"
   sodipodi:docname="1password.svg"
   inkscape:version="1.2.2 (b0a8486541, 2022-12-01)"
   xmlns:inkscape="http://www.inkscape.org/namespaces/inkscape"
   xmlns:sodipodi="http://sodipodi.sourceforge.net/DTD/sodipodi-0.dtd"
   xmlns="http://www.w3.org/2000/svg"
   xmlns:svg="http://www.w3.org/2000/svg"
   xmlns:rdf="http://www.w3.org/1999/02/22-rdf-syntax-ns#"
   xmlns:cc="http://creativecommons.org/ns#"
   xmlns:dc="http://purl.org/dc/elements/1.1/">
  <metadata
     id="metadata77">
    <rdf:RDF>
      <cc:Work
         rdf:about="">
        <dc:format>image/svg+xml</dc:format>
        <dc:type
           rdf:resource="http://purl.org/dc/dcmitype/StillImage" />
      </cc:Work>
    </rdf:RDF>
  </metadata>
  <sodipodi:namedview
     pagecolor="#f5f7fa"
     bordercolor="#666666"
     borderopacity="1"
     objecttolerance="10"
     gridtolerance="10"
     guidetolerance="10"
     inkscape:pageopacity="0"
     inkscape:pageshadow="2"
     inkscape:window-width="1280"
     inkscape:window-height="603"
     id="namedview75"
     showgrid="false"
     inkscape:zoom="6.2890625"
     inkscape:cx="48.178882"
     inkscape:cy="37.843478"
     inkscape:window-x="35"
     inkscape:window-y="32"
     inkscape:window-maximized="0"
     inkscape:current-layer="g877"
     inkscape:document-rotation="0"
     inkscape:pagecheckerboard="0"
     inkscape:showpageshadow="2"
     inkscape:deskcolor="#d1d1d1" />
  <defs
     id="defs29">
    <filter
       style="color-interpolation-filters:sRGB;"
       inkscape:label="Blur"
       id="filter1"
       x="-0.091333304"
       y="-0.091333304"
       width="1.1826666"
       height="1.1826666">
      <feGaussianBlur
         stdDeviation="1.3 1.3"
         result="blur"
         id="feGaussianBlur1" />
    </filter>
  </defs>
  <circle
     cx="32.516094"
     cy="31.877844"
     r="0"
     fill="url(#b)"
     stroke-width="1.5715"
     id="circle41"
     style="fill:url(#b)" />
  <g
     aria-label="GZ"
     transform="matrix(1.2212657,0,0,0.81882264,0.4960938,-0.1661539)"
     id="text93"
     style="font-weight:bold;font-size:11.5263px;line-height:1.25;font-family:sans-serif;-inkscape-font-specification:'sans-serif Bold';fill:#f2f2f2;stroke-width:0.288159" />
  <g
     id="g877"
     transform="matrix(1.1,0,0,1.1,-3.1845928,-3.2065454)">
    <rect
       style="fill:none;fill-opacity:1;stroke:#000000;stroke-width:2.72727;stroke-dasharray:none;stroke-opacity:1;filter:url(#filter1);opacity:0.5"
       id="rect1-5"
       width="49.090908"
       height="49.090908"
       x="7.4405394"
       y="7.4604964"
       rx="7.4768682"
       ry="7.477273" />
    <rect
       style="opacity:1;fill:#c4c2c5;stroke-width:2.72727273;stroke-opacity:1;fill-opacity:1;stroke:#1e2430;stroke-dasharray:none"
       id="rect1"
       width="49.090908"
       height="49.090908"
       x="7.4405394"
       y="7.4604964"
       rx="7.4768682"
       ry="7.477273" />
    <rect
       style="fill:#1e2430;fill-opacity:1;stroke:none;stroke-width:2.33829;stroke-dasharray:none;stroke-opacity:1"
       id="rect1-6"
       width="42.089317"
       height="42.089317"
       x="10.941335"
       y="10.961291"
       rx="5.5927272"
       ry="5.5927272" />
    <path
       id="path8"
       style="fill:#f4e3cf;fill-opacity:1;stroke:none;stroke-width:0.39694;stroke-dasharray:none;stroke-opacity:0.6"
       d="m 31.842699,18.006029 c -0.280218,0.0091 -0.461103,0.09031 -0.692181,0.284749 -0.538003,0.452699 -0.536442,0.436952 -0.538363,4.401209 l -0.0018,3.561621 0.330526,-0.0595 c 0.411975,-0.07385 1.711281,-0.07712 2.102179,-0.0054 l 0.291155,0.0531 V 22.62527 c 0,-3.44971 -0.007,-3.63101 -0.153812,-3.918698 -0.206188,-0.404086 -0.56015,-0.642577 -1.019076,-0.686675 -0.120999,-0.01163 -0.225217,-0.01679 -0.318623,-0.01373 z m 0.05219,8.770377 c -0.911129,-0.0012 -1.685025,0.218553 -2.529756,0.717818 -1.651498,0.976088 -2.575207,2.583595 -2.573707,4.478118 8.91e-4,0.937162 0.131233,1.486617 0.563084,2.373193 0.641212,1.316392 2.083144,2.456649 3.489289,2.758656 1.734343,0.372495 3.544609,-0.161795 4.812307,-1.420988 0.436339,-0.433407 0.690171,-0.769049 0.922911,-1.220473 0.494547,-0.959229 0.60322,-1.407369 0.601541,-2.490388 -0.0017,-1.051725 -0.07203,-1.367567 -0.498999,-2.256915 -0.50327,-1.048274 -1.300196,-1.846578 -2.374108,-2.376853 -0.838336,-0.413954 -1.469179,-0.560996 -2.412562,-0.562168 z m -1.245194,2.657023 0.0201,2.396997 c 0.01132,1.318279 0.0042,2.441043 -0.01648,2.494966 -0.02069,0.05392 -0.07007,0.09796 -0.108955,0.09796 -0.03888,0 -0.451091,-0.266674 -0.916499,-0.592382 -1.819057,-1.273088 -2.363984,-1.693496 -2.363984,-1.82567 0,-0.139278 0.577365,-0.590552 2.374109,-1.857719 z m 2.712874,0.120854 c 0.308192,0.05955 3.305918,2.211082 3.376669,2.433623 0.02907,0.09191 -0.989604,0.877928 -2.482144,1.914486 -0.745306,0.51761 -0.84891,0.569326 -0.948543,0.469692 -0.09294,-0.09293 -0.06103,-4.758804 0.03297,-4.816884 0.0042,-0.0025 0.01111,-0.0028 0.02102,-9.9e-4 z m -2.756822,8.197224 0.02199,3.653178 0.02199,3.654093 0.218826,0.330529 c 0.137849,0.208242 0.339969,0.385866 0.544774,0.478849 0.535082,0.242938 1.074573,0.163526 1.475004,-0.216963 0.458588,-0.435794 0.445889,-0.319452 0.445889,-4.267539 v -3.631203 l -0.344259,0.05127 c -0.444264,0.06664 -1.591931,0.06673 -2.037174,0 z" />
  </g>
</svg>
