<?xml version="1.0" encoding="UTF-8" standalone="no"?>
<svg
   width="64"
   height="64"
   version="1.1"
   id="svg73"
   sodipodi:docname="1password.svg"
   inkscape:version="1.2.2 (b0a8486541, 2022-12-01)"
   xmlns:inkscape="http://www.inkscape.org/namespaces/inkscape"
   xmlns:sodipodi="http://sodipodi.sourceforge.net/DTD/sodipodi-0.dtd"
   xmlns="http://www.w3.org/2000/svg"
   xmlns:svg="http://www.w3.org/2000/svg"
   xmlns:rdf="http://www.w3.org/1999/02/22-rdf-syntax-ns#"
   xmlns:cc="http://creativecommons.org/ns#"
   xmlns:dc="http://purl.org/dc/elements/1.1/">
  <metadata
     id="metadata77">
    <rdf:RDF>
      <cc:Work
         rdf:about="">
        <dc:format>image/svg+xml</dc:format>
        <dc:type
           rdf:resource="http://purl.org/dc/dcmitype/StillImage" />
      </cc:Work>
    </rdf:RDF>
  </metadata>
  <sodipodi:namedview
     pagecolor="#f5f7fa"
     bordercolor="#666666"
     borderopacity="1"
     objecttolerance="10"
     gridtolerance="10"
     guidetolerance="10"
     inkscape:pageopacity="0"
     inkscape:pageshadow="2"
     inkscape:window-width="1280"
     inkscape:window-height="603"
     id="namedview75"
     showgrid="false"
     inkscape:zoom="6.2890625"
     inkscape:cx="48.178882"
     inkscape:cy="37.843478"
     inkscape:window-x="35"
     inkscape:window-y="32"
     inkscape:window-maximized="0"
     inkscape:current-layer="g877"
     inkscape:document-rotation="0"
     inkscape:pagecheckerboard="0"
     inkscape:showpageshadow="2"
     inkscape:deskcolor="#d1d1d1" />
  <defs
     id="defs29">
    <filter
       style="color-interpolation-filters:sRGB;"
       inkscape:label="Blur"
       id="filter1"
       x="-0.091333304"
       y="-0.091333304"
       width="1.1826666"
       height="1.1826666">
      <feGaussianBlur
         stdDeviation="1.3 1.3"
         result="blur"
         id="feGaussianBlur1" />
    </filter>
  </defs>
  <circle
     cx="32.516094"
     cy="31.877844"
     r="0"
     fill="url(#b)"
     stroke-width="1.5715"
     id="circle41"
     style="fill:url(#b)" />
  <g
     aria-label="GZ"
     transform="matrix(1.2212657,0,0,0.81882264,0.4960938,-0.1661539)"
     id="text93"
     style="font-weight:bold;font-size:11.5263px;line-height:1.25;font-family:sans-serif;-inkscape-font-specification:'sans-serif Bold';fill:#f2f2f2;stroke-width:0.288159" />
  <g
     id="g877"
     transform="matrix(1.1,0,0,1.1,-3.1845928,-3.2065454)">
    <rect
       style="fill:none;fill-opacity:1;stroke:#000000;stroke-width:2.72727;stroke-dasharray:none;stroke-opacity:1;filter:url(#filter1);opacity:0.5"
       id="rect1-5"
       width="49.090908"
       height="49.090908"
       x="7.4405394"
       y="7.4604964"
       rx="7.4768682"
       ry="7.477273" />
    <rect
       style="opacity:1;fill:#c4c2c5;stroke-width:2.72727273;stroke-opacity:1;fill-opacity:1;stroke:#1e2430;stroke-dasharray:none"
       id="rect1"
       width="49.090908"
       height="49.090908"
       x="7.4405394"
       y="7.4604964"
       rx="7.4768682"
       ry="7.477273" />
    <rect
       style="fill:#1e2430;fill-opacity:1;stroke:none;stroke-width:2.33829;stroke-dasharray:none;stroke-opacity:1"
       id="rect1-6"
       width="42.089317"
       height="42.089317"
       x="10.941335"
       y="10.961291"
       rx="5.5927272"
       ry="5.5927272" />
    <path
       style="fill:#f4e3cf;fill-opacity:1;stroke:none;stroke-width:0.46415;stroke-dasharray:none;stroke-opacity:0.6"
       d="m 18.659527,17.595108 0.969137,0.748449 c -3.074004,1.457928 4.820612,8.11439 4.820612,8.11439 0,0 1.53642,-1.422772 3.787462,-1.572548 2.232785,-2.353876 11.525404,-0.562342 11.177242,1.369474 -3.123696,0.05019 -4.112996,-0.360396 -4.112996,-0.360396 0,0 0.1542,0.182971 0.217874,0.81087 -0.228289,0.193423 -3.458432,-0.551158 -4.133726,-0.498121 -1.921485,0.151078 -3.218318,0.201002 -4.596826,0.357939 0.948355,0.321739 8.505406,1.706271 10.921763,4.10934 -0.644562,0.255634 -0.926454,0.150559 -1.141676,0.232112 -0.189274,0.07162 -0.380734,0.468455 -0.796059,0.470362 -0.297585,0.0011 -0.19587,-0.271056 -0.810444,-0.569951 -3.823916,0.156307 -5.063685,-2.243784 -5.441041,-2.538099 -1.688093,-0.414482 -4.531965,-1.351703 -4.531965,-1.351703 0,0 2.407897,1.976725 3.728099,3.073863 0.109791,0.09122 1.919714,0.437322 4.22059,1.59186 1.236786,-1.041566 4.571022,0.72584 3.951484,2.344286 -0.551857,1.441616 -4.254425,-0.04391 -4.118304,-2.004981 -0.845251,-0.270795 -2.40667,-1.047371 -3.40564,-1.417857 0.957735,0.768394 4.720451,3.993651 5.4765,4.905912 3.312184,-0.418479 8.312436,0.431913 11.414145,2.476992 -0.707364,0.192114 -4.073214,0.849762 -4.747406,0.664676 -1.252754,-0.487435 -3.119869,-2.066462 -3.318811,-2.243419 -0.719603,-0.124959 -2.334728,-0.363585 -2.955141,-0.436173 0.629271,0.656887 2.70744,3.126923 3.359959,4.165952 0.270288,-0.05881 1.648762,0.282093 2.030778,0.549175 1.415247,-1.485557 3.710019,1.121129 5.12065,2.380063 -0.37058,0.774016 -6.190992,-0.41725 -5.413107,-2.151719 -0.41594,-0.05696 -1.248399,-0.52724 -1.555361,-0.552204 0.313764,0.422767 0.998097,0.996582 1.899983,1.969802 0.867505,-0.253799 4.137371,3.38666 4.225113,4.183338 -2.446933,-0.613317 -3.655439,-1.146958 -4.034278,-1.602164 -0.747738,-0.898507 -0.464644,-2.188654 -0.393406,-2.423171 -0.962235,-0.884628 -1.141506,-1.147685 -1.456227,-1.323257 -0.0079,0.01055 9e-4,0.272521 0.01593,0.400493 1.580668,1.198818 0.816904,4.516816 -0.09185,4.634464 -0.395505,0.05125 -1.307137,-4.681175 -0.168796,-4.857506 0.02614,-0.09384 0.0412,-0.373228 0.04267,-0.384262 -0.600742,-0.672803 -3.932384,-4.316933 -4.149034,-4.470414 0.10791,0.287576 0.284825,0.760472 0.447199,1.344246 1.967364,1.322745 2.292878,3.43923 2.144595,5.925137 -0.4718,-0.849607 -5.093798,-4.720461 -3.072337,-6.436404 0.01423,-0.264616 -0.06242,-0.865262 0.107832,-1.202893 -0.641203,-0.659082 -2.637279,-2.686206 -2.81639,-2.684556 0.222929,0.470126 0.361362,0.738518 0.47193,1.246886 1.521498,0.781202 1.079516,2.79912 0.386498,2.841957 -0.730106,0.04523 -2.348172,-2.2707 -0.826276,-2.761818 -0.122947,-0.58307 -0.346559,-1.375539 -0.436713,-1.719811 -0.658493,-0.518089 -2.839326,-2.311271 -3.342585,-2.729278 0.6188,1.05929 1.22326,2.708107 1.525532,3.653487 1.823075,2.124747 1.318766,5.411377 1.134432,8.801438 -2.138934,-1.633631 -3.466894,-7.208976 -2.106338,-8.596801 -0.454192,-1.612119 -1.140696,-4.339961 -1.140696,-4.339961 -2.940843,-2.348231 -4.567867,-4.108243 -4.567867,-4.108243 0,0 1.959436,2.613878 2.182613,4.01506 1.716076,0.342282 3.149718,3.417664 1.785203,3.942498 -1.994464,0.767114 -4.135363,-2.488073 -2.433908,-3.700481 0,0 -1.506569,-2.854902 -2.672747,-5.35884 -4.599892,-5.194298 -4.157732,-6.753774 -2.778022,-6.927411 z"
       id="path8" />
  </g>
</svg>
