<?xml version="1.0" encoding="UTF-8" standalone="no"?>
<svg
   width="64"
   height="64"
   version="1.1"
   id="svg73"
   sodipodi:docname="1password.svg"
   inkscape:version="1.2.2 (b0a8486541, 2022-12-01)"
   xmlns:inkscape="http://www.inkscape.org/namespaces/inkscape"
   xmlns:sodipodi="http://sodipodi.sourceforge.net/DTD/sodipodi-0.dtd"
   xmlns="http://www.w3.org/2000/svg"
   xmlns:svg="http://www.w3.org/2000/svg"
   xmlns:rdf="http://www.w3.org/1999/02/22-rdf-syntax-ns#"
   xmlns:cc="http://creativecommons.org/ns#"
   xmlns:dc="http://purl.org/dc/elements/1.1/">
  <metadata
     id="metadata77">
    <rdf:RDF>
      <cc:Work
         rdf:about="">
        <dc:format>image/svg+xml</dc:format>
        <dc:type
           rdf:resource="http://purl.org/dc/dcmitype/StillImage" />
      </cc:Work>
    </rdf:RDF>
  </metadata>
  <sodipodi:namedview
     pagecolor="#f5f7fa"
     bordercolor="#666666"
     borderopacity="1"
     objecttolerance="10"
     gridtolerance="10"
     guidetolerance="10"
     inkscape:pageopacity="0"
     inkscape:pageshadow="2"
     inkscape:window-width="1280"
     inkscape:window-height="603"
     id="namedview75"
     showgrid="false"
     inkscape:zoom="4.4470387"
     inkscape:cx="32.15623"
     inkscape:cy="31.031886"
     inkscape:window-x="35"
     inkscape:window-y="32"
     inkscape:window-maximized="0"
     inkscape:current-layer="g877"
     inkscape:document-rotation="0"
     inkscape:pagecheckerboard="0"
     inkscape:showpageshadow="2"
     inkscape:deskcolor="#d1d1d1" />
  <defs
     id="defs29">
    <filter
       style="color-interpolation-filters:sRGB;"
       inkscape:label="Blur"
       id="filter1"
       x="-0.091333304"
       y="-0.091333304"
       width="1.1826666"
       height="1.1826666">
      <feGaussianBlur
         stdDeviation="1.3 1.3"
         result="blur"
         id="feGaussianBlur1" />
    </filter>
  </defs>
  <circle
     cx="32.516094"
     cy="31.877844"
     r="0"
     fill="url(#b)"
     stroke-width="1.5715"
     id="circle41"
     style="fill:url(#b)" />
  <g
     aria-label="GZ"
     transform="matrix(1.2212657,0,0,0.81882264,0.4960938,-0.1661539)"
     id="text93"
     style="font-weight:bold;font-size:11.5263px;line-height:1.25;font-family:sans-serif;-inkscape-font-specification:'sans-serif Bold';fill:#f2f2f2;stroke-width:0.288159" />
  <g
     id="g877"
     transform="matrix(1.1,0,0,1.1,-3.1845928,-3.2065454)">
    <rect
       style="fill:none;fill-opacity:1;stroke:#000000;stroke-width:2.72727;stroke-dasharray:none;stroke-opacity:1;filter:url(#filter1);opacity:0.5"
       id="rect1-5"
       width="49.090908"
       height="49.090908"
       x="7.4405394"
       y="7.4604964"
       rx="7.4768682"
       ry="7.477273" />
    <rect
       style="opacity:1;fill:#c4c2c5;stroke-width:2.72727273;stroke-opacity:1;fill-opacity:1;stroke:#1e2430;stroke-dasharray:none"
       id="rect1"
       width="49.090908"
       height="49.090908"
       x="7.4405394"
       y="7.4604964"
       rx="7.4768682"
       ry="7.477273" />
    <rect
       style="fill:#1e2430;fill-opacity:1;stroke:none;stroke-width:2.33829;stroke-dasharray:none;stroke-opacity:1"
       id="rect1-6"
       width="42.089317"
       height="42.089317"
       x="10.941335"
       y="10.961291"
       rx="5.5927272"
       ry="5.5927272" />
    <path
       id="path5854"
       style="fill:#f4e3cf;fill-opacity:1;stroke:none;stroke-width:0.468838;stroke-linecap:square;stroke-dasharray:none;stroke-opacity:0.6"
       d="m 38.124833,17.915451 c -0.189927,6.5e-5 -0.439414,0.149981 -0.922542,0.523356 -0.44771,0.345995 -1.047467,0.869436 -1.33242,1.164199 l -0.518016,0.536705 0.871812,1.267 c 0.780228,1.132656 2.126797,3.552462 2.126797,3.822362 0,0.05723 -0.370327,0.223967 -0.823748,0.371156 -1.427653,0.463436 -2.71549,1.428396 -3.57537,2.67819 -1.236403,1.797049 -1.445755,4.394638 -0.51401,6.385735 0.827426,1.768169 2.164482,2.96145 4.047998,3.612755 0.995679,0.344305 2.74414,0.359596 3.859737,0.03332 1.702952,-0.49797 3.345244,-1.908719 4.114749,-3.535318 0.597036,-1.262049 0.770015,-2.596456 0.587442,-4.512611 -0.251628,-2.641009 -1.137219,-4.81562 -2.951885,-7.248213 -0.907024,-1.215887 -4.289688,-4.780682 -4.794307,-5.051982 -0.05641,-0.03036 -0.112926,-0.04674 -0.176237,-0.04674 z m -13.240082,7.465822 c -0.214699,-9e-4 -0.452862,0.0051 -0.722284,0.01737 -1.882082,0.0864 -3.09897,0.641021 -4.396452,2.001294 -1.599555,1.676965 -2.124611,3.484393 -1.834413,6.312305 0.375228,3.656482 1.894508,6.399469 5.662118,10.225452 1.16941,1.187528 2.201171,2.158842 2.293684,2.158842 0.325573,0 2.735852,-2.213562 2.618111,-2.404495 -0.06297,-0.102135 -0.49278,-0.750974 -0.955924,-1.441898 -0.988322,-1.474392 -1.980927,-3.462595 -1.841088,-3.688856 0.0539,-0.08722 0.225799,-0.15887 0.381835,-0.15887 0.156032,0 0.778699,-0.247665 1.383152,-0.550057 1.357745,-0.679259 2.399473,-1.757466 3.074713,-3.182859 0.463369,-0.978154 0.500658,-1.177286 0.500658,-2.704894 0,-1.525393 -0.03692,-1.72783 -0.496654,-2.698215 -0.844668,-1.78291 -2.294331,-3.074422 -4.112076,-3.662152 -0.473086,-0.152963 -0.911288,-0.21982 -1.55538,-0.22296 z" />
  </g>
</svg>
