<?xml version="1.0" encoding="UTF-8" standalone="no"?>
<svg
   width="64"
   height="64"
   version="1.1"
   id="svg73"
   sodipodi:docname="1password.svg"
   inkscape:version="1.2.2 (b0a8486541, 2022-12-01)"
   xmlns:inkscape="http://www.inkscape.org/namespaces/inkscape"
   xmlns:sodipodi="http://sodipodi.sourceforge.net/DTD/sodipodi-0.dtd"
   xmlns="http://www.w3.org/2000/svg"
   xmlns:svg="http://www.w3.org/2000/svg"
   xmlns:rdf="http://www.w3.org/1999/02/22-rdf-syntax-ns#"
   xmlns:cc="http://creativecommons.org/ns#"
   xmlns:dc="http://purl.org/dc/elements/1.1/">
  <metadata
     id="metadata77">
    <rdf:RDF>
      <cc:Work
         rdf:about="">
        <dc:format>image/svg+xml</dc:format>
        <dc:type
           rdf:resource="http://purl.org/dc/dcmitype/StillImage" />
      </cc:Work>
    </rdf:RDF>
  </metadata>
  <sodipodi:namedview
     pagecolor="#f5f7fa"
     bordercolor="#666666"
     borderopacity="1"
     objecttolerance="10"
     gridtolerance="10"
     guidetolerance="10"
     inkscape:pageopacity="0"
     inkscape:pageshadow="2"
     inkscape:window-width="1280"
     inkscape:window-height="603"
     id="namedview75"
     showgrid="false"
     inkscape:zoom="6.2890625"
     inkscape:cx="45.952795"
     inkscape:cy="37.843478"
     inkscape:window-x="35"
     inkscape:window-y="32"
     inkscape:window-maximized="0"
     inkscape:current-layer="g877"
     inkscape:document-rotation="0"
     inkscape:pagecheckerboard="0"
     inkscape:showpageshadow="2"
     inkscape:deskcolor="#d1d1d1" />
  <defs
     id="defs29">
    <filter
       style="color-interpolation-filters:sRGB;"
       inkscape:label="Blur"
       id="filter1"
       x="-0.091333304"
       y="-0.091333304"
       width="1.1826666"
       height="1.1826666">
      <feGaussianBlur
         stdDeviation="1.3 1.3"
         result="blur"
         id="feGaussianBlur1" />
    </filter>
  </defs>
  <circle
     cx="32.516094"
     cy="31.877844"
     r="0"
     fill="url(#b)"
     stroke-width="1.5715"
     id="circle41"
     style="fill:url(#b)" />
  <g
     aria-label="GZ"
     transform="matrix(1.2212657,0,0,0.81882264,0.4960938,-0.1661539)"
     id="text93"
     style="font-weight:bold;font-size:11.5263px;line-height:1.25;font-family:sans-serif;-inkscape-font-specification:'sans-serif Bold';fill:#f2f2f2;stroke-width:0.288159" />
  <g
     id="g877"
     transform="matrix(1.1,0,0,1.1,-3.1845928,-3.2065454)">
    <rect
       style="fill:none;fill-opacity:1;stroke:#000000;stroke-width:2.72727;stroke-dasharray:none;stroke-opacity:1;filter:url(#filter1);opacity:0.5"
       id="rect1-5"
       width="49.090908"
       height="49.090908"
       x="7.4405394"
       y="7.4604964"
       rx="7.4768682"
       ry="7.477273" />
    <rect
       style="opacity:1;fill:#c4c2c5;stroke-width:2.72727273;stroke-opacity:1;fill-opacity:1;stroke:#1e2430;stroke-dasharray:none"
       id="rect1"
       width="49.090908"
       height="49.090908"
       x="7.4405394"
       y="7.4604964"
       rx="7.4768682"
       ry="7.477273" />
    <rect
       style="fill:#1e2430;fill-opacity:1;stroke:none;stroke-width:2.33829;stroke-dasharray:none;stroke-opacity:1"
       id="rect1-6"
       width="42.089317"
       height="42.089317"
       x="10.941335"
       y="10.961291"
       rx="5.5927272"
       ry="5.5927272" />
    <path
       style="fill:#f4e3cf;fill-opacity:1;stroke:none;stroke-width:0.443052;stroke-dasharray:none;stroke-opacity:0.6"
       d="m 21.049508,45.714016 c -0.591781,-0.239395 -1.089484,-1.010969 -1.191794,-1.84761 -0.05331,-0.435627 -0.07519,-3.366781 -0.04869,-6.513691 0.044,-5.22393 0.07186,-5.756531 0.320496,-6.122734 0.404763,-0.596175 1.135511,-0.878746 2.272484,-0.878746 h 0.993593 l 0.0018,-3.049035 c 0.0023,-4.08055 0.317101,-5.210018 1.907164,-6.844511 1.462971,-1.503852 3.768006,-2.297361 6.673515,-2.297361 2.723477,0 4.836763,0.666832 6.254334,1.973503 0.990392,0.912912 1.503328,1.717333 1.967459,3.085483 0.366637,1.080773 0.408395,1.444659 0.477144,4.158171 l 0.07539,2.97375 0.995731,5.64e-4 c 0.732941,4.13e-4 1.127249,0.08075 1.494128,0.304434 0.915252,0.558009 0.932,0.692102 0.932,7.459382 0,6.772003 -0.0137,6.879378 -0.966653,7.460358 -0.442621,0.269938 -0.951063,0.28239 -11.154197,0.273834 -5.879754,-0.005 -10.831493,-0.06607 -11.003872,-0.135761 z M 37.248026,27.64663 c 0,-2.362072 -0.03924,-2.809582 -0.31013,-3.533503 -0.379886,-1.015327 -1.331864,-1.908568 -2.449737,-2.298586 -0.939052,-0.327634 -3.747406,-0.376073 -4.717024,-0.08138 -1.129623,0.343338 -2.032477,1.076596 -2.532607,2.056872 -0.451664,0.885285 -0.455463,0.913374 -0.504468,3.726598 l -0.04937,2.834586 h 5.281671 5.281665 z"
       id="path53" />
  </g>
</svg>
