<?xml version="1.0" encoding="UTF-8" standalone="no"?>
<svg
   width="64"
   height="64"
   version="1.1"
   id="svg73"
   sodipodi:docname="1password.svg"
   inkscape:version="1.2.2 (b0a8486541, 2022-12-01)"
   xmlns:inkscape="http://www.inkscape.org/namespaces/inkscape"
   xmlns:sodipodi="http://sodipodi.sourceforge.net/DTD/sodipodi-0.dtd"
   xmlns="http://www.w3.org/2000/svg"
   xmlns:svg="http://www.w3.org/2000/svg"
   xmlns:rdf="http://www.w3.org/1999/02/22-rdf-syntax-ns#"
   xmlns:cc="http://creativecommons.org/ns#"
   xmlns:dc="http://purl.org/dc/elements/1.1/">
  <metadata
     id="metadata77">
    <rdf:RDF>
      <cc:Work
         rdf:about="">
        <dc:format>image/svg+xml</dc:format>
        <dc:type
           rdf:resource="http://purl.org/dc/dcmitype/StillImage" />
      </cc:Work>
    </rdf:RDF>
  </metadata>
  <sodipodi:namedview
     pagecolor="#f5f7fa"
     bordercolor="#666666"
     borderopacity="1"
     objecttolerance="10"
     gridtolerance="10"
     guidetolerance="10"
     inkscape:pageopacity="0"
     inkscape:pageshadow="2"
     inkscape:window-width="1280"
     inkscape:window-height="603"
     id="namedview75"
     showgrid="false"
     inkscape:zoom="6.2890625"
     inkscape:cx="45.952795"
     inkscape:cy="37.843478"
     inkscape:window-x="35"
     inkscape:window-y="32"
     inkscape:window-maximized="0"
     inkscape:current-layer="g877"
     inkscape:document-rotation="0"
     inkscape:pagecheckerboard="0"
     inkscape:showpageshadow="2"
     inkscape:deskcolor="#d1d1d1" />
  <defs
     id="defs29">
    <filter
       style="color-interpolation-filters:sRGB;"
       inkscape:label="Blur"
       id="filter1"
       x="-0.091333304"
       y="-0.091333304"
       width="1.1826666"
       height="1.1826666">
      <feGaussianBlur
         stdDeviation="1.3 1.3"
         result="blur"
         id="feGaussianBlur1" />
    </filter>
    <clipPath
       id="clip0_2648_607">
      <rect
         width="16"
         height="16"
         fill="#ffffff"
         id="rect1-3"
         x="0"
         y="0" />
    </clipPath>
  </defs>
  <circle
     cx="32.516094"
     cy="31.877844"
     r="0"
     fill="url(#b)"
     stroke-width="1.5715"
     id="circle41"
     style="fill:url(#b)" />
  <g
     aria-label="GZ"
     transform="matrix(1.2212657,0,0,0.81882264,0.4960938,-0.1661539)"
     id="text93"
     style="font-weight:bold;font-size:11.5263px;line-height:1.25;font-family:sans-serif;-inkscape-font-specification:'sans-serif Bold';fill:#f2f2f2;stroke-width:0.288159" />
  <g
     id="g877"
     transform="matrix(1.1,0,0,1.1,-3.1845928,-3.2065454)">
    <rect
       style="fill:none;fill-opacity:1;stroke:#000000;stroke-width:2.72727;stroke-dasharray:none;stroke-opacity:1;filter:url(#filter1);opacity:0.5"
       id="rect1-5"
       width="49.090908"
       height="49.090908"
       x="7.4405394"
       y="7.4604964"
       rx="7.4768682"
       ry="7.477273" />
    <rect
       style="opacity:1;fill:#c4c2c5;stroke-width:2.72727273;stroke-opacity:1;fill-opacity:1;stroke:#1e2430;stroke-dasharray:none"
       id="rect1"
       width="49.090908"
       height="49.090908"
       x="7.4405394"
       y="7.4604964"
       rx="7.4768682"
       ry="7.477273" />
    <rect
       style="fill:#1e2430;fill-opacity:1;stroke:none;stroke-width:2.33829;stroke-dasharray:none;stroke-opacity:1"
       id="rect1-6"
       width="42.089317"
       height="42.089317"
       x="10.941335"
       y="10.961291"
       rx="5.5927272"
       ry="5.5927272" />
    <g
       fill-rule="nonzero"
       id="g8"
       transform="matrix(0.77808276,0,0,0.77808276,13.385147,13.543992)"
       style="fill:#f4e3cf;fill-opacity:1;stroke:none;stroke-width:0.578345;stroke-dasharray:none;stroke-opacity:0.6">
      <path
         d="M 32.813,25.313 H 15.187 c -0.621,0 -1.125,0.503 -1.125,1.125 v 12.205 c 0,0.621 0.504,1.125 1.125,1.125 h 17.626 c 0.621,0 1.124,-0.504 1.124,-1.125 V 26.437 c 0,-0.621 -0.503,-1.125 -1.125,-1.125 z"
         fill="#ededed"
         id="path3-3-3"
         style="fill:#f4e3cf;fill-opacity:1;stroke:none;stroke-width:0.578345;stroke-dasharray:none;stroke-opacity:0.6" />
      <path
         d="m 14.063,26.438 c -0.001,-0.622 0.503,-1.125 1.124,-1.125 h 17.626 c 0.621,0 1.124,0.503 1.124,1.125 v 2.444 H 14.062 v -2.444 z"
         fill="#ffa700"
         id="path4"
         style="fill:#f4e3cf;fill-opacity:1;stroke:none;stroke-width:0.578345;stroke-dasharray:none;stroke-opacity:0.6" />
      <path
         d="M 24.75,7.688 H 7.125 C 6.504,7.688 6,8.191 6,8.813 V 21 c 0,0.621 0.504,1.125 1.125,1.125 H 24.75 c 0.621,0 1.125,-0.504 1.125,-1.125 V 8.812 c 0,-0.621 -0.504,-1.124 -1.125,-1.124 z"
         fill="#ededed"
         id="path5"
         style="fill:#f4e3cf;fill-opacity:1;stroke:none;stroke-width:0.578345;stroke-dasharray:none;stroke-opacity:0.6" />
      <path
         d="M 6,8.813 C 6,8.191 6.504,7.687 7.125,7.687 H 24.75 c 0.621,0 1.125,0.504 1.125,1.125 v 2.457 H 6 V 8.812 Z"
         fill="#ffa700"
         id="path6"
         style="fill:#f4e3cf;fill-opacity:1;stroke:none;stroke-width:0.578345;stroke-dasharray:none;stroke-opacity:0.6" />
      <path
         d="M 41.063,10.5 H 30 c -0.414,0 -0.75,0.336 -0.75,0.75 v 7.5 c 0,0.414 0.336,0.75 0.75,0.75 h 11.063 c 0.414,0 0.749,-0.336 0.749,-0.75 v -7.5 c 0,-0.414 -0.335,-0.75 -0.75,-0.75 z"
         fill="#ededed"
         id="path7"
         style="fill:#f4e3cf;fill-opacity:1;stroke:none;stroke-width:0.578345;stroke-dasharray:none;stroke-opacity:0.6" />
      <path
         d="m 29.25,11.25 c 0,-0.414 0.336,-0.75 0.75,-0.75 h 11.063 c 0.414,0 0.749,0.336 0.749,0.75 v 1.5 H 29.25 Z"
         fill="#ffa700"
         id="path8-3"
         style="fill:#f4e3cf;fill-opacity:1;stroke:none;stroke-width:0.578345;stroke-dasharray:none;stroke-opacity:0.6" />
    </g>
  </g>
</svg>
