<?xml version="1.0" encoding="UTF-8" standalone="no"?>
<svg
   width="64"
   height="64"
   version="1.1"
   id="svg73"
   sodipodi:docname="1password.svg"
   inkscape:version="1.2.2 (b0a8486541, 2022-12-01)"
   xmlns:inkscape="http://www.inkscape.org/namespaces/inkscape"
   xmlns:sodipodi="http://sodipodi.sourceforge.net/DTD/sodipodi-0.dtd"
   xmlns="http://www.w3.org/2000/svg"
   xmlns:svg="http://www.w3.org/2000/svg"
   xmlns:rdf="http://www.w3.org/1999/02/22-rdf-syntax-ns#"
   xmlns:cc="http://creativecommons.org/ns#"
   xmlns:dc="http://purl.org/dc/elements/1.1/">
  <metadata
     id="metadata77">
    <rdf:RDF>
      <cc:Work
         rdf:about="">
        <dc:format>image/svg+xml</dc:format>
        <dc:type
           rdf:resource="http://purl.org/dc/dcmitype/StillImage" />
      </cc:Work>
    </rdf:RDF>
  </metadata>
  <sodipodi:namedview
     pagecolor="#f5f7fa"
     bordercolor="#666666"
     borderopacity="1"
     objecttolerance="10"
     gridtolerance="10"
     guidetolerance="10"
     inkscape:pageopacity="0"
     inkscape:pageshadow="2"
     inkscape:window-width="1280"
     inkscape:window-height="603"
     id="namedview75"
     showgrid="false"
     inkscape:zoom="6.2890625"
     inkscape:cx="48.178882"
     inkscape:cy="37.843478"
     inkscape:window-x="35"
     inkscape:window-y="32"
     inkscape:window-maximized="0"
     inkscape:current-layer="g877"
     inkscape:document-rotation="0"
     inkscape:pagecheckerboard="0"
     inkscape:showpageshadow="2"
     inkscape:deskcolor="#d1d1d1" />
  <defs
     id="defs29">
    <filter
       style="color-interpolation-filters:sRGB;"
       inkscape:label="Blur"
       id="filter1"
       x="-0.091333304"
       y="-0.091333304"
       width="1.1826666"
       height="1.1826666">
      <feGaussianBlur
         stdDeviation="1.3 1.3"
         result="blur"
         id="feGaussianBlur1" />
    </filter>
  </defs>
  <circle
     cx="32.516094"
     cy="31.877844"
     r="0"
     fill="url(#b)"
     stroke-width="1.5715"
     id="circle41"
     style="fill:url(#b)" />
  <g
     aria-label="GZ"
     transform="matrix(1.2212657,0,0,0.81882264,0.4960938,-0.1661539)"
     id="text93"
     style="font-weight:bold;font-size:11.5263px;line-height:1.25;font-family:sans-serif;-inkscape-font-specification:'sans-serif Bold';fill:#f2f2f2;stroke-width:0.288159" />
  <g
     id="g877"
     transform="matrix(1.1,0,0,1.1,-3.1845928,-3.2065454)">
    <rect
       style="fill:none;fill-opacity:1;stroke:#000000;stroke-width:2.72727;stroke-dasharray:none;stroke-opacity:1;filter:url(#filter1);opacity:0.5"
       id="rect1-5"
       width="49.090908"
       height="49.090908"
       x="7.4405394"
       y="7.4604964"
       rx="7.4768682"
       ry="7.477273" />
    <rect
       style="opacity:1;fill:#c4c2c5;stroke-width:2.72727273;stroke-opacity:1;fill-opacity:1;stroke:#1e2430;stroke-dasharray:none"
       id="rect1"
       width="49.090908"
       height="49.090908"
       x="7.4405394"
       y="7.4604964"
       rx="7.4768682"
       ry="7.477273" />
    <rect
       style="fill:#1e2430;fill-opacity:1;stroke:none;stroke-width:2.33829;stroke-dasharray:none;stroke-opacity:1"
       id="rect1-6"
       width="42.089317"
       height="42.089317"
       x="10.941335"
       y="10.961291"
       rx="5.5927272"
       ry="5.5927272" />
    <path
       id="path17"
       style="fill:#f4e3cf;fill-opacity:1;stroke:none;stroke-width:0.4275;stroke-dasharray:none;stroke-opacity:0.6"
       d="m 31.114098,20.695097 c -10.019037,0 -10.476478,0.0046 -10.784324,0.10796 -0.62817,0.210965 -0.958524,0.412496 -1.404857,0.856462 -0.505241,0.502558 -0.769905,0.973545 -0.903222,1.607368 -0.127211,0.60479 -0.129123,15.286335 -0.0021,15.885957 0.273842,1.292333 1.364461,2.329467 2.681125,2.549442 0.165667,0.02791 3.39473,0.05364 7.175567,0.05743 l 6.874373,0.0067 -0.250301,-0.48214 c -0.406327,-0.783098 -0.658318,-1.661197 -0.755019,-2.63043 l -0.0395,-0.394691 H 29.207281 24.708368 L 24.564995,38.11581 24.421623,37.972417 v -1.570538 -1.570925 l 0.150596,-0.141651 0.150938,-0.141651 4.496161,-0.01548 4.495818,-0.01583 V 33.66989 32.823399 h -0.7571 c -0.814509,0 -1.003972,-0.04671 -1.106764,-0.272302 -0.09138,-0.200548 -0.08867,-2.847161 0.003,-3.019445 0.133949,-0.251489 0.21356,-0.270029 1.169341,-0.271965 l 0.91561,-0.0018 0.129273,-0.394709 c 0.07099,-0.216999 0.217842,-0.588947 0.326288,-0.826547 0.108443,-0.237596 0.197009,-0.43995 0.197009,-0.44972 0,-0.0098 -0.567807,-0.02559 -1.261827,-0.03541 l -1.261804,-0.01787 -0.140967,-0.164003 c -0.140834,-0.163872 -0.140957,-0.165114 -0.140957,-1.624567 v -1.460915 l 0.143373,-0.143372 0.143719,-0.143378 h 1.517974 1.517974 l 0.121372,0.15403 c 0.112779,0.143379 0.121024,0.22953 0.121024,1.250824 v 1.09715 l 0.38508,-0.399177 c 0.211864,-0.219446 0.593086,-0.552245 0.847174,-0.739562 0.460515,-0.339489 0.462093,-0.34119 0.462442,-0.609252 6.14e-4,-0.336937 0.09736,-0.62244 0.236551,-0.696927 0.06407,-0.0343 0.953571,-0.05708 2.220404,-0.05708 1.902622,0 2.172169,0.01178 2.703129,0.119994 0.593432,0.120934 1.484341,0.431731 1.843232,0.642948 0.106318,0.06257 0.204792,0.113803 0.219011,0.113803 0.06166,0 0.01645,-1.233217 -0.0581,-1.585017 -0.245633,-1.15886 -1.08749,-2.062915 -2.312539,-2.483705 C 41.587503,20.698769 41.219702,20.69506 31.114042,20.69506 Z m -7.896218,3.302412 h 1.475339 l 0.141998,0.150593 c 0.139936,0.148837 0.141884,0.16709 0.16022,1.455056 0.0211,1.483423 -0.01671,1.735148 -0.280903,1.871766 -0.233071,0.120527 -2.818169,0.126099 -3.033888,0.0064 -0.27507,-0.152441 -0.294163,-0.264532 -0.296372,-1.718748 -0.0022,-1.420867 0.03102,-1.639913 0.263368,-1.729081 0.05204,-0.01997 0.7587,-0.0361 1.570236,-0.0361 z m 5.248446,0 c 1.384739,0 1.505327,0.0083 1.633153,0.111741 l 0.137872,0.111745 v 1.523131 c 0,1.506853 -0.0013,1.524831 -0.133057,1.656537 -0.130419,0.130532 -0.160761,0.133156 -1.548918,0.144402 -0.778752,0.0064 -1.455312,-0.0036 -1.503533,-0.02201 -0.04823,-0.01848 -0.147028,-0.08719 -0.219362,-0.153003 -0.129862,-0.118143 -0.131339,-0.138607 -0.131339,-1.619058 0,-1.491666 5.49e-4,-1.500183 0.135123,-1.626623 0.131616,-0.123648 0.1757,-0.126871 1.630062,-0.126871 z m 12.316048,1.812286 c -1.335607,-9e-4 -2.500716,0.516304 -3.508016,1.556827 -0.821304,0.84839 -1.324207,1.82507 -1.611493,3.130843 -0.09681,0.440048 -0.106586,0.814611 -0.106586,4.050226 0,3.966439 -0.0013,3.948744 0.410867,5.102317 0.68694,1.921979 2.313287,3.345575 4.150279,3.633169 0.441017,0.06904 1.288408,0.02791 1.775152,-0.08698 0.510742,-0.120243 1.280681,-0.490548 1.761743,-0.847176 1.210505,-0.897379 2.059758,-2.3751 2.306705,-4.013439 0.06827,-0.453056 0.08631,-1.246076 0.08564,-3.787883 -7.55e-4,-1.814913 -0.02586,-3.392896 -0.05878,-3.623887 -0.236867,-1.665743 -1.011801,-3.096802 -2.187433,-4.039563 -0.903585,-0.724599 -1.884187,-1.073686 -3.018071,-1.074442 z m -0.04812,3.278342 c 0.05038,-0.0025 0.101294,-0.002 0.152295,0.002 0.135989,0.01054 0.272949,0.04449 0.40365,0.103836 0.536613,0.243699 0.622381,0.567932 0.597565,2.259597 -0.02174,1.458854 -0.05945,1.610286 -0.471725,1.883114 -0.165368,0.109433 -0.322542,0.15699 -0.560434,0.169504 -0.377252,0.01983 -0.552973,-0.03844 -0.789068,-0.262338 -0.32324,-0.306555 -0.33109,-0.351438 -0.33109,-1.946721 0,-1.464193 9.9e-4,-1.475174 0.145419,-1.721514 0.173183,-0.295568 0.500804,-0.469786 0.853361,-0.487544 z m -17.540085,0.169852 c 1.453312,0 1.454878,1.12e-4 1.618716,0.140966 l 0.164001,0.140966 0.01962,1.241887 c 0.02303,1.44153 -0.0047,1.710316 -0.197007,1.902711 -0.138679,0.138678 -0.139951,0.138905 -1.59946,0.138905 -1.459799,0 -1.460658,1.3e-5 -1.62456,-0.140967 l -0.164047,-0.141314 v -1.500438 -1.500784 l 0.164003,-0.140966 c 0.163864,-0.140952 0.165171,-0.140966 1.618714,-0.140966 z m 3.793735,0 h 1.488044 1.488066 l 0.151277,0.179815 0.151281,0.179821 v 1.432017 1.432022 l -0.170876,0.170878 -0.170882,0.170883 h -1.468465 -1.468464 l -0.143371,-0.143378 -0.143376,-0.143718 v -1.495625 -1.495971 l 0.143376,-0.143377 z" />
  </g>
</svg>
