<?xml version="1.0" encoding="UTF-8" standalone="no"?>
<svg
   width="64"
   height="64"
   version="1.1"
   id="svg73"
   sodipodi:docname="accessories-calculator.svg"
   inkscape:version="1.2.2 (b0a8486541, 2022-12-01)"
   xmlns:inkscape="http://www.inkscape.org/namespaces/inkscape"
   xmlns:sodipodi="http://sodipodi.sourceforge.net/DTD/sodipodi-0.dtd"
   xmlns="http://www.w3.org/2000/svg"
   xmlns:svg="http://www.w3.org/2000/svg"
   xmlns:rdf="http://www.w3.org/1999/02/22-rdf-syntax-ns#"
   xmlns:cc="http://creativecommons.org/ns#"
   xmlns:dc="http://purl.org/dc/elements/1.1/">
  <metadata
     id="metadata77">
    <rdf:RDF>
      <cc:Work
         rdf:about="">
        <dc:format>image/svg+xml</dc:format>
        <dc:type
           rdf:resource="http://purl.org/dc/dcmitype/StillImage" />
      </cc:Work>
    </rdf:RDF>
  </metadata>
  <sodipodi:namedview
     pagecolor="#f5f7fa"
     bordercolor="#666666"
     borderopacity="1"
     objecttolerance="10"
     gridtolerance="10"
     guidetolerance="10"
     inkscape:pageopacity="0"
     inkscape:pageshadow="2"
     inkscape:window-width="1280"
     inkscape:window-height="603"
     id="namedview75"
     showgrid="false"
     inkscape:zoom="6.2890625"
     inkscape:cx="51.677019"
     inkscape:cy="37.843478"
     inkscape:window-x="35"
     inkscape:window-y="32"
     inkscape:window-maximized="0"
     inkscape:current-layer="g877"
     inkscape:document-rotation="0"
     inkscape:pagecheckerboard="0"
     inkscape:showpageshadow="2"
     inkscape:deskcolor="#d1d1d1" />
  <defs
     id="defs29">
    <filter
       style="color-interpolation-filters:sRGB;"
       inkscape:label="Blur"
       id="filter1"
       x="-0.091333304"
       y="-0.091333304"
       width="1.1826666"
       height="1.1826666">
      <feGaussianBlur
         stdDeviation="1.3 1.3"
         result="blur"
         id="feGaussianBlur1" />
    </filter>
    <filter
       style="color-interpolation-filters:sRGB"
       inkscape:label="Blur"
       id="filter1-3"
       x="-0.091333304"
       y="-0.091333304"
       width="1.1826666"
       height="1.1826666">
      <feGaussianBlur
         stdDeviation="1.3 1.3"
         result="blur"
         id="feGaussianBlur1-6" />
    </filter>
  </defs>
  <circle
     cx="32.516094"
     cy="31.877844"
     r="0"
     fill="url(#b)"
     stroke-width="1.5715"
     id="circle41"
     style="fill:url(#b)" />
  <g
     aria-label="GZ"
     transform="matrix(1.2212657,0,0,0.81882264,0.4960938,-0.1661539)"
     id="text93"
     style="font-weight:bold;font-size:11.5263px;line-height:1.25;font-family:sans-serif;-inkscape-font-specification:'sans-serif Bold';fill:#f2f2f2;stroke-width:0.288159" />
  <g
     id="g877"
     transform="matrix(1.1,0,0,1.1,-3.1845928,-3.2065454)">
    <rect
       style="fill:none;fill-opacity:1;stroke:#000000;stroke-width:2.72727;stroke-dasharray:none;stroke-opacity:1;filter:url(#filter1);opacity:0.5"
       id="rect1-5"
       width="49.090908"
       height="49.090908"
       x="7.4405394"
       y="7.4604964"
       rx="7.4768682"
       ry="7.477273" />
    <rect
       style="opacity:1;fill:#c4c2c5;stroke-width:2.72727273;stroke-opacity:1;fill-opacity:1;stroke:#1e2430;stroke-dasharray:none"
       id="rect1"
       width="49.090908"
       height="49.090908"
       x="7.4405394"
       y="7.4604964"
       rx="7.4768682"
       ry="7.477273" />
    <rect
       style="fill:#1e2430;fill-opacity:1;stroke:none;stroke-width:2.33829;stroke-dasharray:none;stroke-opacity:1"
       id="rect1-6"
       width="42.089317"
       height="42.089317"
       x="10.941335"
       y="10.961291"
       rx="5.5927272"
       ry="5.5927272" />
    <path
       style="fill:#f4e3cf;fill-opacity:1;stroke:none;stroke-width:0.416787;stroke-dasharray:none;stroke-opacity:0.6"
       d="m 44.91799,42.159143 c 0,-0.148034 0.194666,-0.496603 0.432581,-0.774566 0.889124,-1.038738 0.88173,-2.73921 -0.01639,-3.733144 -0.239692,-0.265329 -0.544102,-0.516756 -0.676448,-0.558766 -0.438728,-0.139252 -0.519232,-0.497101 -0.224291,-0.99697 0.481458,-0.816008 0.273615,-2.292412 -0.428691,-3.045334 -0.30924,-0.331517 -1.104337,-0.771501 -1.394194,-0.771501 -0.152517,0 -0.175463,-0.107835 -0.115749,-0.543772 0.132012,-0.962422 -0.593122,-2.134727 -1.580616,-2.555501 -0.526382,-0.224294 -1.594633,-0.246576 -1.978327,-0.04121 -0.340476,0.182212 -0.546588,0.07556 -0.922159,-0.47724 -0.930099,-1.369153 -3.405176,-1.162307 -3.989654,0.33343 -0.135661,0.347165 -0.364487,0.355287 -0.895143,0.03176 -0.527469,-0.321602 -1.254205,-0.318431 -1.929367,0.0086 -0.67116,0.324905 -1.092342,0.977963 -1.121667,1.739197 -0.0217,0.564023 -0.02396,0.56671 -0.504388,0.599906 -0.763925,0.05277 -1.0006,0.132635 -1.407031,0.474617 -0.229927,0.193495 -0.412965,0.492177 -0.462105,0.754123 -0.09025,0.481057 -0.351775,0.677195 -0.90297,0.677195 -0.201695,0 -0.509852,0.112623 -0.684816,0.250253 -0.39661,0.311972 -0.510648,0.311655 -1.161014,-0.0034 -0.43949,-0.212748 -0.581309,-0.230027 -0.884029,-0.107834 -0.503013,0.20307 -0.832807,0.161251 -1.534971,-0.1946 -0.871643,-0.441705 -1.588614,-1.310003 -1.89155,-2.290783 -0.296531,-0.96007 -0.334993,-2.766027 -0.07928,-3.721936 0.552064,-2.063457 1.941084,-3.31546 3.678396,-3.31546 0.653731,0 1.669726,0.313985 2.092777,0.64676 0.953816,0.750267 1.079123,2.601029 0.243339,3.594278 -0.51056,0.606769 -1.26059,0.822417 -2.338724,0.672444 -0.498246,-0.06932 -0.948124,-0.101964 -0.999742,-0.07259 -0.254653,0.144895 -0.05076,0.564043 0.428764,0.881381 0.468713,0.310174 0.633211,0.345839 1.595219,0.345839 1.267089,0 1.796822,-0.210699 2.59766,-1.033008 0.777966,-0.798901 1.076466,-1.696462 1.014056,-3.049152 -0.04168,-0.903361 -0.115784,-1.213386 -0.4545,-1.901421 -0.4853,-0.985783 -1.261986,-1.713345 -2.253846,-2.111303 -0.58945,-0.236501 -0.94497,-0.28384 -2.145362,-0.285678 -1.362832,-0.0022 -1.483677,0.01903 -2.288047,0.400048 -1.691605,0.801255 -2.91775,2.384875 -3.485909,4.502202 -0.387824,1.445272 -0.387353,4.100188 0.002,5.474463 0.522897,1.850556 1.475015,3.25823 2.84239,4.202356 0.913642,0.630844 2.668648,1.245294 3.569641,1.249776 0.504026,0.0026 0.889594,0.07193 1.04265,0.187708 0.35363,0.267462 0.984091,0.225374 1.388447,-0.09265 0.282664,-0.222374 0.497151,-0.272316 1.09714,-0.25571 0.736459,0.0201 1.462881,-0.214767 1.462881,-0.47362 0,-0.204121 1.279205,-0.953285 1.787879,-1.047065 0.333268,-0.06162 0.657324,-0.270387 1.09565,-0.706423 0.342232,-0.340437 0.676437,-0.618973 0.742679,-0.618973 0.06623,0 0.304781,0.112409 0.530089,0.249752 0.225306,0.13737 0.62078,0.249961 0.878831,0.250224 l 0.469181,4.17e-4 v 0.692152 c 0,1.126982 0.550725,2.093773 1.390967,2.441807 0.417813,0.173051 0.42196,0.191915 0.17298,0.78787 -0.483348,1.156808 -0.05947,2.490336 1.000431,3.147171 l 0.605656,0.375347 3.294478,0.03884 3.294477,0.03884 z m -1.724487,-1.192365 c -0.415368,-0.290933 -0.652701,-0.844474 -0.652701,-1.5223 0,-1.316099 1.126772,-2.008169 1.92057,-1.179628 0.716744,0.748127 0.690766,1.947069 -0.05582,2.575266 -0.437556,0.368181 -0.811455,0.407254 -1.212067,0.126696 z m -5.160062,-0.164052 c -0.472123,-0.472118 -0.579556,-0.93912 -0.360252,-1.566033 0.245784,-0.702621 0.814263,-1.02938 1.434645,-0.824635 0.552031,0.182173 0.929558,0.757496 0.930201,1.417517 3.93e-4,0.38133 -0.08816,0.570319 -0.424927,0.907082 -0.551601,0.551606 -1.072359,0.573384 -1.579667,0.06605 z m -1.283813,-3.864513 c -0.586166,-0.530472 -0.740114,-1.300778 -0.381347,-1.908126 0.354494,-0.600115 0.919993,-0.758894 1.547355,-0.434473 0.931391,0.481639 0.996489,2.010346 0.107244,2.518347 -0.357954,0.204531 -0.942204,0.123819 -1.273258,-0.175711 z m -10.902767,0.148652 c -0.108122,-0.10811 -0.196624,-0.244794 -0.196624,-0.303828 0,-0.22874 0.410074,-0.500464 0.755223,-0.500464 0.238755,0 0.409494,0.08873 0.501501,0.260643 0.289279,0.540514 -0.604765,0.999018 -1.060115,0.543667 z m -2.25832,-0.381584 c -0.398106,-0.398098 0.0014,-0.902882 0.595179,-0.75364 0.374516,0.094 0.554867,0.510523 0.335508,0.77483 -0.20055,0.241624 -0.678757,0.230711 -0.930687,-0.02131 z m 4.569734,-0.103021 c -0.24042,-0.289688 -0.103004,-0.738634 0.282458,-0.922815 0.699577,-0.334272 1.307672,0.472641 0.684906,0.908842 -0.348392,0.243993 -0.771375,0.250172 -0.967367,0.01367 z m 13.548169,-0.737002 c -0.397368,-0.364159 -0.462771,-0.506838 -0.513663,-1.120614 -0.05458,-0.658336 -0.03298,-0.728678 0.337864,-1.099525 0.341097,-0.341094 0.458439,-0.386094 0.843811,-0.323553 0.779044,0.126426 1.292386,0.806926 1.292386,1.71324 0,0.403828 -0.07966,0.59597 -0.365721,0.88202 -0.505289,0.505291 -1.004665,0.489138 -1.594677,-0.05155 z M 21.392055,35.648986 c -0.183649,-0.343187 0.06035,-0.643564 0.481409,-0.59263 0.415525,0.05031 0.626635,0.388511 0.407386,0.652693 -0.233402,0.281234 -0.723881,0.248071 -0.888795,-0.06009 z m 9.071708,-0.871595 c -0.327783,-0.362196 -0.126743,-0.870196 0.457638,-1.156369 0.816186,-0.399686 1.505723,0.165091 1.050254,0.860225 -0.368695,0.562701 -1.131147,0.712439 -1.507892,0.296157 z m -4.115148,0.05297 c -0.254483,-0.09768 -0.255255,-0.599533 -0.0013,-0.853497 0.232657,-0.232658 0.816952,-0.259038 1.029527,-0.04648 0.497027,0.497021 -0.287915,1.184038 -1.028227,0.899947 z m -2.333087,-0.05361 c -0.285213,-0.15265 -0.316671,-0.528566 -0.06188,-0.740014 0.249786,-0.207305 0.829921,-0.115275 0.995867,0.157935 0.111874,0.184264 0.08234,0.27224 -0.157617,0.469183 -0.338353,0.277679 -0.440625,0.292528 -0.776326,0.112882 z m -2.00184,-0.250245 c -0.31468,-0.16843 -0.310205,-0.575872 0.0083,-0.746287 0.505104,-0.270322 0.999342,0.326882 0.600554,0.725662 -0.18385,0.183843 -0.296688,0.187656 -0.608774,0.02102 z m -1.863968,-0.05269 c -0.169729,-0.204541 -0.07533,-0.443385 0.1752,-0.443385 0.224979,0 0.486035,0.334197 0.386669,0.49498 -0.115052,0.186184 -0.385102,0.161382 -0.561867,-0.05161 z m 14.142434,-0.751511 c -1.210128,-0.625778 -0.107457,-2.176972 1.168521,-1.64384 0.717595,0.29984 0.913484,0.962787 0.417747,1.413805 -0.493874,0.449323 -1.015837,0.525017 -1.586268,0.230054 z m -5.739223,-0.217314 c -0.243473,-0.243493 -0.172667,-0.714514 0.156962,-1.044139 0.384373,-0.384371 0.867012,-0.396833 1.124631,-0.02898 0.255696,0.365062 0.246044,0.498797 -0.06455,0.893649 -0.282265,0.358844 -0.940625,0.455957 -1.217053,0.17953 z M 20.543106,33.18466 c -0.02993,-0.21054 0.02233,-0.280262 0.211604,-0.280262 0.299465,0 0.441604,0.189262 0.340332,0.453144 -0.107033,0.278882 -0.505242,0.154122 -0.551901,-0.172875 z m -1.199423,-0.06527 c -0.09444,-0.149678 -0.0879,-0.251384 0.02319,-0.362536 0.207821,-0.207828 0.596631,0.163749 0.482517,0.461084 -0.09291,0.242125 -0.318601,0.198151 -0.505754,-0.09855 z m 20.229774,-0.549027 c -0.745569,-0.353799 -1.124412,-1.285887 -0.782402,-1.924951 0.157929,-0.295117 0.758742,-0.618808 1.147395,-0.618176 0.418996,7.36e-4 1.059284,0.431802 1.28257,0.863588 0.364212,0.704304 0.20747,1.361777 -0.403697,1.693445 -0.446641,0.242364 -0.709975,0.239444 -1.243866,-0.01367 z m -8.098589,-1.244585 c -0.600234,-0.230342 -0.447404,-1.025324 0.261814,-1.361867 0.54641,-0.259301 1.087658,-0.04497 1.145669,0.453664 0.06702,0.576028 -0.805663,1.139134 -1.407483,0.908203 z m 3.741011,-0.98051 c -0.420385,-0.420387 -0.393598,-0.849023 0.07785,-1.245717 0.436032,-0.366899 0.951112,-0.41583 1.482833,-0.14086 0.381157,0.19714 0.509408,0.419058 0.509408,0.881585 0,0.760154 -1.459008,1.116076 -2.070086,0.504995 z"
       id="path1-47" />
    <rect
       style="opacity:0.5;fill:none;fill-opacity:1;stroke:#000000;stroke-width:2.72727;stroke-dasharray:none;stroke-opacity:1;filter:url(#filter1-3)"
       id="rect1-5-5"
       width="49.090908"
       height="49.090908"
       x="7.4405394"
       y="7.4604964"
       rx="7.4768682"
       ry="7.477273"
       transform="matrix(0.43046721,0,0,0.43046721,34.695898,34.707264)" />
    <rect
       style="fill:#c4c2c5;fill-opacity:1;stroke:#1e2430;stroke-width:1.174;stroke-dasharray:none;stroke-opacity:1"
       id="rect1-3"
       width="21.132023"
       height="21.132023"
       x="37.898808"
       y="37.918762"
       rx="3.2185469"
       ry="3.2187209" />
    <rect
       style="fill:#1e2430;fill-opacity:1;stroke:none;stroke-width:1.00656;stroke-dasharray:none;stroke-opacity:1"
       id="rect1-6-5"
       width="18.118069"
       height="18.118069"
       x="39.405781"
       y="39.425739"
       rx="2.4074855"
       ry="2.4074855" />
    <path
       id="path1"
       style="fill:#f4e3cf;fill-opacity:1;stroke:none;stroke-width:0.181638;stroke-dasharray:none;stroke-dashoffset:2.2;stroke-opacity:0.6"
       d="m 51.778779,43.941045 c -0.187252,-8.1e-5 -0.387675,0.07531 -0.638521,0.222291 -0.596919,0.349749 -1.377579,0.514692 -2.44963,0.514692 -1.071954,0 -1.878654,-0.168464 -2.472018,-0.516184 -0.475801,-0.278826 -0.759862,-0.282522 -1.159175,-0.01336 -1.025175,0.690863 -1.797804,2.90589 -2.024459,5.800365 -0.135901,1.735692 -0.0089,2.650757 0.440096,3.165728 0.216586,0.248286 0.748267,0.206204 1.227806,-0.09847 0.406495,-0.258249 0.890832,-0.828123 1.469484,-1.729077 0.522892,-0.81415 1.155362,-1.082294 2.554068,-1.084584 1.395926,-0.0021 1.944506,0.26195 2.588383,1.251671 1.08027,1.660535 2.078776,2.238636 2.664465,1.542581 0.324469,-0.385605 0.383859,-0.758167 0.368487,-2.309398 -0.028,-2.817903 -0.76459,-5.381404 -1.826034,-6.359807 C 52.239036,44.06691 52.019542,43.9412 51.778779,43.9411 Z m -6.06442,1.660439 h 0.647469 0.647466 v 0.554974 0.554973 h 0.554977 0.554971 v 0.693717 0.693714 h -0.554971 -0.554977 v 0.601222 0.601221 h -0.586297 c -0.322099,0 -0.612073,-0.02889 -0.645977,-0.06265 -0.0339,-0.03389 -0.06262,-0.303056 -0.06262,-0.599727 V 48.098857 H 45.159418 44.604442 V 47.405144 46.71143 h 0.554976 0.55497 v -0.55498 z m 5.278213,0 c 0.5841,0 0.834244,0.647172 0.413247,1.068174 -0.26774,0.267713 -0.512097,0.288754 -0.77577,0.06565 -0.457352,-0.386999 -0.218646,-1.133819 0.362523,-1.133819 z m -1.123373,1.18603 c 0.145866,1.01e-4 0.292703,0.05822 0.408766,0.186472 0.180933,0.199943 0.20047,0.65765 0.03732,0.871247 -0.319324,0.418037 -1.086073,0.14915 -1.086073,-0.380423 0,-0.401918 0.319131,-0.677526 0.640008,-0.677304 z m 2.292994,0.02255 c 0.168103,0.0031 0.331322,0.05875 0.426667,0.164095 0.180934,0.199943 0.200443,0.65765 0.0373,0.87125 -0.339646,0.444632 -1.086079,0.147034 -1.086079,-0.432643 0,-0.1757 0.07042,-0.36615 0.168576,-0.455016 0.112217,-0.101585 0.285435,-0.150764 0.45353,-0.147674 z m -1.12934,1.19647 c 0.517834,0 0.769797,0.549277 0.456506,0.996564 -0.107097,0.152907 -0.23771,0.20587 -0.507235,0.20587 -0.310298,0 -0.382306,-0.04038 -0.507228,-0.281972 -0.246338,-0.476336 0.02255,-0.920482 0.557957,-0.920482 z" />
  </g>
</svg>
