<?xml version="1.0" encoding="UTF-8" standalone="no"?>
<svg
   width="64"
   height="64"
   version="1.1"
   id="svg73"
   sodipodi:docname="accessories-calculator.svg"
   inkscape:version="1.2.2 (b0a8486541, 2022-12-01)"
   xmlns:inkscape="http://www.inkscape.org/namespaces/inkscape"
   xmlns:sodipodi="http://sodipodi.sourceforge.net/DTD/sodipodi-0.dtd"
   xmlns="http://www.w3.org/2000/svg"
   xmlns:svg="http://www.w3.org/2000/svg"
   xmlns:rdf="http://www.w3.org/1999/02/22-rdf-syntax-ns#"
   xmlns:cc="http://creativecommons.org/ns#"
   xmlns:dc="http://purl.org/dc/elements/1.1/">
  <metadata
     id="metadata77">
    <rdf:RDF>
      <cc:Work
         rdf:about="">
        <dc:format>image/svg+xml</dc:format>
        <dc:type
           rdf:resource="http://purl.org/dc/dcmitype/StillImage" />
      </cc:Work>
    </rdf:RDF>
  </metadata>
  <sodipodi:namedview
     pagecolor="#f5f7fa"
     bordercolor="#666666"
     borderopacity="1"
     objecttolerance="10"
     gridtolerance="10"
     guidetolerance="10"
     inkscape:pageopacity="0"
     inkscape:pageshadow="2"
     inkscape:window-width="1280"
     inkscape:window-height="603"
     id="namedview75"
     showgrid="false"
     inkscape:zoom="6.2890625"
     inkscape:cx="51.677019"
     inkscape:cy="37.843478"
     inkscape:window-x="35"
     inkscape:window-y="32"
     inkscape:window-maximized="0"
     inkscape:current-layer="g877"
     inkscape:document-rotation="0"
     inkscape:pagecheckerboard="0"
     inkscape:showpageshadow="2"
     inkscape:deskcolor="#d1d1d1" />
  <defs
     id="defs29">
    <filter
       style="color-interpolation-filters:sRGB;"
       inkscape:label="Blur"
       id="filter1"
       x="-0.091333304"
       y="-0.091333304"
       width="1.1826666"
       height="1.1826666">
      <feGaussianBlur
         stdDeviation="1.3 1.3"
         result="blur"
         id="feGaussianBlur1" />
    </filter>
    <filter
       style="color-interpolation-filters:sRGB"
       inkscape:label="Blur"
       id="filter1-3"
       x="-0.091333304"
       y="-0.091333304"
       width="1.1826666"
       height="1.1826666">
      <feGaussianBlur
         stdDeviation="1.3 1.3"
         result="blur"
         id="feGaussianBlur1-6" />
    </filter>
  </defs>
  <circle
     cx="32.516094"
     cy="31.877844"
     r="0"
     fill="url(#b)"
     stroke-width="1.5715"
     id="circle41"
     style="fill:url(#b)" />
  <g
     aria-label="GZ"
     transform="matrix(1.2212657,0,0,0.81882264,0.4960938,-0.1661539)"
     id="text93"
     style="font-weight:bold;font-size:11.5263px;line-height:1.25;font-family:sans-serif;-inkscape-font-specification:'sans-serif Bold';fill:#f2f2f2;stroke-width:0.288159" />
  <g
     id="g877"
     transform="matrix(1.1,0,0,1.1,-3.1845928,-3.2065454)">
    <rect
       style="fill:none;fill-opacity:1;stroke:#000000;stroke-width:2.72727;stroke-dasharray:none;stroke-opacity:1;filter:url(#filter1);opacity:0.5"
       id="rect1-5"
       width="49.090908"
       height="49.090908"
       x="7.4405394"
       y="7.4604964"
       rx="7.4768682"
       ry="7.477273" />
    <rect
       style="opacity:1;fill:#c4c2c5;stroke-width:2.72727273;stroke-opacity:1;fill-opacity:1;stroke:#1e2430;stroke-dasharray:none"
       id="rect1"
       width="49.090908"
       height="49.090908"
       x="7.4405394"
       y="7.4604964"
       rx="7.4768682"
       ry="7.477273" />
    <rect
       style="fill:#1e2430;fill-opacity:1;stroke:none;stroke-width:2.33829;stroke-dasharray:none;stroke-opacity:1"
       id="rect1-6"
       width="42.089317"
       height="42.089317"
       x="10.941335"
       y="10.961291"
       rx="5.5927272"
       ry="5.5927272" />
    <path
       d="m 26.507409,20.095472 q -0.07939,0 -0.07939,-0.105871 h 0.05294 v 0.05294 l 0.05294,-0.02647 0.02647,0.05294 z m 0.317613,0.05293 h -0.07939 q -0.05294,0 -0.07939,-0.158807 h 0.02647 q 0.132339,0.05294 0.132339,0.158807 z m -0.582288,0.05294 h -0.05294 q 0,-0.132343 0.05294,-0.132343 h 0.05294 q 0,0.132343 -0.05294,0.132343 z m -0.264676,0.02647 q -0.158807,-0.02647 -0.158807,-0.132343 h 0.105868 q 0.05294,0.02647 0.05294,0.132343 z m -0.291144,0.05293 h -0.07939 q 0,-0.132335 0.07939,-0.132335 0.07939,0 0.07939,0.05294 z m -0.449952,0.185263 -0.02647,-0.05294 q 0.02647,-0.132339 0.105874,-0.23821 0.105872,0.05294 0.238209,0.05294 0,0.07939 -0.238209,0.105867 0,-0.02647 -0.02647,-0.02647 0,0.158804 -0.05294,0.158804 z m 1.746868,-0.158804 h -0.07939 v -0.05294 h 0.07939 z m -2.170351,0.211736 q -0.05294,0 -0.05294,-0.05294 0,-0.132342 0.185272,-0.132342 0.07939,0 0.07939,0.05294 -0.07939,0.132336 -0.211743,0.132336 z m -0.344078,0.238214 -0.13234,-0.07939 v 0.05294 q -0.105868,0 -0.105868,-0.05294 h 0.07939 l -0.02647,-0.02647 q -0.105874,0.05294 -0.23821,0.05294 l -0.02647,-0.05294 q 0.529352,-0.264675 0.608755,-0.264675 0.105868,0.02647 0.105868,0.07939 0,0.07939 -0.264675,0.211743 z M 23.595969,43.88989 h -0.07939 l 0.02647,-0.07942 -0.555822,0.02629 q -0.07939,0 -0.07939,-0.105884 l -0.211746,0.05294 -0.02647,-0.05294 0.02647,-0.05294 -0.264678,0.02629 -0.07939,-0.05294 q 0,0.105883 -0.05293,0.105883 -0.21174,0 -0.423483,-0.158794 l -0.07939,0.05294 Q 21.610943,43.54543 20.658104,43.227837 20.552232,43.095513 20.552232,43.01607 h -0.158806 q -0.05294,0 -0.05294,-0.105885 h 0.158804 v -0.02629 q -0.07939,0 -0.07939,-0.05294 l -0.185272,0.05294 q -0.476478,-0.18514 -0.635283,-0.18514 l 0.02647,0.05294 -0.105872,0.211768 0.105872,-0.02629 -0.02647,0.07944 q 0.07939,0 0.07939,-0.07944 h 0.07939 q 0,0.132323 -0.105874,0.185266 -0.07939,-0.05294 -0.158804,-0.05294 0,0.07944 -0.05294,0.07944 -0.105876,-0.05294 -0.105876,-0.07944 0.05293,-0.07942 0.05293,-0.158795 h -0.02647 q -0.158807,0.238208 -0.291143,0.238208 v -0.238208 q -0.05294,0 -0.05294,-0.02629 -0.158804,0.05294 -0.158804,0.158795 h -0.05294 l 0.02647,-0.105884 -0.02647,-0.105883 q 0,-0.05294 0.02647,-0.07944 h -0.02647 l -0.132336,0.132323 q -0.105872,0 -0.185273,-0.211767 l -0.105871,0.02629 0.05294,0.185266 h -0.02647 q -0.291146,-0.185267 -0.291146,-0.423485 l 0.02647,-0.07942 0.132339,0.02629 q 0.05294,-0.105884 0.07939,-0.105884 0.105872,0.132325 0.185272,0.132325 0.105869,0.185265 0.158807,0.185265 v -0.07942 q -0.105831,-0.07944 -0.105831,-0.185296 l 0.185272,-0.02629 q 0,-0.05294 0.185273,-0.105884 l 0.105871,0.05294 q 0.05294,-0.105884 0.185271,-0.264679 h -0.02647 l -0.132339,0.105884 h -0.07939 q 0,-0.02629 0.132339,-0.105884 l -0.02647,-0.132324 q 0.05294,-0.07944 0.05294,-0.132324 h -0.07939 v -0.02629 q 0.105875,-0.105884 0.105875,-0.211767 -0.105875,-0.05294 -0.105875,-0.105885 0.185273,-0.185265 0.185273,-0.264678 -0.05294,0 -0.05294,-0.05294 l 0.105871,-0.07942 0.02647,0.05294 -0.05294,0.07944 q 0.05294,0 0.07939,-0.05294 0.02647,-0.07942 -0.02647,-0.132324 0.211743,-0.105884 0.211743,-0.185266 0,-0.07942 0.23821,-0.158795 l -0.02647,-0.132323 q 0,-0.02629 0.158808,-0.132325 v -0.02629 l -0.185276,0.132324 -0.02647,-0.02629 0.238208,-0.264679 h 0.158807 q 0,-0.132324 0.211743,-0.158795 l 0.02647,0.07942 -0.02647,0.05294 q 0,0.02629 0.02647,0.02629 0,-0.105884 0.105872,-0.105884 0.582287,0.423482 0.582287,0.582284 0.34408,0.158795 0.608758,0.397018 0.264678,0.05294 0.846966,0.344089 l 0.105869,-0.02629 q 0.105871,0.02629 0.105871,0.105883 0.05294,0 0.05294,-0.05294 l 0.502884,0.132323 0.132339,-0.07944 q 0.105872,0.07944 0.370549,0.07944 0.238211,0 0.873433,-0.105883 l 0.13234,0.07944 h 0.05294 v -0.02629 h -0.07938 q 0,-0.07944 0.05294,-0.07944 0.132336,0 0.132336,0.132323 h 0.02647 l -0.02647,-0.158794 q 0.07939,0 0.07939,0.07942 h 0.02647 q 0,-0.132323 0.264679,-0.185266 0.05294,0.105884 0.105871,0.105884 0.211743,0 0.397014,-0.158795 -0.02647,-0.05294 -0.02647,-0.132323 0.02647,-0.105884 0.264675,-0.105884 0,-0.132325 0.132336,-0.132325 l 0.185275,0.02629 0.291144,-0.07944 -0.02647,-0.05294 0.05294,-0.02629 q 0.02647,0 0.02647,0.02629 0.158804,0 0.291144,-0.185265 l 0.07939,0.02629 q 0.105871,-0.02629 0.105871,-0.07938 v -0.132324 h 0.02647 q 0.105872,0.05294 0.105872,0.132324 h 0.05294 l -0.07939,-0.105884 q 0.05294,0 0.05294,-0.05294 l -0.02647,-0.105884 0.07939,0.02629 q 0,-0.211768 0.370543,-0.238208 0,-0.105883 0.105875,-0.132324 0,-0.105884 0.02647,-0.158795 l 0.05294,0.02629 q 0.05294,0 0.05294,-0.05294 l -0.02647,-0.105884 0.07939,-0.05294 0.05294,0.02629 q 0.423482,-0.449963 0.608756,-0.582302 v -0.105884 h 0.07939 q 0,0.05295 0.211743,0.211768 -0.105874,0 -0.13234,0.02629 l -0.02647,-0.07944 q -0.05293,0 -0.05293,0.05294 l 0.02647,0.07944 -0.185272,0.29115 h 0.02647 l 0.185272,-0.158795 h 0.05294 q 0,0.105884 -0.317612,0.344088 l 0.02647,0.105884 q -0.211749,0.211891 -0.211749,0.317756 l 0.07939,0.02629 q 0,-0.07944 0.476419,-0.608754 l 0.07939,0.02629 q 0.132336,-0.105884 0.291144,-0.397015 l 0.07939,-0.02629 -0.02647,-0.05291 q 0,-0.05294 0.05294,-0.05294 l 0.07939,0.02629 q 0.158804,-0.132324 0.317611,-0.264679 0.158804,-0.158795 0.238211,-0.502886 l -0.02647,-0.02629 q 0,0.264678 -0.397018,0.58229 l -0.02647,-0.07944 q 0.105872,-0.185266 0.264676,-0.185266 v -0.05294 h -0.07939 v -0.211737 l 0.07939,-0.07942 q -0.05294,-0.02629 -0.05294,-0.105883 0.158808,0 0.291144,-0.238209 0.07939,0 0.07939,-0.105883 -0.05294,0 -0.07939,-0.07942 v -0.02629 q 0.105871,-0.185266 0.158804,-0.185266 l -0.02644,-0.07942 q 0.105875,-0.158795 0.105875,-0.317618 0.132339,0 0.132339,-0.105883 l -0.02647,-0.158795 q 0.02644,-0.105853 0.105862,-0.105853 v -0.02641 q -0.21174,0 -0.21174,-0.07941 0.105871,-0.02641 0.105871,-0.158801 l -0.05294,-0.02647 q 0,-0.02647 0.105872,-0.158801 l -0.07939,-0.02647 0.02647,-0.05293 -0.02647,-0.105875 0.158807,-0.07939 -0.02647,-0.07939 0.132339,-0.02647 v 0.05293 h -0.07937 q 0.02647,0.02647 0.02647,0.07939 h -0.05293 v 0.02647 q 0.132337,0 0.185276,-0.02647 l 0.105871,0.02647 q 0,0.370548 -0.132339,0.370548 h -0.07939 v 0.02647 q 0.132336,0 0.132336,0.105875 -0.02647,0.132336 -0.185272,0.132336 l 0.02647,0.05293 q 0,0.185262 -0.238214,0.529356 -0.02647,0.344088 -0.105868,0.344088 0,-0.02629 -0.02647,-0.02629 l 0.02647,0.158795 -0.07939,0.317617 q 0,0.02629 0.02647,0.02629 0.185275,-0.449953 0.264676,-0.449953 L 30.37171,38.0933 h 0.02647 q 0.13234,-0.132324 0.344079,-0.582284 l -0.02647,-0.211737 q 0,-0.211768 0.185275,-0.29115 0.05294,-0.105884 0.05294,-0.370549 l -0.05297,-0.07986 q 0,-0.158801 0.132336,-0.423484 L 31.0069,36.0019 l 0.02647,-0.132336 -0.185272,0.02647 v -0.05253 h -0.344059 v -0.07939 h 0.05294 l -0.0529,-0.07904 V 35.52627 q 0,-0.05294 0.07939,-0.05294 v -0.132343 q -0.158847,-0.502924 -0.158847,-0.661733 h -0.07939 q 0,-0.238211 0.132339,-0.317612 l 0.07939,0.105872 q 0,0.07939 -0.07939,0.07939 v 0.02647 l 0.158804,-0.02647 q 0,-0.07939 -0.05294,-0.13234 0,-0.05293 0.05294,-0.05293 0.07939,0 0.07939,0.105872 0.07939,0 0.105874,-0.31761 l -0.05294,0.05294 q -0.07939,0 -0.264678,-0.529352 l -0.397014,-0.502885 q 0,-0.132337 0.05294,-0.132337 0.423483,0.55582 0.502886,0.608754 h 0.02647 l -0.02647,-0.07939 0.02647,-0.07939 -0.07939,0.05294 -0.02647,-0.05294 v -0.105867 q 0,-0.05293 0.07939,-0.05293 0.158804,0.238211 0.185275,0.238211 0.02647,0 0.02647,-0.02647 -0.132343,-0.291144 -0.238211,-0.291144 l -0.105871,0.05293 -0.02647,-0.05293 q 0,-0.07939 0.07939,-0.07939 v -0.02647 h -0.05294 l -0.13234,0.05294 q -0.344054,-0.423532 -0.555794,-0.555868 0,-0.02647 0.105872,-0.07939 0.105871,0 0.105871,0.105868 h 0.02647 q -0.02647,-0.185272 -0.476428,-0.423483 h -0.158808 l 0.05294,0.07939 q 0,0.05293 -0.05294,0.05293 -0.211739,-0.105872 -0.264675,-0.105872 v 0.02647 q 0.423484,0.264678 0.423484,0.317611 -0.105875,0.264678 -0.211743,0.264678 0,-0.158806 -0.79403,-0.476418 l -0.158804,0.185272 0.05294,0.02647 q -0.05294,0.02647 -0.13234,0.02647 -0.529353,-0.132342 -0.529353,-0.291143 l -0.158806,0.105872 -0.02647,-0.05293 q 0.105871,-0.105872 0.211743,-0.105872 0.07939,0 0.07939,0.105872 l 0.05294,-0.02647 q 0.105868,0 0.291143,0.105871 0.02647,-0.05294 0.05294,-0.05294 l 0.158807,0.02647 0.05294,-0.07939 -0.211743,-0.02647 -0.185271,0.02647 q -0.02647,-0.185272 -0.105872,-0.185272 -0.21174,0 -0.31761,0.05293 -0.661699,-0.132336 -0.84697,-0.132336 l -0.07939,0.02647 v 0.05294 l 0.07939,-0.05294 q 0,0.13234 -0.211743,0.158807 h -0.02647 l -0.132339,-0.07939 -0.02647,0.105871 h -0.132333 q -0.07939,0.07939 -0.158808,0.07939 l 0.02647,0.05293 q 0,0.105868 -0.317612,0.185272 l -0.873432,0.423483 -0.02647,-0.02647 -0.05294,0.02647 -0.105872,-0.05293 q 0,0.07939 -0.07939,0.07939 -0.05294,0 -0.05294,-0.05294 0.05294,-0.07939 0.05294,-0.13234 -0.02647,0 -0.185275,0.264679 -0.291143,0.132336 -0.291143,0.238211 Q 24.39,33.514684 24.39,33.620552 l 0.07939,-0.05293 q 0,0.02647 0.02647,0.02647 L 24.46939,33.48822 q 0.05294,0 0.13234,0.105868 l -0.105872,0.132342 0.05294,0.07939 -0.07939,0.05293 q -0.07939,0 -0.07939,-0.132336 h -0.05294 q 0,0.105875 0.07939,0.185273 v 0.158766 h -0.02647 q -0.13233,-0.105872 -0.211733,-0.105872 l 0.02647,0.264676 -0.211741,-0.185271 v 0.02647 q 0.07939,0.105871 0.07939,0.211743 l -0.07939,0.02647 q -0.02647,-0.02647 -0.132338,-0.02647 l -0.02647,0.07939 0.158804,0.02647 q 0,0.07939 -0.264676,0.132339 -0.158807,-0.07939 -0.185272,-0.132339 0,-0.07939 0.05294,-0.07939 -0.05293,-0.105876 -0.05293,-0.158811 l 0.05293,-0.02647 0.07939,0.02647 q 0,-0.07939 0.211739,-0.07939 v -0.02647 q -0.158804,0 -0.23821,-0.05294 l 0.02647,-0.105875 -0.02647,-0.158807 q 0.02647,-0.105871 0.105872,-0.105871 l -0.05294,-0.132336 -0.07939,0.05294 q -0.05294,0 -0.05294,-0.07939 h -0.02647 l 0.02647,0.07939 q 0,0.158807 -0.238208,0.317611 v 0.02647 l 0.185272,-0.02647 q 0,0.05294 -0.34408,0.34408 l -0.02647,-0.05291 q 0,0.07939 -0.05294,0.07939 -0.02647,-0.13234 -0.158807,-0.238211 v -0.13234 q 0,-0.05293 0.07939,-0.05293 -0.13234,-0.21174 -0.13234,-0.264676 h -0.105861 l 0.02647,0.132339 q -0.105872,0 -0.105872,-0.07939 h -0.07939 q -0.158808,0 -0.158808,-0.132336 h 0.05293 q -0.05291,-0.105896 -0.05291,-0.211767 l 0.07939,-0.02647 q 0,-0.05293 -0.05294,-0.05293 0,0.02647 -0.02647,0.02647 -0.07939,-0.105875 -0.07939,-0.13234 -0.02647,0 -0.02647,0.02647 0.05294,0.07939 0.05294,0.158807 h -0.05294 l -0.05294,-0.158807 -0.05294,0.02647 q -0.05294,-0.07939 -0.05294,-0.185272 0.05294,0 0.105868,0.05293 v -0.02647 q -0.05292,-0.158817 -0.291131,-0.449963 h -0.05294 q 0,0.158807 -0.07939,0.158807 -0.105872,-0.05293 -0.105872,-0.158807 l -0.07939,0.05294 q -0.05294,-0.07939 -0.05294,-0.317609 0.264678,-0.661691 0.370546,-0.661691 0.34408,-0.185276 0.397016,-0.264679 0,0.02647 0.02647,0.02647 0,-0.07939 0.449951,-0.238211 l 0.02647,-0.05294 0.132339,0.02647 q 0.264675,-0.105874 0.582289,-0.158804 0,-0.105871 0.07939,-0.105871 l 0.105871,0.07939 q 0.317612,-0.132336 0.317612,-0.185275 0.02647,-0.07939 0.05294,-0.07939 h 0.291144 q 0,-0.07939 0.05294,-0.07939 0.07939,0.05294 0.158808,0.05294 l 0.105871,-0.07939 0.05294,0.02647 q 0,-0.07939 0.370546,-0.185275 0,-0.02647 0.238214,-0.105871 0,-0.132337 0.291143,-0.158808 l 0.741079,-0.555849 q 0.05294,0 0.158807,-0.105875 l 0.105871,0.02647 -0.05294,-0.07939 0.05294,-0.02647 q 0.02647,0.05294 0.05294,0.05294 0.07939,-0.238211 0.185272,-0.238211 0.05293,0.05294 0.132339,0.05294 0.264679,-0.158807 0.264679,-0.291143 -0.05293,0 -0.07939,-0.07939 0.02647,-0.158808 0.211743,-0.158808 l -0.02647,-0.05294 q 0,-0.132336 0.291143,-0.185271 0,-0.05293 0.185275,-0.13234 l -0.02647,-0.07939 q 0.264676,-0.105871 0.264676,-0.238211 0.132339,-0.02647 0.132339,-0.158804 l -0.05294,-0.07939 0.158807,0.02647 -0.02647,-0.05294 0.02647,-0.05294 q -0.02647,0 -0.07939,-0.07939 0.05293,0 0.211747,-0.23821 0.158804,0 0.185272,-0.21174 h 0.05294 l -0.02651,-0.158786 q 0.105868,0 0.105868,-0.05294 -0.07939,0 -0.07939,-0.07939 0.105868,-0.02647 0.42348,-0.635227 0.02647,0 0.02647,-0.02647 l -0.02647,-0.105869 0.05294,-0.02647 q 0,0.02647 0.07939,0.07939 h 0.02647 q -0.07939,-0.105912 -0.07939,-0.185315 l 0.02647,-0.105874 -0.02647,-0.07939 0.05294,-0.02647 -0.02647,-0.07939 q 0,-0.211743 0.185272,-0.211743 l -0.02647,-0.05294 q 0,-0.02647 0.158807,-0.132337 h 0.158808 v 0.07939 H 29.6571 l 0.02647,0.05294 -0.02647,0.05293 q 0.05293,0 0.07939,0.105871 0,0.07939 -0.105871,0.07939 0,0.529353 -0.185272,0.529353 v 0.02647 q 0.105875,0 0.105875,0.07939 h -0.158836 v -0.05294 h -0.02647 v 0.07939 q 0.05293,0 0.05293,0.05294 l -0.07939,0.291153 h 0.05294 q 0.05294,-0.185275 0.132339,-0.185275 -0.05294,0.344078 -0.185271,0.344078 l 0.05294,0.07939 -0.05294,0.264676 q 0,0.07939 0.05294,0.07939 0.132338,-0.608756 0.344081,-0.608756 0.105871,-0.397014 0.21174,-0.397014 l -0.05294,-0.07939 q 0.132339,0 0.370546,-0.370549 l 0.02647,-0.529354 h -0.02647 q 0,0.423484 -0.158804,0.608756 0,0.05294 -0.05294,0.05294 l -0.02647,-0.07939 q 0.02647,-0.238211 0.158804,-0.238211 v -0.05294 q -0.105868,0 -0.105868,-0.211743 l 0.05294,-0.105869 q -0.07939,0 -0.07939,-0.05294 0,-0.07939 0.105872,-0.07939 v -0.211739 q 0,-0.05293 0.07939,-0.05293 v -0.1324 l -0.105869,-0.105875 0.02647,-0.370546 q -0.05294,0 -0.05294,-0.05294 l 0.02647,-0.238211 q -0.105875,-0.185272 -0.105875,-0.264679 0.07939,0 0.07939,-0.05293 0,-0.05294 -0.264679,-0.423482 0,-0.158807 0.07939,-0.158807 0.185273,0 0.291143,0.979307 l 0.105872,0.397014 -0.05294,0.02647 q 0,-0.02647 -0.02647,-0.02647 v 0.05294 q 0.132342,0.158804 0.132342,0.55582 h 0.02647 l 0.02647,-0.608756 q 0.07939,-0.02647 0.07939,0.05294 v 0.608756 h 0.02647 q 0.07939,-0.238212 0.105871,-0.661692 0,-0.132336 -0.211739,-0.714625 l -0.02647,-0.158808 0.05294,-0.105868 q 0,-0.34408 -0.661692,-0.952838 -0.185301,-0.344074 -0.423508,-0.555816 l -0.05294,0.02647 q -0.291144,-0.238217 -0.423484,-0.238217 0,0.132339 -0.05294,0.132339 -0.05294,0 -0.05294,-0.07939 h -0.02647 q -0.238217,0.291143 -0.264685,0.291143 h -0.105868 v -0.07939 q -0.317613,0 -0.423484,-0.158804 l -0.158792,-0.02648 q -0.185274,0 -0.47642,0.05294 -0.07939,0 -0.211743,-0.05294 v 0.05294 q -0.185272,0 -0.264678,-0.158807 0.02647,-0.07939 0.158807,-0.07939 l 0.02647,0.105872 0.05294,-0.13234 -0.05294,-0.07939 -0.05294,0.05294 q -0.07939,0 -0.07939,-0.07939 0,-0.05293 0.132339,-0.05293 -0.05294,-0.07939 -0.211739,-0.185271 l -0.02647,0.02647 0.02647,0.07939 q -0.07939,0.05294 -0.158804,0.05294 h -0.423479 q -0.344081,0.07939 -0.449951,0.07939 -0.105871,0 -0.105871,-0.05294 0.05294,-0.05294 0.661692,-0.185275 v -0.05292 q -0.07939,0 -0.07939,-0.05294 h -0.02647 q 0,0.105874 -0.05294,0.105874 -0.05294,0 -0.105872,-0.105874 0,-0.02647 0.264682,-0.105872 v -0.02647 h -0.15881 q -0.185273,0 -0.185273,0.211743 h -0.02647 q -0.05294,-0.05294 -0.05294,-0.105871 h -0.02647 q 0,0.185272 -0.185274,0.185272 -0.317613,0.02647 -0.423484,0.105872 h -0.05294 l -0.02647,-0.105872 0.105875,-0.05294 v -0.02647 h -0.07942 q -0.449951,0.07939 -0.449951,0.238208 l 0.05293,-0.02647 0.02647,0.02647 0.05294,-0.02647 q 0.05294,0.02647 0.05294,0.132336 l -0.07937,-0.07936 q -0.211743,0.158806 -0.211743,0.211742 0.317613,-0.105868 0.397015,-0.105868 0.05294,0 0.158807,0.185272 l -0.02647,0.132339 -0.05294,-0.02647 q -0.07939,0 -0.68816,0.211743 0,0.132339 0.132336,0.291143 -0.264673,0.158811 -0.555816,0.158811 l -0.07939,-0.02647 q 0,0.105871 -0.07939,0.105871 0,-0.185271 0.07939,-0.185271 l 0.105872,0.02647 q 0,-0.105869 0.291143,-0.105869 l -0.02647,-0.05294 q 0,-0.05294 0.105871,-0.05294 v -0.132348 q -0.05294,0 -0.264675,0.211742 l -0.158795,-0.07939 q -0.344081,0.317611 -0.423483,0.317611 -0.264678,0.105871 -0.397014,0.185272 l 0.05294,0.105875 q -0.05294,0.132336 -0.132339,0.185275 -0.02647,0 -0.02647,-0.02647 l 0.02647,-0.105872 -0.158808,-0.07939 q -0.02647,0.158807 -0.132336,0.158807 v 0.05294 l 0.105868,-0.02647 v 0.05294 h -0.05294 v 0.02647 q 0.105872,0 0.105872,0.05294 l -0.264678,0.13234 0.02647,-0.158808 h -0.02647 q -0.158807,0.132336 -0.185273,0.132336 0,0.02647 0.13234,0.07939 -0.13234,0.158804 -0.13234,0.185276 h -0.05294 l 0.02647,-0.13234 q -0.132339,0 -0.211743,0.211743 l 0.07939,0.02647 q 0,0.185272 -0.264675,0.291144 l -0.02647,0.158807 h -0.05294 v -0.07939 q -0.05294,0 -0.07939,0.132339 l 0.02647,0.07939 -0.05294,0.02647 -0.02647,-0.02647 q 0,0.05293 -0.211741,0.370548 h -0.185274 q 0,0.07939 -0.105868,0.31761 l 0.07939,0.07939 -0.13234,0.370548 h -0.05294 v 0.07939 h 0.02647 v -0.05293 h 0.05294 q 0.132336,0.185272 0.132336,0.264679 l -0.07939,0.264676 q 0.13234,-0.105871 0.185272,-0.105871 0,0.317611 -0.07939,0.317611 l 0.02647,0.05294 q 0,0.02647 -0.07939,0.07939 -0.05294,0 -0.158804,-0.264676 -0.05294,0 -0.07939,0.05294 l 0.02647,0.05294 q -0.05294,0 -0.23821,-0.132342 -0.105869,-0.05294 -0.21174,-0.05294 l -0.05294,0.105871 q 0.105871,0.185275 0.105871,0.238211 l 0.185272,-0.02647 q 0.02647,0.05294 0.02647,0.132339 h -0.05294 l 0.264676,0.291144 -0.05294,0.02647 -0.132336,-0.02647 q 0,0.05294 -0.13234,0.132339 h -0.105871 q -0.02647,0 -0.07939,-0.07939 v -0.02647 h 0.158807 q 0,-0.05294 -0.158804,-0.05294 -0.05293,0 -0.05293,0.105872 l 0.13234,0.105868 -0.13234,0.529354 q 0.13234,0.158804 0.158807,0.344079 0.07939,0.05294 0.211743,0.05294 0.105869,-0.07939 0.238214,-0.07939 h 0.344054 q 0.05294,0 0.05294,0.05294 l -0.02647,0.132338 0.397017,-0.132338 q 0,0.02647 0.02647,0.02647 -0.344096,0.502875 -0.952855,0.502875 -1.773332,-0.105872 -2.223281,-1.085175 0,-0.05294 -0.794032,-1.693931 0.926368,-0.688158 0.926368,-0.79403 0.05294,-0.317592 0.238212,-0.317592 v -0.05292 h -0.07939 q 0,-0.105872 0.238211,-0.370549 l -0.02647,-0.105872 q 0.02647,0 0.238211,-0.158807 l -0.02647,-0.05294 q 0.42347,-0.370548 0.42347,-0.502884 0.132339,0 0.132339,-0.05294 0,-0.05294 0.105868,-0.185274 -0.05294,-0.05294 -0.05294,-0.07939 0.185272,-0.158805 0.264676,-0.264676 h 0.132339 l -0.02647,-0.105874 0.05294,-0.02647 q 0,0.05293 0.05294,0.05293 l -0.02647,-0.185272 0.158806,-0.132339 0.02647,0.07939 0.105872,-0.105872 0.05294,0.02647 q 0.105871,-0.05294 0.185275,-0.05294 0,-0.05294 -0.02647,-0.07939 l 0.05294,-0.02647 q 0.07939,0.158807 0.105868,0.158807 l 0.02647,-0.05294 -0.05294,-0.07939 0.02647,-0.105871 0.15881,0.02647 0.07939,-0.02647 q 0,0.05294 0.05294,0.05294 0.02647,-0.105872 0.07939,-0.105872 l 0.07939,0.05294 -0.02647,-0.132336 q 0.05294,-0.02647 0.264676,-0.05294 v -0.02647 h -0.05294 v -0.02647 q 0.794031,-0.582267 0.899903,-0.582267 0.502885,-0.185273 0.79403,-0.317613 h 0.02647 v 0.05294 q -0.158808,0.158804 -0.926367,0.55582 -0.05293,0.07939 -0.13234,0.13234 v 0.05294 q 0.105871,0 0.211743,0.185271 0,-0.105871 0.05294,-0.105871 0.02647,0 0.105871,0.132339 -0.05294,0 -0.05294,0.05294 h 0.05294 Q 23.41071,21.60433 23.51658,21.60433 l 0.02647,0.02647 q 0,-0.05294 0.07939,-0.07939 0.07939,-0.02647 0.105874,0 0,-0.132339 0.158804,-0.132339 v -0.132337 q -0.105868,0 -0.105868,-0.05294 0,-0.05294 0.07939,-0.05294 l 0.158804,0.105868 q 0.05293,-0.05294 0.05293,-0.105868 l -0.105871,0.02647 q 0,-0.13234 0.05294,-0.13234 0,0.05294 0.158806,0.13234 v -0.02647 q -0.05294,0 -0.105874,-0.211743 0.105874,0 0.158804,0.264676 h 0.05294 l 0.132337,-0.238211 h 0.132339 l -0.02647,0.132336 q 0.291144,0 0.397015,-0.105872 h 0.13234 l 0.02647,-0.105871 q -0.02647,0 -0.02647,-0.02647 l 0.132339,0.05294 q 0.158804,0 0.529352,-0.105872 0.07939,0 0.185272,0.05294 0,-0.07939 0.07939,-0.07939 l 0.105875,0.05294 q 0.02647,0 0.02647,-0.02647 -0.105874,0 -0.105874,-0.105871 h 0.132338 q 0.13234,0.132336 0.185273,0.132336 0,-0.05294 0.05294,-0.05294 l 0.05294,0.02647 q 0.02647,-0.105872 0.132339,-0.105872 v 0.07939 h 0.02647 q 0,-0.05293 0.02647,-0.05293 l 0.185275,0.02647 q 0.05294,-0.07939 0.05294,-0.238211 l -0.05294,0.02647 q 0,-0.02647 -0.02647,-0.07939 0,-0.07939 0.158807,-0.07939 0.105869,0.02647 0.105869,0.07939 l -0.02647,0.185272 0.02647,0.02647 q 0.05294,-0.23821 0.132342,-0.23821 h 0.264678 l 0.07939,-0.05294 q 0.185272,0.105874 0.185272,0.370547 l 0.05294,-0.02647 -0.02647,-0.05294 V 20.49268 q 0,-0.05294 0.07939,-0.05294 0.291144,0.132338 0.370548,0.132338 0.02647,-0.05294 0.05293,-0.05294 0.13234,0.105872 0.502886,0.211743 l 0.211741,-0.02647 q 0.502886,0.07939 1.191044,0.714627 l -0.05294,0.02647 -0.264678,-0.02647 q 0.291143,0.21174 0.423483,0.58229 l 0.05294,0.02647 0.02647,-0.02647 q -0.05295,-0.105905 -0.158823,-0.238245 h 0.105872 q -0.185243,-0.18535 -0.23818,-0.18535 v -0.07939 q 0.23821,0 0.449949,0.344078 0.158804,0 0.211743,0.23821 l -0.05293,0.02644 q 0.55582,0.714627 0.55582,0.952835 0.264679,0.661692 0.370548,1.799802 -0.07939,0 -0.185275,0.211743 -0.07939,0 -0.132339,-0.02647 0.02647,0.07939 0.07939,0.132339 l -0.132339,0.158807 0.05294,0.105871 q -0.02647,0.02647 -0.132337,0.02647 v 0.02647 q -0.0794,0.979302 -0.264685,0.979302 l 0.02647,0.05294 -0.132336,0.370548 q 0.02647,0 0.02647,0.02647 l -0.105871,0.02647 0.02647,0.05294 q 0,0.07939 -0.07939,0.07939 v 0.02647 q 0.105871,0 0.105871,0.07939 -0.05294,0 -0.05294,0.05294 0.07939,0 0.07939,0.05294 0,0.158808 -0.132336,0.317612 0.105869,0 0.105869,0.07939 -0.132339,0.397014 -0.21174,0.397014 l 0.02647,0.07939 q -0.07939,0 -0.158804,0.23821 -0.105872,0 -0.23821,0.291144 -0.211743,0.132336 -0.211743,0.185275 -0.105869,0.370547 -0.291144,0.370547 l 0.02647,0.05294 q 0,0.05294 -0.05294,0.05294 -0.02647,0 -0.264676,-0.185275 h -0.02647 q 0.264676,0.211741 0.264676,0.264679 -0.02647,0.105875 -0.07939,0.105875 -0.05293,0 -0.105874,-0.05294 -0.07939,0.132339 -0.105872,0.34408 -0.05294,0.07939 -0.105875,0.07939 l 0.02647,0.105867 -0.05294,0.02647 -0.185276,-0.132336 q 0.02647,0 0.105872,0.132336 v 0.05294 l -0.07939,0.13234 q 0.02647,0 0.07939,0.07939 -0.264679,0.05293 -0.264679,0.158808 l 0.13234,-0.02647 q 0,0.02647 -0.238211,0.238208 l -0.13234,-0.02647 0.02647,0.158808 q 0.582289,0.211739 0.582289,0.264676 l -0.952841,-0.158792 v 0.05294 h -0.05295 v -0.07939 h -0.132336 q 0.02647,0.05294 0.05293,0.05294 l -0.02647,0.132337 h -0.02647 q 0,0.105871 0.105871,0.132339 l 0.158801,-0.02644 q 0.02647,-0.05294 0.05294,-0.05294 0.02647,0.02647 0.02647,0.07939 0,0.05294 -0.05294,0.07939 h 0.07939 q 0.105874,-0.07939 0.185275,-0.07939 0,0.02647 0.02647,0.02647 l -0.02647,0.105871 0.105871,0.185272 q -0.105871,0 -0.714626,-0.344078 h -0.07939 l 0.02647,0.105872 -0.02647,0.02647 -0.07939,-0.02647 q 0,0.05294 0.370546,0.132337 0.02647,0.05294 0.05294,0.05294 l 0.13234,-0.02647 q 0.05294,0.05294 0.05294,0.132339 0.07939,-0.05294 0.132336,-0.05294 l 0.211747,0.05294 q 0,-0.05294 0.07939,-0.05294 l -0.0794,-0.105871 v -0.02647 h 0.07939 q 0.02647,0 0.105868,0.105869 v 0.07939 l 0.105875,0.02647 q 0,-0.05294 0.05294,-0.05294 0.05294,0 0.05294,0.07939 h 0.02647 q 0.02647,-0.211743 0.105871,-0.211743 l 0.02647,0.07939 -0.132336,0.238211 0.317611,-0.02647 q 0.13234,0.05294 0.13234,0.105871 0,0.05293 -0.05294,0.05293 l -0.07939,-0.02647 v 0.02647 q 0.158804,0.158804 0.476417,0.317612 l 0.05294,0.07939 q 0.105872,0 0.105872,-0.07939 h 0.05294 v 0.132336 q 0,0.02647 0.502883,0.58229 v 0.105872 l -0.02647,0.05293 0.132339,-0.02647 q 0.02647,0 0.02647,0.291143 h 0.02647 q 0,-0.238208 0.05293,-0.238208 0.05294,0.05294 0.05294,0.132337 0.02647,0.07939 -0.02647,0.132338 l 0.02647,0.07939 q -0.02647,0 -0.02647,0.02647 0.07939,0 0.07939,0.132336 l 0.132336,-0.02647 0.02647,0.05294 q 0,0.07939 -0.07939,0.07939 v 0.02647 q 0.105869,0 0.105869,0.05293 0,0.07939 -0.02647,0.07939 0.05294,0.105869 0.105872,0.105869 0.185272,0 0.185272,-0.05293 l -0.02647,-0.07939 q 0.02647,-0.02647 0.105868,0 0.07939,0.02647 0.07939,0.158808 0,0.105871 -0.238211,0.132339 v 0.02647 q 0.291143,0 0.291143,0.132336 0.02647,0.132339 0.132339,0.238211 -0.02647,0.105874 -0.264682,0.291142 h 0.02647 q 0.185272,-0.105867 0.264679,-0.105867 0,0.02647 0.02647,0.02647 -0.05294,0.185272 -0.05294,0.31761 0,0.05293 0.05294,0.05293 l -0.02647,0.370544 q 0.132336,0 0.132336,0.344079 -0.02647,0.317613 -0.07939,0.317613 l -0.158827,-0.105867 q -0.02647,0.185262 -0.158808,0.317611 l 0.05294,0.02647 q 0.05294,-0.05293 0.05294,-0.132339 l 0.07939,0.02647 q 0,-0.158801 0.05294,-0.158801 0.07939,0.105878 0.07939,0.158801 l -0.02647,0.07938 q 0.05294,0 0.05294,0.07938 0,0.05293 -0.05294,0.05293 -0.05294,0 -0.07939,-0.02641 0,0.211752 0.05294,0.370545 -0.132339,0.264679 -0.211743,0.794033 -0.105874,0.211737 -0.158807,0.502883 -0.05294,0 -0.264679,0.132325 h -0.07941 q 0,0.132323 -0.158807,0.238207 0.05294,0 0.05294,0.105884 h -0.158797 q -0.317614,0.873433 -0.555823,0.873433 l 0.02647,0.07944 -0.264679,0.344088 0.02647,0.05294 q 0,0.05294 -0.158804,0.05294 l 0.02647,0.05294 q 0,0.07942 -0.158807,0.07942 v 0.02629 q 0.132336,0 0.132336,0.05294 0,0.05295 -0.105871,0.05295 0.07939,0.05294 0.07939,0.105883 -0.158804,0.29115 -0.264679,0.29115 l -0.132339,-0.02629 -0.07939,0.132325 H 29.5511 v -0.07944 q 0.132336,0 0.132336,0.105883 -0.264678,0.476416 -0.449948,0.502884 l 0.05293,0.07942 q -0.238214,0.02629 -0.238214,0.185266 -0.105872,0 -0.476417,0.291149 l -0.211743,0.05294 q 0,-0.02629 -0.02647,-0.02629 0,0.211767 -0.370547,0.37055 0,-0.02629 -0.02647,-0.02629 0,0.105884 -0.05294,0.105884 -0.02647,0 -0.264679,-0.317617 v 0.02629 q 0.185275,0.264678 0.185275,0.344085 0,0.05294 -0.07939,0.07944 -0.105875,0 -0.105875,-0.07944 -0.238211,0.132323 -0.238211,0.344088 l -0.105865,-0.02629 q 0,0.105884 -0.05294,0.105884 L 27.169,42.778879 q 0,0.105883 -0.05294,0.105883 -0.158804,-0.158794 -0.158804,-0.238207 -0.02647,0 -0.02647,0.02629 0.05294,0.07942 0.05294,0.211768 -0.158804,0.07944 -0.158804,0.132323 l 0.02647,0.105884 -0.132339,-0.02629 q -0.185272,0 -0.21174,0.07944 l 0.05294,0.02629 0.07939,-0.02629 v 0.02629 q -0.211743,0.158795 -0.423484,0.158795 l -0.02647,-0.07942 h -0.02647 q -0.02647,0.185266 -0.238211,0.185266 -0.07939,0 -0.07939,-0.132325 -0.211741,0.132325 -0.317609,0.132325 0,-0.05294 0.07939,-0.05294 v -0.02629 q -0.05294,0 -0.158804,-0.07944 h -0.02647 l 0.05293,0.07944 q -0.02647,0 -0.07939,0.07941 0.02647,0 0.02647,0.02629 l -0.05294,0.02629 q 0,-0.02629 -0.02647,-0.02629 0,0.07944 -0.05293,0.07944 h -0.105884 q -0.05294,0 -0.05294,-0.07944 -0.05294,0 -0.05294,0.07944 l 0.02647,0.07941 q -0.07939,0 -0.132338,-0.05294 0,0.105885 -0.05294,0.105885 l -0.02647,-0.07942 h -0.07939 q 0,0.185266 -0.397015,0.185266 -0.05294,-0.158796 -0.238211,-0.158796 l 0.05293,0.07944 q -0.317573,0.05249 -0.396976,0.105433 l -0.264676,-0.02629 z M 26.29567,20.624803 h -0.07939 q 0,-0.105872 0.05294,-0.105872 z m 0.185271,0 -0.02647,-0.05294 q 0,-0.05293 0.05294,-0.05293 l 0.02647,0.05293 q 0,0.05294 -0.05294,0.05294 z m -1.482188,0.05294 q -0.05294,0 -0.05294,-0.05294 l 0.07939,-0.05294 0.02647,0.05294 q 0,0.05294 -0.05294,0.05294 z m 0.741096,0.05294 h -0.105868 q 0.02647,-0.105871 0.185272,-0.105871 0.07939,0 0.07939,0.05294 -0.105871,0.05294 -0.158808,0.05294 z m 1.032239,0 q -0.07939,0 -0.07939,-0.05293 0.02647,-0.05294 0.05294,-0.05294 z m -2.805572,0.132338 q -0.05294,0 -0.05294,-0.05294 l -0.05294,0.02647 q -0.05294,0 -0.05294,-0.158807 h 0.05294 q 0.05294,0 0.05294,0.07939 l 0.05294,-0.02647 q 0.05293,0 0.05293,0.05294 0,0.07939 -0.05293,0.07939 z m 1.296913,-0.02647 q -0.105871,0 -0.105871,-0.05294 l 0.132342,-0.07939 q 0.05294,0 0.05294,0.05294 0,0.02647 -0.0794,0.07939 z m 0.317612,-0.05294 h -0.07939 v -0.07939 h 0.02647 q 0.05294,0 0.05294,0.07939 z m -0.820498,0.185271 -0.05294,-0.07939 0.05294,-0.02647 h 0.105872 q 0.05293,0 0.05293,0.07939 z m -1.985075,0.05294 q 0,-0.132339 0.05294,-0.132339 h 0.05293 v 0.02647 q -0.05293,0.105872 -0.105871,0.105872 z m -0.185272,0.105872 q -0.07939,0 -0.07939,-0.05294 l 0.21174,-0.132336 q 0,0.132336 -0.132336,0.185272 z m 1.111643,0.132339 h -0.07939 q 0,-0.05294 0.05294,-0.07939 h 0.02647 z m -0.370547,0.291144 h -0.13234 v -0.07939 q 0.185276,0 0.185276,-0.158808 l 0.132336,0.105869 q 0,-0.158808 0.05294,-0.158808 l 0.105875,0.07939 h 0.132339 q 0,0.07939 -0.132339,0.13234 l -0.07939,-0.02647 z m -0.105871,-0.185275 h -0.02647 q 0,-0.05294 0.05293,-0.07939 h 0.02647 q 0,0.07939 -0.05294,0.07939 z m 1.799802,0.07939 v -0.02644 q 0.07939,-0.13234 0.105871,-0.13234 0.05294,0.02647 0.05294,0.05294 0,0.105872 -0.158804,0.105872 z m 0.211743,0.211743 q -0.05294,0 -0.05294,-0.07939 0,-0.105874 0.05294,-0.105874 0.05293,0.02647 0.05293,0.105874 0,0.07939 -0.05293,0.07939 z m 0.9793,0 q -0.02647,-0.02647 -0.02647,-0.07939 0,-0.07939 0.158807,-0.105874 h 0.158808 q 0.05294,0.02647 0.05294,0.07939 z m -3.070246,0.02647 -0.02647,-0.07939 h 0.02647 q 0.05294,0 0.05294,0.05294 z m 2.382089,0.34408 q -0.185272,0 -0.185272,-0.05294 0,-0.05294 0.07939,-0.07939 l 0.07939,0.05294 q 0,-0.05294 0.105872,-0.05294 0,-0.07939 -0.105872,-0.132337 l -0.05294,0.02647 q 0,-0.02647 -0.02647,-0.07939 0,-0.07939 0.158804,-0.07939 0.05294,0 0.05294,0.238211 l 0.132337,-0.05294 0.07939,0.02647 v 0.05293 q -0.07939,0 -0.317611,0.13234 z m 0.608757,-0.07939 q -0.05294,0 -0.05294,-0.05294 0,-0.105869 0.211746,-0.132337 0,-0.07939 0.344078,-0.132339 0.105872,0.02647 0.105872,0.07939 0,0.05294 -0.370547,0.158807 0,-0.02647 -0.02647,-0.02647 0,0.02647 -0.211743,0.105868 z m -0.767563,-0.158803 h -0.07939 q 0,-0.105875 0.05294,-0.105875 z m -3.837812,0.05294 q -0.13234,0 -0.13234,-0.07939 l 0.264676,-0.02647 v 0.05294 q 0,0.05294 -0.132336,0.05294 z m 3.573136,0.370548 q -0.05294,0 -0.105875,-0.07939 0,-0.07939 0.185276,-0.105875 l -0.05294,-0.07939 0.05294,-0.02647 q 0.05294,0.05294 0.05294,0.105874 l 0.07939,-0.02647 v 0.05294 q -0.02647,0 -0.211743,0.158807 z m 3.626067,-0.132344 h -0.05294 v -0.02647 q 0.02647,-0.105872 0.07939,-0.105872 h 0.05294 v 0.02647 q -0.05294,0.105872 -0.0794,0.105872 z m 0.846969,0.979305 -0.02647,-0.05293 0.02647,-0.105872 q 0,-0.105874 -0.238211,-0.238213 -0.105872,-0.185273 -0.105872,-0.291144 -0.05294,0 -0.05294,0.07939 H 29.1277 l -0.264666,-0.158817 q 0,-0.07939 0.291146,-0.317611 h 0.05294 l 0.476416,0.476419 -0.105872,0.105871 0.07939,0.05294 0.07939,-0.02647 q 0.105872,0 0.238212,0.291144 -0.211741,0.185272 -0.397016,0.185272 z m -2.196819,-0.95281 h -0.158808 v -0.05294 h 0.158808 z m 0.449951,0.02647 h -0.05293 q -0.05294,0 -0.05294,-0.07939 l 0.105869,0.02647 z m 1.032237,0.05294 -0.02647,-0.05294 q 0,-0.07939 0.05294,-0.07939 0.05294,0 0.05294,0.05294 0,0.02647 -0.07939,0.07939 z m -2.223282,-0.05294 h -0.07939 v -0.05293 h 0.07939 z m 1.720397,0.105871 q -0.397014,-0.0794 -0.397014,-0.132341 l 0.07939,-0.02647 0.317614,0.105871 z m 2.567365,0.158807 q -0.02647,0 -0.13234,-0.158807 v -0.02647 h 0.02647 q 0.105872,0.05294 0.105872,0.185275 z m -3.308461,0.02647 -0.158804,-0.02647 v -0.05294 l 0.158804,0.02647 z m -3.811343,0.185278 h -0.105871 q 0,-0.07939 0.07939,-0.07939 0.07939,0.02647 0.07939,0.05294 z m 4.578906,0.07939 -0.02647,-0.105871 h 0.07939 q 0,0.105871 -0.05293,0.105871 z m -4.049553,0.05293 q -0.105869,0 -0.105869,-0.05293 l 0.105869,-0.02647 q 0.05294,0.02647 0.05294,0.05294 z m 4.3407,0.105875 q -0.05294,-0.02647 -0.05294,-0.105884 h 0.05294 q 0.05294,0.02647 0.05294,0.05294 0,0.05294 -0.05294,0.05294 z m 0.211739,0.158806 q -0.05294,0 -0.07939,-0.105871 0,-0.05294 0.05294,-0.05294 0.07939,0.02647 0.07939,0.07939 0,0.07939 -0.05294,0.07939 z m 0.714627,0.344077 h -0.05294 q 0,-0.05294 -0.158806,-0.291147 v -0.05292 q 0.07939,0 0.211739,0.344081 z m 0.688159,0.264675 h -0.05294 q -0.05294,-0.211742 -0.05294,-0.291142 0.05294,-0.05294 0.05294,-0.291144 0.05294,0 0.13234,0.291144 l -0.105872,0.105859 z m -0.344078,-0.0794 q -0.105871,0 -0.238211,-0.34408 l 0.05294,-0.02647 q 0.185275,0.264675 0.185275,0.370548 z m -10.295922,-0.02647 -0.02647,-0.05294 0.07939,-0.05294 0.02647,0.05294 z m 9.766568,0.238209 h -0.05294 l -0.02647,-0.158804 h 0.05294 z m 0.238211,1.349851 q -0.02647,-0.02647 -0.105871,-0.02647 0,-0.07939 0.05293,-0.158807 -0.07939,-0.105872 -0.07939,-0.31761 l 0.02647,-0.158807 h 0.07939 l 0.02647,0.185275 0.10587,-0.02647 q 0,0.07939 -0.07939,0.158804 0.02647,0 0.02647,0.02647 l -0.05294,0.02647 q 0,-0.02647 -0.02647,-0.02647 v 0.05294 q 0.07939,0 0.132336,0.105871 -0.05294,0 -0.105871,0.158807 z m 1.746862,0.370555 q -0.105872,0 -0.105872,-0.05294 0,-0.185276 0.211743,-0.397014 h 0.02647 q 0,0.449947 -0.132337,0.449947 z m -1.588058,-0.211743 q -0.07939,0 -0.132343,-0.07939 0.05294,-0.105875 0.07939,-0.105875 l 0.05294,0.07939 q 0,0.02647 -0.02647,0.02647 z m -8.284381,0.158804 q -0.105871,0 -0.105871,-0.07939 h 0.05294 q 0.05294,0.02647 0.05294,0.07939 z m 9.87244,0.264678 q -0.185273,0 -0.211741,-0.07939 0,-0.05294 0.105872,-0.105872 0.05294,0 0.105869,0.07939 z m -0.238212,0.608755 -0.02647,-0.07939 0.05294,-0.291144 -0.02647,-0.211746 h 0.05293 q 0.105872,0 0.105872,0.132339 -0.05294,0.397014 -0.158804,0.449952 z m -0.344079,1.191045 h -0.05294 l 0.02647,-0.105871 -0.02647,-0.264676 q 0,-0.07939 0.13234,-0.34408 l 0.07939,0.02647 v -0.07939 q -0.07939,0 -0.07939,-0.105871 0.07939,0 0.132339,-0.185273 0.105871,-0.05293 0.185276,-0.05293 l 0.02647,0.07939 -0.05294,0.13234 h -0.05294 q -0.05294,-0.05294 -0.105875,-0.05294 0.05294,0.07939 0.05294,0.158804 -0.105868,0.211743 -0.185271,0.608758 -0.05294,0 -0.07939,0.185273 z m -9.713633,-0.211746 q -0.158804,0 -0.21174,-0.158808 0.07939,-0.264676 0.158807,-0.264676 0.05294,0 0.05294,0.07939 l -0.05294,0.13234 q 0.185272,0 0.185272,0.05294 0,0.05294 -0.132339,0.158804 z m 7.331547,0.07939 q 0,-0.105872 0.132336,-0.158808 0.02647,0 0.07939,0.07939 0,0.05294 -0.21174,0.07939 z m -0.13234,0.185271 q 0,-0.07939 0.05293,-0.07939 l 0.02647,0.05294 z m 2.24975,0.13234 0.02647,-0.105872 q -0.105872,0 -0.105872,0.05294 v 0.05294 z m -3.387859,1.455721 h -0.05294 q 0,-0.132337 0.05294,-0.132337 0.05293,0 0.05293,0.05294 0,0.07939 -0.05293,0.07939 z m 2.143881,0.397018 q 0,-0.105872 0.105871,-0.13234 v -0.02647 h -0.07939 q -0.05294,0.07939 -0.05294,0.13234 0,0.02647 0.02647,0.02647 z m 0.05294,0.158807 q 0,-0.105872 0.05294,-0.105872 l 0.02647,0.05294 q -0.05294,0.05294 -0.07939,0.05294 z m -6.087565,1.243979 h -0.07939 v -0.05294 h 0.07939 z m 4.975922,0.185271 -0.105869,-0.02647 v -0.05294 h 0.05294 q 0.05294,0.02647 0.05294,0.07939 z m 0.979302,0.07939 q 0,-0.07939 0.105874,-0.158807 0.05294,0.02647 0.05294,0.05294 0,0.105872 -0.158806,0.105874 z m 0.132343,0.105875 q -0.05293,0 -0.05293,-0.105875 h 0.07939 q 0.05294,0.02647 0.05294,0.05293 -0.05294,0.05294 -0.07939,0.05294 z m 0.926364,0.423482 q -0.105868,0 -0.370545,-0.13234 l -0.105872,0.02647 q 0,-0.185275 -0.05294,-0.185275 l 0.02647,0.05294 -0.05294,0.02647 -0.05294,-0.07939 0.02647,-0.07939 q -0.185275,-0.05294 -0.185275,-0.105871 0.02647,-0.05294 0.05294,-0.05294 0.767561,0.317613 0.767561,0.449953 0,0.05294 -0.05294,0.07939 z m -1.588056,-0.397009 h -0.02647 q 0,-0.05294 0.05294,-0.07939 h 0.02647 q 0,0.07939 -0.05293,0.07939 z m 0.370547,0.238211 q -0.05294,0 -0.05294,-0.05294 l 0.07939,-0.05294 q 0.05294,0 0.05294,0.05294 z m 1.508657,0.370552 q -0.264678,-0.07939 -0.264678,-0.158804 0,-0.05294 0.07939,-0.07939 h 0.05294 q 0.132337,0.05294 0.185272,0.185272 0,0.05294 -0.05294,0.05294 z m -0.79403,-0.02647 q -0.07939,0 -0.07939,-0.05293 l 0.05294,-0.02647 z m 0.238214,0.211741 -0.13234,-0.158808 v -0.05293 h 0.05294 q 0.13234,0.07939 0.13234,0.185275 z m 0.42348,-0.05294 H 30.31876 v -0.05293 h 0.07939 q 0.05294,0 0.05294,0.05293 z m 0.370547,0.132338 q -0.105869,0 -0.105869,-0.05294 0.07939,-0.05293 0.158804,-0.05293 h 0.02647 q 0,0.05293 -0.07939,0.105874 z m 0.264678,0.211743 -0.211743,-0.211743 0.105871,-0.07939 h 0.05294 q 0,0.158804 0.105872,0.264676 z m -3.414329,-0.02647 q -0.158804,0 -0.185272,-0.105871 l 0.07939,-0.02647 q 0.02647,0 0.105871,0.105871 z m 2.80557,0.05295 q -0.10587,-0.02648 -0.158806,-0.132348 l 0.05294,-0.02647 q 0.158807,0.05293 0.158807,0.105871 0,0.05294 -0.05294,0.05294 z m -3.493731,-0.02647 q -0.07939,0 -0.07939,-0.05293 h 0.07939 z m 2.540898,0.05294 -0.02647,-0.05294 0.07939,-0.02647 q 0,0.07939 -0.05294,0.07939 z m 1.720396,0.105869 q -0.05294,0 -0.105872,-0.07939 0.02647,-0.05294 0.07939,-0.05294 0.05294,0 0.105872,0.07939 0,0.05294 -0.07939,0.05294 z m -1.402784,0 q -0.158807,0 -0.185275,-0.105869 h 0.13234 q 0.05293,0.02647 0.05293,0.105869 z m -1.058708,0.07941 q -0.07939,0 -0.07939,-0.05293 l 0.05294,-0.02647 z m 1.905674,0 h -0.07939 q 0,-0.05293 0.05294,-0.07939 h 0.02647 z m -1.005777,0.158807 q -0.07939,0 -0.07939,-0.07939 0,-0.07939 0.13234,-0.105872 l 0.02647,0.05293 q 0,0.132339 -0.07939,0.132339 z m 1.746869,0.05293 q -0.07939,-0.02647 -0.07939,-0.238209 h 0.05294 q 0.07939,0.02647 0.07939,0.185275 0,0.05293 -0.05294,0.05294 z M 27.93667,32.74701 q -0.105869,0 -0.105869,-0.05294 l 0.02647,-0.05293 q 0.132339,0.05293 0.132339,0.07939 z m 2.96438,0.185275 q -0.05294,0 -0.158807,-0.21174 v -0.05294 h 0.02647 q 0.05294,0 0.185272,0.211743 0,0.05293 -0.05294,0.05293 z m -2.752636,-0.105873 q -0.07939,0 -0.07939,-0.07939 l 0.05294,-0.02647 z m -1.985077,0.02647 q -0.07939,0 -0.07939,-0.05293 l 0.05294,-0.05293 z m 3.043781,0.158811 q -0.238211,-0.07939 -0.238211,-0.105875 0,-0.07939 0.07939,-0.105872 l 0.211743,0.105872 v -0.05294 h 0.05294 v 0.07939 q 0,0.07939 -0.105875,0.07939 z m 0.37055,-0.07939 -0.02647,-0.05293 0.05293,-0.02647 0.02647,0.05293 z m -0.317613,0.105866 q 0,-0.05293 0.07939,-0.07939 l 0.02647,0.05294 z m 0.555821,0.370554 -0.397016,-0.264679 0.02647,-0.05293 h -0.07939 q 0,-0.05293 0.105871,-0.07939 0.05294,0 0.05294,0.05293 l -0.02647,0.07939 q 0.105872,0 0.185273,0.07939 l 0.02647,-0.158807 q -0.05294,0 -0.05294,-0.05294 0.02647,-0.05293 0.05294,-0.05293 h 0.02647 q 0.185274,0.07939 0.185274,0.132337 0,0.05294 -0.211743,0.158807 0.105876,0.02647 0.105876,0.07939 z m -3.943691,-0.158821 h -0.02647 q -0.07939,-0.132337 -0.238209,-0.132337 v -0.07939 q 0.158808,0 0.264676,0.158808 z m 5.743484,-0.07939 q -0.05294,0 -0.05294,-0.07939 0,-0.05294 0.05294,-0.05294 0.05294,0 0.05294,0.05294 0,0.07939 -0.05294,0.07939 z m -6.563982,0.423474 q -0.02647,0 -0.07939,-0.07939 l 0.105874,-0.105871 -0.05293,-0.132337 0.05293,-0.02647 0.05294,0.02647 q 0,-0.07939 0.05294,-0.07939 h 0.05294 l -0.02647,0.105875 q 0.05294,0 0.05294,0.05293 -0.158804,0.02647 -0.158804,0.211743 z m -2.487958,-0.238199 v -0.105872 h -0.02647 v 0.105872 z m 8.62846,-0.02647 q -0.05294,0 -0.05294,-0.05293 l 0.05294,-0.02647 q 0.05294,0 0.05294,0.05293 z m 0.635221,0.07939 q -0.07939,0 -0.07939,-0.07939 0,-0.07939 0.05294,-0.07939 l 0.05293,0.02647 q -0.02647,0.05293 -0.02647,0.132339 z m -6.272835,0 q -0.05294,0 -0.105872,-0.07939 v -0.02647 h 0.158804 q 0,0.10587 -0.05294,0.10587 z m -0.873435,0.132338 -0.07939,-0.132338 0.05294,-0.02647 0.07939,0.132338 z m 6.696322,0.02647 q -0.132336,0 -0.132336,-0.05293 l 0.132336,-0.02647 z m 0.502885,0.158804 q -0.05294,0 -0.05294,-0.05293 0.02647,-0.158804 0.07939,-0.158804 h 0.02647 l -0.02647,0.07939 0.02647,0.105875 z m -7.040398,-0.07939 q -0.05294,0 -0.05294,-0.07939 h 0.05294 z m 5.611145,0.34408 Q 30.23935,33.726324 30.23935,33.64692 l 0.05294,-0.02647 q 0.211743,0.132339 0.211743,0.34408 z m -0.02647,0.291143 q -0.07939,0 -0.317613,-0.317612 0.05294,0 0.05294,-0.05293 -0.105875,0 -0.211743,-0.185272 -0.02647,-0.07939 0.05294,-0.07939 h 0.02647 q 0.132343,0.158798 0.185275,0.158798 0.211743,0.264676 0.211743,0.476416 z m 0.899911,-0.370547 -0.07939,-0.07939 q 0.02647,-0.05293 0.07939,-0.05293 0.02647,0 0.07939,0.07939 z m 0.476418,0.02647 h -0.05294 v -0.07939 h 0.05294 z m -2.011543,0.02647 q -0.07939,0 -0.07939,-0.07939 h 0.02647 q 0.05294,0.02647 0.05294,0.07939 z m 0.211742,0.370545 q -0.05294,0 -0.05294,-0.07939 h 0.05294 z m 0.211739,0.714626 h -0.05294 v -0.158815 h 0.05294 z m -0.23821,0.317611 h -0.05293 v -0.132339 h 0.05293 z m 0.317612,0.07939 h -0.05294 v -0.105856 h 0.05294 z m 0.05294,0.397016 q -0.07939,0 -0.07939,-0.05294 v -0.238211 h 0.07939 z m -0.423481,0.211746 -0.02647,-0.05293 0.05294,-0.02647 h 0.02647 q 0,0.07939 -0.05294,0.0794 z m -0.02647,0.185263 -0.05294,-0.05293 0.105869,-0.02647 q 0,0.07938 -0.05294,0.07938 z m 0.07939,0.132336 H 29.84233 q 0,-0.07938 0.07939,-0.07938 h 0.05294 z m 0.238211,0.370544 h -0.05293 q 0.02647,-0.185262 0.07939,-0.185262 h 0.02647 q -0.05294,0.132338 -0.05294,0.185262 z m 1.640995,-0.105874 q 0,-0.07941 0.05293,-0.07941 l 0.02647,0.05293 z m -1.45571,0.291142 h -0.05294 v -0.15881 q 0,-0.05293 0.05294,-0.05293 h 0.02647 z m 0.264676,0.185266 h -0.05294 q 0,-0.211767 0.211739,-0.264678 0,-0.02629 0.07939,-0.07942 h 0.02647 q 0,0.238209 -0.23821,0.238209 z M 29.815871,36.92889 h -0.05293 q 0,-0.105884 0.05293,-0.105884 z m -0.34408,1.058703 q -0.105869,-0.02629 -0.105869,-0.07942 l 0.105869,-0.05294 q 0,-0.29115 0.132339,-0.397013 h 0.05294 l -0.02647,0.158796 0.105869,-0.02629 v 0.05294 q -0.07939,0.105885 -0.185275,0.105885 0.07939,0.07942 0.07939,0.158795 -0.07939,0 -0.158807,0.07942 z m 0.132339,0.185265 q -0.05293,0 -0.105875,-0.07942 0,-0.05294 0.07939,-0.105884 0.05294,0.02629 0.05294,0.05294 z m -0.608753,0.820492 q -0.105875,0 -0.132339,-0.07942 v -0.158795 q 0,-0.05294 0.07939,-0.07942 l -0.02647,-0.05294 q 0.105877,-0.291149 0.185281,-0.31762 l 0.158807,0.02629 q 0.02647,0 0.02647,-0.02629 -0.07939,0 -0.07939,-0.07942 l 0.317611,-0.05294 q 0.05294,0.02629 0.05294,0.07942 l -0.185272,-0.02629 0.02647,0.05294 -0.02647,0.05294 q 0.02647,0.05294 0.02647,0.132324 -0.185273,0.105884 -0.238211,0.370547 z m 2.17035,-0.370541 q -0.105872,-0.02629 -0.105872,-0.105884 0,-0.105884 0.370547,-0.29115 v 0.02629 q -0.05294,0.211737 -0.264679,0.370547 z m -0.07939,0.158794 q -0.07939,0 -0.158804,-0.105883 l 0.07939,-0.05294 h 0.07939 q 0.05294,0 0.05294,0.07942 0,0.07944 -0.05294,0.07944 z m -0.344079,0.529352 -0.02647,-0.07944 q 0.158807,-0.211768 0.185272,-0.449947 0.07939,0 0.105871,0.07942 -0.158807,0.423482 -0.264675,0.449948 z m -0.846966,1.270448 v -0.02629 l 0.238201,-0.582296 q 0.07939,-0.02629 0.158808,-0.158795 l 0.05294,0.02629 q 0.05294,0 0.05294,-0.105884 -0.07939,0 -0.07939,-0.05294 0.238211,-0.29115 0.449951,-0.29115 l 0.02647,0.05294 q -0.105871,0.185266 -0.211742,0.185266 0,-0.07944 -0.05294,-0.07944 0,0.264678 -0.211743,0.42348 0,0.132323 -0.42348,0.608757 z m -2.408561,-0.582249 v -0.02629 q 0.05294,-0.105884 0.158807,-0.105884 l 0.05294,0.105884 z m -0.158804,0.158794 -0.02647,-0.05294 0.05294,-0.02629 h 0.02647 q 0,0.07942 -0.05294,0.07942 z m -1.799802,1.164581 q -0.07939,0 -0.07939,-0.05294 0,-0.05291 0.105871,-0.105885 0.05294,0.02629 0.05294,0.07944 0,0.02629 -0.07939,0.07942 z m 2.14388,0.979305 q 0,-0.05294 -0.07939,-0.05294 0,0.05294 0.07939,0.05294 z m -0.158807,0.264678 h -0.02647 q 0,-0.05294 0.05293,-0.07944 h 0.02647 q 0,0.07944 -0.05294,0.07944 z m -7.622686,0.608761 h -0.02647 l 0.02647,-0.158795 h 0.05294 q 0,0.158795 -0.05294,0.158795 z m 0.02647,0.185266 h -0.05294 v -0.07942 h 0.05293 z m 0.661693,0.211767 h -0.02647 q -0.132339,-0.07944 -0.185275,-0.07944 -0.13234,0.07944 -0.21174,0.07944 l -0.02647,-0.05294 v -0.105884 l 0.105878,0.05294 q 0,-0.05294 0.05294,-0.05294 l 0.02647,0.02629 0.132337,-0.105883 h 0.05294 v 0.07944 l 0.132336,-0.02629 q 0.05294,0.05294 0.05294,0.105884 H 20.57869 Z m 0.661691,0.449951 -0.02647,-0.105884 0.05294,-0.105884 q -0.02647,0 -0.105872,-0.105884 l 0.05294,-0.02629 q 0.105872,0.05294 0.105872,0.211768 0,0.07944 -0.07939,0.132324 z m -0.37055,-0.132324 q -0.105872,-0.02629 -0.105872,-0.07942 V 43.70463 h 0.02647 q 0.158804,0.105883 0.158804,0.132323 0,0.05295 -0.07939,0.05295 z m 1.085175,0.05294 -0.02647,-0.05294 q 0,-0.05294 0.05294,-0.05294 l 0.02647,0.05294 q 0,0.05294 -0.05294,0.05294 z M 40.376465,20.095454 q -0.07944,0 -0.07944,-0.105872 h 0.05294 v 0.05294 l 0.05294,-0.02647 0.02629,0.05294 z m 0.317618,0.05294 h -0.07944 q -0.05294,0 -0.07942,-0.158808 h 0.02629 q 0.132324,0.05293 0.132324,0.158808 z m -0.582287,0.05294 h -0.05294 q 0,-0.132336 0.05294,-0.132336 h 0.05294 q 0,0.132336 -0.05294,0.132336 z m -0.264679,0.02647 q -0.158795,-0.02647 -0.158795,-0.132354 h 0.105884 q 0.05294,0.02647 0.05294,0.132336 z m -0.29115,0.05294 h -0.07944 q 0,-0.132337 0.07944,-0.132337 0.07942,0 0.07942,0.05294 z m -0.449947,0.185274 -0.02629,-0.05294 q 0.02629,-0.132339 0.105884,-0.238211 0.105884,0.05294 0.238208,0.05294 0,0.07939 -0.238208,0.105872 0,-0.02647 -0.02629,-0.02647 0,0.158804 -0.05294,0.158804 z m 1.746867,-0.158807 h -0.07942 v -0.05293 h 0.07942 z m -2.17035,0.211743 q -0.05294,0 -0.05294,-0.05294 0,-0.132339 0.185266,-0.132339 0.07944,0 0.07944,0.05294 -0.07944,0.132336 -0.211768,0.132339 z m -0.344088,0.238211 -0.132324,-0.07939 v 0.05293 q -0.105883,0 -0.105883,-0.05293 h 0.07944 l -0.02629,-0.02647 q -0.105884,0.05294 -0.238209,0.05294 l -0.02629,-0.05294 q 0.529358,-0.264679 0.608755,-0.264679 0.105884,0.02647 0.105884,0.07939 0,0.07939 -0.264678,0.211743 z m -0.87344,23.132738 h -0.07944 l 0.02629,-0.07942 -0.555819,0.02629 q -0.07942,0 -0.07942,-0.105884 l -0.211752,0.05294 -0.02641,-0.05294 0.02641,-0.05294 -0.264672,0.02629 -0.07938,-0.05294 q 0,0.105884 -0.05293,0.105884 -0.211743,0 -0.423482,-0.158796 l -0.07939,0.05294 Q 35.479729,43.545442 34.526892,43.227834 34.42102,43.09551 34.42102,43.016066 h -0.15881 q -0.05293,0 -0.05293,-0.105884 h 0.158806 v -0.02629 q -0.07939,0 -0.07939,-0.05294 l -0.185274,0.05294 q -0.476328,-0.185178 -0.635136,-0.185178 l 0.02647,0.05294 -0.105871,0.211767 0.105871,-0.02629 -0.02647,0.07942 q 0.07939,0 0.07939,-0.07942 h 0.07939 q 0,0.132325 -0.105874,0.185266 -0.07939,-0.05291 -0.158804,-0.05291 0,0.07942 -0.05293,0.07942 -0.105872,-0.05294 -0.105872,-0.07942 0.05294,-0.07944 0.05294,-0.158794 h -0.02647 Q 33.071249,43.1489 32.93891,43.1489 v -0.238208 q -0.05294,0 -0.05294,-0.02629 -0.158804,0.05294 -0.158804,0.158794 h -0.05278 l 0.02647,-0.105883 -0.02647,-0.105884 q 0,-0.05294 0.02647,-0.07942 h -0.02647 l -0.13234,0.132324 q -0.105871,0 -0.185275,-0.211768 l -0.105868,0.02629 0.05293,0.185266 h -0.02647 Q 31.986216,42.698859 31.986216,42.46063 l 0.02647,-0.07944 0.132336,0.02629 q 0.05294,-0.105883 0.07939,-0.105883 0.105875,0.132323 0.185272,0.132323 0.105872,0.185266 0.158807,0.185266 v -0.07944 q -0.105865,-0.07942 -0.105865,-0.185266 l 0.185275,-0.02629 q 0,-0.05294 0.185272,-0.105883 l 0.105871,0.05291 q 0.05293,-0.105884 0.185272,-0.264679 h -0.02647 l -0.132336,0.105884 h -0.07939 q 0,-0.02629 0.132339,-0.105884 l -0.02647,-0.132324 q 0.05293,-0.07944 0.05293,-0.132355 h -0.07939 v -0.02629 q 0.105872,-0.105884 0.105872,-0.211768 -0.105872,-0.05294 -0.105872,-0.105883 0.185275,-0.185266 0.185275,-0.264679 -0.05294,0 -0.05294,-0.05294 l 0.105872,-0.07944 0.02647,0.05294 -0.05293,0.07942 q 0.05293,0 0.07939,-0.05294 0.02647,-0.07944 -0.02647,-0.132324 0.211743,-0.105885 0.211743,-0.185266 0,-0.07944 0.238211,-0.158795 L 33.65368,40.47557 q 0,-0.02629 0.158806,-0.132324 v -0.02629 l -0.185274,0.132324 -0.02647,-0.02629 0.23821,-0.264678 h 0.158814 q 0,-0.132324 0.211739,-0.158795 l 0.02647,0.07944 -0.02647,0.05294 q 0,0.02629 0.02647,0.02629 0,-0.105884 0.105875,-0.105884 0.582289,0.423483 0.582289,0.58229 0.34408,0.158795 0.608756,0.397018 0.264678,0.05294 0.846964,0.344085 l 0.105878,-0.02629 q 0.105874,0.02629 0.105874,0.105884 0.05293,0 0.05293,-0.05294 l 0.502881,0.132355 0.132324,-0.07942 q 0.105884,0.07942 0.370544,0.07942 0.238207,0 0.873439,-0.105884 l 0.132325,0.07942 h 0.05294 v -0.02629 h -0.07942 q 0,-0.07944 0.05294,-0.07944 0.132325,0 0.132325,0.132324 h 0.02629 l -0.02629,-0.158795 q 0.07944,0 0.07944,0.07944 h 0.02629 q 0,-0.132323 0.264678,-0.185266 0.05294,0.105884 0.105884,0.105884 0.211767,0 0.397015,-0.158795 -0.02629,-0.05294 -0.02629,-0.132323 0.02629,-0.105884 0.264679,-0.105884 0,-0.132324 0.132323,-0.132324 l 0.185266,0.02629 0.29115,-0.07942 -0.02629,-0.05294 0.05294,-0.02629 q 0.02629,0 0.02629,0.02629 0.158795,0 0.29115,-0.185266 l 0.07942,0.02629 q 0.105884,-0.02629 0.105884,-0.07944 v -0.13232 h 0.02629 q 0.105884,0.05294 0.105884,0.132324 h 0.05294 l -0.07942,-0.10589 q 0.05294,0 0.05294,-0.05294 l -0.02629,-0.105884 0.07944,0.02629 q 0,-0.211768 0.370544,-0.238208 0,-0.105884 0.105884,-0.132323 0,-0.105884 0.02629,-0.158795 l 0.05294,0.02629 q 0.05294,0 0.05294,-0.05294 l -0.02629,-0.105883 0.07944,-0.05294 0.05294,0.02629 q 0.423479,-0.449951 0.608763,-0.582287 v -0.105884 h 0.07944 q 0,0.05294 0.211768,0.211768 -0.105884,0 -0.132324,0.02629 L 42.7325,39.04583 q -0.05294,0 -0.05294,0.05295 l 0.02629,0.07942 -0.185266,0.29115 h 0.02629 l 0.185266,-0.158795 h 0.05294 q 0,0.105884 -0.317623,0.344088 l 0.02629,0.105884 q -0.211768,0.211768 -0.211768,0.317617 l 0.07944,0.02629 q 0,-0.07944 0.476415,-0.608755 l 0.07944,0.02629 q 0.132324,-0.105883 0.29115,-0.397014 l 0.07944,-0.02629 -0.02629,-0.05294 q 0,-0.05294 0.05294,-0.05294 l 0.07944,0.02629 q 0.158795,-0.132324 0.31762,-0.264679 0.158796,-0.158795 0.238208,-0.502884 l -0.02629,-0.02629 q 0,0.26468 -0.397021,0.582288 l -0.02629,-0.07944 q 0.105883,-0.185266 0.264709,-0.185266 v -0.05294 h -0.07944 v -0.211768 l 0.07944,-0.07942 q -0.05294,-0.02629 -0.05294,-0.105884 0.158795,0 0.29115,-0.238208 0.07944,0 0.07944,-0.105884 -0.05294,0 -0.07944,-0.07942 v -0.02629 q 0.105883,-0.185266 0.158794,-0.185266 l -0.02629,-0.07942 q 0.105884,-0.158794 0.105884,-0.317617 0.132325,0 0.132325,-0.105884 l -0.02629,-0.158794 q 0.02629,-0.105876 0.105883,-0.105876 v -0.02641 q -0.211767,0 -0.211767,-0.07941 0.105884,-0.02641 0.105884,-0.158801 l -0.05294,-0.02647 q 0,-0.02647 0.105884,-0.1588 l -0.07944,-0.02647 0.02629,-0.05293 -0.02629,-0.105875 0.158795,-0.07939 -0.02629,-0.07939 0.132323,-0.02647 v 0.05294 h -0.07944 q 0.02629,0.02647 0.02629,0.07939 h -0.05294 v 0.02647 q 0.132324,0 0.185266,-0.02647 l 0.105884,0.02647 q 0,0.37055 -0.132324,0.37055 h -0.07944 v 0.02647 q 0.132324,0 0.132324,0.105874 -0.02629,0.13234 -0.185265,0.13234 l 0.02629,0.05293 q 0,0.185263 -0.238207,0.529355 -0.02629,0.344085 -0.105884,0.344085 0,-0.02629 -0.02629,-0.02629 l 0.02629,0.158795 -0.07942,0.31762 q 0,0.02629 0.02629,0.02629 0.185266,-0.449953 0.264679,-0.449953 l -0.158795,0.476415 h 0.02629 q 0.132324,-0.132324 0.344089,-0.582287 l -0.02629,-0.211736 q 0,-0.211768 0.185265,-0.29115 0.05295,-0.105884 0.05295,-0.370547 l -0.05295,-0.07941 q 0,-0.158801 0.132324,-0.423482 l -0.02629,-0.13234 0.02629,-0.132339 -0.185266,0.02647 v -0.05294 h -0.344088 v -0.07939 h 0.05294 l -0.05294,-0.07939 v -0.158693 q 0,-0.05293 0.07942,-0.05293 V 35.340511 Q 44.294115,34.83759 44.294115,34.678783 h -0.07944 q 0,-0.238211 0.132324,-0.317611 l 0.07944,0.105868 q 0,0.07939 -0.07944,0.07939 v 0.02647 l 0.158794,-0.02647 q 0,-0.07939 -0.05294,-0.13234 0,-0.05293 0.05294,-0.05293 0.07942,0 0.07942,0.105872 0.07944,0 0.105884,-0.317612 l -0.05294,0.05293 q -0.07944,0 -0.264678,-0.529353 L 43.976502,33.17016 q 0,-0.132339 0.05294,-0.132339 0.42348,0.555824 0.502886,0.608758 h 0.02629 l -0.02629,-0.07939 0.02629,-0.07939 -0.07944,0.05293 -0.02629,-0.05293 V 33.38193 q 0,-0.05294 0.07944,-0.05294 0.158795,0.238211 0.185266,0.238211 0.02629,0 0.02629,-0.02647 -0.132331,-0.291144 -0.238215,-0.291144 l -0.105884,0.05293 -0.02629,-0.05293 q 0,-0.07939 0.07942,-0.07939 v -0.02647 h -0.05294 l -0.132324,0.05293 q -0.344051,-0.423534 -0.5558,-0.555872 0,-0.02647 0.105884,-0.07939 0.105883,0 0.105883,0.105868 h 0.02629 q -0.02629,-0.185272 -0.476415,-0.423481 h -0.158795 l 0.05294,0.07939 q 0,0.05293 -0.05294,0.05293 -0.211767,-0.105875 -0.264678,-0.105875 v 0.02647 q 0.423482,0.264681 0.423482,0.317613 -0.105884,0.264676 -0.211767,0.264676 0,-0.158807 -0.79403,-0.476418 l -0.158795,0.185276 0.05294,0.02647 q -0.05294,0.02647 -0.132323,0.02647 -0.529357,-0.13234 -0.529357,-0.291144 l -0.158796,0.105875 -0.02629,-0.05294 q 0.105885,-0.105875 0.211768,-0.105875 0.07944,0 0.07944,0.105875 l 0.05294,-0.02647 q 0.105883,0 0.291149,0.105874 0.02629,-0.05294 0.05294,-0.05294 l 0.158794,0.02647 0.05294,-0.07939 -0.211768,-0.02647 -0.185266,0.02647 q -0.02629,-0.185274 -0.105883,-0.185274 -0.211769,0 -0.317618,0.05293 -0.661688,-0.13234 -0.846963,-0.13234 l -0.07944,0.02647 v 0.05294 l 0.07944,-0.05294 q 0,0.13234 -0.211767,0.158807 H 40.5095 l -0.132324,-0.07939 -0.02629,0.105869 h -0.132324 q -0.07944,0.07939 -0.158795,0.07939 l 0.02629,0.05293 q 0,0.105871 -0.317617,0.185274 l -0.873436,0.423484 -0.02629,-0.02647 -0.05294,0.02647 -0.105884,-0.05294 q 0,0.07939 -0.07941,0.07939 -0.05294,0 -0.05294,-0.05293 0.05294,-0.07939 0.05294,-0.132339 -0.02629,0 -0.185266,0.264678 -0.29115,0.13234 -0.29115,0.238211 0.105884,0.105875 0.105884,0.211743 l 0.07944,-0.05293 q 0,0.02647 0.02629,0.02647 l -0.02629,-0.105871 q 0.05294,0 0.132324,0.105871 l -0.105884,0.13234 0.05294,0.07939 -0.07944,0.05293 q -0.07944,0 -0.07944,-0.13234 h -0.05295 q 0,0.105868 0.07944,0.185273 v 0.158806 h -0.02629 q -0.132291,-0.105864 -0.211735,-0.105864 l 0.02629,0.264676 -0.211768,-0.185275 v 0.02647 q 0.07942,0.105871 0.07942,0.211743 l -0.07942,0.02647 q -0.02629,-0.02647 -0.132324,-0.02647 l -0.02629,0.07939 0.158795,0.02647 q 0,0.07939 -0.264679,0.132336 -0.158795,-0.07939 -0.185266,-0.132336 0,-0.07939 0.05294,-0.07939 -0.05294,-0.105874 -0.05294,-0.158804 l 0.05294,-0.02647 0.07942,0.02647 q 0,-0.07939 0.211768,-0.07939 v -0.02647 q -0.158794,0 -0.238208,-0.05293 l 0.02629,-0.105872 -0.02629,-0.158804 Q 37.545321,33.6201 37.624915,33.6201 l -0.05294,-0.132339 -0.07944,0.05293 q -0.05294,0 -0.05294,-0.07939 h -0.02629 l 0.02629,0.07939 q 0,0.158804 -0.238207,0.31761 v 0.02647 l 0.185266,-0.02647 q 0,0.05294 -0.344079,0.34408 l -0.02629,-0.05293 q 0,0.07939 -0.05294,0.07939 -0.02629,-0.132337 -0.158794,-0.238211 v -0.13198 q 0,-0.05294 0.07942,-0.05294 -0.132324,-0.211739 -0.132324,-0.264675 h -0.105869 l 0.02641,0.132336 q -0.105877,0 -0.105877,-0.07939 h -0.07941 q -0.158801,0 -0.158801,-0.132339 h 0.05293 q -0.0532,-0.105891 -0.0532,-0.211762 l 0.07938,-0.02647 q 0,-0.05294 -0.05293,-0.05294 0,0.02647 -0.02647,0.02647 -0.07938,-0.105872 -0.07938,-0.132336 -0.02647,0 -0.02647,0.02647 0.05293,0.07939 0.05293,0.158804 h -0.05295 l -0.05293,-0.158804 -0.05293,0.02647 q -0.05293,-0.07939 -0.05293,-0.185272 0.05293,0 0.105875,0.05294 v -0.02647 q -0.05378,-0.158811 -0.291991,-0.449957 h -0.05294 q 0,0.158807 -0.07939,0.158807 -0.105875,-0.05294 -0.105875,-0.158807 l -0.07939,0.05294 q -0.05293,-0.07939 -0.05293,-0.317612 0.264674,-0.661692 0.370548,-0.661692 0.344081,-0.185273 0.397017,-0.264676 0,0.02647 0.02647,0.02647 0,-0.07939 0.449951,-0.238211 l 0.02629,-0.05293 0.132323,0.02647 q 0.26468,-0.105875 0.582294,-0.158808 0,-0.105871 0.07944,-0.105871 l 0.105883,0.07939 q 0.317618,-0.132336 0.317618,-0.185272 0.02629,-0.07939 0.05294,-0.07939 h 0.291149 q 0,-0.07939 0.05294,-0.07939 0.07942,0.05294 0.158796,0.05294 l 0.105883,-0.07939 0.05294,0.02647 q 0,-0.07939 0.37055,-0.185272 0,-0.02647 0.238207,-0.105874 0,-0.13234 0.29115,-0.158808 l 0.741097,-0.555822 q 0.05294,0 0.158795,-0.105874 l 0.105883,0.02647 -0.05294,-0.07939 0.05294,-0.02647 q 0.02629,0.05293 0.05294,0.05293 0.07944,-0.23821 0.185266,-0.23821 0.05294,0.05294 0.132324,0.05294 0.264679,-0.158804 0.264679,-0.291143 -0.05295,0 -0.07942,-0.07939 0.02629,-0.158804 0.211767,-0.158804 l -0.02629,-0.05294 q 0,-0.13234 0.29115,-0.185272 0,-0.05294 0.185266,-0.13234 l -0.02629,-0.07939 q 0.264678,-0.105871 0.264678,-0.238214 0.132325,-0.02647 0.132325,-0.158804 l -0.05291,-0.07939 0.158794,0.02647 -0.02629,-0.05293 0.02629,-0.05294 q -0.02629,0 -0.07944,-0.07939 0.05291,0 0.211767,-0.238211 0.158795,0 0.185266,-0.211743 h 0.05294 l -0.02629,-0.158807 q 0.105884,0 0.105884,-0.05294 -0.07944,0 -0.07944,-0.07939 0.105884,-0.02647 0.423482,-0.635223 0.02629,0 0.02629,-0.02647 l -0.02629,-0.105872 0.05294,-0.02647 q 0,0.02647 0.07944,0.07939 h 0.02629 q -0.07944,-0.105905 -0.07944,-0.185309 l 0.02629,-0.105871 -0.02629,-0.07939 0.05294,-0.02647 -0.02629,-0.07939 q 0,-0.211742 0.185266,-0.211742 l -0.02629,-0.05294 q 0,-0.02647 0.158795,-0.132337 h 0.158795 v 0.07939 h -0.158795 l 0.02629,0.05294 -0.02629,0.05294 q 0.05294,0 0.07942,0.105875 0,0.07939 -0.105884,0.07939 0,0.529353 -0.185265,0.529353 v 0.02647 q 0.105884,0 0.105884,0.07939 H 43.262114 V 26.236 h -0.02629 v 0.07939 q 0.05294,0 0.05294,0.05294 l -0.07944,0.291143 h 0.05294 q 0.05294,-0.185275 0.132325,-0.185275 -0.05294,0.34408 -0.185266,0.34408 l 0.05294,0.07939 -0.05294,0.264675 q 0,0.07939 0.05294,0.07939 0.132324,-0.608756 0.344085,-0.608756 0.105884,-0.397015 0.211768,-0.397015 l -0.05294,-0.07939 q 0.132325,0 0.370551,-0.37055 l 0.02629,-0.529351 h -0.02629 q 0,0.423482 -0.158795,0.608756 0,0.05293 -0.05294,0.05293 l -0.02629,-0.07939 q 0.02629,-0.238211 0.158794,-0.238211 v -0.05294 q -0.105883,0 -0.105883,-0.21174 l 0.05294,-0.105871 q -0.07944,0 -0.07944,-0.05294 0,-0.07939 0.105884,-0.07939 v -0.211743 q 0,-0.05294 0.07944,-0.05294 v -0.132351 l -0.105884,-0.105875 0.02629,-0.370546 q -0.05294,0 -0.05294,-0.05294 l 0.02629,-0.23821 q -0.105884,-0.185276 -0.105884,-0.264679 0.07944,0 0.07944,-0.05293 0,-0.05294 -0.264679,-0.423482 0,-0.158804 0.07942,-0.158804 0.185266,0 0.29115,0.979302 l 0.105884,0.397015 -0.05294,0.02647 q 0,-0.02647 -0.02629,-0.02647 v 0.05294 q 0.132324,0.158808 0.132324,0.555822 h 0.02629 l 0.02629,-0.608756 q 0.07942,-0.02647 0.07942,0.05293 v 0.608754 h 0.02629 q 0.07944,-0.23821 0.105884,-0.66169 0,-0.132336 -0.211768,-0.714627 l -0.02629,-0.158806 0.05295,-0.105872 q 0,-0.344078 -0.661687,-0.952835 -0.185266,-0.344083 -0.423486,-0.555824 l -0.05295,0.02647 q -0.291135,-0.238201 -0.423475,-0.238201 0,0.132342 -0.05294,0.132342 -0.05291,0 -0.05291,-0.07939 h -0.02629 q -0.238207,0.291144 -0.264679,0.291144 h -0.105883 v -0.07943 q -0.317618,0 -0.423486,-0.158808 l -0.158795,-0.02647 q -0.185266,0 -0.476419,0.05293 -0.07942,0 -0.211767,-0.05293 v 0.05293 q -0.185266,0 -0.264679,-0.158804 0.02629,-0.07939 0.158795,-0.07939 l 0.02629,0.105871 0.05294,-0.132337 -0.05294,-0.07939 -0.05294,0.05293 q -0.07942,0 -0.07942,-0.07939 0,-0.05294 0.132324,-0.05294 -0.05295,-0.07939 -0.211768,-0.185273 l -0.02629,0.02647 0.02629,0.07939 q -0.07944,0.05293 -0.158794,0.05293 h -0.423488 q -0.344085,0.07939 -0.449947,0.07939 -0.105884,0 -0.105884,-0.05294 0.05294,-0.05294 0.661691,-0.185272 v -0.05294 q -0.07944,0 -0.07944,-0.05294 h -0.02629 q 0,0.105874 -0.05294,0.105874 -0.05294,0 -0.105884,-0.105874 0,-0.02647 0.264679,-0.105871 v -0.02647 h -0.158797 q -0.185266,0 -0.185266,0.211746 h -0.02629 q -0.05294,-0.05294 -0.05294,-0.105875 h -0.02629 q 0,0.185272 -0.185266,0.185272 -0.317614,0.02647 -0.423476,0.105872 h -0.05294 l -0.02629,-0.105872 0.105884,-0.05294 v -0.02647 h -0.07944 q -0.449957,0.07939 -0.449957,0.238211 l 0.05294,-0.02647 0.02629,0.02647 0.05294,-0.02647 q 0.05294,0.02647 0.05294,0.132339 l -0.07944,-0.07939 q -0.211767,0.158808 -0.211767,0.211743 0.317617,-0.105871 0.397015,-0.105871 0.05294,0 0.158794,0.185275 l -0.02629,0.132336 -0.05294,-0.02647 q -0.07944,0 -0.688159,0.211741 0,0.132336 0.132325,0.291143 -0.264679,0.158807 -0.555822,0.158807 l -0.07938,-0.02647 q 0,0.105872 -0.07942,0.105872 0,-0.185272 0.07942,-0.185272 l 0.105883,0.02647 q 0,-0.105872 0.29115,-0.105872 l -0.02629,-0.05294 q 0,-0.05294 0.105884,-0.05294 v -0.132342 q -0.05294,0 -0.264679,0.21174 L 37.88975,22.23934 q -0.344086,0.317613 -0.423474,0.317613 -0.264679,0.105871 -0.397015,0.185271 l 0.05294,0.105875 q -0.05294,0.132336 -0.132323,0.185271 -0.02629,0 -0.02629,-0.02647 l 0.02629,-0.105871 -0.158795,-0.07939 q -0.0269,0.158819 -0.132943,0.158819 v 0.05294 l 0.105881,-0.02647 v 0.05294 h -0.05294 v 0.02647 q 0.105884,0 0.105884,0.05294 l -0.264678,0.132336 0.02641,-0.158804 h -0.02641 q -0.158801,0.13234 -0.185263,0.13234 0,0.02647 0.132336,0.07939 -0.132336,0.158808 -0.132336,0.185275 h -0.05293 l 0.02647,-0.132339 q -0.132337,0 -0.211753,0.211743 l 0.07938,0.02647 q 0,0.185272 -0.264678,0.291143 l -0.02647,0.158808 h -0.05293 v -0.07939 q -0.05294,0 -0.07939,0.132336 l 0.02647,0.07939 -0.05294,0.02647 -0.02647,-0.02647 q 0,0.05294 -0.211746,0.370547 h -0.186209 q 0,0.07939 -0.105869,0.317611 l 0.07939,0.07939 -0.132338,0.370548 h -0.05296 v 0.07939 h 0.02647 v -0.05294 h 0.05293 q 0.132339,0.185275 0.132339,0.264679 l -0.07939,0.264723 q 0.13234,-0.105869 0.185272,-0.105869 0,0.31761 -0.07939,0.31761 l 0.02647,0.05294 q 0,0.02647 -0.07939,0.07939 -0.05294,0 -0.158806,-0.264678 -0.05294,0 -0.07939,0.05294 l 0.02647,0.05294 q -0.05293,0 -0.238212,-0.132339 -0.105874,-0.05294 -0.211743,-0.05294 l -0.05293,0.105874 q 0.105872,0.185273 0.105872,0.238212 l 0.185272,-0.02647 q 0.02647,0.05294 0.02647,0.132336 h -0.05293 l 0.264676,0.291143 -0.05294,0.02647 -0.13234,-0.02647 q 0,0.05294 -0.132336,0.132339 H 34.73856 q -0.02647,0 -0.07939,-0.07939 v -0.02647 h 0.158808 q 0,-0.05294 -0.158808,-0.05294 -0.05293,0 -0.05293,0.105871 l 0.132339,0.105869 -0.132339,0.529354 q 0.132339,0.158804 0.158804,0.34408 0.07939,0.05294 0.211746,0.05294 0.105868,-0.07939 0.238207,-0.07939 h 0.344081 q 0.05294,0 0.05294,0.05294 l -0.02647,0.132337 0.397016,-0.132337 q 0,0.02647 0.02647,0.02647 -0.342922,0.502889 -0.951677,0.502889 -1.773336,-0.105871 -2.223285,-1.085176 0,-0.05294 -0.794031,-1.693931 0.926354,-0.68817 0.926354,-0.794042 0.05294,-0.317613 0.23821,-0.317613 v -0.05291 h -0.07939 q 0,-0.10587 0.238208,-0.370546 l -0.02647,-0.105871 q 0.02647,0 0.238214,-0.158808 l -0.02647,-0.05294 q 0.423484,-0.370547 0.423484,-0.502885 0.132336,0 0.132336,-0.05294 0,-0.05294 0.105874,-0.185271 -0.05294,-0.05294 -0.05294,-0.07939 0.185271,-0.158808 0.264675,-0.264676 h 0.132355 l -0.02647,-0.105875 0.05293,-0.02647 q 0,0.05294 0.05294,0.05294 l -0.02647,-0.185272 0.158804,-0.132339 0.02647,0.07939 0.105875,-0.105871 0.05294,0.02647 q 0.105871,-0.05294 0.185275,-0.05294 0,-0.05294 -0.02647,-0.07939 l 0.05293,-0.02647 q 0.07939,0.158804 0.105875,0.158804 l 0.02647,-0.05294 -0.05293,-0.07939 0.02647,-0.105869 0.158807,0.02647 0.07939,-0.02647 q 0,0.05294 0.05293,0.05294 0.02647,-0.105872 0.07939,-0.105872 l 0.07939,0.05294 -0.02647,-0.132336 q 0.05293,-0.02647 0.26468,-0.05294 v -0.02647 h -0.05293 v -0.02647 q 0.794002,-0.582294 0.899873,-0.582294 0.502886,-0.185272 0.79403,-0.317613 h 0.02629 v 0.05294 q -0.158795,0.158808 -0.926368,0.55582 -0.05293,0.07939 -0.132336,0.132344 v 0.05293 q 0.105874,0 0.211748,0.185272 0,-0.105869 0.05294,-0.105869 0.02629,0 0.105884,0.132337 -0.05294,0 -0.05294,0.05294 h 0.05294 q 0.344085,-0.211747 0.449951,-0.211747 l 0.02629,0.02647 q 0,-0.05294 0.07944,-0.07939 0.07942,-0.02647 0.105884,0 0,-0.132338 0.158795,-0.132338 v -0.132334 q -0.105884,0 -0.105884,-0.05294 0,-0.05294 0.07944,-0.05294 l 0.158795,0.105869 q 0.05294,-0.05293 0.05294,-0.105869 l -0.105884,0.02647 q 0,-0.132339 0.05294,-0.132339 0,0.05294 0.158794,0.132339 v -0.02647 q -0.05294,0 -0.105883,-0.211743 0.105883,0 0.158794,0.264676 h 0.05295 l 0.132324,-0.238211 h 0.132324 l -0.02629,0.132339 q 0.291149,0 0.397018,-0.105871 h 0.132323 l 0.02629,-0.105872 q -0.02629,0 -0.02629,-0.02647 l 0.132325,0.05294 q 0.158795,0 0.529353,-0.105874 0.07942,0 0.185266,0.05293 0,-0.07939 0.07944,-0.07939 l 0.105884,0.05294 q 0.02629,0 0.02629,-0.02647 -0.105884,0 -0.105884,-0.105871 h 0.132325 q 0.132323,0.132336 0.185265,0.132336 0,-0.05294 0.05294,-0.05294 l 0.05294,0.02647 q 0.02629,-0.105868 0.132324,-0.105868 v 0.07939 h 0.02629 q 0,-0.05294 0.02629,-0.05294 l 0.185266,0.02647 q 0.05294,-0.07939 0.05294,-0.238214 l -0.05294,0.02647 q 0,-0.02647 -0.02629,-0.07939 0,-0.07939 0.158794,-0.07939 0.105884,0.02647 0.105884,0.07939 l -0.02629,0.185272 0.02629,0.02647 q 0.05294,-0.238211 0.132324,-0.238211 h 0.264679 l 0.07942,-0.05294 q 0.185266,0.105872 0.185266,0.370547 l 0.05294,-0.02647 -0.02629,-0.05294 v -0.211755 q 0,-0.05294 0.07944,-0.05294 0.29115,0.132336 0.370544,0.132336 0.02629,-0.05294 0.05294,-0.05294 0.132324,0.10587 0.502887,0.211742 l 0.211767,-0.02647 q 0.502883,0.07939 1.191045,0.714625 l -0.05294,0.02647 -0.264679,-0.02647 q 0.29115,0.211743 0.423483,0.582288 l 0.05294,0.02647 0.02629,-0.02647 q -0.05294,-0.105906 -0.158794,-0.238242 h 0.105883 q -0.185235,-0.18533 -0.238208,-0.18533 v -0.07938 q 0.238208,0 0.449951,0.344079 0.158795,0 0.211768,0.238211 l -0.05294,0.02647 q 0.555826,0.714628 0.555826,0.952836 0.264678,0.661692 0.370543,1.7998 -0.07944,0 -0.185266,0.211743 -0.07942,0 -0.132323,-0.02647 0.02629,0.07939 0.07942,0.13234 l -0.132323,0.158807 0.05294,0.105871 q -0.02629,0.02647 -0.132324,0.02647 v 0.02647 q -0.07944,0.979304 -0.264679,0.979304 l 0.02629,0.05293 -0.132323,0.370547 q 0.02629,0 0.02629,0.02647 l -0.105884,0.02647 0.02629,0.05294 q 0,0.07939 -0.07942,0.07939 v 0.02647 q 0.105884,0 0.105884,0.07939 -0.05294,0 -0.05294,0.05294 0.07942,0 0.07942,0.05294 0,0.158807 -0.132324,0.317612 0.105884,0 0.105884,0.07939 -0.132324,0.397014 -0.211768,0.397014 l 0.02629,0.07939 q -0.07942,0 -0.158794,0.23821 -0.105884,0 -0.238208,0.291144 -0.211768,0.132336 -0.211768,0.185272 -0.105884,0.370548 -0.29115,0.370548 l 0.02629,0.05293 q 0,0.05294 -0.05294,0.05294 -0.02629,0 -0.264678,-0.185279 h -0.02629 q 0.264678,0.211743 0.264678,0.26468 -0.02629,0.105874 -0.07942,0.105874 -0.05294,0 -0.105884,-0.05294 -0.07942,0.132339 -0.105884,0.344082 -0.05294,0.07939 -0.105884,0.07939 l 0.02629,0.105868 -0.05294,0.02647 -0.185266,-0.132339 q 0.02629,0 0.105884,0.132339 v 0.05293 l -0.07942,0.132339 q 0.02629,0 0.07942,0.07939 -0.264678,0.05294 -0.264678,0.158804 l 0.132323,-0.02647 q 0,0.02647 -0.238207,0.238208 l -0.132325,-0.02647 0.02629,0.158804 q 0.582291,0.211743 0.582291,0.264675 l -0.952843,-0.158764 v 0.05294 h -0.05294 v -0.07941 H 41.91096 q 0.02629,0.05293 0.05295,0.05293 l -0.02629,0.13234 h -0.02629 q 0,0.105867 0.105883,0.132336 l 0.158795,-0.02644 q 0.02629,-0.05294 0.05294,-0.05294 0.02629,0.02647 0.02629,0.07939 0,0.05294 -0.05291,0.07939 h 0.07942 q 0.105884,-0.07939 0.185266,-0.07939 0,0.02647 0.02629,0.02647 l -0.02629,0.105867 0.105883,0.185275 q -0.105883,0 -0.714626,-0.34408 h -0.07944 l 0.02629,0.105872 -0.02629,0.02647 -0.07944,-0.02647 q 0,0.05294 0.370547,0.132339 0.02629,0.05294 0.05294,0.05294 l 0.132323,-0.02647 q 0.05295,0.05294 0.05295,0.13234 0.07942,-0.05294 0.132324,-0.05294 l 0.211768,0.05294 q 0,-0.05294 0.07944,-0.05294 l -0.07944,-0.105871 v -0.02647 h 0.07944 q 0.02629,0 0.105883,0.105871 v 0.07939 l 0.105884,0.02647 q 0,-0.05294 0.05294,-0.05294 0.05294,0 0.05294,0.07939 h 0.02629 q 0.02629,-0.211743 0.105883,-0.211743 l 0.02629,0.07939 -0.132323,0.238211 0.317615,-0.02647 q 0.132323,0.05294 0.132323,0.105872 0,0.05294 -0.05294,0.05294 l -0.07944,-0.02647 v 0.02647 q 0.158795,0.158807 0.476421,0.317612 l 0.05294,0.07939 q 0.105883,0 0.105883,-0.07939 h 0.05294 v 0.13234 q 0,0.02647 0.502886,0.582289 v 0.105872 l -0.02629,0.05294 0.132325,-0.02647 q 0.02629,0 0.02629,0.291143 h 0.02629 q 0,-0.238211 0.05294,-0.238211 0.05295,0.05293 0.05295,0.132339 0.02629,0.07939 -0.02629,0.132337 l 0.02629,0.07939 q -0.02629,0 -0.02629,0.02647 0.07942,0 0.07942,0.13234 l 0.132324,-0.02647 0.02629,0.05293 q 0,0.07939 -0.07942,0.07939 v 0.02647 q 0.105884,0 0.105884,0.05293 0,0.07939 -0.02629,0.07939 0.05294,0.105872 0.105883,0.105872 0.185266,0 0.185266,-0.05293 l -0.02629,-0.07939 q 0.02629,-0.02647 0.105884,0 0.07942,0.02647 0.07942,0.158804 0,0.105869 -0.238208,0.132336 v 0.02647 q 0.29115,0 0.29115,0.132336 0.02629,0.132336 0.132323,0.23821 -0.02629,0.105875 -0.264678,0.291144 h 0.02629 q 0.185266,-0.105865 0.264678,-0.105865 0,0.02647 0.02629,0.02647 -0.05294,0.185275 -0.05294,0.317612 0,0.05294 0.05294,0.05294 l -0.02629,0.370548 q 0.132324,0 0.132324,0.344079 -0.02629,0.317611 -0.07942,0.317611 l -0.158826,-0.105876 q -0.02629,0.185264 -0.158794,0.317612 l 0.05294,0.02647 q 0.05294,-0.05293 0.05294,-0.132336 l 0.07944,0.02647 q 0,-0.158804 0.05294,-0.158804 0.07944,0.105878 0.07944,0.158804 l -0.02629,0.07938 q 0.05295,0 0.05295,0.07938 0,0.05293 -0.05295,0.05293 -0.05294,0 -0.07944,-0.02641 0,0.211749 0.05294,0.370542 -0.132325,0.264679 -0.211768,0.79403 -0.105884,0.211737 -0.158795,0.502883 -0.05294,0 -0.264679,0.132324 h -0.07942 q 0,0.132324 -0.158795,0.238208 0.05294,0 0.05294,0.105883 h -0.15883 Q 44.425471,39.46967 44.18727,39.46967 l 0.02629,0.07944 -0.264679,0.344082 0.02629,0.05294 q 0,0.05294 -0.158794,0.05294 l 0.02629,0.05291 q 0,0.07942 -0.158795,0.07942 v 0.02629 q 0.132323,0 0.132323,0.05294 0,0.05295 -0.105883,0.05295 0.07944,0.05294 0.07944,0.105884 -0.158795,0.29115 -0.264679,0.29115 l -0.132324,-0.02629 -0.07942,0.132323 h 0.105884 v -0.07944 q 0.132324,0 0.132324,0.105883 -0.264679,0.476422 -0.449951,0.50289 l 0.05294,0.07944 q -0.238208,0.02629 -0.238208,0.185266 -0.105883,0 -0.476418,0.29115 l -0.211768,0.05294 q 0,-0.02629 -0.02629,-0.02629 0,0.211767 -0.37055,0.370547 0,-0.02629 -0.02629,-0.02629 0,0.105884 -0.05294,0.105884 -0.02629,0 -0.264678,-0.317621 v 0.02629 q 0.185266,0.264678 0.185266,0.344088 0,0.05294 -0.07942,0.07944 -0.105883,0 -0.105883,-0.07944 -0.238209,0.132355 -0.238209,0.344085 l -0.105883,-0.02629 q 0,0.105884 -0.05294,0.105884 l -0.05294,-0.02629 q 0,0.105884 -0.05294,0.105884 -0.158795,-0.158795 -0.158795,-0.238207 -0.02629,0 -0.02629,0.02629 0.05294,0.07942 0.05294,0.211767 -0.158794,0.07944 -0.158794,0.132324 l 0.02629,0.105884 -0.132325,-0.02629 q -0.185266,0 -0.211767,0.07944 l 0.05294,0.02629 0.07944,-0.02629 v 0.02629 q -0.211767,0.158825 -0.423458,0.158825 l -0.02629,-0.07944 h -0.02629 q -0.02629,0.185266 -0.238208,0.185266 -0.07942,0 -0.07942,-0.132323 -0.211767,0.132323 -0.317617,0.132323 0,-0.05294 0.07944,-0.05294 v -0.02629 q -0.05294,0 -0.158795,-0.07944 h -0.02629 l 0.05291,0.07944 q -0.02629,0 -0.07942,0.07944 0.02629,0 0.02629,0.02629 l -0.05291,0.02629 q 0,-0.02629 -0.02629,-0.02629 0,0.07944 -0.05294,0.07944 h -0.105883 q -0.05294,0 -0.05294,-0.07944 -0.05294,0 -0.05294,0.07944 l 0.02629,0.07944 q -0.07942,0 -0.132324,-0.05294 0,0.105885 -0.05294,0.105885 l -0.02629,-0.07944 h -0.07942 q 0,0.185265 -0.397018,0.185265 -0.05294,-0.158795 -0.238208,-0.158795 l 0.05294,0.07942 q -0.317618,0.05294 -0.397018,0.105884 l -0.264679,-0.02629 z m 2.699704,-23.265079 h -0.07942 q 0,-0.105871 0.05294,-0.105871 z m 0.185266,0 -0.02629,-0.05294 q 0,-0.05294 0.05294,-0.05294 l 0.02629,0.05294 q 0,0.05294 -0.05294,0.05294 z m -1.482185,0.05294 q -0.05294,0 -0.05294,-0.05294 l 0.07944,-0.05294 0.02629,0.05294 q 0,0.05294 -0.05294,0.05294 z m 0.741088,0.05294 h -0.105884 q 0.02629,-0.105871 0.185266,-0.105871 0.07944,0 0.07944,0.05294 -0.105884,0.05294 -0.158795,0.05294 z m 1.032241,0 q -0.07944,0 -0.07944,-0.05294 0.02629,-0.05294 0.05294,-0.05294 z m -2.805576,0.13234 q -0.05294,0 -0.05294,-0.05294 l -0.05294,0.02647 q -0.05294,0 -0.05294,-0.158808 h 0.05294 q 0.05294,0 0.05294,0.07939 l 0.05294,-0.02647 q 0.05294,0 0.05294,0.05293 0,0.07939 -0.05294,0.07939 z m 1.296925,-0.02647 q -0.105883,0 -0.105883,-0.05293 l 0.132324,-0.07939 q 0.05294,0 0.05294,0.05294 0,0.02647 -0.07944,0.07939 z m 0.317634,-0.05294 h -0.07938 v -0.07941 h 0.02629 q 0.05294,0 0.05294,0.07939 z m -0.820498,0.185271 -0.05294,-0.07939 0.05294,-0.02647 h 0.105883 q 0.05294,0 0.05294,0.07939 z m -1.985077,0.05293 q 0,-0.132339 0.05293,-0.132339 h 0.05293 v 0.02647 q -0.05293,0.105877 -0.105874,0.105877 z m -0.185262,0.105875 q -0.07941,0 -0.07941,-0.05294 l 0.211749,-0.13234 q 0,0.13234 -0.132339,0.185272 z m 1.111646,0.132343 h -0.07944 q 0,-0.05293 0.05295,-0.07939 h 0.02629 z m -0.370556,0.291136 h -0.132325 v -0.07939 q 0.185266,0 0.185266,-0.158804 l 0.132325,0.105872 q 0,-0.158811 0.05294,-0.158811 l 0.105884,0.07939 h 0.132323 q 0,0.07939 -0.132323,0.132339 l -0.07944,-0.02647 z m -0.105884,-0.185271 h -0.02629 q 0,-0.05294 0.05294,-0.07939 h 0.02629 q 0,0.07939 -0.05294,0.07939 z m 1.799796,0.07939 v -0.02647 q 0.07942,-0.13234 0.105884,-0.13234 0.05294,0.02647 0.05294,0.05294 0,0.105872 -0.158795,0.105875 z m 0.211768,0.211743 q -0.05294,0 -0.05294,-0.07939 0,-0.105872 0.05294,-0.105872 0.05294,0.02647 0.05294,0.105872 0,0.07939 -0.05294,0.07939 z m 0.979299,0 q -0.02629,-0.02647 -0.02629,-0.07939 0,-0.07939 0.158795,-0.105872 h 0.158794 q 0.05295,0.02647 0.05295,0.07939 z m -3.070242,0.02647 -0.02629,-0.07939 h 0.02629 q 0.05294,0 0.05294,0.05294 z m 2.382093,0.344081 q -0.185266,0 -0.185266,-0.05294 0,-0.05294 0.07942,-0.07939 l 0.07944,0.05294 q 0,-0.05294 0.105884,-0.05294 0,-0.07939 -0.105884,-0.132336 l -0.05294,0.02647 q 0,-0.02647 -0.02629,-0.07939 0,-0.07939 0.158795,-0.07939 0.05294,0 0.05294,0.23821 l 0.132324,-0.05294 0.07944,0.02647 v 0.05294 q -0.07944,0 -0.317618,0.132337 z m 0.608754,-0.07939 q -0.05294,0 -0.05294,-0.05294 0,-0.105869 0.211767,-0.132336 0,-0.07939 0.344089,-0.132344 0.105884,0.02647 0.105884,0.07939 0,0.05294 -0.37055,0.158808 0,-0.02647 -0.02629,-0.02647 0,0.02647 -0.211768,0.105868 z m -0.767565,-0.158836 h -0.07944 q 0,-0.105874 0.05294,-0.105874 z m -3.83781,0.05294 q -0.132339,0 -0.132339,-0.07939 l 0.264678,-0.02647 v 0.05294 q 0,0.05294 -0.132339,0.05294 z m 3.573132,0.370547 q -0.05295,0 -0.105884,-0.07939 0,-0.07939 0.185266,-0.105871 l -0.05294,-0.07939 0.05294,-0.02647 q 0.05294,0.05294 0.05294,0.105871 l 0.07944,-0.02647 v 0.05294 q -0.02629,0 -0.211768,0.158804 z m 3.626072,-0.132336 h -0.05294 v -0.02647 q 0.02629,-0.105875 0.07942,-0.105875 h 0.05294 v 0.02647 q -0.05294,0.105875 -0.07942,0.105875 z m 0.846963,0.979303 -0.02629,-0.05293 0.02629,-0.105868 q 0,-0.105872 -0.238208,-0.238211 -0.105884,-0.185275 -0.105884,-0.291144 -0.05294,0 -0.05294,0.07939 h -0.05294 l -0.264686,-0.158783 q 0,-0.07939 0.291149,-0.317613 h 0.05294 l 0.476419,0.476419 -0.105885,0.105872 0.07942,0.05294 0.07944,-0.02647 q 0.105885,0 0.238209,0.291144 -0.211768,0.185275 -0.397013,0.185275 z M 41.249908,22.107 h -0.158794 v -0.05294 h 0.158794 z m 0.449945,0.02647 h -0.05294 q -0.05294,0 -0.05294,-0.07939 l 0.105884,0.02647 z m 1.032241,0.05294 -0.02629,-0.05294 q 0,-0.07939 0.05294,-0.07939 0.05294,0 0.05294,0.05294 0,0.02647 -0.07942,0.07939 z m -2.223286,-0.05294 h -0.07942 v -0.05294 h 0.07942 z m 1.720395,0.105871 q -0.397008,-0.07939 -0.397008,-0.132333 l 0.07942,-0.02647 0.317618,0.105868 z m 2.567368,0.158807 q -0.02629,0 -0.132323,-0.158807 v -0.02647 h 0.02629 q 0.105883,0.05294 0.105883,0.185273 z m -3.308455,0.02647 -0.158795,-0.02647 v -0.05293 l 0.158795,0.02647 z m -3.811345,0.185272 h -0.105884 q 0,-0.07939 0.07942,-0.07939 0.07944,0.02647 0.07944,0.05294 z m 4.57891,0.0794 -0.02629,-0.105871 h 0.07944 q 0,0.105871 -0.05294,0.105871 z m -4.04955,0.05294 q -0.105883,0 -0.105883,-0.05294 l 0.105883,-0.02647 q 0.05294,0.02647 0.05294,0.05294 z m 4.34069,0.105875 q -0.05294,-0.02647 -0.05294,-0.105875 h 0.05294 q 0.05294,0.02647 0.05294,0.05294 0,0.05293 -0.05294,0.05293 z m 0.211768,0.158805 q -0.05294,0 -0.07944,-0.105872 0,-0.05294 0.05294,-0.05294 0.07944,0.02647 0.07944,0.07939 0,0.07939 -0.05294,0.07939 z m 0.714629,0.34408 h -0.05294 q 0,-0.05294 -0.158794,-0.291143 v -0.05294 q 0.07944,0 0.211767,0.344077 z m 0.688158,0.264676 h -0.05294 q -0.05295,-0.211743 -0.05295,-0.291144 0.05295,-0.05294 0.05295,-0.291146 0.05294,0 0.132324,0.291146 l -0.105883,0.105875 z m -0.344088,-0.0794 q -0.105884,0 -0.238208,-0.34408 l 0.05294,-0.02647 q 0.185266,0.264679 0.185266,0.370546 z m -10.295923,-0.02647 -0.02647,-0.05294 0.07939,-0.05294 0.02647,0.05294 z m 9.766566,0.238211 h -0.05294 L 43.208701,23.5892 h 0.05295 z m 0.238207,1.349851 q -0.02629,-0.02647 -0.105884,-0.02647 0,-0.07939 0.05294,-0.158807 -0.07942,-0.105872 -0.07942,-0.317612 l 0.02629,-0.158807 h 0.07942 l 0.02629,0.185272 0.105883,-0.02647 q 0,0.07939 -0.07942,0.158807 0.02629,0 0.02629,0.02647 l -0.05294,0.02647 q 0,-0.02647 -0.02629,-0.02647 v 0.05294 q 0.07942,0 0.132324,0.105869 -0.05294,0 -0.105884,0.158807 z m 1.746864,0.370548 q -0.105884,0 -0.105884,-0.05294 0,-0.185273 0.211768,-0.397016 h 0.02629 q 0,0.449951 -0.132324,0.449951 z m -1.58806,-0.211743 q -0.07942,0 -0.132323,-0.07939 0.05294,-0.105872 0.07944,-0.105872 l 0.05295,0.07939 q 0,0.02647 -0.02629,0.02647 z m -8.284394,0.158807 q -0.105872,0 -0.105872,-0.07939 h 0.05293 q 0.05294,0.02647 0.05294,0.07939 z m 9.872438,0.264676 q -0.185265,0 -0.211767,-0.07939 0,-0.05294 0.105884,-0.105872 0.05294,0 0.105883,0.07939 z m -0.238207,0.608756 -0.02629,-0.07939 0.05294,-0.291146 -0.02629,-0.211743 h 0.05294 q 0.105884,0 0.105884,0.13234 -0.05294,0.397014 -0.158795,0.44995 z m -0.344101,1.19105 h -0.05294 l 0.02629,-0.105872 -0.02629,-0.264676 q 0,-0.07939 0.132323,-0.344079 l 0.07944,0.02647 v -0.07939 q -0.07944,0 -0.07944,-0.105872 0.07944,0 0.132355,-0.185276 0.105884,-0.05294 0.185266,-0.05294 l 0.02629,0.07939 -0.05294,0.132339 h -0.05295 q -0.05294,-0.05294 -0.105883,-0.05294 0.05294,0.07939 0.05294,0.158808 -0.105884,0.211739 -0.185266,0.608755 -0.05294,0 -0.07942,0.185275 z m -9.713612,-0.211741 q -0.158807,0 -0.211739,-0.158804 0.07939,-0.264675 0.158804,-0.264675 0.05293,0 0.05293,0.07939 l -0.05293,0.132339 q 0.185272,0 0.185272,0.05294 0,0.05294 -0.132337,0.158808 z m 7.331544,0.07939 q 0,-0.105871 0.132324,-0.158804 0.02629,0 0.07944,0.07939 0,0.05294 -0.211769,0.07939 z m -0.132323,0.185275 q 0,-0.07939 0.05294,-0.07939 l 0.02629,0.05294 z m 2.249752,0.132336 0.02629,-0.105869 q -0.105883,0 -0.105883,0.05293 v 0.05294 z m -3.387864,1.455723 h -0.05295 q 0,-0.13234 0.05295,-0.13234 0.05294,0 0.05294,0.05294 0,0.07939 -0.05294,0.07939 z m 2.143884,0.397015 q 0,-0.105871 0.105884,-0.132339 v -0.02647 h -0.07942 q -0.05294,0.07939 -0.05294,0.132339 0,0.02647 0.02629,0.02647 z m 0.05294,0.158804 q 0,-0.105868 0.05294,-0.105868 l 0.02629,0.05294 q -0.05294,0.05294 -0.07942,0.05294 z m -6.087581,1.243988 h -0.07938 v -0.05294 h 0.07938 z m 4.975922,0.185272 -0.105884,-0.02647 V 31.0266 h 0.05294 q 0.05294,0.02647 0.05294,0.0794 z m 0.979302,0.07939 q 0,-0.07939 0.105884,-0.158804 0.05294,0.02647 0.05294,0.05294 0,0.105871 -0.158795,0.105871 z m 0.132323,0.105871 q -0.05294,0 -0.05294,-0.105871 h 0.07944 q 0.05294,0.02647 0.05294,0.05294 -0.05294,0.05293 -0.07944,0.05294 z m 0.926366,0.423481 q -0.105884,0 -0.370547,-0.132339 l -0.105884,0.02647 q 0,-0.185272 -0.05294,-0.185272 l 0.02629,0.05294 -0.05294,0.02647 -0.05294,-0.07939 0.02629,-0.07939 q -0.185266,-0.05294 -0.185266,-0.105872 0.02629,-0.05294 0.05294,-0.05294 0.767562,0.317612 0.767562,0.449952 0,0.05294 -0.05294,0.07939 z m -1.588056,-0.397008 h -0.02629 q 0,-0.05294 0.05294,-0.07939 h 0.02629 q 0,0.07939 -0.05294,0.07939 z m 0.37055,0.23821 q -0.05294,0 -0.05294,-0.05294 l 0.07942,-0.05293 q 0.05294,0 0.05294,0.05293 z m 1.508659,0.370549 q -0.264678,-0.07939 -0.264678,-0.158804 0,-0.05294 0.07944,-0.07939 h 0.05295 q 0.132323,0.05294 0.185266,0.185271 0,0.05294 -0.05294,0.05294 z m -0.794027,-0.02647 q -0.07942,0 -0.07942,-0.05294 l 0.05294,-0.02647 z m 0.238208,0.21174 -0.132324,-0.158804 v -0.05294 h 0.05294 q 0.132325,0.07939 0.132325,0.185272 z m 0.423486,-0.05293 h -0.132324 v -0.05293 h 0.07944 q 0.05294,0 0.05294,0.05293 z m 0.370551,0.13234 q -0.105885,0 -0.105885,-0.05294 0.07944,-0.05293 0.158796,-0.05293 h 0.02629 q 0,0.05293 -0.07944,0.105875 z m 0.264678,0.211739 -0.211767,-0.211739 0.105883,-0.07939 h 0.05294 q 0,0.158807 0.105883,0.264675 z m -3.414311,-0.02647 q -0.158795,0 -0.185266,-0.105874 l 0.07944,-0.02647 q 0.02629,0 0.105883,0.105872 z m 2.805569,0.05294 q -0.105884,-0.02647 -0.158795,-0.132339 l 0.05294,-0.02647 q 0.158795,0.05294 0.158795,0.105871 0,0.05294 -0.05294,0.05294 z m -3.493737,-0.02647 q -0.07944,0 -0.07944,-0.05294 h 0.07944 z m 2.540902,0.05293 -0.02629,-0.05293 0.07944,-0.02647 q 0,0.07939 -0.05294,0.07939 z m 1.720394,0.105872 q -0.05291,0 -0.105885,-0.07939 0.02629,-0.05294 0.07942,-0.05294 0.05294,0 0.105884,0.07939 0,0.05294 -0.07944,0.05294 z m -1.402782,0 q -0.158795,0 -0.185266,-0.105872 h 0.132324 q 0.05294,0.02647 0.05294,0.105872 z m -1.058709,0.07941 q -0.07944,0 -0.07944,-0.05293 l 0.05294,-0.02647 z m 1.905669,0 h -0.07942 q 0,-0.05293 0.05294,-0.07939 h 0.02629 z m -1.00577,0.158808 q -0.07942,0 -0.07942,-0.07939 0,-0.07939 0.132324,-0.105872 l 0.02629,0.05294 q 0,0.132336 -0.07944,0.132336 z m 1.746866,0.05293 q -0.07944,-0.02647 -0.07944,-0.238208 h 0.05294 q 0.07944,0.02647 0.07944,0.185272 0,0.05293 -0.05294,0.05294 z m -3.493733,-0.105872 q -0.105884,0 -0.105884,-0.05294 l 0.02629,-0.05293 q 0.132324,0.05293 0.132324,0.07939 z m 2.964379,0.185272 q -0.05294,0 -0.158795,-0.211743 v -0.05295 h 0.02629 q 0.05291,0 0.185266,0.21174 0,0.05293 -0.05294,0.05293 z m -2.752636,-0.105865 q -0.07944,0 -0.07944,-0.07939 l 0.05294,-0.02647 z m -1.985075,0.02647 q -0.07944,0 -0.07944,-0.05294 l 0.05294,-0.05293 z m 3.043783,0.158804 q -0.238208,-0.07939 -0.238208,-0.105874 0,-0.07939 0.07944,-0.105875 l 0.211768,0.105875 v -0.05293 h 0.05294 v 0.07939 q 0,0.07939 -0.105884,0.07939 z m 0.370544,-0.07939 -0.02629,-0.05293 0.05294,-0.02647 0.02629,0.05293 z m -0.317614,0.105872 q 0,-0.05294 0.07942,-0.07939 l 0.02629,0.05293 z m 0.555819,0.370547 -0.397012,-0.264676 0.02629,-0.05294 h -0.07944 q 0,-0.05293 0.105883,-0.07939 0.05295,0 0.05295,0.05294 l -0.02629,0.07939 q 0.105883,0 0.185265,0.07939 l 0.02629,-0.158807 q -0.05294,0 -0.05294,-0.05294 0.02629,-0.05293 0.05294,-0.05293 h 0.02629 q 0.185266,0.07939 0.185266,0.13234 0,0.05294 -0.211768,0.158807 0.105884,0.02647 0.105884,0.07939 z M 39.74126,33.249907 h -0.02629 q -0.07944,-0.132341 -0.238201,-0.132341 v -0.07939 q 0.158795,0 0.264679,0.158804 z m 5.74348,-0.07939 q -0.05294,0 -0.05294,-0.07939 0,-0.05294 0.05294,-0.05294 0.05294,0 0.05294,0.05294 0,0.07939 -0.05294,0.07939 z m -6.563984,0.423485 q -0.02629,0 -0.07944,-0.07939 l 0.105884,-0.105871 -0.05294,-0.132336 0.05294,-0.02647 0.05294,0.02647 q 0,-0.07939 0.05294,-0.07939 h 0.05294 l -0.02629,0.105874 q 0.05294,0 0.05294,0.05293 -0.158795,0.02647 -0.158795,0.211743 z m -2.48796,-0.238214 v -0.105871 h -0.02641 v 0.105871 z m 8.628459,-0.02647 q -0.05294,0 -0.05294,-0.05293 l 0.05294,-0.02647 q 0.05294,0 0.05294,0.05294 z m 0.635223,0.07939 q -0.07942,0 -0.07942,-0.07939 0,-0.07939 0.05294,-0.07939 l 0.05294,0.02647 q -0.02629,0.05294 -0.02629,0.132339 z m -6.272836,0 q -0.05294,0 -0.105883,-0.07939 v -0.02647 h 0.158794 q 0,0.105872 -0.05294,0.105872 z m -0.873433,0.132339 -0.07944,-0.132339 0.05294,-0.02647 0.07944,0.13234 z m 6.696318,0.02647 q -0.132324,0 -0.132324,-0.05293 l 0.132324,-0.02647 z m 0.50289,0.158804 q -0.05294,0 -0.05294,-0.05293 0.02629,-0.158804 0.07944,-0.158804 h 0.02629 l -0.02629,0.07939 0.02629,0.105874 z m -7.040401,-0.07939 q -0.05294,0 -0.05294,-0.07939 h 0.05294 z m 5.611147,0.34408 q -0.211767,-0.26466 -0.211767,-0.344062 l 0.05294,-0.02647 Q 44.3731,33.752798 44.3731,33.96454 Z m -0.02629,0.291143 q -0.07944,0 -0.317619,-0.31761 0.05294,0 0.05294,-0.05293 -0.105885,0 -0.211768,-0.185276 -0.02629,-0.07939 0.05294,-0.07939 h 0.02629 q 0.132355,0.158808 0.185266,0.158808 0.211767,0.264678 0.211767,0.476416 z m 0.899902,-0.370549 -0.07944,-0.07939 q 0.02629,-0.05294 0.07944,-0.05294 0.02629,0 0.07942,0.07939 z m 0.476415,0.02647 h -0.05294 v -0.07939 h 0.05294 z m -2.011545,0.02647 q -0.07944,0 -0.07944,-0.07939 h 0.02629 q 0.05294,0.02647 0.05294,0.07939 z m 0.211768,0.370549 q -0.05294,0 -0.05294,-0.07939 h 0.05294 z m 0.211768,0.714625 h -0.05294 v -0.158804 h 0.05294 z m -0.238209,0.317612 h -0.05294 v -0.132336 h 0.05294 z m 0.317619,0.07939 h -0.05294 v -0.105847 h 0.05294 z m 0.05294,0.397016 q -0.07944,0 -0.07944,-0.05294 v -0.238214 h 0.07944 z m -0.423483,0.211743 -0.02629,-0.05294 0.05294,-0.02647 h 0.02629 q 0,0.07939 -0.05294,0.0794 z m -0.02629,0.185262 -0.05294,-0.05293 0.105884,-0.02647 q 0,0.07938 -0.05294,0.07941 z m 0.07944,0.13234 h -0.132323 q 0,-0.07938 0.07942,-0.07938 h 0.05294 z m 0.238209,0.370551 h -0.05294 q 0.02629,-0.185266 0.07944,-0.185266 h 0.02629 q -0.05294,0.13234 -0.05294,0.185264 z m 1.641226,-0.105874 q 0,-0.07941 0.05294,-0.07941 l 0.02629,0.05293 z m -1.455729,0.291149 h -0.05294 v -0.158791 q 0,-0.05293 0.05294,-0.05293 h 0.02629 z m 0.264679,0.185266 h -0.05294 q 0,-0.211737 0.211768,-0.264678 0,-0.02629 0.07944,-0.07942 h 0.02629 q 0,0.238208 -0.238208,0.238208 z m -0.846966,-0.185266 h -0.05294 q 0,-0.105883 0.05294,-0.105883 z m -0.344104,1.058706 q -0.105884,-0.02629 -0.105884,-0.07942 l 0.105884,-0.05294 q 0,-0.29115 0.132324,-0.397011 h 0.05291 l -0.02629,0.158794 0.105884,-0.02629 v 0.05295 q -0.07944,0.105883 -0.185266,0.105883 0.07942,0.07942 0.07942,0.158795 -0.07942,0 -0.158795,0.07942 z m 0.132324,0.185266 q -0.05295,0 -0.105884,-0.07942 0,-0.05294 0.07942,-0.105884 0.05294,0.02629 0.05294,0.05294 z m -0.608761,0.8205 q -0.105884,0 -0.132324,-0.07942 v -0.158795 q 0,-0.05294 0.07944,-0.07944 l -0.02629,-0.05294 q 0.105884,-0.29115 0.185266,-0.317614 l 0.158795,0.02629 q 0.02629,0 0.02629,-0.02629 -0.07944,0 -0.07944,-0.07942 l 0.31762,-0.05291 q 0.05294,0.02629 0.05294,0.07942 l -0.185266,-0.02629 0.02629,0.05294 -0.02629,0.05291 q 0.02629,0.05294 0.02629,0.132324 -0.185266,0.105883 -0.238207,0.37055 z m 2.170095,-0.370538 q -0.105884,-0.02629 -0.105884,-0.105884 0,-0.105883 0.370547,-0.291149 v 0.02629 q -0.05294,0.211737 -0.264679,0.37055 z m -0.07944,0.158795 q -0.07942,0 -0.158795,-0.105884 l 0.07942,-0.05294 h 0.07944 q 0.05294,0 0.05294,0.07944 0,0.07944 -0.05294,0.07944 z m -0.344085,0.529354 -0.02629,-0.07942 q 0.158794,-0.211768 0.185265,-0.449951 0.07942,0 0.105884,0.07944 -0.158794,0.42348 -0.264679,0.449948 z m -0.846966,1.270448 v -0.02629 l 0.238207,-0.582283 q 0.07944,-0.02629 0.158795,-0.158795 l 0.05294,0.02629 q 0.05294,0 0.05294,-0.105884 -0.07944,0 -0.07944,-0.05294 0.238208,-0.29115 0.449951,-0.29115 l 0.02629,0.05294 q -0.105884,0.185266 -0.211768,0.185266 0,-0.07944 -0.05294,-0.07944 0,0.264679 -0.211768,0.423483 0,0.132324 -0.423483,0.608755 z m -2.408694,-0.582276 v -0.02629 q 0.05294,-0.105884 0.158796,-0.105884 l 0.05294,0.105884 z m -0.158795,0.158795 -0.02629,-0.05294 0.05294,-0.02629 h 0.02629 q 0,0.07944 -0.05294,0.07944 z m -1.799799,1.164577 q -0.07944,0 -0.07944,-0.05294 0,-0.05295 0.105884,-0.105885 0.05294,0.02629 0.05294,0.07942 0,0.02629 -0.07944,0.07944 z m 2.143873,0.979308 q 0,-0.05294 -0.07944,-0.05294 0,0.05294 0.07944,0.05294 z m -0.158795,0.264678 h -0.02629 q 0,-0.05294 0.05294,-0.07942 h 0.02629 q 0,0.07942 -0.05294,0.07942 z m -7.622685,0.608752 h -0.02647 l 0.02647,-0.158795 h 0.05294 q 0,0.158795 -0.05294,0.158795 z m 0.02647,0.185266 h -0.05293 v -0.07942 h 0.05293 z m 0.661692,0.211767 h -0.02647 q -0.13234,-0.07944 -0.185273,-0.07944 -0.132339,0.07944 -0.211743,0.07944 l -0.02647,-0.05294 v -0.105884 l 0.105875,0.05295 q 0,-0.05295 0.05293,-0.05295 l 0.02647,0.02629 0.132339,-0.105883 h 0.05294 v 0.07944 l 0.132339,-0.02629 q 0.05293,0.05294 0.05293,0.105883 h -0.105867 z m 0.661689,0.449951 -0.02647,-0.105884 0.05293,-0.105884 q -0.02647,0 -0.105871,-0.105884 l 0.05293,-0.02629 q 0.105868,0.05294 0.105868,0.211768 0,0.07942 -0.07939,0.132324 z M 34.739079,43.88988 q -0.105875,-0.02629 -0.105875,-0.07944 v -0.105884 h 0.02647 q 0.158808,0.105884 0.158808,0.132325 0,0.05291 -0.0794,0.05291 z m 1.085172,0.05294 -0.02647,-0.05294 q 0,-0.05294 0.05294,-0.05294 l 0.02647,0.05294 q 0,0.05294 -0.05293,0.05294 z"
       id="text1"
       style="font-size:29.0909px;font-family:'Dark SIlence';-inkscape-font-specification:'Dark SIlence';fill:#f4e3cf;fill-opacity:1;stroke-width:0.413556;stroke-opacity:0.6"
       aria-label="33" />
    <rect
       style="opacity:0.5;fill:none;fill-opacity:1;stroke:#000000;stroke-width:2.72727;stroke-dasharray:none;stroke-opacity:1;filter:url(#filter1-3)"
       id="rect1-5-5"
       width="49.090908"
       height="49.090908"
       x="7.4405394"
       y="7.4604964"
       rx="7.4768682"
       ry="7.477273"
       transform="matrix(0.43046721,0,0,0.43046721,34.695898,34.707264)" />
    <rect
       style="fill:#c4c2c5;fill-opacity:1;stroke:#1e2430;stroke-width:1.174;stroke-dasharray:none;stroke-opacity:1"
       id="rect1-3"
       width="21.132023"
       height="21.132023"
       x="37.898808"
       y="37.918762"
       rx="3.2185469"
       ry="3.2187209" />
    <rect
       style="fill:#1e2430;fill-opacity:1;stroke:none;stroke-width:1.00656;stroke-dasharray:none;stroke-opacity:1"
       id="rect1-6-5"
       width="18.118069"
       height="18.118069"
       x="39.405781"
       y="39.425739"
       rx="2.4074855"
       ry="2.4074855" />
    <path
       id="path1"
       style="fill:#f4e3cf;fill-opacity:1;stroke:none;stroke-width:0.181638;stroke-dasharray:none;stroke-dashoffset:2.2;stroke-opacity:0.6"
       d="m 51.778779,43.941045 c -0.187252,-8.1e-5 -0.387675,0.07531 -0.638521,0.222291 -0.596919,0.349749 -1.377579,0.514692 -2.44963,0.514692 -1.071954,0 -1.878654,-0.168464 -2.472018,-0.516184 -0.475801,-0.278826 -0.759862,-0.282522 -1.159175,-0.01336 -1.025175,0.690863 -1.797804,2.90589 -2.024459,5.800365 -0.135901,1.735692 -0.0089,2.650757 0.440096,3.165728 0.216586,0.248286 0.748267,0.206204 1.227806,-0.09847 0.406495,-0.258249 0.890832,-0.828123 1.469484,-1.729077 0.522892,-0.81415 1.155362,-1.082294 2.554068,-1.084584 1.395926,-0.0021 1.944506,0.26195 2.588383,1.251671 1.08027,1.660535 2.078776,2.238636 2.664465,1.542581 0.324469,-0.385605 0.383859,-0.758167 0.368487,-2.309398 -0.028,-2.817903 -0.76459,-5.381404 -1.826034,-6.359807 C 52.239036,44.06691 52.019542,43.9412 51.778779,43.9411 Z m -6.06442,1.660439 h 0.647469 0.647466 v 0.554974 0.554973 h 0.554977 0.554971 v 0.693717 0.693714 h -0.554971 -0.554977 v 0.601222 0.601221 h -0.586297 c -0.322099,0 -0.612073,-0.02889 -0.645977,-0.06265 -0.0339,-0.03389 -0.06262,-0.303056 -0.06262,-0.599727 V 48.098857 H 45.159418 44.604442 V 47.405144 46.71143 h 0.554976 0.55497 v -0.55498 z m 5.278213,0 c 0.5841,0 0.834244,0.647172 0.413247,1.068174 -0.26774,0.267713 -0.512097,0.288754 -0.77577,0.06565 -0.457352,-0.386999 -0.218646,-1.133819 0.362523,-1.133819 z m -1.123373,1.18603 c 0.145866,1.01e-4 0.292703,0.05822 0.408766,0.186472 0.180933,0.199943 0.20047,0.65765 0.03732,0.871247 -0.319324,0.418037 -1.086073,0.14915 -1.086073,-0.380423 0,-0.401918 0.319131,-0.677526 0.640008,-0.677304 z m 2.292994,0.02255 c 0.168103,0.0031 0.331322,0.05875 0.426667,0.164095 0.180934,0.199943 0.200443,0.65765 0.0373,0.87125 -0.339646,0.444632 -1.086079,0.147034 -1.086079,-0.432643 0,-0.1757 0.07042,-0.36615 0.168576,-0.455016 0.112217,-0.101585 0.285435,-0.150764 0.45353,-0.147674 z m -1.12934,1.19647 c 0.517834,0 0.769797,0.549277 0.456506,0.996564 -0.107097,0.152907 -0.23771,0.20587 -0.507235,0.20587 -0.310298,0 -0.382306,-0.04038 -0.507228,-0.281972 -0.246338,-0.476336 0.02255,-0.920482 0.557957,-0.920482 z" />
  </g>
</svg>
