<?xml version="1.0" encoding="UTF-8" standalone="no"?>
<svg
   width="64"
   height="64"
   version="1.1"
   id="svg73"
   sodipodi:docname="accessories-calculator.svg"
   inkscape:version="1.2.2 (b0a8486541, 2022-12-01)"
   xmlns:inkscape="http://www.inkscape.org/namespaces/inkscape"
   xmlns:sodipodi="http://sodipodi.sourceforge.net/DTD/sodipodi-0.dtd"
   xmlns="http://www.w3.org/2000/svg"
   xmlns:svg="http://www.w3.org/2000/svg"
   xmlns:rdf="http://www.w3.org/1999/02/22-rdf-syntax-ns#"
   xmlns:cc="http://creativecommons.org/ns#"
   xmlns:dc="http://purl.org/dc/elements/1.1/">
  <metadata
     id="metadata77">
    <rdf:RDF>
      <cc:Work
         rdf:about="">
        <dc:format>image/svg+xml</dc:format>
        <dc:type
           rdf:resource="http://purl.org/dc/dcmitype/StillImage" />
      </cc:Work>
    </rdf:RDF>
  </metadata>
  <sodipodi:namedview
     pagecolor="#f5f7fa"
     bordercolor="#666666"
     borderopacity="1"
     objecttolerance="10"
     gridtolerance="10"
     guidetolerance="10"
     inkscape:pageopacity="0"
     inkscape:pageshadow="2"
     inkscape:window-width="1280"
     inkscape:window-height="603"
     id="namedview75"
     showgrid="false"
     inkscape:zoom="6.2890625"
     inkscape:cx="51.677019"
     inkscape:cy="37.843478"
     inkscape:window-x="35"
     inkscape:window-y="32"
     inkscape:window-maximized="0"
     inkscape:current-layer="g877"
     inkscape:document-rotation="0"
     inkscape:pagecheckerboard="0"
     inkscape:showpageshadow="2"
     inkscape:deskcolor="#d1d1d1" />
  <defs
     id="defs29">
    <filter
       style="color-interpolation-filters:sRGB;"
       inkscape:label="Blur"
       id="filter1"
       x="-0.091333304"
       y="-0.091333304"
       width="1.1826666"
       height="1.1826666">
      <feGaussianBlur
         stdDeviation="1.3 1.3"
         result="blur"
         id="feGaussianBlur1" />
    </filter>
    <filter
       style="color-interpolation-filters:sRGB"
       inkscape:label="Blur"
       id="filter1-3"
       x="-0.091333304"
       y="-0.091333304"
       width="1.1826666"
       height="1.1826666">
      <feGaussianBlur
         stdDeviation="1.3 1.3"
         result="blur"
         id="feGaussianBlur1-6" />
    </filter>
  </defs>
  <circle
     cx="32.516094"
     cy="31.877844"
     r="0"
     fill="url(#b)"
     stroke-width="1.5715"
     id="circle41"
     style="fill:url(#b)" />
  <g
     aria-label="GZ"
     transform="matrix(1.2212657,0,0,0.81882264,0.4960938,-0.1661539)"
     id="text93"
     style="font-weight:bold;font-size:11.5263px;line-height:1.25;font-family:sans-serif;-inkscape-font-specification:'sans-serif Bold';fill:#f2f2f2;stroke-width:0.288159" />
  <g
     id="g877"
     transform="matrix(1.1,0,0,1.1,-3.1845928,-3.2065454)">
    <rect
       style="fill:none;fill-opacity:1;stroke:#000000;stroke-width:2.72727;stroke-dasharray:none;stroke-opacity:1;filter:url(#filter1);opacity:0.5"
       id="rect1-5"
       width="49.090908"
       height="49.090908"
       x="7.4405394"
       y="7.4604964"
       rx="7.4768682"
       ry="7.477273" />
    <rect
       style="opacity:1;fill:#c4c2c5;stroke-width:2.72727273;stroke-opacity:1;fill-opacity:1;stroke:#1e2430;stroke-dasharray:none"
       id="rect1"
       width="49.090908"
       height="49.090908"
       x="7.4405394"
       y="7.4604964"
       rx="7.4768682"
       ry="7.477273" />
    <rect
       style="fill:#1e2430;fill-opacity:1;stroke:none;stroke-width:2.33829;stroke-dasharray:none;stroke-opacity:1"
       id="rect1-6"
       width="42.089317"
       height="42.089317"
       x="10.941335"
       y="10.961291"
       rx="5.5927272"
       ry="5.5927272" />
    <path
       style="fill:#f4e3cf;fill-opacity:1;stroke-width:0.0529061"
       d="M 30.996251,45.273287 C 25.14862,41.7393 22.827982,39.569028 21.591702,36.478105 21.210674,35.525468 20.803736,33.919038 20.680361,32.880491 20.663081,32.735 20.62664,32.461209 20.599379,32.272072 20.398342,30.877219 20.282071,28.098355 20.268065,24.353702 l -0.01044,-2.793147 0.52906,-0.150893 c 0.290978,-0.08298 0.636192,-0.182402 0.767133,-0.220911 0.614427,-0.180704 4.4404,-1.295017 5.634505,-1.641053 0.929058,-0.269227 2.834119,-0.823431 3.979725,-1.157749 0.903812,-0.263757 0.727816,-0.268238 1.787049,0.04547 0.595337,0.176325 2.233926,0.653109 3.280182,0.954452 0.436473,0.125712 1.09119,0.316901 1.454918,0.42486 0.363726,0.107959 0.732754,0.214705 0.820047,0.237212 0.08726,0.02245 0.36704,0.102872 0.621653,0.178576 0.76013,0.226027 1.344115,0.39716 2.182379,0.639538 0.436474,0.126203 1.150704,0.333235 1.587184,0.460068 l 0.793598,0.23061 0.01701,1.400927 c 0.01824,1.52343 -0.07286,5.766629 -0.149271,6.956076 -0.229024,3.562254 -0.682311,5.661344 -1.617403,7.489443 -0.932227,1.822482 -2.258413,3.254518 -4.687129,5.061229 -1.204497,0.896014 -5.07515,3.34763 -5.285301,3.34763 -0.04311,0 -0.482507,-0.244238 -0.97646,-0.54276 z m 1.590737,-1.634284 c 0.289753,-0.178927 0.741093,-0.457379 1.002979,-0.618771 1.932397,-1.190872 3.577522,-2.408409 4.655746,-3.445674 1.442612,-1.387812 2.136436,-2.376749 2.710599,-3.863589 0.40233,-1.041857 0.767036,-2.784656 0.885691,-4.232496 0.01794,-0.218252 0.05504,-0.611062 0.08266,-0.872946 0.0959,-0.910831 0.209697,-4.151282 0.209697,-5.969868 0,-1.689039 -0.0068,-1.833836 -0.09262,-1.878931 -0.05093,-0.02684 -0.342567,-0.120996 -0.648112,-0.209148 -1.645559,-0.474827 -3.537605,-1.025691 -4.496997,-1.309309 -0.363745,-0.107524 -0.732764,-0.213372 -0.820058,-0.235215 -0.08729,-0.02183 -0.456319,-0.12769 -0.820048,-0.235215 -0.363738,-0.107526 -0.935126,-0.275022 -1.269755,-0.372216 -0.33463,-0.09719 -0.89924,-0.262165 -1.25468,-0.366609 -0.355439,-0.104441 -0.695533,-0.189893 -0.755753,-0.189893 -0.06022,0 -0.400317,0.08545 -0.755758,0.189889 -0.355442,0.104441 -0.920043,0.269488 -1.254681,0.366773 -0.334631,0.09728 -0.822687,0.239831 -1.084573,0.316781 -0.261886,0.07694 -0.833274,0.243565 -1.269746,0.370262 -0.436475,0.126702 -1.007865,0.293104 -1.269746,0.369786 -0.261889,0.07668 -0.928507,0.270471 -1.481378,0.430649 -0.552868,0.160177 -1.290908,0.374931 -1.64009,0.477227 -0.34918,0.102301 -0.765629,0.221896 -0.925442,0.265777 -0.548684,0.150647 -0.495918,-0.153634 -0.460405,2.65485 0.09653,7.63501 0.628094,10.357284 2.501448,12.810637 0.694127,0.909033 2.030475,2.147299 3.460783,3.206795 1.079631,0.799735 4.001161,2.661102 4.181825,2.664327 0.04487,0.0013 0.31867,-0.145003 0.608422,-0.323867 z m -1.192629,-1.94252 c -2.883486,-1.761593 -5.055413,-3.572788 -6.03818,-5.035305 -1.276134,-1.899082 -1.72448,-4.497152 -1.82708,-10.587565 l -0.03446,-2.045319 0.180294,-0.05253 c 0.09918,-0.02891 0.477895,-0.139752 0.841622,-0.246375 0.363735,-0.106627 1.113679,-0.32524 1.666548,-0.485802 0.552871,-0.160563 1.29091,-0.375711 1.640092,-0.478101 0.349183,-0.102393 0.742007,-0.217078 0.872949,-0.254856 0.337468,-0.09736 1.142498,-0.330318 1.45492,-0.421016 0.145472,-0.04224 0.538321,-0.158182 0.872954,-0.257659 0.334629,-0.09948 0.685786,-0.197625 0.780364,-0.218113 l 0.171947,-0.03725 v 10.215091 c 0,5.618306 -0.01778,10.214363 -0.0397,10.213465 -0.0218,-0.0014 -0.265858,-0.139807 -0.542288,-0.308714 z"
       id="path1-1-0" />
    <rect
       style="opacity:0.5;fill:none;fill-opacity:1;stroke:#000000;stroke-width:2.72727;stroke-dasharray:none;stroke-opacity:1;filter:url(#filter1-3)"
       id="rect1-5-5"
       width="49.090908"
       height="49.090908"
       x="7.4405394"
       y="7.4604964"
       rx="7.4768682"
       ry="7.477273"
       transform="matrix(0.43046721,0,0,0.43046721,34.695898,34.707264)" />
    <rect
       style="fill:#c4c2c5;fill-opacity:1;stroke:#1e2430;stroke-width:1.174;stroke-dasharray:none;stroke-opacity:1"
       id="rect1-3"
       width="21.132023"
       height="21.132023"
       x="37.898808"
       y="37.918762"
       rx="3.2185469"
       ry="3.2187209" />
    <rect
       style="fill:#1e2430;fill-opacity:1;stroke:none;stroke-width:1.00656;stroke-dasharray:none;stroke-opacity:1"
       id="rect1-6-5"
       width="18.118069"
       height="18.118069"
       x="39.405781"
       y="39.425739"
       rx="2.4074855"
       ry="2.4074855" />
    <path
       id="path1"
       style="fill:#f4e3cf;fill-opacity:1;stroke:none;stroke-width:0.181638;stroke-dasharray:none;stroke-dashoffset:2.2;stroke-opacity:0.6"
       d="m 51.778779,43.941045 c -0.187252,-8.1e-5 -0.387675,0.07531 -0.638521,0.222291 -0.596919,0.349749 -1.377579,0.514692 -2.44963,0.514692 -1.071954,0 -1.878654,-0.168464 -2.472018,-0.516184 -0.475801,-0.278826 -0.759862,-0.282522 -1.159175,-0.01336 -1.025175,0.690863 -1.797804,2.90589 -2.024459,5.800365 -0.135901,1.735692 -0.0089,2.650757 0.440096,3.165728 0.216586,0.248286 0.748267,0.206204 1.227806,-0.09847 0.406495,-0.258249 0.890832,-0.828123 1.469484,-1.729077 0.522892,-0.81415 1.155362,-1.082294 2.554068,-1.084584 1.395926,-0.0021 1.944506,0.26195 2.588383,1.251671 1.08027,1.660535 2.078776,2.238636 2.664465,1.542581 0.324469,-0.385605 0.383859,-0.758167 0.368487,-2.309398 -0.028,-2.817903 -0.76459,-5.381404 -1.826034,-6.359807 C 52.239036,44.06691 52.019542,43.9412 51.778779,43.9411 Z m -6.06442,1.660439 h 0.647469 0.647466 v 0.554974 0.554973 h 0.554977 0.554971 v 0.693717 0.693714 h -0.554971 -0.554977 v 0.601222 0.601221 h -0.586297 c -0.322099,0 -0.612073,-0.02889 -0.645977,-0.06265 -0.0339,-0.03389 -0.06262,-0.303056 -0.06262,-0.599727 V 48.098857 H 45.159418 44.604442 V 47.405144 46.71143 h 0.554976 0.55497 v -0.55498 z m 5.278213,0 c 0.5841,0 0.834244,0.647172 0.413247,1.068174 -0.26774,0.267713 -0.512097,0.288754 -0.77577,0.06565 -0.457352,-0.386999 -0.218646,-1.133819 0.362523,-1.133819 z m -1.123373,1.18603 c 0.145866,1.01e-4 0.292703,0.05822 0.408766,0.186472 0.180933,0.199943 0.20047,0.65765 0.03732,0.871247 -0.319324,0.418037 -1.086073,0.14915 -1.086073,-0.380423 0,-0.401918 0.319131,-0.677526 0.640008,-0.677304 z m 2.292994,0.02255 c 0.168103,0.0031 0.331322,0.05875 0.426667,0.164095 0.180934,0.199943 0.200443,0.65765 0.0373,0.87125 -0.339646,0.444632 -1.086079,0.147034 -1.086079,-0.432643 0,-0.1757 0.07042,-0.36615 0.168576,-0.455016 0.112217,-0.101585 0.285435,-0.150764 0.45353,-0.147674 z m -1.12934,1.19647 c 0.517834,0 0.769797,0.549277 0.456506,0.996564 -0.107097,0.152907 -0.23771,0.20587 -0.507235,0.20587 -0.310298,0 -0.382306,-0.04038 -0.507228,-0.281972 -0.246338,-0.476336 0.02255,-0.920482 0.557957,-0.920482 z" />
  </g>
</svg>
