<?xml version="1.0" encoding="UTF-8" standalone="no"?>
<svg
   width="64"
   height="64"
   version="1.1"
   id="svg73"
   sodipodi:docname="accessories-calculator.svg"
   inkscape:version="1.2.2 (b0a8486541, 2022-12-01)"
   xmlns:inkscape="http://www.inkscape.org/namespaces/inkscape"
   xmlns:sodipodi="http://sodipodi.sourceforge.net/DTD/sodipodi-0.dtd"
   xmlns="http://www.w3.org/2000/svg"
   xmlns:svg="http://www.w3.org/2000/svg"
   xmlns:rdf="http://www.w3.org/1999/02/22-rdf-syntax-ns#"
   xmlns:cc="http://creativecommons.org/ns#"
   xmlns:dc="http://purl.org/dc/elements/1.1/">
  <metadata
     id="metadata77">
    <rdf:RDF>
      <cc:Work
         rdf:about="">
        <dc:format>image/svg+xml</dc:format>
        <dc:type
           rdf:resource="http://purl.org/dc/dcmitype/StillImage" />
      </cc:Work>
    </rdf:RDF>
  </metadata>
  <sodipodi:namedview
     pagecolor="#f5f7fa"
     bordercolor="#666666"
     borderopacity="1"
     objecttolerance="10"
     gridtolerance="10"
     guidetolerance="10"
     inkscape:pageopacity="0"
     inkscape:pageshadow="2"
     inkscape:window-width="1280"
     inkscape:window-height="603"
     id="namedview75"
     showgrid="false"
     inkscape:zoom="6.2890625"
     inkscape:cx="51.677019"
     inkscape:cy="37.843478"
     inkscape:window-x="35"
     inkscape:window-y="32"
     inkscape:window-maximized="0"
     inkscape:current-layer="g877"
     inkscape:document-rotation="0"
     inkscape:pagecheckerboard="0"
     inkscape:showpageshadow="2"
     inkscape:deskcolor="#d1d1d1" />
  <defs
     id="defs29">
    <filter
       style="color-interpolation-filters:sRGB;"
       inkscape:label="Blur"
       id="filter1"
       x="-0.091333304"
       y="-0.091333304"
       width="1.1826666"
       height="1.1826666">
      <feGaussianBlur
         stdDeviation="1.3 1.3"
         result="blur"
         id="feGaussianBlur1" />
    </filter>
    <filter
       style="color-interpolation-filters:sRGB"
       inkscape:label="Blur"
       id="filter1-3"
       x="-0.091333304"
       y="-0.091333304"
       width="1.1826666"
       height="1.1826666">
      <feGaussianBlur
         stdDeviation="1.3 1.3"
         result="blur"
         id="feGaussianBlur1-6" />
    </filter>
  </defs>
  <circle
     cx="32.516094"
     cy="31.877844"
     r="0"
     fill="url(#b)"
     stroke-width="1.5715"
     id="circle41"
     style="fill:url(#b)" />
  <g
     aria-label="GZ"
     transform="matrix(1.2212657,0,0,0.81882264,0.4960938,-0.1661539)"
     id="text93"
     style="font-weight:bold;font-size:11.5263px;line-height:1.25;font-family:sans-serif;-inkscape-font-specification:'sans-serif Bold';fill:#f2f2f2;stroke-width:0.288159" />
  <g
     id="g877"
     transform="matrix(1.1,0,0,1.1,-3.1845928,-3.2065454)">
    <rect
       style="fill:none;fill-opacity:1;stroke:#000000;stroke-width:2.72727;stroke-dasharray:none;stroke-opacity:1;filter:url(#filter1);opacity:0.5"
       id="rect1-5"
       width="49.090908"
       height="49.090908"
       x="7.4405394"
       y="7.4604964"
       rx="7.4768682"
       ry="7.477273" />
    <rect
       style="opacity:1;fill:#c4c2c5;stroke-width:2.72727273;stroke-opacity:1;fill-opacity:1;stroke:#1e2430;stroke-dasharray:none"
       id="rect1"
       width="49.090908"
       height="49.090908"
       x="7.4405394"
       y="7.4604964"
       rx="7.4768682"
       ry="7.477273" />
    <rect
       style="fill:#1e2430;fill-opacity:1;stroke:none;stroke-width:2.33829;stroke-dasharray:none;stroke-opacity:1"
       id="rect1-6"
       width="42.089317"
       height="42.089317"
       x="10.941335"
       y="10.961291"
       rx="5.5927272"
       ry="5.5927272" />
    <path
       style="fill:#f4e3cf;fill-opacity:1;stroke:none;stroke-width:0.413556;stroke-dasharray:none;stroke-opacity:0.6"
       d="m 31.922562,45.889103 c -3.92e-4,-0.06822 -0.24773,-0.882971 -0.549647,-1.810595 -0.488299,-1.500254 -0.558735,-1.823559 -0.637616,-2.926696 -0.04877,-0.682069 -0.117696,-1.315576 -0.153158,-1.407784 -0.251647,-0.654396 -2.016381,-0.757525 -2.497948,-0.145984 -0.560501,0.711781 -1.090407,0.670458 -0.966932,-0.0754 0.09302,-0.561839 0.20618,-0.747547 0.887206,-1.455887 0.629511,-0.654748 1.298672,-1.032593 2.182624,-1.232417 l 0.496052,-0.112139 0.04959,-2.423276 c 0.02728,-1.332793 0.0371,-3.658048 0.02177,-5.167227 l -0.0278,-2.74394 -0.319445,0.05033 c -0.175682,0.02771 -0.386397,0.08563 -0.468247,0.128839 -0.08185,0.04323 -0.568854,0.218889 -1.082238,0.390391 -2.129874,0.711528 -4.263003,2.226188 -4.576428,3.249556 -0.163249,0.533015 -0.247402,4.433497 -0.106852,4.952551 0.15436,0.57007 0.498334,1.042286 0.939499,1.289747 0.207166,0.116238 0.384417,0.250036 0.393909,0.297458 0.03073,0.153399 -0.739727,0.225585 -2.512608,0.235345 -1.609639,0.0096 -2.952936,-0.05276 -3.249106,-0.148868 -0.206421,-0.06704 -0.137174,-0.183933 0.250694,-0.423132 0.203159,-0.125267 0.480982,-0.393156 0.617396,-0.595256 l 0.24802,-0.367452 0.02793,-4.142958 0.02793,-4.142959 0.31931,0.172595 c 0.692932,0.374491 2.158698,0.1421 2.849235,-0.451759 0.464459,-0.399418 1.833237,-1.238694 2.638807,-1.617982 0.920141,-0.433236 2.667558,-1.036211 3.289004,-1.134921 0.231909,-0.03685 0.421643,-0.121065 0.421643,-0.187183 0,-0.06612 0.110383,-0.170509 0.24529,-0.231977 0.134903,-0.06147 0.26457,-0.213725 0.28814,-0.338356 0.07859,-0.415538 0.652039,-3.787666 0.77244,-4.542242 0.0653,-0.409241 0.149598,-0.780741 0.187344,-0.825553 0.146985,-0.174544 1.083466,4.117723 1.085483,4.975211 5.73e-4,0.233798 0.08758,0.416871 0.298411,0.627694 0.16369,0.163693 0.297628,0.328085 0.297628,0.365309 0,0.03724 0.368317,0.149793 0.818484,0.250154 0.988641,0.220414 2.334761,0.727314 3.28941,1.238678 1.006614,0.539196 2.052387,1.19168 2.340775,1.460465 0.392466,0.365799 0.972492,0.557892 1.731906,0.573591 0.481462,0.0099 0.799015,-0.03703 1.021176,-0.151125 l 0.32245,-0.165564 0.0022,3.985609 c 0.0029,4.542124 -0.0068,4.483332 0.82919,5.182242 0.317362,0.265269 0.425459,0.413736 0.353616,0.485613 -0.150569,0.150569 -5.437954,0.14055 -5.69423,-0.01083 -0.18035,-0.106527 -0.170206,-0.124299 0.148837,-0.260031 0.4029,-0.17143 0.688916,-0.468079 0.97684,-1.013098 0.192162,-0.363712 0.208923,-0.553734 0.208923,-2.372916 0,-2.53462 -0.09095,-3.083919 -0.607969,-3.671266 -0.558284,-0.633856 -1.410126,-1.245341 -2.553112,-1.832452 -1.204946,-0.618938 -3.291243,-1.364534 -3.429977,-1.225802 -0.02901,0.02898 -0.05273,2.343878 -0.0526,5.144074 l 2.19e-4,5.091271 0.419667,0.105952 c 1.490895,0.376537 2.737638,1.327048 3.111135,2.371896 0.186008,0.520362 0.16501,0.780154 -0.07339,0.907744 -0.180906,0.09679 -0.258596,0.0642 -0.570473,-0.239692 -0.440142,-0.428925 -0.964983,-0.65912 -1.502674,-0.65912 -0.404586,0 -1.059883,0.26709 -1.259993,0.513601 -0.05859,0.07223 -0.128957,0.733966 -0.156331,1.470595 -0.04807,1.293901 -0.06864,1.397601 -0.606067,3.056718 -0.305972,0.944543 -0.556312,1.736987 -0.556312,1.760968 0,0.0235 -0.04463,0.04367 -0.0992,0.04367 -0.05457,0 -0.09953,-0.05578 -0.09993,-0.124036 z"
       id="path1-3" />
    <rect
       style="opacity:0.5;fill:none;fill-opacity:1;stroke:#000000;stroke-width:2.72727;stroke-dasharray:none;stroke-opacity:1;filter:url(#filter1-3)"
       id="rect1-5-5"
       width="49.090908"
       height="49.090908"
       x="7.4405394"
       y="7.4604964"
       rx="7.4768682"
       ry="7.477273"
       transform="matrix(0.43046721,0,0,0.43046721,34.695898,34.707264)" />
    <rect
       style="fill:#c4c2c5;fill-opacity:1;stroke:#1e2430;stroke-width:1.174;stroke-dasharray:none;stroke-opacity:1"
       id="rect1-3"
       width="21.132023"
       height="21.132023"
       x="37.898808"
       y="37.918762"
       rx="3.2185469"
       ry="3.2187209" />
    <rect
       style="fill:#1e2430;fill-opacity:1;stroke:none;stroke-width:1.00656;stroke-dasharray:none;stroke-opacity:1"
       id="rect1-6-5"
       width="18.118069"
       height="18.118069"
       x="39.405781"
       y="39.425739"
       rx="2.4074855"
       ry="2.4074855" />
    <path
       id="path1"
       style="fill:#f4e3cf;fill-opacity:1;stroke:none;stroke-width:0.181638;stroke-dasharray:none;stroke-dashoffset:2.2;stroke-opacity:0.6"
       d="m 51.778779,43.941045 c -0.187252,-8.1e-5 -0.387675,0.07531 -0.638521,0.222291 -0.596919,0.349749 -1.377579,0.514692 -2.44963,0.514692 -1.071954,0 -1.878654,-0.168464 -2.472018,-0.516184 -0.475801,-0.278826 -0.759862,-0.282522 -1.159175,-0.01336 -1.025175,0.690863 -1.797804,2.90589 -2.024459,5.800365 -0.135901,1.735692 -0.0089,2.650757 0.440096,3.165728 0.216586,0.248286 0.748267,0.206204 1.227806,-0.09847 0.406495,-0.258249 0.890832,-0.828123 1.469484,-1.729077 0.522892,-0.81415 1.155362,-1.082294 2.554068,-1.084584 1.395926,-0.0021 1.944506,0.26195 2.588383,1.251671 1.08027,1.660535 2.078776,2.238636 2.664465,1.542581 0.324469,-0.385605 0.383859,-0.758167 0.368487,-2.309398 -0.028,-2.817903 -0.76459,-5.381404 -1.826034,-6.359807 C 52.239036,44.06691 52.019542,43.9412 51.778779,43.9411 Z m -6.06442,1.660439 h 0.647469 0.647466 v 0.554974 0.554973 h 0.554977 0.554971 v 0.693717 0.693714 h -0.554971 -0.554977 v 0.601222 0.601221 h -0.586297 c -0.322099,0 -0.612073,-0.02889 -0.645977,-0.06265 -0.0339,-0.03389 -0.06262,-0.303056 -0.06262,-0.599727 V 48.098857 H 45.159418 44.604442 V 47.405144 46.71143 h 0.554976 0.55497 v -0.55498 z m 5.278213,0 c 0.5841,0 0.834244,0.647172 0.413247,1.068174 -0.26774,0.267713 -0.512097,0.288754 -0.77577,0.06565 -0.457352,-0.386999 -0.218646,-1.133819 0.362523,-1.133819 z m -1.123373,1.18603 c 0.145866,1.01e-4 0.292703,0.05822 0.408766,0.186472 0.180933,0.199943 0.20047,0.65765 0.03732,0.871247 -0.319324,0.418037 -1.086073,0.14915 -1.086073,-0.380423 0,-0.401918 0.319131,-0.677526 0.640008,-0.677304 z m 2.292994,0.02255 c 0.168103,0.0031 0.331322,0.05875 0.426667,0.164095 0.180934,0.199943 0.200443,0.65765 0.0373,0.87125 -0.339646,0.444632 -1.086079,0.147034 -1.086079,-0.432643 0,-0.1757 0.07042,-0.36615 0.168576,-0.455016 0.112217,-0.101585 0.285435,-0.150764 0.45353,-0.147674 z m -1.12934,1.19647 c 0.517834,0 0.769797,0.549277 0.456506,0.996564 -0.107097,0.152907 -0.23771,0.20587 -0.507235,0.20587 -0.310298,0 -0.382306,-0.04038 -0.507228,-0.281972 -0.246338,-0.476336 0.02255,-0.920482 0.557957,-0.920482 z" />
  </g>
</svg>
