<?xml version="1.0" encoding="UTF-8" standalone="no"?>
<svg
   width="64"
   height="64"
   version="1.1"
   id="svg73"
   sodipodi:docname="accessories-calculator.svg"
   inkscape:version="1.2.2 (b0a8486541, 2022-12-01)"
   xmlns:inkscape="http://www.inkscape.org/namespaces/inkscape"
   xmlns:sodipodi="http://sodipodi.sourceforge.net/DTD/sodipodi-0.dtd"
   xmlns="http://www.w3.org/2000/svg"
   xmlns:svg="http://www.w3.org/2000/svg"
   xmlns:rdf="http://www.w3.org/1999/02/22-rdf-syntax-ns#"
   xmlns:cc="http://creativecommons.org/ns#"
   xmlns:dc="http://purl.org/dc/elements/1.1/">
  <metadata
     id="metadata77">
    <rdf:RDF>
      <cc:Work
         rdf:about="">
        <dc:format>image/svg+xml</dc:format>
        <dc:type
           rdf:resource="http://purl.org/dc/dcmitype/StillImage" />
      </cc:Work>
    </rdf:RDF>
  </metadata>
  <sodipodi:namedview
     pagecolor="#f5f7fa"
     bordercolor="#666666"
     borderopacity="1"
     objecttolerance="10"
     gridtolerance="10"
     guidetolerance="10"
     inkscape:pageopacity="0"
     inkscape:pageshadow="2"
     inkscape:window-width="1280"
     inkscape:window-height="603"
     id="namedview75"
     showgrid="false"
     inkscape:zoom="6.2890625"
     inkscape:cx="51.677019"
     inkscape:cy="37.843478"
     inkscape:window-x="35"
     inkscape:window-y="32"
     inkscape:window-maximized="0"
     inkscape:current-layer="g877"
     inkscape:document-rotation="0"
     inkscape:pagecheckerboard="0"
     inkscape:showpageshadow="2"
     inkscape:deskcolor="#d1d1d1" />
  <defs
     id="defs29">
    <filter
       style="color-interpolation-filters:sRGB;"
       inkscape:label="Blur"
       id="filter1"
       x="-0.091333304"
       y="-0.091333304"
       width="1.1826666"
       height="1.1826666">
      <feGaussianBlur
         stdDeviation="1.3 1.3"
         result="blur"
         id="feGaussianBlur1" />
    </filter>
    <filter
       style="color-interpolation-filters:sRGB"
       inkscape:label="Blur"
       id="filter1-3"
       x="-0.091333304"
       y="-0.091333304"
       width="1.1826666"
       height="1.1826666">
      <feGaussianBlur
         stdDeviation="1.3 1.3"
         result="blur"
         id="feGaussianBlur1-6" />
    </filter>
  </defs>
  <circle
     cx="32.516094"
     cy="31.877844"
     r="0"
     fill="url(#b)"
     stroke-width="1.5715"
     id="circle41"
     style="fill:url(#b)" />
  <g
     aria-label="GZ"
     transform="matrix(1.2212657,0,0,0.81882264,0.4960938,-0.1661539)"
     id="text93"
     style="font-weight:bold;font-size:11.5263px;line-height:1.25;font-family:sans-serif;-inkscape-font-specification:'sans-serif Bold';fill:#f2f2f2;stroke-width:0.288159" />
  <g
     id="g877"
     transform="matrix(1.1,0,0,1.1,-3.1845928,-3.2065454)">
    <rect
       style="fill:none;fill-opacity:1;stroke:#000000;stroke-width:2.72727;stroke-dasharray:none;stroke-opacity:1;filter:url(#filter1);opacity:0.5"
       id="rect1-5"
       width="49.090908"
       height="49.090908"
       x="7.4405394"
       y="7.4604964"
       rx="7.4768682"
       ry="7.477273" />
    <rect
       style="opacity:1;fill:#c4c2c5;stroke-width:2.72727273;stroke-opacity:1;fill-opacity:1;stroke:#1e2430;stroke-dasharray:none"
       id="rect1"
       width="49.090908"
       height="49.090908"
       x="7.4405394"
       y="7.4604964"
       rx="7.4768682"
       ry="7.477273" />
    <rect
       style="fill:#1e2430;fill-opacity:1;stroke:none;stroke-width:2.33829;stroke-dasharray:none;stroke-opacity:1"
       id="rect1-6"
       width="42.089317"
       height="42.089317"
       x="10.941335"
       y="10.961291"
       rx="5.5927272"
       ry="5.5927272" />
    <path
       style="fill:#f4e3cf;fill-opacity:1;stroke:none;stroke-width:0.458467;stroke-dasharray:none;stroke-dashoffset:2.2;stroke-opacity:0.6"
       d="m 30.290856,45.963545 c -1.784609,-0.207512 -3.723539,-0.867282 -5.316547,-1.809098 -3.388416,-2.003291 -5.86815,-5.478118 -6.822042,-9.559653 -0.200546,-0.858105 -0.229307,-1.178172 -0.228544,-2.54334 7.11e-4,-1.272766 0.03765,-1.735063 0.199712,-2.498724 0.463256,-2.183038 1.3457,-4.174449 2.590166,-5.845223 2.269421,-3.046834 5.373958,-4.963269 9.058513,-5.591831 1.401469,-0.239086 3.637391,-0.197469 4.990618,0.09289 2.852815,0.612129 5.140416,1.868264 7.243667,3.977539 1.679112,1.683925 2.654427,3.224052 3.337576,5.270363 0.451113,1.351268 0.630856,2.357759 0.693093,3.881054 0.139313,3.407899 -1.02415,6.834662 -3.249167,9.570421 -2.616497,3.217075 -6.808292,5.193157 -10.908891,5.142621 -0.516648,-0.0068 -1.23132,-0.04552 -1.588154,-0.08705 z m 0.52786,-1.476377 c 0.292733,-0.261772 0.269282,-0.931466 -0.113551,-3.243992 -0.547137,-3.304945 -1.349842,-4.821651 -2.549836,-4.817899 -1.291493,0.004 -3.777444,1.326532 -5.089069,2.707329 -0.656352,0.690972 -0.802067,0.965832 -0.69345,1.308058 0.111753,0.352105 1.224171,1.428929 2.039647,1.974393 1.472495,0.98494 3.758566,2.000204 4.980121,2.211711 0.581163,0.100658 1.228354,0.03721 1.426138,-0.139622 z m 4.315215,-0.0096 c 2.337995,-0.617933 5.219853,-2.34036 6.217524,-3.716145 0.427065,-0.588923 0.340842,-0.805895 -0.768016,-1.932869 -1.63781,-1.664704 -4.122183,-2.749733 -5.287527,-2.30944 -1.012238,0.382447 -1.636163,1.970049 -2.125813,5.409159 -0.212619,1.493382 -0.216562,2.287307 -0.01249,2.512997 0.274556,0.303611 0.919461,0.315375 1.976313,0.03605 z M 21.960814,37.306821 c 1.677893,-2.036307 2.335803,-3.23166 2.40129,-4.362897 0.04983,-0.860693 -0.0606,-1.208714 -0.55948,-1.763613 -0.622467,-0.692336 -1.750359,-1.166652 -2.947102,-1.239357 -0.923344,-0.05609 -1.244892,0.09365 -1.561701,0.727263 -0.194868,0.389736 -0.22154,0.553482 -0.210728,1.293979 0.0121,0.827172 0.156448,1.775687 0.439323,2.886247 0.153537,0.602753 0.987263,3.351477 1.126459,3.713807 l 0.08713,0.226859 0.193615,-0.232889 c 0.106487,-0.128149 0.57052,-0.690317 1.031186,-1.249386 z m 21.272371,0.835252 c 1.031829,-1.151632 2.088898,-6.438462 1.546751,-7.735996 -0.241145,-0.577212 -0.902035,-0.709874 -2.253535,-0.452373 -2.706281,0.51562 -3.443534,2.486669 -1.986311,5.310375 0.475967,0.922298 1.078373,1.768632 1.808213,2.540434 0.496386,0.524916 0.66081,0.587636 0.884882,0.337535 z m -9.437853,-2.343807 c 2.027158,-0.642012 3.589853,-1.900414 4.375792,-3.523729 0.876418,-1.810183 0.87643,-3.787711 2.2e-5,-5.710855 -0.618106,-1.356337 -1.48382,-2.389493 -2.597091,-3.099389 -1.285702,-0.819853 -2.393134,-1.098631 -4.093101,-1.030379 -1.693134,0.06799 -2.554973,0.452564 -4.037922,1.801877 -1.47519,1.342254 -2.348607,3.20374 -2.348607,5.005516 0,2.942741 2.499592,5.97001 5.532883,6.700909 0.740255,0.178366 2.386489,0.103558 3.168024,-0.14396 z m -12.4194,-8.516709 c 1.246457,-0.258895 2.385535,-0.765674 2.811534,-1.25086 0.586138,-0.667577 0.691744,-2.018898 0.237964,-3.044978 -0.236501,-0.534771 -0.327943,-0.610099 -0.644248,-0.530713 -0.284677,0.07145 -1.597602,1.385593 -2.232423,2.234491 -0.356525,0.476759 -1.335573,2.194715 -1.616681,2.836825 -0.01707,0.039 0.06324,0.04924 0.178477,0.02279 0.115239,-0.02651 0.684656,-0.146873 1.26537,-0.267486 z m 22.451872,-0.0072 c 0.213253,-0.207655 -0.01484,-0.726386 -0.899598,-2.046919 -0.956538,-1.427475 -2.03485,-2.698082 -2.358723,-2.77937 -0.493377,-0.123828 -1.22045,1.004026 -1.334643,2.070362 -0.07641,0.713514 -0.0201,0.932747 0.340084,1.344314 0.952066,1.085363 3.663682,1.985406 4.252889,1.411626 z M 29.061011,21.642749 c 0.530146,-0.180641 1.536836,-1.102348 1.842984,-1.687402 l 0.214133,-0.409219 -0.221952,-0.181752 c -0.269038,-0.220311 -0.739042,-0.186815 -2.140463,0.152524 -1.683456,0.407624 -2.643554,0.92363 -2.575449,1.38417 0.09623,0.650778 1.834268,1.09825 2.880747,0.741679 z m 7.466719,0.01908 c 1.49487,-0.453709 1.621138,-1.033895 0.349249,-1.604685 -0.671807,-0.30149 -2.38496,-0.752019 -3.128559,-0.822758 -0.472503,-0.04496 -0.604752,-0.02839 -0.701103,0.08769 -0.100821,0.121493 -0.08465,0.201308 0.107331,0.528864 0.275657,0.470367 1.489256,1.640081 1.876356,1.808498 0.364887,0.158757 0.978327,0.159731 1.496726,0.0024 z"
       id="path3-3" />
    <rect
       style="opacity:0.5;fill:none;fill-opacity:1;stroke:#000000;stroke-width:2.72727;stroke-dasharray:none;stroke-opacity:1;filter:url(#filter1-3)"
       id="rect1-5-5"
       width="49.090908"
       height="49.090908"
       x="7.4405394"
       y="7.4604964"
       rx="7.4768682"
       ry="7.477273"
       transform="matrix(0.43046721,0,0,0.43046721,34.695898,34.707264)" />
    <rect
       style="fill:#c4c2c5;fill-opacity:1;stroke:#1e2430;stroke-width:1.174;stroke-dasharray:none;stroke-opacity:1"
       id="rect1-3"
       width="21.132023"
       height="21.132023"
       x="37.898808"
       y="37.918762"
       rx="3.2185469"
       ry="3.2187209" />
    <rect
       style="fill:#1e2430;fill-opacity:1;stroke:none;stroke-width:1.00656;stroke-dasharray:none;stroke-opacity:1"
       id="rect1-6-5"
       width="18.118069"
       height="18.118069"
       x="39.405781"
       y="39.425739"
       rx="2.4074855"
       ry="2.4074855" />
    <path
       id="path1"
       style="fill:#f4e3cf;fill-opacity:1;stroke:none;stroke-width:0.181638;stroke-dasharray:none;stroke-dashoffset:2.2;stroke-opacity:0.6"
       d="m 51.778779,43.941045 c -0.187252,-8.1e-5 -0.387675,0.07531 -0.638521,0.222291 -0.596919,0.349749 -1.377579,0.514692 -2.44963,0.514692 -1.071954,0 -1.878654,-0.168464 -2.472018,-0.516184 -0.475801,-0.278826 -0.759862,-0.282522 -1.159175,-0.01336 -1.025175,0.690863 -1.797804,2.90589 -2.024459,5.800365 -0.135901,1.735692 -0.0089,2.650757 0.440096,3.165728 0.216586,0.248286 0.748267,0.206204 1.227806,-0.09847 0.406495,-0.258249 0.890832,-0.828123 1.469484,-1.729077 0.522892,-0.81415 1.155362,-1.082294 2.554068,-1.084584 1.395926,-0.0021 1.944506,0.26195 2.588383,1.251671 1.08027,1.660535 2.078776,2.238636 2.664465,1.542581 0.324469,-0.385605 0.383859,-0.758167 0.368487,-2.309398 -0.028,-2.817903 -0.76459,-5.381404 -1.826034,-6.359807 C 52.239036,44.06691 52.019542,43.9412 51.778779,43.9411 Z m -6.06442,1.660439 h 0.647469 0.647466 v 0.554974 0.554973 h 0.554977 0.554971 v 0.693717 0.693714 h -0.554971 -0.554977 v 0.601222 0.601221 h -0.586297 c -0.322099,0 -0.612073,-0.02889 -0.645977,-0.06265 -0.0339,-0.03389 -0.06262,-0.303056 -0.06262,-0.599727 V 48.098857 H 45.159418 44.604442 V 47.405144 46.71143 h 0.554976 0.55497 v -0.55498 z m 5.278213,0 c 0.5841,0 0.834244,0.647172 0.413247,1.068174 -0.26774,0.267713 -0.512097,0.288754 -0.77577,0.06565 -0.457352,-0.386999 -0.218646,-1.133819 0.362523,-1.133819 z m -1.123373,1.18603 c 0.145866,1.01e-4 0.292703,0.05822 0.408766,0.186472 0.180933,0.199943 0.20047,0.65765 0.03732,0.871247 -0.319324,0.418037 -1.086073,0.14915 -1.086073,-0.380423 0,-0.401918 0.319131,-0.677526 0.640008,-0.677304 z m 2.292994,0.02255 c 0.168103,0.0031 0.331322,0.05875 0.426667,0.164095 0.180934,0.199943 0.200443,0.65765 0.0373,0.87125 -0.339646,0.444632 -1.086079,0.147034 -1.086079,-0.432643 0,-0.1757 0.07042,-0.36615 0.168576,-0.455016 0.112217,-0.101585 0.285435,-0.150764 0.45353,-0.147674 z m -1.12934,1.19647 c 0.517834,0 0.769797,0.549277 0.456506,0.996564 -0.107097,0.152907 -0.23771,0.20587 -0.507235,0.20587 -0.310298,0 -0.382306,-0.04038 -0.507228,-0.281972 -0.246338,-0.476336 0.02255,-0.920482 0.557957,-0.920482 z" />
  </g>
</svg>
