<?xml version="1.0" encoding="UTF-8" standalone="no"?>
<svg
   width="64"
   height="64"
   version="1.1"
   id="svg73"
   sodipodi:docname="accessories-calculator.svg"
   inkscape:version="1.2.2 (b0a8486541, 2022-12-01)"
   xmlns:inkscape="http://www.inkscape.org/namespaces/inkscape"
   xmlns:sodipodi="http://sodipodi.sourceforge.net/DTD/sodipodi-0.dtd"
   xmlns="http://www.w3.org/2000/svg"
   xmlns:svg="http://www.w3.org/2000/svg"
   xmlns:rdf="http://www.w3.org/1999/02/22-rdf-syntax-ns#"
   xmlns:cc="http://creativecommons.org/ns#"
   xmlns:dc="http://purl.org/dc/elements/1.1/">
  <metadata
     id="metadata77">
    <rdf:RDF>
      <cc:Work
         rdf:about="">
        <dc:format>image/svg+xml</dc:format>
        <dc:type
           rdf:resource="http://purl.org/dc/dcmitype/StillImage" />
      </cc:Work>
    </rdf:RDF>
  </metadata>
  <sodipodi:namedview
     pagecolor="#f5f7fa"
     bordercolor="#666666"
     borderopacity="1"
     objecttolerance="10"
     gridtolerance="10"
     guidetolerance="10"
     inkscape:pageopacity="0"
     inkscape:pageshadow="2"
     inkscape:window-width="1280"
     inkscape:window-height="603"
     id="namedview75"
     showgrid="false"
     inkscape:zoom="6.2890625"
     inkscape:cx="51.677019"
     inkscape:cy="37.843478"
     inkscape:window-x="35"
     inkscape:window-y="32"
     inkscape:window-maximized="0"
     inkscape:current-layer="g877"
     inkscape:document-rotation="0"
     inkscape:pagecheckerboard="0"
     inkscape:showpageshadow="2"
     inkscape:deskcolor="#d1d1d1" />
  <defs
     id="defs29">
    <filter
       style="color-interpolation-filters:sRGB;"
       inkscape:label="Blur"
       id="filter1"
       x="-0.091333304"
       y="-0.091333304"
       width="1.1826666"
       height="1.1826666">
      <feGaussianBlur
         stdDeviation="1.3 1.3"
         result="blur"
         id="feGaussianBlur1" />
    </filter>
    <filter
       style="color-interpolation-filters:sRGB"
       inkscape:label="Blur"
       id="filter1-3"
       x="-0.091333304"
       y="-0.091333304"
       width="1.1826666"
       height="1.1826666">
      <feGaussianBlur
         stdDeviation="1.3 1.3"
         result="blur"
         id="feGaussianBlur1-6" />
    </filter>
  </defs>
  <circle
     cx="32.516094"
     cy="31.877844"
     r="0"
     fill="url(#b)"
     stroke-width="1.5715"
     id="circle41"
     style="fill:url(#b)" />
  <g
     aria-label="GZ"
     transform="matrix(1.2212657,0,0,0.81882264,0.4960938,-0.1661539)"
     id="text93"
     style="font-weight:bold;font-size:11.5263px;line-height:1.25;font-family:sans-serif;-inkscape-font-specification:'sans-serif Bold';fill:#f2f2f2;stroke-width:0.288159" />
  <g
     id="g877"
     transform="matrix(1.1,0,0,1.1,-3.1845928,-3.2065454)">
    <rect
       style="fill:none;fill-opacity:1;stroke:#000000;stroke-width:2.72727;stroke-dasharray:none;stroke-opacity:1;filter:url(#filter1);opacity:0.5"
       id="rect1-5"
       width="49.090908"
       height="49.090908"
       x="7.4405394"
       y="7.4604964"
       rx="7.4768682"
       ry="7.477273" />
    <rect
       style="opacity:1;fill:#c4c2c5;stroke-width:2.72727273;stroke-opacity:1;fill-opacity:1;stroke:#1e2430;stroke-dasharray:none"
       id="rect1"
       width="49.090908"
       height="49.090908"
       x="7.4405394"
       y="7.4604964"
       rx="7.4768682"
       ry="7.477273" />
    <rect
       style="fill:#1e2430;fill-opacity:1;stroke:none;stroke-width:2.33829;stroke-dasharray:none;stroke-opacity:1"
       id="rect1-6"
       width="42.089317"
       height="42.089317"
       x="10.941335"
       y="10.961291"
       rx="5.5927272"
       ry="5.5927272" />
    <path
       d="m 39.400347,19.619849 c -0.156351,-0.0046 -0.313025,0.01615 -0.458702,0.06155 -0.283975,0.08997 -0.577917,0.266599 -0.720823,0.527837 -0.289913,0.53006 -0.316519,1.240915 -0.113182,1.809789 0.557864,1.560701 2.171132,2.523748 3.385682,3.641389 0.414119,0.38106 4.318137,3.143455 2.321324,6.165529 -0.07555,0.114506 -0.162289,0.220733 -0.260134,0.319496 0.265761,0.381746 0.517554,0.772177 0.718845,1.188667 0.09336,-0.07213 0.183163,-0.145168 0.270059,-0.218219 1.465824,-1.233198 1.370358,-3.677845 0.77046,-4.909395 -0.532524,-1.093249 -1.358046,-2.035212 -2.214098,-2.899212 -0.772531,-0.779734 -3.414997,-2.293014 -3.719277,-3.240544 -0.14423,-0.448974 -0.271513,-1.162948 0.131056,-1.408934 0.215076,-0.131418 0.777547,0.02289 1.054419,0.390927 0.159908,0.212928 0.421779,0.529463 0.385236,-0.0069 -0.03937,-0.576289 -0.686077,-1.21701 -1.092156,-1.345419 -0.145683,-0.04603 -0.302313,-0.07328 -0.458702,-0.07742 z m -1.141792,7.657825 c -0.04901,0.0022 -0.06794,0.06709 -0.06154,0.222334 0.05341,1.292434 -0.915115,1.661911 -1.058408,1.531944 -0.162445,-0.14748 -0.220117,-0.06023 -0.198563,0.116995 0.02845,0.234849 0.05,0.276764 0.260132,0.644935 0.03516,0.06155 0.05513,0.199669 -0.04369,0.04765 -0.588914,-0.906743 -0.293624,-1.638253 -0.09729,-2.135226 0.112223,-0.284092 -0.01917,-0.311249 -0.170793,-0.128897 -0.737411,0.888795 -1.465967,1.565717 -2.10292,2.764248 -0.09028,0.169919 -0.09273,0.286217 0.146947,0.07742 0.591501,-0.515265 1.051337,-0.104635 0.859861,0.309583 -0.507341,1.097367 -1.399738,1.360075 -1.71965,1.498212 -1.197482,0.517032 -1.329222,0.478222 -1.854678,2.607496 -0.327088,1.325487 0.109246,4.565477 0.510336,6.330271 0.03876,0.170608 0.08035,0.334671 0.125085,0.494128 0.349755,-0.334443 0.70179,-0.690359 1.153716,-0.859254 -0.105417,-0.485134 -0.198171,-1.085696 -0.264109,-1.845509 -0.05287,-2.521623 -0.01686,-4.963917 3.447236,-4.43118 2.700857,0.374721 4.41218,0.136248 5.613674,-0.343283 -0.170945,-0.434896 -0.379119,-0.853007 -0.617525,-1.256116 -1.621331,0.522589 -3.789964,0.325692 -4.602937,-0.121134 -1.458128,-0.801284 -0.325034,-1.370909 -0.03973,-1.361319 0.693743,0.02344 0.991841,0.575124 1.040531,0.694539 0.142807,0.350379 0.228312,0.237744 0.415025,0.05562 1.305531,-1.273938 0.857068,-3.674363 -0.569914,-4.818123 -0.07679,-0.06155 -0.132633,-0.09708 -0.170794,-0.09527 z m 2.492099,8.090399 c -0.54609,0.01849 -1.172877,0.205636 -1.652137,0.775918 -0.797491,0.948831 -1.114944,2.119283 -1.256971,3.171075 0.400604,0.150042 0.814519,0.250824 1.239109,0.299622 0.142467,-1.49915 0.532542,-2.415791 1.062361,-2.897235 0.537552,-0.488482 1.084699,-0.362748 1.197399,-0.305591 0.184029,0.09322 0.301912,0.473336 0.311764,0.730253 0.0266,0.703688 0.525454,0.403608 0.617568,-0.119088 0.04651,-0.26403 0.11244,-1.236636 -0.50041,-1.490269 -0.217612,-0.08996 -0.593945,-0.178836 -1.018683,-0.164636 z m -3.044138,5.709145 c -0.01516,0.274543 -0.03247,0.507892 -0.0655,0.680659 -0.277543,1.449712 -1.007057,3.025377 -2.859462,1.004112 -0.07644,-0.122242 -0.171261,-0.269596 -0.272045,-0.46634 -0.449021,0.136251 -0.845977,0.425737 -1.112011,0.811634 0.275542,0.564398 0.571604,0.982283 0.830037,1.230313 1.265172,1.214259 2.748249,0.927373 3.469076,0.353223 0.546879,-0.435593 1.092079,-1.147504 1.280805,-3.393326 -0.431307,-0.02783 -0.856756,-0.100349 -1.270872,-0.220272 z m 4.31103,-18.572037 c -0.464046,0.0138 -0.985761,0.188897 -1.519081,0.652859 0.3211,0.278731 0.674485,0.52376 1.022651,0.771947 0.291398,-0.191649 0.638972,-0.281347 1.032581,-0.238147 1.098709,0.120685 1.482785,0.824796 1.64816,1.583554 0.09126,0.418685 0.413956,0.734946 0.413035,-0.04558 -7.3e-4,-0.594949 -0.0167,-1.279473 -1.020666,-2.149104 -0.262638,-0.227604 -0.807006,-0.566237 -1.485333,-0.575487 -0.0303,-4.56e-4 -0.06036,-9e-4 -0.09132,0 z m -2.410678,1.720462 c -0.03349,0.0522 -0.06794,0.101935 -0.101276,0.156856 -0.33048,0.54538 -0.600149,2.624094 0.345526,4.56018 0.440318,0.901461 1.099339,1.975659 1.965873,3.184952 2.170508,3.029038 2.001977,6.062093 -0.258184,7.187511 0.195192,0.417146 0.33127,0.863971 0.375303,1.321603 1.385083,-0.616835 2.109404,-1.564687 2.460352,-2.583679 0.924306,-2.683764 -0.267029,-4.835921 -0.611603,-5.338061 l -2.237912,-3.260452 c -1.014626,-1.478571 -1.220058,-3.156124 -0.855844,-4.320036 -0.36389,-0.299795 -0.730964,-0.59591 -1.082235,-0.908874 z m -5.137099,11.618705 c -0.27321,0.0091 -0.277409,0.109722 -0.34949,0.259963 -0.236563,0.493263 -0.261388,1.023412 -0.279987,1.535918 -0.01834,0.504718 0.125242,0.687195 0.287931,0.765982 0.254205,0.123171 1.202855,1.049858 1.944035,1.668889 1.296416,1.082743 2.949972,1.210211 4.156139,1.049753 0.06154,-0.476888 -0.09689,-0.956029 -0.34154,-1.373227 -0.04425,0.005 -0.08795,0.0068 -0.133005,0.009 -2.02655,0.119274 -4.653751,-1.390074 -4.366671,-3.453107 0.03785,-0.271756 -0.181308,-0.285651 -0.244241,-0.333362 -0.157375,-0.119141 -0.357047,-0.119141 -0.538132,-0.128734 -0.05098,-0.0022 -0.096,-0.0022 -0.135042,-0.0018 z M 21.784897,22.505181 c -0.678323,0.0091 -1.222722,0.347931 -1.485338,0.575488 -1.003706,0.86963 -1.017974,1.554153 -1.018679,2.149102 -9e-4,0.780583 0.319797,0.464318 0.411048,0.04557 0.165343,-0.75876 0.55144,-1.462976 1.650152,-1.583554 2.033227,-0.223252 2.838649,3.093174 1.006767,5.762696 l -1.812983,2.641245 c 0.31452,0.301014 0.708254,0.515906 1.119957,0.666758 0.129084,-0.211349 0.269097,-0.423061 0.420977,-0.634998 0.866535,-1.209296 1.525554,-2.283492 1.965878,-3.184951 0.945665,-1.936087 0.676006,-4.014803 0.345518,-4.560179 -0.894273,-1.475776 -1.834537,-1.887726 -2.603297,-1.877242 z M 19.687958,33.49878 c -0.422412,0.963557 -0.854347,2.621288 -0.188653,4.554205 0.415531,1.206504 1.355039,2.31372 3.294333,2.889299 0.517517,0.153661 1.255803,0.271822 2.061194,0.230167 -0.03248,-0.474189 -0.04333,-0.950914 -0.07944,-1.424809 -0.215395,0.02072 -0.428795,0.02597 -0.635433,0.01361 -3.132796,-0.184474 -4.280496,-2.640676 -3.206961,-5.528435 -0.442314,-0.196232 -0.857866,-0.444834 -1.245056,-0.734236 z m 9.736059,2.345568 c -0.03905,-0.0013 -0.08407,-7.3e-4 -0.135054,0.0018 -0.1811,0.0091 -0.380766,0.0091 -0.538137,0.128892 -0.06294,0.04765 -0.282069,0.06158 -0.244243,0.333366 0.190176,1.36653 -0.898316,2.489727 -2.243885,3.057956 0.06332,0.502373 0.09581,1.007909 0.121133,1.51411 0.499689,-0.173359 0.99019,-0.431924 1.437672,-0.80565 0.741186,-0.619041 1.689831,-1.545762 1.944035,-1.668904 0.162728,-0.07873 0.306246,-0.261277 0.28793,-0.765967 -0.01858,-0.512519 -0.04342,-1.042672 -0.279983,-1.535929 -0.0721,-0.150213 -0.07622,-0.251625 -0.349486,-0.259964 z m 6.384139,-1.218425 c -0.436777,0.0091 -0.862896,0.141729 -1.256973,0.636985 -0.107185,0.134845 -0.307987,0.331974 0.05957,0.37507 0.925848,0.108559 1.196591,0.288935 1.574686,0.565541 0.645133,0.471944 1.313818,0.92635 1.928152,1.420825 0.172061,-0.469191 0.405893,-0.915605 0.698979,-1.319614 -0.300489,-0.260472 -0.702161,-0.595706 -1.330444,-1.117226 -0.02752,-0.02291 -0.05601,-0.143803 -0.0496,-0.214316 0.01577,-0.178605 -0.06556,-0.24797 -0.303828,-0.246053 -0.437241,0.0045 -0.883762,-0.110595 -1.320539,-0.101205 z m 4.038982,2.657106 c -0.272101,0.458158 -0.418946,0.974438 -0.522242,1.496259 0.02597,0.03062 0.05217,0.06206 0.07744,0.0932 0.708571,0.87665 1.60902,2.11395 0.301818,3.403247 -0.239692,0.236414 -0.519873,0.333623 -0.8082,0.341311 -3.3e-5,1.4e-4 -0.0018,-1.11e-4 -0.0018,0 -0.10208,0.438927 -0.241981,0.866494 -0.442823,1.26606 1.002752,0.262823 1.96191,0.125026 2.676774,-0.914816 0.99593,-1.448632 1.129961,-3.247197 -1.058396,-5.461082 -0.08977,-0.09089 -0.147879,-0.149053 -0.222406,-0.224137 z m -5.176808,3.526285 c -0.931322,0.0022 -1.399218,0.663076 -1.842762,1.049759 -0.635983,0.554455 -0.791536,1.697391 -0.460695,2.615448 0.111586,0.309614 0.355579,1.133848 1.104074,1.234295 0.627736,0.0843 0.940665,0.03275 0.420973,-0.315487 -0.350281,-0.234652 -0.519826,-0.517053 -0.675152,-0.752118 -0.466822,-0.706417 -0.02106,-1.67098 0.472608,-2.0479 1.512403,-1.15427 2.234491,0.09593 3.161287,0.609237 0.02722,0.01577 0.05431,0.02876 0.08145,0.04369 0.261802,-0.339886 0.416803,-0.746327 0.512306,-1.168807 -0.02412,-0.01824 -0.04856,-0.03439 -0.07147,-0.05158 -1.210945,-0.912525 -2.065405,-1.218295 -2.702626,-1.216415 z m -6.537039,-6.183391 c -0.436777,-0.0091 -0.885278,0.104629 -1.322503,0.101215 -0.23822,-0.0018 -0.31996,0.06755 -0.303816,0.246053 0.0064,0.07053 -0.02199,0.191435 -0.04963,0.214316 -1.712822,1.421742 -1.757137,1.479816 -2.587409,2.319762 -0.614048,0.62121 -1.04587,1.208888 -1.326474,1.766123 0.456055,0.198068 0.946672,0.304539 1.443627,0.35125 0.16815,-0.271605 0.365637,-0.523923 0.550048,-0.752103 0.854715,-1.057452 2.074068,-1.833006 3.216889,-2.669016 0.378101,-0.276604 0.648839,-0.457038 1.574686,-0.565551 0.367557,-0.04303 0.166769,-0.240316 0.05959,-0.375066 -0.394073,-0.495299 -0.818209,-0.627535 -1.254983,-0.636995 z m 1.113995,6.185379 c -0.634766,0.0047 -1.483548,0.31227 -2.680743,1.214457 -0.590643,0.445102 -1.632384,0.939345 -2.331251,0.250021 -0.353106,-0.348254 -0.54331,-0.693319 -0.621533,-1.027914 -0.511761,-0.07375 -1.01152,-0.212696 -1.491291,-0.404815 -0.02102,0.78021 0.250008,1.486676 0.689047,2.125287 1.093569,1.590651 2.759033,1.075071 4.27728,0.234188 0.733091,-0.406038 1.337932,-1.27059 2.307421,-1.043809 0.190592,-0.402565 0.3195,-0.828918 0.418991,-1.262077 -0.16925,-0.05523 -0.356331,-0.0868 -0.567921,-0.08535 z m 1.930133,1.107315 c -0.128684,0.421083 -0.285256,0.833999 -0.476572,1.230333 0.239076,0.448043 0.330329,1.025453 0.02177,1.492245 -0.155313,0.235085 -0.324866,0.517436 -0.675146,0.752115 -0.519699,0.348159 -0.206767,0.399752 0.420973,0.315491 0.748485,-0.100535 0.992489,-0.924675 1.104069,-1.234299 0.319403,-0.886294 0.186706,-1.982275 -0.395155,-2.555907 z M 24.572868,19.633726 c -0.156367,0.0046 -0.312993,0.03136 -0.458708,0.07742 -0.406071,0.128462 -1.052821,0.76913 -1.092151,1.345416 -0.03658,0.53542 0.223339,0.218899 0.383247,0.0068 0.276872,-0.36853 0.839297,-0.522401 1.054424,-0.390947 0.402557,0.245982 0.275238,0.959959 0.131071,1.408944 -0.103791,0.323186 -0.48224,0.712268 -0.963078,1.115218 0.272471,0.266437 0.507596,0.568729 0.718834,0.887031 0.654898,-0.593441 1.229707,-1.242269 1.519086,-2.05186 0.203332,-0.568868 0.176747,-1.277735 -0.113188,-1.807791 -0.142896,-0.261242 -0.436842,-0.437783 -0.720817,-0.527857 -0.145681,-0.04625 -0.302337,-0.06571 -0.458709,-0.06161 z m -2.152533,4.484755 c -0.635785,0.461363 -1.240885,0.88971 -1.548877,1.200594 -0.856058,0.863996 -1.681578,1.807949 -2.214097,2.901178 -0.599898,1.231569 -0.693381,3.676218 0.77245,4.909418 1.218907,1.025493 3.002158,2.00835 7.351194,1.404975 3.46416,-0.532761 3.50208,1.911503 3.449218,4.433146 -0.222718,2.567178 -0.754598,3.35105 -1.040522,3.808091 -1.062234,1.159051 -1.753931,1.133848 -2.204171,0.629041 -0.429411,0.227601 -0.874768,0.431183 -1.34037,0.567549 0.195112,0.340455 0.413593,0.556725 0.631467,0.730245 0.720828,0.57416 2.203908,0.863037 3.469081,-0.351225 0.499109,-0.479041 1.136894,-1.587516 1.497244,-3.173061 0.401085,-1.764793 0.839407,-5.004785 0.512317,-6.330269 -0.525454,-2.129305 -0.657195,-2.09246 -1.854682,-2.609491 -0.319907,-0.138081 -1.212305,-0.398853 -1.71964,-1.496245 -0.191468,-0.414174 0.268362,-0.824819 0.859821,-0.309551 0.239686,0.208829 0.235248,0.09251 0.14499,-0.07742 -0.63695,-1.198534 -1.363522,-1.87745 -2.100906,-2.766243 -0.1512,-0.182273 -0.284974,-0.155001 -0.172776,0.128901 0.196294,0.496967 0.491615,1.228482 -0.09728,2.135205 -0.0988,0.152298 -0.07888,0.01352 -0.04368,-0.04766 0.210086,-0.368172 0.233644,-0.410072 0.262121,-0.644933 0.02125,-0.177219 -0.03809,-0.26243 -0.20056,-0.115162 -0.143271,0.130064 -1.109848,-0.24147 -1.056409,-1.533913 0.0112,-0.275919 -0.05683,-0.265705 -0.232333,-0.125041 -1.426978,1.143766 -1.875441,3.54419 -0.569905,4.818146 0.186683,0.182275 0.272181,0.294811 0.415016,-0.05562 0.04867,-0.119514 0.346792,-0.673139 1.040529,-0.69652 0.285323,-0.009 1.416426,0.562026 -0.0417,1.363307 -1.15971,0.63726 -5.078292,0.768576 -6.231237,-0.976338 -1.996811,-3.0221 1.907204,-5.784478 2.321327,-6.165561 0.192275,-0.176993 0.395097,-0.349624 0.601677,-0.521884 -0.133449,-0.394689 -0.339902,-0.769176 -0.659268,-1.033896 z m 0.732728,11.261504 c -0.03743,-2.5e-4 -0.07474,7.59e-4 -0.11119,0.002 -0.349971,0.01116 -0.651401,0.08748 -0.83798,0.164627 -0.612895,0.253667 -0.548917,1.22629 -0.50239,1.490277 0.09211,0.522686 0.592485,0.822782 0.619551,0.119088 0.0098,-0.256917 0.125771,-0.638909 0.309776,-0.732221 0.112668,-0.05729 0.661832,-0.182964 1.199381,0.305598 0.104458,0.09479 0.203164,0.207497 0.295871,0.337326 0.272775,-0.27189 0.550998,-0.537972 0.841954,-0.791774 -0.03145,-0.04006 -0.06225,-0.07971 -0.0953,-0.119079 -0.49922,-0.593954 -1.15852,-0.771847 -1.719643,-0.775901 z m 2.633089,2.438849 c -0.361536,0.299067 -0.70085,0.61742 -1.010743,0.968392 1.28e-4,6.44e-4 -1.24e-4,0.0014 0,0.0019 0.086,0.460082 0.143136,0.993308 0.164828,1.605377 0.03058,0.862697 0.103052,1.544284 0.206514,2.091537 0.443877,-0.02567 0.868336,-0.229981 1.233146,-0.48419 -0.01741,-0.07762 -0.03481,-0.154774 -0.04966,-0.232146 -0.134164,-0.700661 -0.0042,-2.36711 -0.544094,-3.950949 z M 31.435563,18.26847 c -0.08088,9e-4 -0.162397,0.01364 -0.240283,0.02771 -1.189505,0.21157 -2.319843,0.738653 -3.36781,1.339464 -0.530526,0.304172 -0.672762,0.432719 -0.93131,1.006101 -0.564612,1.25216 -1.032136,2.827149 -1.360224,3.889421 -0.17605,0.57001 -0.05332,0.668266 0.127094,0.906884 1.90352,2.517779 4.327883,5.265222 5.605724,7.451443 0.120022,0.205375 0.276523,0.592523 0.664544,-0.13074 0.04266,-0.10051 0.05165,-0.07074 0.09245,0.0069 0.38531,0.713851 0.541186,0.328483 0.660823,0.123869 1.277839,-2.186209 3.702209,-4.933654 5.605732,-7.451432 0.180383,-0.238625 0.303142,-0.336872 0.127067,-0.906886 -0.328074,-1.062277 -0.795604,-2.637271 -1.360215,-3.889426 -0.258556,-0.573383 -0.400793,-0.701926 -0.931314,-1.006104 -1.047968,-0.600809 -2.178302,-1.127983 -3.367807,-1.339464 -0.155712,-0.02771 -0.328684,-0.04899 -0.47459,0.01178 -0.09184,0.03848 -0.156549,0.139916 -0.252448,0.176539 -0.03193,0.01178 -0.06866,0.02063 -0.101768,0.01178 -0.10409,-0.02681 -0.164939,-0.1486 -0.261363,-0.188894 -0.07297,-0.03043 -0.153457,-0.04076 -0.234324,-0.03961 z"
       id="path339"
       style="fill:#f4e3cf;fill-opacity:1;stroke:none;stroke-width:0.413556;stroke-dasharray:none;stroke-opacity:0.6" />
    <rect
       style="opacity:0.5;fill:none;fill-opacity:1;stroke:#000000;stroke-width:2.72727;stroke-dasharray:none;stroke-opacity:1;filter:url(#filter1-3)"
       id="rect1-5-5"
       width="49.090908"
       height="49.090908"
       x="7.4405394"
       y="7.4604964"
       rx="7.4768682"
       ry="7.477273"
       transform="matrix(0.43046721,0,0,0.43046721,34.695898,34.707264)" />
    <rect
       style="fill:#c4c2c5;fill-opacity:1;stroke:#1e2430;stroke-width:1.174;stroke-dasharray:none;stroke-opacity:1"
       id="rect1-3"
       width="21.132023"
       height="21.132023"
       x="37.898808"
       y="37.918762"
       rx="3.2185469"
       ry="3.2187209" />
    <rect
       style="fill:#1e2430;fill-opacity:1;stroke:none;stroke-width:1.00656;stroke-dasharray:none;stroke-opacity:1"
       id="rect1-6-5"
       width="18.118069"
       height="18.118069"
       x="39.405781"
       y="39.425739"
       rx="2.4074855"
       ry="2.4074855" />
    <path
       id="path1"
       style="fill:#f4e3cf;fill-opacity:1;stroke:none;stroke-width:0.181638;stroke-dasharray:none;stroke-dashoffset:2.2;stroke-opacity:0.6"
       d="m 51.778779,43.941045 c -0.187252,-8.1e-5 -0.387675,0.07531 -0.638521,0.222291 -0.596919,0.349749 -1.377579,0.514692 -2.44963,0.514692 -1.071954,0 -1.878654,-0.168464 -2.472018,-0.516184 -0.475801,-0.278826 -0.759862,-0.282522 -1.159175,-0.01336 -1.025175,0.690863 -1.797804,2.90589 -2.024459,5.800365 -0.135901,1.735692 -0.0089,2.650757 0.440096,3.165728 0.216586,0.248286 0.748267,0.206204 1.227806,-0.09847 0.406495,-0.258249 0.890832,-0.828123 1.469484,-1.729077 0.522892,-0.81415 1.155362,-1.082294 2.554068,-1.084584 1.395926,-0.0021 1.944506,0.26195 2.588383,1.251671 1.08027,1.660535 2.078776,2.238636 2.664465,1.542581 0.324469,-0.385605 0.383859,-0.758167 0.368487,-2.309398 -0.028,-2.817903 -0.76459,-5.381404 -1.826034,-6.359807 C 52.239036,44.06691 52.019542,43.9412 51.778779,43.9411 Z m -6.06442,1.660439 h 0.647469 0.647466 v 0.554974 0.554973 h 0.554977 0.554971 v 0.693717 0.693714 h -0.554971 -0.554977 v 0.601222 0.601221 h -0.586297 c -0.322099,0 -0.612073,-0.02889 -0.645977,-0.06265 -0.0339,-0.03389 -0.06262,-0.303056 -0.06262,-0.599727 V 48.098857 H 45.159418 44.604442 V 47.405144 46.71143 h 0.554976 0.55497 v -0.55498 z m 5.278213,0 c 0.5841,0 0.834244,0.647172 0.413247,1.068174 -0.26774,0.267713 -0.512097,0.288754 -0.77577,0.06565 -0.457352,-0.386999 -0.218646,-1.133819 0.362523,-1.133819 z m -1.123373,1.18603 c 0.145866,1.01e-4 0.292703,0.05822 0.408766,0.186472 0.180933,0.199943 0.20047,0.65765 0.03732,0.871247 -0.319324,0.418037 -1.086073,0.14915 -1.086073,-0.380423 0,-0.401918 0.319131,-0.677526 0.640008,-0.677304 z m 2.292994,0.02255 c 0.168103,0.0031 0.331322,0.05875 0.426667,0.164095 0.180934,0.199943 0.200443,0.65765 0.0373,0.87125 -0.339646,0.444632 -1.086079,0.147034 -1.086079,-0.432643 0,-0.1757 0.07042,-0.36615 0.168576,-0.455016 0.112217,-0.101585 0.285435,-0.150764 0.45353,-0.147674 z m -1.12934,1.19647 c 0.517834,0 0.769797,0.549277 0.456506,0.996564 -0.107097,0.152907 -0.23771,0.20587 -0.507235,0.20587 -0.310298,0 -0.382306,-0.04038 -0.507228,-0.281972 -0.246338,-0.476336 0.02255,-0.920482 0.557957,-0.920482 z" />
  </g>
</svg>
