<?xml version="1.0" encoding="UTF-8" standalone="no"?>
<svg
   width="64"
   height="64"
   version="1.1"
   id="svg73"
   sodipodi:docname="accessories-calculator.svg"
   inkscape:version="1.2.2 (b0a8486541, 2022-12-01)"
   xmlns:inkscape="http://www.inkscape.org/namespaces/inkscape"
   xmlns:sodipodi="http://sodipodi.sourceforge.net/DTD/sodipodi-0.dtd"
   xmlns="http://www.w3.org/2000/svg"
   xmlns:svg="http://www.w3.org/2000/svg"
   xmlns:rdf="http://www.w3.org/1999/02/22-rdf-syntax-ns#"
   xmlns:cc="http://creativecommons.org/ns#"
   xmlns:dc="http://purl.org/dc/elements/1.1/">
  <metadata
     id="metadata77">
    <rdf:RDF>
      <cc:Work
         rdf:about="">
        <dc:format>image/svg+xml</dc:format>
        <dc:type
           rdf:resource="http://purl.org/dc/dcmitype/StillImage" />
      </cc:Work>
    </rdf:RDF>
  </metadata>
  <sodipodi:namedview
     pagecolor="#f5f7fa"
     bordercolor="#666666"
     borderopacity="1"
     objecttolerance="10"
     gridtolerance="10"
     guidetolerance="10"
     inkscape:pageopacity="0"
     inkscape:pageshadow="2"
     inkscape:window-width="1280"
     inkscape:window-height="603"
     id="namedview75"
     showgrid="false"
     inkscape:zoom="6.2890625"
     inkscape:cx="51.677019"
     inkscape:cy="37.843478"
     inkscape:window-x="35"
     inkscape:window-y="32"
     inkscape:window-maximized="0"
     inkscape:current-layer="g877"
     inkscape:document-rotation="0"
     inkscape:pagecheckerboard="0"
     inkscape:showpageshadow="2"
     inkscape:deskcolor="#d1d1d1" />
  <defs
     id="defs29">
    <filter
       style="color-interpolation-filters:sRGB;"
       inkscape:label="Blur"
       id="filter1"
       x="-0.091333304"
       y="-0.091333304"
       width="1.1826666"
       height="1.1826666">
      <feGaussianBlur
         stdDeviation="1.3 1.3"
         result="blur"
         id="feGaussianBlur1" />
    </filter>
    <filter
       style="color-interpolation-filters:sRGB"
       inkscape:label="Blur"
       id="filter1-3"
       x="-0.091333304"
       y="-0.091333304"
       width="1.1826666"
       height="1.1826666">
      <feGaussianBlur
         stdDeviation="1.3 1.3"
         result="blur"
         id="feGaussianBlur1-6" />
    </filter>
  </defs>
  <circle
     cx="32.516094"
     cy="31.877844"
     r="0"
     fill="url(#b)"
     stroke-width="1.5715"
     id="circle41"
     style="fill:url(#b)" />
  <g
     aria-label="GZ"
     transform="matrix(1.2212657,0,0,0.81882264,0.4960938,-0.1661539)"
     id="text93"
     style="font-weight:bold;font-size:11.5263px;line-height:1.25;font-family:sans-serif;-inkscape-font-specification:'sans-serif Bold';fill:#f2f2f2;stroke-width:0.288159" />
  <g
     id="g877"
     transform="matrix(1.1,0,0,1.1,-3.1845928,-3.2065454)">
    <rect
       style="fill:none;fill-opacity:1;stroke:#000000;stroke-width:2.72727;stroke-dasharray:none;stroke-opacity:1;filter:url(#filter1);opacity:0.5"
       id="rect1-5"
       width="49.090908"
       height="49.090908"
       x="7.4405394"
       y="7.4604964"
       rx="7.4768682"
       ry="7.477273" />
    <rect
       style="opacity:1;fill:#c4c2c5;stroke-width:2.72727273;stroke-opacity:1;fill-opacity:1;stroke:#1e2430;stroke-dasharray:none"
       id="rect1"
       width="49.090908"
       height="49.090908"
       x="7.4405394"
       y="7.4604964"
       rx="7.4768682"
       ry="7.477273" />
    <rect
       style="fill:#1e2430;fill-opacity:1;stroke:none;stroke-width:2.33829;stroke-dasharray:none;stroke-opacity:1"
       id="rect1-6"
       width="42.089317"
       height="42.089317"
       x="10.941335"
       y="10.961291"
       rx="5.5927272"
       ry="5.5927272" />
    <path
       style="fill:#f4e3cf;fill-opacity:1;stroke:none;stroke-width:0.413556;stroke-dasharray:none;stroke-opacity:0.6"
       d="m 28.227504,44.825246 c -0.09364,-2.283383 -0.09856,-2.249623 0.321952,-2.213108 l 0.192385,0.01639 -0.01549,1.660115 c -0.01624,1.738709 -0.03211,1.834892 -0.303065,1.834892 -0.140832,0 -0.143154,-0.01546 -0.195777,-1.298602 z m 2.122132,1.069575 c -0.12454,-0.1245 -0.125171,-0.213221 -0.0058,-0.806201 0.05224,-0.259515 0.135033,-0.867865 0.183964,-1.351961 0.102967,-1.018745 0.182077,-1.204018 0.514184,-1.204018 0.391781,0 0.516624,0.344039 0.3607,0.993994 -0.03386,0.141137 -0.136571,0.673838 -0.228272,1.183898 -0.197472,1.098288 -0.275642,1.285063 -0.537869,1.285063 -0.102383,0 -0.231503,-0.04531 -0.286931,-0.100751 z m 5.054043,0.05257 c -0.04067,-0.02722 -0.102998,-0.436082 -0.144143,-0.945817 -0.03984,-0.493783 -0.101393,-0.998611 -0.136746,-1.121821 -0.09294,-0.323955 -0.07892,-0.867308 0.02907,-1.125758 0.107644,-0.257597 0.319617,-0.363249 0.533449,-0.265823 0.183342,0.08353 0.236748,0.290377 0.174065,0.674261 -0.07493,0.458909 -0.09175,0.666604 -0.143617,1.774308 -0.03913,0.835598 -0.06581,1.028425 -0.144214,1.04201 -0.05291,0.009 -0.12845,-0.0052 -0.167868,-0.03127 z M 29.4192,45.743044 c -0.138092,-0.138107 -0.140052,-0.175494 -0.161869,-3.09123 -0.0027,-0.390898 0.107971,-0.504716 0.39381,-0.404185 0.281616,0.09905 0.307379,0.281624 0.218299,1.547103 -0.153154,2.175804 -0.166217,2.232339 -0.45024,1.948312 z m 3.627011,-0.01979 c -0.126748,-0.20011 -0.434289,-1.846903 -0.443036,-2.372361 -0.0082,-0.495579 0.141879,-0.785974 0.406327,-0.785974 0.127139,0 0.167036,0.05776 0.265944,0.384765 0.06398,0.211583 0.130162,0.529058 0.147028,0.705418 0.01686,0.176329 0.07987,0.687509 0.14003,1.135901 0.105476,0.78633 0.105164,0.819913 -0.0088,0.945907 -0.156685,0.173144 -0.393141,0.166742 -0.507431,-0.01361 z m 1.209334,0.07796 c -0.02251,-0.03659 -0.06861,-0.592052 -0.102374,-1.234536 -0.03377,-0.64249 -0.07757,-1.320487 -0.09736,-1.50667 -0.04551,-0.428246 0.04147,-0.554292 0.348129,-0.50452 0.415413,0.06747 0.482248,0.264648 0.309499,0.913388 -0.0624,0.234342 -0.07788,0.581356 -0.0547,1.225828 0.03077,0.854854 0.02561,0.905671 -0.104588,1.035867 -0.150995,0.151002 -0.236422,0.171227 -0.298598,0.0706 z m 2.058679,-0.334505 c -0.01617,-0.07938 -0.0477,-0.274142 -0.07015,-0.432871 -0.02246,-0.158733 -0.06543,-0.432868 -0.09548,-0.609225 -0.03006,-0.176298 -0.05667,-0.551505 -0.05909,-0.833668 -0.0034,-0.405757 0.02218,-0.557056 0.123962,-0.723603 0.1314,-0.215479 0.291311,-0.320497 0.369322,-0.242507 0.04974,0.04976 0.03306,1.660932 -0.02558,2.45708 -0.02842,0.384791 -0.06277,0.529064 -0.126309,0.529064 -0.04805,0 -0.100571,-0.06494 -0.11668,-0.144291 z M 27.377803,44.08862 c 0.0155,-1.189934 0.02876,-1.332036 0.125849,-1.350689 0.303473,-0.05836 0.443196,0.845122 0.288357,1.86447 -0.09537,0.627758 -0.17425,0.816051 -0.341895,0.816051 -0.07444,0 -0.08671,-0.225435 -0.07231,-1.329832 z m 4.319657,-1.881524 c -0.09131,-0.108513 -0.166937,-0.24563 -0.168066,-0.304633 -0.0044,-0.237342 -0.308099,-0.46002 -0.627181,-0.46002 -0.262309,0 -0.345135,0.12416 -0.294409,0.441391 0.0875,0.547108 -0.216183,0.596194 -0.839908,0.135756 -0.238904,-0.176297 -0.473043,-0.320642 -0.520315,-0.320642 -0.103583,0 -0.250822,0.222963 -0.306948,0.464937 -0.02248,0.09698 -0.06729,0.176298 -0.09953,0.176298 -0.03224,0 -0.162697,-0.126974 -0.289912,-0.282274 -0.127215,-0.15527 -0.30205,-0.300025 -0.388525,-0.321731 -0.180454,-0.04527 -0.532673,0.08402 -0.665677,0.244361 -0.128414,0.154837 -0.195844,0.02319 -0.197069,-0.384332 -0.0014,-0.479724 0.08994,-0.674679 0.411585,-0.878174 0.328013,-0.207531 0.720414,-0.622031 0.80874,-0.85435 0.252841,-0.665021 -0.342911,-1.73122 -1.092895,-1.955926 -0.817729,-0.24498 -2.406524,0.544733 -2.838047,1.410695 L 24.43476,39.62857 24.203989,39.510193 c -0.371366,-0.190452 -1.007031,-0.820278 -1.337289,-1.324924 -0.322734,-0.493167 -0.616491,-1.184544 -0.792378,-1.864941 -0.101905,-0.394191 -0.101217,-0.413499 0.01919,-0.545093 0.378116,-0.413301 0.554558,-1.108032 0.505353,-1.989798 -0.04349,-0.779431 -0.207768,-1.298789 -0.592067,-1.871881 l -0.27324,-0.407475 0.617433,-0.434657 c 0.818121,-0.575932 1.958283,-1.705276 2.381119,-2.358517 0.445419,-0.68813 0.496047,-0.73748 0.756588,-0.73748 0.180384,0 0.294038,0.06672 0.606595,0.356094 1.303942,1.207217 2.617855,1.807409 4.410106,2.014523 0.335074,0.0387 0.658511,0.08546 0.718754,0.103864 0.165772,0.05066 0.627949,0.664073 0.627949,0.833444 0,0.243521 -0.643268,1.431131 -0.958289,1.7692 -0.352866,0.378687 -0.616067,0.472942 -0.893558,0.319989 -0.106267,-0.05858 -0.427117,-0.308503 -0.712999,-0.5554 -1.360973,-1.175379 -2.745135,-1.752277 -4.040409,-1.68398 -0.553411,0.02917 -1.149963,0.229453 -1.425078,0.478428 -0.06315,0.05713 -0.12779,0.0909 -0.143669,0.07502 -0.02573,-0.02576 0.288155,-0.290238 0.638879,-0.538237 0.120087,-0.08491 0.11295,-0.09082 -0.112226,-0.09273 -0.132265,-0.0014 -0.240481,-0.01982 -0.240481,-0.04154 0,-0.02177 0.102414,-0.179035 0.227601,-0.34956 0.262245,-0.357248 0.682734,-0.683929 1.185029,-0.920665 l 0.350913,-0.165391 -0.256512,0.03602 c -0.63532,0.08919 -1.568058,0.728851 -1.863946,1.27828 -0.06664,0.123731 -0.16994,0.224957 -0.229577,0.224957 -0.271809,0 -0.293209,0.04647 -0.209192,0.454175 0.13983,0.678543 0.172167,1.841425 0.09063,3.259027 l -0.07862,1.36731 0.139381,0.137139 0.139377,0.137114 -0.0371,-0.160341 c -0.02406,-0.103966 0.08675,-0.532363 0.315188,-1.218465 0.193755,-0.58197 0.352852,-0.985977 0.353551,-0.897802 7.29e-4,0.08818 -0.04214,0.591562 -0.0952,1.118629 -0.05304,0.527069 -0.07464,0.976961 -0.04795,0.999765 0.02662,0.0227 0.163944,0.109969 0.305029,0.193745 l 0.256521,0.152273 -0.163823,-0.222193 -0.163823,-0.222188 0.302474,-1.218448 c 0.166359,-0.670142 0.305013,-1.144489 0.308111,-1.054106 0.003,0.09039 -0.03921,0.634733 -0.09401,1.209658 -0.05481,0.57492 -0.09087,1.052714 -0.08017,1.061762 0.0107,0.0091 0.260575,0.166603 0.555249,0.350111 0.627335,0.39068 1.043605,0.486745 1.836993,0.423892 0.966957,-0.07657 1.916982,-0.431925 2.75673,-1.031162 0.430495,-0.307193 0.5348,-0.472662 0.14846,-0.235517 -0.254134,0.156008 -1.336709,0.608758 -1.371756,0.573708 -0.02941,-0.02941 1.322014,-1.01991 1.855216,-1.359632 0.206035,-0.131276 0.469345,-0.278264 0.585132,-0.326645 0.197521,-0.08253 0.222653,-0.130713 0.406797,-0.779852 l 0.196268,-0.691891 0.0041,0.379428 c 0.0023,0.20869 0.01867,0.36491 0.03645,0.347166 0.01775,-0.01775 0.08885,-0.28949 0.157994,-0.603878 l 0.125728,-0.571617 -0.03689,0.849707 c -0.03467,0.799075 -0.02974,0.849712 0.08248,0.849791 0.110577,4.9e-5 0.118491,-0.05784 0.107399,-0.785577 l -0.01203,-0.785663 0.108169,0.492472 c 0.141159,0.642674 0.227146,0.714527 0.178079,0.148815 l -0.03893,-0.448901 0.212152,0.732234 0.212151,0.732231 0.398924,0.211486 c 0.219406,0.116321 0.53541,0.304524 0.702226,0.418237 0.337724,0.23022 1.485844,1.069974 1.585878,1.159941 0.09479,0.08524 -0.574361,-0.178913 -1.08912,-0.429939 -0.246313,-0.120127 -0.45749,-0.208756 -0.469281,-0.196949 -0.04342,0.04342 0.802986,0.603375 1.251136,0.827705 0.752759,0.376816 1.340861,0.513067 2.231132,0.516914 0.827094,0.0037 0.943752,-0.03185 1.721562,-0.522864 l 0.252402,-0.159348 -0.04199,-0.682881 c -0.02289,-0.375585 -0.05563,-0.899316 -0.07233,-1.163848 -0.02412,-0.381554 0.01762,-0.229122 0.200944,0.73748 0.12719,0.670142 0.24028,1.228467 0.251258,1.240726 0.01083,0.01253 0.108574,-0.03 0.216839,-0.094 0.231436,-0.136697 0.231589,-0.138784 0.100657,-1.242935 -0.05226,-0.440882 -0.09268,-0.830463 -0.0898,-0.865734 0.0031,-0.03528 0.130685,0.425698 0.283976,1.024372 0.204654,0.799238 0.260317,1.110664 0.209478,1.171898 -0.140147,0.168848 0.0068,0.147891 0.205491,-0.0292 l 0.204531,-0.182733 -0.07688,-1.344874 c -0.08118,-1.420089 -0.04421,-2.737219 0.09356,-3.329671 0.08785,-0.377924 0.06584,-0.416356 -0.242336,-0.423015 -0.09186,-0.002 -0.215275,-0.110746 -0.363499,-0.320419 -0.378313,-0.535003 -1.059863,-0.961464 -1.787597,-1.118535 -0.142993,-0.03086 -0.202584,-0.02434 -0.175618,0.01932 0.02257,0.03632 0.127283,0.08504 0.232982,0.108253 0.303797,0.06672 0.948,0.532577 1.231601,0.890631 l 0.259452,0.327547 -0.249123,0.03206 -0.249156,0.03207 0.224478,0.139801 c 0.123449,0.07689 0.311006,0.232317 0.416837,0.345397 l 0.192379,0.205601 -0.28314,-0.201797 c -0.370099,-0.263865 -1.008708,-0.456977 -1.510989,-0.456977 -0.221013,0 -0.683222,0.07138 -1.027109,0.158611 -1.071858,0.271838 -1.779371,0.680561 -3.08359,1.781257 -0.372754,0.314585 -0.474584,0.36874 -0.693359,0.36874 -0.225335,0 -0.295873,-0.04083 -0.58147,-0.336678 -0.346186,-0.358604 -0.996858,-1.537623 -0.996858,-1.806331 0,-0.169937 0.462936,-0.783571 0.62795,-0.832364 0.06024,-0.01778 0.455827,-0.07674 0.879076,-0.13096 1.749356,-0.22409 2.975292,-0.793326 4.223758,-1.961206 0.337734,-0.315933 0.448976,-0.383394 0.63222,-0.383394 0.260968,0 0.31142,0.04915 0.756988,0.73748 0.423617,0.654447 1.563423,1.782874 2.385275,2.361462 l 0.62153,0.4376 -0.26437,0.387316 c -0.395543,0.579467 -0.570102,1.11838 -0.610944,1.886146 -0.04697,0.88279 0.130128,1.577843 0.507052,1.989796 0.120356,0.131597 0.121098,0.150918 0.01917,0.545097 -0.175895,0.680391 -0.469637,1.371771 -0.792376,1.864933 -0.33618,0.513704 -0.969279,1.13702 -1.354447,1.333517 l -0.246866,0.125954 -0.07873,-0.239445 c -0.192595,-0.585444 -1.311812,-1.355365 -2.188554,-1.505535 -0.543074,-0.09308 -0.859615,-0.0047 -1.240114,0.346027 -0.498701,0.459683 -0.726716,1.139438 -0.543688,1.620833 0.08852,0.232796 0.553175,0.719463 0.841864,0.881721 0.148544,0.08349 0.270993,0.212818 0.311544,0.329198 0.07363,0.21118 0.08716,0.699328 0.02558,0.928639 -0.03801,0.141941 -0.04223,0.142807 -0.125162,0.02412 -0.122945,-0.175493 -0.515787,-0.346781 -0.685094,-0.298695 -0.07843,0.02227 -0.261104,0.172587 -0.405902,0.333961 -0.144795,0.161392 -0.29303,0.275038 -0.329403,0.252556 -0.03638,-0.02227 -0.08461,-0.139313 -0.107171,-0.259576 -0.04887,-0.260504 -0.17841,-0.384886 -0.345656,-0.331802 -0.06696,0.02103 -0.28828,0.167948 -0.491759,0.325945 -0.414171,0.321616 -0.624712,0.359798 -0.769057,0.139498 -0.079,-0.120604 -0.08295,-0.184524 -0.02143,-0.34757 0.09879,-0.26171 -0.01085,-0.402449 -0.313605,-0.402449 -0.328595,0 -0.457414,0.09865 -0.625655,0.47906 -0.137846,0.311702 -0.306095,0.482878 -0.474612,0.482878 -0.03445,0 -0.137355,-0.08879 -0.228667,-0.197326 z m -0.168811,-3.103884 c 0.101394,-0.05245 0.236025,-0.209233 0.301429,-0.351056 0.06501,-0.140952 0.132624,-0.256299 0.150261,-0.256299 0.0176,0 0.08524,0.115316 0.150265,0.256299 0.135528,0.293902 0.380825,0.445809 0.719837,0.445809 0.187684,0 0.285459,-0.05025 0.484149,-0.248938 0.238182,-0.238145 0.248975,-0.267028 0.248975,-0.666174 0,-0.550206 -0.243096,-1.384385 -0.639698,-2.195091 -0.437743,-0.894863 -0.784187,-1.228335 -0.866115,-0.833737 -0.108942,0.524729 -0.115158,0.530927 -0.176865,0.176346 -0.07046,-0.404931 -0.158834,-0.425258 -0.428176,-0.0985 -0.518586,0.629133 -1.026997,1.94416 -1.078904,2.790628 l -0.03433,0.559854 0.257789,0.257783 c 0.20724,0.207253 0.303908,0.257782 0.492972,0.257782 0.129345,0 0.317635,-0.04261 0.41841,-0.09475 z m -2.239697,-5.834736 c -0.293158,-0.353232 -2.042188,-1.262831 -3.107476,-1.616068 -0.599483,-0.198782 -0.620638,-0.211292 -0.293364,-0.173469 1.299613,0.150196 2.594611,0.788566 3.332609,1.642816 0.114267,0.132268 0.193866,0.240484 0.176901,0.240484 -0.01695,0 -0.06587,-0.04219 -0.108673,-0.09375 z m 5.444208,-0.130691 c 0.753864,-0.899427 1.947843,-1.488156 3.371466,-1.662415 0.27009,-0.03306 0.218787,-0.0054 -0.325425,0.17601 -1.07516,0.35822 -2.541693,1.116974 -3.103092,1.605475 -0.102153,0.08888 -0.082,0.04684 0.05706,-0.119069 z M 21.382972,30.461143 c 0.02123,-0.791294 0.137891,-2.082146 0.242611,-2.684327 0.221614,-1.274367 1.21191,-3.150504 2.33857,-4.430454 0.184124,-0.209172 0.322419,-0.392672 0.30732,-0.407769 -0.05539,-0.05538 -1.303281,1.236214 -1.665404,1.723727 -0.20531,0.276404 -0.37329,0.488098 -0.37329,0.470435 0,-0.11009 0.486674,-1.274628 0.756461,-1.81009 1.476543,-2.9306 3.861048,-4.713082 7.02573,-5.251929 0.347514,-0.05917 0.638859,-0.09853 0.647433,-0.08745 0.257118,0.332031 1.274568,1.835216 1.274824,1.883426 2.3e-4,0.03724 -0.165808,0.361162 -0.3689,0.719851 l -0.36926,0.652164 0.313502,0.807161 0.313498,0.80716 -0.122181,0.813682 -0.122175,0.813686 0.23965,0.499417 c 0.131801,0.274682 0.251823,0.487241 0.2667,0.47236 0.01488,-0.01488 -0.03387,-0.265634 -0.108307,-0.55723 L 31.844387,24.364785 32.01291,23.574337 32.181435,22.78389 31.91909,22.068023 c -0.302443,-0.825281 -0.347425,-0.638972 0.398247,-1.649396 0.243061,-0.329364 0.426138,-0.63237 0.406833,-0.673353 -0.01931,-0.04099 -0.3117,-0.475559 -0.649768,-0.965732 l -0.61467,-0.891216 0.949686,0.03687 c 1.597193,0.06203 2.89769,0.365621 4.165079,0.972351 1.99081,0.953048 3.412125,2.402799 4.445481,4.53444 0.330318,0.681393 0.768234,1.740783 0.683762,1.654143 -0.01546,-0.01571 -0.165104,-0.21614 -0.332941,-0.445401 -0.344667,-0.470904 -1.086302,-1.258768 -1.469951,-1.561569 -0.215046,-0.169726 -0.182916,-0.114944 0.201037,0.343123 0.647728,0.772635 1.130745,1.516158 1.562274,2.404829 0.496634,1.022753 0.608774,1.383743 0.737118,2.37276 0.102204,0.787283 0.228899,2.789279 0.180411,2.849516 -0.02969,0.03684 -0.715409,-0.442617 -1.241878,-0.868269 -0.690094,-0.557961 -1.634306,-1.57779 -2.021667,-2.183606 -0.199472,-0.311952 -0.420427,-0.649968 -0.491024,-0.751146 l -0.128365,-0.183957 0.183905,-0.156272 c 0.317497,-0.269796 1.074542,-0.603277 1.45978,-0.643038 0.444382,-0.04587 0.473249,-0.147406 0.0419,-0.147406 -0.941964,0 -1.524121,0.298964 -2.465948,1.266373 -0.386214,0.396704 -0.906322,0.861522 -1.155798,1.032927 -0.685175,0.470765 -0.819616,0.52333 -0.471554,0.184378 0.166473,-0.16211 0.408059,-0.459503 0.536871,-0.660865 0.222592,-0.347954 0.638046,-1.360595 0.58145,-1.417198 -0.01484,-0.01466 -0.106441,0.109514 -0.203913,0.275926 -0.248518,0.423973 -1.121114,1.319113 -1.730105,1.774737 -0.718981,0.537913 -1.691437,1.001631 -2.251953,1.073852 -0.579289,0.07465 -1.923546,0.07284 -2.510146,-0.0034 -0.821243,-0.106668 -2.016421,-0.769611 -2.956325,-1.639814 -0.477809,-0.442377 -0.97285,-1.03881 -1.107492,-1.334316 -0.155783,-0.341904 -0.171536,-0.153223 -0.02353,0.281903 0.216119,0.635415 0.45848,1.055444 0.865432,1.499843 l 0.352709,0.385141 -0.256515,-0.153435 c -0.485357,-0.290311 -0.963378,-0.694455 -1.605069,-1.357 -0.686715,-0.709031 -1.047347,-0.949234 -1.667738,-1.110825 -0.407781,-0.106216 -1.05588,-0.132696 -1.05588,-0.04315 0,0.03034 0.161723,0.07186 0.359394,0.09225 0.396098,0.04088 1.163227,0.382818 1.452767,0.647551 l 0.17688,0.161724 -0.184211,0.275174 c -0.10131,0.151347 -0.309642,0.477177 -0.462956,0.724074 -0.363589,0.585526 -1.776996,2.00268 -2.519955,2.526638 -0.312874,0.220647 -0.601453,0.41369 -0.641289,0.428989 -0.05129,0.0197 -0.06779,-0.145549 -0.0565,-0.566106 z"
       id="path482" />
    <rect
       style="opacity:0.5;fill:none;fill-opacity:1;stroke:#000000;stroke-width:2.72727;stroke-dasharray:none;stroke-opacity:1;filter:url(#filter1-3)"
       id="rect1-5-5"
       width="49.090908"
       height="49.090908"
       x="7.4405394"
       y="7.4604964"
       rx="7.4768682"
       ry="7.477273"
       transform="matrix(0.43046721,0,0,0.43046721,34.695898,34.707264)" />
    <rect
       style="fill:#c4c2c5;fill-opacity:1;stroke:#1e2430;stroke-width:1.174;stroke-dasharray:none;stroke-opacity:1"
       id="rect1-3"
       width="21.132023"
       height="21.132023"
       x="37.898808"
       y="37.918762"
       rx="3.2185469"
       ry="3.2187209" />
    <rect
       style="fill:#1e2430;fill-opacity:1;stroke:none;stroke-width:1.00656;stroke-dasharray:none;stroke-opacity:1"
       id="rect1-6-5"
       width="18.118069"
       height="18.118069"
       x="39.405781"
       y="39.425739"
       rx="2.4074855"
       ry="2.4074855" />
    <path
       id="path1"
       style="fill:#f4e3cf;fill-opacity:1;stroke:none;stroke-width:0.181638;stroke-dasharray:none;stroke-dashoffset:2.2;stroke-opacity:0.6"
       d="m 51.778779,43.941045 c -0.187252,-8.1e-5 -0.387675,0.07531 -0.638521,0.222291 -0.596919,0.349749 -1.377579,0.514692 -2.44963,0.514692 -1.071954,0 -1.878654,-0.168464 -2.472018,-0.516184 -0.475801,-0.278826 -0.759862,-0.282522 -1.159175,-0.01336 -1.025175,0.690863 -1.797804,2.90589 -2.024459,5.800365 -0.135901,1.735692 -0.0089,2.650757 0.440096,3.165728 0.216586,0.248286 0.748267,0.206204 1.227806,-0.09847 0.406495,-0.258249 0.890832,-0.828123 1.469484,-1.729077 0.522892,-0.81415 1.155362,-1.082294 2.554068,-1.084584 1.395926,-0.0021 1.944506,0.26195 2.588383,1.251671 1.08027,1.660535 2.078776,2.238636 2.664465,1.542581 0.324469,-0.385605 0.383859,-0.758167 0.368487,-2.309398 -0.028,-2.817903 -0.76459,-5.381404 -1.826034,-6.359807 C 52.239036,44.06691 52.019542,43.9412 51.778779,43.9411 Z m -6.06442,1.660439 h 0.647469 0.647466 v 0.554974 0.554973 h 0.554977 0.554971 v 0.693717 0.693714 h -0.554971 -0.554977 v 0.601222 0.601221 h -0.586297 c -0.322099,0 -0.612073,-0.02889 -0.645977,-0.06265 -0.0339,-0.03389 -0.06262,-0.303056 -0.06262,-0.599727 V 48.098857 H 45.159418 44.604442 V 47.405144 46.71143 h 0.554976 0.55497 v -0.55498 z m 5.278213,0 c 0.5841,0 0.834244,0.647172 0.413247,1.068174 -0.26774,0.267713 -0.512097,0.288754 -0.77577,0.06565 -0.457352,-0.386999 -0.218646,-1.133819 0.362523,-1.133819 z m -1.123373,1.18603 c 0.145866,1.01e-4 0.292703,0.05822 0.408766,0.186472 0.180933,0.199943 0.20047,0.65765 0.03732,0.871247 -0.319324,0.418037 -1.086073,0.14915 -1.086073,-0.380423 0,-0.401918 0.319131,-0.677526 0.640008,-0.677304 z m 2.292994,0.02255 c 0.168103,0.0031 0.331322,0.05875 0.426667,0.164095 0.180934,0.199943 0.200443,0.65765 0.0373,0.87125 -0.339646,0.444632 -1.086079,0.147034 -1.086079,-0.432643 0,-0.1757 0.07042,-0.36615 0.168576,-0.455016 0.112217,-0.101585 0.285435,-0.150764 0.45353,-0.147674 z m -1.12934,1.19647 c 0.517834,0 0.769797,0.549277 0.456506,0.996564 -0.107097,0.152907 -0.23771,0.20587 -0.507235,0.20587 -0.310298,0 -0.382306,-0.04038 -0.507228,-0.281972 -0.246338,-0.476336 0.02255,-0.920482 0.557957,-0.920482 z" />
  </g>
</svg>
