<?xml version="1.0" encoding="UTF-8" standalone="no"?>
<svg
   width="64"
   height="64"
   version="1.1"
   id="svg73"
   sodipodi:docname="steam_icon_1156060.svg"
   inkscape:version="1.4.2 (ebf0e940d0, 2025-05-08)"
   xmlns:inkscape="http://www.inkscape.org/namespaces/inkscape"
   xmlns:sodipodi="http://sodipodi.sourceforge.net/DTD/sodipodi-0.dtd"
   xmlns="http://www.w3.org/2000/svg"
   xmlns:svg="http://www.w3.org/2000/svg"
   xmlns:rdf="http://www.w3.org/1999/02/22-rdf-syntax-ns#"
   xmlns:cc="http://creativecommons.org/ns#"
   xmlns:dc="http://purl.org/dc/elements/1.1/">
  <metadata
     id="metadata77">
    <rdf:RDF>
      <cc:Work
         rdf:about="">
        <dc:format>image/svg+xml</dc:format>
        <dc:type
           rdf:resource="http://purl.org/dc/dcmitype/StillImage" />
      </cc:Work>
    </rdf:RDF>
  </metadata>
  <sodipodi:namedview
     pagecolor="#f5f7fa"
     bordercolor="#666666"
     borderopacity="1"
     objecttolerance="10"
     gridtolerance="10"
     guidetolerance="10"
     inkscape:pageopacity="0"
     inkscape:pageshadow="2"
     inkscape:window-width="1920"
     inkscape:window-height="931"
     id="namedview75"
     showgrid="false"
     inkscape:zoom="6.2890625"
     inkscape:cx="31.48323"
     inkscape:cy="37.684472"
     inkscape:window-x="0"
     inkscape:window-y="0"
     inkscape:window-maximized="1"
     inkscape:current-layer="g877"
     inkscape:document-rotation="0"
     inkscape:pagecheckerboard="0"
     inkscape:showpageshadow="2"
     inkscape:deskcolor="#d1d1d1" />
  <defs
     id="defs29">
    <filter
       style="color-interpolation-filters:sRGB;"
       inkscape:label="Blur"
       id="filter1"
       x="-0.091333304"
       y="-0.091333304"
       width="1.1826666"
       height="1.1826666">
      <feGaussianBlur
         stdDeviation="1.3 1.3"
         result="blur"
         id="feGaussianBlur1" />
    </filter>
    <filter
       style="color-interpolation-filters:sRGB"
       inkscape:label="Blur"
       id="filter1-3"
       x="-0.091333304"
       y="-0.091333304"
       width="1.1826666"
       height="1.1826666">
      <feGaussianBlur
         stdDeviation="1.3 1.3"
         result="blur"
         id="feGaussianBlur1-6" />
    </filter>
  </defs>
  <circle
     cx="32.516094"
     cy="31.877844"
     r="0"
     fill="url(#b)"
     stroke-width="1.5715"
     id="circle41"
     style="fill:url(#b)" />
  <g
     aria-label="GZ"
     transform="matrix(1.2212657,0,0,0.81882264,0.4960938,-0.1661539)"
     id="text93"
     style="font-weight:bold;font-size:11.5263px;line-height:1.25;font-family:sans-serif;-inkscape-font-specification:'sans-serif Bold';fill:#f2f2f2;stroke-width:0.288159" />
  <g
     id="g877"
     transform="matrix(1.1,0,0,1.1,-3.1845928,-3.2065454)">
    <rect
       style="fill:none;fill-opacity:1;stroke:#000000;stroke-width:2.72727;stroke-dasharray:none;stroke-opacity:1;filter:url(#filter1);opacity:0.5"
       id="rect1-5"
       width="49.090908"
       height="49.090908"
       x="7.4405394"
       y="7.4604964"
       rx="7.4768682"
       ry="7.477273" />
    <rect
       style="opacity:1;fill:#c4c2c5;stroke-width:2.72727273;stroke-opacity:1;fill-opacity:1;stroke:#1e2430;stroke-dasharray:none"
       id="rect1"
       width="49.090908"
       height="49.090908"
       x="7.4405394"
       y="7.4604964"
       rx="7.4768682"
       ry="7.477273" />
    <rect
       style="fill:#1e2430;fill-opacity:1;stroke:none;stroke-width:2.33829;stroke-dasharray:none;stroke-opacity:1"
       id="rect1-6"
       width="42.089317"
       height="42.089317"
       x="10.941335"
       y="10.961291"
       rx="5.5927272"
       ry="5.5927272" />
    <path
       fill="#000000"
       d="M 27.990721,18.297979 16.389234,45.713918 h 4.11721 l 8.434881,-27.415939 z m 7.039973,0 8.431436,27.415939 h 4.119272 L 35.981296,18.297979 Z m -5.469412,2.204298 -0.213541,0.688843 h 5.276535 l -0.213542,-0.688843 z m -5.503852,2.479834 -0.303092,0.964378 h 0.495967 l 0.406416,-0.964378 z m 4.739234,0 -0.2962,0.964378 h 6.971088 l -0.296203,-0.964378 z m 10.518627,0 0.40642,0.964378 h 0.537296 l -0.303092,-0.964378 z m -17.338166,3.444213 -0.420195,1.239917 h 1.122813 l 0.523522,-1.239917 z m 5.758724,0 -0.378864,1.239917 h 9.258046 l -0.378864,-1.239917 z m 13.032902,0 0.523523,1.239917 h 1.136589 l -0.406417,-1.239917 z m -21.25906,4.270822 -0.48908,1.790993 h 1.616713 l 0.754285,-1.790993 z m 6.910468,0 -0.551074,1.790993 h 12.233846 l -0.551074,-1.790993 z m 16.160252,0 0.757726,1.790993 h 1.61189 l -0.489079,-1.790993 z m -25.264685,5.235207 -0.516632,2.066528 h 1.507187 l 0.874143,-2.066528 z m 7.499429,0 -0.640623,2.066528 h 15.622954 l -0.640623,-2.066528 z m 19.976438,0 0.874832,2.066528 h 1.508562 l -0.516631,-2.066528 z m -29.131156,6.61289 v 1.70833 l 0.722595,-1.708331 z m 7.115746,0 -0.978155,3.168675 h 20.375963 l -0.978156,-3.168675 z m 24.812111,0 0.723292,1.70833 v -1.708331 z"
       id="path1-6"
       style="stroke-width:0.0688843;fill:#f4e3cf;fill-opacity:1" />
    <rect
       style="opacity:0.5;fill:none;fill-opacity:1;stroke:#000000;stroke-width:2.72727;stroke-dasharray:none;stroke-opacity:1;filter:url(#filter1-3)"
       id="rect1-5-5"
       width="49.090908"
       height="49.090908"
       x="7.4405394"
       y="7.4604964"
       rx="7.4768682"
       ry="7.477273"
       transform="matrix(0.43046721,0,0,0.43046721,34.695898,34.707264)" />
    <rect
       style="fill:#c4c2c5;fill-opacity:1;stroke:#1e2430;stroke-width:1.174;stroke-dasharray:none;stroke-opacity:1"
       id="rect1-3"
       width="21.132023"
       height="21.132023"
       x="37.898808"
       y="37.918762"
       rx="3.2185469"
       ry="3.2187209" />
    <rect
       style="fill:#1e2430;fill-opacity:1;stroke:none;stroke-width:1.00656;stroke-dasharray:none;stroke-opacity:1"
       id="rect1-6-5"
       width="18.118069"
       height="18.118069"
       x="39.405781"
       y="39.425739"
       rx="2.4074855"
       ry="2.4074855" />
    <path
       id="path1"
       style="fill:#f4e3cf;fill-opacity:1;stroke:none;stroke-width:0.181638;stroke-dasharray:none;stroke-dashoffset:2.2;stroke-opacity:0.6"
       d="m 51.778779,43.941045 c -0.187252,-8.1e-5 -0.387675,0.07531 -0.638521,0.222291 -0.596919,0.349749 -1.377579,0.514692 -2.44963,0.514692 -1.071954,0 -1.878654,-0.168464 -2.472018,-0.516184 -0.475801,-0.278826 -0.759862,-0.282522 -1.159175,-0.01336 -1.025175,0.690863 -1.797804,2.90589 -2.024459,5.800365 -0.135901,1.735692 -0.0089,2.650757 0.440096,3.165728 0.216586,0.248286 0.748267,0.206204 1.227806,-0.09847 0.406495,-0.258249 0.890832,-0.828123 1.469484,-1.729077 0.522892,-0.81415 1.155362,-1.082294 2.554068,-1.084584 1.395926,-0.0021 1.944506,0.26195 2.588383,1.251671 1.08027,1.660535 2.078776,2.238636 2.664465,1.542581 0.324469,-0.385605 0.383859,-0.758167 0.368487,-2.309398 -0.028,-2.817903 -0.76459,-5.381404 -1.826034,-6.359807 C 52.239036,44.06691 52.019542,43.9412 51.778779,43.9411 Z m -6.06442,1.660439 h 0.647469 0.647466 v 0.554974 0.554973 h 0.554977 0.554971 v 0.693717 0.693714 h -0.554971 -0.554977 v 0.601222 0.601221 h -0.586297 c -0.322099,0 -0.612073,-0.02889 -0.645977,-0.06265 -0.0339,-0.03389 -0.06262,-0.303056 -0.06262,-0.599727 V 48.098857 H 45.159418 44.604442 V 47.405144 46.71143 h 0.554976 0.55497 v -0.55498 z m 5.278213,0 c 0.5841,0 0.834244,0.647172 0.413247,1.068174 -0.26774,0.267713 -0.512097,0.288754 -0.77577,0.06565 -0.457352,-0.386999 -0.218646,-1.133819 0.362523,-1.133819 z m -1.123373,1.18603 c 0.145866,1.01e-4 0.292703,0.05822 0.408766,0.186472 0.180933,0.199943 0.20047,0.65765 0.03732,0.871247 -0.319324,0.418037 -1.086073,0.14915 -1.086073,-0.380423 0,-0.401918 0.319131,-0.677526 0.640008,-0.677304 z m 2.292994,0.02255 c 0.168103,0.0031 0.331322,0.05875 0.426667,0.164095 0.180934,0.199943 0.200443,0.65765 0.0373,0.87125 -0.339646,0.444632 -1.086079,0.147034 -1.086079,-0.432643 0,-0.1757 0.07042,-0.36615 0.168576,-0.455016 0.112217,-0.101585 0.285435,-0.150764 0.45353,-0.147674 z m -1.12934,1.19647 c 0.517834,0 0.769797,0.549277 0.456506,0.996564 -0.107097,0.152907 -0.23771,0.20587 -0.507235,0.20587 -0.310298,0 -0.382306,-0.04038 -0.507228,-0.281972 -0.246338,-0.476336 0.02255,-0.920482 0.557957,-0.920482 z" />
  </g>
</svg>
