<?xml version="1.0" encoding="UTF-8" standalone="no"?>
<svg
   width="64"
   height="64"
   version="1.1"
   id="svg73"
   sodipodi:docname="accessories-calculator.svg"
   inkscape:version="1.2.2 (b0a8486541, 2022-12-01)"
   xmlns:inkscape="http://www.inkscape.org/namespaces/inkscape"
   xmlns:sodipodi="http://sodipodi.sourceforge.net/DTD/sodipodi-0.dtd"
   xmlns="http://www.w3.org/2000/svg"
   xmlns:svg="http://www.w3.org/2000/svg"
   xmlns:rdf="http://www.w3.org/1999/02/22-rdf-syntax-ns#"
   xmlns:cc="http://creativecommons.org/ns#"
   xmlns:dc="http://purl.org/dc/elements/1.1/">
  <metadata
     id="metadata77">
    <rdf:RDF>
      <cc:Work
         rdf:about="">
        <dc:format>image/svg+xml</dc:format>
        <dc:type
           rdf:resource="http://purl.org/dc/dcmitype/StillImage" />
      </cc:Work>
    </rdf:RDF>
  </metadata>
  <sodipodi:namedview
     pagecolor="#f5f7fa"
     bordercolor="#666666"
     borderopacity="1"
     objecttolerance="10"
     gridtolerance="10"
     guidetolerance="10"
     inkscape:pageopacity="0"
     inkscape:pageshadow="2"
     inkscape:window-width="1280"
     inkscape:window-height="603"
     id="namedview75"
     showgrid="false"
     inkscape:zoom="6.2890625"
     inkscape:cx="51.677019"
     inkscape:cy="37.843478"
     inkscape:window-x="35"
     inkscape:window-y="32"
     inkscape:window-maximized="0"
     inkscape:current-layer="g877"
     inkscape:document-rotation="0"
     inkscape:pagecheckerboard="0"
     inkscape:showpageshadow="2"
     inkscape:deskcolor="#d1d1d1" />
  <defs
     id="defs29">
    <filter
       style="color-interpolation-filters:sRGB;"
       inkscape:label="Blur"
       id="filter1"
       x="-0.091333304"
       y="-0.091333304"
       width="1.1826666"
       height="1.1826666">
      <feGaussianBlur
         stdDeviation="1.3 1.3"
         result="blur"
         id="feGaussianBlur1" />
    </filter>
    <filter
       style="color-interpolation-filters:sRGB"
       inkscape:label="Blur"
       id="filter1-3"
       x="-0.091333304"
       y="-0.091333304"
       width="1.1826666"
       height="1.1826666">
      <feGaussianBlur
         stdDeviation="1.3 1.3"
         result="blur"
         id="feGaussianBlur1-6" />
    </filter>
  </defs>
  <circle
     cx="32.516094"
     cy="31.877844"
     r="0"
     fill="url(#b)"
     stroke-width="1.5715"
     id="circle41"
     style="fill:url(#b)" />
  <g
     aria-label="GZ"
     transform="matrix(1.2212657,0,0,0.81882264,0.4960938,-0.1661539)"
     id="text93"
     style="font-weight:bold;font-size:11.5263px;line-height:1.25;font-family:sans-serif;-inkscape-font-specification:'sans-serif Bold';fill:#f2f2f2;stroke-width:0.288159" />
  <g
     id="g877"
     transform="matrix(1.1,0,0,1.1,-3.1845928,-3.2065454)">
    <rect
       style="fill:none;fill-opacity:1;stroke:#000000;stroke-width:2.72727;stroke-dasharray:none;stroke-opacity:1;filter:url(#filter1);opacity:0.5"
       id="rect1-5"
       width="49.090908"
       height="49.090908"
       x="7.4405394"
       y="7.4604964"
       rx="7.4768682"
       ry="7.477273" />
    <rect
       style="opacity:1;fill:#c4c2c5;stroke-width:2.72727273;stroke-opacity:1;fill-opacity:1;stroke:#1e2430;stroke-dasharray:none"
       id="rect1"
       width="49.090908"
       height="49.090908"
       x="7.4405394"
       y="7.4604964"
       rx="7.4768682"
       ry="7.477273" />
    <rect
       style="fill:#1e2430;fill-opacity:1;stroke:none;stroke-width:2.33829;stroke-dasharray:none;stroke-opacity:1"
       id="rect1-6"
       width="42.089317"
       height="42.089317"
       x="10.941335"
       y="10.961291"
       rx="5.5927272"
       ry="5.5927272" />
    <path
       style="fill:#f4e3cf;fill-opacity:1;stroke-width:0.0458062"
       d="m 29.435241,45.920041 c -0.03806,-0.04585 -0.223112,-0.53142 -0.41124,-1.079038 -0.669931,-1.950084 -1.583929,-3.846972 -2.400434,-4.981803 -0.289997,-0.403058 -0.925486,-1.068811 -1.020225,-1.068811 -0.181812,0 -0.125054,0.830402 0.104368,1.526876 0.287729,0.873464 1.005342,2.196839 1.750371,3.227914 0.485116,0.671354 0.604594,1.108403 0.303012,1.108403 -0.168586,0 -0.419139,-0.28682 -0.820047,-0.938791 -0.471687,-0.767067 -0.8808,-1.311868 -1.231367,-1.639784 -0.380631,-0.356037 -0.548462,-0.413172 -0.692212,-0.235647 -0.133746,0.165166 -0.11257,0.224076 0.296063,0.823238 0.181008,0.265421 0.307134,0.503771 0.28029,0.52971 -0.112416,0.108636 -0.418279,-0.04416 -0.812369,-0.40581 -0.578923,-0.531265 -0.758183,-0.579284 -1.486259,-0.398057 -0.709486,0.176577 -1.506418,0.228343 -2.008082,0.130376 -1.709499,-0.333806 -3.083575,-1.885712 -3.733774,-4.217003 -0.494287,-1.772288 -0.460074,-3.979025 0.0857,-5.527442 0.377799,-1.071867 0.655422,-1.479626 1.757961,-2.582031 0.907033,-0.906919 1.150968,-1.266556 1.212718,-1.787931 0.0372,-0.314042 0.148003,-0.441636 0.274067,-0.315574 0.107845,0.107851 0.07017,0.812988 -0.06124,1.1464 -0.06634,0.168309 -0.30136,0.604074 -0.522249,0.968337 -0.548446,0.904428 -0.662214,1.22037 -0.694836,1.929646 -0.03064,0.6659 0.08342,1.072017 0.429541,1.529417 0.108077,0.142838 0.233792,0.309985 0.279356,0.371448 0.04558,0.06145 0.120084,0.449595 0.165592,0.862521 0.144242,1.308732 0.497783,2.161497 1.186759,2.862517 0.524646,0.533822 0.927441,0.737408 1.53058,0.773604 0.631669,0.03792 0.965294,-0.133622 1.307422,-0.672216 0.158016,-0.248753 0.142528,-1.226041 -0.03049,-1.922833 -0.155534,-0.626428 -0.464044,-1.329883 -0.731133,-1.667111 -0.274926,-0.347128 -0.718609,-0.540857 -1.409025,-0.615244 -1.058588,-0.114057 -1.203994,-0.159657 -1.521531,-0.477195 -0.75863,-0.758626 -0.614984,-2.153181 0.269341,-2.61482 0.770805,-0.402377 2.523716,0.561177 3.440368,1.891134 0.531698,0.771428 0.844803,1.474759 1.529135,3.434884 0.523454,1.499315 0.726863,2.010987 1.098189,2.762431 0.282303,0.5713 0.74322,1.17691 0.895718,1.17691 0.119256,0 0.273313,-0.202429 0.315815,-0.414893 0.04871,-0.243557 0.192539,-0.379351 0.269642,-0.254597 0.08546,0.138292 0.167855,0.806774 0.238353,1.934035 0.08329,1.33173 0.234525,2.113312 0.653375,3.376451 0.382366,1.153109 0.412876,1.483657 0.139875,1.515384 -0.08686,0.0099 -0.189054,-0.01917 -0.227106,-0.06503 z m -7.344299,-4.379577 c 0.611351,-0.311896 0.766875,-1.020554 0.396279,-1.805687 -0.358912,-0.760381 -0.947957,-1.152517 -1.736588,-1.156092 -0.813724,-0.004 -1.170906,0.293903 -1.211323,1.009169 -0.03002,0.531627 0.145782,0.887043 0.681725,1.378141 0.723515,0.662977 1.330754,0.849523 1.869907,0.574469 z m 10.584571,4.294168 c -0.110668,-0.04466 -0.09991,-1.664909 0.01686,-2.567377 0.166962,-1.288464 0.441996,-2.286373 1.077112,-3.908087 0.5296,-1.352283 0.989022,-2.039365 2.340527,-3.500382 1.979742,-2.140137 2.420047,-2.928961 2.66226,-4.769614 0.225003,-1.710076 0.505932,-2.239374 1.435743,-2.705399 0.480402,-0.240775 0.94266,-0.337273 2.101893,-0.438745 1.368756,-0.119834 1.935679,-0.255723 2.401664,-0.575719 0.195657,-0.134328 0.379509,-0.244239 0.408658,-0.244239 0.231188,0 -0.04524,0.650714 -0.468722,1.103495 -0.414966,0.443627 -0.767747,0.605604 -1.46209,0.671296 -0.694955,0.06574 -0.833641,0.09785 -1.188503,0.275088 -0.914154,0.45658 -1.655056,1.46707 -2.191418,2.988813 -0.243063,0.689584 -0.384537,0.93059 -0.860433,1.465798 -0.978294,1.100214 -1.14891,1.765244 -0.530396,2.067402 0.602712,0.294443 1.890172,-0.302889 2.440783,-1.132422 0.498337,-0.75077 0.59627,-1.489278 0.290036,-2.187016 -0.217859,-0.496378 -0.223611,-0.596496 -0.05371,-0.933828 0.302902,-0.601436 0.928476,-1.148698 1.72674,-1.510648 0.663585,-0.300882 2.041155,-0.682879 2.347212,-0.650871 0.516039,0.05397 1.096446,0.740988 1.392057,1.647773 0.217458,0.666846 0.2704,1.798001 0.119212,2.544113 -0.2306,1.138079 -0.744904,2.156742 -1.485014,2.941292 -0.686312,0.727529 -1.489622,1.171818 -3.448977,1.907521 -0.479802,0.180194 -1.009784,0.397346 -1.177745,0.482635 -0.770023,0.391012 -1.609236,1.170587 -2.613576,2.427884 -0.335421,0.419883 -0.648926,0.786349 -0.696675,0.814347 -0.153941,0.0903 -0.262669,-0.005 -0.262669,-0.230507 0,-0.454426 0.465168,-1.208938 1.272208,-2.063523 0.612147,-0.648217 0.865411,-1.003565 0.865411,-1.214231 0,-0.347219 -0.256391,-0.275843 -1.068814,0.297612 -1.311006,0.925339 -2.280388,2.32419 -2.839424,4.097358 -0.138762,0.440055 -0.288472,0.806687 -0.337085,0.825337 -0.134619,0.05167 -0.273623,-0.127314 -0.244498,-0.314806 0.01401,-0.09101 0.04112,-0.347404 0.05991,-0.569617 0.08378,-0.989603 0.450306,-1.902232 1.100924,-2.741334 1.035759,-1.3358 1.302887,-1.954683 0.865346,-2.004779 -0.467769,-0.05353 -1.683281,1.171865 -2.291486,2.310154 -0.492717,0.922144 -0.833827,2.096728 -1.170639,4.030945 -0.179595,1.031394 -0.291951,1.412961 -0.412185,1.399906 -0.02443,-0.0026 -0.07873,-0.01886 -0.120753,-0.03566 z m 7.092793,-8.44624 c 0.401672,-0.152702 1.014907,-0.923341 1.014907,-1.275383 0,-0.197391 -0.04651,-0.224352 -0.335905,-0.194686 -0.40213,0.04117 -1.496345,0.945382 -1.496345,1.236498 0,0.07994 0.03309,0.178308 0.07322,0.218663 0.08773,0.08776 0.529292,0.09661 0.744057,0.01454 z m 3.635885,-0.586152 c 0.908712,-0.414666 1.654268,-1.723721 1.654268,-2.904606 0,-0.812064 -0.282274,-1.235709 -0.822629,-1.234591 -0.868887,0.002 -2.189485,1.513701 -2.477597,2.836529 -0.101463,0.465896 -0.05485,1.049478 0.09756,1.220316 0.302314,0.338976 0.914693,0.371541 1.548438,0.08238 z m -12.328729,6.80359 c -0.194193,-0.319327 -0.282501,-0.918849 -0.642584,-4.362501 -0.225704,-2.158545 -0.415552,-3.150879 -0.741937,-3.878169 -0.282335,-0.629126 -0.723108,-0.852967 -0.996132,-0.505871 -0.115136,0.146385 -0.126581,0.242833 -0.126581,1.066661 0,0.817936 -0.01094,0.911586 -0.112705,0.966056 -0.357402,0.191278 -0.719899,-0.595976 -1.109041,-2.408553 -0.201113,-0.936759 -0.367846,-1.325706 -0.829517,-1.935093 -0.227359,-0.300101 -0.330661,-0.492925 -0.330661,-0.617205 0,-0.128975 0.144365,-0.381841 0.503868,-0.882588 0.277127,-0.386011 0.56501,-0.742321 0.639739,-0.791802 0.07472,-0.04949 0.390791,-0.14412 0.702361,-0.210342 0.346823,-0.07367 0.785433,-0.225773 1.131108,-0.392179 1.338007,-0.644119 1.917831,-1.746413 1.726892,-3.282964 -0.227159,-1.828025 -1.336595,-3.121696 -2.747154,-3.203349 -0.713779,-0.04135 -0.883483,0.0083 -1.265895,0.369939 -1.385794,1.310628 -2.012096,4.029947 -1.138235,4.942065 0.314362,0.328123 0.595811,0.199344 1.545834,-0.707419 0.394646,-0.376668 0.523244,-0.469054 0.539003,-0.387225 0.05479,0.284505 -1.473962,2.345626 -2.173834,2.930839 -0.441228,0.368945 -0.694189,0.46053 -0.899848,0.325773 -0.213897,-0.140149 -0.785147,-0.961376 -1.065591,-1.5319 -1.309309,-2.663579 -0.569318,-6.349089 1.717082,-8.551892 0.62917,-0.606168 0.998017,-0.86913 1.731331,-1.234323 1.014681,-0.505316 1.99936,-0.746684 3.23697,-0.793451 1.797894,-0.06795 3.662931,0.473722 5.057466,1.468839 0.46832,0.334187 1.328733,1.107529 1.429585,1.284917 0.150563,0.264831 0.0884,0.383895 -0.631425,1.209525 -0.390462,0.447849 -1.052552,1.247139 -1.471323,1.776201 -0.418763,0.529062 -0.787246,0.961929 -0.818854,0.961929 -0.147785,0 -0.09987,-0.212705 0.158248,-0.702078 0.305523,-0.579277 0.312437,-0.697282 0.0546,-0.931679 -0.103651,-0.09423 -0.227659,-0.137417 -0.394481,-0.137417 -1.124519,0 -2.075836,2.032193 -1.760219,3.760158 0.150922,0.826184 0.726423,1.603876 1.476791,1.995571 0.355875,0.185764 0.421052,0.198814 0.992909,0.198932 0.568139,1.39e-4 0.641167,-0.01419 1.018223,-0.199826 0.913653,-0.449783 1.512136,-1.481394 1.513864,-2.609478 6.84e-4,-0.503649 -0.08248,-0.760661 -0.393606,-1.215115 -0.384808,-0.562052 -0.460201,-0.731111 -0.460201,-1.031864 0,-0.45382 0.298723,-0.949083 1.000612,-1.658941 0.798613,-0.807681 1.124246,-0.977316 2.109695,-1.099024 0.481571,-0.05947 0.745232,-0.121717 0.854378,-0.201683 0.253051,-0.185383 0.524042,-0.636254 0.608016,-1.011498 0.05106,-0.228318 0.108358,-0.347415 0.166928,-0.347415 0.144137,0 0.164578,0.154992 0.08875,0.673581 -0.0817,0.558894 -0.178493,0.822676 -0.396916,1.082297 -0.169464,0.201464 -0.277574,0.252294 -0.949043,0.446446 -0.628017,0.181596 -0.928329,0.401476 -1.141668,0.835918 -0.22225,0.452583 -0.221509,0.952734 0.0031,1.847752 0.431932,1.724824 0.02629,2.988261 -1.576194,4.909487 -1.525173,1.828475 -1.692315,2.122851 -2.055767,3.620591 -0.476098,1.961971 -0.841712,3.270228 -0.94617,3.385657 -0.130997,0.144817 -0.248051,0.148156 -0.321509,0.0093 -0.0311,-0.0587 -0.06757,-0.587796 -0.08108,-1.175645 -0.02579,-1.119129 -0.07503,-1.343645 -0.294962,-1.343645 -0.295457,0 -0.462837,0.716255 -0.549482,2.351384 -0.143685,2.711966 -0.216035,3.31067 -0.407556,3.373418 -0.278715,0.09132 -0.370302,-1.287156 -0.265047,-3.988997 0.153257,-3.933781 -0.01568,-6.089026 -0.51404,-6.557187 -0.116219,-0.109174 -0.168839,-0.123353 -0.265841,-0.07143 -0.265511,0.142091 -0.556293,0.850166 -0.861399,2.097535 -0.22244,0.9094 -0.232738,1.103113 -0.06745,1.268395 0.170741,0.170741 0.231144,0.155839 0.495609,-0.122146 0.127824,-0.134377 0.260012,-0.2443 0.293769,-0.2443 0.211993,0 0.259573,0.641669 0.131334,1.771173 -0.04004,0.352709 -0.08859,1.482836 -0.10794,2.511401 -0.03682,1.95913 0.01042,2.978163 0.22876,4.937985 0.120508,1.081551 0.146317,1.694979 0.0815,1.936668 -0.05796,0.216067 -0.197969,0.220428 -0.325895,0.0099 z M 35.99319,33.564116 c -0.11839,-0.118408 -0.120171,-0.231708 -0.0096,-0.599437 0.103413,-0.343516 0.345224,-0.676379 0.607706,-0.836436 0.216759,-0.132182 0.564721,-0.155672 0.605018,-0.04083 0.113244,0.32275 -0.703941,1.57268 -1.028223,1.57268 -0.04344,0 -0.122224,-0.04321 -0.174992,-0.09596 z M 20.268648,26.674979 c -0.04056,-0.04891 -0.07925,-0.166836 -0.086,-0.262131 -0.0096,-0.136208 0.01626,-0.177303 0.121055,-0.192279 0.154389,-0.02192 0.281786,0.166136 0.252272,0.372621 -0.02285,0.159886 -0.184354,0.205877 -0.287324,0.08177 z m 8.055278,-0.156321 c 0,-0.119225 0.06863,-0.251639 0.2057,-0.396989 0.227953,-0.241693 0.43724,-0.283165 0.495924,-0.09827 0.07675,0.241828 -0.262523,0.674132 -0.52905,0.674132 -0.150106,0 -0.172582,-0.02338 -0.172574,-0.178873 z m 17.386,-0.47259 c -0.154806,-0.154825 0.109718,-0.727374 0.36579,-0.791643 0.231251,-0.05804 0.299407,0.05026 0.213067,0.338522 -0.09763,0.326024 -0.438833,0.593097 -0.578808,0.453121 z M 40.84842,18.765527 c -0.08291,-0.154935 -0.08393,-0.46939 -0.0022,-0.622485 0.03581,-0.06692 0.127376,-0.118134 0.211273,-0.118134 0.207376,0 0.330111,0.387534 0.205428,0.648423 -0.103008,0.215623 -0.32262,0.264431 -0.414774,0.09219 z"
       id="path1-3" />
    <rect
       style="opacity:0.5;fill:none;fill-opacity:1;stroke:#000000;stroke-width:2.72727;stroke-dasharray:none;stroke-opacity:1;filter:url(#filter1-3)"
       id="rect1-5-5"
       width="49.090908"
       height="49.090908"
       x="7.4405394"
       y="7.4604964"
       rx="7.4768682"
       ry="7.477273"
       transform="matrix(0.43046721,0,0,0.43046721,34.695898,34.707264)" />
    <rect
       style="fill:#c4c2c5;fill-opacity:1;stroke:#1e2430;stroke-width:1.174;stroke-dasharray:none;stroke-opacity:1"
       id="rect1-3"
       width="21.132023"
       height="21.132023"
       x="37.898808"
       y="37.918762"
       rx="3.2185469"
       ry="3.2187209" />
    <rect
       style="fill:#1e2430;fill-opacity:1;stroke:none;stroke-width:1.00656;stroke-dasharray:none;stroke-opacity:1"
       id="rect1-6-5"
       width="18.118069"
       height="18.118069"
       x="39.405781"
       y="39.425739"
       rx="2.4074855"
       ry="2.4074855" />
    <path
       id="path1"
       style="fill:#f4e3cf;fill-opacity:1;stroke:none;stroke-width:0.181638;stroke-dasharray:none;stroke-dashoffset:2.2;stroke-opacity:0.6"
       d="m 51.778779,43.941045 c -0.187252,-8.1e-5 -0.387675,0.07531 -0.638521,0.222291 -0.596919,0.349749 -1.377579,0.514692 -2.44963,0.514692 -1.071954,0 -1.878654,-0.168464 -2.472018,-0.516184 -0.475801,-0.278826 -0.759862,-0.282522 -1.159175,-0.01336 -1.025175,0.690863 -1.797804,2.90589 -2.024459,5.800365 -0.135901,1.735692 -0.0089,2.650757 0.440096,3.165728 0.216586,0.248286 0.748267,0.206204 1.227806,-0.09847 0.406495,-0.258249 0.890832,-0.828123 1.469484,-1.729077 0.522892,-0.81415 1.155362,-1.082294 2.554068,-1.084584 1.395926,-0.0021 1.944506,0.26195 2.588383,1.251671 1.08027,1.660535 2.078776,2.238636 2.664465,1.542581 0.324469,-0.385605 0.383859,-0.758167 0.368487,-2.309398 -0.028,-2.817903 -0.76459,-5.381404 -1.826034,-6.359807 C 52.239036,44.06691 52.019542,43.9412 51.778779,43.9411 Z m -6.06442,1.660439 h 0.647469 0.647466 v 0.554974 0.554973 h 0.554977 0.554971 v 0.693717 0.693714 h -0.554971 -0.554977 v 0.601222 0.601221 h -0.586297 c -0.322099,0 -0.612073,-0.02889 -0.645977,-0.06265 -0.0339,-0.03389 -0.06262,-0.303056 -0.06262,-0.599727 V 48.098857 H 45.159418 44.604442 V 47.405144 46.71143 h 0.554976 0.55497 v -0.55498 z m 5.278213,0 c 0.5841,0 0.834244,0.647172 0.413247,1.068174 -0.26774,0.267713 -0.512097,0.288754 -0.77577,0.06565 -0.457352,-0.386999 -0.218646,-1.133819 0.362523,-1.133819 z m -1.123373,1.18603 c 0.145866,1.01e-4 0.292703,0.05822 0.408766,0.186472 0.180933,0.199943 0.20047,0.65765 0.03732,0.871247 -0.319324,0.418037 -1.086073,0.14915 -1.086073,-0.380423 0,-0.401918 0.319131,-0.677526 0.640008,-0.677304 z m 2.292994,0.02255 c 0.168103,0.0031 0.331322,0.05875 0.426667,0.164095 0.180934,0.199943 0.200443,0.65765 0.0373,0.87125 -0.339646,0.444632 -1.086079,0.147034 -1.086079,-0.432643 0,-0.1757 0.07042,-0.36615 0.168576,-0.455016 0.112217,-0.101585 0.285435,-0.150764 0.45353,-0.147674 z m -1.12934,1.19647 c 0.517834,0 0.769797,0.549277 0.456506,0.996564 -0.107097,0.152907 -0.23771,0.20587 -0.507235,0.20587 -0.310298,0 -0.382306,-0.04038 -0.507228,-0.281972 -0.246338,-0.476336 0.02255,-0.920482 0.557957,-0.920482 z" />
  </g>
</svg>
