<?xml version="1.0" encoding="UTF-8" standalone="no"?>
<svg
   width="64"
   height="64"
   version="1.1"
   id="svg73"
   sodipodi:docname="accessories-calculator.svg"
   inkscape:version="1.2.2 (b0a8486541, 2022-12-01)"
   xmlns:inkscape="http://www.inkscape.org/namespaces/inkscape"
   xmlns:sodipodi="http://sodipodi.sourceforge.net/DTD/sodipodi-0.dtd"
   xmlns="http://www.w3.org/2000/svg"
   xmlns:svg="http://www.w3.org/2000/svg"
   xmlns:rdf="http://www.w3.org/1999/02/22-rdf-syntax-ns#"
   xmlns:cc="http://creativecommons.org/ns#"
   xmlns:dc="http://purl.org/dc/elements/1.1/">
  <metadata
     id="metadata77">
    <rdf:RDF>
      <cc:Work
         rdf:about="">
        <dc:format>image/svg+xml</dc:format>
        <dc:type
           rdf:resource="http://purl.org/dc/dcmitype/StillImage" />
      </cc:Work>
    </rdf:RDF>
  </metadata>
  <sodipodi:namedview
     pagecolor="#f5f7fa"
     bordercolor="#666666"
     borderopacity="1"
     objecttolerance="10"
     gridtolerance="10"
     guidetolerance="10"
     inkscape:pageopacity="0"
     inkscape:pageshadow="2"
     inkscape:window-width="1280"
     inkscape:window-height="603"
     id="namedview75"
     showgrid="false"
     inkscape:zoom="6.2890625"
     inkscape:cx="51.677019"
     inkscape:cy="37.843478"
     inkscape:window-x="35"
     inkscape:window-y="32"
     inkscape:window-maximized="0"
     inkscape:current-layer="g877"
     inkscape:document-rotation="0"
     inkscape:pagecheckerboard="0"
     inkscape:showpageshadow="2"
     inkscape:deskcolor="#d1d1d1" />
  <defs
     id="defs29">
    <filter
       style="color-interpolation-filters:sRGB;"
       inkscape:label="Blur"
       id="filter1"
       x="-0.091333304"
       y="-0.091333304"
       width="1.1826666"
       height="1.1826666">
      <feGaussianBlur
         stdDeviation="1.3 1.3"
         result="blur"
         id="feGaussianBlur1" />
    </filter>
    <filter
       style="color-interpolation-filters:sRGB"
       inkscape:label="Blur"
       id="filter1-3"
       x="-0.091333304"
       y="-0.091333304"
       width="1.1826666"
       height="1.1826666">
      <feGaussianBlur
         stdDeviation="1.3 1.3"
         result="blur"
         id="feGaussianBlur1-6" />
    </filter>
  </defs>
  <circle
     cx="32.516094"
     cy="31.877844"
     r="0"
     fill="url(#b)"
     stroke-width="1.5715"
     id="circle41"
     style="fill:url(#b)" />
  <g
     aria-label="GZ"
     transform="matrix(1.2212657,0,0,0.81882264,0.4960938,-0.1661539)"
     id="text93"
     style="font-weight:bold;font-size:11.5263px;line-height:1.25;font-family:sans-serif;-inkscape-font-specification:'sans-serif Bold';fill:#f2f2f2;stroke-width:0.288159" />
  <g
     id="g877"
     transform="matrix(1.1,0,0,1.1,-3.1845928,-3.2065454)">
    <rect
       style="fill:none;fill-opacity:1;stroke:#000000;stroke-width:2.72727;stroke-dasharray:none;stroke-opacity:1;filter:url(#filter1);opacity:0.5"
       id="rect1-5"
       width="49.090908"
       height="49.090908"
       x="7.4405394"
       y="7.4604964"
       rx="7.4768682"
       ry="7.477273" />
    <rect
       style="opacity:1;fill:#c4c2c5;stroke-width:2.72727273;stroke-opacity:1;fill-opacity:1;stroke:#1e2430;stroke-dasharray:none"
       id="rect1"
       width="49.090908"
       height="49.090908"
       x="7.4405394"
       y="7.4604964"
       rx="7.4768682"
       ry="7.477273" />
    <rect
       style="fill:#1e2430;fill-opacity:1;stroke:none;stroke-width:2.33829;stroke-dasharray:none;stroke-opacity:1"
       id="rect1-6"
       width="42.089317"
       height="42.089317"
       x="10.941335"
       y="10.961291"
       rx="5.5927272"
       ry="5.5927272" />
    <path
       style="fill:#f4e3cf;fill-opacity:1;stroke:none;stroke-width:0.434235;stroke-dasharray:none;stroke-opacity:0.6"
       d="m 34.99414,45.929625 c 0,-0.04005 -0.03275,-0.07283 -0.07277,-0.07283 -0.04002,0 -0.07277,-0.0303 -0.07277,-0.06754 0,-0.03717 -0.0382,-0.08248 -0.0849,-0.100441 -0.08087,-0.03118 -0.08087,-0.03575 0,-0.09543 0.04668,-0.03433 0.0849,-0.109193 0.0849,-0.166371 0,-0.05993 0.03077,-0.10375 0.07277,-0.10375 0.04851,0 0.07277,-0.04849 0.07277,-0.145467 0,-0.09704 0.02427,-0.145466 0.07278,-0.145466 0.04002,0 0.07277,-0.03284 0.07277,-0.0727 0,-0.04005 0.03275,-0.07267 0.07277,-0.07267 0.04852,0 0.07278,-0.04846 0.07278,-0.145466 0,-0.09707 0.02425,-0.145498 0.07277,-0.145498 0.04002,0 0.07277,-0.03284 0.07277,-0.07283 0,-0.04005 0.02031,-0.07283 0.04524,-0.07283 0.02493,0 0.05933,-0.04434 0.07653,-0.09855 0.01714,-0.05421 0.08468,-0.156228 0.149978,-0.226703 0.06526,-0.07044 0.13144,-0.178927 0.147029,-0.240991 0.01562,-0.0621 0.04526,-0.112966 0.06592,-0.112966 0.02065,0 0.04958,-0.04586 0.06424,-0.101894 0.01466,-0.0561 0.04991,-0.08754 0.07842,-0.06988 0.03235,0.0201 0.05179,-0.02412 0.05179,-0.116336 0,-0.09954 0.02388,-0.148342 0.07277,-0.148342 0.04529,0 0.07277,-0.04583 0.07277,-0.121284 0,-0.07555 0.0275,-0.121284 0.07278,-0.121284 0.04851,0 0.07271,-0.04852 0.07271,-0.145498 0,-0.08726 0.02328,-0.140581 0.05794,-0.133376 0.03187,0.0068 0.07294,-0.05338 0.09128,-0.133498 0.01837,-0.08 0.03626,-0.123696 0.03983,-0.09704 0.01314,0.09781 0.100571,-0.101184 0.101279,-0.230415 5.19e-4,-0.08594 0.02684,-0.133468 0.07352,-0.133468 0.05233,0 0.07277,-0.05347 0.07277,-0.189936 0,-0.104492 0.02289,-0.197634 0.05084,-0.207004 0.02814,-0.0093 0.0638,-0.142189 0.07957,-0.295046 0.01577,-0.15292 0.04481,-0.278162 0.06448,-0.278162 0.0201,0 0.04604,-0.124438 0.0587,-0.276461 0.01237,-0.152084 0.048,-0.284841 0.07877,-0.295108 0.03062,-0.01021 0.05582,-0.104801 0.05582,-0.210128 0,-0.125459 0.02536,-0.201161 0.0727,-0.219499 0.04744,-0.01824 0.0727,-0.09361 0.0727,-0.216809 0,-0.13554 0.0201,-0.188791 0.07283,-0.188791 0.05251,0 0.07279,-0.0539 0.07279,-0.194048 0,-0.140179 0.01979,-0.194048 0.0727,-0.194048 0.0539,0 0.07283,-0.05656 0.07283,-0.218324 0,-0.161733 0.01856,-0.218292 0.07277,-0.218292 0.05375,0 0.07283,-0.05612 0.07283,-0.214242 0,-0.125984 0.02474,-0.224353 0.06064,-0.238702 0.04165,-0.01669 0.03782,-0.02567 -0.01237,-0.02907 -0.06466,-0.004 -0.06466,-0.0099 0,-0.05078 0.09209,-0.05842 0.100193,-0.793232 0.0099,-0.883657 -0.08028,-0.08031 -0.07826,-0.703354 0.0023,-0.730181 0.0463,-0.01577 0.06432,-0.371673 0.07651,-1.504845 0.0133,-1.245041 0.004,-1.510606 -0.05746,-1.645377 -0.04066,-0.08913 -0.08043,-0.342828 -0.08934,-0.5693 -0.01051,-0.268724 -0.03665,-0.415383 -0.07598,-0.428516 -0.04503,-0.01503 -0.05993,-0.27771 -0.05993,-1.05892 0,-0.891171 -0.01021,-1.038951 -0.07283,-1.038951 -0.05931,0 -0.0727,-0.08084 -0.0727,-0.436603 0,-0.355751 -0.0133,-0.436603 -0.07283,-0.436603 -0.05978,0 -0.0727,-0.0858 -0.0727,-0.48107 0,-0.341746 -0.01732,-0.486923 -0.06064,-0.50127 -0.04103,-0.01367 -0.06624,-0.167676 -0.07783,-0.477038 -0.0096,-0.251264 -0.03847,-0.470058 -0.06429,-0.486224 -0.02535,-0.01624 -0.05922,-0.119856 -0.07397,-0.230433 -0.01454,-0.11057 -0.04311,-0.201038 -0.06287,-0.201038 -0.0201,0 -0.04991,-0.08733 -0.06692,-0.194048 -0.01701,-0.106725 -0.05257,-0.194045 -0.07901,-0.194045 -0.02629,0 -0.04796,-0.05278 -0.04796,-0.117313 0,-0.158845 -0.0492,-0.276084 -0.102111,-0.243385 -0.02384,0.01478 -0.04373,-0.04541 -0.04408,-0.133678 -8.99e-4,-0.216598 -0.04938,-0.383626 -0.101885,-0.351164 -0.0236,0.01466 -0.04297,-0.05108 -0.04297,-0.146077 0,-0.121125 -0.02192,-0.172654 -0.07276,-0.172654 -0.05252,0 -0.07271,-0.0539 -0.07271,-0.194043 0,-0.14014 -0.02029,-0.194044 -0.07278,-0.194044 -0.04851,0 -0.07278,-0.04851 -0.07278,-0.145535 0,-0.09704 -0.02437,-0.145535 -0.07278,-0.145535 -0.05276,0 -0.07278,-0.0543 -0.07278,-0.197514 0,-0.110882 -0.0319,-0.229429 -0.07277,-0.270274 -0.04007,-0.04012 -0.07281,-0.134989 -0.07281,-0.21091 0,-0.07591 -0.02319,-0.145776 -0.05163,-0.155242 -0.02845,-0.0095 -0.06403,-0.109524 -0.07916,-0.222343 -0.01512,-0.112821 -0.04411,-0.205125 -0.06437,-0.205125 -0.02029,0 -0.05055,-0.05458 -0.06729,-0.121284 -0.01679,-0.0667 -0.05183,-0.121284 -0.07802,-0.121284 -0.02619,0 -0.0476,-0.05527 -0.0476,-0.122803 0,-0.06754 -0.03275,-0.13537 -0.07277,-0.150727 -0.03993,-0.01512 -0.07269,-0.08066 -0.07269,-0.145349 0,-0.06468 -0.03275,-0.130177 -0.07278,-0.145535 -0.04003,-0.01531 -0.07277,-0.08085 -0.07277,-0.145531 0,-0.0647 -0.03275,-0.130178 -0.07277,-0.145532 -0.04002,-0.01537 -0.07278,-0.08016 -0.07278,-0.144009 0,-0.07085 -0.02832,-0.116092 -0.07277,-0.116092 -0.04002,0 -0.07277,-0.03431 -0.07277,-0.07622 0,-0.04193 -0.03275,-0.10898 -0.07278,-0.149002 -0.04002,-0.04003 -0.07277,-0.114867 -0.07277,-0.166318 0,-0.05145 -0.02029,-0.09356 -0.04524,-0.09356 -0.02492,0 -0.06018,-0.04706 -0.07844,-0.104594 -0.01831,-0.05755 -0.08179,-0.150312 -0.141233,-0.206177 -0.05942,-0.05586 -0.122787,-0.161602 -0.140785,-0.234985 -0.01806,-0.07337 -0.05414,-0.133409 -0.08032,-0.133409 -0.02619,0 -0.0476,-0.03275 -0.0476,-0.07278 0,-0.04002 -0.03275,-0.07278 -0.07277,-0.07278 -0.04002,0 -0.07278,-0.03275 -0.07278,-0.07277 0,-0.04002 -0.03275,-0.07276 -0.07278,-0.07276 -0.04002,0 -0.07277,-0.0219 -0.07277,-0.04852 0,-0.02669 -0.03343,-0.04851 -0.0743,-0.04851 -0.04086,0 -0.08686,-0.03275 -0.102207,-0.07276 -0.01537,-0.04002 -0.0786,-0.07277 -0.140546,-0.07277 -0.06193,0 -0.142133,-0.0295 -0.178197,-0.06556 -0.03612,-0.03596 -0.184124,-0.07689 -0.328935,-0.0908 -0.144811,-0.01389 -0.271492,-0.04989 -0.281514,-0.07997 -0.01154,-0.03471 -0.165469,-0.05467 -0.421333,-0.05467 -0.313576,0 -0.40932,0.01624 -0.431038,0.07278 -0.01846,0.04805 -0.09441,0.07278 -0.223501,0.07278 -0.107569,0 -0.195566,0.02162 -0.195566,0.04795 0,0.02634 -0.08598,0.06168 -0.191048,0.0785 -0.105075,0.01686 -0.202634,0.06074 -0.216774,0.09759 -0.01413,0.03688 -0.04992,0.06704 -0.07951,0.06704 -0.06902,0 -0.337372,0.267124 -0.337372,0.335849 0,0.02873 -0.03275,0.05224 -0.07277,0.05224 -0.04002,0 -0.07278,0.04209 -0.07278,0.09355 0,0.05145 -0.03168,0.12523 -0.07038,0.163932 -0.0387,0.0387 -0.08468,0.127432 -0.102206,0.197181 -0.01747,0.06976 -0.05134,0.114753 -0.07519,0.100008 -0.02384,-0.01471 -0.04333,0.01815 -0.04333,0.07311 0,0.05645 -0.03168,0.09989 -0.07277,0.09989 -0.04002,0 -0.07278,0.03275 -0.07278,0.07278 0,0.04002 -0.03275,0.07277 -0.07278,0.07277 -0.04002,0 -0.07277,0.03275 -0.07277,0.07278 0,0.04002 -0.02143,0.07278 -0.0476,0.07278 -0.02616,0 -0.06128,0.05459 -0.07804,0.121284 -0.01679,0.0667 -0.06083,0.121284 -0.09796,0.121284 -0.03712,0 -0.06751,0.03275 -0.06751,0.07277 0,0.04002 -0.03275,0.07278 -0.07277,0.07278 -0.04002,0 -0.07278,0.02483 -0.07278,0.05508 0,0.03037 -0.05203,0.103289 -0.115606,0.162215 -0.06357,0.05892 -0.130546,0.154206 -0.1488,0.21174 -0.01834,0.05755 -0.05356,0.104603 -0.07844,0.104603 -0.02492,0 -0.04523,0.03344 -0.04523,0.07428 0,0.04086 -0.03275,0.08687 -0.07278,0.102207 -0.04148,0.01589 -0.07277,0.08826 -0.07277,0.168261 0,0.09239 -0.02489,0.140343 -0.07278,0.140343 -0.05255,0 -0.07278,0.0539 -0.07278,0.194044 0,0.140142 -0.02026,0.194046 -0.07278,0.194046 -0.04851,0 -0.07277,0.04852 -0.07277,0.145534 0,0.09703 -0.02427,0.145532 -0.07278,0.145532 -0.04002,0 -0.07021,0.01636 -0.06703,0.03638 0.01859,0.117563 -0.01512,0.206174 -0.07852,0.206174 -0.04002,0 -0.07277,0.03275 -0.07277,0.07278 0,0.04002 -0.0219,0.07278 -0.04852,0.07278 -0.02672,0 -0.04852,0.03275 -0.04852,0.07278 0,0.04002 -0.03104,0.07277 -0.06892,0.07277 -0.03791,0 -0.08331,0.06549 -0.100874,0.145532 -0.0176,0.08004 -0.05207,0.145534 -0.07661,0.145534 -0.02455,0 -0.04466,0.05527 -0.04466,0.122806 0,0.06754 -0.03275,0.13537 -0.07277,0.150729 -0.04507,0.01725 -0.07278,0.09113 -0.07278,0.194048 0,0.102906 -0.02761,0.17675 -0.07278,0.194037 -0.04424,0.01691 -0.07278,0.09037 -0.07278,0.187334 0,0.09693 -0.02848,0.170351 -0.07277,0.187335 -0.04568,0.01747 -0.07278,0.09171 -0.07278,0.199234 0,0.119936 -0.0218,0.171309 -0.07278,0.171309 -0.05224,0 -0.07278,0.05333 -0.07278,0.18885 0,0.123118 -0.02539,0.198572 -0.07277,0.216775 -0.05235,0.02007 -0.07278,0.10203 -0.07278,0.292219 0,0.156216 -0.02291,0.271912 -0.05583,0.282912 -0.03073,0.01033 -0.06616,0.143042 -0.07878,0.29511 -0.01265,0.152076 -0.04048,0.276496 -0.06193,0.276496 -0.02143,0 -0.05402,0.120065 -0.07236,0.266808 -0.01834,0.146751 -0.05266,0.26682 -0.07626,0.26682 -0.02356,0 -0.04291,0.06393 -0.04291,0.142067 0,0.07814 -0.02963,0.171728 -0.0659,0.207977 -0.03626,0.03626 -0.07641,0.192625 -0.08925,0.347509 -0.01286,0.154876 -0.05117,0.298785 -0.08511,0.31978 -0.0492,0.0304 -0.04834,0.04351 0.0043,0.06448 0.04694,0.01868 0.04856,0.0274 0.0055,0.03015 -0.08873,0.0058 -0.08873,4.886062 0,4.915533 0.04406,0.01469 0.06496,0.224305 0.07643,0.767503 0.0085,0.41105 0.03585,0.759768 0.06039,0.774926 0.02453,0.01534 0.05895,0.16822 0.07651,0.340175 0.01747,0.171919 0.0482,0.323553 0.06816,0.336866 0.01998,0.0133 0.05004,0.111605 0.06688,0.218293 0.01686,0.106718 0.05179,0.201315 0.07764,0.210159 0.02586,0.0093 0.04701,0.07567 0.04701,0.148404 0,0.07268 0.03202,0.174628 0.07124,0.226395 0.03918,0.05179 0.07192,0.143334 0.07277,0.203326 8.79e-4,0.06398 0.03168,0.109162 0.07431,0.109162 0.04851,0 0.07278,0.04852 0.07278,0.145528 0,0.09704 0.02427,0.145497 0.07277,0.145497 0.04853,0 0.07278,0.04852 0.07278,0.145529 0,0.09704 0.02425,0.145497 0.07278,0.145497 0.04002,0 0.07278,0.03281 0.07278,0.0727 0,0.04005 0.02007,0.07283 0.04466,0.07283 0.02455,0 0.05903,0.06553 0.07661,0.145529 0.01753,0.08 0.05834,0.145498 0.09055,0.145498 0.03222,0 0.06216,0.04766 0.06656,0.105915 0.0043,0.05836 0.04178,0.124809 0.08309,0.14797 0.04131,0.02319 0.07509,0.09549 0.07509,0.16096 0,0.06544 0.0219,0.118934 0.04853,0.118934 0.02672,0 0.04853,0.03281 0.04853,0.07267 0,0.04005 0.03275,0.0727 0.07278,0.0727 0.0455,0 0.07277,0.04604 0.07277,0.122768 0,0.06754 0.03275,0.135324 0.07278,0.150662 0.04002,0.01577 0.07278,0.08084 0.07278,0.145498 0,0.06473 0.03275,0.130221 0.07278,0.145497 0.04002,0.01546 0.07277,0.08019 0.07277,0.143983 0,0.07091 0.0283,0.116119 0.07278,0.116119 0.04851,0 0.07278,0.04849 0.07278,0.145498 0,0.09695 0.02425,0.145467 0.07278,0.145467 0.04851,0 0.07277,0.04849 0.07277,0.145466 0,0.09707 0.02425,0.145467 0.07278,0.145467 0.04852,0 0.07277,0.04852 0.07277,0.145497 0,0.09707 0.02427,0.145466 0.07278,0.145466 0.04526,0 0.07277,0.0458 0.07277,0.121285 0,0.0667 0.01942,0.121253 0.04327,0.121253 0.02384,0 0.05803,0.05891 0.07612,0.130932 0.01806,0.07202 0.08594,0.180164 0.150795,0.240249 0.06485,0.06012 0.117933,0.132076 0.117933,0.160093 0,0.02783 0.03275,0.05084 0.07278,0.05084 0.04442,0 0.07278,0.04521 0.07278,0.11612 0,0.06385 0.03275,0.128582 0.07278,0.143982 0.04002,0.01546 0.07277,0.06129 0.07277,0.102173 0,0.04082 0.03275,0.07421 0.07278,0.07421 0.04527,0 0.07277,0.0458 0.07277,0.121252 0,0.07548 0.02752,0.121284 0.07278,0.121284 0.04851,0 0.07277,0.04855 0.07277,0.145498 0,0.09707 -0.02427,0.145497 -0.07277,0.145497 -0.04002,0 -0.07278,0.03284 -0.07278,0.0727 0,0.04005 -0.03275,0.07279 -0.07277,0.07279 -0.04002,0 -0.07278,0.03281 -0.07278,0.07267 0,0.05251 -0.0539,0.0727 -0.194049,0.0727 -0.140141,0 -0.194035,-0.02041 -0.194035,-0.0727 0,-0.04796 -0.04793,-0.07267 -0.140342,-0.07267 -0.07999,0 -0.152348,-0.03118 -0.168264,-0.07279 -0.01537,-0.04005 -0.06137,-0.0727 -0.102207,-0.0727 -0.04087,0 -0.07429,-0.02102 -0.07429,-0.04757 0,-0.02629 -0.05458,-0.06129 -0.121284,-0.07805 -0.0667,-0.01701 -0.121284,-0.06079 -0.121284,-0.09788 0,-0.03714 -0.03275,-0.06754 -0.07278,-0.06754 -0.04002,0 -0.07277,-0.03281 -0.07277,-0.07283 0,-0.04005 -0.02143,-0.07268 -0.04759,-0.07268 -0.02619,0 -0.06128,-0.05455 -0.07802,-0.121284 -0.01669,-0.06667 -0.06081,-0.121284 -0.09794,-0.121284 -0.03712,0 -0.06753,-0.02505 -0.06753,-0.05504 0,-0.0303 -0.05459,-0.105729 -0.12128,-0.167484 -0.06671,-0.06182 -0.121284,-0.135293 -0.121284,-0.163248 0,-0.02783 -0.03275,-0.05084 -0.07278,-0.05084 -0.04002,0 -0.07278,-0.03284 -0.07278,-0.0727 0,-0.04005 -0.03275,-0.07283 -0.07277,-0.07283 -0.04002,0 -0.07278,-0.03281 -0.07278,-0.07267 0,-0.04005 -0.03275,-0.07283 -0.07278,-0.07283 -0.0411,0 -0.07277,-0.04342 -0.07277,-0.09985 0,-0.05492 -0.02121,-0.08677 -0.04709,-0.07085 -0.02588,0.01577 -0.06102,-0.02659 -0.07804,-0.0941 -0.01704,-0.06775 -0.0613,-0.123295 -0.09845,-0.123295 -0.03713,0 -0.06751,-0.03284 -0.06751,-0.07283 0,-0.04005 -0.03275,-0.07268 -0.07277,-0.07268 -0.04002,0 -0.07278,-0.03284 -0.07278,-0.0727 0,-0.04005 -0.03275,-0.0727 -0.07278,-0.0727 -0.04002,0 -0.07278,-0.03284 -0.07278,-0.07283 0,-0.04005 -0.03275,-0.07267 -0.07277,-0.07267 -0.04002,0 -0.07278,-0.03284 -0.07278,-0.07279 0,-0.04005 -0.03275,-0.07268 -0.07277,-0.07268 -0.04002,0 -0.0673,-0.01856 -0.06065,-0.04141 0.0066,-0.02227 -0.08065,-0.131952 -0.194045,-0.242475 -0.113404,-0.110707 -0.206189,-0.223024 -0.206189,-0.24968 0,-0.0266 -0.03275,-0.04858 -0.07278,-0.04858 -0.04002,0 -0.07278,-0.03284 -0.07278,-0.07268 0,-0.04005 -0.03275,-0.0727 -0.07278,-0.0727 -0.04002,0 -0.07277,-0.03284 -0.07277,-0.07267 0,-0.04005 -0.02542,-0.07277 -0.0566,-0.07277 -0.03114,0 -0.04261,-0.01423 -0.02554,-0.03092 0.0171,-0.01732 -0.07751,-0.134642 -0.210209,-0.261245 -0.132713,-0.126634 -0.241291,-0.254443 -0.241291,-0.284254 0,-0.02969 -0.03275,-0.05414 -0.07277,-0.05414 -0.04002,0 -0.07278,-0.0303 -0.07278,-0.06754 0,-0.03717 -0.03275,-0.08019 -0.07277,-0.09549 -0.04002,-0.01546 -0.07278,-0.05907 -0.07278,-0.09707 0,-0.03801 -0.03275,-0.08164 -0.07278,-0.09707 -0.04002,-0.01577 -0.07278,-0.07227 -0.07278,-0.126418 0,-0.05523 -0.03195,-0.09858 -0.07277,-0.09858 -0.04853,0 -0.07278,-0.04852 -0.07278,-0.145497 0,-0.09707 -0.02425,-0.145467 -0.07278,-0.145467 -0.05223,0 -0.07278,-0.05334 -0.07278,-0.188822 0,-0.123078 -0.02539,-0.198625 -0.07277,-0.216778 -0.04253,-0.01669 -0.07278,-0.08903 -0.07278,-0.17503 0,-0.08087 -0.01902,-0.147043 -0.04231,-0.147043 -0.02326,0 -0.05629,-0.0873 -0.07333,-0.194049 -0.01707,-0.106718 -0.05261,-0.194017 -0.07896,-0.194017 -0.02632,0 -0.04793,-0.06392 -0.04793,-0.142034 0,-0.07815 -0.031,-0.17302 -0.06883,-0.210871 -0.03785,-0.03785 -0.07605,-0.132231 -0.0849,-0.209665 -0.0092,-0.08062 -0.04196,-0.135601 -0.07672,-0.128675 -0.0391,0.0071 -0.06065,-0.04702 -0.06065,-0.154193 0,-0.09147 -0.03275,-0.199101 -0.07277,-0.23908 -0.04002,-0.04003 -0.07278,-0.128869 -0.07278,-0.197536 0,-0.07854 -0.02703,-0.124738 -0.07278,-0.124738 -0.05223,0 -0.07277,-0.05333 -0.07277,-0.188835 0,-0.123121 -0.02539,-0.198568 -0.07278,-0.216774 -0.04757,-0.01831 -0.07278,-0.09383 -0.07278,-0.218305 0,-0.124469 -0.0252,-0.200044 -0.07277,-0.218302 -0.04769,-0.01834 -0.07278,-0.09394 -0.07278,-0.219452 0,-0.105336 -0.02515,-0.199902 -0.05583,-0.210141 -0.03073,-0.01033 -0.06618,-0.14298 -0.07879,-0.295062 -0.01264,-0.152074 -0.04205,-0.276491 -0.06544,-0.276491 -0.02335,0 -0.04269,-0.09277 -0.04291,-0.20617 -6.2e-4,-0.316113 -0.05696,-0.715891 -0.09737,-0.690925 -0.01988,0.0123 -0.04586,-0.112539 -0.0578,-0.277379 -0.01215,-0.168128 -0.04665,-0.308022 -0.07856,-0.318654 -0.03182,-0.01061 -0.05685,-0.111688 -0.05685,-0.22975 0,-0.122691 -0.0304,-0.241208 -0.07275,-0.283567 -0.05093,-0.05108 -0.07274,-0.175702 -0.07274,-0.415948 0,-0.272586 -0.01503,-0.343044 -0.07275,-0.343044 -0.05592,0 -0.07278,-0.06215 -0.07278,-0.268337 0,-0.193776 -0.02029,-0.276099 -0.07277,-0.296255 -0.06163,-0.02388 -0.07286,-0.188259 -0.07286,-1.065992 0,-0.95576 0.0066,-1.037862 0.0849,-1.038546 0.07255,-6.42e-4 0.0743,-0.0075 0.01215,-0.04778 -0.04851,-0.03133 -0.05255,-0.04727 -0.01215,-0.04778 0.04636,-5.67e-4 0.06066,-0.216786 0.06066,-0.917271 0,-0.731699 0.01336,-0.921672 0.06652,-0.942051 0.04914,-0.01884 0.06882,-0.148495 0.07528,-0.496302 0.0063,-0.336779 0.02879,-0.490762 0.079,-0.541007 0.04645,-0.04645 0.07023,-0.173809 0.07023,-0.376153 0,-0.194222 0.02341,-0.325327 0.06404,-0.359068 0.03524,-0.0292 0.06926,-0.167859 0.07566,-0.308069 0.0063,-0.14021 0.0338,-0.268628 0.06091,-0.285379 0.02709,-0.01679 0.06144,-0.120928 0.07627,-0.231494 0.01481,-0.110572 0.04306,-0.20104 0.06271,-0.20104 0.01967,0 0.04787,-0.09046 0.06272,-0.201041 0.01481,-0.110565 0.04729,-0.214269 0.07216,-0.23043 0.02489,-0.01624 0.06025,-0.111258 0.07862,-0.211304 0.01837,-0.100051 0.05429,-0.181929 0.07978,-0.181929 0.02554,0 0.04661,-0.114598 0.04698,-0.254677 7.95e-4,-0.301543 0.04213,-0.482249 0.101883,-0.445323 0.0236,0.01466 0.04299,-0.03839 0.04299,-0.117784 0,-0.07939 -0.02632,-0.153142 -0.05855,-0.163882 -0.03585,-0.01215 -0.06613,-0.154666 -0.0782,-0.368023 -0.01445,-0.255256 -0.03767,-0.348362 -0.08698,-0.348362 -0.04244,0 -0.0673,-0.05378 -0.0673,-0.145531 0,-0.08004 -0.02143,-0.145535 -0.04759,-0.145535 -0.02619,0 -0.06128,-0.05459 -0.07802,-0.121284 -0.01679,-0.0667 -0.04989,-0.121281 -0.07369,-0.121281 -0.02384,0 -0.04327,-0.03343 -0.04327,-0.07429 0,-0.04087 -0.03077,-0.08609 -0.0684,-0.10054 -0.03763,-0.01445 -0.08167,-0.07924 -0.09796,-0.144016 -0.01624,-0.06476 -0.05098,-0.117765 -0.07715,-0.117765 -0.02619,0 -0.0476,-0.03275 -0.0476,-0.07278 0,-0.04002 -0.03275,-0.07278 -0.07277,-0.07278 -0.04002,0 -0.07276,-0.03275 -0.07276,-0.07278 0,-0.04002 -0.03275,-0.07277 -0.07278,-0.07277 -0.04002,0 -0.07278,-0.03275 -0.07278,-0.07278 0,-0.04002 -0.03275,-0.07278 -0.07277,-0.07278 -0.04002,0 -0.07276,-0.03275 -0.07276,-0.07277 0,-0.04002 -0.02465,-0.07277 -0.05491,-0.07277 -0.04756,0 -0.206448,-0.155233 -0.418072,-0.408461 -0.08843,-0.105828 -0.07939,-0.416234 0.01215,-0.416234 0.04002,0 0.06768,-0.01639 0.06151,-0.03638 -0.01725,-0.05584 0.170366,-0.254681 0.240341,-0.254681 0.03409,0 0.06197,-0.01945 0.06197,-0.04327 0,-0.02384 0.05459,-0.05693 0.121282,-0.07369 0.06671,-0.01679 0.121284,-0.05184 0.121284,-0.07802 0,-0.02616 0.05528,-0.04759 0.122798,-0.04759 0.06754,0 0.13537,-0.03275 0.150727,-0.07278 0.01729,-0.04508 0.09112,-0.07277 0.194045,-0.07277 0.102906,0 0.176756,-0.02761 0.194048,-0.07278 0.01598,-0.04172 0.08843,-0.07277 0.169792,-0.07277 0.08137,0 0.153782,-0.03106 0.169791,-0.07278 0.02431,-0.06336 0.34924,-0.07278 2.517025,-0.07278 1.94816,0 2.493496,0.01318 2.509317,0.06066 0.01404,0.04205 0.144176,0.06066 0.424475,0.06066 0.280289,0 0.410459,-0.01858 0.424473,-0.06066 0.01562,-0.04693 0.392976,-0.06066 1.668421,-0.06066 0.967061,0 1.637032,0.01806 1.621164,0.04377 -0.01481,0.02406 0.105686,0.05917 0.267934,0.07798 0.335409,0.03894 0.917663,-0.0099 0.917663,-0.0771 0,-0.02601 0.540191,-0.04495 1.297678,-0.04531 1.283545,-6.44e-4 1.540023,-0.01828 1.488318,-0.101886 -0.01516,-0.02421 0.282831,-0.04301 0.68257,-0.04301 0.394869,0 0.697472,0.01886 0.682805,0.0426 -0.05009,0.08103 0.280605,0.102924 1.554783,0.102924 1.10498,0 1.279484,0.0099 1.279484,0.07277 0,0.04002 0.03284,0.07276 0.0727,0.07276 0.04008,0 0.0727,0.03275 0.0727,0.07278 0,0.04002 0.03284,0.07276 0.07285,0.07276 0.04809,0 0.0727,0.04814 0.0727,0.142068 0,0.07813 -0.03281,0.17482 -0.0727,0.214833 -0.04005,0.04002 -0.07285,0.09614 -0.07285,0.124741 0,0.02858 -0.03281,0.05197 -0.0727,0.05197 -0.04005,0 -0.0727,0.03275 -0.0727,0.07278 0,0.04003 -0.03281,0.07278 -0.07286,0.07278 -0.04005,0 -0.0727,0.03275 -0.0727,0.07278 0,0.04002 -0.03281,0.07277 -0.07283,0.07277 -0.04005,0 -0.07276,0.03275 -0.07276,0.07278 0,0.04002 -0.03284,0.07278 -0.07283,0.07278 -0.04005,0 -0.07276,0.03275 -0.07276,0.07278 0,0.04002 -0.03284,0.07277 -0.0727,0.07277 -0.04005,0 -0.0727,0.02487 -0.0727,0.05506 0,0.0303 -0.05205,0.103289 -0.115625,0.16222 -0.06358,0.05892 -0.130561,0.15421 -0.148806,0.21174 -0.01824,0.05754 -0.0536,0.104604 -0.07849,0.104604 -0.02505,0 -0.04522,0.03275 -0.04522,0.07278 0,0.04002 -0.03284,0.07278 -0.0727,0.07278 -0.04005,0 -0.07276,0.03343 -0.07276,0.07429 0,0.04087 -0.03281,0.08687 -0.0727,0.102207 -0.04005,0.01537 -0.07283,0.08017 -0.07283,0.14401 0,0.07084 -0.02876,0.116089 -0.07283,0.116089 -0.04438,0 -0.0727,0.04525 -0.0727,0.116098 0,0.06385 -0.03281,0.12865 -0.07283,0.144016 -0.04802,0.01843 -0.0727,0.0944 -0.0727,0.223494 0,0.107569 -0.02196,0.195567 -0.04856,0.195567 -0.0266,0 -0.04852,0.03275 -0.04852,0.07278 0,0.04002 0.02227,0.07278 0.04852,0.07278 0.0266,0 0.04856,0.09823 0.04856,0.218299 0,0.161708 0.01856,0.218301 0.0727,0.218301 0.04552,0 0.07283,0.04598 0.07283,0.122803 0,0.06754 0.03284,0.13537 0.0727,0.15073 0.04005,0.01537 0.07283,0.08016 0.07283,0.144016 0,0.07084 0.02875,0.116086 0.07283,0.116086 0.04005,0 0.0727,0.03431 0.0727,0.07627 0,0.04192 0.03284,0.108979 0.07276,0.149001 0.04005,0.04002 0.0727,0.127345 0.0727,0.194045 0,0.0667 0.03281,0.15402 0.07279,0.194039 0.04005,0.04002 0.0727,0.147612 0.0727,0.239092 0,0.09148 0.02041,0.166315 0.04496,0.166315 0.02443,0 0.06002,0.120066 0.07836,0.266813 0.01856,0.14675 0.05266,0.266813 0.07623,0.266813 0.02412,0 0.04289,0.06393 0.04289,0.14207 0,0.07814 0.03281,0.174823 0.07285,0.214833 0.04307,0.04312 0.07283,0.161707 0.07283,0.291069 0,0.129364 0.02969,0.247945 0.07285,0.291079 0.05452,0.05453 0.0727,0.189035 0.0727,0.537088 0,0.380392 0.01329,0.464327 0.0727,0.464327 0.0582,0 0.07283,0.07278 0.07283,0.363833 0,0.233656 0.01949,0.363835 0.05375,0.363835 0.02969,0 0.0407,0.03386 0.02505,0.07526 -0.01701,0.04315 -0.0084,0.06264 0.01886,0.04563 0.02969,-0.0184 0.048,0.09221 0.048,0.291413 0,0.17657 0.01917,0.309089 0.04305,0.294471 0.05946,-0.03676 0.101091,0.143422 0.101894,0.441281 4.67e-4,0.156902 0.02319,0.258187 0.06133,0.27082 0.04518,0.01503 0.06475,0.275824 0.07707,1.02298 0.0099,0.586491 0.03469,0.991461 0.06061,0.975485 0.02535,-0.01589 0.04422,0.226634 0.04422,0.579078 0,0.351933 -0.02041,0.618971 -0.04852,0.636372 -0.02876,0.01769 -0.04852,0.306785 -0.04852,0.703417 0,0.396626 0.0201,0.685755 0.04852,0.703415 0.02814,0.0176 0.04852,0.30061 0.04852,0.684885 0,0.424247 -0.01732,0.644342 -0.04852,0.624921 -0.03092,-0.01889 -0.04852,0.09535 -0.04852,0.308994 0,0.236624 -0.02227,0.360952 -0.0727,0.411746 -0.04082,0.04086 -0.07283,0.159391 -0.07283,0.270285 0,0.143227 -0.0201,0.197505 -0.0727,0.197505 -0.05597,0 -0.07283,0.06215 -0.07283,0.268337 0,0.19377 -0.02041,0.276096 -0.07279,0.296256 -0.05925,0.02261 -0.07283,0.138901 -0.07283,0.623931 0,0.485035 -0.0133,0.601214 -0.0727,0.62394 -0.05498,0.02072 -0.07283,0.110089 -0.07283,0.364984 0,0.208211 -0.02103,0.344064 -0.05504,0.355406 -0.03538,0.01113 -0.06395,0.235023 -0.07988,0.620989 -0.01732,0.413793 -0.04542,0.623221 -0.09048,0.668317 -0.03612,0.03615 -0.06568,0.140549 -0.06568,0.232023 0,0.0915 -0.02134,0.16634 -0.04796,0.16634 -0.0266,0 -0.06191,0.08726 -0.07895,0.194049 -0.01732,0.106718 -0.05009,0.194048 -0.07329,0.194048 -0.02319,0 -0.04227,0.03281 -0.04227,0.0727 0,0.04005 -0.03284,0.07267 -0.0727,0.07267 -0.04005,0 -0.0727,0.04203 -0.0727,0.09354 0,0.05152 -0.02969,0.123387 -0.06637,0.159878 -0.03649,0.0365 -0.08167,0.11448 -0.100286,0.173297 -0.01856,0.05881 -0.05436,0.106812 -0.0792,0.106812 -0.02505,0 -0.04518,0.06547 -0.04518,0.145498 0,0.09707 -0.02412,0.145466 -0.0727,0.145466 -0.04852,0 -0.0727,0.04852 -0.0727,0.145498 0,0.09707 -0.02412,0.145467 -0.0727,0.145467 -0.04852,0 -0.0727,0.04858 -0.0727,0.145466 0,0.08 -0.02102,0.145467 -0.04756,0.145467 -0.02629,0 -0.06259,0.05978 -0.08096,0.132911 -0.01824,0.07317 -0.06241,0.161918 -0.09787,0.197543 -0.03544,0.03538 -0.0646,0.09577 -0.0646,0.133869 0,0.03816 -0.03284,0.06934 -0.07283,0.06934 -0.04005,0 -0.0727,0.03284 -0.0727,0.07277 0,0.04005 -0.02227,0.07267 -0.04852,0.07267 -0.0269,0 -0.04858,0.03281 -0.04858,0.07279 0,0.04005 -0.03284,0.07268 -0.07283,0.07268 -0.04008,0 -0.0727,0.03284 -0.0727,0.07279 0,0.04005 -0.03284,0.0727 -0.07276,0.0727 -0.04005,0 -0.07283,0.03284 -0.07283,0.07267 0,0.04005 -0.03281,0.0727 -0.07277,0.0727 -0.04522,0 -0.0727,0.04583 -0.0727,0.121253 0,0.07546 -0.02752,0.121284 -0.0727,0.121284 -0.04042,0 -0.07279,0.04311 -0.07279,0.09707 0,0.0539 -0.03216,0.09704 -0.0727,0.09704 -0.04521,0 -0.07279,0.04583 -0.07279,0.121253 0,0.07548 -0.02752,0.121284 -0.07283,0.121284 -0.04008,0 -0.0727,0.02289 -0.0727,0.05084 0,0.02752 -0.05458,0.101431 -0.121284,0.163218 -0.06667,0.06185 -0.121284,0.137209 -0.121284,0.167484 0,0.0303 -0.03284,0.05508 -0.07283,0.05508 -0.04005,0 -0.07279,0.03284 -0.07279,0.0727 0,0.04005 -0.03281,0.07267 -0.0727,0.07267 -0.04008,0 -0.07279,0.03284 -0.07279,0.07279 0,0.04001 -0.03284,0.07268 -0.0727,0.07268 -0.04005,0 -0.0727,0.03281 -0.0727,0.0727 0,0.04005 -0.02443,0.07276 -0.05511,0.07276 -0.0303,0 -0.105699,0.05455 -0.167454,0.121284 -0.06182,0.06667 -0.135262,0.121253 -0.163217,0.121253 -0.02814,0 -0.05084,0.03281 -0.05084,0.07268 0,0.04005 -0.03281,0.07283 -0.07276,0.07283 -0.04005,0 -0.0727,0.03281 -0.0727,0.0727 0,0.04005 -0.03275,0.0727 -0.07279,0.0727 -0.04005,0 -0.07277,0.03281 -0.07277,0.0727 0,0.04521 -0.04583,0.07283 -0.121284,0.07283 -0.07546,0 -0.121278,0.02752 -0.121278,0.07267 0,0.04005 -0.03276,0.07283 -0.07271,0.07283 -0.04001,0 -0.07271,0.03281 -0.07271,0.07268 0,0.04005 -0.03274,0.0727 -0.07277,0.0727 -0.04001,0 -0.07278,0.03281 -0.07278,0.0727 0,0.04005 -0.03274,0.0727 -0.07278,0.0727 -0.04001,0 -0.07278,0.02103 -0.07278,0.04849 0,0.0266 -0.03296,0.04852 -0.07325,0.04852 -0.04028,0 -0.110624,0.04373 -0.156317,0.09707 -0.04568,0.05338 -0.103011,0.09707 -0.127367,0.09707 -0.0244,0 -0.09488,0.05455 -0.156698,0.121253 -0.0617,0.06671 -0.15697,0.121254 -0.211601,0.121254 -0.05596,0 -0.09934,0.03185 -0.09934,0.07267 0,0.04852 -0.04852,0.0727 -0.145532,0.0727 -0.09704,0 -0.145534,0.02412 -0.145534,0.07268 0,0.04005 -0.03275,0.0727 -0.07277,0.0727 -0.04002,0 -0.07277,-0.03284 -0.07277,-0.0727 z M 32.495801,32.758786 c -0.01651,-0.02672 -0.116015,-0.04852 -0.221168,-0.04852 -0.1376,0 -0.191188,-0.02029 -0.191188,-0.07278 0,-0.04002 -0.03275,-0.07277 -0.07278,-0.07277 -0.04003,0 -0.07277,-0.03275 -0.07277,-0.07277 0,-0.04002 -0.03275,-0.07278 -0.07278,-0.07278 -0.04002,0 -0.07278,-0.03275 -0.07278,-0.07277 0,-0.04003 -0.03275,-0.07277 -0.07278,-0.07277 -0.04526,0 -0.07277,-0.04581 -0.07277,-0.12128 0,-0.07546 -0.02749,-0.121284 -0.07278,-0.121284 -0.04044,0 -0.07278,-0.04312 -0.07278,-0.09702 0,-0.05336 -0.02029,-0.09704 -0.04523,-0.09704 -0.02489,0 -0.06051,-0.0481 -0.07916,-0.106888 -0.01865,-0.05879 -0.06378,-0.13675 -0.10028,-0.173249 -0.03649,-0.03649 -0.06637,-0.108465 -0.06637,-0.159927 0,-0.05145 -0.03275,-0.09355 -0.07278,-0.09355 -0.04527,0 -0.07278,-0.04582 -0.07278,-0.121284 0,-0.0667 -0.02143,-0.121281 -0.0476,-0.121281 -0.02616,0 -0.0623,-0.06001 -0.08023,-0.133406 -0.018,-0.07337 -0.05658,-0.149032 -0.08582,-0.168137 -0.06654,-0.04348 -0.05817,-1.92973 0.0087,-1.973266 0.02489,-0.01624 0.05702,-0.135871 0.0713,-0.26591 0.01435,-0.130041 0.04846,-0.250317 0.07594,-0.267301 0.02746,-0.01692 0.06496,-0.09067 0.08332,-0.163789 0.01834,-0.07311 0.05285,-0.13292 0.0766,-0.13292 0.02384,0 0.04327,-0.03275 0.04327,-0.07277 0,-0.04003 0.03275,-0.07278 0.07278,-0.07278 0.04002,0 0.07278,-0.03275 0.07278,-0.07278 0,-0.04442 0.04524,-0.07278 0.116091,-0.07278 0.06386,0 0.128651,-0.03275 0.144008,-0.07277 0.01537,-0.04002 0.052,-0.07278 0.08141,-0.07278 0.02941,0 0.08625,-0.03275 0.126262,-0.07278 0.04683,-0.04681 0.166711,-0.07277 0.336113,-0.07277 0.177949,0 0.26359,-0.01966 0.264084,-0.06065 5.38e-4,-0.04442 0.01193,-0.04294 0.04265,0.0056 0.03536,0.05582 0.0466,0.05582 0.07202,0 0.02332,-0.0512 0.03651,-0.05243 0.05842,-0.0056 0.01636,0.03511 0.118581,0.06065 0.242559,0.06065 0.171436,0 0.214409,0.01691 0.215012,0.08489 6.33e-4,0.07255 0.0075,0.0743 0.04778,0.01215 0.03136,-0.04851 0.04727,-0.05255 0.04778,-0.01215 3.87e-4,0.03335 0.03416,0.06065 0.07502,0.06065 0.04086,0 0.08686,0.03275 0.102206,0.07278 0.01537,0.04002 0.06995,0.07278 0.121284,0.07278 0.05135,0 0.10593,0.03275 0.121284,0.07277 0.01537,0.04002 0.05834,0.07278 0.09552,0.07278 0.03717,0 0.06759,0.03275 0.06759,0.07278 0,0.04002 0.03275,0.07278 0.07277,0.07278 0.04526,0 0.07278,0.04581 0.07278,0.121284 0,0.07546 0.02749,0.121284 0.07277,0.121284 0.04003,0 0.07277,0.0304 0.07277,0.06758 0,0.03717 0.03275,0.08015 0.07278,0.09549 0.04003,0.01531 0.07277,0.06137 0.07277,0.102206 0,0.04086 0.02143,0.07428 0.04761,0.07428 0.02619,0 0.06129,0.05459 0.07804,0.121284 0.01669,0.06671 0.04752,0.121284 0.06843,0.121284 0.02091,0 0.053,0.0598 0.07133,0.132924 0.01834,0.07311 0.0507,0.144057 0.07189,0.157657 0.02125,0.01361 0.05169,0.133719 0.06779,0.266918 0.01608,0.133198 0.0516,0.249624 0.07892,0.258731 0.06599,0.02196 0.06599,0.868155 0,0.890142 -0.02733,0.0092 -0.06273,0.125521 -0.07872,0.258726 -0.01596,0.133199 -0.0482,0.249458 -0.0716,0.258342 -0.02345,0.009 -0.04257,0.06803 -0.04257,0.131412 0,0.151608 -0.153324,0.456096 -0.230431,0.457614 -0.03335,6.62e-4 -0.06065,0.05578 -0.06065,0.122474 0,0.07546 -0.0275,0.121284 -0.07277,0.121284 -0.04003,0 -0.07277,0.03275 -0.07277,0.07278 0,0.04002 -0.03275,0.07278 -0.07278,0.07278 -0.04003,0 -0.07277,0.03275 -0.07277,0.07278 0,0.04003 -0.03275,0.07277 -0.07278,0.07277 -0.04003,0 -0.07277,0.03275 -0.07277,0.07277 0,0.04002 -0.0304,0.07278 -0.06759,0.07278 -0.03717,0 -0.08015,0.03275 -0.0955,0.07277 -0.01531,0.04002 -0.07227,0.07277 -0.126467,0.07277 -0.05525,0 -0.09856,0.03195 -0.09856,0.07277 0,0.04852 -0.04851,0.07278 -0.145535,0.07278 -0.09703,0 -0.145532,0.02425 -0.145532,0.07277 0,0.0551 -0.05962,0.07278 -0.245422,0.07278 -0.151255,0 -0.233915,0.01862 -0.215435,0.04851 0.01648,0.02672 0.0081,0.04851 -0.0185,0.04851 -0.02672,0 -0.06198,-0.0219 -0.0785,-0.04851 z"
       id="path1-6" />
    <rect
       style="opacity:0.5;fill:none;fill-opacity:1;stroke:#000000;stroke-width:2.72727;stroke-dasharray:none;stroke-opacity:1;filter:url(#filter1-3)"
       id="rect1-5-5"
       width="49.090908"
       height="49.090908"
       x="7.4405394"
       y="7.4604964"
       rx="7.4768682"
       ry="7.477273"
       transform="matrix(0.43046721,0,0,0.43046721,34.695898,34.707264)" />
    <rect
       style="fill:#c4c2c5;fill-opacity:1;stroke:#1e2430;stroke-width:1.174;stroke-dasharray:none;stroke-opacity:1"
       id="rect1-3"
       width="21.132023"
       height="21.132023"
       x="37.898808"
       y="37.918762"
       rx="3.2185469"
       ry="3.2187209" />
    <rect
       style="fill:#1e2430;fill-opacity:1;stroke:none;stroke-width:1.00656;stroke-dasharray:none;stroke-opacity:1"
       id="rect1-6-5"
       width="18.118069"
       height="18.118069"
       x="39.405781"
       y="39.425739"
       rx="2.4074855"
       ry="2.4074855" />
    <path
       id="path1"
       style="fill:#f4e3cf;fill-opacity:1;stroke:none;stroke-width:0.181638;stroke-dasharray:none;stroke-dashoffset:2.2;stroke-opacity:0.6"
       d="m 51.778779,43.941045 c -0.187252,-8.1e-5 -0.387675,0.07531 -0.638521,0.222291 -0.596919,0.349749 -1.377579,0.514692 -2.44963,0.514692 -1.071954,0 -1.878654,-0.168464 -2.472018,-0.516184 -0.475801,-0.278826 -0.759862,-0.282522 -1.159175,-0.01336 -1.025175,0.690863 -1.797804,2.90589 -2.024459,5.800365 -0.135901,1.735692 -0.0089,2.650757 0.440096,3.165728 0.216586,0.248286 0.748267,0.206204 1.227806,-0.09847 0.406495,-0.258249 0.890832,-0.828123 1.469484,-1.729077 0.522892,-0.81415 1.155362,-1.082294 2.554068,-1.084584 1.395926,-0.0021 1.944506,0.26195 2.588383,1.251671 1.08027,1.660535 2.078776,2.238636 2.664465,1.542581 0.324469,-0.385605 0.383859,-0.758167 0.368487,-2.309398 -0.028,-2.817903 -0.76459,-5.381404 -1.826034,-6.359807 C 52.239036,44.06691 52.019542,43.9412 51.778779,43.9411 Z m -6.06442,1.660439 h 0.647469 0.647466 v 0.554974 0.554973 h 0.554977 0.554971 v 0.693717 0.693714 h -0.554971 -0.554977 v 0.601222 0.601221 h -0.586297 c -0.322099,0 -0.612073,-0.02889 -0.645977,-0.06265 -0.0339,-0.03389 -0.06262,-0.303056 -0.06262,-0.599727 V 48.098857 H 45.159418 44.604442 V 47.405144 46.71143 h 0.554976 0.55497 v -0.55498 z m 5.278213,0 c 0.5841,0 0.834244,0.647172 0.413247,1.068174 -0.26774,0.267713 -0.512097,0.288754 -0.77577,0.06565 -0.457352,-0.386999 -0.218646,-1.133819 0.362523,-1.133819 z m -1.123373,1.18603 c 0.145866,1.01e-4 0.292703,0.05822 0.408766,0.186472 0.180933,0.199943 0.20047,0.65765 0.03732,0.871247 -0.319324,0.418037 -1.086073,0.14915 -1.086073,-0.380423 0,-0.401918 0.319131,-0.677526 0.640008,-0.677304 z m 2.292994,0.02255 c 0.168103,0.0031 0.331322,0.05875 0.426667,0.164095 0.180934,0.199943 0.200443,0.65765 0.0373,0.87125 -0.339646,0.444632 -1.086079,0.147034 -1.086079,-0.432643 0,-0.1757 0.07042,-0.36615 0.168576,-0.455016 0.112217,-0.101585 0.285435,-0.150764 0.45353,-0.147674 z m -1.12934,1.19647 c 0.517834,0 0.769797,0.549277 0.456506,0.996564 -0.107097,0.152907 -0.23771,0.20587 -0.507235,0.20587 -0.310298,0 -0.382306,-0.04038 -0.507228,-0.281972 -0.246338,-0.476336 0.02255,-0.920482 0.557957,-0.920482 z" />
  </g>
</svg>
