<?xml version="1.0" encoding="UTF-8" standalone="no"?>
<svg
   width="64"
   height="64"
   version="1.1"
   id="svg73"
   sodipodi:docname="accessories-calculator.svg"
   inkscape:version="1.2.2 (b0a8486541, 2022-12-01)"
   xmlns:inkscape="http://www.inkscape.org/namespaces/inkscape"
   xmlns:sodipodi="http://sodipodi.sourceforge.net/DTD/sodipodi-0.dtd"
   xmlns="http://www.w3.org/2000/svg"
   xmlns:svg="http://www.w3.org/2000/svg"
   xmlns:rdf="http://www.w3.org/1999/02/22-rdf-syntax-ns#"
   xmlns:cc="http://creativecommons.org/ns#"
   xmlns:dc="http://purl.org/dc/elements/1.1/">
  <metadata
     id="metadata77">
    <rdf:RDF>
      <cc:Work
         rdf:about="">
        <dc:format>image/svg+xml</dc:format>
        <dc:type
           rdf:resource="http://purl.org/dc/dcmitype/StillImage" />
      </cc:Work>
    </rdf:RDF>
  </metadata>
  <sodipodi:namedview
     pagecolor="#f5f7fa"
     bordercolor="#666666"
     borderopacity="1"
     objecttolerance="10"
     gridtolerance="10"
     guidetolerance="10"
     inkscape:pageopacity="0"
     inkscape:pageshadow="2"
     inkscape:window-width="1280"
     inkscape:window-height="603"
     id="namedview75"
     showgrid="false"
     inkscape:zoom="6.2890625"
     inkscape:cx="51.677019"
     inkscape:cy="37.843478"
     inkscape:window-x="35"
     inkscape:window-y="32"
     inkscape:window-maximized="0"
     inkscape:current-layer="g877"
     inkscape:document-rotation="0"
     inkscape:pagecheckerboard="0"
     inkscape:showpageshadow="2"
     inkscape:deskcolor="#d1d1d1" />
  <defs
     id="defs29">
    <filter
       style="color-interpolation-filters:sRGB;"
       inkscape:label="Blur"
       id="filter1"
       x="-0.091333304"
       y="-0.091333304"
       width="1.1826666"
       height="1.1826666">
      <feGaussianBlur
         stdDeviation="1.3 1.3"
         result="blur"
         id="feGaussianBlur1" />
    </filter>
    <filter
       style="color-interpolation-filters:sRGB"
       inkscape:label="Blur"
       id="filter1-3"
       x="-0.091333304"
       y="-0.091333304"
       width="1.1826666"
       height="1.1826666">
      <feGaussianBlur
         stdDeviation="1.3 1.3"
         result="blur"
         id="feGaussianBlur1-6" />
    </filter>
  </defs>
  <circle
     cx="32.516094"
     cy="31.877844"
     r="0"
     fill="url(#b)"
     stroke-width="1.5715"
     id="circle41"
     style="fill:url(#b)" />
  <g
     aria-label="GZ"
     transform="matrix(1.2212657,0,0,0.81882264,0.4960938,-0.1661539)"
     id="text93"
     style="font-weight:bold;font-size:11.5263px;line-height:1.25;font-family:sans-serif;-inkscape-font-specification:'sans-serif Bold';fill:#f2f2f2;stroke-width:0.288159" />
  <g
     id="g877"
     transform="matrix(1.1,0,0,1.1,-3.1845928,-3.2065454)">
    <rect
       style="fill:none;fill-opacity:1;stroke:#000000;stroke-width:2.72727;stroke-dasharray:none;stroke-opacity:1;filter:url(#filter1);opacity:0.5"
       id="rect1-5"
       width="49.090908"
       height="49.090908"
       x="7.4405394"
       y="7.4604964"
       rx="7.4768682"
       ry="7.477273" />
    <rect
       style="opacity:1;fill:#c4c2c5;stroke-width:2.72727273;stroke-opacity:1;fill-opacity:1;stroke:#1e2430;stroke-dasharray:none"
       id="rect1"
       width="49.090908"
       height="49.090908"
       x="7.4405394"
       y="7.4604964"
       rx="7.4768682"
       ry="7.477273" />
    <rect
       style="fill:#1e2430;fill-opacity:1;stroke:none;stroke-width:2.33829;stroke-dasharray:none;stroke-opacity:1"
       id="rect1-6"
       width="42.089317"
       height="42.089317"
       x="10.941335"
       y="10.961291"
       rx="5.5927272"
       ry="5.5927272" />
    <path
       style="fill:#f4e3cf;fill-opacity:1;stroke:none;stroke-width:0.437628;stroke-dasharray:none;stroke-opacity:0.6"
       d="m 31.535865,46.284085 c -0.170125,-0.0907 -0.299384,-0.21687 -0.393875,-0.384305 -0.131603,-0.23326 -0.142046,-0.310762 -0.162444,-1.20591 l -0.02182,-0.95664 -0.836395,-0.616511 -0.836396,-0.616507 v -5.618508 c 0,-4.82917 -0.01163,-5.640949 -0.08259,-5.778221 -0.0454,-0.08786 -0.681488,-1.180417 -1.413483,-2.427944 -1.004495,-1.711952 -1.318002,-2.289684 -1.278336,-2.355705 0.0289,-0.0481 1.087049,-1.932008 2.351429,-4.186437 1.264379,-2.254432 2.371919,-4.172013 2.461204,-4.2613 0.410494,-0.410488 1.138159,-0.325936 1.474854,0.171378 0.07378,0.108973 1.127355,1.970732 2.341278,4.137239 1.213928,2.166504 2.244636,4.004181 2.290468,4.083724 0.08112,0.140769 0.0479,0.205014 -1.24706,2.41198 -0.731708,1.247042 -1.367545,2.339225 -1.41297,2.427066 -0.07099,0.137274 -0.08259,0.949051 -0.08259,5.77822 v 5.618508 l -0.836397,0.616507 -0.836395,0.616511 -0.02345,0.95664 c -0.02078,0.848562 -0.03737,0.983016 -0.14663,1.190123 -0.248277,0.470608 -0.837992,0.650935 -1.308409,0.400092 z m -1.26217,-19.458371 c 0.08359,-0.03178 0.306817,-0.187663 0.496053,-0.346396 0.902312,-0.756878 1.608121,-0.75496 2.46229,0.0068 0.174622,0.155709 0.38518,0.308839 0.467915,0.340292 0.535697,0.203693 1.192461,-0.183352 1.302008,-0.767279 0.0695,-0.370473 -0.06723,-0.659199 -0.512366,-1.082046 -0.749319,-0.711777 -1.533596,-1.041362 -2.475409,-1.040269 -0.980622,0.0013 -1.819778,0.356697 -2.56967,1.088783 -0.385434,0.376282 -0.437498,0.452036 -0.470888,0.685163 -0.05053,0.35302 8.84e-4,0.549195 0.210726,0.803788 0.276788,0.335796 0.703874,0.457836 1.08934,0.311283 z m -8.518442,16.28265 c -0.102354,-0.05045 -0.257037,-0.195476 -0.34376,-0.32229 -0.18618,-0.272267 -1.759394,-2.824673 -1.903231,-3.087828 -0.09108,-0.166661 -0.100526,-0.456799 -0.11537,-3.544074 -0.01096,-2.275879 0.0033,-3.435365 0.04449,-3.587797 0.120166,-0.446273 0.654787,-0.789433 1.099809,-0.705946 0.224221,0.04207 0.511225,0.232694 0.667429,0.4433 0.110661,0.149199 0.11941,0.248731 0.145856,1.658974 l 0.02814,1.50025 1.965588,-3.501909 c 1.081088,-1.926044 1.980045,-3.500756 1.997702,-3.499357 0.01764,0.0013 0.468914,0.752405 1.002802,1.668894 l 0.970707,1.666348 v 5.332615 5.332602 l -0.154749,0.03108 c -0.61187,0.123448 -4.681435,0.709003 -4.920485,0.707984 -0.164349,-7.28e-4 -0.382563,-0.04255 -0.484909,-0.09299 z m 17.236769,-0.275006 c -1.268952,-0.197821 -2.313517,-0.360234 -2.321255,-0.360945 -0.008,-8.01e-4 -0.01435,-2.402967 -0.01435,-5.338361 v -5.337123 l 0.970773,-1.666348 c 0.533891,-0.916489 0.985149,-1.667492 1.002807,-1.668894 0.01732,-0.0014 0.916609,1.573313 1.997685,3.499363 l 1.965586,3.501908 0.02814,-1.50025 c 0.0266,-1.410246 0.03519,-1.509774 0.145869,-1.658972 0.156228,-0.210611 0.443209,-0.401234 0.667427,-0.443301 0.445024,-0.08349 0.979645,0.259676 1.099809,0.705946 0.04104,0.152434 0.05545,1.311918 0.04447,3.587797 -0.01454,3.087274 -0.02412,3.377444 -0.115346,3.544075 -0.144168,0.26372 -1.717245,2.815839 -1.90389,3.088793 -0.208428,0.304787 -0.454861,0.416825 -0.90347,0.410763 -0.196522,-0.0024 -1.395496,-0.16671 -2.664451,-0.364488 z"
       id="path1-3" />
    <rect
       style="opacity:0.5;fill:none;fill-opacity:1;stroke:#000000;stroke-width:2.72727;stroke-dasharray:none;stroke-opacity:1;filter:url(#filter1-3)"
       id="rect1-5-5"
       width="49.090908"
       height="49.090908"
       x="7.4405394"
       y="7.4604964"
       rx="7.4768682"
       ry="7.477273"
       transform="matrix(0.43046721,0,0,0.43046721,34.695898,34.707264)" />
    <rect
       style="fill:#c4c2c5;fill-opacity:1;stroke:#1e2430;stroke-width:1.174;stroke-dasharray:none;stroke-opacity:1"
       id="rect1-3"
       width="21.132023"
       height="21.132023"
       x="37.898808"
       y="37.918762"
       rx="3.2185469"
       ry="3.2187209" />
    <rect
       style="fill:#1e2430;fill-opacity:1;stroke:none;stroke-width:1.00656;stroke-dasharray:none;stroke-opacity:1"
       id="rect1-6-5"
       width="18.118069"
       height="18.118069"
       x="39.405781"
       y="39.425739"
       rx="2.4074855"
       ry="2.4074855" />
    <path
       id="path1"
       style="fill:#f4e3cf;fill-opacity:1;stroke:none;stroke-width:0.181638;stroke-dasharray:none;stroke-dashoffset:2.2;stroke-opacity:0.6"
       d="m 51.778779,43.941045 c -0.187252,-8.1e-5 -0.387675,0.07531 -0.638521,0.222291 -0.596919,0.349749 -1.377579,0.514692 -2.44963,0.514692 -1.071954,0 -1.878654,-0.168464 -2.472018,-0.516184 -0.475801,-0.278826 -0.759862,-0.282522 -1.159175,-0.01336 -1.025175,0.690863 -1.797804,2.90589 -2.024459,5.800365 -0.135901,1.735692 -0.0089,2.650757 0.440096,3.165728 0.216586,0.248286 0.748267,0.206204 1.227806,-0.09847 0.406495,-0.258249 0.890832,-0.828123 1.469484,-1.729077 0.522892,-0.81415 1.155362,-1.082294 2.554068,-1.084584 1.395926,-0.0021 1.944506,0.26195 2.588383,1.251671 1.08027,1.660535 2.078776,2.238636 2.664465,1.542581 0.324469,-0.385605 0.383859,-0.758167 0.368487,-2.309398 -0.028,-2.817903 -0.76459,-5.381404 -1.826034,-6.359807 C 52.239036,44.06691 52.019542,43.9412 51.778779,43.9411 Z m -6.06442,1.660439 h 0.647469 0.647466 v 0.554974 0.554973 h 0.554977 0.554971 v 0.693717 0.693714 h -0.554971 -0.554977 v 0.601222 0.601221 h -0.586297 c -0.322099,0 -0.612073,-0.02889 -0.645977,-0.06265 -0.0339,-0.03389 -0.06262,-0.303056 -0.06262,-0.599727 V 48.098857 H 45.159418 44.604442 V 47.405144 46.71143 h 0.554976 0.55497 v -0.55498 z m 5.278213,0 c 0.5841,0 0.834244,0.647172 0.413247,1.068174 -0.26774,0.267713 -0.512097,0.288754 -0.77577,0.06565 -0.457352,-0.386999 -0.218646,-1.133819 0.362523,-1.133819 z m -1.123373,1.18603 c 0.145866,1.01e-4 0.292703,0.05822 0.408766,0.186472 0.180933,0.199943 0.20047,0.65765 0.03732,0.871247 -0.319324,0.418037 -1.086073,0.14915 -1.086073,-0.380423 0,-0.401918 0.319131,-0.677526 0.640008,-0.677304 z m 2.292994,0.02255 c 0.168103,0.0031 0.331322,0.05875 0.426667,0.164095 0.180934,0.199943 0.200443,0.65765 0.0373,0.87125 -0.339646,0.444632 -1.086079,0.147034 -1.086079,-0.432643 0,-0.1757 0.07042,-0.36615 0.168576,-0.455016 0.112217,-0.101585 0.285435,-0.150764 0.45353,-0.147674 z m -1.12934,1.19647 c 0.517834,0 0.769797,0.549277 0.456506,0.996564 -0.107097,0.152907 -0.23771,0.20587 -0.507235,0.20587 -0.310298,0 -0.382306,-0.04038 -0.507228,-0.281972 -0.246338,-0.476336 0.02255,-0.920482 0.557957,-0.920482 z" />
  </g>
</svg>
