<?xml version="1.0" encoding="UTF-8" standalone="no"?>
<svg
   width="64"
   height="64"
   version="1.1"
   id="svg73"
   sodipodi:docname="accessories-calculator.svg"
   inkscape:version="1.2.2 (b0a8486541, 2022-12-01)"
   xmlns:inkscape="http://www.inkscape.org/namespaces/inkscape"
   xmlns:sodipodi="http://sodipodi.sourceforge.net/DTD/sodipodi-0.dtd"
   xmlns="http://www.w3.org/2000/svg"
   xmlns:svg="http://www.w3.org/2000/svg"
   xmlns:rdf="http://www.w3.org/1999/02/22-rdf-syntax-ns#"
   xmlns:cc="http://creativecommons.org/ns#"
   xmlns:dc="http://purl.org/dc/elements/1.1/">
  <metadata
     id="metadata77">
    <rdf:RDF>
      <cc:Work
         rdf:about="">
        <dc:format>image/svg+xml</dc:format>
        <dc:type
           rdf:resource="http://purl.org/dc/dcmitype/StillImage" />
      </cc:Work>
    </rdf:RDF>
  </metadata>
  <sodipodi:namedview
     pagecolor="#f5f7fa"
     bordercolor="#666666"
     borderopacity="1"
     objecttolerance="10"
     gridtolerance="10"
     guidetolerance="10"
     inkscape:pageopacity="0"
     inkscape:pageshadow="2"
     inkscape:window-width="1280"
     inkscape:window-height="603"
     id="namedview75"
     showgrid="false"
     inkscape:zoom="6.2890625"
     inkscape:cx="51.677019"
     inkscape:cy="37.843478"
     inkscape:window-x="35"
     inkscape:window-y="32"
     inkscape:window-maximized="0"
     inkscape:current-layer="g877"
     inkscape:document-rotation="0"
     inkscape:pagecheckerboard="0"
     inkscape:showpageshadow="2"
     inkscape:deskcolor="#d1d1d1" />
  <defs
     id="defs29">
    <filter
       style="color-interpolation-filters:sRGB;"
       inkscape:label="Blur"
       id="filter1"
       x="-0.091333304"
       y="-0.091333304"
       width="1.1826666"
       height="1.1826666">
      <feGaussianBlur
         stdDeviation="1.3 1.3"
         result="blur"
         id="feGaussianBlur1" />
    </filter>
    <filter
       style="color-interpolation-filters:sRGB"
       inkscape:label="Blur"
       id="filter1-3"
       x="-0.091333304"
       y="-0.091333304"
       width="1.1826666"
       height="1.1826666">
      <feGaussianBlur
         stdDeviation="1.3 1.3"
         result="blur"
         id="feGaussianBlur1-6" />
    </filter>
  </defs>
  <circle
     cx="32.516094"
     cy="31.877844"
     r="0"
     fill="url(#b)"
     stroke-width="1.5715"
     id="circle41"
     style="fill:url(#b)" />
  <g
     aria-label="GZ"
     transform="matrix(1.2212657,0,0,0.81882264,0.4960938,-0.1661539)"
     id="text93"
     style="font-weight:bold;font-size:11.5263px;line-height:1.25;font-family:sans-serif;-inkscape-font-specification:'sans-serif Bold';fill:#f2f2f2;stroke-width:0.288159" />
  <g
     id="g877"
     transform="matrix(1.1,0,0,1.1,-3.1845928,-3.2065454)">
    <rect
       style="fill:none;fill-opacity:1;stroke:#000000;stroke-width:2.72727;stroke-dasharray:none;stroke-opacity:1;filter:url(#filter1);opacity:0.5"
       id="rect1-5"
       width="49.090908"
       height="49.090908"
       x="7.4405394"
       y="7.4604964"
       rx="7.4768682"
       ry="7.477273" />
    <rect
       style="opacity:1;fill:#c4c2c5;stroke-width:2.72727273;stroke-opacity:1;fill-opacity:1;stroke:#1e2430;stroke-dasharray:none"
       id="rect1"
       width="49.090908"
       height="49.090908"
       x="7.4405394"
       y="7.4604964"
       rx="7.4768682"
       ry="7.477273" />
    <rect
       style="fill:#1e2430;fill-opacity:1;stroke:none;stroke-width:2.33829;stroke-dasharray:none;stroke-opacity:1"
       id="rect1-6"
       width="42.089317"
       height="42.089317"
       x="10.941335"
       y="10.961291"
       rx="5.5927272"
       ry="5.5927272" />
    <path
       style="fill:#f4e3cf;fill-opacity:1;stroke:none;stroke-width:0.416787;stroke-dasharray:none;stroke-opacity:0.6"
       d="m 25.617766,39.471243 c 0.958797,-1.000399 1.841787,-1.853039 1.962188,-1.894746 0.120424,-0.04165 0.717856,0.0544 1.327685,0.213531 1.473304,0.384484 2.522838,0.246681 5.221037,-0.685599 2.596329,-0.897165 3.161686,-1.286598 4.040593,-2.784151 0.334814,-0.57049 0.708024,-1.000181 0.937876,-1.079811 0.209974,-0.07274 1.169623,0.01249 2.132554,0.189409 3.176772,0.583669 4.273127,0.463208 4.54741,-0.499626 0.388882,-1.365144 -1.138013,-2.086895 -4.660063,-2.20277 -0.6433,-0.02115 -1.176628,-0.05867 -1.185182,-0.08336 -0.0084,-0.02468 1.163228,-0.443139 2.603939,-0.929954 l 2.619484,-0.885073 0.221292,-0.557288 c 0.29585,-0.745137 0.068,-1.334094 -0.595653,-1.539959 -0.473821,-0.146969 -0.75701,-0.07978 -3.081677,0.731314 -1.74558,0.609122 -2.578255,0.840227 -2.617545,0.726817 -0.03151,-0.0915 0.211428,-0.446583 0.540321,-0.7891 0.833191,-0.867766 0.83346,-0.867978 0.77391,-0.601746 -0.03525,0.157555 -0.0059,0.179864 0.08739,0.06576 0.07737,-0.09499 0.08204,-0.220534 0.0099,-0.278996 -0.07171,-0.05845 0.116243,-0.273801 0.417768,-0.47855 0.650774,-0.441678 1.512336,-1.971852 1.44686,-2.569125 -0.03144,-0.287296 -0.193943,-0.514761 -0.515021,-0.720904 -0.949466,-0.609661 -2.282993,0.314453 -4.295853,2.976943 -1.05854,1.400173 -1.559106,1.714041 -2.513317,1.575917 -0.895668,-0.129644 -3.556879,0.419702 -5.200161,1.073462 -1.20781,0.480538 -1.793546,0.820787 -2.961969,1.7207 -0.801034,0.616959 -1.589161,1.123424 -1.751381,1.125482 -0.162199,0.0021 -1.521309,-0.15134 -3.020183,-0.340872 -2.341667,-0.296115 -2.798916,-0.304894 -3.248837,-0.06237 -0.71882,0.387456 -0.864473,0.695403 -0.635476,1.343541 0.308033,0.871405 1.586953,1.44291 3.0356,1.356249 1.051837,-0.06292 2.453397,0.188766 2.445158,0.439085 -0.0045,0.135608 -0.79595,0.556657 -2.267106,1.206097 -1.243135,0.548786 -2.394372,1.114551 -2.558307,1.257285 -0.631021,0.549422 -0.351445,1.633087 0.531943,2.061882 0.410801,0.199429 0.534578,0.171195 2.099774,-0.478131 0.914783,-0.379525 1.846662,-0.801538 2.070838,-0.93784 0.718758,-0.436982 0.489277,0.157126 -0.403806,1.045338 -0.984749,0.979418 -1.533993,2.153721 -1.214995,2.597694 0.318661,0.443556 0.839319,0.658951 1.405347,0.581433 0.413699,-0.05666 0.817848,-0.396118 2.247671,-1.887985 z m -2.449539,0.545536 c 0.06662,-0.181054 0.813385,-1.014678 1.659551,-1.852519 1.88188,-1.863374 2.187379,-2.308792 1.98472,-2.893771 -0.08357,-0.241296 -0.254105,-0.461557 -0.378928,-0.48948 -0.287234,-0.06426 -1.114373,0.289853 -2.577508,1.103394 -1.279603,0.711513 -3.79941,1.641951 -3.872825,1.430041 -0.0772,-0.22286 0.309571,-0.468527 1.882477,-1.195736 0.819627,-0.378935 1.980931,-0.941402 2.580679,-1.2499 0.599754,-0.308509 1.218733,-0.622474 1.375493,-0.697717 0.282573,-0.135621 0.36909,-0.370554 0.350046,-0.9505 -0.01505,-0.458244 1.886264,-2.259062 3.067303,-2.905181 0.587347,-0.32133 1.769387,-0.786633 2.74873,-1.082051 1.437732,-0.433682 1.904628,-0.504977 2.860005,-0.43663 0.627969,0.04491 1.383582,0.03674 1.679133,-0.01815 0.508034,-0.0944 0.541667,-0.07101 0.616119,0.428208 0.05041,0.33793 0.168289,0.560236 0.327192,0.617492 0.150631,0.05424 1.538284,-0.351338 3.525146,-1.03032 1.802236,-0.615768 3.330309,-1.093771 3.395828,-1.061943 0.409276,0.198671 -0.450442,0.591424 -3.038297,1.388027 -3.136372,0.965452 -3.47808,1.164145 -3.155415,1.834658 0.201129,0.418071 0.70568,0.518313 4.411443,0.87658 1.441835,0.139389 2.23855,0.461302 1.966879,0.794706 -0.12518,0.153649 -1.607366,-0.02057 -4.204401,-0.494217 -0.905155,-0.165079 -1.810147,-0.24336 -2.011107,-0.173953 -0.214705,0.07414 -0.55396,0.47754 -0.822631,0.978128 -0.828439,1.543501 -1.331772,1.897574 -4.040046,2.841991 -2.28442,0.796377 -2.407842,0.822472 -3.457929,0.717536 -0.598905,-0.05971 -1.398067,-0.264638 -1.775926,-0.455398 -0.377868,-0.190761 -0.763284,-0.320424 -0.856488,-0.288135 -0.09317,0.03228 -0.433773,0.396309 -0.756806,0.808937 -0.92986,1.187759 -3.16354,3.630358 -3.393949,3.711392 -0.177639,0.06247 -0.191113,0.02381 -0.08851,-0.255464 z m 12.595544,-7.958462 c 0.20963,-0.182736 -0.04564,-0.936633 -0.37052,-1.094358 -0.540171,-0.262205 -1.23192,0.300903 -1.042238,0.848431 0.175138,0.505538 0.958577,0.641907 1.412796,0.245917 z m -5.477866,1.594411 c 0.155898,-0.619471 -0.274501,-1.029863 -0.865415,-0.825147 -0.75911,0.262982 -0.827696,0.999677 -0.121062,1.300164 0.516112,0.219465 0.852457,0.05751 0.986477,-0.475017 z m -6.303548,-0.865093 c -0.689482,-0.08647 -1.785491,-0.157609 -2.43558,-0.158058 -1.279425,-9e-4 -2.649133,-0.454942 -2.196905,-0.728244 0.136345,-0.0824 0.511725,-0.111335 0.834237,-0.06431 0.322505,0.04703 1.06863,0.142458 1.658056,0.212099 0.589425,0.06962 1.31784,0.169615 1.618698,0.222176 0.300835,0.05255 0.873367,0.145211 1.272234,0.205899 1.116156,0.169819 1.169976,0.191683 1.160762,0.471553 -0.0076,0.227805 -0.05082,0.244579 -0.333322,0.128836 -0.178533,-0.07308 -0.888754,-0.203621 -1.578233,-0.290094 z m 13.372184,-4.667189 c -0.01979,-0.05677 1.446428,-1.855035 2.404404,-2.949081 0.230694,-0.263503 0.264432,-0.278134 0.135881,-0.05891 -0.09401,0.160292 -0.169525,0.389348 -0.167732,0.50901 0.0019,0.119654 -0.478404,0.716674 -1.067079,1.326704 -1.095595,1.135353 -1.265368,1.287829 -1.305368,1.172364 z m 2.980488,-3.337357 c -0.197573,-0.04652 -0.193801,-0.139953 0.01669,-0.43155 0.148064,-0.204705 0.403571,-0.418704 0.567759,-0.475584 0.279893,-0.09697 0.284376,-0.07177 0.07175,0.403396 -0.249928,0.558746 -0.290686,0.589946 -0.656629,0.503741 z"
       id="path1-26" />
    <rect
       style="opacity:0.5;fill:none;fill-opacity:1;stroke:#000000;stroke-width:2.72727;stroke-dasharray:none;stroke-opacity:1;filter:url(#filter1-3)"
       id="rect1-5-5"
       width="49.090908"
       height="49.090908"
       x="7.4405394"
       y="7.4604964"
       rx="7.4768682"
       ry="7.477273"
       transform="matrix(0.43046721,0,0,0.43046721,34.695898,34.707264)" />
    <rect
       style="fill:#c4c2c5;fill-opacity:1;stroke:#1e2430;stroke-width:1.174;stroke-dasharray:none;stroke-opacity:1"
       id="rect1-3"
       width="21.132023"
       height="21.132023"
       x="37.898808"
       y="37.918762"
       rx="3.2185469"
       ry="3.2187209" />
    <rect
       style="fill:#1e2430;fill-opacity:1;stroke:none;stroke-width:1.00656;stroke-dasharray:none;stroke-opacity:1"
       id="rect1-6-5"
       width="18.118069"
       height="18.118069"
       x="39.405781"
       y="39.425739"
       rx="2.4074855"
       ry="2.4074855" />
    <path
       id="path1"
       style="fill:#f4e3cf;fill-opacity:1;stroke:none;stroke-width:0.181638;stroke-dasharray:none;stroke-dashoffset:2.2;stroke-opacity:0.6"
       d="m 51.778779,43.941045 c -0.187252,-8.1e-5 -0.387675,0.07531 -0.638521,0.222291 -0.596919,0.349749 -1.377579,0.514692 -2.44963,0.514692 -1.071954,0 -1.878654,-0.168464 -2.472018,-0.516184 -0.475801,-0.278826 -0.759862,-0.282522 -1.159175,-0.01336 -1.025175,0.690863 -1.797804,2.90589 -2.024459,5.800365 -0.135901,1.735692 -0.0089,2.650757 0.440096,3.165728 0.216586,0.248286 0.748267,0.206204 1.227806,-0.09847 0.406495,-0.258249 0.890832,-0.828123 1.469484,-1.729077 0.522892,-0.81415 1.155362,-1.082294 2.554068,-1.084584 1.395926,-0.0021 1.944506,0.26195 2.588383,1.251671 1.08027,1.660535 2.078776,2.238636 2.664465,1.542581 0.324469,-0.385605 0.383859,-0.758167 0.368487,-2.309398 -0.028,-2.817903 -0.76459,-5.381404 -1.826034,-6.359807 C 52.239036,44.06691 52.019542,43.9412 51.778779,43.9411 Z m -6.06442,1.660439 h 0.647469 0.647466 v 0.554974 0.554973 h 0.554977 0.554971 v 0.693717 0.693714 h -0.554971 -0.554977 v 0.601222 0.601221 h -0.586297 c -0.322099,0 -0.612073,-0.02889 -0.645977,-0.06265 -0.0339,-0.03389 -0.06262,-0.303056 -0.06262,-0.599727 V 48.098857 H 45.159418 44.604442 V 47.405144 46.71143 h 0.554976 0.55497 v -0.55498 z m 5.278213,0 c 0.5841,0 0.834244,0.647172 0.413247,1.068174 -0.26774,0.267713 -0.512097,0.288754 -0.77577,0.06565 -0.457352,-0.386999 -0.218646,-1.133819 0.362523,-1.133819 z m -1.123373,1.18603 c 0.145866,1.01e-4 0.292703,0.05822 0.408766,0.186472 0.180933,0.199943 0.20047,0.65765 0.03732,0.871247 -0.319324,0.418037 -1.086073,0.14915 -1.086073,-0.380423 0,-0.401918 0.319131,-0.677526 0.640008,-0.677304 z m 2.292994,0.02255 c 0.168103,0.0031 0.331322,0.05875 0.426667,0.164095 0.180934,0.199943 0.200443,0.65765 0.0373,0.87125 -0.339646,0.444632 -1.086079,0.147034 -1.086079,-0.432643 0,-0.1757 0.07042,-0.36615 0.168576,-0.455016 0.112217,-0.101585 0.285435,-0.150764 0.45353,-0.147674 z m -1.12934,1.19647 c 0.517834,0 0.769797,0.549277 0.456506,0.996564 -0.107097,0.152907 -0.23771,0.20587 -0.507235,0.20587 -0.310298,0 -0.382306,-0.04038 -0.507228,-0.281972 -0.246338,-0.476336 0.02255,-0.920482 0.557957,-0.920482 z" />
  </g>
</svg>
