<?xml version="1.0" encoding="UTF-8" standalone="no"?>
<svg
   width="128"
   height="128"
   version="1.1"
   id="svg73"
   sodipodi:docname="user-desktop.svg"
   inkscape:version="1.2.2 (b0a8486541, 2022-12-01)"
   xmlns:inkscape="http://www.inkscape.org/namespaces/inkscape"
   xmlns:sodipodi="http://sodipodi.sourceforge.net/DTD/sodipodi-0.dtd"
   xmlns:xlink="http://www.w3.org/1999/xlink"
   xmlns="http://www.w3.org/2000/svg"
   xmlns:svg="http://www.w3.org/2000/svg"
   xmlns:rdf="http://www.w3.org/1999/02/22-rdf-syntax-ns#"
   xmlns:cc="http://creativecommons.org/ns#"
   xmlns:dc="http://purl.org/dc/elements/1.1/">
  <metadata
     id="metadata77">
    <rdf:RDF>
      <cc:Work
         rdf:about="">
        <dc:format>image/svg+xml</dc:format>
        <dc:type
           rdf:resource="http://purl.org/dc/dcmitype/StillImage" />
      </cc:Work>
    </rdf:RDF>
  </metadata>
  <sodipodi:namedview
     pagecolor="#f5f7fa"
     bordercolor="#666666"
     borderopacity="1"
     objecttolerance="10"
     gridtolerance="10"
     guidetolerance="10"
     inkscape:pageopacity="0"
     inkscape:pageshadow="2"
     inkscape:window-width="1226"
     inkscape:window-height="605"
     id="namedview75"
     showgrid="false"
     inkscape:zoom="4.4470387"
     inkscape:cx="23.611218"
     inkscape:cy="25.185299"
     inkscape:window-x="35"
     inkscape:window-y="32"
     inkscape:window-maximized="0"
     inkscape:current-layer="g877"
     inkscape:document-rotation="0"
     inkscape:pagecheckerboard="0"
     inkscape:showpageshadow="2"
     inkscape:deskcolor="#d1d1d1" />
  <defs
     id="defs29">
    <linearGradient
       id="linearGradient1"
       inkscape:collect="always">
      <stop
         style="stop-color:#b2b2b2;stop-opacity:1;"
         offset="0"
         id="stop1-3" />
      <stop
         style="stop-color:#ffffff;stop-opacity:1;"
         offset="1"
         id="stop2-6" />
    </linearGradient>
    <linearGradient
       inkscape:collect="always"
       xlink:href="#linearGradient1"
       id="linearGradient7"
       gradientUnits="userSpaceOnUse"
       x1="-11.836824"
       y1="-49.950535"
       x2="-11.840569"
       y2="-53.775551" />
    <filter
       style="color-interpolation-filters:sRGB;"
       inkscape:label="Blur"
       id="filter3594"
       x="-0.087977195"
       y="-0.10987104"
       width="1.1759544"
       height="1.2197421">
      <feGaussianBlur
         stdDeviation="2 2"
         result="blur"
         id="feGaussianBlur3592" />
    </filter>
    <filter
       style="color-interpolation-filters:sRGB;"
       inkscape:label="Blur"
       id="filter3845"
       x="-0.17365757"
       y="-0.18072268"
       width="1.3473151"
       height="1.3614454">
      <feGaussianBlur
         stdDeviation="1.4 1.4"
         result="blur"
         id="feGaussianBlur3843" />
    </filter>
  </defs>
  <g
     id="g877"
     transform="matrix(1.1,0,0,1.1,-3.1845928,-3.2065454)">
    <path
       style="fill:#f5f7fa;stroke-width:0.204426;fill-opacity:1"
       d=""
       id="path3" />
    <g
       transform="matrix(3.0924016,0,0,3.4016418,57.097122,202.44137)"
       fill="url(#linearGradient939)"
       stroke-width="0.66145"
       id="g46-5"
       style="fill:url(#linearGradient7);fill-opacity:1" />
    <g
       id="g7875"
       transform="matrix(2,0,0,2,-2.8946761,-9.2004759)">
      <g
         id="g3190-3"
         style="opacity:0.5;fill:#000000;fill-opacity:1;filter:url(#filter3594)"
         transform="matrix(0.9,0,0,0.9,3.198579,3.3112496)">
        <rect
           style="fill:#000000;fill-opacity:1;stroke:none;stroke-width:4.84226;stroke-dasharray:none;stroke-dashoffset:0;stroke-opacity:1"
           id="rect1-6-6"
           width="54.559185"
           height="38.678539"
           x="4.7064018"
           y="16.277748"
           rx="5.0898719"
           ry="4.5788488" />
        <g
           transform="matrix(3.4016418,0,0,3.741806,59.608152,219.37426)"
           fill="url(#linearGradient939)"
           stroke-width="0.66145"
           id="g46-7"
           style="fill:#000000;fill-opacity:1">
          <path
             d="m -8.2026,-51.317 h -7.9373 v -3.6379 c 0,-0.36531 0.29614,-0.66144 0.66144,-0.66144 h 5.6223 l 1.6536,1.3229 z"
             fill="url(#linearGradient939)"
             id="path44-5"
             style="fill:#000000;fill-opacity:1" />
        </g>
      </g>
      <g
         id="g3190"
         style="fill:#f4e3cf;fill-opacity:1"
         transform="matrix(0.9,0,0,0.9,3.198579,3.3112496)">
        <rect
           style="fill:#f4e3cf;fill-opacity:1;stroke:none;stroke-width:4.84226;stroke-dasharray:none;stroke-dashoffset:0;stroke-opacity:1"
           id="rect1-6"
           width="54.559185"
           height="38.678539"
           x="4.7064018"
           y="16.277748"
           rx="5.0898719"
           ry="4.5788488" />
        <g
           transform="matrix(3.4016418,0,0,3.741806,59.608152,219.37426)"
           fill="url(#linearGradient939)"
           stroke-width="0.66145"
           id="g46"
           style="fill:#f4e3cf;fill-opacity:1">
          <path
             d="m -8.2026,-51.317 h -7.9373 v -3.6379 c 0,-0.36531 0.29614,-0.66144 0.66144,-0.66144 h 5.6223 l 1.6536,1.3229 z"
             fill="url(#linearGradient939)"
             id="path44"
             style="fill:#f4e3cf;fill-opacity:1" />
        </g>
      </g>
      <rect
         style="fill:#1e2430;fill-opacity:1;stroke:none;stroke-width:1.71818;stroke-dasharray:none;stroke-dashoffset:0;stroke-opacity:1"
         id="rect1-6-7"
         width="44.315693"
         height="28.274982"
         x="9.828125"
         y="21.229078"
         rx="3.8286078"
         ry="3.2475357" />
      <rect
         style="opacity:0.5;fill:#000000;fill-opacity:1;stroke:#000000;stroke-width:1.35517;stroke-dasharray:none;stroke-opacity:1;filter:url(#filter3845)"
         id="rect1597-3"
         width="23.250267"
         height="22.34133"
         x="16.72477"
         y="34.785336"
         ry="2.3959041"
         rx="2.3959041" />
      <rect
         style="fill:#1e2430;fill-opacity:1;stroke:#f4e3cf;stroke-width:1.35517;stroke-dasharray:none;stroke-opacity:1"
         id="rect1597"
         width="23.250267"
         height="22.34133"
         x="16.72477"
         y="34.785336"
         ry="2.3959041"
         rx="2.3959041" />
      <g
         id="g1-6"
         transform="matrix(0.27113237,0,0,0.27113237,19.855788,36.957458)"
         style="fill:#f4e3cf;fill-opacity:1;stroke:none;stroke-width:1.00588;stroke-dasharray:none;stroke-opacity:0.6">
        <path
           style="color:#232629;fill:#f4e3cf;fill-opacity:1;stroke:none;stroke-width:1.00588;stroke-dasharray:none;stroke-opacity:0.6"
           d="m 18.167479,7.8235565 c -1.907934,0 -3.454622,1.5466834 -3.454627,3.4546175 -3e-6,1.90794 1.546687,3.454632 3.454627,3.454632 1.907941,2e-6 3.454634,-1.546691 3.454631,-3.454632 -5e-6,-1.9079357 -1.546695,-3.4546197 -3.454631,-3.4546175 z M 10.394574,26.824005 c -2.3849296,-3e-6 -4.3182962,1.933368 -4.3182881,4.318298 5.1e-6,2.38492 1.9333678,4.318277 4.3182881,4.318274 2.384916,-3e-6 4.318273,-1.933358 4.318278,-4.318274 8e-6,-2.384926 -1.933352,-4.318295 -4.318278,-4.318298 z m 16.409469,17.27315 c -3.815874,0 -6.909251,3.093377 -6.909252,6.909251 -2e-6,3.815876 3.093376,6.909257 6.909252,6.909257 3.815877,10e-7 6.909256,-3.09338 6.909254,-6.909257 -10e-7,-3.815875 -3.093379,-6.909252 -6.909254,-6.909251 z"
           class="ColorScheme-Text"
           id="path5-4"
           sodipodi:nodetypes="sssssssssssssss" />
        <circle
           style="opacity:1;fill:#f4e3cf;fill-opacity:1;stroke:none;stroke-width:1.00588;stroke-dasharray:none;stroke-opacity:0.6"
           id="path1"
           cx="41.273403"
           cy="25.609566"
           r="16.363636" />
      </g>
    </g>
  </g>
</svg>
