<?xml version="1.0" encoding="UTF-8" standalone="no"?>
<svg
   width="64"
   height="64"
   version="1.1"
   viewBox="0 0 16.933 16.933"
   id="svg7"
   sodipodi:docname="steam_tray_mono.svg"
   inkscape:version="1.4.2 (ebf0e940d0, 2025-05-08)"
   xmlns:inkscape="http://www.inkscape.org/namespaces/inkscape"
   xmlns:sodipodi="http://sodipodi.sourceforge.net/DTD/sodipodi-0.dtd"
   xmlns="http://www.w3.org/2000/svg"
   xmlns:svg="http://www.w3.org/2000/svg"
   xmlns:rdf="http://www.w3.org/1999/02/22-rdf-syntax-ns#"
   xmlns:cc="http://creativecommons.org/ns#"
   xmlns:dc="http://purl.org/dc/elements/1.1/">
  <sodipodi:namedview
     id="namedview7"
     pagecolor="#9c4444"
     bordercolor="#000000"
     borderopacity="0.25"
     inkscape:showpageshadow="2"
     inkscape:pageopacity="0.0"
     inkscape:pagecheckerboard="0"
     inkscape:deskcolor="#d1d1d1"
     inkscape:zoom="4.3531261"
     inkscape:cx="36.525475"
     inkscape:cy="25.958357"
     inkscape:window-width="1024"
     inkscape:window-height="621"
     inkscape:window-x="24"
     inkscape:window-y="21"
     inkscape:window-maximized="0"
     inkscape:current-layer="svg7"
     showgrid="false" />
  <defs
     id="defs2">
    <filter
       style="color-interpolation-filters:sRGB;"
       inkscape:label="Blur"
       id="filter3"
       x="-0.10843471"
       y="-0.10870992"
       width="1.2168694"
       height="1.2174198">
      <feGaussianBlur
         stdDeviation="0.5 0.5"
         result="blur"
         id="feGaussianBlur3" />
    </filter>
    <filter
       style="color-interpolation-filters:sRGB"
       inkscape:label="Blur"
       id="filter3-8"
       x="-0.10843471"
       y="-0.10870992"
       width="1.2168694"
       height="1.2174198">
      <feGaussianBlur
         stdDeviation="0.5 0.5"
         result="blur"
         id="feGaussianBlur3-7" />
    </filter>
  </defs>
  <metadata
     id="metadata2">
    <rdf:RDF>
      <cc:Work
         rdf:about="">
        <dc:format>image/svg+xml</dc:format>
        <dc:type
           rdf:resource="http://purl.org/dc/dcmitype/StillImage" />
      </cc:Work>
    </rdf:RDF>
  </metadata>
  <path
     id="path1-3"
     style="opacity:1;fill:#ffffff;fill-opacity:1;stroke:none;stroke-width:0.200584;stroke-dasharray:none;stroke-dashoffset:2.2;stroke-opacity:0.6"
     d="m 13.018127,1.6247958 c -0.272467,-1.147e-4 -0.564121,0.1096055 -0.929139,0.3234738 -0.868601,0.508932 -2.004575,0.7489519 -3.5645687,0.7489519 -1.5598426,0 -2.733711,-0.2451269 -3.5971439,-0.7511228 C 4.2349159,1.5403673 3.8215692,1.5349901 3.24051,1.9267694 1.7487351,2.9320729 0.62444631,6.1552575 0.29462682,10.367139 0.09684477,12.892817 0.28159754,14.22437 0.93503351,14.973732 1.2501921,15.335022 2.0238658,15.273777 2.721664,14.830451 3.3131769,14.454654 4.0179602,13.625418 4.8599793,12.314386 5.6208631,11.129683 6.541201,10.739494 8.5765208,10.736158 c 2.0312692,-0.003 2.8295372,0.381153 3.7664682,1.821364 1.57195,2.416315 3.024923,3.257535 3.877187,2.244677 0.472147,-0.561103 0.558562,-1.103233 0.5362,-3.360504 C 16.715632,7.3412495 15.643786,3.6109885 14.099226,2.1872632 13.687864,1.8080813 13.368474,1.6251516 13.018127,1.6250043 Z M 4.1935218,4.0409795 H 5.1356815 6.0778413 V 4.848546 5.6561142 H 6.8854088 7.6929747 V 6.6655724 7.6750287 H 6.8854088 6.0778413 V 8.5498902 9.424754 H 5.2246899 C 4.7559876,9.424754 4.334036,9.382738 4.2846964,9.333589 4.2353834,9.2842763 4.1935306,8.8926034 4.1935306,8.4609028 V 7.6750287 H 3.3859549 2.5783864 V 6.6655724 5.6561142 H 3.3859549 4.1935218 V 4.848546 Z m 7.6805582,0 c 0.849956,0 1.213949,0.9417286 0.601333,1.5543507 -0.389608,0.3895566 -0.745168,0.4201776 -1.128853,0.095529 -0.665511,-0.5631339 -0.318138,-1.6498664 0.52752,-1.6498664 z m -1.634667,1.7258473 c 0.212233,1.472e-4 0.425927,0.084745 0.594818,0.2713403 0.263277,0.2909194 0.291713,0.9569809 0.0543,1.2677945 -0.464659,0.6083005 -1.5803968,0.2170256 -1.5803968,-0.5535723 0,-0.5848516 0.4643866,-0.9858982 0.9313038,-0.9855792 z m 3.336638,0.032779 c 0.244647,0.00462 0.482121,0.085485 0.620866,0.2387827 0.263268,0.2909202 0.291708,0.956977 0.05424,1.2677949 -0.494226,0.6470061 -1.580395,0.2139546 -1.580395,-0.6295561 0,-0.2556742 0.102454,-0.5328015 0.2453,-0.6621168 0.163317,-0.1477945 0.41535,-0.2193762 0.659946,-0.2149187 z m -1.643357,1.7410379 c 0.753525,0 1.120169,0.7992755 0.664288,1.4501471 -0.155859,0.2224846 -0.34591,0.2995742 -0.738103,0.2995742 -0.451528,0 -0.556307,-0.058766 -0.73809,-0.4103121 -0.358428,-0.6931382 0.03276,-1.3394309 0.811905,-1.3394309 z" />
</svg>
