<?xml version="1.0" encoding="UTF-8" standalone="no"?>
<svg
   height="16px"
   viewBox="0 0 16 16"
   width="16px"
   version="1.1"
   id="svg27"
   sodipodi:docname="xsi-bookmark-missing-symbolic.svg"
   inkscape:version="1.2.2 (b0a8486541, 2022-12-01)"
   xmlns:inkscape="http://www.inkscape.org/namespaces/inkscape"
   xmlns:sodipodi="http://sodipodi.sourceforge.net/DTD/sodipodi-0.dtd"
   xmlns="http://www.w3.org/2000/svg"
   xmlns:svg="http://www.w3.org/2000/svg">
  <defs
     id="defs31" />
  <sodipodi:namedview
     id="namedview29"
     pagecolor="#ffffff"
     bordercolor="#000000"
     borderopacity="0.25"
     inkscape:showpageshadow="2"
     inkscape:pageopacity="0.0"
     inkscape:pagecheckerboard="0"
     inkscape:deskcolor="#d1d1d1"
     showgrid="false"
     inkscape:zoom="26.25"
     inkscape:cx="-1.6190476"
     inkscape:cy="3.0095238"
     inkscape:window-width="1920"
     inkscape:window-height="982"
     inkscape:window-x="1920"
     inkscape:window-y="26"
     inkscape:window-maximized="1"
     inkscape:current-layer="svg27" />
  <g
     fill="#2e3436"
     id="g25">
    <path
       d="m 1 4 v 1 h 8 v -1 z m 0 0"
       id="path21" />
    <path
       id="path23"
       d="M 3 1 C 1.3554722 1 0 2.3554722 0 4 L 0 12 C 0 13.644527 1.3554722 15 3 15 L 7 15 L 7 13 L 3 13 C 2.4375012 13 2 12.566404 2 12 L 2 4 C 2 3.4375012 2.4375012 3 3 3 L 6.5859375 3 L 8.2929688 4.7070312 C 8.4804684 4.894531 8.7343756 5 9 5 L 13 5 C 13.562498 5 14 5.4375012 14 6 L 16 6 C 16 4.3554722 14.644527 3 13 3 L 9.4140625 3 L 7.7070312 1.2929688 C 7.5195316 1.105469 7.2656244 1 7 1 L 3 1 z " />
  </g>
  <path
     class="warning"
     inkscape:connector-curvature="0"
     d="M 8.875,7 C 8.38255,7 8,7.38256 8,7.875 v 6.249988 C 8,14.61744 8.38255,15 8.875,15 h 6.249988 C 15.617448,15 16,14.61744 16,14.124988 V 7.875 C 16,7.38256 15.617448,7 15.124988,7 Z m 2.124999,0.9999998 h 2.000002 v 3.9999992 h -2.000002 z m 0,5.0000002 h 2.000002 v 1 h -2.000002 z"
     id="rect6718-3"
     sodipodi:nodetypes="ccccccccccccccccccc"
     style="color:#bebebe;display:inline;overflow:visible;visibility:visible;fill:#f57900;fill-opacity:1;fill-rule:nonzero;stroke:none;stroke-width:2.00001;marker:none" />
</svg>
