<?xml version="1.0" encoding="UTF-8" standalone="no"?>
<svg
   width="16"
   height="16"
   version="1.1"
   id="svg4744"
   sodipodi:docname="xsi-temperature-symbolic.svg"
   inkscape:version="1.2.2 (b0a8486541, 2022-12-01)"
   xmlns:inkscape="http://www.inkscape.org/namespaces/inkscape"
   xmlns:sodipodi="http://sodipodi.sourceforge.net/DTD/sodipodi-0.dtd"
   xmlns="http://www.w3.org/2000/svg"
   xmlns:svg="http://www.w3.org/2000/svg">
  <defs
     id="defs4748" />
  <sodipodi:namedview
     id="namedview4746"
     pagecolor="#ffffff"
     bordercolor="#666666"
     borderopacity="1.0"
     inkscape:showpageshadow="2"
     inkscape:pageopacity="0.0"
     inkscape:pagecheckerboard="0"
     inkscape:deskcolor="#d1d1d1"
     showgrid="true"
     inkscape:zoom="16.046875"
     inkscape:cx="4.2999026"
     inkscape:cy="8.4751704"
     inkscape:window-width="2560"
     inkscape:window-height="1348"
     inkscape:window-x="2560"
     inkscape:window-y="0"
     inkscape:window-maximized="1"
     inkscape:current-layer="svg4744">
    <inkscape:grid
       type="xygrid"
       id="grid428" />
  </sodipodi:namedview>
  <g
     id="SVGRepo_bgCarrier"
     stroke-width="0"
     transform="translate(-125.90513,-117.21135)" />
  <g
     id="SVGRepo_tracerCarrier"
     stroke-linecap="round"
     stroke-linejoin="round"
     transform="translate(-125.90513,-117.21135)" />
  <g
     id="SVGRepo_bgCarrier-3"
     stroke-width="0"
     transform="matrix(0.08326533,0,0,0.08326533,-13.762625,0.05501215)" />
  <g
     id="SVGRepo_tracerCarrier-6"
     stroke-linecap="round"
     stroke-linejoin="round"
     transform="matrix(0.08326533,0,0,0.08326533,-13.762625,0.05501215)" />
  <g
     id="SVGRepo_bgCarrier-5"
     stroke-width="0"
     transform="matrix(0.02929813,0,0,0.02929813,-129.84087,-238.27484)" />
  <g
     id="SVGRepo_tracerCarrier-3"
     stroke-linecap="round"
     stroke-linejoin="round"
     transform="matrix(0.02929813,0,0,0.02929813,-129.84087,-238.27484)" />
  <g
     id="SVGRepo_iconCarrier"
     transform="matrix(0.02929813,0,0,0.02929813,0.49998973,0.500001)"
     inkscape:transform-center-x="80.37952"
     inkscape:transform-center-y="-193.13076"
     style="fill:#222222;fill-opacity:1"> <g
   id="g1146"
   style="fill:#222222;fill-opacity:1"> <g
   id="g1144"
   style="fill:#222222;fill-opacity:1"> <path
   d="M 341.337,288.576 V 85.333 C 341.337,38.272 303.065,0 256.004,0 208.943,0 170.671,38.272 170.671,85.333 v 203.243 c -27.243,24.256 -42.667,58.475 -42.667,95.424 0,38.699 17.237,74.923 47.296,99.349 23.019,18.709 51.499,28.629 80.896,28.629 9.003,0 18.069,-0.939 27.115,-2.816 49.856,-10.411 89.451,-51.157 98.539,-101.44 8.106,-44.778 -7.318,-89.471 -40.513,-119.146 z m -85.333,138.091 c -23.573,0 -42.667,-19.093 -42.667,-42.667 0,-15.744 8.64,-29.355 21.333,-36.757 V 192 c 0,-11.776 9.536,-21.333 21.333,-21.333 11.797,0 21.333,9.557 21.333,21.333 v 155.243 c 12.693,7.403 21.333,21.013 21.333,36.757 0.002,23.573 -19.091,42.667 -42.665,42.667 z"
   id="path1142"
   style="fill:#222222;fill-opacity:1" />
 </g>
 </g>
 </g>
</svg>
