<?xml version="1.0" encoding="UTF-8" standalone="no"?>
<svg
   width="16"
   height="16"
   viewBox="0 0 16 16"
   version="1.1"
   id="svg7"
   sodipodi:docname="xsi-user-favorites-symbolic.svg"
   inkscape:version="1.2.2 (b0a8486541, 2022-12-01)"
   xmlns:inkscape="http://www.inkscape.org/namespaces/inkscape"
   xmlns:sodipodi="http://sodipodi.sourceforge.net/DTD/sodipodi-0.dtd"
   xmlns="http://www.w3.org/2000/svg"
   xmlns:svg="http://www.w3.org/2000/svg"
   xmlns:rdf="http://www.w3.org/1999/02/22-rdf-syntax-ns#"
   xmlns:cc="http://creativecommons.org/ns#"
   xmlns:dc="http://purl.org/dc/elements/1.1/">
  <sodipodi:namedview
     pagecolor="#ffffff"
     bordercolor="#666666"
     borderopacity="1"
     objecttolerance="10"
     gridtolerance="10"
     guidetolerance="10"
     inkscape:pageopacity="0"
     inkscape:pageshadow="2"
     inkscape:window-width="1920"
     inkscape:window-height="982"
     id="namedview7"
     showgrid="false"
     inkscape:zoom="37.299882"
     inkscape:cx="1.3538917"
     inkscape:cy="9.2761688"
     inkscape:window-x="1920"
     inkscape:window-y="26"
     inkscape:window-maximized="1"
     inkscape:current-layer="svg7"
     inkscape:showpageshadow="2"
     inkscape:pagecheckerboard="0"
     inkscape:deskcolor="#d1d1d1" />
  <metadata
     id="metadata11">
    <rdf:RDF>
      <cc:Work
         rdf:about="">
        <dc:format>image/svg+xml</dc:format>
        <dc:type
           rdf:resource="http://purl.org/dc/dcmitype/StillImage" />
      </cc:Work>
    </rdf:RDF>
  </metadata>
  <defs
     id="defs3">
    <style
       id="current-color-scheme"
       type="text/css">
   .ColorScheme-Text { color:#404040; } .ColorScheme-Highlight { color:#5294e2; }
  </style>
  </defs>
  <path
     id="path1307-0"
     style="display:inline;overflow:visible;visibility:visible;fill:#bebebe;fill-opacity:1;fill-rule:nonzero;stroke:none;stroke-width:0.99227;stroke-linecap:butt;stroke-linejoin:round;stroke-miterlimit:4;stroke-dasharray:none;stroke-dashoffset:0;stroke-opacity:0.498039;marker:none"
     d="M 8 0.49609375 C 7.4935614 0.49609375 5.860889 4.7791535 5.4511719 5.0917969 C 5.0414539 5.4044395 0.65845127 5.7128836 0.50195312 6.21875 C 0.3454549 6.7246171 3.7185019 9.6777274 3.875 10.183594 C 4.031498 10.689459 2.5902826 15.163921 3 15.476562 C 3.409718 15.789207 7.4935614 13.332031 8 13.332031 C 8.5064393 13.332031 12.590282 15.789207 13 15.476562 C 13.409718 15.163921 11.968502 10.68946 12.125 10.183594 C 12.281498 9.6777274 15.654546 6.724617 15.498047 6.21875 C 15.341549 5.7128828 10.958545 5.4044395 10.548828 5.0917969 C 10.13911 4.7791535 8.5064385 0.49609375 8 0.49609375 z M 8 3.6953125 C 8.3039646 3.6953125 9.2833836 6.2674295 9.5292969 6.4550781 C 9.7752089 6.6427263 12.406069 6.8272377 12.5 7.1308594 C 12.59393 7.434481 10.570492 9.2061444 10.476562 9.5097656 C 10.382633 9.8133869 11.247866 12.499853 11.001953 12.6875 C 10.75604 12.875151 8.3039651 11.400391 8 11.400391 C 7.6960353 11.400391 5.2439598 12.875151 4.9980469 12.6875 C 4.7521343 12.499853 5.6173677 9.8133863 5.5234375 9.5097656 C 5.4295073 9.2061444 3.4060697 7.4344811 3.5 7.1308594 C 3.5939303 6.8272382 6.2247903 6.6427263 6.4707031 6.4550781 C 6.7166154 6.2674295 7.6960353 3.6953125 8 3.6953125 z " />
</svg>
