<?xml version="1.0" encoding="UTF-8" standalone="no"?>
<svg
   width="64"
   height="64"
   version="1.1"
   id="svg73"
   sodipodi:docname="chromium.svg"
   inkscape:version="1.2.2 (b0a8486541, 2022-12-01)"
   xmlns:inkscape="http://www.inkscape.org/namespaces/inkscape"
   xmlns:sodipodi="http://sodipodi.sourceforge.net/DTD/sodipodi-0.dtd"
   xmlns="http://www.w3.org/2000/svg"
   xmlns:svg="http://www.w3.org/2000/svg"
   xmlns:rdf="http://www.w3.org/1999/02/22-rdf-syntax-ns#"
   xmlns:cc="http://creativecommons.org/ns#"
   xmlns:dc="http://purl.org/dc/elements/1.1/">
  <metadata
     id="metadata77">
    <rdf:RDF>
      <cc:Work
         rdf:about="">
        <dc:format>image/svg+xml</dc:format>
        <dc:type
           rdf:resource="http://purl.org/dc/dcmitype/StillImage" />
      </cc:Work>
    </rdf:RDF>
  </metadata>
  <sodipodi:namedview
     pagecolor="#f5f7fa"
     bordercolor="#666666"
     borderopacity="1"
     objecttolerance="10"
     gridtolerance="10"
     guidetolerance="10"
     inkscape:pageopacity="0"
     inkscape:pageshadow="2"
     inkscape:window-width="1280"
     inkscape:window-height="603"
     id="namedview75"
     showgrid="false"
     inkscape:zoom="6.2890625"
     inkscape:cx="56.288199"
     inkscape:cy="37.843478"
     inkscape:window-x="35"
     inkscape:window-y="32"
     inkscape:window-maximized="0"
     inkscape:current-layer="g877"
     inkscape:document-rotation="0"
     inkscape:pagecheckerboard="0"
     inkscape:showpageshadow="2"
     inkscape:deskcolor="#d1d1d1" />
  <defs
     id="defs29">
    <filter
       style="color-interpolation-filters:sRGB;"
       inkscape:label="Blur"
       id="filter1"
       x="-0.091333304"
       y="-0.091333304"
       width="1.1826666"
       height="1.1826666">
      <feGaussianBlur
         stdDeviation="1.3 1.3"
         result="blur"
         id="feGaussianBlur1" />
    </filter>
  </defs>
  <circle
     cx="32.516094"
     cy="31.877844"
     r="0"
     fill="url(#b)"
     stroke-width="1.5715"
     id="circle41"
     style="fill:url(#b)" />
  <g
     aria-label="GZ"
     transform="matrix(1.2212657,0,0,0.81882264,0.4960938,-0.1661539)"
     id="text93"
     style="font-weight:bold;font-size:11.5263px;line-height:1.25;font-family:sans-serif;-inkscape-font-specification:'sans-serif Bold';fill:#f2f2f2;stroke-width:0.288159" />
  <g
     id="g877"
     transform="matrix(1.1,0,0,1.1,-3.1845928,-3.2065454)">
    <rect
       style="fill:none;fill-opacity:1;stroke:#000000;stroke-width:2.72727;stroke-dasharray:none;stroke-opacity:1;filter:url(#filter1);opacity:0.5"
       id="rect1-5"
       width="49.090908"
       height="49.090908"
       x="7.4405394"
       y="7.4604964"
       rx="7.4768682"
       ry="7.477273" />
    <rect
       style="opacity:1;fill:#c4c2c5;stroke-width:2.72727273;stroke-opacity:1;fill-opacity:1;stroke:#1e2430;stroke-dasharray:none"
       id="rect1"
       width="49.090908"
       height="49.090908"
       x="7.4405394"
       y="7.4604964"
       rx="7.4768682"
       ry="7.477273" />
    <rect
       style="fill:#1e2430;fill-opacity:1;stroke:none;stroke-width:2.33829;stroke-dasharray:none;stroke-opacity:1"
       id="rect1-6"
       width="42.089317"
       height="42.089317"
       x="10.941335"
       y="10.961291"
       rx="5.5927272"
       ry="5.5927272" />
    <path
       style="color:#000000;clip-rule:nonzero;display:inline;overflow:visible;visibility:visible;isolation:auto;mix-blend-mode:normal;color-interpolation:sRGB;color-interpolation-filters:linearRGB;solid-color:#000000;solid-opacity:1;fill:#f4e3cf;fill-opacity:1;fill-rule:nonzero;stroke:none;stroke-width:0.433252;stroke-linecap:butt;stroke-linejoin:miter;stroke-miterlimit:4;stroke-dasharray:none;stroke-dashoffset:0;stroke-opacity:0.6;marker:none;color-rendering:auto;image-rendering:auto;shape-rendering:auto;text-rendering:auto;enable-background:accumulate"
       d="m 30.069268,18.184831 c -0.344946,0 -0.6324,1.372424 -0.801136,3.333809 a 10.541997,10.859454 0 0 0 -2.547523,1.102913 c -1.471611,-1.270505 -2.621154,-2.037429 -2.865728,-1.785488 l -2.712244,2.79392 c -0.244579,0.251934 0.499928,1.4361 1.733288,2.952026 a 10.541997,10.859454 0 0 0 -1.061313,2.624241 c -1.909379,0.173647 -3.245705,0.469327 -3.245705,0.825258 v 3.948887 c 0,0.355333 1.332302,0.651446 3.236348,0.825262 a 10.541997,10.859454 0 0 0 1.066927,2.63002 c -1.230557,1.513205 -1.973828,2.694598 -1.729545,2.946235 l 2.712244,2.793915 c 0.244043,0.251412 1.389461,-0.512411 2.856371,-1.777767 a 10.541997,10.859454 0 0 0 2.55688,1.085558 c 0.16857,1.966884 0.455614,3.343451 0.801136,3.343451 h 3.833451 c 0.344946,0 0.632402,-1.372426 0.801134,-3.333807 a 10.541997,10.859454 0 0 0 2.547526,-1.10291 c 1.471615,1.270503 2.621151,2.037421 2.865732,1.785474 l 2.712247,-2.793914 c 0.244578,-0.251875 -0.499934,-1.436095 -1.733295,-2.952024 a 10.541997,10.859454 0 0 0 1.06131,-2.624231 c 1.909381,-0.173654 3.24571,-0.469331 3.24571,-0.825263 v -3.948888 c 0,-0.355333 -1.332306,-0.651445 -3.236344,-0.825256 a 10.541997,10.859454 0 0 0 -1.066937,-2.630023 c 1.230559,-1.513216 1.973834,-2.694608 1.729556,-2.946244 l -2.712247,-2.79392 c -0.244071,-0.251395 -1.389465,0.512425 -2.85638,1.777772 a 10.541997,10.859454 0 0 0 -2.556878,-1.085558 c -0.168571,-1.966877 -0.45561,-3.343443 -0.801134,-3.343443 z m 1.916725,8.885007 a 4.791817,4.936115 0 0 1 4.791816,4.936117 4.791817,4.936115 0 0 1 -4.791816,4.936112 4.791817,4.936115 0 0 1 -4.791815,-4.936112 4.791817,4.936115 0 0 1 4.791815,-4.936117 z"
       id="path4690"
       inkscape:connector-curvature="0" />
  </g>
</svg>
