<?xml version="1.0" encoding="UTF-8" standalone="no"?>
<svg
   width="64"
   height="64"
   version="1.1"
   id="svg73"
   sodipodi:docname="document-print-preview.svg"
   inkscape:version="1.4.2 (ebf0e940d0, 2025-05-08)"
   xmlns:inkscape="http://www.inkscape.org/namespaces/inkscape"
   xmlns:sodipodi="http://sodipodi.sourceforge.net/DTD/sodipodi-0.dtd"
   xmlns="http://www.w3.org/2000/svg"
   xmlns:svg="http://www.w3.org/2000/svg"
   xmlns:rdf="http://www.w3.org/1999/02/22-rdf-syntax-ns#"
   xmlns:cc="http://creativecommons.org/ns#"
   xmlns:dc="http://purl.org/dc/elements/1.1/">
  <metadata
     id="metadata77">
    <rdf:RDF>
      <cc:Work
         rdf:about="">
        <dc:format>image/svg+xml</dc:format>
        <dc:type
           rdf:resource="http://purl.org/dc/dcmitype/StillImage" />
      </cc:Work>
    </rdf:RDF>
  </metadata>
  <sodipodi:namedview
     pagecolor="#f5f7fa"
     bordercolor="#666666"
     borderopacity="1"
     objecttolerance="10"
     gridtolerance="10"
     guidetolerance="10"
     inkscape:pageopacity="0"
     inkscape:pageshadow="2"
     inkscape:window-width="1024"
     inkscape:window-height="621"
     id="namedview75"
     showgrid="false"
     inkscape:zoom="6.2890625"
     inkscape:cx="28.621118"
     inkscape:cy="37.684472"
     inkscape:window-x="24"
     inkscape:window-y="21"
     inkscape:window-maximized="0"
     inkscape:current-layer="g877"
     inkscape:document-rotation="0"
     inkscape:pagecheckerboard="0"
     inkscape:showpageshadow="2"
     inkscape:deskcolor="#d1d1d1" />
  <defs
     id="defs29">
    <filter
       style="color-interpolation-filters:sRGB;"
       inkscape:label="Blur"
       id="filter1"
       x="-0.091333304"
       y="-0.091333304"
       width="1.1826666"
       height="1.1826666">
      <feGaussianBlur
         stdDeviation="1.3 1.3"
         result="blur"
         id="feGaussianBlur1" />
    </filter>
    <filter
       style="color-interpolation-filters:sRGB"
       inkscape:label="Blur"
       id="filter1-3"
       x="-0.091333304"
       y="-0.091333304"
       width="1.1826666"
       height="1.1826666">
      <feGaussianBlur
         stdDeviation="1.3 1.3"
         result="blur"
         id="feGaussianBlur1-6" />
    </filter>
  </defs>
  <circle
     cx="32.516094"
     cy="31.877844"
     r="0"
     fill="url(#b)"
     stroke-width="1.5715"
     id="circle41"
     style="fill:url(#b)" />
  <g
     aria-label="GZ"
     transform="matrix(1.2212657,0,0,0.81882264,0.4960938,-0.1661539)"
     id="text93"
     style="font-weight:bold;font-size:11.5263px;line-height:1.25;font-family:sans-serif;-inkscape-font-specification:'sans-serif Bold';fill:#f2f2f2;stroke-width:0.288159" />
  <g
     id="g877"
     transform="matrix(1.1,0,0,1.1,-3.1845928,-3.2065454)">
    <rect
       style="fill:none;fill-opacity:1;stroke:#000000;stroke-width:2.72727;stroke-dasharray:none;stroke-opacity:1;filter:url(#filter1);opacity:0.5"
       id="rect1-5"
       width="49.090908"
       height="49.090908"
       x="7.4405394"
       y="7.4604964"
       rx="7.4768682"
       ry="7.477273" />
    <rect
       style="opacity:1;fill:#c4c2c5;stroke-width:2.72727273;stroke-opacity:1;fill-opacity:1;stroke:#1e2430;stroke-dasharray:none"
       id="rect1"
       width="49.090908"
       height="49.090908"
       x="7.4405394"
       y="7.4604964"
       rx="7.4768682"
       ry="7.477273" />
    <rect
       style="fill:#1e2430;fill-opacity:1;stroke:none;stroke-width:2.33829;stroke-dasharray:none;stroke-opacity:1"
       id="rect1-6"
       width="42.089317"
       height="42.089317"
       x="10.941335"
       y="10.961291"
       rx="5.5927272"
       ry="5.5927272" />
    <path
       style="fill:#f4e3cf;fill-opacity:1;stroke-width:0.0216182"
       d="m 23.234843,46.096867 c -1.348392,-0.173157 -2.500821,-1.121199 -2.945658,-2.423231 -0.03631,-0.106281 -0.08969,-0.300843 -0.118628,-0.432366 -0.05043,-0.229177 -0.05261,-0.696632 -0.05261,-11.235562 0,-10.538929 0.0022,-11.006389 0.05261,-11.235567 0.167361,-0.760691 0.467732,-1.302665 1.025649,-1.850626 0.378182,-0.371437 0.677354,-0.574671 1.105342,-0.750891 0.504461,-0.207706 0.914271,-0.284407 1.527515,-0.285892 l 0.367507,-9.4e-4 v 11.26608 11.266083 l -0.425155,0.01669 c -0.303205,0.0119 -0.485752,0.03399 -0.636401,0.07699 -0.919907,0.262521 -1.532623,1.069079 -1.532623,2.017487 0,0.610937 0.184864,1.05513 0.620132,1.49007 0.223663,0.223495 0.305199,0.283713 0.535263,0.395309 0.367705,0.178365 0.561563,0.21923 1.042452,0.219746 l 0.396332,6.85e-4 v 0.749424 0.749431 l -0.381919,-0.0037 c -0.210056,-0.002 -0.47097,-0.01508 -0.579808,-0.02905 z m 2.460587,-0.716539 v -0.749613 h 8.343367 8.343369 l 0.0085,-1.145762 c 0.0093,-1.263382 0.0025,-1.215444 0.199006,-1.4147 0.367822,-0.373099 0.974497,-0.266037 1.197244,0.211289 l 0.06726,0.144119 -6.84e-4,1.55651 c -6.86e-4,1.503213 -0.0024,1.560946 -0.059,1.686216 -0.07178,0.158782 -0.204811,0.30161 -0.358035,0.384445 l -0.1153,0.06233 -8.813,0.0072 -8.813005,0.0073 z m 0,-16.22808 V 17.881474 l 8.813003,0.0073 8.813004,0.0073 0.11726,0.06277 c 0.153952,0.0824 0.309631,0.257605 0.3693,0.415611 0.04443,0.117663 0.04737,0.907761 0.04011,10.820715 l -0.0078,10.693784 -0.06316,0.118025 c -0.0737,0.137741 -0.225987,0.279108 -0.377486,0.350429 -0.10103,0.04757 -0.59922,0.05081 -8.905607,0.05791 l -8.798596,0.0075 z"
       id="path1" />
    <rect
       style="opacity:0.5;fill:none;fill-opacity:1;stroke:#000000;stroke-width:2.72727;stroke-dasharray:none;stroke-opacity:1;filter:url(#filter1-3)"
       id="rect1-5-5"
       width="49.090908"
       height="49.090908"
       x="7.4405394"
       y="7.4604964"
       rx="7.4768682"
       ry="7.477273"
       transform="matrix(0.43046721,0,0,0.43046721,34.695898,34.707264)" />
    <rect
       style="fill:#c4c2c5;fill-opacity:1;stroke:#1e2430;stroke-width:1.174;stroke-dasharray:none;stroke-opacity:1"
       id="rect1-3"
       width="21.132023"
       height="21.132023"
       x="37.898808"
       y="37.918762"
       rx="3.2185469"
       ry="3.2187209" />
    <rect
       style="fill:#1e2430;fill-opacity:1;stroke:none;stroke-width:1.00656;stroke-dasharray:none;stroke-opacity:1"
       id="rect1-6-5"
       width="18.118069"
       height="18.118069"
       x="39.405781"
       y="39.425739"
       rx="2.4074855"
       ry="2.4074855" />
    <path
       style="fill:#f4e3cf;fill-opacity:1;fill-rule:evenodd;stroke:none;stroke-width:0.368181;stroke-dasharray:none;stroke-opacity:0.6"
       d="m 48.405591,44.979768 v 0.0013 c -1.211862,0.01113 -2.431498,0.271385 -3.48711,0.83457 -0.420731,0.25797 -0.925824,0.591065 -1.306446,0.926773 -0.598884,0.552 -1.111517,1.19552 -1.457845,1.917007 0.949386,1.971551 3.035989,3.416958 5.332005,3.630465 1.506086,0.160477 3.08258,-0.08514 4.406503,-0.78668 0.420715,-0.257972 0.925818,-0.591069 1.30644,-0.926776 0.598889,-0.553201 1.111523,-1.196724 1.45785,-1.917033 -0.948963,-1.971436 -3.036493,-3.416236 -5.332005,-3.629268 -0.305068,-0.03415 -0.613078,-0.05029 -0.919392,-0.05029 z m 0.0025,1.226118 c 1.337615,-0.02905 2.52207,1.144963 2.4969,2.449845 0.04297,1.44219 -1.421883,2.686828 -2.870431,2.41751 -1.46293,-0.168466 -2.490887,-1.778494 -2.009723,-3.141931 0.307631,-1.003078 1.312501,-1.735983 2.384568,-1.724227 z m -0.0025,1.226117 a 1.2502792,1.2254133 0 0 0 -1.250283,1.227318 1.2502792,1.2254133 0 0 0 1.250283,1.224919 1.2502792,1.2254133 0 0 0 1.250279,-1.224919 1.2502792,1.2254133 0 0 0 -1.250279,-1.223722 z"
       id="path24" />
  </g>
</svg>
