<?xml version="1.0" encoding="UTF-8" standalone="no"?>
<svg
   width="64"
   height="64"
   version="1.1"
   id="svg73"
   sodipodi:docname="com.github.robertsanseries.ciano.svg"
   inkscape:version="1.2.2 (b0a8486541, 2022-12-01)"
   xmlns:inkscape="http://www.inkscape.org/namespaces/inkscape"
   xmlns:sodipodi="http://sodipodi.sourceforge.net/DTD/sodipodi-0.dtd"
   xmlns="http://www.w3.org/2000/svg"
   xmlns:svg="http://www.w3.org/2000/svg"
   xmlns:rdf="http://www.w3.org/1999/02/22-rdf-syntax-ns#"
   xmlns:cc="http://creativecommons.org/ns#"
   xmlns:dc="http://purl.org/dc/elements/1.1/">
  <metadata
     id="metadata77">
    <rdf:RDF>
      <cc:Work
         rdf:about="">
        <dc:format>image/svg+xml</dc:format>
        <dc:type
           rdf:resource="http://purl.org/dc/dcmitype/StillImage" />
      </cc:Work>
    </rdf:RDF>
  </metadata>
  <sodipodi:namedview
     pagecolor="#f5f7fa"
     bordercolor="#666666"
     borderopacity="1"
     objecttolerance="10"
     gridtolerance="10"
     guidetolerance="10"
     inkscape:pageopacity="0"
     inkscape:pageshadow="2"
     inkscape:window-width="1280"
     inkscape:window-height="603"
     id="namedview75"
     showgrid="false"
     inkscape:zoom="6.2890625"
     inkscape:cx="39.592547"
     inkscape:cy="37.843478"
     inkscape:window-x="35"
     inkscape:window-y="32"
     inkscape:window-maximized="0"
     inkscape:current-layer="g877"
     inkscape:document-rotation="0"
     inkscape:pagecheckerboard="0"
     inkscape:showpageshadow="2"
     inkscape:deskcolor="#d1d1d1" />
  <defs
     id="defs29">
    <filter
       style="color-interpolation-filters:sRGB;"
       inkscape:label="Blur"
       id="filter1"
       x="-0.091333304"
       y="-0.091333304"
       width="1.1826666"
       height="1.1826666">
      <feGaussianBlur
         stdDeviation="1.3 1.3"
         result="blur"
         id="feGaussianBlur1" />
    </filter>
    <filter
       style="color-interpolation-filters:sRGB"
       inkscape:label="Blur"
       id="filter1-3"
       x="-0.091333304"
       y="-0.091333304"
       width="1.1826666"
       height="1.1826666">
      <feGaussianBlur
         stdDeviation="1.3 1.3"
         result="blur"
         id="feGaussianBlur1-6" />
    </filter>
  </defs>
  <circle
     cx="32.516094"
     cy="31.877844"
     r="0"
     fill="url(#b)"
     stroke-width="1.5715"
     id="circle41"
     style="fill:url(#b)" />
  <g
     aria-label="GZ"
     transform="matrix(1.2212657,0,0,0.81882264,0.4960938,-0.1661539)"
     id="text93"
     style="font-weight:bold;font-size:11.5263px;line-height:1.25;font-family:sans-serif;-inkscape-font-specification:'sans-serif Bold';fill:#f2f2f2;stroke-width:0.288159" />
  <g
     id="g877"
     transform="matrix(1.1,0,0,1.1,-3.1845928,-3.2065454)">
    <rect
       style="fill:none;fill-opacity:1;stroke:#000000;stroke-width:2.72727;stroke-dasharray:none;stroke-opacity:1;filter:url(#filter1);opacity:0.5"
       id="rect1-5"
       width="49.090908"
       height="49.090908"
       x="7.4405394"
       y="7.4604964"
       rx="7.4768682"
       ry="7.477273" />
    <rect
       style="opacity:1;fill:#c4c2c5;stroke-width:2.72727273;stroke-opacity:1;fill-opacity:1;stroke:#1e2430;stroke-dasharray:none"
       id="rect1"
       width="49.090908"
       height="49.090908"
       x="7.4405394"
       y="7.4604964"
       rx="7.4768682"
       ry="7.477273" />
    <rect
       style="fill:#1e2430;fill-opacity:1;stroke:none;stroke-width:2.33829;stroke-dasharray:none;stroke-opacity:1"
       id="rect1-6"
       width="42.089317"
       height="42.089317"
       x="10.941335"
       y="10.961291"
       rx="5.5927272"
       ry="5.5927272" />
    <path
       d="m 31.985991,18.339565 c -0.654261,0 -1.307348,0.169449 -1.894535,0.508346 l -8.946678,5.165846 a 3.7855407,3.7855406 0 0 0 -1.894536,3.280722 v 10.331696 c 0,1.354416 0.720159,2.602926 1.894536,3.280721 l 8.946678,5.165844 a 3.7855407,3.7855406 0 0 0 3.789072,0 l 8.94668,-5.165844 a 3.7855407,3.7855406 0 0 0 1.894529,-3.280721 V 27.294479 a 3.7855407,3.7855406 0 0 0 -1.894529,-3.280722 l -8.94668,-5.165846 a 3.7867176,3.7867175 0 0 0 -1.894537,-0.508346 z m 0,2.77473 c 0.176516,0 0.351845,0.04589 0.507171,0.135324 l 8.947854,5.165844 c 0.155261,0.09061 0.282418,0.22005 0.370647,0.371851 l -9.825672,5.673011 v 11.346034 a 1.0155181,1.0155181 0 0 1 -0.507169,-0.136501 l -8.947857,-5.165841 a 1.0190482,1.0190483 0 0 1 -0.50717,-0.877842 V 27.294479 c 0,-0.18004 0.04826,-0.35537 0.1365,-0.505992 l 9.825696,5.671838 z"
       fill="#000000"
       stroke-width="1.1979"
       id="path719"
       style="fill:#f4e3cf;fill-opacity:1;stroke:none;stroke-width:0.446513;stroke-dasharray:none;stroke-opacity:0.6" />
    <rect
       style="opacity:0.5;fill:none;fill-opacity:1;stroke:#000000;stroke-width:2.72727;stroke-dasharray:none;stroke-opacity:1;filter:url(#filter1-3)"
       id="rect1-5-5"
       width="49.090908"
       height="49.090908"
       x="7.4405394"
       y="7.4604964"
       rx="7.4768682"
       ry="7.477273"
       transform="matrix(0.43046721,0,0,0.43046721,34.695898,34.707264)" />
    <rect
       style="fill:#c4c2c5;fill-opacity:1;stroke:#1e2430;stroke-width:1.174;stroke-dasharray:none;stroke-opacity:1"
       id="rect1-3"
       width="21.132023"
       height="21.132023"
       x="37.898808"
       y="37.918762"
       rx="3.2185469"
       ry="3.2187209" />
    <rect
       style="fill:#1e2430;fill-opacity:1;stroke:none;stroke-width:1.00656;stroke-dasharray:none;stroke-opacity:1"
       id="rect1-6-5"
       width="18.118069"
       height="18.118069"
       x="39.405781"
       y="39.425739"
       rx="2.4074855"
       ry="2.4074855" />
    <path
       style="color:#000000;clip-rule:nonzero;display:inline;overflow:visible;visibility:visible;isolation:auto;mix-blend-mode:normal;color-interpolation:sRGB;color-interpolation-filters:linearRGB;solid-color:#000000;solid-opacity:1;fill:#f4e3cf;fill-opacity:1;fill-rule:nonzero;stroke:none;stroke-width:0.368181;stroke-linecap:butt;stroke-linejoin:miter;stroke-miterlimit:4;stroke-dasharray:none;stroke-dashoffset:0;stroke-opacity:0.6;marker:none;color-rendering:auto;image-rendering:auto;shape-rendering:auto;text-rendering:auto;enable-background:accumulate"
       d="m 47.614147,42.188201 c -0.154215,0 -0.282751,0.613623 -0.358194,1.490576 A 4.7134211,4.8553593 0 0 0 46.11693,44.1719 c -0.657969,-0.568054 -1.171939,-0.910952 -1.281291,-0.798308 l -1.212668,1.249189 c -0.109351,0.112634 0.223515,0.642091 0.774968,1.319875 a 4.7134211,4.8553593 0 0 0 -0.474521,1.173323 c -0.853701,0.07764 -1.451185,0.209849 -1.451185,0.36898 v 1.765581 c 0,0.158864 0.595683,0.291269 1.446999,0.368984 a 4.7134211,4.8553593 0 0 0 0.477034,1.175905 c -0.550192,0.676569 -0.882516,1.20478 -0.773295,1.317293 l 1.212667,1.249183 c 0.109128,0.112384 0.621244,-0.22911 1.27711,-0.79486 a 4.7134211,4.8553593 0 0 0 1.143205,0.485367 c 0.07538,0.879412 0.2037,1.494886 0.358194,1.494886 h 1.71397 c 0.154216,0 0.282753,-0.613623 0.358196,-1.490576 a 4.7134211,4.8553593 0 0 0 1.13902,-0.49312 c 0.657973,0.568052 1.171939,0.910949 1.281294,0.798303 l 1.212668,-1.249183 C 53.428646,52.000115 53.09578,51.470627 52.544327,50.79284 a 4.7134211,4.8553593 0 0 0 0.474521,-1.173316 c 0.853699,-0.07764 1.451185,-0.209851 1.451185,-0.368984 v -1.765581 c 0,-0.158864 -0.595685,-0.291267 -1.446999,-0.36898 A 4.7134211,4.8553593 0 0 0 52.545995,45.94007 c 0.550197,-0.676569 0.882521,-1.20478 0.7733,-1.317289 l -1.212668,-1.249189 c -0.109127,-0.112411 -0.621243,0.22911 -1.277111,0.79486 a 4.7134211,4.8553593 0 0 0 -1.143203,-0.485365 c -0.07538,-0.879409 -0.2037,-1.494882 -0.358196,-1.494882 z m 0.856984,3.972569 a 2.1424642,2.2069813 0 0 1 2.142464,2.206983 2.1424642,2.2069813 0 0 1 -2.142464,2.206977 2.1424642,2.2069813 0 0 1 -2.142463,-2.206977 2.1424642,2.2069813 0 0 1 2.142463,-2.206983 z"
       id="path4690"
       inkscape:connector-curvature="0" />
  </g>
</svg>
