<?xml version="1.0" encoding="UTF-8" standalone="no"?>
<svg
   width="64"
   height="64"
   version="1.1"
   id="svg73"
   sodipodi:docname="com.system76.CosmicFiles.svg"
   inkscape:version="1.2.2 (b0a8486541, 2022-12-01)"
   xmlns:inkscape="http://www.inkscape.org/namespaces/inkscape"
   xmlns:sodipodi="http://sodipodi.sourceforge.net/DTD/sodipodi-0.dtd"
   xmlns="http://www.w3.org/2000/svg"
   xmlns:svg="http://www.w3.org/2000/svg"
   xmlns:rdf="http://www.w3.org/1999/02/22-rdf-syntax-ns#"
   xmlns:cc="http://creativecommons.org/ns#"
   xmlns:dc="http://purl.org/dc/elements/1.1/">
  <metadata
     id="metadata77">
    <rdf:RDF>
      <cc:Work
         rdf:about="">
        <dc:format>image/svg+xml</dc:format>
        <dc:type
           rdf:resource="http://purl.org/dc/dcmitype/StillImage" />
      </cc:Work>
    </rdf:RDF>
  </metadata>
  <sodipodi:namedview
     pagecolor="#f5f7fa"
     bordercolor="#666666"
     borderopacity="1"
     objecttolerance="10"
     gridtolerance="10"
     guidetolerance="10"
     inkscape:pageopacity="0"
     inkscape:pageshadow="2"
     inkscape:window-width="1280"
     inkscape:window-height="769"
     id="namedview75"
     showgrid="false"
     inkscape:zoom="6.2890625"
     inkscape:cx="55.81118"
     inkscape:cy="39.592547"
     inkscape:window-x="35"
     inkscape:window-y="32"
     inkscape:window-maximized="0"
     inkscape:current-layer="g877"
     inkscape:document-rotation="0"
     inkscape:pagecheckerboard="0"
     inkscape:showpageshadow="2"
     inkscape:deskcolor="#d1d1d1" />
  <defs
     id="defs29">
    <filter
       style="color-interpolation-filters:sRGB;"
       inkscape:label="Blur"
       id="filter1"
       x="-0.091333304"
       y="-0.091333304"
       width="1.1826666"
       height="1.1826666">
      <feGaussianBlur
         stdDeviation="1.3 1.3"
         result="blur"
         id="feGaussianBlur1" />
    </filter>
  </defs>
  <circle
     cx="32.516094"
     cy="31.877844"
     r="0"
     fill="url(#b)"
     stroke-width="1.5715"
     id="circle41"
     style="fill:url(#b)" />
  <g
     aria-label="GZ"
     transform="matrix(1.2212657,0,0,0.81882264,0.4960938,-0.1661539)"
     id="text93"
     style="font-weight:bold;font-size:11.5263px;line-height:1.25;font-family:sans-serif;-inkscape-font-specification:'sans-serif Bold';fill:#f2f2f2;stroke-width:0.288159" />
  <g
     id="g877"
     transform="matrix(1.1,0,0,1.1,-3.1845928,-3.2065454)">
    <rect
       style="fill:none;fill-opacity:1;stroke:#000000;stroke-width:2.72727;stroke-dasharray:none;stroke-opacity:1;filter:url(#filter1);opacity:0.5"
       id="rect1-5"
       width="49.090908"
       height="49.090908"
       x="7.4405394"
       y="7.4604964"
       rx="7.4768682"
       ry="7.477273" />
    <rect
       style="opacity:1;fill:#c4c2c5;stroke-width:2.72727273;stroke-opacity:1;fill-opacity:1;stroke:#1e2430;stroke-dasharray:none"
       id="rect1"
       width="49.090908"
       height="49.090908"
       x="7.4405394"
       y="7.4604964"
       rx="7.4768682"
       ry="7.477273" />
    <rect
       style="fill:#1e2430;fill-opacity:1;stroke:none;stroke-width:2.33829;stroke-dasharray:none;stroke-opacity:1"
       id="rect1-6"
       width="42.089317"
       height="42.089317"
       x="10.941335"
       y="10.961291"
       rx="5.5927272"
       ry="5.5927272" />
    <path
       id="path14-0"
       style="fill:#f4e3cf;fill-opacity:1;stroke:none;stroke-width:0.40909;stroke-dasharray:none;stroke-opacity:0.6"
       d="m 31.986104,18.804567 c -8.65199,0 -8.334228,-0.01002 -9.247116,0.315831 -3.34484,1.19394 -4.909745,4.966855 -3.382239,8.153358 0.825897,1.722891 2.427014,2.945856 4.309021,3.290337 0.318513,0.05829 2.020073,0.06995 8.487312,0.06213 l 8.088638,-0.009 0.427147,-0.121655 c 1.823627,-0.51914 3.130971,-1.574265 3.911644,-3.157017 0.675585,-1.369699 0.806109,-2.826143 0.383139,-4.285725 -0.615796,-2.12508 -2.404299,-3.74794 -4.584726,-4.16156 -0.399795,-0.07584 -1.440098,-0.08672 -8.39282,-0.08672 z m 7.380609,1.914402 c 0.415031,0.0085 0.837413,0.08249 1.254263,0.226518 0.575152,0.198717 0.961198,0.451924 1.491134,0.978558 0.40495,0.402424 0.521506,0.56086 0.733919,1.000563 0.331846,0.686931 0.449376,1.270366 0.409026,2.020542 -0.09042,1.681357 -1.130269,3.031147 -2.764814,3.588045 -0.533343,0.18171 -1.64765,0.209789 -2.222466,0.05567 -1.387545,-0.372065 -2.400611,-1.363584 -2.842478,-2.781649 -0.166897,-0.535619 -0.179452,-1.550351 -0.02597,-2.109853 0.505732,-1.842545 2.168824,-3.015622 3.967303,-2.978389 z m -7.6589,12.661714 -7.977323,0.0167 -0.427149,0.121687 c -1.38705,0.394723 -2.433845,1.06947 -3.251505,2.095618 -0.462217,0.580073 -0.91912,1.502928 -1.102821,2.227641 -0.826498,3.260601 1.228433,6.552444 4.531659,7.258934 0.44378,0.09491 0.958207,0.101214 8.457538,0.104864 8.707406,0.0043 8.380824,0.01423 9.295009,-0.311949 3.344841,-1.193939 4.909745,-4.966852 3.382241,-8.153358 -0.722286,-1.506763 -2.000652,-2.61294 -3.59711,-3.111725 -0.855809,-0.2674 -0.840635,-0.266566 -9.310539,-0.248537 z m -6.842143,1.941583 c 0.39006,0.01794 0.781942,0.07707 1.076932,0.173453 1.993074,0.65131 3.1551,2.776713 2.628906,4.80736 -0.288923,1.114969 -1.045479,2.050123 -2.059375,2.547357 -0.276337,0.135509 -0.640533,0.28079 -0.810286,0.323598 -0.421007,0.106131 -1.177952,0.1476 -1.581746,0.08671 -1.281401,-0.193182 -2.449573,-1.044332 -3.001688,-2.187506 -1.134574,-2.349173 0.148423,-5.067564 2.679385,-5.675895 0.2889,-0.06945 0.677812,-0.09308 1.067872,-0.07509 z" />
  </g>
</svg>
