<?xml version="1.0" encoding="UTF-8" standalone="no"?>
<svg
   width="64"
   height="64"
   version="1.1"
   id="svg73"
   sodipodi:docname="bluetooth-active.svg"
   inkscape:version="1.2.2 (b0a8486541, 2022-12-01)"
   xmlns:inkscape="http://www.inkscape.org/namespaces/inkscape"
   xmlns:sodipodi="http://sodipodi.sourceforge.net/DTD/sodipodi-0.dtd"
   xmlns="http://www.w3.org/2000/svg"
   xmlns:svg="http://www.w3.org/2000/svg"
   xmlns:rdf="http://www.w3.org/1999/02/22-rdf-syntax-ns#"
   xmlns:cc="http://creativecommons.org/ns#"
   xmlns:dc="http://purl.org/dc/elements/1.1/">
  <metadata
     id="metadata77">
    <rdf:RDF>
      <cc:Work
         rdf:about="">
        <dc:format>image/svg+xml</dc:format>
        <dc:type
           rdf:resource="http://purl.org/dc/dcmitype/StillImage" />
      </cc:Work>
    </rdf:RDF>
  </metadata>
  <sodipodi:namedview
     pagecolor="#f5f7fa"
     bordercolor="#666666"
     borderopacity="1"
     objecttolerance="10"
     gridtolerance="10"
     guidetolerance="10"
     inkscape:pageopacity="0"
     inkscape:pageshadow="2"
     inkscape:window-width="1280"
     inkscape:window-height="603"
     id="namedview75"
     showgrid="false"
     inkscape:zoom="4.4470387"
     inkscape:cx="8.7698809"
     inkscape:cy="34.854655"
     inkscape:window-x="35"
     inkscape:window-y="32"
     inkscape:window-maximized="0"
     inkscape:current-layer="g877"
     inkscape:document-rotation="0"
     inkscape:pagecheckerboard="0"
     inkscape:showpageshadow="2"
     inkscape:deskcolor="#d1d1d1" />
  <defs
     id="defs29">
    <filter
       style="color-interpolation-filters:sRGB;"
       inkscape:label="Blur"
       id="filter1"
       x="-0.091333304"
       y="-0.091333304"
       width="1.1826666"
       height="1.1826666">
      <feGaussianBlur
         stdDeviation="1.3 1.3"
         result="blur"
         id="feGaussianBlur1" />
    </filter>
  </defs>
  <circle
     cx="32.516094"
     cy="31.877844"
     r="0"
     fill="url(#b)"
     stroke-width="1.5715"
     id="circle41"
     style="fill:url(#b)" />
  <g
     aria-label="GZ"
     transform="matrix(1.2212657,0,0,0.81882264,0.4960938,-0.1661539)"
     id="text93"
     style="font-weight:bold;font-size:11.5263px;line-height:1.25;font-family:sans-serif;-inkscape-font-specification:'sans-serif Bold';fill:#f2f2f2;stroke-width:0.288159" />
  <g
     id="g877"
     transform="matrix(1.1,0,0,1.1,-3.1845928,-3.2065454)">
    <rect
       style="fill:none;fill-opacity:1;stroke:#000000;stroke-width:2.72727;stroke-dasharray:none;stroke-opacity:1;filter:url(#filter1);opacity:0.5"
       id="rect1-5"
       width="49.090908"
       height="49.090908"
       x="7.4405394"
       y="7.4604964"
       rx="7.4768682"
       ry="7.477273" />
    <rect
       style="opacity:1;fill:#c4c2c5;stroke-width:2.72727273;stroke-opacity:1;fill-opacity:1;stroke:#1e2430;stroke-dasharray:none"
       id="rect1"
       width="49.090908"
       height="49.090908"
       x="7.4405394"
       y="7.4604964"
       rx="7.4768682"
       ry="7.477273" />
    <rect
       style="fill:#1e2430;fill-opacity:1;stroke:none;stroke-width:2.33829;stroke-dasharray:none;stroke-opacity:1"
       id="rect1-6"
       width="42.089317"
       height="42.089317"
       x="10.941335"
       y="10.961291"
       rx="5.5927272"
       ry="5.5927272" />
    <path
       id="path205"
       style="fill:#f4e3cf;fill-opacity:1;stroke:none;stroke-width:0.331363;stroke-dasharray:none;stroke-opacity:0.6"
       d="m 31.947989,21.341962 c -0.376067,0.01157 -0.740193,0.227498 -0.919016,0.621305 -0.06749,0.148677 -0.0704,0.360169 -0.07119,5.968429 v 5.814396 l 0.09578,0.19157 c 0.110925,0.222598 0.256299,0.35751 0.51905,0.480219 0.487243,0.227548 1.089744,0.01057 1.351343,-0.485397 l 0.100961,-0.191568 0.01036,-5.734144 c 0.01112,-6.446582 0.0315,-5.974369 -0.269232,-6.308855 -0.22538,-0.250675 -0.525559,-0.364959 -0.818056,-0.355955 z m 5.750971,3.941413 c -0.365046,0.0134 -0.708399,0.221002 -0.880185,0.570827 l -0.104845,0.212279 v 2.794587 2.794586 l 0.100963,0.190276 c 0.124685,0.236387 0.36319,0.446371 0.586359,0.515166 0.403876,0.124502 0.773666,0.03532 1.066575,-0.257584 0.331217,-0.331217 0.317578,-0.181154 0.305476,-3.339524 l -0.01035,-2.735045 -0.08155,-0.152738 C 38.54939,25.629446 38.419944,25.500374 38.196004,25.390811 38.03531,25.312201 37.864888,25.277283 37.69896,25.283375 Z m -11.473466,0.0065 c -0.138126,1.73e-4 -0.300851,0.02577 -0.379256,0.05954 -0.195945,0.08439 -0.456144,0.3377 -0.557881,0.542349 l -0.08672,0.174743 -0.01036,2.637965 c -0.007,1.729114 0.0015,2.711514 0.02718,2.850245 0.02151,0.11643 0.08567,0.287046 0.142383,0.379256 0.108548,0.176495 0.384374,0.386934 0.581181,0.443975 0.350709,0.101644 0.767672,-0.0077 1.017389,-0.266644 0.314185,-0.325711 0.290069,-0.07307 0.301594,-3.191963 0.01147,-3.103724 0.02021,-2.980446 -0.2537,-3.291632 -0.195464,-0.222058 -0.463776,-0.338236 -0.781812,-0.337836 z m 17.227026,2.88132 c -0.366995,0.0079 -0.710102,0.212644 -0.886655,0.566942 l -0.09579,0.192864 v 1.364285 1.364287 l 0.09708,0.194159 c 0.110754,0.222254 0.298706,0.3952 0.538465,0.49575 0.12243,0.05134 0.232688,0.06655 0.425854,0.05696 0.420675,-0.02091 0.723516,-0.223776 0.899602,-0.60191 0.08619,-0.18509 0.08717,-0.200603 0.08672,-1.509258 -4.29e-4,-1.24864 -0.005,-1.332564 -0.07636,-1.489842 -0.121903,-0.268735 -0.241959,-0.396755 -0.486692,-0.519051 -0.16363,-0.08177 -0.335406,-0.118816 -0.502223,-0.115199 z m -22.963759,0.01939 c -0.374683,0 -0.531999,0.0676 -0.77275,0.328774 -0.255807,0.277521 -0.270527,0.376189 -0.270527,1.775901 0,1.446321 0.0094,1.505676 0.310654,1.806969 0.116948,0.116948 0.260434,0.216864 0.361134,0.252405 0.399724,0.141081 0.802215,0.0482 1.104114,-0.2537 0.300497,-0.300494 0.310653,-0.359951 0.310653,-1.805674 0,-1.399712 -0.016,-1.49838 -0.271821,-1.775901 C 21.019467,28.25816 20.863445,28.19057 20.488761,28.19057 Z m 9.828298,8.853625 c -0.308836,0.009 -0.588816,0.04255 -0.740391,0.09708 -0.317772,0.114321 -0.487323,0.211351 -0.68991,0.393495 -0.689879,0.62026 -0.654585,1.848938 0.06861,2.3765 0.233931,0.170651 0.517201,0.302652 0.995385,0.464685 0.347365,0.117705 0.456923,0.173687 0.586359,0.297709 0.134893,0.129252 0.159209,0.174415 0.159209,0.299004 0,0.183368 -0.07354,0.29305 -0.26535,0.390906 -0.314458,0.160425 -1.064835,0.160447 -1.753896,0 l -0.289944,-0.06861 v 0.623896 0.622601 l 0.344307,0.0466 c 0.189544,0.02507 0.369229,0.05072 0.399967,0.05696 0.191153,0.03892 1.192766,0.01276 1.445833,-0.03754 0.628831,-0.124993 1.174168,-0.502191 1.386291,-0.957848 0.306331,-0.658023 0.20267,-1.386841 -0.262762,-1.852271 -0.246185,-0.246186 -0.507307,-0.387143 -1.032922,-0.557882 -0.245056,-0.07961 -0.493655,-0.169919 -0.552704,-0.20063 -0.377062,-0.19611 -0.389633,-0.577831 -0.0246,-0.741685 0.307871,-0.138191 1.064852,-0.123541 1.584333,0.03106 0.0094,0.0028 0.0177,0.0045 0.0246,0.0026 6.67e-4,-2.46e-4 0.0032,-9.9e-4 0.0039,-0.0013 6.21e-4,-3.84e-4 0.0032,-0.0021 0.0039,-0.0026 0.02838,-0.02622 0.03236,-0.148648 0.03236,-0.555293 0,-0.424333 -0.0098,-0.563216 -0.04401,-0.591537 l -0.0013,-0.0013 h -0.0013 v -0.0013 h -0.0013 -0.0013 l -0.0013,-0.0013 c -0.028,-0.01075 -0.233222,-0.04797 -0.455625,-0.08285 -0.269573,-0.04227 -0.607593,-0.05818 -0.916428,-0.04918 z m 5.727672,0.0039 c -0.126655,0.0087 -0.228751,0.0275 -0.374078,0.06214 -1.050986,0.250404 -1.801118,0.973004 -2.072318,1.995948 -0.104589,0.394509 -0.111916,1.076586 -0.01553,1.453599 0.271982,1.063885 1.043095,1.798535 2.151276,2.050313 0.325809,0.07402 1.292195,0.04756 1.650345,-0.04532 l 0.260172,-0.06731 0.01036,-0.722269 c 0.0069,-0.498089 0.0068,-0.65314 -0.01812,-0.689909 -0.0012,-0.0013 -0.004,-0.0042 -0.0052,-0.0052 -6.26e-4,-3.91e-4 -0.0032,-0.0022 -0.0039,-0.0026 -6.75e-4,-2.2e-4 -0.0032,-0.0012 -0.0039,-0.0013 -0.0066,-6.02e-4 -0.01586,0.0015 -0.0246,0.0052 -0.401802,0.168194 -0.639288,0.217956 -1.053632,0.218752 -0.482833,9.9e-4 -0.637573,-0.04178 -0.956596,-0.260173 -0.2104,-0.144034 -0.420833,-0.422896 -0.51905,-0.686026 -0.08786,-0.23543 -0.0891,-0.744476 -0.0026,-0.992796 0.202656,-0.581692 0.673243,-0.924328 1.331927,-0.970792 0.314507,-0.02219 0.776511,0.05521 1.061399,0.177331 0.09437,0.04045 0.1787,0.07249 0.187686,0.07249 0.009,0 0.01203,-0.322636 0.0065,-0.717091 l -0.01035,-0.717091 -0.260172,-0.0686 c -0.17403,-0.04619 -0.446426,-0.07563 -0.819347,-0.08802 -0.242213,-0.008 -0.39369,-0.01 -0.520344,-0.0013 z m 5.996905,0.01035 c -0.522498,-8.01e-4 -0.631379,0.01021 -0.876301,0.08672 -0.498139,0.155621 -0.841368,0.360045 -1.192132,0.711914 -0.362314,0.363454 -0.518777,0.609046 -0.683438,1.071754 -0.111422,0.313167 -0.11589,0.350986 -0.116494,0.922899 -6.1e-4,0.574565 0.004,0.608284 0.116494,0.922899 0.151435,0.423243 0.311151,0.689163 0.60448,1.003153 0.389831,0.417287 0.819947,0.667519 1.401824,0.815466 0.568546,0.144556 1.430803,0.07094 1.968765,-0.166976 0.775567,-0.342971 1.378611,-1.08125 1.570094,-1.922145 0.0891,-0.391284 0.0824,-0.978559 -0.01553,-1.360402 -0.238022,-0.928003 -0.90302,-1.642665 -1.827675,-1.962295 -0.341946,-0.118186 -0.37417,-0.122039 -0.950081,-0.122967 z m -20.044911,0.0013 c -0.665009,-0.0022 -0.672885,-2.22e-4 -1.023862,0.121674 -0.988053,0.343156 -1.63869,1.068834 -1.850976,2.067139 -0.08058,0.378918 -0.04928,1.107163 0.06214,1.460072 0.231254,0.732468 0.684179,1.277601 1.342281,1.616691 0.299927,0.154538 0.459153,0.212619 0.781812,0.287354 0.296316,0.06864 1.243452,0.04448 1.611514,-0.04143 l 0.288649,-0.06731 v -0.720974 c 0,-0.396416 -0.0066,-0.720974 -0.01424,-0.720974 -0.0076,0 -0.08764,0.03312 -0.177332,0.07249 -0.209324,0.09187 -0.683882,0.188981 -0.9229,0.188981 -0.62779,0 -1.166795,-0.324204 -1.413472,-0.850414 -0.0885,-0.188782 -0.09838,-0.255395 -0.09838,-0.621307 0,-0.371098 0.0096,-0.431992 0.104847,-0.638133 0.184748,-0.39976 0.575868,-0.701635 1.034216,-0.799933 0.379383,-0.08136 0.957881,0.0028 1.422535,0.207102 0.0087,0.0039 0.01676,0.0056 0.02329,0.0052 0.0014,-2.48e-4 0.0052,-7.21e-4 0.0065,-0.0013 6.26e-4,-3.74e-4 0.0032,-0.0021 0.0039,-0.0026 l 0.0013,-0.0013 c 0.02669,-0.03184 0.02785,-0.183477 0.02071,-0.692498 l -0.0091,-0.722269 -0.261467,-0.07119 c -0.210887,-0.05811 -0.389679,-0.07321 -0.93196,-0.07507 z m 3.149249,0.05307 v 2.738928 2.737634 h 0.688615 0.68991 v -2.73758 -2.738928 h -0.68991 z m 16.78564,1.304746 c 0.245048,-0.01024 0.506605,0.03041 0.693792,0.117788 0.428106,0.199854 0.727497,0.595071 0.816761,1.079521 0.114753,0.622796 -0.230643,1.279207 -0.816761,1.553267 -0.173873,0.08131 -0.27459,0.100173 -0.565648,0.108729 -0.306826,0.009 -0.382635,-0.0016 -0.573415,-0.08155 -0.56624,-0.237216 -0.886656,-0.721679 -0.886656,-1.343576 0,-0.635486 0.345608,-1.142017 0.928077,-1.360403 0.11566,-0.04336 0.25682,-0.06763 0.40385,-0.07378 z" />
  </g>
</svg>
