<?xml version="1.0" encoding="UTF-8" standalone="no"?>
<svg
   width="64"
   height="64"
   version="1.1"
   id="svg73"
   sodipodi:docname="1password.svg"
   inkscape:version="1.4.2 (ebf0e940d0, 2025-05-08)"
   xmlns:inkscape="http://www.inkscape.org/namespaces/inkscape"
   xmlns:sodipodi="http://sodipodi.sourceforge.net/DTD/sodipodi-0.dtd"
   xmlns="http://www.w3.org/2000/svg"
   xmlns:svg="http://www.w3.org/2000/svg"
   xmlns:rdf="http://www.w3.org/1999/02/22-rdf-syntax-ns#"
   xmlns:cc="http://creativecommons.org/ns#"
   xmlns:dc="http://purl.org/dc/elements/1.1/">
  <metadata
     id="metadata77">
    <rdf:RDF>
      <cc:Work
         rdf:about="">
        <dc:format>image/svg+xml</dc:format>
        <dc:type
           rdf:resource="http://purl.org/dc/dcmitype/StillImage" />
      </cc:Work>
    </rdf:RDF>
  </metadata>
  <sodipodi:namedview
     pagecolor="#f5f7fa"
     bordercolor="#666666"
     borderopacity="1"
     objecttolerance="10"
     gridtolerance="10"
     guidetolerance="10"
     inkscape:pageopacity="0"
     inkscape:pageshadow="2"
     inkscape:window-width="1024"
     inkscape:window-height="621"
     id="namedview75"
     showgrid="false"
     inkscape:zoom="6.2890625"
     inkscape:cx="52.313043"
     inkscape:cy="37.684472"
     inkscape:window-x="24"
     inkscape:window-y="21"
     inkscape:window-maximized="0"
     inkscape:current-layer="g877"
     inkscape:document-rotation="0"
     inkscape:pagecheckerboard="0"
     inkscape:showpageshadow="2"
     inkscape:deskcolor="#d1d1d1" />
  <defs
     id="defs29">
    <filter
       style="color-interpolation-filters:sRGB;"
       inkscape:label="Blur"
       id="filter1"
       x="-0.091333304"
       y="-0.091333304"
       width="1.1826666"
       height="1.1826666">
      <feGaussianBlur
         stdDeviation="1.3 1.3"
         result="blur"
         id="feGaussianBlur1" />
    </filter>
  </defs>
  <circle
     cx="32.516094"
     cy="31.877844"
     r="0"
     fill="url(#b)"
     stroke-width="1.5715"
     id="circle41"
     style="fill:url(#b)" />
  <g
     aria-label="GZ"
     transform="matrix(1.2212657,0,0,0.81882264,0.4960938,-0.1661539)"
     id="text93"
     style="font-weight:bold;font-size:11.5263px;line-height:1.25;font-family:sans-serif;-inkscape-font-specification:'sans-serif Bold';fill:#f2f2f2;stroke-width:0.288159" />
  <g
     id="g877"
     transform="matrix(1.1,0,0,1.1,-3.1845928,-3.2065454)">
    <rect
       style="fill:none;fill-opacity:1;stroke:#000000;stroke-width:2.72727;stroke-dasharray:none;stroke-opacity:1;filter:url(#filter1);opacity:0.5"
       id="rect1-5"
       width="49.090908"
       height="49.090908"
       x="7.4405394"
       y="7.4604964"
       rx="7.4768682"
       ry="7.477273" />
    <rect
       style="opacity:1;fill:#c4c2c5;stroke-width:2.72727273;stroke-opacity:1;fill-opacity:1;stroke:#1e2430;stroke-dasharray:none"
       id="rect1"
       width="49.090908"
       height="49.090908"
       x="7.4405394"
       y="7.4604964"
       rx="7.4768682"
       ry="7.477273" />
    <rect
       style="fill:#1e2430;fill-opacity:1;stroke:none;stroke-width:2.33829;stroke-dasharray:none;stroke-opacity:1"
       id="rect1-6"
       width="42.089317"
       height="42.089317"
       x="10.941335"
       y="10.961291"
       rx="5.5927272"
       ry="5.5927272" />
    <path
       style="fill:#f4e3cf;stroke:none;stroke-width:0.075213;fill-opacity:1"
       d="m 31.284196,46.9412 c -3.642909,-0.197461 -6.99722,-2.066007 -8.93831,-4.979156 -0.671662,-1.008019 -1.260767,-2.409825 -1.491512,-3.549124 -0.300582,-1.484138 -0.261445,-3.206768 0.105755,-4.654817 0.289272,-1.140736 0.87097,-2.505864 1.482121,-3.478243 0.565335,-0.899479 8.680407,-12.547728 8.93178,-12.820536 0.293946,-0.319011 0.448753,-0.411665 0.68782,-0.411665 0.147813,0 0.210782,0.04016 0.460664,0.293802 0.196868,0.199827 1.607085,2.195856 4.408875,6.240349 2.265685,3.2706 4.27183,6.179237 4.458104,6.463638 0.434939,0.66406 1.071136,1.957665 1.317274,2.678472 0.440464,1.289886 0.611002,2.28713 0.61133,3.57486 3.26e-4,1.27533 -0.126091,2.091769 -0.498404,3.218832 -1.13109,3.424037 -4.030252,6.064319 -7.741018,7.049788 -0.665399,0.17671 -1.564815,0.323867 -2.172694,0.355482 -0.258545,0.01345 -0.586429,0.03081 -0.728629,0.03858 -0.142201,0.0077 -0.54412,-0.0014 -0.893156,-0.02026 z m 1.64529,-4.202215 c 0.505121,-0.112135 1.255059,-0.368888 1.632173,-0.558799 0.582611,-0.293398 1.630508,-1.060851 1.553565,-1.137793 -0.01365,-0.01365 -0.265349,0.03906 -0.55934,0.117155 -0.668432,0.177525 -1.557587,0.323267 -2.202328,0.360982 -0.725009,0.04241 -1.904166,-0.04836 -2.459246,-0.189336 -1.742702,-0.442558 -3.149874,-1.717923 -3.715414,-3.367402 -0.742749,-2.166342 0.107117,-4.569698 2.072123,-5.859791 0.667678,-0.438352 1.288965,-0.672868 2.286237,-0.862973 0.503139,-0.09591 0.549822,-0.113094 0.470082,-0.173 -0.173417,-0.130289 -0.611658,-0.331918 -1.005192,-0.462473 -0.373787,-0.124005 -0.451137,-0.132703 -1.198711,-0.134796 -0.697116,-0.002 -0.847151,0.01153 -1.175207,0.105669 -1.670806,0.479412 -2.9904,1.89112 -3.590182,3.840788 -0.381247,1.239289 -0.392057,2.612446 -0.02997,3.807671 0.397476,1.31205 1.386837,2.597447 2.672541,3.472213 0.845762,0.57544 1.672133,0.892119 2.945466,1.128756 0.282989,0.05259 1.960113,-0.01066 2.303406,-0.08687 z m 0.425126,-3.101165 c 1.048836,-0.139646 2.450599,-0.531033 3.42062,-0.955073 1.344015,-0.58753 2.534168,-1.642399 3.087677,-2.736705 0.44111,-0.872087 0.498955,-1.761741 0.185582,-2.854179 -0.144702,-0.504438 -0.602783,-1.463772 -1.016959,-2.129754 -0.530683,-0.853322 -6.998892,-10.740904 -7.03312,-10.751128 -0.03294,-0.0098 -6.590251,10.004512 -6.590251,10.064632 0,0.01784 0.142788,-0.08234 0.317307,-0.222618 0.975891,-0.784425 2.130511,-1.302532 3.315527,-1.487759 0.485734,-0.07592 1.499745,-0.06526 1.996803,0.02098 1.080877,0.187554 2.285153,0.761688 2.782262,1.326432 0.697102,0.79195 0.647281,1.96972 -0.113767,2.689488 -0.392684,0.371384 -0.743193,0.514508 -1.452545,0.593117 -0.323899,0.03589 -0.692751,0.0961 -0.819669,0.133793 -1.912818,0.568044 -2.85915,2.723135 -1.984702,4.519778 0.373273,0.766928 1.083755,1.390726 1.873746,1.645136 0.627156,0.20197 1.259002,0.246717 2.031489,0.143865 z"
       id="path10" />
  </g>
</svg>
