<?xml version="1.0" encoding="UTF-8" standalone="no"?>
<svg
   width="64"
   height="64"
   version="1.1"
   id="svg73"
   sodipodi:docname="appimagekit-1password.svg"
   inkscape:version="1.2.2 (b0a8486541, 2022-12-01)"
   xmlns:inkscape="http://www.inkscape.org/namespaces/inkscape"
   xmlns:sodipodi="http://sodipodi.sourceforge.net/DTD/sodipodi-0.dtd"
   xmlns="http://www.w3.org/2000/svg"
   xmlns:svg="http://www.w3.org/2000/svg"
   xmlns:rdf="http://www.w3.org/1999/02/22-rdf-syntax-ns#"
   xmlns:cc="http://creativecommons.org/ns#"
   xmlns:dc="http://purl.org/dc/elements/1.1/">
  <metadata
     id="metadata77">
    <rdf:RDF>
      <cc:Work
         rdf:about="">
        <dc:format>image/svg+xml</dc:format>
        <dc:type
           rdf:resource="http://purl.org/dc/dcmitype/StillImage" />
      </cc:Work>
    </rdf:RDF>
  </metadata>
  <sodipodi:namedview
     pagecolor="#f5f7fa"
     bordercolor="#666666"
     borderopacity="1"
     objecttolerance="10"
     gridtolerance="10"
     guidetolerance="10"
     inkscape:pageopacity="0"
     inkscape:pageshadow="2"
     inkscape:window-width="1280"
     inkscape:window-height="603"
     id="namedview75"
     showgrid="false"
     inkscape:zoom="6.2890625"
     inkscape:cx="48.178882"
     inkscape:cy="37.843478"
     inkscape:window-x="35"
     inkscape:window-y="32"
     inkscape:window-maximized="0"
     inkscape:current-layer="g877"
     inkscape:document-rotation="0"
     inkscape:pagecheckerboard="0"
     inkscape:showpageshadow="2"
     inkscape:deskcolor="#d1d1d1" />
  <defs
     id="defs29">
    <filter
       style="color-interpolation-filters:sRGB;"
       inkscape:label="Blur"
       id="filter1"
       x="-0.091333304"
       y="-0.091333304"
       width="1.1826666"
       height="1.1826666">
      <feGaussianBlur
         stdDeviation="1.3 1.3"
         result="blur"
         id="feGaussianBlur1" />
    </filter>
  </defs>
  <circle
     cx="32.516094"
     cy="31.877844"
     r="0"
     fill="url(#b)"
     stroke-width="1.5715"
     id="circle41"
     style="fill:url(#b)" />
  <g
     aria-label="GZ"
     transform="matrix(1.2212657,0,0,0.81882264,0.4960938,-0.1661539)"
     id="text93"
     style="font-weight:bold;font-size:11.5263px;line-height:1.25;font-family:sans-serif;-inkscape-font-specification:'sans-serif Bold';fill:#f2f2f2;stroke-width:0.288159" />
  <g
     id="g877"
     transform="matrix(1.1,0,0,1.1,-3.1845928,-3.2065454)">
    <rect
       style="fill:none;fill-opacity:1;stroke:#000000;stroke-width:2.72727;stroke-dasharray:none;stroke-opacity:1;filter:url(#filter1);opacity:0.5"
       id="rect1-5"
       width="49.090908"
       height="49.090908"
       x="7.4405394"
       y="7.4604964"
       rx="7.4768682"
       ry="7.477273" />
    <rect
       style="opacity:1;fill:#c4c2c5;stroke-width:2.72727273;stroke-opacity:1;fill-opacity:1;stroke:#1e2430;stroke-dasharray:none"
       id="rect1"
       width="49.090908"
       height="49.090908"
       x="7.4405394"
       y="7.4604964"
       rx="7.4768682"
       ry="7.477273" />
    <rect
       style="fill:#1e2430;fill-opacity:1;stroke:none;stroke-width:2.33829;stroke-dasharray:none;stroke-opacity:1"
       id="rect1-6"
       width="42.089317"
       height="42.089317"
       x="10.941335"
       y="10.961291"
       rx="5.5927272"
       ry="5.5927272" />
    <path
       style="fill:#f4e3cf;fill-opacity:1;stroke:none;stroke-width:0.39694;stroke-dasharray:none;stroke-opacity:0.6"
       d="m 40.805008,25.46939 c -0.547963,-0.02561 -2.09193,0.157422 -4.505072,1.836192 -1.349989,-0.407072 -2.891028,-0.557756 -4.497538,-0.553872 -1.469644,0.0035 -2.993636,0.123961 -4.474931,0.553872 -2.413918,-1.678681 -3.64761,-1.860785 -4.19611,-1.834937 -0.182878,0.0086 -0.271285,0.03641 -0.271285,0.03641 -0.917686,2.380609 -0.337082,4.141791 -0.163272,4.579175 -1.078044,1.208388 -1.710596,2.75154 -1.710596,4.63946 0,6.628045 4.29464,8.112728 8.036788,8.549211 -0.481084,0.432181 -0.783816,1.325744 -0.936934,2.442816 -0.9601,0.442782 -3.535584,1.526465 -5.03885,-1.116541 0,0 -0.889359,-1.661391 -2.580966,-1.783441 0,0 -1.644504,-0.02103 -0.114293,1.051228 0,0 1.104678,0.532282 1.871357,2.530728 0,0 1.138557,3.041867 5.826327,1.996951 0.0047,0.811552 -0.09189,4.683185 0.004,4.683354 l 8.34979,0.01472 c 0.01848,3.3e-5 0.02354,-5.256458 0.02354,-6.629576 0,-1.612967 -0.666818,-2.668565 -1.27102,-3.202657 3.75347,-0.427921 7.693918,-1.891632 7.693918,-8.536654 0,-1.887922 -0.525031,-3.432342 -1.605101,-4.640714 0.172784,-0.437489 0.752709,-2.197312 -0.167048,-4.577919 0,0 -0.08857,-0.02916 -0.27129,-0.03767 z"
       id="path5"
       sodipodi:nodetypes="ccccsccscccccccssscscccc" />
  </g>
</svg>
