<?xml version="1.0" encoding="UTF-8" standalone="no"?>
<svg
   width="64"
   height="64"
   version="1.1"
   id="svg73"
   sodipodi:docname="1password.svg"
   inkscape:version="1.2.2 (b0a8486541, 2022-12-01)"
   xmlns:inkscape="http://www.inkscape.org/namespaces/inkscape"
   xmlns:sodipodi="http://sodipodi.sourceforge.net/DTD/sodipodi-0.dtd"
   xmlns="http://www.w3.org/2000/svg"
   xmlns:svg="http://www.w3.org/2000/svg"
   xmlns:rdf="http://www.w3.org/1999/02/22-rdf-syntax-ns#"
   xmlns:cc="http://creativecommons.org/ns#"
   xmlns:dc="http://purl.org/dc/elements/1.1/">
  <metadata
     id="metadata77">
    <rdf:RDF>
      <cc:Work
         rdf:about="">
        <dc:format>image/svg+xml</dc:format>
        <dc:type
           rdf:resource="http://purl.org/dc/dcmitype/StillImage" />
      </cc:Work>
    </rdf:RDF>
  </metadata>
  <sodipodi:namedview
     pagecolor="#f5f7fa"
     bordercolor="#666666"
     borderopacity="1"
     objecttolerance="10"
     gridtolerance="10"
     guidetolerance="10"
     inkscape:pageopacity="0"
     inkscape:pageshadow="2"
     inkscape:window-width="1280"
     inkscape:window-height="603"
     id="namedview75"
     showgrid="false"
     inkscape:zoom="4.4470387"
     inkscape:cx="32.15623"
     inkscape:cy="31.031886"
     inkscape:window-x="35"
     inkscape:window-y="32"
     inkscape:window-maximized="0"
     inkscape:current-layer="g877"
     inkscape:document-rotation="0"
     inkscape:pagecheckerboard="0"
     inkscape:showpageshadow="2"
     inkscape:deskcolor="#d1d1d1" />
  <defs
     id="defs29">
    <filter
       style="color-interpolation-filters:sRGB;"
       inkscape:label="Blur"
       id="filter1"
       x="-0.091333304"
       y="-0.091333304"
       width="1.1826666"
       height="1.1826666">
      <feGaussianBlur
         stdDeviation="1.3 1.3"
         result="blur"
         id="feGaussianBlur1" />
    </filter>
  </defs>
  <circle
     cx="32.516094"
     cy="31.877844"
     r="0"
     fill="url(#b)"
     stroke-width="1.5715"
     id="circle41"
     style="fill:url(#b)" />
  <g
     aria-label="GZ"
     transform="matrix(1.2212657,0,0,0.81882264,0.4960938,-0.1661539)"
     id="text93"
     style="font-weight:bold;font-size:11.5263px;line-height:1.25;font-family:sans-serif;-inkscape-font-specification:'sans-serif Bold';fill:#f2f2f2;stroke-width:0.288159" />
  <g
     id="g877"
     transform="matrix(1.1,0,0,1.1,-3.1845928,-3.2065454)">
    <rect
       style="fill:none;fill-opacity:1;stroke:#000000;stroke-width:2.72727;stroke-dasharray:none;stroke-opacity:1;filter:url(#filter1);opacity:0.5"
       id="rect1-5"
       width="49.090908"
       height="49.090908"
       x="7.4405394"
       y="7.4604964"
       rx="7.4768682"
       ry="7.477273" />
    <rect
       style="opacity:1;fill:#c4c2c5;stroke-width:2.72727273;stroke-opacity:1;fill-opacity:1;stroke:#1e2430;stroke-dasharray:none"
       id="rect1"
       width="49.090908"
       height="49.090908"
       x="7.4405394"
       y="7.4604964"
       rx="7.4768682"
       ry="7.477273" />
    <rect
       style="fill:#1e2430;fill-opacity:1;stroke:none;stroke-width:2.33829;stroke-dasharray:none;stroke-opacity:1"
       id="rect1-6"
       width="42.089317"
       height="42.089317"
       x="10.941335"
       y="10.961291"
       rx="5.5927272"
       ry="5.5927272" />
    <path
       style="fill:#f4e3cf;fill-opacity:1;stroke-width:0.407715"
       d="m 49.704455,29.879678 c -2.340063,0.835262 -2.845518,1.120081 -2.335264,1.315886 0.09841,0.03776 1.229857,-0.307587 2.514251,-0.767476 2.080496,-0.744936 2.835271,-1.023266 2.835272,-1.294853 0,-0.294493 -0.585335,-0.12053 -3.014259,0.746443 z m 2.394624,2.32592 c -0.143427,0.04976 -3.589005,1.217018 -3.672237,1.300257 -0.09443,0.09444 0.698358,1.689662 0.839737,1.689662 0.06805,0 0.76012,-0.226105 1.537921,-0.502454 l 2.264221,-0.760749 -0.0091,-1.022681 c -0.0049,-0.545847 0.04393,-1.052527 -0.0182,-1.030969 z m -0.0072,3.125822 c -0.132798,0 -2.348918,0.799386 -2.423838,0.874307 -0.04279,0.04278 0.606037,1.575543 0.711615,1.68112 0.03006,0.03007 0.456139,-0.07887 0.946787,-0.242137 l 1.705005,-0.569669 -0.0036,-0.83157 c 0,0 0.06876,-1.214791 -9.09e-4,-1.214793 z m -2.236817,5.002722 -0.428842,-0.773256 -1.559941,1.008313 c -0.857973,0.554568 -1.620895,1.029877 -1.695401,1.056234 -0.131728,0.04658 0.945651,1.58848 1.109955,1.58848 0.19704,0 3.02327,-1.848049 3.013694,-1.970623 -0.0058,-0.07475 -0.203593,-0.483862 -0.439449,-0.909163 z m -1.306145,-2.488475 c -0.221643,-0.373726 -0.421343,-0.73143 -0.443836,-0.794881 -0.03399,-0.09591 -3.297832,1.881123 -3.688432,2.234275 -0.175777,0.159067 0.977904,1.650782 1.183323,1.530013 1.011594,-0.594732 3.355996,-2.133443 3.354207,-2.201491 -0.0013,-0.04884 -0.183635,-0.394191 -0.40527,-0.767908 z m -1.362375,-2.639962 c -0.223499,-0.405501 -0.433837,-0.764732 -0.467384,-0.798278 -0.0711,-0.0711 -3.975959,2.38352 -4.092987,2.572863 -0.08956,0.144899 0.882657,1.476955 1.078009,1.476949 0.154968,0 3.892499,-2.350234 3.890301,-2.446299 -7.59e-4,-0.03722 -0.184425,-0.39974 -0.407929,-0.805246 z m -1.368553,-2.626369 c -0.219402,-0.429805 -0.457711,-0.781467 -0.529537,-0.781454 -0.07182,2.9e-5 -0.911749,0.49813 -1.866524,1.106943 -0.954757,0.608826 -1.967287,1.253001 -2.250043,1.431522 l -0.514115,0.324568 0.581578,0.744646 c 0.380536,0.487256 0.65066,0.718143 0.781417,0.667964 0.265005,-0.101686 3.833592,-2.364661 4.03723,-2.560156 0.120619,-0.115755 0.06269,-0.341223 -0.23999,-0.93405 z M 45.51919,43.390875 c -0.314317,-0.388532 -0.60315,-0.709618 -0.641867,-0.713504 -0.03874,-0.0042 -0.698024,0.622748 -1.465183,1.392485 l -1.394822,1.399537 0.702021,0.571064 c 0.386104,0.314097 0.740865,0.571064 0.788335,0.571065 0.04752,7.5e-5 0.648066,-0.565702 1.334642,-1.257124 l 1.248445,-1.25699 z M 44.444123,29.963153 c -0.226749,-0.448494 -0.430579,-0.835947 -0.452947,-0.860998 -0.03256,-0.03668 -4.898356,3.011218 -5.072466,3.17749 -0.03968,0.03792 0.389714,0.621331 1.077462,1.463894 0.07072,0.08642 4.379657,-2.515678 4.769987,-2.880574 0.04963,-0.0464 -0.09526,-0.451313 -0.32204,-0.899801 z m -0.901437,11.092599 -0.648896,-0.731171 -1.487277,1.583874 c -0.817987,0.871148 -1.499124,1.62827 -1.51362,1.682511 -0.01465,0.05414 0.291291,0.355869 0.679533,0.67025 l 0.705887,0.571628 1.460894,-1.45279 c 0.803544,-0.798976 1.459015,-1.484328 1.456653,-1.522971 -0.0022,-0.03873 -0.296357,-0.399274 -0.653248,-0.801432 z m -1.59843,6.237022 c -0.406555,-0.306937 -0.79447,-0.523927 -0.862035,-0.482168 -0.06754,0.04173 -0.560807,0.787009 -1.096072,1.65613 -0.755519,1.226751 -0.932656,1.607596 -0.791873,1.702691 0.559869,0.378175 1.519148,0.796764 1.603794,0.699833 0.0542,-0.06187 0.500402,-0.766396 0.991848,-1.56549 l 0.893526,-1.452903 z m 0.231078,-21.457325 c -0.06502,-0.102487 -0.181442,-0.163715 -0.258867,-0.135894 -0.247473,0.08884 -5.315639,3.309524 -5.319246,3.380221 -0.0021,0.03744 0.05112,0.154134 0.117795,0.259494 0.09585,0.151386 0.693677,-0.171987 2.851933,-1.542614 1.501872,-0.953787 2.72974,-1.743292 2.728594,-1.754453 -0.0013,-0.01128 -0.05516,-0.104266 -0.120171,-0.206749 z m -0.453087,13.067039 c -0.3189,-0.385822 -0.611303,-0.705012 -0.64975,-0.709291 -0.03821,-0.0042 -0.852561,0.77662 -1.809137,1.735318 l -1.739248,1.743078 0.732976,0.626198 0.732968,0.626189 1.656018,-1.659996 1.656015,-1.659992 z m -1.98009,-2.319035 -0.638343,-0.718587 -1.942695,1.949327 -1.942694,1.949325 0.675894,0.569925 c 0.371742,0.313454 0.726935,0.569927 0.789306,0.569927 0.06237,-8e-6 0.919646,-0.81035 1.905051,-1.800764 L 40.380309,37.30184 Z M 39.49962,45.47436 c -0.416892,-0.289104 -0.804805,-0.472564 -0.86202,-0.407714 -0.170941,0.193719 -2.0337,3.252049 -2.123814,3.486879 -0.06254,0.162989 0.125896,0.322505 0.757488,0.641338 0.462407,0.233444 0.854987,0.405118 0.87241,0.381534 0.181108,-0.245143 1.989532,-3.242223 2.042923,-3.385653 0.04504,-0.120983 -0.206094,-0.382933 -0.686977,-0.716387 z m -1.716081,-11.205932 -0.582379,-0.694522 -2.072439,2.0664 c -1.139875,1.136485 -2.069052,2.12818 -2.064798,2.203813 0.0041,0.07565 0.324105,0.399027 0.710691,0.718647 l 0.702958,0.58106 1.905465,-1.993752 c 1.047978,-1.096588 1.922909,-2.03722 1.944213,-2.090376 0.02119,-0.05308 -0.223304,-0.409157 -0.543618,-0.791133 z m -0.595265,9.491321 c -0.406928,-0.307221 -0.794263,-0.524991 -0.860745,-0.483897 -0.09104,0.05611 -2.232791,3.453307 -2.550105,4.044634 -0.07994,0.148993 1.607332,0.958565 1.730735,0.830427 0.05954,-0.06175 0.628358,-0.949382 1.264093,-1.97245 l 1.155893,-1.860108 z m -0.633659,6.922968 c -0.461735,-0.218334 -0.878145,-0.35222 -0.925367,-0.29745 -0.08465,0.09835 -0.887797,2.498362 -0.8878,2.626138 0,0.03646 1.131698,0.03 1.131698,0.03 l 0.849211,-0.02182 0.426813,-1.218112 0.244937,-0.721837 z m -0.681333,-18.653078 -0.574813,-0.651608 -2.287317,2.294831 -2.287315,2.294831 0.724392,0.627618 0.72439,0.627615 2.140537,-2.133318 c 1.177298,-1.173318 2.139238,-2.195228 2.137701,-2.270853 -0.0016,-0.07562 -0.261443,-0.430736 -0.5776,-0.789116 z m -0.987706,9.990891 c -0.333394,-0.245254 -0.686618,-0.476791 -0.78496,-0.514524 -0.116264,-0.04462 -0.662824,0.713908 -1.563024,2.169237 -0.761314,1.230825 -1.384225,2.292023 -1.384225,2.358232 -8e-6,0.135534 1.595484,0.930727 1.68564,0.840149 0.122946,-0.123542 2.663045,-4.265623 2.658031,-4.334433 -0.003,-0.04005 -0.278093,-0.273377 -0.611461,-0.518664 z m -0.912173,7.514055 c -0.39243,-0.177991 -0.794287,-0.342807 -0.893024,-0.366222 -0.119341,-0.0283 -0.38129,0.525272 -0.781456,1.651508 -0.331065,0.931725 -0.698093,2.194845 -0.698093,2.219291 -2.8e-5,0.02434 0.485892,0.0408 1.056073,0.01861 l 1.084592,0.02182 0.482454,-1.8475 c 0.249462,-0.710111 0.455709,-1.309764 0.45828,-1.332596 0.0023,-0.0226 -0.316375,-0.187156 -0.708829,-0.365154 z m 0.0061,-19.761738 -0.571499,-0.702573 -2.491222,2.485034 -2.491219,2.485031 0.718378,0.638533 0.718381,0.638536 2.34433,-2.335932 c 1.28943,-1.284716 2.344367,-2.37419 2.344368,-2.420986 -1.03e-4,-0.04667 -0.257163,-0.40125 -0.571519,-0.787645 z m -1.547922,10.429485 c -0.640206,-0.483361 -0.775772,-0.537726 -0.932245,-0.373895 -0.100718,0.105427 -0.748257,1.109071 -1.438995,2.230299 -0.690738,1.121215 -1.343807,2.172852 -1.451255,2.336966 -0.187949,0.28708 -0.163344,0.314566 0.648908,0.724566 0.698923,0.352829 0.873903,0.395033 1.01642,0.245221 0.09469,-0.09955 0.787341,-1.174684 1.539234,-2.389259 l 1.367086,-2.208293 z m -0.389315,-12.685476 -0.6005,-0.679533 -2.66106,2.650157 -2.661061,2.650158 0.444327,0.379541 c 1.124618,0.960668 0.768571,1.127822 3.580358,-1.680884 1.377179,-1.375705 2.502731,-2.53245 2.501192,-2.570577 -0.0017,-0.0381 -0.273014,-0.375123 -0.603306,-0.748851 z m -1.563271,20.456497 c -0.294091,-0.1574 -0.210042,-0.329374 -1.094671,2.239697 -0.360348,1.046469 -0.697255,2.009704 -0.748688,2.140515 -0.07309,0.185827 -0.02353,0.237623 0.226929,0.236506 0.292065,-0.0013 0.388526,-0.19893 1.093318,-2.242192 0.724552,-2.100523 0.757343,-2.249324 0.523232,-2.374617 z m -0.220689,-9.471465 c -0.134091,-0.05144 -0.265287,-0.03666 -0.291578,0.03293 -0.02642,0.06952 -0.776711,1.288365 -1.667602,2.708579 -1.433178,2.284697 -1.594455,2.601398 -1.399801,2.748837 0.192182,0.145548 0.425612,-0.163821 1.845867,-2.446304 0.894231,-1.437109 1.655353,-2.688856 1.691388,-2.781661 0.03606,-0.0928 -0.04418,-0.210854 -0.178263,-0.26226 z m -0.61457,-13.848129 c -0.158232,-0.09778 -2.355447,2.016609 -4.504537,4.334727 -0.968074,1.044218 -1.195849,1.362313 -1.043679,1.457556 0.146596,0.09174 0.874232,-0.556601 2.946735,-2.625584 1.513613,-1.511109 2.752086,-2.820809 2.752085,-2.910516 -8e-6,-0.08971 -0.06775,-0.204998 -0.150588,-0.256187 z"
       id="path1-8"
       sodipodi:nodetypes="ssssssssscssscsscccccccscscccsscccsscssscccccccccccccscccccccsscscsssccccscccccccssccccccccscccscscccccscccccssccscsssssscccccccccccccscccccsccccccccccccccccccsccccccccccccccsccccccccscssccccscccccsccccccccccccscsccccssssccs" />
  </g>
</svg>
