<?xml version="1.0" encoding="UTF-8" standalone="no"?>
<svg
   width="64"
   height="64"
   version="1.1"
   id="svg73"
   sodipodi:docname="1password.svg"
   inkscape:version="1.2.2 (b0a8486541, 2022-12-01)"
   xmlns:inkscape="http://www.inkscape.org/namespaces/inkscape"
   xmlns:sodipodi="http://sodipodi.sourceforge.net/DTD/sodipodi-0.dtd"
   xmlns="http://www.w3.org/2000/svg"
   xmlns:svg="http://www.w3.org/2000/svg"
   xmlns:rdf="http://www.w3.org/1999/02/22-rdf-syntax-ns#"
   xmlns:cc="http://creativecommons.org/ns#"
   xmlns:dc="http://purl.org/dc/elements/1.1/">
  <metadata
     id="metadata77">
    <rdf:RDF>
      <cc:Work
         rdf:about="">
        <dc:format>image/svg+xml</dc:format>
        <dc:type
           rdf:resource="http://purl.org/dc/dcmitype/StillImage" />
      </cc:Work>
    </rdf:RDF>
  </metadata>
  <sodipodi:namedview
     pagecolor="#f5f7fa"
     bordercolor="#666666"
     borderopacity="1"
     objecttolerance="10"
     gridtolerance="10"
     guidetolerance="10"
     inkscape:pageopacity="0"
     inkscape:pageshadow="2"
     inkscape:window-width="1280"
     inkscape:window-height="603"
     id="namedview75"
     showgrid="false"
     inkscape:zoom="4.4470387"
     inkscape:cx="32.15623"
     inkscape:cy="31.031886"
     inkscape:window-x="35"
     inkscape:window-y="32"
     inkscape:window-maximized="0"
     inkscape:current-layer="g877"
     inkscape:document-rotation="0"
     inkscape:pagecheckerboard="0"
     inkscape:showpageshadow="2"
     inkscape:deskcolor="#d1d1d1" />
  <defs
     id="defs29">
    <filter
       style="color-interpolation-filters:sRGB;"
       inkscape:label="Blur"
       id="filter1"
       x="-0.091333304"
       y="-0.091333304"
       width="1.1826666"
       height="1.1826666">
      <feGaussianBlur
         stdDeviation="1.3 1.3"
         result="blur"
         id="feGaussianBlur1" />
    </filter>
  </defs>
  <circle
     cx="32.516094"
     cy="31.877844"
     r="0"
     fill="url(#b)"
     stroke-width="1.5715"
     id="circle41"
     style="fill:url(#b)" />
  <g
     aria-label="GZ"
     transform="matrix(1.2212657,0,0,0.81882264,0.4960938,-0.1661539)"
     id="text93"
     style="font-weight:bold;font-size:11.5263px;line-height:1.25;font-family:sans-serif;-inkscape-font-specification:'sans-serif Bold';fill:#f2f2f2;stroke-width:0.288159" />
  <g
     id="g877"
     transform="matrix(1.1,0,0,1.1,-3.1845928,-3.2065454)">
    <rect
       style="fill:none;fill-opacity:1;stroke:#000000;stroke-width:2.72727;stroke-dasharray:none;stroke-opacity:1;filter:url(#filter1);opacity:0.5"
       id="rect1-5"
       width="49.090908"
       height="49.090908"
       x="7.4405394"
       y="7.4604964"
       rx="7.4768682"
       ry="7.477273" />
    <rect
       style="opacity:1;fill:#c4c2c5;stroke-width:2.72727273;stroke-opacity:1;fill-opacity:1;stroke:#1e2430;stroke-dasharray:none"
       id="rect1"
       width="49.090908"
       height="49.090908"
       x="7.4405394"
       y="7.4604964"
       rx="7.4768682"
       ry="7.477273" />
    <rect
       style="fill:#1e2430;fill-opacity:1;stroke:none;stroke-width:2.33829;stroke-dasharray:none;stroke-opacity:1"
       id="rect1-6"
       width="42.089317"
       height="42.089317"
       x="10.941335"
       y="10.961291"
       rx="5.5927272"
       ry="5.5927272" />
    <g
       id="g7227"
       transform="matrix(0.65246942,0,0,0.65246942,12.409432,12.608905)"
       style="fill:#f4e3cf;fill-opacity:1;stroke:none;stroke-width:1.39959;stroke-dasharray:none;stroke-opacity:0.3">
      <path
         style="color:#000000;fill:#f4e3cf;fill-opacity:1;stroke:none;stroke-width:1.39959;stroke-linecap:round;stroke-dasharray:none;stroke-opacity:0.3"
         d="m 19.720703,23.611328 a 2.32932,2.32932 0 0 0 -1.587891,0.8125 l -3.535156,4.160156 -1.75,-1.228515 a 2.32932,2.32932 0 0 0 -3.2441404,0.568359 2.32932,2.32932 0 0 0 0.5664064,3.244141 l 5.224609,3.669922 6.28711,-7.396485 a 2.32932,2.32932 0 0 0 -0.265625,-3.283203 2.32932,2.32932 0 0 0 -1.695313,-0.546875 z"
         id="path14" />
      <g
         id="path16"
         style="fill:#f4e3cf;fill-opacity:1;stroke:none;stroke-width:1.39959;stroke-dasharray:none;stroke-opacity:0.3">
        <path
           style="color:#000000;fill:#f4e3cf;fill-opacity:1;stroke:none;stroke-width:1.39959;stroke-linecap:round;stroke-dasharray:none;stroke-opacity:0.3"
           d="M 28.832479,16.13251 H 48.050681"
           id="path1" />
        <path
           style="color:#000000;fill:#f4e3cf;fill-opacity:1;stroke:none;stroke-width:1.39959;stroke-linecap:round;stroke-dasharray:none;stroke-opacity:0.3"
           d="m 28.832031,13.353516 a 2.7781949,2.7781949 0 0 0 -2.777344,2.779296 2.7781949,2.7781949 0 0 0 2.777344,2.777344 h 19.21875 a 2.7781949,2.7781949 0 0 0 2.777344,-2.777344 2.7781949,2.7781949 0 0 0 -2.777344,-2.779296 z"
           id="path2-9" />
      </g>
      <path
         style="color:#000000;fill:#f4e3cf;fill-opacity:1;stroke:none;stroke-width:1.39959;stroke-linecap:round;stroke-dasharray:none;stroke-opacity:0.3"
         d="m 19.720703,10.005859 a 2.32932,2.32932 0 0 0 -1.587891,0.8125 l -3.535156,4.158204 -1.75,-1.226563 A 2.32932,2.32932 0 0 0 9.6035156,14.316406 2.32932,2.32932 0 0 0 10.169922,17.5625 l 5.224609,3.667969 6.28711,-7.394531 a 2.32932,2.32932 0 0 0 -0.265625,-3.283204 2.32932,2.32932 0 0 0 -1.695313,-0.546875 z"
         id="path18" />
      <path
         style="color:#000000;fill:#f4e3cf;fill-opacity:1;stroke:none;stroke-width:1.39959;stroke-linecap:round;stroke-dasharray:none;stroke-opacity:0.3"
         d="m 19.720703,38.232422 a 2.32932,2.32932 0 0 0 -1.587891,0.8125 l -3.535156,4.160156 -1.75,-1.228516 a 2.32932,2.32932 0 0 0 -3.2441404,0.56836 2.32932,2.32932 0 0 0 0.5664064,3.24414 l 5.224609,3.669922 6.28711,-7.396484 a 2.32932,2.32932 0 0 0 -0.265625,-3.283203 2.32932,2.32932 0 0 0 -1.695313,-0.546875 z"
         id="path20" />
      <g
         id="path22"
         style="fill:#f4e3cf;fill-opacity:1;stroke:none;stroke-width:1.39959;stroke-dasharray:none;stroke-opacity:0.3">
        <path
           style="color:#000000;fill:#f4e3cf;fill-opacity:1;stroke:none;stroke-width:1.39959;stroke-linecap:round;stroke-dasharray:none;stroke-opacity:0.3"
           d="M 28.832479,29.220274 H 48.050681"
           id="path3-6" />
        <path
           style="color:#000000;fill:#f4e3cf;fill-opacity:1;stroke:none;stroke-width:1.39959;stroke-linecap:round;stroke-dasharray:none;stroke-opacity:0.3"
           d="m 28.832031,26.441406 a 2.7781949,2.7781949 0 0 0 -2.777344,2.779297 2.7781949,2.7781949 0 0 0 2.777344,2.777344 h 19.21875 a 2.7781949,2.7781949 0 0 0 2.777344,-2.777344 2.7781949,2.7781949 0 0 0 -2.777344,-2.779297 z"
           id="path4-7" />
      </g>
      <g
         id="path24"
         style="fill:#f4e3cf;fill-opacity:1;stroke:none;stroke-width:1.39959;stroke-dasharray:none;stroke-opacity:0.3">
        <path
           style="color:#000000;fill:#f4e3cf;fill-opacity:1;stroke:none;stroke-width:1.39959;stroke-linecap:round;stroke-dasharray:none;stroke-opacity:0.3"
           d="M 28.832479,42.308039 H 48.050681"
           id="path5" />
        <path
           style="color:#000000;fill:#f4e3cf;fill-opacity:1;stroke:none;stroke-width:1.39959;stroke-linecap:round;stroke-dasharray:none;stroke-opacity:0.3"
           d="m 28.832031,39.529297 a 2.7781949,2.7781949 0 0 0 -2.777344,2.779297 2.7781949,2.7781949 0 0 0 2.777344,2.777343 h 19.21875 a 2.7781949,2.7781949 0 0 0 2.777344,-2.777343 2.7781949,2.7781949 0 0 0 -2.777344,-2.779297 z"
           id="path6-3" />
      </g>
    </g>
  </g>
</svg>
