<?xml version="1.0" encoding="UTF-8" standalone="no"?>
<svg
   width="64"
   height="64"
   version="1.1"
   id="svg73"
   sodipodi:docname="1password.svg"
   inkscape:version="1.4.2 (ebf0e940d0, 2025-05-08)"
   xmlns:inkscape="http://www.inkscape.org/namespaces/inkscape"
   xmlns:sodipodi="http://sodipodi.sourceforge.net/DTD/sodipodi-0.dtd"
   xmlns="http://www.w3.org/2000/svg"
   xmlns:svg="http://www.w3.org/2000/svg"
   xmlns:rdf="http://www.w3.org/1999/02/22-rdf-syntax-ns#"
   xmlns:cc="http://creativecommons.org/ns#"
   xmlns:dc="http://purl.org/dc/elements/1.1/">
  <metadata
     id="metadata77">
    <rdf:RDF>
      <cc:Work
         rdf:about="">
        <dc:format>image/svg+xml</dc:format>
        <dc:type
           rdf:resource="http://purl.org/dc/dcmitype/StillImage" />
      </cc:Work>
    </rdf:RDF>
  </metadata>
  <sodipodi:namedview
     pagecolor="#f5f7fa"
     bordercolor="#666666"
     borderopacity="1"
     objecttolerance="10"
     gridtolerance="10"
     guidetolerance="10"
     inkscape:pageopacity="0"
     inkscape:pageshadow="2"
     inkscape:window-width="1920"
     inkscape:window-height="931"
     id="namedview75"
     showgrid="false"
     inkscape:zoom="6.2890625"
     inkscape:cx="52.313043"
     inkscape:cy="37.684472"
     inkscape:window-x="0"
     inkscape:window-y="0"
     inkscape:window-maximized="1"
     inkscape:current-layer="g877"
     inkscape:document-rotation="0"
     inkscape:pagecheckerboard="0"
     inkscape:showpageshadow="2"
     inkscape:deskcolor="#d1d1d1" />
  <defs
     id="defs29">
    <filter
       style="color-interpolation-filters:sRGB;"
       inkscape:label="Blur"
       id="filter1"
       x="-0.091333304"
       y="-0.091333304"
       width="1.1826666"
       height="1.1826666">
      <feGaussianBlur
         stdDeviation="1.3 1.3"
         result="blur"
         id="feGaussianBlur1" />
    </filter>
  </defs>
  <circle
     cx="32.516094"
     cy="31.877844"
     r="0"
     fill="url(#b)"
     stroke-width="1.5715"
     id="circle41"
     style="fill:url(#b)" />
  <g
     aria-label="GZ"
     transform="matrix(1.2212657,0,0,0.81882264,0.4960938,-0.1661539)"
     id="text93"
     style="font-weight:bold;font-size:11.5263px;line-height:1.25;font-family:sans-serif;-inkscape-font-specification:'sans-serif Bold';fill:#f2f2f2;stroke-width:0.288159" />
  <g
     id="g877"
     transform="matrix(1.1,0,0,1.1,-3.1845928,-3.2065454)">
    <rect
       style="fill:none;fill-opacity:1;stroke:#000000;stroke-width:2.72727;stroke-dasharray:none;stroke-opacity:1;filter:url(#filter1);opacity:0.5"
       id="rect1-5"
       width="49.090908"
       height="49.090908"
       x="7.4405394"
       y="7.4604964"
       rx="7.4768682"
       ry="7.477273" />
    <rect
       style="opacity:1;fill:#c4c2c5;stroke-width:2.72727273;stroke-opacity:1;fill-opacity:1;stroke:#1e2430;stroke-dasharray:none"
       id="rect1"
       width="49.090908"
       height="49.090908"
       x="7.4405394"
       y="7.4604964"
       rx="7.4768682"
       ry="7.477273" />
    <rect
       style="fill:#1e2430;fill-opacity:1;stroke:none;stroke-width:2.33829;stroke-dasharray:none;stroke-opacity:1"
       id="rect1-6"
       width="42.089317"
       height="42.089317"
       x="10.941335"
       y="10.961291"
       rx="5.5927272"
       ry="5.5927272" />
    <path
       style="fill:#f4e3cf;stroke-width:0.0775075;fill-opacity:1"
       d="m 34.55964,44.15548 c -4.080341,-0.209414 -7.975325,-1.606708 -11.160998,-4.003909 -1.033073,-0.777382 -2.019704,-1.68918 -2.802648,-2.59007 -0.08185,-0.09417 -0.18728,-0.214751 -0.234298,-0.267939 -0.279504,-0.316204 -0.899139,-1.138988 -1.235546,-1.640614 -1.270547,-1.894566 -2.148555,-3.950847 -2.608969,-6.110181 -0.144905,-0.679596 -0.226525,-1.22964 -0.328359,-2.212788 -0.04434,-0.428144 -0.04388,-2.327261 8.57e-4,-2.777846 0.133761,-1.3524 0.295339,-2.213219 0.672271,-3.581535 0.08231,-0.298795 0.155377,-0.548987 0.162373,-0.555982 0.0069,-0.0069 0.01363,0.01426 0.01475,0.04722 9.5e-4,0.03297 0.0062,0.08784 0.01109,0.121945 0.0049,0.03411 0.02717,0.251741 0.04934,0.483642 0.179257,1.87552 0.465711,3.275367 1.001712,4.895189 0.487529,1.473329 1.201913,3.009918 2.028844,4.363899 0.38176,0.625082 1.125966,1.680317 1.603693,2.273938 1.385993,1.72223 3.098226,3.301234 4.914145,4.531778 1.976441,1.339313 4.016488,2.325197 6.294161,3.041739 0.544962,0.171437 1.514735,0.443254 1.778963,0.498612 0.07502,0.01571 0.320566,0.06732 0.545647,0.114673 1.955048,0.411269 4.263652,0.603793 6.076539,0.50675 2.119433,-0.113452 3.551866,-0.337401 5.616078,-0.878026 0.394709,-0.103377 0.723956,-0.181048 0.731669,-0.172605 0.0077,0.0084 0.0028,0.01959 -0.01078,0.02478 -0.01364,0.0052 -0.292661,0.185669 -0.620048,0.401083 -0.954668,0.628153 -1.546586,0.973289 -2.393417,1.395563 -1.976578,0.985629 -4.133601,1.641298 -6.361768,1.933774 -0.913003,0.119845 -1.39948,0.150597 -2.505023,0.158353 -0.586572,0.0042 -1.144622,0.0035 -1.240109,-0.0019 z m 5.3576,-3.397382 c 0.06482,-0.14578 0.189906,-0.559023 0.215699,-0.712619 0.04974,-0.296176 0.03543,-0.833379 -0.0294,-1.104336 -0.06921,-0.289224 -0.187272,-0.592645 -0.320532,-0.823776 -0.05677,-0.09847 -0.0866,-0.171557 -0.06696,-0.164017 0.310506,0.119153 1.763591,0.540261 2.495083,0.723083 1.551844,0.387853 2.95583,0.627534 4.966643,0.847879 0.35126,0.0385 0.638657,0.07692 0.638657,0.08541 0,0.01843 -0.873408,0.277731 -1.413728,0.419729 -0.7038,0.18496 -1.896137,0.427549 -2.492619,0.507138 -0.172979,0.02308 -0.274304,0.03736 -0.446439,0.06286 -0.08184,0.01214 -0.266006,0.03412 -0.409238,0.04886 -0.143233,0.01474 -0.310649,0.03198 -0.372035,0.0383 -0.503782,0.05191 -1.213107,0.08973 -1.932528,0.103024 -0.833754,0.01542 -0.853143,0.01468 -0.83259,-0.03154 z m -1.054421,-0.0011 c -0.02047,-0.0039 -0.210195,-0.01886 -0.421636,-0.03333 -0.211437,-0.01447 -0.412336,-0.03095 -0.446441,-0.03656 -0.0341,-0.0057 -0.184776,-0.02276 -0.33483,-0.03811 -0.269412,-0.02754 -0.647999,-0.07957 -1.252509,-0.172141 -0.334196,-0.05118 -1.245295,-0.22205 -1.259452,-0.236205 -0.0047,-0.0047 0.04313,-0.08421 0.106373,-0.176596 0.235741,-0.344338 0.399508,-0.749353 0.470782,-1.16431 0.0475,-0.276533 0.05388,-0.674476 0.01405,-0.877403 -0.04352,-0.221774 -0.03921,-0.235059 0.113272,-0.350196 0.967537,-0.730495 2.349523,-0.610871 3.16888,0.274298 0.683763,0.738683 0.830707,1.802344 0.373614,2.704379 l -0.0624,0.12313 -0.216249,-0.0049 c -0.118938,-0.0027 -0.232993,-0.0081 -0.253457,-0.01199 z M 34.485233,40.085754 C 33.755466,39.915353 32.41802,39.48343 31.451483,39.106023 l -0.454319,-0.177387 0.22431,-0.207907 c 0.477935,-0.442987 0.788304,-0.999503 0.907136,-1.626569 0.05037,-0.265847 0.06681,-0.552872 0.04323,-0.755091 l -0.021,-0.18008 0.09179,-0.02471 c 0.252318,-0.06795 0.618829,-0.0988 0.857411,-0.0722 1.184513,0.132083 2.051848,1.020446 2.153516,2.205729 0.03318,0.386893 -0.0747,0.881874 -0.275787,1.265315 -0.103947,0.198213 -0.385123,0.573527 -0.424909,0.567172 -0.0099,-0.0017 -0.04034,-0.0081 -0.06762,-0.01446 z m -4.464399,-1.601831 c -0.340118,-0.164849 -0.864799,-0.434897 -1.24011,-0.638271 -0.481775,-0.261061 -1.971778,-1.18619 -1.971778,-1.224255 0,-0.0061 0.08092,-0.04157 0.179818,-0.07891 0.760833,-0.287169 1.368674,-0.823903 1.712343,-1.512026 0.09089,-0.181979 0.202889,-0.521193 0.230374,-0.697712 l 0.01605,-0.103076 0.189421,-0.01624 c 0.211731,-0.01814 0.538433,0.01299 0.772374,0.0736 0.708896,0.183693 1.360342,0.775477 1.60844,1.461127 0.33364,0.922061 0.08564,1.935038 -0.635622,2.59628 -0.141573,0.129795 -0.417357,0.319639 -0.464475,0.319737 -0.01362,2.9e-5 -0.192216,-0.08109 -0.396835,-0.180268 z M 25.845996,35.91779 c -0.652522,-0.512537 -0.848811,-0.678042 -1.393259,-1.174752 -0.545104,-0.497313 -0.686536,-0.63497 -0.667851,-0.650029 0.0058,-0.0047 0.114791,-0.0444 0.242145,-0.08825 0.773374,-0.266212 1.477676,-0.885472 1.789681,-1.573588 0.09434,-0.208038 0.188597,-0.532228 0.210469,-0.723812 0.02935,-0.256981 0.01651,-0.244467 0.23269,-0.226901 0.523334,0.04252 1.051532,0.27041 1.431324,0.617517 0.537785,0.491506 0.834446,1.272174 0.754109,1.984445 -0.03157,0.280085 -0.05405,0.371839 -0.153006,0.625332 -0.290403,0.743868 -0.946672,1.296859 -1.739196,1.46549 -0.304801,0.06487 -0.294634,0.06851 -0.707106,-0.255458 z m -2.596698,-2.343802 c -0.03682,-0.04434 -0.113194,-0.13083 -0.169717,-0.192216 -0.692679,-0.752283 -1.417264,-1.672722 -2.024912,-2.572253 l -0.298051,-0.441216 0.316524,-0.0167 c 0.596467,-0.03149 1.044636,-0.183608 1.535253,-0.521116 0.282548,-0.194374 0.523601,-0.447237 0.810232,-0.849932 0.03377,-0.04742 0.03865,-0.04756 0.236425,-0.005 0.459292,0.0987 0.885088,0.331255 1.197329,0.653948 0.293672,0.303503 0.456762,0.568629 0.576549,0.937269 0.419491,1.290966 -0.352484,2.695256 -1.664631,3.028111 -0.333757,0.08466 -0.430631,0.08074 -0.515001,-0.02084 z m -2.541694,-3.741586 c -0.273153,-0.03084 -0.291622,-0.03846 -0.361204,-0.148669 -0.18707,-0.296331 -0.776106,-1.430825 -0.951637,-1.832863 -0.03276,-0.07501 -0.09767,-0.220121 -0.14425,-0.32243 -0.147891,-0.324823 -0.427877,-1.036926 -0.427877,-1.088243 0,-0.07856 0.277646,-0.470904 0.463819,-0.655437 0.416973,-0.413311 0.947327,-0.646081 1.547981,-0.679405 0.523314,-0.02904 1.106894,0.140254 1.421175,0.412262 0.06294,0.05448 0.18403,0.148899 0.2691,0.209836 0.417272,0.298908 0.711533,0.867572 0.787624,1.522109 0.04789,0.4119 -0.04035,0.880847 -0.241303,1.28233 -0.293925,0.587252 -0.828331,1.033136 -1.456376,1.215136 -0.162175,0.047 -0.696368,0.128603 -0.717462,0.109603 -0.002,-0.0019 -0.08729,-0.01267 -0.18959,-0.02423 z m -2.16476,-4.152283 c -0.574219,-1.794113 -0.89887,-3.629563 -0.971619,-5.493148 l -0.01307,-0.334829 0.06118,0.0744 c 0.03365,0.04093 0.29895,0.392493 0.589561,0.781268 1.177556,1.575322 2.022786,2.635517 2.926976,3.671391 l 0.184595,0.211479 -0.337432,-4.4e-4 c -0.358265,-4.41e-4 -0.562297,0.02874 -0.883084,0.126749 -0.527094,0.161019 -1.050346,0.51686 -1.416344,0.963183 l -0.101248,0.123472 z"
       id="path1-5" />
  </g>
</svg>
