<?xml version="1.0" encoding="UTF-8" standalone="no"?>
<svg
   width="64"
   height="64"
   version="1.1"
   id="svg73"
   sodipodi:docname="abcd.svg"
   inkscape:version="1.4.2 (ebf0e940d0, 2025-05-08)"
   xmlns:inkscape="http://www.inkscape.org/namespaces/inkscape"
   xmlns:sodipodi="http://sodipodi.sourceforge.net/DTD/sodipodi-0.dtd"
   xmlns="http://www.w3.org/2000/svg"
   xmlns:svg="http://www.w3.org/2000/svg"
   xmlns:rdf="http://www.w3.org/1999/02/22-rdf-syntax-ns#"
   xmlns:cc="http://creativecommons.org/ns#"
   xmlns:dc="http://purl.org/dc/elements/1.1/">
  <metadata
     id="metadata77">
    <rdf:RDF>
      <cc:Work
         rdf:about="">
        <dc:format>image/svg+xml</dc:format>
        <dc:type
           rdf:resource="http://purl.org/dc/dcmitype/StillImage" />
      </cc:Work>
    </rdf:RDF>
  </metadata>
  <sodipodi:namedview
     pagecolor="#f5f7fa"
     bordercolor="#666666"
     borderopacity="1"
     objecttolerance="10"
     gridtolerance="10"
     guidetolerance="10"
     inkscape:pageopacity="0"
     inkscape:pageshadow="2"
     inkscape:window-width="1920"
     inkscape:window-height="931"
     id="namedview75"
     showgrid="false"
     inkscape:zoom="6.2890625"
     inkscape:cx="56.288199"
     inkscape:cy="37.684472"
     inkscape:window-x="0"
     inkscape:window-y="0"
     inkscape:window-maximized="1"
     inkscape:current-layer="g877"
     inkscape:document-rotation="0"
     inkscape:pagecheckerboard="0"
     inkscape:showpageshadow="2"
     inkscape:deskcolor="#d1d1d1" />
  <defs
     id="defs29">
    <filter
       style="color-interpolation-filters:sRGB;"
       inkscape:label="Blur"
       id="filter1"
       x="-0.091333304"
       y="-0.091333304"
       width="1.1826666"
       height="1.1826666">
      <feGaussianBlur
         stdDeviation="1.3 1.3"
         result="blur"
         id="feGaussianBlur1" />
    </filter>
  </defs>
  <circle
     cx="32.516094"
     cy="31.877844"
     r="0"
     fill="url(#b)"
     stroke-width="1.5715"
     id="circle41"
     style="fill:url(#b)" />
  <g
     aria-label="GZ"
     transform="matrix(1.2212657,0,0,0.81882264,0.4960938,-0.1661539)"
     id="text93"
     style="font-weight:bold;font-size:11.5263px;line-height:1.25;font-family:sans-serif;-inkscape-font-specification:'sans-serif Bold';fill:#f2f2f2;stroke-width:0.288159" />
  <g
     id="g877"
     transform="matrix(1.1,0,0,1.1,-3.1845928,-3.2065454)">
    <rect
       style="fill:none;fill-opacity:1;stroke:#000000;stroke-width:2.72727;stroke-dasharray:none;stroke-opacity:1;filter:url(#filter1);opacity:0.5"
       id="rect1-5"
       width="49.090908"
       height="49.090908"
       x="7.4405394"
       y="7.4604964"
       rx="7.4768682"
       ry="7.477273" />
    <rect
       style="opacity:1;fill:#c4c2c5;stroke-width:2.72727273;stroke-opacity:1;fill-opacity:1;stroke:#1e2430;stroke-dasharray:none"
       id="rect1"
       width="49.090908"
       height="49.090908"
       x="7.4405394"
       y="7.4604964"
       rx="7.4768682"
       ry="7.477273" />
    <rect
       style="fill:#1e2430;fill-opacity:1;stroke:none;stroke-width:2.33829;stroke-dasharray:none;stroke-opacity:1"
       id="rect1-6"
       width="42.089317"
       height="42.089317"
       x="10.941335"
       y="10.961291"
       rx="5.5927272"
       ry="5.5927272" />
    <path
       style="fill:#f4e3cf;stroke-width:0.239564;fill-opacity:1"
       d="m 32.342618,47.95399 c -1.694777,-0.861607 -1.984519,-2.495801 -0.906777,-5.114351 1.02162,-2.482192 0.658574,-3.309645 -1.996773,-4.55103 -0.682311,-0.318983 -1.240621,-0.642393 -1.240684,-0.71869 -6.9e-5,-0.0763 0.943214,-0.106321 2.096183,-0.06672 1.915428,0.06578 2.723764,-0.06142 4.983876,-0.784376 0.412884,-0.132069 0.595748,0.04782 1.137927,1.119419 0.739857,1.462302 0.819308,2.710488 0.221425,3.478625 -0.227649,0.292478 -1.190825,0.908696 -2.140391,1.369373 -2.540709,1.232611 -3.183371,2.8084 -1.735752,4.25602 0.652096,0.652095 0.845564,0.717117 1.810184,0.608392 0.995732,-0.112232 1.041382,-0.09465 0.584725,0.225204 -0.768117,0.53801 -1.95792,0.613331 -2.813943,0.178136 z M 27.4353,35.595694 c -0.93952,-0.206728 -1.164112,-0.366241 -1.37749,-0.978334 -0.28999,-0.831868 -0.33625,-3.047326 -0.07161,-3.429278 0.0968,-0.13971 0.930631,-0.368451 1.85295,-0.508312 0.92232,-0.139865 2.192117,-0.49705 2.821767,-0.793748 l 1.14482,-0.539455 1.383618,0.62093 c 0.760988,0.34151 1.991372,0.692358 2.734184,0.779661 l 1.35057,0.158735 -0.686261,0.867014 c -0.377445,0.476858 -0.806533,1.325098 -0.953533,1.884976 -0.401317,1.528491 -1.555254,2.052999 -4.680837,2.127621 -1.3176,0.03145 -2.900782,-0.05396 -3.518184,-0.18981 z m -3.385129,-6.046178 c -1.83606,-0.678239 -2.284534,-1.68892 -1.39598,-3.145982 0.595776,-0.976961 2.839267,-2.125132 5.139779,-2.630428 2.700793,-0.593215 7.549021,-0.409457 9.852294,0.373419 3.942528,1.340059 5.363594,3.878906 2.876724,5.139505 -1.286451,0.652103 -4.752735,0.673825 -6.395283,0.04006 -0.625862,-0.241478 -1.137927,-0.52832 -1.137927,-0.63743 0,-0.17936 1.026752,-0.714257 2.635202,-1.372837 0.578063,-0.236689 0.561388,-0.255741 -0.479129,-0.547412 -1.286945,-0.36075 -4.905894,-0.383038 -5.749529,-0.03541 -0.481515,0.198414 -0.199774,0.25048 1.437382,0.265641 1.119961,0.01036 2.172632,0.105395 2.339263,0.211169 0.200128,0.127036 -0.478484,0.593375 -1.999177,1.373822 -2.136939,1.096719 -2.44235,1.185886 -4.255773,1.242545 -1.233708,0.03854 -2.290518,-0.06341 -2.867846,-0.276679 z m 6.509486,-7.201233 c -0.735409,-0.415225 -1.177879,-1.471801 -0.914509,-2.183765 0.500862,-1.353954 2.786906,-1.737872 4.04494,-0.679305 0.88529,0.744921 0.945967,1.505859 0.190147,2.38455 -0.676318,0.786269 -2.348681,1.027271 -3.320578,0.47852 z m 3.757637,-3.472318 c -0.985154,-1.088583 -3.087767,-1.214711 -4.421213,-0.265213 -0.900839,0.641454 -1.17004,0.622613 -1.501603,-0.10509 -0.398232,-0.874025 0.04337,-1.637906 1.297961,-2.245247 1.730599,-0.83777 4.204986,-0.561511 5.504536,0.614567 0.554505,0.50182 0.548219,1.567411 -0.01224,2.074617 -0.411952,0.372811 -0.467694,0.368079 -0.867441,-0.07364 z"
       id="path1" />
  </g>
</svg>
