<?xml version="1.0" encoding="UTF-8" standalone="no"?>
<svg
   width="64"
   height="64"
   version="1.1"
   id="svg73"
   sodipodi:docname="jockey.svg"
   inkscape:version="1.2.2 (b0a8486541, 2022-12-01)"
   xmlns:inkscape="http://www.inkscape.org/namespaces/inkscape"
   xmlns:sodipodi="http://sodipodi.sourceforge.net/DTD/sodipodi-0.dtd"
   xmlns="http://www.w3.org/2000/svg"
   xmlns:svg="http://www.w3.org/2000/svg"
   xmlns:rdf="http://www.w3.org/1999/02/22-rdf-syntax-ns#"
   xmlns:cc="http://creativecommons.org/ns#"
   xmlns:dc="http://purl.org/dc/elements/1.1/">
  <metadata
     id="metadata77">
    <rdf:RDF>
      <cc:Work
         rdf:about="">
        <dc:format>image/svg+xml</dc:format>
        <dc:type
           rdf:resource="http://purl.org/dc/dcmitype/StillImage" />
      </cc:Work>
    </rdf:RDF>
  </metadata>
  <sodipodi:namedview
     pagecolor="#f5f7fa"
     bordercolor="#666666"
     borderopacity="1"
     objecttolerance="10"
     gridtolerance="10"
     guidetolerance="10"
     inkscape:pageopacity="0"
     inkscape:pageshadow="2"
     inkscape:window-width="1280"
     inkscape:window-height="603"
     id="namedview75"
     showgrid="false"
     inkscape:zoom="6.2890625"
     inkscape:cx="35.617391"
     inkscape:cy="37.843478"
     inkscape:window-x="35"
     inkscape:window-y="32"
     inkscape:window-maximized="0"
     inkscape:current-layer="g877"
     inkscape:document-rotation="0"
     inkscape:pagecheckerboard="0"
     inkscape:showpageshadow="2"
     inkscape:deskcolor="#d1d1d1" />
  <defs
     id="defs29">
    <filter
       style="color-interpolation-filters:sRGB;"
       inkscape:label="Blur"
       id="filter1"
       x="-0.091333304"
       y="-0.091333304"
       width="1.1826666"
       height="1.1826666">
      <feGaussianBlur
         stdDeviation="1.3 1.3"
         result="blur"
         id="feGaussianBlur1" />
    </filter>
    <filter
       style="color-interpolation-filters:sRGB"
       inkscape:label="Blur"
       id="filter1-3"
       x="-0.091333304"
       y="-0.091333304"
       width="1.1826666"
       height="1.1826666">
      <feGaussianBlur
         stdDeviation="1.3 1.3"
         result="blur"
         id="feGaussianBlur1-6" />
    </filter>
  </defs>
  <circle
     cx="32.516094"
     cy="31.877844"
     r="0"
     fill="url(#b)"
     stroke-width="1.5715"
     id="circle41"
     style="fill:url(#b)" />
  <g
     aria-label="GZ"
     transform="matrix(1.2212657,0,0,0.81882264,0.4960938,-0.1661539)"
     id="text93"
     style="font-weight:bold;font-size:11.5263px;line-height:1.25;font-family:sans-serif;-inkscape-font-specification:'sans-serif Bold';fill:#f2f2f2;stroke-width:0.288159" />
  <g
     id="g877"
     transform="matrix(1.1,0,0,1.1,-3.1845928,-3.2065454)">
    <rect
       style="fill:none;fill-opacity:1;stroke:#000000;stroke-width:2.72727;stroke-dasharray:none;stroke-opacity:1;filter:url(#filter1);opacity:0.5"
       id="rect1-5"
       width="49.090908"
       height="49.090908"
       x="7.4405394"
       y="7.4604964"
       rx="7.4768682"
       ry="7.477273" />
    <rect
       style="opacity:1;fill:#c4c2c5;stroke-width:2.72727273;stroke-opacity:1;fill-opacity:1;stroke:#1e2430;stroke-dasharray:none"
       id="rect1"
       width="49.090908"
       height="49.090908"
       x="7.4405394"
       y="7.4604964"
       rx="7.4768682"
       ry="7.477273" />
    <rect
       style="fill:#1e2430;fill-opacity:1;stroke:none;stroke-width:2.33829;stroke-dasharray:none;stroke-opacity:1"
       id="rect1-6"
       width="42.089317"
       height="42.089317"
       x="10.941335"
       y="10.961291"
       rx="5.5927272"
       ry="5.5927272" />
    <path
       d="m 34.909123,20.383679 -10.228344,2.766728 c -0.768068,0.216224 -1.387598,1.0736 -1.387598,1.906534 v 13.203772 c -0.779344,-0.427742 -1.778677,-0.599789 -2.816553,-0.317751 -1.871749,0.509536 -3.045001,2.155656 -2.643576,3.675804 0.400485,1.52016 2.24591,2.370956 4.117661,1.861414 1.492887,-0.40612 2.52136,-1.557756 2.684938,-2.769549 l 0.04514,-12.477074 9.169787,-2.574007 v 9.464977 c -0.679696,-0.241605 -1.466562,-0.307413 -2.280696,-0.08556 -1.871749,0.508596 -3.04312,2.15472 -2.641695,3.675809 0.401427,1.520149 2.24403,2.370009 4.115781,1.860474 1.329309,-0.361008 2.286335,-1.312391 2.597511,-2.371892 0.334673,-0.618591 0.486977,-1.31521 0.486977,-1.593476 0,-0.08745 0.01105,-0.295199 0.01211,-0.387325 v -0.345962 c 0.04605,-0.341259 0.213353,-0.616705 0.66088,-0.616705 0.454071,0 0.629872,0.277324 0.696613,0.616705 h 0.01604 v 1.541772 c 0,0.511421 0.307389,0.924128 0.687224,0.924128 0.378864,0 0.687216,-0.412707 0.687216,-0.924128 v -3.391893 c 0,-0.271688 0.253854,-1.23248 0.457834,-1.23248 0.203018,0 0.457829,0.960787 0.457829,1.23248 v 0.309296 c 0,0.511415 0.309328,0.92412 0.689102,0.92412 0.378861,0 0.686273,-0.412705 0.686273,-0.92412 v -2.775191 c 0,-0.272631 0.254803,-0.61671 0.458773,-0.61671 0.203017,0 0.45783,0.344079 0.45783,0.61671 v 0.309296 c 0,0.510477 0.307389,0.924123 0.686272,0.924123 0.379803,0 0.687218,-0.413646 0.687218,-0.924123 v -0.925996 h 2.060716 c 0.3798,0 0.687215,-0.412709 0.687215,-0.923184 0,-0.511417 -0.307421,-0.926004 -0.687215,-0.926004 h -2.060765 v -0.924123 c 0,-0.510477 -0.307419,-0.925065 -0.687216,-0.925065 -0.378862,0 -0.68628,0.414588 -0.68628,0.925065 v 0.307411 c 0,0.272634 -0.254803,0.61671 -0.457825,0.61671 -0.204015,0 -0.458772,-0.344079 -0.458772,-0.61671 v -2.773302 c 0,-0.510478 -0.307388,-0.926007 -0.686281,-0.926007 -0.379798,0 -0.689092,0.415529 -0.689092,0.926007 v 0.307414 c 0,0.27263 -0.254802,1.233416 -0.457837,1.233416 -0.203936,0 -0.457833,-0.960788 -0.457833,-1.233416 v -3.390022 c 0,-0.510475 -0.308342,-0.926003 -0.687212,-0.926003 -0.379806,0 -0.687221,0.415528 -0.687221,0.926003 V 24.1629 c -0.04703,0.340318 -0.220926,0.615767 -0.712599,0.615767 -0.447491,0 -0.593205,-0.275454 -0.64021,-0.615767 l -0.136212,-0.627048 c -8.42e-4,-0.09119 -0.110922,-1.399816 -0.13912,-1.483483 -0.07331,-0.214346 -0.09307,-0.442791 -0.135372,-0.657133 -0.06205,-0.535861 -0.391088,-0.932587 -0.841401,-1.011556 z"
       fill="url(#d)"
       fill-rule="nonzero"
       id="path11"
       style="fill:#f4e3cf;fill-opacity:1;stroke:none;stroke-width:0.458467;stroke-dasharray:none;stroke-opacity:0.6" />
    <rect
       style="opacity:0.5;fill:none;fill-opacity:1;stroke:#000000;stroke-width:2.72727;stroke-dasharray:none;stroke-opacity:1;filter:url(#filter1-3)"
       id="rect1-5-5"
       width="49.090908"
       height="49.090908"
       x="7.4405394"
       y="7.4604964"
       rx="7.4768682"
       ry="7.477273"
       transform="matrix(0.43046721,0,0,0.43046721,34.695898,34.707264)" />
    <rect
       style="fill:#c4c2c5;fill-opacity:1;stroke:#1e2430;stroke-width:1.174;stroke-dasharray:none;stroke-opacity:1"
       id="rect1-3"
       width="21.132023"
       height="21.132023"
       x="37.898808"
       y="37.918762"
       rx="3.2185469"
       ry="3.2187209" />
    <rect
       style="fill:#1e2430;fill-opacity:1;stroke:none;stroke-width:1.00656;stroke-dasharray:none;stroke-opacity:1"
       id="rect1-6-5"
       width="18.118069"
       height="18.118069"
       x="39.405781"
       y="39.425739"
       rx="2.4074855"
       ry="2.4074855" />
    <path
       style="color:#000000;clip-rule:nonzero;display:inline;overflow:visible;visibility:visible;isolation:auto;mix-blend-mode:normal;color-interpolation:sRGB;color-interpolation-filters:linearRGB;solid-color:#000000;solid-opacity:1;fill:#f4e3cf;fill-opacity:1;fill-rule:nonzero;stroke:none;stroke-width:0.368181;stroke-linecap:butt;stroke-linejoin:miter;stroke-miterlimit:4;stroke-dasharray:none;stroke-dashoffset:0;stroke-opacity:0.6;marker:none;color-rendering:auto;image-rendering:auto;shape-rendering:auto;text-rendering:auto;enable-background:accumulate"
       d="m 47.614147,42.188201 c -0.154215,0 -0.282751,0.613623 -0.358194,1.490576 A 4.7134211,4.8553593 0 0 0 46.11693,44.1719 c -0.657969,-0.568054 -1.171939,-0.910952 -1.281291,-0.798308 l -1.212668,1.249189 c -0.109351,0.112634 0.223515,0.642091 0.774968,1.319875 a 4.7134211,4.8553593 0 0 0 -0.474521,1.173323 c -0.853701,0.07764 -1.451185,0.209849 -1.451185,0.36898 v 1.765581 c 0,0.158864 0.595683,0.291269 1.446999,0.368984 a 4.7134211,4.8553593 0 0 0 0.477034,1.175905 c -0.550192,0.676569 -0.882516,1.20478 -0.773295,1.317293 l 1.212667,1.249183 c 0.109128,0.112384 0.621244,-0.22911 1.27711,-0.79486 a 4.7134211,4.8553593 0 0 0 1.143205,0.485367 c 0.07538,0.879412 0.2037,1.494886 0.358194,1.494886 h 1.71397 c 0.154216,0 0.282753,-0.613623 0.358196,-1.490576 a 4.7134211,4.8553593 0 0 0 1.13902,-0.49312 c 0.657973,0.568052 1.171939,0.910949 1.281294,0.798303 l 1.212668,-1.249183 C 53.428646,52.000115 53.09578,51.470627 52.544327,50.79284 a 4.7134211,4.8553593 0 0 0 0.474521,-1.173316 c 0.853699,-0.07764 1.451185,-0.209851 1.451185,-0.368984 v -1.765581 c 0,-0.158864 -0.595685,-0.291267 -1.446999,-0.36898 A 4.7134211,4.8553593 0 0 0 52.545995,45.94007 c 0.550197,-0.676569 0.882521,-1.20478 0.7733,-1.317289 l -1.212668,-1.249189 c -0.109127,-0.112411 -0.621243,0.22911 -1.277111,0.79486 a 4.7134211,4.8553593 0 0 0 -1.143203,-0.485365 c -0.07538,-0.879409 -0.2037,-1.494882 -0.358196,-1.494882 z m 0.856984,3.972569 a 2.1424642,2.2069813 0 0 1 2.142464,2.206983 2.1424642,2.2069813 0 0 1 -2.142464,2.206977 2.1424642,2.2069813 0 0 1 -2.142463,-2.206977 2.1424642,2.2069813 0 0 1 2.142463,-2.206983 z"
       id="path4690"
       inkscape:connector-curvature="0" />
  </g>
</svg>
