<?xml version="1.0" encoding="UTF-8" standalone="no"?>
<svg
   width="64"
   height="64"
   version="1.1"
   id="svg73"
   sodipodi:docname="appimagekit-1password.svg"
   inkscape:version="1.2.2 (b0a8486541, 2022-12-01)"
   xmlns:inkscape="http://www.inkscape.org/namespaces/inkscape"
   xmlns:sodipodi="http://sodipodi.sourceforge.net/DTD/sodipodi-0.dtd"
   xmlns="http://www.w3.org/2000/svg"
   xmlns:svg="http://www.w3.org/2000/svg"
   xmlns:rdf="http://www.w3.org/1999/02/22-rdf-syntax-ns#"
   xmlns:cc="http://creativecommons.org/ns#"
   xmlns:dc="http://purl.org/dc/elements/1.1/">
  <metadata
     id="metadata77">
    <rdf:RDF>
      <cc:Work
         rdf:about="">
        <dc:format>image/svg+xml</dc:format>
        <dc:type
           rdf:resource="http://purl.org/dc/dcmitype/StillImage" />
      </cc:Work>
    </rdf:RDF>
  </metadata>
  <sodipodi:namedview
     pagecolor="#f5f7fa"
     bordercolor="#666666"
     borderopacity="1"
     objecttolerance="10"
     gridtolerance="10"
     guidetolerance="10"
     inkscape:pageopacity="0"
     inkscape:pageshadow="2"
     inkscape:window-width="1280"
     inkscape:window-height="603"
     id="namedview75"
     showgrid="false"
     inkscape:zoom="6.2890625"
     inkscape:cx="48.178882"
     inkscape:cy="37.843478"
     inkscape:window-x="35"
     inkscape:window-y="32"
     inkscape:window-maximized="0"
     inkscape:current-layer="g877"
     inkscape:document-rotation="0"
     inkscape:pagecheckerboard="0"
     inkscape:showpageshadow="2"
     inkscape:deskcolor="#d1d1d1" />
  <defs
     id="defs29">
    <filter
       style="color-interpolation-filters:sRGB;"
       inkscape:label="Blur"
       id="filter1"
       x="-0.091333304"
       y="-0.091333304"
       width="1.1826666"
       height="1.1826666">
      <feGaussianBlur
         stdDeviation="1.3 1.3"
         result="blur"
         id="feGaussianBlur1" />
    </filter>
  </defs>
  <circle
     cx="32.516094"
     cy="31.877844"
     r="0"
     fill="url(#b)"
     stroke-width="1.5715"
     id="circle41"
     style="fill:url(#b)" />
  <g
     aria-label="GZ"
     transform="matrix(1.2212657,0,0,0.81882264,0.4960938,-0.1661539)"
     id="text93"
     style="font-weight:bold;font-size:11.5263px;line-height:1.25;font-family:sans-serif;-inkscape-font-specification:'sans-serif Bold';fill:#f2f2f2;stroke-width:0.288159" />
  <g
     id="g877"
     transform="matrix(1.1,0,0,1.1,-3.1845928,-3.2065454)">
    <rect
       style="fill:none;fill-opacity:1;stroke:#000000;stroke-width:2.72727;stroke-dasharray:none;stroke-opacity:1;filter:url(#filter1);opacity:0.5"
       id="rect1-5"
       width="49.090908"
       height="49.090908"
       x="7.4405394"
       y="7.4604964"
       rx="7.4768682"
       ry="7.477273" />
    <rect
       style="opacity:1;fill:#c4c2c5;stroke-width:2.72727273;stroke-opacity:1;fill-opacity:1;stroke:#1e2430;stroke-dasharray:none"
       id="rect1"
       width="49.090908"
       height="49.090908"
       x="7.4405394"
       y="7.4604964"
       rx="7.4768682"
       ry="7.477273" />
    <rect
       style="fill:#1e2430;fill-opacity:1;stroke:none;stroke-width:2.33829;stroke-dasharray:none;stroke-opacity:1"
       id="rect1-6"
       width="42.089317"
       height="42.089317"
       x="10.941335"
       y="10.961291"
       rx="5.5927272"
       ry="5.5927272" />
    <path
       style="fill:#f4e3cf;fill-opacity:1;stroke:none;stroke-width:0.864225;stroke-dasharray:none;stroke-dashoffset:2.2;stroke-opacity:0.3"
       d="m 26.645084,41.241341 c -1.978676,-0.315932 -4.206821,-1.624441 -5.69561,-3.344826 -0.798579,-0.922805 -2.064204,-2.82005 -2.519665,-3.777119 -0.593374,-1.246867 -0.711295,-1.97887 -0.468138,-2.905965 0.263153,-1.003332 0.730689,-1.961802 1.571988,-3.222637 1.859396,-2.786636 3.701063,-4.271978 6.257328,-5.046671 0.941842,-0.285431 2.920413,-0.309105 4.122527,-0.04932 2.30234,0.497536 5.214149,2.296143 6.759615,4.175381 0.794277,0.965816 1.238433,1.25375 1.947061,1.262233 0.471875,0.0056 0.819026,-0.165622 3.445988,-1.700212 3.382389,-1.975878 3.637495,-2.106837 3.904548,-2.004362 0.310095,0.119014 0.164903,0.873191 -0.436929,2.268913 -2.173635,5.040889 -2.197125,5.105449 -2.01825,5.545987 0.09121,0.224606 0.700097,1.657051 1.353099,3.183217 1.271098,2.970727 1.449751,3.666158 0.959698,3.735893 -0.162274,0.02296 -1.410154,-0.63322 -3.462323,-1.820987 -4.116113,-2.382346 -4.089322,-2.379621 -5.711221,-0.580487 -2.316992,2.570187 -5.434746,4.193576 -8.305425,4.324564 -0.612238,0.02814 -1.379167,0.0085 -1.704291,-0.04361 z M 24.426921,29.470359 c 0.629925,-0.629923 0.562812,-1.842658 -0.129245,-2.335444 -1.278504,-0.910375 -2.930833,0.479822 -2.257299,1.899188 0.293536,0.618586 0.780966,0.893418 1.477883,0.833295 0.43073,-0.03716 0.640395,-0.128776 0.908661,-0.397039 z"
       id="path26" />
  </g>
</svg>
