<?xml version="1.0" encoding="UTF-8" standalone="no"?>
<svg
   width="64"
   height="64"
   version="1.1"
   id="svg73"
   sodipodi:docname="clamav.svg"
   inkscape:version="1.2.2 (b0a8486541, 2022-12-01)"
   xmlns:inkscape="http://www.inkscape.org/namespaces/inkscape"
   xmlns:sodipodi="http://sodipodi.sourceforge.net/DTD/sodipodi-0.dtd"
   xmlns="http://www.w3.org/2000/svg"
   xmlns:svg="http://www.w3.org/2000/svg"
   xmlns:rdf="http://www.w3.org/1999/02/22-rdf-syntax-ns#"
   xmlns:cc="http://creativecommons.org/ns#"
   xmlns:dc="http://purl.org/dc/elements/1.1/">
  <metadata
     id="metadata77">
    <rdf:RDF>
      <cc:Work
         rdf:about="">
        <dc:format>image/svg+xml</dc:format>
        <dc:type
           rdf:resource="http://purl.org/dc/dcmitype/StillImage" />
      </cc:Work>
    </rdf:RDF>
  </metadata>
  <sodipodi:namedview
     pagecolor="#f5f7fa"
     bordercolor="#666666"
     borderopacity="1"
     objecttolerance="10"
     gridtolerance="10"
     guidetolerance="10"
     inkscape:pageopacity="0"
     inkscape:pageshadow="2"
     inkscape:window-width="1280"
     inkscape:window-height="603"
     id="namedview75"
     showgrid="false"
     inkscape:zoom="6.2890625"
     inkscape:cx="39.592547"
     inkscape:cy="37.843478"
     inkscape:window-x="35"
     inkscape:window-y="32"
     inkscape:window-maximized="0"
     inkscape:current-layer="g877"
     inkscape:document-rotation="0"
     inkscape:pagecheckerboard="0"
     inkscape:showpageshadow="2"
     inkscape:deskcolor="#d1d1d1" />
  <defs
     id="defs29">
    <filter
       style="color-interpolation-filters:sRGB;"
       inkscape:label="Blur"
       id="filter1"
       x="-0.091333304"
       y="-0.091333304"
       width="1.1826666"
       height="1.1826666">
      <feGaussianBlur
         stdDeviation="1.3 1.3"
         result="blur"
         id="feGaussianBlur1" />
    </filter>
    <filter
       style="color-interpolation-filters:sRGB"
       inkscape:label="Blur"
       id="filter1-3"
       x="-0.091333304"
       y="-0.091333304"
       width="1.1826666"
       height="1.1826666">
      <feGaussianBlur
         stdDeviation="1.3 1.3"
         result="blur"
         id="feGaussianBlur1-6" />
    </filter>
  </defs>
  <circle
     cx="32.516094"
     cy="31.877844"
     r="0"
     fill="url(#b)"
     stroke-width="1.5715"
     id="circle41"
     style="fill:url(#b)" />
  <g
     aria-label="GZ"
     transform="matrix(1.2212657,0,0,0.81882264,0.4960938,-0.1661539)"
     id="text93"
     style="font-weight:bold;font-size:11.5263px;line-height:1.25;font-family:sans-serif;-inkscape-font-specification:'sans-serif Bold';fill:#f2f2f2;stroke-width:0.288159" />
  <g
     id="g877"
     transform="matrix(1.1,0,0,1.1,-3.1845928,-3.2065454)">
    <rect
       style="fill:none;fill-opacity:1;stroke:#000000;stroke-width:2.72727;stroke-dasharray:none;stroke-opacity:1;filter:url(#filter1);opacity:0.5"
       id="rect1-5"
       width="49.090908"
       height="49.090908"
       x="7.4405394"
       y="7.4604964"
       rx="7.4768682"
       ry="7.477273" />
    <rect
       style="opacity:1;fill:#c4c2c5;stroke-width:2.72727273;stroke-opacity:1;fill-opacity:1;stroke:#1e2430;stroke-dasharray:none"
       id="rect1"
       width="49.090908"
       height="49.090908"
       x="7.4405394"
       y="7.4604964"
       rx="7.4768682"
       ry="7.477273" />
    <rect
       style="fill:#1e2430;fill-opacity:1;stroke:none;stroke-width:2.33829;stroke-dasharray:none;stroke-opacity:1"
       id="rect1-6"
       width="42.089317"
       height="42.089317"
       x="10.941335"
       y="10.961291"
       rx="5.5927272"
       ry="5.5927272" />
    <path
       d="m 20.188774,17.819483 v 1.891528 h 4.728822 v -1.891528 z m 6.620351,0 v 1.891528 h 7.566115 v -1.891528 z m -6.620351,3.783057 v 1.89153 h 5.674587 v -1.89153 z m 7.566118,0 v 1.89153 h 4.72882 v -1.89153 z m 6.620348,0 v 1.89153 h 1.891529 v -1.89153 z m -14.186466,3.783059 v 1.891529 h 2.837293 v -1.891529 z m 4.728822,0 v 1.891529 h 3.783058 v -1.891529 z m 5.674587,0 v 1.891529 h 3.783057 v -1.891529 z m -10.403409,3.783059 v 1.891528 h 4.728822 v -1.891528 z m 6.620351,0 v 1.891528 h 7.566115 v -1.891528 z m 9.457644,0 v 1.891528 h 4.728822 v -1.891528 z m -16.077995,3.783057 v 1.891527 h 4.728822 v -1.891527 z m 6.620351,0 v 1.891527 h 2.837294 v -1.891527 z m 4.728822,0 v 1.891527 h 4.728822 v -1.891527 z m -11.349173,3.783059 v 1.89153 h 3.783057 v -1.89153 z m 5.674587,0 v 1.89153 h 8.511879 v -1.89153 z m -5.674587,3.783055 v 1.891531 h 7.566118 v -1.891531 z m 9.457645,0 v 1.891531 h 3.783056 v -1.891531 z m -9.457645,3.783057 v 1.891532 h 4.728822 v -1.891532 z m 6.620351,0 v 1.891532 h 5.674587 v -1.891532 z"
       fill="#707070"
       id="path3-5"
       style="fill:#f4e3cf;fill-opacity:1;stroke:none;stroke-width:0.443052;stroke-dasharray:none;stroke-opacity:0.6" />
    <rect
       style="opacity:0.5;fill:none;fill-opacity:1;stroke:#000000;stroke-width:2.72727;stroke-dasharray:none;stroke-opacity:1;filter:url(#filter1-3)"
       id="rect1-5-5"
       width="49.090908"
       height="49.090908"
       x="7.4405394"
       y="7.4604964"
       rx="7.4768682"
       ry="7.477273"
       transform="matrix(0.43046721,0,0,0.43046721,34.695898,34.707264)" />
    <rect
       style="fill:#c4c2c5;fill-opacity:1;stroke:#1e2430;stroke-width:1.174;stroke-dasharray:none;stroke-opacity:1"
       id="rect1-3"
       width="21.132023"
       height="21.132023"
       x="37.898808"
       y="37.918762"
       rx="3.2185469"
       ry="3.2187209" />
    <rect
       style="fill:#1e2430;fill-opacity:1;stroke:none;stroke-width:1.00656;stroke-dasharray:none;stroke-opacity:1"
       id="rect1-6-5"
       width="18.118069"
       height="18.118069"
       x="39.405781"
       y="39.425739"
       rx="2.4074855"
       ry="2.4074855" />
    <path
       d="m 47.465661,47.422888 v -3.803751 c 0,-0.570398 0.463313,-1.032618 1.033712,-1.032618 0.570397,0 1.03262,0.46222 1.03262,1.032618 v 3.803751 h 3.804845 c 0.570393,0 1.032616,0.463313 1.032616,1.033713 0,0.570397 -0.462223,1.03262 -1.032616,1.03262 h -3.804845 v 3.804844 c 0,0.570394 -0.462223,1.032618 -1.03262,1.032618 -0.570399,0 -1.033712,-0.462224 -1.033712,-1.032618 v -3.804844 h -3.803752 c -0.570397,0 -1.03262,-0.462223 -1.03262,-1.03262 0,-0.5704 0.462223,-1.033713 1.03262,-1.033713 z"
       fill="#dfdfdf"
       id="path5"
       style="fill:#f4e3cf;fill-opacity:1;stroke:none;stroke-width:0.383594;stroke-dasharray:none;stroke-opacity:0.6" />
  </g>
</svg>
