<?xml version="1.0" encoding="UTF-8" standalone="no"?>
<svg
   width="64"
   height="64"
   version="1.1"
   id="svg73"
   sodipodi:docname="1password.svg"
   inkscape:version="1.2.2 (b0a8486541, 2022-12-01)"
   xmlns:inkscape="http://www.inkscape.org/namespaces/inkscape"
   xmlns:sodipodi="http://sodipodi.sourceforge.net/DTD/sodipodi-0.dtd"
   xmlns="http://www.w3.org/2000/svg"
   xmlns:svg="http://www.w3.org/2000/svg"
   xmlns:rdf="http://www.w3.org/1999/02/22-rdf-syntax-ns#"
   xmlns:cc="http://creativecommons.org/ns#"
   xmlns:dc="http://purl.org/dc/elements/1.1/">
  <metadata
     id="metadata77">
    <rdf:RDF>
      <cc:Work
         rdf:about="">
        <dc:format>image/svg+xml</dc:format>
        <dc:type
           rdf:resource="http://purl.org/dc/dcmitype/StillImage" />
      </cc:Work>
    </rdf:RDF>
  </metadata>
  <sodipodi:namedview
     pagecolor="#f5f7fa"
     bordercolor="#666666"
     borderopacity="1"
     objecttolerance="10"
     gridtolerance="10"
     guidetolerance="10"
     inkscape:pageopacity="0"
     inkscape:pageshadow="2"
     inkscape:window-width="1280"
     inkscape:window-height="603"
     id="namedview75"
     showgrid="false"
     inkscape:zoom="6.2890625"
     inkscape:cx="48.178882"
     inkscape:cy="37.843478"
     inkscape:window-x="35"
     inkscape:window-y="32"
     inkscape:window-maximized="0"
     inkscape:current-layer="g877"
     inkscape:document-rotation="0"
     inkscape:pagecheckerboard="0"
     inkscape:showpageshadow="2"
     inkscape:deskcolor="#d1d1d1" />
  <defs
     id="defs29">
    <filter
       style="color-interpolation-filters:sRGB;"
       inkscape:label="Blur"
       id="filter1"
       x="-0.091333304"
       y="-0.091333304"
       width="1.1826666"
       height="1.1826666">
      <feGaussianBlur
         stdDeviation="1.3 1.3"
         result="blur"
         id="feGaussianBlur1" />
    </filter>
  </defs>
  <circle
     cx="32.516094"
     cy="31.877844"
     r="0"
     fill="url(#b)"
     stroke-width="1.5715"
     id="circle41"
     style="fill:url(#b)" />
  <g
     aria-label="GZ"
     transform="matrix(1.2212657,0,0,0.81882264,0.4960938,-0.1661539)"
     id="text93"
     style="font-weight:bold;font-size:11.5263px;line-height:1.25;font-family:sans-serif;-inkscape-font-specification:'sans-serif Bold';fill:#f2f2f2;stroke-width:0.288159" />
  <g
     id="g877"
     transform="matrix(1.1,0,0,1.1,-3.1845928,-3.2065454)">
    <rect
       style="fill:none;fill-opacity:1;stroke:#000000;stroke-width:2.72727;stroke-dasharray:none;stroke-opacity:1;filter:url(#filter1);opacity:0.5"
       id="rect1-5"
       width="49.090908"
       height="49.090908"
       x="7.4405394"
       y="7.4604964"
       rx="7.4768682"
       ry="7.477273" />
    <rect
       style="opacity:1;fill:#c4c2c5;stroke-width:2.72727273;stroke-opacity:1;fill-opacity:1;stroke:#1e2430;stroke-dasharray:none"
       id="rect1"
       width="49.090908"
       height="49.090908"
       x="7.4405394"
       y="7.4604964"
       rx="7.4768682"
       ry="7.477273" />
    <rect
       style="fill:#1e2430;fill-opacity:1;stroke:none;stroke-width:2.33829;stroke-dasharray:none;stroke-opacity:1"
       id="rect1-6"
       width="42.089317"
       height="42.089317"
       x="10.941335"
       y="10.961291"
       rx="5.5927272"
       ry="5.5927272" />
    <path
       id="path2"
       style="fill:#f4e3cf;fill-opacity:1;stroke:none;stroke-width:0.4725;stroke-dasharray:none;stroke-opacity:0.6"
       d="m 41.505639,17.61116 c -0.06354,0.0042 -0.110659,0.0241 -0.13472,0.0609 -0.07215,0.110191 -0.545886,0.833961 -1.053892,1.607608 l -0.924706,1.406426 -1.035443,-0.524179 c -0.569219,-0.28844 -1.128869,-0.524181 -1.244015,-0.524181 -0.11514,0 -0.498274,0.4196 -0.850869,0.93208 L 35.621535,21.50005 32.90466,21.391155 c -3.251988,-0.131895 -5.294289,0.283944 -8.049111,1.638985 -6.477211,3.186007 -9.020527,10.619658 -5.636778,16.478438 1.892545,3.276846 5.959713,6.016939 9.913271,6.677753 4.128733,0.69009 8.626007,-0.302525 11.869717,-2.617206 5.970686,-4.260587 6.999378,-11.976972 2.310825,-17.336686 l -0.992995,-1.133263 0.581402,-1.042822 c 0.319797,-0.572789 0.52553,-1.133195 0.455882,-1.245849 -0.06962,-0.112653 -0.526352,-0.405086 -1.015136,-0.651533 -0.488791,-0.246446 -0.927232,-0.483359 -0.974528,-0.526026 l -0.0019,-0.0019 -0.0019,-0.0019 v -0.0019 -0.0019 -0.0019 c -0.0042,-0.09985 0.397367,-0.791502 0.926538,-1.587305 1.082053,-1.627252 1.087713,-1.550794 -0.17534,-2.233301 -0.24752,-0.133758 -0.469288,-0.201241 -0.609083,-0.191955 z m -11.063148,6.701749 c 0.357674,0.0061 0.804923,0.02844 1.399044,0.05907 3.524755,0.181815 7.377123,1.411303 8.575137,2.735331 0.309798,0.342383 0.694262,1.527072 1.223695,3.772619 0.760764,3.226598 0.766833,3.285239 0.398676,4.023632 -0.271257,0.544089 -0.724103,0.92736 -1.650059,1.400888 l -1.273534,0.651533 -3.931346,0.04246 c -2.162197,0.02368 -4.201649,-0.04056 -4.531201,-0.14397 -0.329552,-0.103409 -1.098076,-0.572829 -1.707276,-1.042823 -0.609201,-0.469994 -1.810608,-1.141298 -2.670733,-1.491327 -2.149193,-0.874621 -3.423221,-2.167866 -3.41086,-3.462539 0.01557,-1.630666 2.692602,-4.689533 5.175353,-5.911787 1.057426,-0.520571 1.330087,-0.651599 2.403104,-0.633076 z m 5.900713,4.438915 c -0.795825,-0.01541 -1.41899,0.504881 -1.91953,1.579922 -0.651611,1.399498 -0.644934,1.868134 0.03506,2.676269 0.453908,0.539439 0.704552,0.653563 1.434113,0.649688 1.321242,-0.0071 2.108651,-0.800948 2.495387,-2.515694 0.215366,-0.954897 -0.06705,-1.634234 -0.847176,-2.037656 -0.43777,-0.226379 -0.836121,-0.345525 -1.19786,-0.352529 z m -6.72205,0.02585 c -1.049995,-0.0043 -1.662978,0.753551 -1.662978,2.057941 0,0.517864 0.09865,1.126833 0.219638,1.352901 0.328815,0.61441 1.895492,0.572716 2.482471,-0.06643 0.572841,-0.623752 0.775372,-1.630765 0.481729,-2.403105 -0.296706,-0.780397 -0.550043,-0.937246 -1.52086,-0.941309 z m -3.879668,6.076052 c 0.774542,0.02464 1.49153,0.387467 1.895537,1.004062 0.284854,0.434745 0.307122,0.682659 0.123663,1.363973 -0.275271,1.022275 -1.704409,3.271799 -2.377268,3.743088 -1.766683,1.237433 -4.527897,-1.452711 -3.510526,-3.420087 0.498694,-0.96437 2.136459,-2.345405 3.08417,-2.600598 0.261567,-0.07044 0.526243,-0.09866 0.784424,-0.09044 z m 4.95756,3.122928 c 0.603306,0.0061 1.143235,0.251709 1.441492,0.706906 0.445807,0.680387 0.651623,3.63608 0.299003,4.294952 -0.206283,0.385444 -0.423025,0.454463 -1.354747,0.433737 -1.296623,-0.0289 -1.713188,-0.115756 -2.648584,-0.551867 -0.618043,-0.288173 -0.690292,-0.415878 -0.690292,-1.212623 0,-1.306981 0.894021,-2.969174 1.836474,-3.416399 0.370596,-0.175858 0.754666,-0.258398 1.11665,-0.254696 z m 5.332235,0.0075 c 0.733457,-0.01331 1.210816,0.361481 1.79956,1.284609 1.233624,1.934286 1.133262,2.389915 -0.629383,2.871916 -1.08892,0.297752 -3.012818,0.302039 -3.194913,0.0075 -0.07714,-0.124782 -0.191633,-0.779248 -0.252861,-1.454411 -0.139561,-1.539102 0.262725,-2.254508 1.445185,-2.572911 0.314893,-0.08477 0.587927,-0.132155 0.832412,-0.13657 z" />
  </g>
</svg>
