<?xml version="1.0" encoding="UTF-8" standalone="no"?>
<svg
   width="64"
   height="64"
   version="1.1"
   id="svg73"
   sodipodi:docname="1password.svg"
   inkscape:version="1.2.2 (b0a8486541, 2022-12-01)"
   xmlns:inkscape="http://www.inkscape.org/namespaces/inkscape"
   xmlns:sodipodi="http://sodipodi.sourceforge.net/DTD/sodipodi-0.dtd"
   xmlns="http://www.w3.org/2000/svg"
   xmlns:svg="http://www.w3.org/2000/svg"
   xmlns:rdf="http://www.w3.org/1999/02/22-rdf-syntax-ns#"
   xmlns:cc="http://creativecommons.org/ns#"
   xmlns:dc="http://purl.org/dc/elements/1.1/">
  <metadata
     id="metadata77">
    <rdf:RDF>
      <cc:Work
         rdf:about="">
        <dc:format>image/svg+xml</dc:format>
        <dc:type
           rdf:resource="http://purl.org/dc/dcmitype/StillImage" />
      </cc:Work>
    </rdf:RDF>
  </metadata>
  <sodipodi:namedview
     pagecolor="#f5f7fa"
     bordercolor="#666666"
     borderopacity="1"
     objecttolerance="10"
     gridtolerance="10"
     guidetolerance="10"
     inkscape:pageopacity="0"
     inkscape:pageshadow="2"
     inkscape:window-width="1280"
     inkscape:window-height="603"
     id="namedview75"
     showgrid="false"
     inkscape:zoom="4.4470387"
     inkscape:cx="48.346779"
     inkscape:cy="46.322961"
     inkscape:window-x="35"
     inkscape:window-y="32"
     inkscape:window-maximized="0"
     inkscape:current-layer="g877"
     inkscape:document-rotation="0"
     inkscape:pagecheckerboard="0"
     inkscape:showpageshadow="2"
     inkscape:deskcolor="#d1d1d1" />
  <defs
     id="defs29">
    <filter
       style="color-interpolation-filters:sRGB;"
       inkscape:label="Blur"
       id="filter1"
       x="-0.091333304"
       y="-0.091333304"
       width="1.1826666"
       height="1.1826666">
      <feGaussianBlur
         stdDeviation="1.3 1.3"
         result="blur"
         id="feGaussianBlur1" />
    </filter>
  </defs>
  <circle
     cx="32.516094"
     cy="31.877844"
     r="0"
     fill="url(#b)"
     stroke-width="1.5715"
     id="circle41"
     style="fill:url(#b)" />
  <g
     aria-label="GZ"
     transform="matrix(1.2212657,0,0,0.81882264,0.4960938,-0.1661539)"
     id="text93"
     style="font-weight:bold;font-size:11.5263px;line-height:1.25;font-family:sans-serif;-inkscape-font-specification:'sans-serif Bold';fill:#f2f2f2;stroke-width:0.288159" />
  <g
     id="g877"
     transform="matrix(1.1,0,0,1.1,-3.1845928,-3.2065454)">
    <rect
       style="fill:none;fill-opacity:1;stroke:#000000;stroke-width:2.72727;stroke-dasharray:none;stroke-opacity:1;filter:url(#filter1);opacity:0.5"
       id="rect1-5"
       width="49.090908"
       height="49.090908"
       x="7.4405394"
       y="7.4604964"
       rx="7.4768682"
       ry="7.477273" />
    <rect
       style="opacity:1;fill:#c4c2c5;stroke-width:2.72727273;stroke-opacity:1;fill-opacity:1;stroke:#1e2430;stroke-dasharray:none"
       id="rect1"
       width="49.090908"
       height="49.090908"
       x="7.4405394"
       y="7.4604964"
       rx="7.4768682"
       ry="7.477273" />
    <rect
       style="fill:#1e2430;fill-opacity:1;stroke:none;stroke-width:2.33829;stroke-dasharray:none;stroke-opacity:1"
       id="rect1-6"
       width="42.089317"
       height="42.089317"
       x="10.941335"
       y="10.961291"
       rx="5.5927272"
       ry="5.5927272" />
    <path
       style="fill:#f4e3cf;fill-opacity:1;stroke:none;stroke-width:0.421954;stroke-dasharray:none;stroke-opacity:0.6"
       d="m 40.284126,46.645984 c -1.815028,-3.000615 -3.244987,-5.589181 -3.30795,-5.675288 -0.101113,-0.138257 -0.144115,-0.137155 -0.368224,0.0096 -0.679077,0.444374 -2.559825,0.626175 -3.935558,0.380431 -0.342656,-0.06121 -2.060151,-0.539357 -3.816654,-1.062555 l -3.193645,-0.951273 -1.56066,0.07527 c -1.137874,0.0548 -1.600896,0.04175 -1.709191,-0.0481 -0.08169,-0.0678 -0.204841,-0.374892 -0.273661,-0.68241 -0.106663,-0.476622 -0.16601,-0.567298 -0.402234,-0.61454 -0.427793,-0.08556 -0.831922,-0.461135 -0.961476,-0.89355 -0.196303,-0.655199 0.02111,-1.224685 0.72784,-1.906392 0.329266,-0.317611 0.706411,-0.753148 0.8381,-0.967856 0.424433,-0.691998 1.541048,-1.61247 2.572125,-2.120314 1.763594,-0.868628 3.588778,-1.250261 6.788962,-1.419512 2.025016,-0.1071 2.409093,-0.199516 4.659055,-1.121039 1.525962,-0.624989 2.844845,-1.003293 3.199374,-0.917694 0.441743,0.10666 0.833142,0.432382 1.131675,0.941796 l 0.27628,0.471412 0.206574,-0.347028 c 0.3137,-0.526953 1.133452,-1.334955 1.604098,-1.581085 0.246993,-0.129174 0.620308,-0.220496 0.906328,-0.221705 0.912466,-0.0038 1.351079,0.54908 1.351079,1.70328 0,0.724083 -0.234438,2.041997 -0.538199,3.025445 l -0.213125,0.690004 0.312584,0.328422 c 0.171952,0.180636 1.783571,2.117215 3.581455,4.303518 2.663687,3.239152 4.933799,5.02305 4.879541,5.206177 -0.03663,0.123585 -0.01081,4.365487 -0.01081,4.365487 -0.04704,2.296759 -1.552718,3.826392 -1.552718,3.826392 -2.357447,2.536641 -7.355463,1.543982 -7.355463,1.543982 z"
       id="path1-9"
       sodipodi:nodetypes="ssssscsssssssssssscsscsscssssscs" />
  </g>
</svg>
