<?xml version="1.0" encoding="UTF-8" standalone="no"?>
<svg
   width="64"
   height="64"
   version="1.1"
   id="svg73"
   sodipodi:docname="1password.svg"
   inkscape:version="1.2.2 (b0a8486541, 2022-12-01)"
   xmlns:inkscape="http://www.inkscape.org/namespaces/inkscape"
   xmlns:sodipodi="http://sodipodi.sourceforge.net/DTD/sodipodi-0.dtd"
   xmlns="http://www.w3.org/2000/svg"
   xmlns:svg="http://www.w3.org/2000/svg"
   xmlns:rdf="http://www.w3.org/1999/02/22-rdf-syntax-ns#"
   xmlns:cc="http://creativecommons.org/ns#"
   xmlns:dc="http://purl.org/dc/elements/1.1/">
  <metadata
     id="metadata77">
    <rdf:RDF>
      <cc:Work
         rdf:about="">
        <dc:format>image/svg+xml</dc:format>
        <dc:type
           rdf:resource="http://purl.org/dc/dcmitype/StillImage" />
      </cc:Work>
    </rdf:RDF>
  </metadata>
  <sodipodi:namedview
     pagecolor="#f5f7fa"
     bordercolor="#666666"
     borderopacity="1"
     objecttolerance="10"
     gridtolerance="10"
     guidetolerance="10"
     inkscape:pageopacity="0"
     inkscape:pageshadow="2"
     inkscape:window-width="1280"
     inkscape:window-height="603"
     id="namedview75"
     showgrid="false"
     inkscape:zoom="6.2890625"
     inkscape:cx="45.952795"
     inkscape:cy="37.843478"
     inkscape:window-x="35"
     inkscape:window-y="32"
     inkscape:window-maximized="0"
     inkscape:current-layer="g877"
     inkscape:document-rotation="0"
     inkscape:pagecheckerboard="0"
     inkscape:showpageshadow="2"
     inkscape:deskcolor="#d1d1d1" />
  <defs
     id="defs29">
    <filter
       style="color-interpolation-filters:sRGB;"
       inkscape:label="Blur"
       id="filter1"
       x="-0.091333304"
       y="-0.091333304"
       width="1.1826666"
       height="1.1826666">
      <feGaussianBlur
         stdDeviation="1.3 1.3"
         result="blur"
         id="feGaussianBlur1" />
    </filter>
  </defs>
  <circle
     cx="32.516094"
     cy="31.877844"
     r="0"
     fill="url(#b)"
     stroke-width="1.5715"
     id="circle41"
     style="fill:url(#b)" />
  <g
     aria-label="GZ"
     transform="matrix(1.2212657,0,0,0.81882264,0.4960938,-0.1661539)"
     id="text93"
     style="font-weight:bold;font-size:11.5263px;line-height:1.25;font-family:sans-serif;-inkscape-font-specification:'sans-serif Bold';fill:#f2f2f2;stroke-width:0.288159" />
  <g
     id="g877"
     transform="matrix(1.1,0,0,1.1,-3.1845928,-3.2065454)">
    <rect
       style="fill:none;fill-opacity:1;stroke:#000000;stroke-width:2.72727;stroke-dasharray:none;stroke-opacity:1;filter:url(#filter1);opacity:0.5"
       id="rect1-5"
       width="49.090908"
       height="49.090908"
       x="7.4405394"
       y="7.4604964"
       rx="7.4768682"
       ry="7.477273" />
    <rect
       style="opacity:1;fill:#c4c2c5;stroke-width:2.72727273;stroke-opacity:1;fill-opacity:1;stroke:#1e2430;stroke-dasharray:none"
       id="rect1"
       width="49.090908"
       height="49.090908"
       x="7.4405394"
       y="7.4604964"
       rx="7.4768682"
       ry="7.477273" />
    <rect
       style="fill:#1e2430;fill-opacity:1;stroke:none;stroke-width:2.33829;stroke-dasharray:none;stroke-opacity:1"
       id="rect1-6"
       width="42.089317"
       height="42.089317"
       x="10.941335"
       y="10.961291"
       rx="5.5927272"
       ry="5.5927272" />
    <g
       id="g2"
       transform="matrix(0.47829694,0,0,0.47829694,16.606888,16.736631)"
       style="fill:#f4e3cf;fill-opacity:1;stroke:none;stroke-width:0.940838;stroke-dasharray:none;stroke-opacity:0.6">
      <path
         style="fill:#f4e3cf;fill-opacity:1;stroke:none;stroke-width:0.940838;stroke-dasharray:none;stroke-opacity:0.6"
         d="m 43.82986,14.755563 c -1.09401,0.06337 -2.307504,0.345577 -3.670623,0.790997 L 38.979314,14.741602 16.418636,29.834555 c 3.440729,-1.471185 6.317215,-2.167296 8.081236,-2.328793 l -5.825169,7.360334 4.525673,-2.767043 c -1.854488,5.760477 -4.036107,11.16124 -9.037808,13.623906 -0.02823,0.07234 -0.02908,0.156466 -0.05287,0.230923 3.808243,4.755287 8.968097,8.122526 14.840643,9.035146 l 3.2167,4.957281 0.123377,-0.03932 L 35.46922,54.9892 C 41.661001,54.026994 47.07534,50.353395 50.931186,45.1828 50.732651,45.13752 50.529607,45.09476 50.258877,45.1023 43.134213,45.17021 37.41057,43.879771 36.72247,35.203837 36.537472,34.104566 36.379548,27.036035 46.874775,23.54453 c -1.058095,-0.759678 -4.579817,-0.812503 -7.08631,-0.820049 -0.108294,-1.033868 0.117311,-4.9681 8.214343,-5.468682 -1.270164,-1.363396 -2.348565,-2.606301 -4.173724,-2.5004 z m -6.763691,3.055819 c 0.518694,0.233815 0.585541,0.587141 0.678581,0.967887 -0.90473,0.194498 -2.179341,0.649953 -2.533564,0.132641 -0.162347,-0.177947 0.945225,-0.835421 1.863895,-1.085788 z"
         id="path6" />
      <path
         style="fill:#f4e3cf;fill-opacity:1;stroke:none;stroke-width:0.940838;stroke-dasharray:none;stroke-opacity:0.6"
         d="M 19.818405,2.3720438 C 9.7894288,7.2907998 2.8320284,18.016093 2.8320284,30.478516 c 0,17.122532 13.1282986,31.005801 29.3241136,31.005801 16.192434,0 29.319606,-13.885731 29.319606,-31.005801 0,-12.309205 -6.789139,-22.9295612 -16.616473,-27.9118699 L 44.55302,2.8883313 c 7.759016,4.6051754 12.412168,13.3669547 12.412168,23.4468577 0,13.53594 -9.249919,25.887024 -21.553822,27.759146 l -3.254727,4.926638 -3.259236,-4.926638 C 16.594175,52.222213 7.3435802,39.871129 7.3435802,26.335189 7.3435802,16.15035 12.111539,7.3159015 20.000248,2.7530944 19.947464,2.6311155 19.871201,2.4946427 19.816465,2.3643834"
         id="path10" />
    </g>
  </g>
</svg>
