<?xml version="1.0" encoding="UTF-8" standalone="no"?>
<svg
   width="64"
   height="64"
   version="1.1"
   id="svg73"
   sodipodi:docname="1password.svg"
   inkscape:version="1.2.2 (b0a8486541, 2022-12-01)"
   xmlns:inkscape="http://www.inkscape.org/namespaces/inkscape"
   xmlns:sodipodi="http://sodipodi.sourceforge.net/DTD/sodipodi-0.dtd"
   xmlns="http://www.w3.org/2000/svg"
   xmlns:svg="http://www.w3.org/2000/svg"
   xmlns:rdf="http://www.w3.org/1999/02/22-rdf-syntax-ns#"
   xmlns:cc="http://creativecommons.org/ns#"
   xmlns:dc="http://purl.org/dc/elements/1.1/">
  <metadata
     id="metadata77">
    <rdf:RDF>
      <cc:Work
         rdf:about="">
        <dc:format>image/svg+xml</dc:format>
        <dc:type
           rdf:resource="http://purl.org/dc/dcmitype/StillImage" />
      </cc:Work>
    </rdf:RDF>
  </metadata>
  <sodipodi:namedview
     pagecolor="#f5f7fa"
     bordercolor="#666666"
     borderopacity="1"
     objecttolerance="10"
     gridtolerance="10"
     guidetolerance="10"
     inkscape:pageopacity="0"
     inkscape:pageshadow="2"
     inkscape:window-width="1280"
     inkscape:window-height="603"
     id="namedview75"
     showgrid="false"
     inkscape:zoom="6.2890625"
     inkscape:cx="45.952795"
     inkscape:cy="37.843478"
     inkscape:window-x="35"
     inkscape:window-y="32"
     inkscape:window-maximized="0"
     inkscape:current-layer="g877"
     inkscape:document-rotation="0"
     inkscape:pagecheckerboard="0"
     inkscape:showpageshadow="2"
     inkscape:deskcolor="#d1d1d1" />
  <defs
     id="defs29">
    <filter
       style="color-interpolation-filters:sRGB;"
       inkscape:label="Blur"
       id="filter1"
       x="-0.091333304"
       y="-0.091333304"
       width="1.1826666"
       height="1.1826666">
      <feGaussianBlur
         stdDeviation="1.3 1.3"
         result="blur"
         id="feGaussianBlur1" />
    </filter>
  </defs>
  <circle
     cx="32.516094"
     cy="31.877844"
     r="0"
     fill="url(#b)"
     stroke-width="1.5715"
     id="circle41"
     style="fill:url(#b)" />
  <g
     aria-label="GZ"
     transform="matrix(1.2212657,0,0,0.81882264,0.4960938,-0.1661539)"
     id="text93"
     style="font-weight:bold;font-size:11.5263px;line-height:1.25;font-family:sans-serif;-inkscape-font-specification:'sans-serif Bold';fill:#f2f2f2;stroke-width:0.288159" />
  <g
     id="g877"
     transform="matrix(1.1,0,0,1.1,-3.1845928,-3.2065454)">
    <rect
       style="fill:none;fill-opacity:1;stroke:#000000;stroke-width:2.72727;stroke-dasharray:none;stroke-opacity:1;filter:url(#filter1);opacity:0.5"
       id="rect1-5"
       width="49.090908"
       height="49.090908"
       x="7.4405394"
       y="7.4604964"
       rx="7.4768682"
       ry="7.477273" />
    <rect
       style="opacity:1;fill:#c4c2c5;stroke-width:2.72727273;stroke-opacity:1;fill-opacity:1;stroke:#1e2430;stroke-dasharray:none"
       id="rect1"
       width="49.090908"
       height="49.090908"
       x="7.4405394"
       y="7.4604964"
       rx="7.4768682"
       ry="7.477273" />
    <rect
       style="fill:#1e2430;fill-opacity:1;stroke:none;stroke-width:2.33829;stroke-dasharray:none;stroke-opacity:1"
       id="rect1-6"
       width="42.089317"
       height="42.089317"
       x="10.941335"
       y="10.961291"
       rx="5.5927272"
       ry="5.5927272" />
    <path
       style="fill:#f4e3cf;fill-opacity:1;stroke-width:0.736364"
       d="m 28.895492,42.637252 c -5.146519,-1.396026 -9.520519,-2.67368 -9.72,-2.839235 -0.19948,-0.165553 -0.36269,-0.489649 -0.36269,-0.720213 0,-0.48663 2.009902,-8.107317 2.23379,-8.469576 0.247948,-0.401187 1.274522,-0.281169 4.128391,0.482661 3.044636,0.814887 3.621162,1.170863 3.415179,2.108698 -0.08806,0.400925 -0.01438,0.726707 0.205625,0.909299 0.449062,0.372689 4.530345,1.462424 4.916647,1.312785 0.164403,-0.06368 0.479545,-0.432236 0.700316,-0.819008 0.237986,-0.416926 0.595696,-0.70322 0.878638,-0.70322 0.878719,0 6.448059,1.617057 6.646379,1.929775 0.107701,0.169824 0.197441,0.43087 0.199426,0.580103 0.0077,0.585202 -2.111853,8.156944 -2.370803,8.468958 -0.151411,0.18244 -0.55391,0.323944 -0.894441,0.314455 -0.34053,-0.0095 -4.829937,-1.159458 -9.976457,-2.555482 z m 9.946401,-9.605266 c -1.62,-0.455705 -3.078,-0.937101 -3.24,-1.069764 -0.162,-0.132667 -0.294546,-0.586371 -0.294546,-1.008232 0,-0.985801 -0.202534,-1.126828 -2.490228,-1.733983 -2.48325,-0.659056 -2.886721,-0.64752 -3.16734,0.09057 -0.124448,0.327321 -0.409691,0.665515 -0.633877,0.751543 -0.405701,0.155682 -4.914559,-0.894284 -6.374009,-1.484299 -0.553411,-0.223729 -0.76539,-0.459985 -0.764273,-0.851805 0.0023,-0.815067 2.025926,-8.157551 2.358767,-8.558599 0.159165,-0.191783 0.420655,-0.348697 0.581086,-0.348697 0.625625,0 19.759766,5.19275 20.063749,5.445034 0.459474,0.38133 0.439612,0.512639 -0.756086,4.998652 -1.010083,3.789624 -1.408493,4.670584 -2.08828,4.617591 -0.13723,-0.0107 -1.574963,-0.392301 -3.194963,-0.848007 z"
       id="path1" />
  </g>
</svg>
