<?xml version="1.0" encoding="UTF-8" standalone="no"?>
<svg
   width="64"
   height="64"
   version="1.1"
   id="svg73"
   sodipodi:docname="com.system76.CosmicFiles.svg"
   inkscape:version="1.2.2 (b0a8486541, 2022-12-01)"
   xmlns:inkscape="http://www.inkscape.org/namespaces/inkscape"
   xmlns:sodipodi="http://sodipodi.sourceforge.net/DTD/sodipodi-0.dtd"
   xmlns="http://www.w3.org/2000/svg"
   xmlns:svg="http://www.w3.org/2000/svg"
   xmlns:rdf="http://www.w3.org/1999/02/22-rdf-syntax-ns#"
   xmlns:cc="http://creativecommons.org/ns#"
   xmlns:dc="http://purl.org/dc/elements/1.1/">
  <metadata
     id="metadata77">
    <rdf:RDF>
      <cc:Work
         rdf:about="">
        <dc:format>image/svg+xml</dc:format>
        <dc:type
           rdf:resource="http://purl.org/dc/dcmitype/StillImage" />
      </cc:Work>
    </rdf:RDF>
  </metadata>
  <sodipodi:namedview
     pagecolor="#f5f7fa"
     bordercolor="#666666"
     borderopacity="1"
     objecttolerance="10"
     gridtolerance="10"
     guidetolerance="10"
     inkscape:pageopacity="0"
     inkscape:pageshadow="2"
     inkscape:window-width="1280"
     inkscape:window-height="769"
     id="namedview75"
     showgrid="false"
     inkscape:zoom="6.2890625"
     inkscape:cx="55.81118"
     inkscape:cy="39.592547"
     inkscape:window-x="35"
     inkscape:window-y="32"
     inkscape:window-maximized="0"
     inkscape:current-layer="g877"
     inkscape:document-rotation="0"
     inkscape:pagecheckerboard="0"
     inkscape:showpageshadow="2"
     inkscape:deskcolor="#d1d1d1" />
  <defs
     id="defs29">
    <filter
       style="color-interpolation-filters:sRGB;"
       inkscape:label="Blur"
       id="filter1"
       x="-0.091333304"
       y="-0.091333304"
       width="1.1826666"
       height="1.1826666">
      <feGaussianBlur
         stdDeviation="1.3 1.3"
         result="blur"
         id="feGaussianBlur1" />
    </filter>
  </defs>
  <circle
     cx="32.516094"
     cy="31.877844"
     r="0"
     fill="url(#b)"
     stroke-width="1.5715"
     id="circle41"
     style="fill:url(#b)" />
  <g
     aria-label="GZ"
     transform="matrix(1.2212657,0,0,0.81882264,0.4960938,-0.1661539)"
     id="text93"
     style="font-weight:bold;font-size:11.5263px;line-height:1.25;font-family:sans-serif;-inkscape-font-specification:'sans-serif Bold';fill:#f2f2f2;stroke-width:0.288159" />
  <g
     id="g877"
     transform="matrix(1.1,0,0,1.1,-3.1845928,-3.2065454)">
    <rect
       style="fill:none;fill-opacity:1;stroke:#000000;stroke-width:2.72727;stroke-dasharray:none;stroke-opacity:1;filter:url(#filter1);opacity:0.5"
       id="rect1-5"
       width="49.090908"
       height="49.090908"
       x="7.4405394"
       y="7.4604964"
       rx="7.4768682"
       ry="7.477273" />
    <rect
       style="opacity:1;fill:#c4c2c5;stroke-width:2.72727273;stroke-opacity:1;fill-opacity:1;stroke:#1e2430;stroke-dasharray:none"
       id="rect1"
       width="49.090908"
       height="49.090908"
       x="7.4405394"
       y="7.4604964"
       rx="7.4768682"
       ry="7.477273" />
    <rect
       style="fill:#1e2430;fill-opacity:1;stroke:none;stroke-width:2.33829;stroke-dasharray:none;stroke-opacity:1"
       id="rect1-6"
       width="42.089317"
       height="42.089317"
       x="10.941335"
       y="10.961291"
       rx="5.5927272"
       ry="5.5927272" />
    <g
       id="g8447-0"
       style="fill:#f4e3cf;fill-opacity:1;stroke:none;stroke-width:0.641712;stroke-dasharray:none;stroke-opacity:0.6"
       transform="matrix(0.71051712,0,0,0.71051712,8.9752795,9.3955196)">
      <g
         id="g6292-2"
         transform="matrix(0.9,0,0,0.9,3.2385868,3.1822498)"
         style="fill:#f4e3cf;fill-opacity:1;stroke:none;stroke-width:0.713013;stroke-dasharray:none;stroke-opacity:0.6">
        <path
           d="m 23.314637,41.487873 c -1.85289,-1.206184 -3.7142,-0.42485 -4.623801,0.566467 -0.913812,0.986433 -1.520212,3.247417 -2.556146,5.366784 -1.035933,2.114484 -4.383767,6.065101 -4.383767,6.065101 0,0 3.402578,0.229518 5.234412,0 3.347835,-0.42485 5.845024,-2.119367 6.817791,-3.672267 0.972767,-1.5529 1.09489,-3.672267 1.09489,-3.672267 0,0 0.547444,-3.266951 -1.583379,-4.653818 z"
           id="path4-3"
           style="fill:#f4e3cf;fill-opacity:1;stroke:none;stroke-width:0.713013;stroke-dasharray:none;stroke-opacity:0.6" />
        <path
           d="m 26.965672,33.723371 4.809089,6.069985 -5.7229,3.950618 -3.044635,-4.375467 z"
           id="path6"
           style="fill:#f4e3cf;fill-opacity:1;stroke:none;stroke-width:0.713013;stroke-dasharray:none;stroke-opacity:0.6" />
        <path
           d="m 52.897701,10.151516 c -1.035933,-1.1329331 -12.692292,8.218652 -15.286338,10.71892 -3.133068,3.0179 -10.220369,11.798135 -10.220369,11.798135 l 5.293368,6.494835 c 0,0 6.678824,-5.581651 11.344736,-11.612569 4.181635,-5.400968 9.904537,-16.27127 8.868603,-17.399321 z"
           id="path8-1"
           style="fill:#f4e3cf;fill-opacity:1;stroke:none;stroke-width:0.713013;stroke-dasharray:none;stroke-opacity:0.6" />
      </g>
    </g>
  </g>
</svg>
