<?xml version="1.0" encoding="UTF-8" standalone="no"?>
<svg
   width="64"
   height="64"
   version="1.1"
   id="svg73"
   sodipodi:docname="1password.svg"
   inkscape:version="1.2.2 (b0a8486541, 2022-12-01)"
   xmlns:inkscape="http://www.inkscape.org/namespaces/inkscape"
   xmlns:sodipodi="http://sodipodi.sourceforge.net/DTD/sodipodi-0.dtd"
   xmlns="http://www.w3.org/2000/svg"
   xmlns:svg="http://www.w3.org/2000/svg"
   xmlns:rdf="http://www.w3.org/1999/02/22-rdf-syntax-ns#"
   xmlns:cc="http://creativecommons.org/ns#"
   xmlns:dc="http://purl.org/dc/elements/1.1/">
  <metadata
     id="metadata77">
    <rdf:RDF>
      <cc:Work
         rdf:about="">
        <dc:format>image/svg+xml</dc:format>
        <dc:type
           rdf:resource="http://purl.org/dc/dcmitype/StillImage" />
      </cc:Work>
    </rdf:RDF>
  </metadata>
  <sodipodi:namedview
     pagecolor="#f5f7fa"
     bordercolor="#666666"
     borderopacity="1"
     objecttolerance="10"
     gridtolerance="10"
     guidetolerance="10"
     inkscape:pageopacity="0"
     inkscape:pageshadow="2"
     inkscape:window-width="1280"
     inkscape:window-height="603"
     id="namedview75"
     showgrid="false"
     inkscape:zoom="6.2890625"
     inkscape:cx="48.178882"
     inkscape:cy="37.843478"
     inkscape:window-x="35"
     inkscape:window-y="32"
     inkscape:window-maximized="0"
     inkscape:current-layer="g877"
     inkscape:document-rotation="0"
     inkscape:pagecheckerboard="0"
     inkscape:showpageshadow="2"
     inkscape:deskcolor="#d1d1d1" />
  <defs
     id="defs29">
    <filter
       style="color-interpolation-filters:sRGB;"
       inkscape:label="Blur"
       id="filter1"
       x="-0.091333304"
       y="-0.091333304"
       width="1.1826666"
       height="1.1826666">
      <feGaussianBlur
         stdDeviation="1.3 1.3"
         result="blur"
         id="feGaussianBlur1" />
    </filter>
  </defs>
  <circle
     cx="32.516094"
     cy="31.877844"
     r="0"
     fill="url(#b)"
     stroke-width="1.5715"
     id="circle41"
     style="fill:url(#b)" />
  <g
     aria-label="GZ"
     transform="matrix(1.2212657,0,0,0.81882264,0.4960938,-0.1661539)"
     id="text93"
     style="font-weight:bold;font-size:11.5263px;line-height:1.25;font-family:sans-serif;-inkscape-font-specification:'sans-serif Bold';fill:#f2f2f2;stroke-width:0.288159" />
  <g
     id="g877"
     transform="matrix(1.1,0,0,1.1,-3.1845928,-3.2065454)">
    <rect
       style="fill:none;fill-opacity:1;stroke:#000000;stroke-width:2.72727;stroke-dasharray:none;stroke-opacity:1;filter:url(#filter1);opacity:0.5"
       id="rect1-5"
       width="49.090908"
       height="49.090908"
       x="7.4405394"
       y="7.4604964"
       rx="7.4768682"
       ry="7.477273" />
    <rect
       style="opacity:1;fill:#c4c2c5;stroke-width:2.72727273;stroke-opacity:1;fill-opacity:1;stroke:#1e2430;stroke-dasharray:none"
       id="rect1"
       width="49.090908"
       height="49.090908"
       x="7.4405394"
       y="7.4604964"
       rx="7.4768682"
       ry="7.477273" />
    <rect
       style="fill:#1e2430;fill-opacity:1;stroke:none;stroke-width:2.33829;stroke-dasharray:none;stroke-opacity:1"
       id="rect1-6"
       width="42.089317"
       height="42.089317"
       x="10.941335"
       y="10.961291"
       rx="5.5927272"
       ry="5.5927272" />
    <path
       id="path4"
       style="fill:#f4e3cf;fill-opacity:1;stroke:none;stroke-width:0.92178;stroke-dasharray:none;stroke-dashoffset:2.2;stroke-opacity:0.3"
       d="m 29.217976,17.841244 -0.323396,0.124379 c -0.788941,0.30407 -1.356481,0.876911 -1.64184,1.658106 l -0.104288,0.286079 -0.01045,4.109391 c -0.0066,2.563016 0.0027,4.109389 0.02582,4.109389 0.07833,0 0.292343,0.218811 0.360707,0.369321 0.08775,0.193191 0.09218,0.406562 0.01336,0.595119 -0.101044,0.241841 -0.129442,0.258515 -0.259288,0.149264 -0.06292,-0.05294 -0.183621,-0.11483 -0.26886,-0.137777 -0.436558,-0.117557 -0.87482,0.238369 -0.86876,0.706108 0.0055,0.421471 0.37805,0.739228 0.80083,0.683145 l 0.187527,-0.02492 v 0.972094 0.972091 l 0.177002,0.0201 c 0.108646,0.01228 0.266404,0.07551 0.407592,0.162652 0.261055,0.161132 0.508439,0.257374 0.661137,0.257374 0.106997,0 0.414977,0.277893 0.50614,0.456386 0.104035,0.203696 0.03002,0.418366 -0.173174,0.503269 -0.27719,0.115853 -0.599491,0.05433 -1.012246,-0.192289 -0.226965,-0.135626 -0.305393,-0.162178 -0.468796,-0.159776 -0.366587,0.0054 -0.727109,0.251081 -1.487803,1.01132 -0.542462,0.542143 -0.820349,0.719275 -1.181628,0.752033 -0.386598,0.03506 -0.788386,-0.203875 -0.900335,-0.535798 -0.02536,-0.07515 -0.06396,-0.391868 -0.08611,-0.703238 -0.06064,-0.853014 -0.169677,-1.290941 -0.421943,-1.688724 -0.173924,-0.274249 -0.390074,-0.399937 -0.686014,-0.399937 -0.199052,0 -0.273208,0.02063 -0.432467,0.118634 -0.105936,0.06521 -0.246573,0.199469 -0.313826,0.299472 -0.287049,0.426827 -0.189712,0.700045 0.449687,1.258174 0.223342,0.19495 0.423039,0.392212 0.443951,0.439161 0.06588,0.147903 0.0026,0.274664 -0.196138,0.391329 -0.16307,0.09572 -0.225211,0.108921 -0.517623,0.109068 -0.54107,2.82e-4 -0.834536,-0.163282 -1.094564,-0.608511 -0.238569,-0.408475 -0.442296,-0.525645 -0.715674,-0.411419 -0.238666,0.09972 -0.393519,0.462444 -0.289907,0.679317 0.0473,0.09903 0.07769,0.109397 0.406635,0.150214 0.198625,0.02461 0.398864,0.07391 0.455429,0.110989 0.05558,0.03642 0.211109,0.218407 0.345401,0.404722 0.94646,1.313059 2.737527,3.61299 3.836707,4.926478 1.906461,2.278175 3.821699,4.229435 5.1188,5.216396 0.741202,0.563977 1.286225,0.880234 1.845639,1.069684 0.602325,0.203974 1.063579,0.154774 1.785359,-0.190368 0.924938,-0.442298 2.068582,-1.350604 3.475041,-2.75841 1.930942,-1.932792 4.390784,-4.878206 6.584595,-7.885817 0.281996,-0.386532 0.587686,-0.781699 0.679317,-0.87833 0.21183,-0.22335 0.369298,-0.458724 0.369298,-0.552067 0,-0.186877 -0.611142,-0.0155 -1.005572,0.282256 -0.289449,0.218546 -0.628941,0.350206 -0.970175,0.376014 -0.347024,0.02623 -0.475127,-0.0039 -0.530066,-0.12438 -0.03485,-0.07616 -0.0266,-0.118358 0.03829,-0.223883 0.08875,-0.143175 0.252278,-0.271745 0.873535,-0.6908 0.440992,-0.297447 0.6439,-0.492428 0.767346,-0.734809 0.217396,-0.426804 0.268791,-1.004035 0.112903,-1.279222 -0.19915,-0.351627 -0.561018,-0.431751 -0.988357,-0.218151 -0.433198,0.21653 -0.9062,0.719472 -1.014193,1.078295 -0.02938,0.09703 -0.07249,0.443772 -0.09565,0.770213 -0.04333,0.608874 -0.116181,0.995873 -0.215293,1.147184 -0.174071,0.265669 -0.60025,0.41164 -0.765428,0.26216 -0.04466,-0.04038 -0.105853,-0.120877 -0.13588,-0.178924 -0.104152,-0.201371 -0.07016,-0.311108 0.201903,-0.656354 0.30052,-0.381462 0.357773,-0.482644 0.392268,-0.698452 0.05282,-0.330397 -0.194543,-0.79269 -0.510927,-0.955829 -0.298416,-0.153859 -0.784155,-0.05269 -1.127093,0.234413 -0.336395,0.281666 -0.339063,0.44071 -0.02103,1.140487 0.131303,0.288936 0.247237,0.592174 0.258308,0.674535 0.02629,0.198294 -0.06228,0.330366 -0.295634,0.438207 -0.160093,0.07398 -0.250669,0.0842 -0.748203,0.0842 -0.710383,0 -0.932733,-0.05828 -1.157711,-0.302351 -0.180473,-0.195665 -0.262484,-0.356453 -0.49959,-0.981686 -0.177473,-0.468078 -0.269349,-0.6487 -0.330108,-0.6487 -0.01824,0 -0.167206,0.08731 -0.331053,0.194228 -0.458902,0.299604 -0.603414,0.362489 -0.884961,0.3827 -0.34427,0.02468 -0.644954,-0.097 -0.727159,-0.293735 -0.0512,-0.122514 -0.0476,-0.14833 0.04305,-0.34636 0.05387,-0.117716 0.134427,-0.264725 0.178915,-0.327221 0.07007,-0.09839 0.09354,-0.108999 0.178916,-0.07654 0.28115,0.106892 0.63001,0.0078 1.122309,-0.318611 0.19031,-0.126241 0.378852,-0.22963 0.419072,-0.22963 0.103131,0 0.160805,0.104505 0.384627,0.698452 0.196274,0.520778 0.314793,0.760612 0.466902,0.943388 l 0.08034,0.09567 9e-4,-1.001752 9e-4,-1.001753 0.24396,-0.456387 c 0.134211,-0.251006 0.335794,-0.56137 0.446808,-0.689843 0.243187,-0.281372 0.308097,-0.492828 0.248785,-0.802741 -0.0582,-0.303959 -0.200852,-0.554775 -0.391322,-0.686015 -0.319449,-0.220185 -0.547535,0.108761 -0.705148,1.018021 -0.118254,0.68213 -0.156445,0.828574 -0.216252,0.828574 -0.09361,0 -0.144415,-0.156914 -0.119645,-0.367404 0.01268,-0.109316 0.07505,-0.426952 0.138787,-0.706107 0.06374,-0.279161 0.145497,-0.674331 0.181771,-0.878328 0.0364,-0.204002 0.09036,-0.439182 0.119615,-0.522406 0.04348,-0.123628 0.05257,-0.8237 0.05257,-3.827139 0,-3.862987 -0.0099,-4.128318 -0.175093,-4.604047 -0.263853,-0.76096 -0.895973,-1.387898 -1.666514,-1.65234 l -0.324347,-0.110992 h -3.240632 z m 3.76495,6.79987 c 0.128573,0.0029 0.257479,0.02515 0.364535,0.06601 0.222096,0.08482 0.501348,0.380484 0.567372,0.60086 0.148108,0.494331 -0.09718,1.049391 -0.547279,1.237122 -0.178308,0.07438 -0.629423,0.07788 -0.795089,0.0059 -0.178448,-0.07771 -0.400731,-0.286852 -0.496572,-0.467867 -0.11916,-0.225043 -0.118884,-0.680622 0,-0.905119 0.108704,-0.205262 0.351465,-0.423191 0.543456,-0.487959 0.106722,-0.03601 0.235007,-0.05173 0.363577,-0.04881 z m -4.409823,2.941157 c 0.329999,0 0.618258,0.28494 0.93191,0.920426 0.341354,0.691612 0.583376,1.604124 0.539625,2.035082 -0.0354,0.348586 -0.08404,0.368638 -0.159781,0.06507 -0.150306,-0.602441 -0.516625,-1.377379 -0.807527,-1.707862 -0.289258,-0.328611 -0.553137,-0.389066 -0.790305,-0.180833 l -0.13395,0.117681 -0.04305,-0.174133 c -0.06228,-0.247321 -0.05558,-0.667431 0.01336,-0.800828 0.09564,-0.184938 0.243041,-0.274596 0.449693,-0.274596 z m -7.359589,0.04111 c -0.143862,9.1e-5 -0.287578,0.02369 -0.391323,0.0708 -0.198644,0.09023 -0.459472,0.383167 -0.519534,0.583639 -0.151565,0.505879 0.126628,1.044337 0.618083,1.196938 0.228705,0.071 0.338286,0.07106 0.561632,0.0039 0.52063,-0.156676 0.816639,-0.72908 0.629563,-1.218934 -0.08821,-0.230946 -0.306893,-0.473842 -0.508051,-0.565458 -0.103188,-0.04699 -0.24651,-0.07088 -0.39037,-0.0708 z m 14.197731,0.898423 c 0.101799,-0.01311 0.196368,0.01129 0.279387,0.07654 0.151941,0.119521 0.197975,0.311647 0.17317,0.727157 -0.01191,0.199364 -0.03229,0.378496 -0.04496,0.39898 -0.01259,0.02041 -0.0742,-0.01395 -0.136829,-0.07654 -0.147078,-0.147062 -0.287516,-0.146438 -0.521453,0.0019 -0.22731,0.144162 -0.490263,0.49817 -0.716624,0.963486 -0.164167,0.337464 -0.175509,0.384687 -0.211453,0.840058 -0.0684,0.866819 -0.107485,1.09331 -0.222928,1.320365 -0.242081,0.476096 -1.021785,0.798034 -1.475363,0.608515 -0.173184,-0.07235 -0.198112,-0.14403 -0.114815,-0.319565 0.113813,-0.239833 -0.0322,-0.641079 -0.304261,-0.838144 -0.537424,-0.389308 -1.315404,0.271955 -0.999839,0.849623 0.08701,0.159274 0.08906,0.178336 0.03352,0.27747 -0.03281,0.05856 -0.109737,0.131157 -0.171264,0.16074 -0.138956,0.0668 -0.53458,0.08972 -0.750122,0.04402 -0.422253,-0.08956 -0.775558,-0.388108 -0.896522,-0.75778 -0.237947,-0.727153 -0.954196,-1.603628 -1.379685,-1.688725 -0.105026,-0.02101 -0.140532,-0.0568 -0.204755,-0.204751 -0.100134,-0.230689 -0.130805,-0.577334 -0.06218,-0.707064 0.06747,-0.127589 0.249557,-0.146601 0.44682,-0.04593 0.195721,0.0999 0.249089,0.165172 0.423852,0.514751 0.177092,0.354246 0.467409,0.788555 0.654442,0.979747 0.07565,0.07735 0.174037,0.211087 0.218153,0.297557 0.235011,0.460653 0.902514,0.732158 1.426568,0.579811 0.287451,-0.08355 0.338478,-0.177302 0.221979,-0.405677 -0.141582,-0.277519 -0.09875,-0.545881 0.125341,-0.78265 0.158804,-0.167801 0.327618,-0.239195 0.563545,-0.239195 0.262115,0 0.434911,0.103237 0.584596,0.350183 0.157663,0.260114 0.197864,0.493015 0.112903,0.65731 -0.08679,0.167838 -0.0821,0.181376 0.09281,0.260248 0.472413,0.213026 1.321381,-0.215874 1.495456,-0.755859 0.03849,-0.119373 0.08438,-0.456375 0.107152,-0.780737 0.05175,-0.737107 0.08645,-0.895823 0.273636,-1.273481 0.305799,-0.616927 0.674334,-0.993028 0.97975,-1.032369 z m -10.509326,0.07655 c -0.09311,-3.99e-4 -0.190009,0.03413 -0.268859,0.100475 -0.181781,0.152963 -0.163264,0.282328 0.09471,0.658268 0.276924,0.403539 0.408425,0.768568 0.409504,1.140487 7.35e-4,0.246223 -0.01203,0.295364 -0.10238,0.402808 -0.08139,0.09673 -0.128536,0.11941 -0.22484,0.110037 -0.186412,-0.01814 -0.255044,-0.199328 -0.30617,-0.810398 -0.04974,-0.594694 -0.09187,-0.69069 -0.367401,-0.824737 -0.224129,-0.109044 -0.639516,-0.146191 -0.853453,-0.07559 -0.329147,0.108634 -0.563893,0.443208 -0.565457,0.805612 -0.0015,0.370764 0.199781,0.676283 0.557805,0.845797 0.286362,0.135587 0.416299,0.300659 0.607558,0.773082 0.210508,0.519978 0.259573,0.581571 0.54154,0.682188 0.28396,0.101323 0.841722,0.05117 1.147185,-0.103342 0.331343,-0.167577 0.520017,-0.576686 0.493701,-1.07064 -0.01866,-0.350436 -0.113642,-0.581454 -0.361665,-0.878328 -0.263951,-0.315926 -0.40689,-0.677018 -0.470738,-1.190239 -0.03983,-0.320242 -0.09363,-0.485123 -0.172222,-0.527189 -0.04865,-0.02603 -0.102968,-0.03807 -0.158824,-0.03828 z m 16.857594,9e-4 c -0.09113,0.0013 -0.184462,0.01509 -0.278409,0.04112 -0.205088,0.05693 -0.537691,0.391849 -0.600856,0.605644 -0.149333,0.505488 0.113707,1.033492 0.601809,1.207462 0.754035,0.268782 1.501797,-0.528555 1.185463,-1.263911 -0.162172,-0.376953 -0.513252,-0.596036 -0.908013,-0.590327 z m -23.280491,2.44267 c -0.03656,9e-4 -0.07198,0.0047 -0.106196,0.0124 -0.29465,0.06725 -0.572256,0.389025 -0.574068,0.665928 -0.0019,0.278739 0.191029,0.575437 0.447776,0.687928 0.269221,0.117959 0.583444,0.04193 0.787432,-0.190399 0.21747,-0.247687 0.254421,-0.531367 0.107164,-0.816141 -0.10993,-0.212593 -0.406261,-0.366342 -0.662094,-0.359756 z m 26.939232,0.996012 c -0.228188,0.0053 -0.393214,0.09288 -0.526225,0.27651 -0.261648,0.361202 -0.143456,0.849699 0.252618,1.045764 0.586713,0.290426 1.230764,-0.31265 0.968263,-0.906074 -0.112162,-0.253624 -0.312649,-0.393036 -0.593207,-0.413333 -0.03529,-0.0025 -0.06884,-0.0036 -0.1014,-0.0028 z" />
  </g>
</svg>
