<?xml version="1.0" encoding="UTF-8" standalone="no"?>
<svg
   width="64"
   height="64"
   version="1.1"
   id="svg73"
   sodipodi:docname="chromium.svg"
   inkscape:version="1.2.2 (b0a8486541, 2022-12-01)"
   xmlns:inkscape="http://www.inkscape.org/namespaces/inkscape"
   xmlns:sodipodi="http://sodipodi.sourceforge.net/DTD/sodipodi-0.dtd"
   xmlns="http://www.w3.org/2000/svg"
   xmlns:svg="http://www.w3.org/2000/svg"
   xmlns:rdf="http://www.w3.org/1999/02/22-rdf-syntax-ns#"
   xmlns:cc="http://creativecommons.org/ns#"
   xmlns:dc="http://purl.org/dc/elements/1.1/">
  <metadata
     id="metadata77">
    <rdf:RDF>
      <cc:Work
         rdf:about="">
        <dc:format>image/svg+xml</dc:format>
        <dc:type
           rdf:resource="http://purl.org/dc/dcmitype/StillImage" />
      </cc:Work>
    </rdf:RDF>
  </metadata>
  <sodipodi:namedview
     pagecolor="#f5f7fa"
     bordercolor="#666666"
     borderopacity="1"
     objecttolerance="10"
     gridtolerance="10"
     guidetolerance="10"
     inkscape:pageopacity="0"
     inkscape:pageshadow="2"
     inkscape:window-width="1280"
     inkscape:window-height="603"
     id="namedview75"
     showgrid="false"
     inkscape:zoom="6.2890625"
     inkscape:cx="56.288199"
     inkscape:cy="37.843478"
     inkscape:window-x="35"
     inkscape:window-y="32"
     inkscape:window-maximized="0"
     inkscape:current-layer="g877"
     inkscape:document-rotation="0"
     inkscape:pagecheckerboard="0"
     inkscape:showpageshadow="2"
     inkscape:deskcolor="#d1d1d1" />
  <defs
     id="defs29">
    <filter
       style="color-interpolation-filters:sRGB;"
       inkscape:label="Blur"
       id="filter1"
       x="-0.091333304"
       y="-0.091333304"
       width="1.1826666"
       height="1.1826666">
      <feGaussianBlur
         stdDeviation="1.3 1.3"
         result="blur"
         id="feGaussianBlur1" />
    </filter>
  </defs>
  <circle
     cx="32.516094"
     cy="31.877844"
     r="0"
     fill="url(#b)"
     stroke-width="1.5715"
     id="circle41"
     style="fill:url(#b)" />
  <g
     aria-label="GZ"
     transform="matrix(1.2212657,0,0,0.81882264,0.4960938,-0.1661539)"
     id="text93"
     style="font-weight:bold;font-size:11.5263px;line-height:1.25;font-family:sans-serif;-inkscape-font-specification:'sans-serif Bold';fill:#f2f2f2;stroke-width:0.288159" />
  <g
     id="g877"
     transform="matrix(1.1,0,0,1.1,-3.1845928,-3.2065454)">
    <rect
       style="fill:none;fill-opacity:1;stroke:#000000;stroke-width:2.72727;stroke-dasharray:none;stroke-opacity:1;filter:url(#filter1);opacity:0.5"
       id="rect1-5"
       width="49.090908"
       height="49.090908"
       x="7.4405394"
       y="7.4604964"
       rx="7.4768682"
       ry="7.477273" />
    <rect
       style="opacity:1;fill:#c4c2c5;stroke-width:2.72727273;stroke-opacity:1;fill-opacity:1;stroke:#1e2430;stroke-dasharray:none"
       id="rect1"
       width="49.090908"
       height="49.090908"
       x="7.4405394"
       y="7.4604964"
       rx="7.4768682"
       ry="7.477273" />
    <rect
       style="fill:#1e2430;fill-opacity:1;stroke:none;stroke-width:2.33829;stroke-dasharray:none;stroke-opacity:1"
       id="rect1-6"
       width="42.089317"
       height="42.089317"
       x="10.941335"
       y="10.961291"
       rx="5.5927272"
       ry="5.5927272" />
    <path
       id="path2-6"
       style="fill:#f4e3cf;fill-opacity:1;stroke:none;stroke-width:0.35806;stroke-dasharray:none;stroke-opacity:0.6"
       d="m 30.63579,17.957116 -5.536882,2.750118 c -3.484941,1.730157 -5.6419,2.904687 -5.817311,3.169165 -0.586674,0.884551 -0.254315,1.123352 5.630887,4.058258 3.025435,1.508757 5.771679,2.781828 6.104114,2.828191 1.826996,0.254787 2.380454,0.0663 8.035245,-2.734184 2.976416,-1.474047 5.556311,-2.809163 5.732868,-2.966813 0.176576,-0.157648 0.320262,-0.467361 0.320262,-0.688326 0,-0.220961 -0.143736,-0.530677 -0.320262,-0.688325 -0.176576,-0.157648 -2.78151,-1.510439 -5.78863,-3.006646 l -5.468367,-2.721438 h -1.445166 z m 9.359323,10.895308 -2.933353,1.469065 c -4.630231,2.318524 -5.417938,2.319629 -10.079515,0.0223 l -2.987528,-1.472257 -2.369306,1.188637 c -1.346575,0.674768 -2.458765,1.352536 -2.574851,1.569448 -0.460392,0.860248 0.277737,1.324534 8.076678,5.076399 l 3.577063,1.720814 1.499343,-0.05582 1.497745,-0.05582 5.417378,-2.697529 c 5.86888,-2.923022 6.294113,-3.226959 5.726505,-4.093232 -0.1891,-0.288603 -1.155506,-0.875413 -2.576459,-1.56626 z m -16.108742,7.675153 -2.405957,1.223689 c -3.868315,1.966996 -3.881043,1.943317 2.95566,5.366393 2.943238,1.47365 5.557106,2.747632 5.809344,2.831381 0.252239,0.08375 1.119192,0.126727 1.926359,0.09565 l 1.467472,-0.05579 5.227774,-2.616279 c 5.241763,-2.623709 6.054721,-3.117571 6.054721,-3.680633 0,-0.494002 -0.703651,-1.002622 -2.925387,-2.111188 l -2.100035,-1.046853 -3.229713,1.593345 -3.229715,1.593354 H 31.896125 30.356952 L 27.122457,38.1241 Z" />
  </g>
</svg>
