<?xml version="1.0" encoding="UTF-8" standalone="no"?>
<svg
   width="64"
   height="64"
   version="1.1"
   id="svg73"
   sodipodi:docname="com.system76.CosmicFiles.svg"
   inkscape:version="1.2.2 (b0a8486541, 2022-12-01)"
   xmlns:inkscape="http://www.inkscape.org/namespaces/inkscape"
   xmlns:sodipodi="http://sodipodi.sourceforge.net/DTD/sodipodi-0.dtd"
   xmlns="http://www.w3.org/2000/svg"
   xmlns:svg="http://www.w3.org/2000/svg"
   xmlns:rdf="http://www.w3.org/1999/02/22-rdf-syntax-ns#"
   xmlns:cc="http://creativecommons.org/ns#"
   xmlns:dc="http://purl.org/dc/elements/1.1/">
  <metadata
     id="metadata77">
    <rdf:RDF>
      <cc:Work
         rdf:about="">
        <dc:format>image/svg+xml</dc:format>
        <dc:type
           rdf:resource="http://purl.org/dc/dcmitype/StillImage" />
      </cc:Work>
    </rdf:RDF>
  </metadata>
  <sodipodi:namedview
     pagecolor="#f5f7fa"
     bordercolor="#666666"
     borderopacity="1"
     objecttolerance="10"
     gridtolerance="10"
     guidetolerance="10"
     inkscape:pageopacity="0"
     inkscape:pageshadow="2"
     inkscape:window-width="1280"
     inkscape:window-height="769"
     id="namedview75"
     showgrid="false"
     inkscape:zoom="6.2890625"
     inkscape:cx="55.81118"
     inkscape:cy="39.592547"
     inkscape:window-x="35"
     inkscape:window-y="32"
     inkscape:window-maximized="0"
     inkscape:current-layer="g877"
     inkscape:document-rotation="0"
     inkscape:pagecheckerboard="0"
     inkscape:showpageshadow="2"
     inkscape:deskcolor="#d1d1d1" />
  <defs
     id="defs29">
    <filter
       style="color-interpolation-filters:sRGB;"
       inkscape:label="Blur"
       id="filter1"
       x="-0.091333304"
       y="-0.091333304"
       width="1.1826666"
       height="1.1826666">
      <feGaussianBlur
         stdDeviation="1.3 1.3"
         result="blur"
         id="feGaussianBlur1" />
    </filter>
  </defs>
  <circle
     cx="32.516094"
     cy="31.877844"
     r="0"
     fill="url(#b)"
     stroke-width="1.5715"
     id="circle41"
     style="fill:url(#b)" />
  <g
     aria-label="GZ"
     transform="matrix(1.2212657,0,0,0.81882264,0.4960938,-0.1661539)"
     id="text93"
     style="font-weight:bold;font-size:11.5263px;line-height:1.25;font-family:sans-serif;-inkscape-font-specification:'sans-serif Bold';fill:#f2f2f2;stroke-width:0.288159" />
  <g
     id="g877"
     transform="matrix(1.1,0,0,1.1,-3.1845928,-3.2065454)">
    <rect
       style="fill:none;fill-opacity:1;stroke:#000000;stroke-width:2.72727;stroke-dasharray:none;stroke-opacity:1;filter:url(#filter1);opacity:0.5"
       id="rect1-5"
       width="49.090908"
       height="49.090908"
       x="7.4405394"
       y="7.4604964"
       rx="7.4768682"
       ry="7.477273" />
    <rect
       style="opacity:1;fill:#c4c2c5;stroke-width:2.72727273;stroke-opacity:1;fill-opacity:1;stroke:#1e2430;stroke-dasharray:none"
       id="rect1"
       width="49.090908"
       height="49.090908"
       x="7.4405394"
       y="7.4604964"
       rx="7.4768682"
       ry="7.477273" />
    <rect
       style="fill:#1e2430;fill-opacity:1;stroke:none;stroke-width:2.33829;stroke-dasharray:none;stroke-opacity:1"
       id="rect1-6"
       width="42.089317"
       height="42.089317"
       x="10.941335"
       y="10.961291"
       rx="5.5927272"
       ry="5.5927272" />
    <path
       d="m 31.766399,17.939564 c -0.80892,-0.0018 -1.613167,0.318764 -2.193659,0.966295 l -9.656352,10.769149 c -3.263206,4.403799 2.220893,3.892555 4.571851,5.161105 0.843315,0.939399 -3.231735,1.629143 -2.388417,2.569331 0.843316,0.939395 5.095453,1.808681 5.940082,2.748084 0.843317,0.939392 -1.724823,1.937202 -0.881582,2.876516 0.843317,0.939391 2.792043,0.0488 3.157247,2.217412 0.260247,1.54972 3.518292,0.665964 5.109842,-0.603232 0.843317,-0.940117 -1.612143,-0.847957 -0.768828,-1.787358 2.097044,-2.337108 4.049122,-0.853119 4.766686,-3.194927 0.354429,-1.157133 -3.089692,-1.78075 -2.244926,-2.720148 2.426413,-1.54422 10.811643,-2.550385 6.832257,-6.88693 L 34.000801,18.906097 C 33.38863,18.265613 32.575097,17.941554 31.766105,17.939805 Z m 0.08201,1.022164 c 0.577573,0.0034 1.153899,0.240645 1.568325,0.698181 l 3.823553,4.228232 c 0.362334,0.40349 0.356502,1.182686 0.153692,1.407506 l -1.896296,-1.653334 -0.374148,2.45203 -1.583732,-0.910431 -2.542214,1.742705 -0.840542,-3.680867 -1.363337,2.569334 h -2.080905 c -0.849811,0 -0.951543,-1.174883 -0.179383,-2.016313 1.348728,-1.586482 2.895292,-3.201858 3.736418,-4.138862 0.422722,-0.470863 1.001053,-0.701534 1.578622,-0.698181 z m -4.587183,16.454548 c 0.258092,0.174705 4.161075,1.039665 5.114954,1.212043 0.330702,0.07598 0.09702,0.447472 -0.358774,0.698179 -1.028076,0.297731 -6.014575,-1.910222 -4.756466,-1.910222 z m 15.181563,2.960328 c -0.785399,0.02938 -1.559848,0.464763 -1.773378,1.284701 0,0.53432 3.60826,0.887831 3.60826,-0.122892 -0.257411,-0.811672 -1.049468,-1.19128 -1.834882,-1.161763 z m -16.565424,2.312355 c -1.132207,-0.01203 -2.457867,0.893466 -1.481208,1.815278 0.855515,0.806176 2.17679,-0.204285 2.57296,-1.329347 -0.233132,-0.337578 -0.648677,-0.481456 -1.091752,-0.48594 z m 14.335184,0.07261 c -1.102772,1.078026 0.12249,2.171098 1.209555,1.47459 0.24229,-0.267926 -0.0056,-1.206643 -1.209555,-1.47459 z"
       fill="url(#b)"
       stroke-width="0.837773"
       id="path42"
       style="fill:#f4e3cf;fill-opacity:1;stroke:none;stroke-width:0.35806;stroke-dasharray:none;stroke-opacity:0.6" />
  </g>
</svg>
