<?xml version="1.0" encoding="UTF-8" standalone="no"?>
<svg
   width="64"
   height="64"
   version="1.1"
   id="svg73"
   sodipodi:docname="1password.svg"
   inkscape:version="1.2.2 (b0a8486541, 2022-12-01)"
   xmlns:inkscape="http://www.inkscape.org/namespaces/inkscape"
   xmlns:sodipodi="http://sodipodi.sourceforge.net/DTD/sodipodi-0.dtd"
   xmlns="http://www.w3.org/2000/svg"
   xmlns:svg="http://www.w3.org/2000/svg"
   xmlns:rdf="http://www.w3.org/1999/02/22-rdf-syntax-ns#"
   xmlns:cc="http://creativecommons.org/ns#"
   xmlns:dc="http://purl.org/dc/elements/1.1/">
  <metadata
     id="metadata77">
    <rdf:RDF>
      <cc:Work
         rdf:about="">
        <dc:format>image/svg+xml</dc:format>
        <dc:type
           rdf:resource="http://purl.org/dc/dcmitype/StillImage" />
      </cc:Work>
    </rdf:RDF>
  </metadata>
  <sodipodi:namedview
     pagecolor="#f5f7fa"
     bordercolor="#666666"
     borderopacity="1"
     objecttolerance="10"
     gridtolerance="10"
     guidetolerance="10"
     inkscape:pageopacity="0"
     inkscape:pageshadow="2"
     inkscape:window-width="1280"
     inkscape:window-height="603"
     id="namedview75"
     showgrid="false"
     inkscape:zoom="6.2890625"
     inkscape:cx="48.178882"
     inkscape:cy="37.843478"
     inkscape:window-x="35"
     inkscape:window-y="32"
     inkscape:window-maximized="0"
     inkscape:current-layer="g877"
     inkscape:document-rotation="0"
     inkscape:pagecheckerboard="0"
     inkscape:showpageshadow="2"
     inkscape:deskcolor="#d1d1d1" />
  <defs
     id="defs29">
    <filter
       style="color-interpolation-filters:sRGB;"
       inkscape:label="Blur"
       id="filter1"
       x="-0.091333304"
       y="-0.091333304"
       width="1.1826666"
       height="1.1826666">
      <feGaussianBlur
         stdDeviation="1.3 1.3"
         result="blur"
         id="feGaussianBlur1" />
    </filter>
  </defs>
  <circle
     cx="32.516094"
     cy="31.877844"
     r="0"
     fill="url(#b)"
     stroke-width="1.5715"
     id="circle41"
     style="fill:url(#b)" />
  <g
     aria-label="GZ"
     transform="matrix(1.2212657,0,0,0.81882264,0.4960938,-0.1661539)"
     id="text93"
     style="font-weight:bold;font-size:11.5263px;line-height:1.25;font-family:sans-serif;-inkscape-font-specification:'sans-serif Bold';fill:#f2f2f2;stroke-width:0.288159" />
  <g
     id="g877"
     transform="matrix(1.1,0,0,1.1,-3.1845928,-3.2065454)">
    <rect
       style="fill:none;fill-opacity:1;stroke:#000000;stroke-width:2.72727;stroke-dasharray:none;stroke-opacity:1;filter:url(#filter1);opacity:0.5"
       id="rect1-5"
       width="49.090908"
       height="49.090908"
       x="7.4405394"
       y="7.4604964"
       rx="7.4768682"
       ry="7.477273" />
    <rect
       style="opacity:1;fill:#c4c2c5;stroke-width:2.72727273;stroke-opacity:1;fill-opacity:1;stroke:#1e2430;stroke-dasharray:none"
       id="rect1"
       width="49.090908"
       height="49.090908"
       x="7.4405394"
       y="7.4604964"
       rx="7.4768682"
       ry="7.477273" />
    <rect
       style="fill:#1e2430;fill-opacity:1;stroke:none;stroke-width:2.33829;stroke-dasharray:none;stroke-opacity:1"
       id="rect1-6"
       width="42.089317"
       height="42.089317"
       x="10.941335"
       y="10.961291"
       rx="5.5927272"
       ry="5.5927272" />
    <path
       id="path19"
       style="fill:#f4e3cf;fill-opacity:1;stroke:none;stroke-width:0.413556;stroke-dasharray:none;stroke-dashoffset:2.2;stroke-opacity:0.6"
       d="m 28.399561,20.522633 c -0.723222,0.0088 -1.455774,0.171342 -2.155324,0.506491 -3.322474,1.59175 -4.06196,5.863415 -1.45753,8.424526 0.78663,0.773544 1.607979,1.22653 2.61991,1.446598 0.830773,0.180672 1.158352,0.188969 1.949447,0.04553 1.925471,-0.349063 3.613979,-1.863279 4.163071,-3.734921 0.258956,-0.882662 0.221953,-2.258433 -0.08378,-3.12458 -0.788112,-2.232536 -2.866115,-3.590135 -5.035768,-3.563654 z m 8.859964,3.44888 c -0.396907,0.0061 -0.796698,0.06494 -1.191536,0.182195 l -0.553857,0.163977 0.06557,0.938286 c 0.122883,1.730845 -0.522935,3.787047 -1.559553,4.964709 -0.240895,0.273668 -0.439081,0.540218 -0.439081,0.592121 0,0.123965 1.046099,1.126961 1.408335,1.350037 0.155561,0.0958 0.565617,0.273211 0.910964,0.395356 0.96982,0.34302 2.317742,0.267146 3.281263,-0.184007 0.961459,-0.450196 1.809714,-1.264522 2.250057,-2.158969 0.324121,-0.658349 0.346157,-0.776218 0.346157,-1.832841 0,-1.054058 -0.02257,-1.175933 -0.342527,-1.823736 -0.806606,-1.635734 -2.455877,-2.613303 -4.175803,-2.587125 z m -0.714196,10.73289 0.524712,0.346162 c 1.211844,0.802688 2.305126,2.04207 2.977012,3.370531 0.362683,0.717122 0.819857,2.295947 0.819857,2.831251 v 0.415406 h 2.636313 2.6363 l -0.03637,-1.264422 c -0.03643,-1.20933 -0.05712,-1.30042 -0.44094,-2.076967 -1.142042,-2.310389 -4.05861,-3.621961 -8.051055,-3.621961 z m -7.907097,0.02007 c -0.257446,2.39e-4 -0.520066,0.0049 -0.788889,0.01271 -2.248961,0.066 -3.329629,0.246438 -4.868151,0.812539 -3.345161,1.230884 -5.145181,3.735287 -5.148729,7.16378 v 0.776134 H 28.43964 39.046821 v -1.102253 c 0,-2.063101 -0.583953,-3.474931 -2.024153,-4.900933 -1.921456,-1.902532 -4.522723,-2.765725 -8.384436,-2.762028 z" />
  </g>
</svg>
