<?xml version="1.0" encoding="UTF-8" standalone="no"?>
<svg
   width="64"
   height="64"
   version="1.1"
   id="svg73"
   sodipodi:docname="1password.svg"
   inkscape:version="1.2.2 (b0a8486541, 2022-12-01)"
   xmlns:inkscape="http://www.inkscape.org/namespaces/inkscape"
   xmlns:sodipodi="http://sodipodi.sourceforge.net/DTD/sodipodi-0.dtd"
   xmlns="http://www.w3.org/2000/svg"
   xmlns:svg="http://www.w3.org/2000/svg"
   xmlns:rdf="http://www.w3.org/1999/02/22-rdf-syntax-ns#"
   xmlns:cc="http://creativecommons.org/ns#"
   xmlns:dc="http://purl.org/dc/elements/1.1/">
  <metadata
     id="metadata77">
    <rdf:RDF>
      <cc:Work
         rdf:about="">
        <dc:format>image/svg+xml</dc:format>
        <dc:type
           rdf:resource="http://purl.org/dc/dcmitype/StillImage" />
      </cc:Work>
    </rdf:RDF>
  </metadata>
  <sodipodi:namedview
     pagecolor="#f5f7fa"
     bordercolor="#666666"
     borderopacity="1"
     objecttolerance="10"
     gridtolerance="10"
     guidetolerance="10"
     inkscape:pageopacity="0"
     inkscape:pageshadow="2"
     inkscape:window-width="1280"
     inkscape:window-height="603"
     id="namedview75"
     showgrid="false"
     inkscape:zoom="6.2890625"
     inkscape:cx="45.952795"
     inkscape:cy="37.843478"
     inkscape:window-x="35"
     inkscape:window-y="32"
     inkscape:window-maximized="0"
     inkscape:current-layer="g877"
     inkscape:document-rotation="0"
     inkscape:pagecheckerboard="0"
     inkscape:showpageshadow="2"
     inkscape:deskcolor="#d1d1d1" />
  <defs
     id="defs29">
    <filter
       style="color-interpolation-filters:sRGB;"
       inkscape:label="Blur"
       id="filter1"
       x="-0.091333304"
       y="-0.091333304"
       width="1.1826666"
       height="1.1826666">
      <feGaussianBlur
         stdDeviation="1.3 1.3"
         result="blur"
         id="feGaussianBlur1" />
    </filter>
    <clipPath
       id="clip0_2648_607">
      <rect
         width="16"
         height="16"
         fill="#ffffff"
         id="rect1-3"
         x="0"
         y="0" />
    </clipPath>
  </defs>
  <circle
     cx="32.516094"
     cy="31.877844"
     r="0"
     fill="url(#b)"
     stroke-width="1.5715"
     id="circle41"
     style="fill:url(#b)" />
  <g
     aria-label="GZ"
     transform="matrix(1.2212657,0,0,0.81882264,0.4960938,-0.1661539)"
     id="text93"
     style="font-weight:bold;font-size:11.5263px;line-height:1.25;font-family:sans-serif;-inkscape-font-specification:'sans-serif Bold';fill:#f2f2f2;stroke-width:0.288159" />
  <g
     id="g877"
     transform="matrix(1.1,0,0,1.1,-3.1845928,-3.2065454)">
    <rect
       style="fill:none;fill-opacity:1;stroke:#000000;stroke-width:2.72727;stroke-dasharray:none;stroke-opacity:1;filter:url(#filter1);opacity:0.5"
       id="rect1-5"
       width="49.090908"
       height="49.090908"
       x="7.4405394"
       y="7.4604964"
       rx="7.4768682"
       ry="7.477273" />
    <rect
       style="opacity:1;fill:#c4c2c5;stroke-width:2.72727273;stroke-opacity:1;fill-opacity:1;stroke:#1e2430;stroke-dasharray:none"
       id="rect1"
       width="49.090908"
       height="49.090908"
       x="7.4405394"
       y="7.4604964"
       rx="7.4768682"
       ry="7.477273" />
    <rect
       style="fill:#1e2430;fill-opacity:1;stroke:none;stroke-width:2.33829;stroke-dasharray:none;stroke-opacity:1"
       id="rect1-6"
       width="42.089317"
       height="42.089317"
       x="10.941335"
       y="10.961291"
       rx="5.5927272"
       ry="5.5927272" />
    <g
       clip-path="url(#clip0_2648_607)"
       id="g2"
       transform="matrix(1.7605502,0,0,1.7605502,17.905113,18.808866)"
       style="fill:#f4e3cf;fill-opacity:1;stroke:none;stroke-width:0.267104;stroke-dasharray:none;stroke-opacity:0.6">
      <path
         d="M 4.5,2.996 C 3.30653,2.996 2.16193,3.47011 1.31802,4.31402 0.474106,5.15794 0,6.30253 0,7.496 0,8.68948 0.474106,9.83407 1.31802,10.678 2.16193,11.5219 3.30653,11.996 4.5,11.996 5.42944,11.9946 6.33566,11.7055 7.09415,11.1683 7.85264,10.6311 8.42619,9.87229 8.736,8.996 l 2.256,-0.004 v 1 c -3e-4,0.3978 0.1575,0.7795 0.4386,1.061 0.2812,0.2814 0.6626,0.4397 1.0604,0.44 0.3978,3e-4 0.7795,-0.1575 1.061,-0.4386 0.2814,-0.2811 0.4397,-0.6626 0.44,-1.0604 h 0.004 V 8.99 h 1 l 1,-2 v -1 L 8.736,5.996 C 8.42619,5.11971 7.85264,4.36086 7.09415,3.82368 6.33566,3.28651 5.42944,2.99737 4.5,2.996 Z m 0,3 c 0.39782,0 0.77936,0.15804 1.06066,0.43934 C 5.84196,6.71665 6,7.09818 6,7.496 6,7.89383 5.84196,8.27536 5.56066,8.55666 5.27936,8.83797 4.89782,8.996 4.5,8.996 4.10218,8.996 3.72064,8.83797 3.43934,8.55666 3.15804,8.27536 3,7.89383 3,7.496 3,7.09818 3.15804,6.71665 3.43934,6.43534 3.72064,6.15404 4.10218,5.996 4.5,5.996 Z"
         fill="#232323"
         id="path1"
         style="fill:#f4e3cf;fill-opacity:1;stroke:none;stroke-width:0.267104;stroke-dasharray:none;stroke-opacity:0.6" />
    </g>
  </g>
</svg>
