<?xml version="1.0" encoding="UTF-8" standalone="no"?>
<svg
   width="64"
   height="64"
   version="1.1"
   id="svg73"
   sodipodi:docname="1password.svg"
   inkscape:version="1.2.2 (b0a8486541, 2022-12-01)"
   xmlns:inkscape="http://www.inkscape.org/namespaces/inkscape"
   xmlns:sodipodi="http://sodipodi.sourceforge.net/DTD/sodipodi-0.dtd"
   xmlns="http://www.w3.org/2000/svg"
   xmlns:svg="http://www.w3.org/2000/svg"
   xmlns:rdf="http://www.w3.org/1999/02/22-rdf-syntax-ns#"
   xmlns:cc="http://creativecommons.org/ns#"
   xmlns:dc="http://purl.org/dc/elements/1.1/">
  <metadata
     id="metadata77">
    <rdf:RDF>
      <cc:Work
         rdf:about="">
        <dc:format>image/svg+xml</dc:format>
        <dc:type
           rdf:resource="http://purl.org/dc/dcmitype/StillImage" />
      </cc:Work>
    </rdf:RDF>
  </metadata>
  <sodipodi:namedview
     pagecolor="#f5f7fa"
     bordercolor="#666666"
     borderopacity="1"
     objecttolerance="10"
     gridtolerance="10"
     guidetolerance="10"
     inkscape:pageopacity="0"
     inkscape:pageshadow="2"
     inkscape:window-width="1280"
     inkscape:window-height="603"
     id="namedview75"
     showgrid="false"
     inkscape:zoom="6.2890625"
     inkscape:cx="45.952795"
     inkscape:cy="37.843478"
     inkscape:window-x="35"
     inkscape:window-y="32"
     inkscape:window-maximized="0"
     inkscape:current-layer="g877"
     inkscape:document-rotation="0"
     inkscape:pagecheckerboard="0"
     inkscape:showpageshadow="2"
     inkscape:deskcolor="#d1d1d1" />
  <defs
     id="defs29">
    <filter
       style="color-interpolation-filters:sRGB;"
       inkscape:label="Blur"
       id="filter1"
       x="-0.091333304"
       y="-0.091333304"
       width="1.1826666"
       height="1.1826666">
      <feGaussianBlur
         stdDeviation="1.3 1.3"
         result="blur"
         id="feGaussianBlur1" />
    </filter>
  </defs>
  <circle
     cx="32.516094"
     cy="31.877844"
     r="0"
     fill="url(#b)"
     stroke-width="1.5715"
     id="circle41"
     style="fill:url(#b)" />
  <g
     aria-label="GZ"
     transform="matrix(1.2212657,0,0,0.81882264,0.4960938,-0.1661539)"
     id="text93"
     style="font-weight:bold;font-size:11.5263px;line-height:1.25;font-family:sans-serif;-inkscape-font-specification:'sans-serif Bold';fill:#f2f2f2;stroke-width:0.288159" />
  <g
     id="g877"
     transform="matrix(1.1,0,0,1.1,-3.1845928,-3.2065454)">
    <rect
       style="fill:none;fill-opacity:1;stroke:#000000;stroke-width:2.72727;stroke-dasharray:none;stroke-opacity:1;filter:url(#filter1);opacity:0.5"
       id="rect1-5"
       width="49.090908"
       height="49.090908"
       x="7.4405394"
       y="7.4604964"
       rx="7.4768682"
       ry="7.477273" />
    <rect
       style="opacity:1;fill:#c4c2c5;stroke-width:2.72727273;stroke-opacity:1;fill-opacity:1;stroke:#1e2430;stroke-dasharray:none"
       id="rect1"
       width="49.090908"
       height="49.090908"
       x="7.4405394"
       y="7.4604964"
       rx="7.4768682"
       ry="7.477273" />
    <rect
       style="fill:#1e2430;fill-opacity:1;stroke:none;stroke-width:2.33829;stroke-dasharray:none;stroke-opacity:1"
       id="rect1-6"
       width="42.089317"
       height="42.089317"
       x="10.941335"
       y="10.961291"
       rx="5.5927272"
       ry="5.5927272" />
    <g
       id="g4"
       transform="matrix(0.17603692,0,0,0.17603692,9.453267,9.4732239)"
       style="fill:#f4e3cf;fill-opacity:1;stroke:none;stroke-width:2.42847;stroke-dasharray:none;stroke-opacity:0.6">
      <path
         fill-rule="evenodd"
         clip-rule="evenodd"
         d="m 206,124.133 c 0,35.152 -23.853,64.665 -56.072,72.867 8.61,-10.916 13.756,-24.754 13.756,-39.809 0,-22.044 -11.035,-41.478 -27.821,-52.955 0.719,0.491 1.428,0.996 2.126,1.517 0.855,-2.352 3.247,-5.321 5.173,-7.7112 1.493,-1.8534 2.705,-3.359 2.705,-3.9606 0,-1.5041 -3.623,-5.9255 -9.279,-12.0227 -5.842,-6.2968 -13.728,-12.7712 -14.105,-12.7712 -0.308,0 -0.433,0.2818 -0.557,0.5635 -0.125,0.2818 -0.249,0.5635 -0.557,0.5635 h -5.939 c -1.724,0.003 -2.904,-0.8437 -4.085,-1.6905 -1.18,-0.8437 -2.359,-1.6904 -4.081,-1.6904 -2.97,-0.0015 -19.3019,4.8836 -22.2715,6.0106 -4.419,1.6773 -8.1662,4.2394 -8.1661,9.0159 0,2.254 1.1696,4.6298 3.3407,4.508 0.6944,-0.0396 1.0285,-0.5591 1.3694,-1.0903 0.3695,-0.5752 0.7469,-1.1637 1.6001,-1.1637 3.501,0 7.9926,4.3451 9.1146,9.5662 C 79.6015,95.5677 68.136,101.047 59,109.155 65.86,74.8357 95.8299,49 131.762,49 172.763,49 206,82.6381 206,124.133 Z M 132.505,53.4962 c -7.079,-0.1174 -17.817,3.0142 -17.817,3.381 0,0.3683 10.022,7.1464 10.393,7.1376 l 0.718,-0.0044 h 0.031 c 3.046,-0.0176 14.116,-0.0836 17.068,-0.7469 1.485,-0.3669 5.939,-5.6232 5.939,-6.3863 0,-0.7396 -9.823,-3.2724 -16.332,-3.381 z m 66.814,51.8568 c -2.599,-2.257 -14.848,-6.014 -17.075,-6.011 -1.485,0.0014 -11.878,9.905 -11.878,11.27 v 7.513 c 0,1.503 3.713,7.145 7.424,10.519 2.339,2.126 4.637,3.527 6.862,4.883 1.721,1.05 3.397,2.071 5.016,3.381 3.708,3.003 7.052,9.016 7.052,9.016 0,0 3.092,-6.22 4.083,-10.518 1.189,-5.151 0.743,-13.524 0.743,-13.527 -0.188,-6.511 -0.836,-15.317 -2.227,-16.526 z m -4.455,-9.7721 c 0,0 -10.393,-5.2593 -11.507,-5.2593 -1.13,0 -2.673,1.4014 -3.875,2.4917 -0.318,0.2891 -0.612,0.5562 -0.868,0.769 -0.365,0.3052 -0.654,0.5004 -0.824,0.496 -0.743,-0.0206 -3.712,-0.7514 -3.712,-1.5027 V 74.5437 c 0,-1.0492 1.484,-3.0068 1.856,-3.0053 0.371,0.0015 4.825,3.0053 8.537,7.5133 4.84,5.8785 10.393,16.5292 10.393,16.5292 z"
         fill="#ffffff"
         id="path2"
         style="fill:#f4e3cf;fill-opacity:1;stroke:none;stroke-width:2.42847;stroke-dasharray:none;stroke-opacity:0.6" />
      <path
         fill-rule="evenodd"
         clip-rule="evenodd"
         d="m 150,156.5 c 0,27.89 -22.386,50.5 -50,50.5 -27.6142,0 -50,-22.61 -50,-50.5 0,-27.89 22.3858,-50.5 50,-50.5 27.614,0 50,22.61 50,50.5 z M 100,116 c -1.6569,0 -3,1.343 -3,3 v 34 c -0.3788,0.284 -0.7159,0.621 -1.0004,1 H 75 c -1.6569,0 -3,1.343 -3,3 0,1.657 1.3431,3 3,3 h 20.9996 c 0.9122,1.214 2.3646,2 4.0004,2 2.761,0 5,-2.239 5,-5 0,-1.636 -0.786,-3.088 -2,-4 v -34 c 0,-1.657 -1.343,-3 -3,-3 z"
         fill="#ffffff"
         id="path3-5"
         style="fill:#f4e3cf;fill-opacity:1;stroke:none;stroke-width:2.42847;stroke-dasharray:none;stroke-opacity:0.6" />
    </g>
  </g>
</svg>
