<?xml version="1.0" encoding="UTF-8" standalone="no"?>
<svg
   width="64"
   height="64"
   version="1.1"
   id="svg73"
   sodipodi:docname="org.gnome.Yelp.svg"
   inkscape:version="1.2.2 (b0a8486541, 2022-12-01)"
   xmlns:inkscape="http://www.inkscape.org/namespaces/inkscape"
   xmlns:sodipodi="http://sodipodi.sourceforge.net/DTD/sodipodi-0.dtd"
   xmlns="http://www.w3.org/2000/svg"
   xmlns:svg="http://www.w3.org/2000/svg"
   xmlns:rdf="http://www.w3.org/1999/02/22-rdf-syntax-ns#"
   xmlns:cc="http://creativecommons.org/ns#"
   xmlns:dc="http://purl.org/dc/elements/1.1/">
  <metadata
     id="metadata77">
    <rdf:RDF>
      <cc:Work
         rdf:about="">
        <dc:format>image/svg+xml</dc:format>
        <dc:type
           rdf:resource="http://purl.org/dc/dcmitype/StillImage" />
      </cc:Work>
    </rdf:RDF>
  </metadata>
  <sodipodi:namedview
     pagecolor="#f5f7fa"
     bordercolor="#666666"
     borderopacity="1"
     objecttolerance="10"
     gridtolerance="10"
     guidetolerance="10"
     inkscape:pageopacity="0"
     inkscape:pageshadow="2"
     inkscape:window-width="1280"
     inkscape:window-height="603"
     id="namedview75"
     showgrid="false"
     inkscape:zoom="6.2890625"
     inkscape:cx="48.337888"
     inkscape:cy="37.843478"
     inkscape:window-x="35"
     inkscape:window-y="32"
     inkscape:window-maximized="0"
     inkscape:current-layer="g877"
     inkscape:document-rotation="0"
     inkscape:pagecheckerboard="0"
     inkscape:showpageshadow="2"
     inkscape:deskcolor="#d1d1d1" />
  <defs
     id="defs29">
    <filter
       style="color-interpolation-filters:sRGB;"
       inkscape:label="Blur"
       id="filter1"
       x="-0.091333304"
       y="-0.091333304"
       width="1.1826666"
       height="1.1826666">
      <feGaussianBlur
         stdDeviation="1.3 1.3"
         result="blur"
         id="feGaussianBlur1" />
    </filter>
    <clipPath
       id="clip0_1957_1318">
      <rect
         width="96"
         height="96"
         fill="#ffffff"
         id="rect1410"
         x="0"
         y="0" />
    </clipPath>
  </defs>
  <circle
     cx="32.516094"
     cy="31.877844"
     r="0"
     fill="url(#b)"
     stroke-width="1.5715"
     id="circle41"
     style="fill:url(#b)" />
  <g
     aria-label="GZ"
     transform="matrix(1.2212657,0,0,0.81882264,0.4960938,-0.1661539)"
     id="text93"
     style="font-weight:bold;font-size:11.5263px;line-height:1.25;font-family:sans-serif;-inkscape-font-specification:'sans-serif Bold';fill:#f2f2f2;stroke-width:0.288159" />
  <g
     id="g877"
     transform="matrix(1.1,0,0,1.1,-3.1845928,-3.2065454)">
    <rect
       style="fill:none;fill-opacity:1;stroke:#000000;stroke-width:2.72727;stroke-dasharray:none;stroke-opacity:1;filter:url(#filter1);opacity:0.5"
       id="rect1-5"
       width="49.090908"
       height="49.090908"
       x="7.4405394"
       y="7.4604964"
       rx="7.4768682"
       ry="7.477273" />
    <rect
       style="opacity:1;fill:#c4c2c5;stroke-width:2.72727273;stroke-opacity:1;fill-opacity:1;stroke:#1e2430;stroke-dasharray:none"
       id="rect1"
       width="49.090908"
       height="49.090908"
       x="7.4405394"
       y="7.4604964"
       rx="7.4768682"
       ry="7.477273" />
    <rect
       style="fill:#1e2430;fill-opacity:1;stroke:none;stroke-width:2.33829;stroke-dasharray:none;stroke-opacity:1"
       id="rect1-6"
       width="42.089317"
       height="42.089317"
       x="10.941335"
       y="10.961291"
       rx="5.5927272"
       ry="5.5927272" />
    <path
       style="fill:#f4e3cf;stroke-width:0.143435;fill-opacity:1"
       d="m 20.069332,46.581059 c -0.99559,-0.358558 -1.433739,-0.668806 -2.009591,-1.42297 -0.60682,-0.794733 -0.919341,-1.808636 -0.919341,-2.982604 0,-1.098463 0.192228,-1.671911 0.538302,-1.605858 0.206758,0.03947 0.265352,0.260841 0.334956,1.2655 0.09533,1.375963 0.304467,1.877995 1.176419,2.823954 0.848672,0.920696 1.522377,1.220304 2.97057,1.321043 1.100006,0.07653 1.223438,0.114473 1.262495,0.388136 0.03422,0.2398 -0.05213,0.322394 -0.412378,0.394448 -0.83872,0.167743 -2.205692,0.08332 -2.941432,-0.181649 z m 17.984622,-4.424737 c -3.353197,-3.298684 -4.303045,-4.374941 -4.178653,-4.734772 0.04745,-0.137286 0.576404,-0.750067 1.175427,-1.361731 l 1.089137,-1.112113 -0.499145,-0.494388 -0.499146,-0.494385 -1.090137,1.042951 -1.090135,1.042952 -0.483062,-0.993709 c -0.78416,-1.613094 -1.96173,-2.7537 -3.774716,-3.656223 l -0.817704,-0.407064 0.878672,-0.838111 0.878673,-0.838111 -0.513074,-0.513075 -0.513079,-0.513076 -0.90121,0.8932 c -0.685243,0.679152 -1.000023,0.893204 -1.313527,0.893204 -0.346992,0 -0.96561,-0.552149 -3.904762,-3.485197 -3.004379,-2.99814 -3.492448,-3.5451 -3.492448,-3.913842 0,-0.364774 0.380733,-0.807254 2.555026,-2.96941 1.905758,-1.895119 2.643667,-2.540762 2.903845,-2.540762 0.504611,0 7.450626,6.962324 7.449682,7.467167 -4.42e-4,0.240609 -0.341236,0.703755 -1.089811,1.481129 l -1.089156,1.131051 0.510113,0.510115 0.510114,0.510112 0.855051,-0.815581 c 0.908642,-0.866701 1.349045,-1.10411 2.048145,-1.10411 0.23881,0 0.598038,-0.128874 0.798284,-0.286387 0.796612,-0.626617 2.076816,-0.643016 2.888505,-0.037 0.688437,0.51399 0.936025,0.996901 0.993901,1.938585 0.04943,0.804239 0.01156,0.959194 -0.373799,1.529146 -0.235842,0.348818 -0.396924,0.717296 -0.357961,0.81884 0.132937,0.346427 -0.279182,1.247059 -0.857973,1.874971 l -0.577847,0.626889 0.476503,0.491626 0.476504,0.491626 0.91446,-0.855433 c 0.644886,-0.603255 1.027422,-0.855436 1.297631,-0.855436 0.309332,0 1.068358,0.685194 3.939231,3.556068 2.692265,2.692265 3.556066,3.640634 3.556066,3.904202 0,0.259877 -0.64656,0.994691 -2.550404,2.898535 -2.081161,2.081164 -2.623735,2.550402 -2.948979,2.550402 -0.32515,0 -0.929049,-0.521848 -3.278242,-2.832853 z m 3.942068,-1.357709 -0.676387,-0.686712 -0.686718,0.67639 -0.686713,0.676385 0.676388,0.686718 0.676389,0.686712 0.686718,-0.676386 0.686711,-0.67639 z m -1.903883,-0.616605 0.635506,-0.647532 -0.67736,-0.677357 -0.67736,-0.67736 -0.677359,0.67736 -0.677358,0.677357 0.635506,0.647532 c 0.349529,0.356147 0.673174,0.647536 0.719211,0.647536 0.04604,0 0.369685,-0.291389 0.719214,-0.647536 z m 3.835054,-1.320745 -0.67736,-0.677359 -0.648067,0.636031 -0.648068,0.636031 0.678201,0.688554 0.678202,0.688554 0.647225,-0.647226 0.647227,-0.647226 z m -5.843154,-0.687352 0.635505,-0.647535 -0.677357,-0.677356 -0.677361,-0.677361 -0.677358,0.677361 -0.677359,0.677356 0.635507,0.647535 c 0.349528,0.356145 0.673171,0.647534 0.71921,0.647534 0.04604,0 0.369686,-0.291389 0.719213,-0.647534 z m 3.984281,0.03252 0.603588,-0.615013 -0.686769,-0.676443 -0.686773,-0.676443 -0.633994,0.645993 -0.634,0.645998 0.633476,0.64546 c 0.348408,0.355002 0.671139,0.64546 0.717177,0.64546 0.04604,0 0.355322,-0.276757 0.687295,-0.615012 z m -2.007797,-2.008407 0.60389,-0.615316 -0.629379,-0.61769 c -0.705015,-0.691921 -0.830199,-0.681831 -1.579419,0.127302 l -0.415285,0.448497 0.624444,0.636264 c 0.343445,0.349945 0.662114,0.636264 0.708151,0.636264 0.04604,0 0.355459,-0.276892 0.687598,-0.615321 z m -12.926028,-8.959008 0.60848,-0.681321 -0.597776,-0.609602 c -0.328775,-0.335279 -0.676833,-0.609599 -0.773462,-0.609599 -0.09662,0 -0.41627,0.293601 -0.710318,0.652449 l -0.534633,0.652449 0.626613,0.63847 c 0.344635,0.351161 0.659463,0.638472 0.699615,0.638472 0.04017,0 0.346821,-0.306593 0.681481,-0.681318 z m -1.959664,-1.974314 0.635505,-0.647533 -0.677358,-0.677358 -0.677359,-0.67736 -0.677361,0.67736 -0.677358,0.677358 0.635506,0.647533 c 0.349527,0.356144 0.673173,0.647533 0.719213,0.647533 0.04603,0 0.369685,-0.291389 0.719212,-0.647533 z m 3.984282,0.03252 0.603588,-0.615012 -0.686771,-0.676446 -0.68677,-0.676442 -0.633997,0.645995 -0.633997,0.645995 0.633473,0.645461 c 0.348408,0.355001 0.67114,0.645459 0.717177,0.645459 0.04605,0 0.355321,-0.276757 0.687297,-0.61501 z m -5.953161,-3.288679 -0.676388,-0.686715 -0.686715,0.676388 -0.686716,0.67639 0.676389,0.686715 0.67639,0.686714 0.686714,-0.67639 0.686717,-0.676387 z m 3.94506,1.28058 0.60359,-0.615011 -0.686772,-0.676444 -0.68677,-0.676443 -0.633996,0.645992 -0.633996,0.645997 0.63347,0.64546 c 0.348411,0.355004 0.671142,0.64546 0.717181,0.64546 0.04604,0 0.355321,-0.276754 0.687293,-0.615011 z m -2.013888,-3.217936 -0.67736,-0.677358 -0.648067,0.63603 -0.648069,0.63603 0.678201,0.688556 0.678202,0.688554 0.647224,-0.647226 0.647228,-0.647227 z m -3.621936,24.648299 c -1.125783,-0.294658 -1.87529,-0.996205 -2.223141,-2.080888 -0.190818,-0.595014 -0.109553,-1.900426 0.133432,-2.143413 0.265526,-0.265525 0.547405,0.182402 0.613068,0.974213 0.119512,1.441142 1.252238,2.515726 2.651849,2.515726 0.618128,0 1.067768,0.324522 0.808658,0.583631 -0.192803,0.192804 -1.456334,0.288802 -1.983866,0.150731 z m 8.414271,-1.88076 c -1.124387,-0.404506 -3.322306,-1.728899 -3.322306,-2.001905 0,-0.06731 0.228068,-0.256943 0.506816,-0.421409 l 0.506818,-0.299027 1.035118,0.70852 c 1.259741,0.862274 1.591404,0.944526 1.653191,0.409984 0.09057,-0.783562 -0.934177,-2.363515 -2.756208,-4.249499 -1.470426,-1.522039 -2.835525,-2.58426 -4.015174,-3.124322 -0.652677,-0.298805 -0.855881,-0.338253 -1.023951,-0.198766 -0.115323,0.09571 -0.209679,0.228167 -0.209679,0.294351 0,0.06618 0.345801,0.628169 0.768445,1.248865 l 0.768447,1.128536 -0.31822,0.623764 -0.318216,0.623761 -0.517953,-0.706847 c -0.897253,-1.224486 -1.713779,-2.979947 -1.784879,-3.837348 -0.06164,-0.743037 -0.04451,-0.78953 0.418049,-1.135212 0.7183,-0.536814 1.498502,-0.743952 2.777273,-0.737346 1.294043,0.0067 2.428511,0.295201 3.721828,0.946523 2.989789,1.505678 4.971905,4.622525 4.996917,7.857579 0.0094,1.211739 -0.200567,2.005396 -0.711403,2.689419 -0.419027,0.561092 -0.98597,0.608115 -2.174913,0.180379 z m -7.724009,-1.04099 c -0.407189,-0.449926 -0.49353,-0.933319 -0.26458,-1.481271 0.246194,-0.589227 0.659068,-0.813219 1.388311,-0.75319 l 0.571767,0.04706 0.824673,-1.362639 c 0.976369,-1.613288 1.213793,-1.726233 1.961715,-0.933201 0.271459,0.287826 0.49356,0.642681 0.49356,0.788564 0,0.1793 -0.45807,0.556457 -1.413722,1.16401 l -1.413724,0.898768 0.06851,0.607817 c 0.05784,0.513116 0.01094,0.665386 -0.300983,0.977312 -0.497937,0.497935 -1.485394,0.522043 -1.915527,0.04676 z"
       id="path1880" />
  </g>
</svg>
