<?xml version="1.0" encoding="UTF-8" standalone="no"?>
<svg
   width="64"
   height="64"
   version="1.1"
   id="svg73"
   sodipodi:docname="com.system76.CosmicFiles.svg"
   inkscape:version="1.2.2 (b0a8486541, 2022-12-01)"
   xmlns:inkscape="http://www.inkscape.org/namespaces/inkscape"
   xmlns:sodipodi="http://sodipodi.sourceforge.net/DTD/sodipodi-0.dtd"
   xmlns="http://www.w3.org/2000/svg"
   xmlns:svg="http://www.w3.org/2000/svg"
   xmlns:rdf="http://www.w3.org/1999/02/22-rdf-syntax-ns#"
   xmlns:cc="http://creativecommons.org/ns#"
   xmlns:dc="http://purl.org/dc/elements/1.1/">
  <metadata
     id="metadata77">
    <rdf:RDF>
      <cc:Work
         rdf:about="">
        <dc:format>image/svg+xml</dc:format>
        <dc:type
           rdf:resource="http://purl.org/dc/dcmitype/StillImage" />
      </cc:Work>
    </rdf:RDF>
  </metadata>
  <sodipodi:namedview
     pagecolor="#f5f7fa"
     bordercolor="#666666"
     borderopacity="1"
     objecttolerance="10"
     gridtolerance="10"
     guidetolerance="10"
     inkscape:pageopacity="0"
     inkscape:pageshadow="2"
     inkscape:window-width="1280"
     inkscape:window-height="769"
     id="namedview75"
     showgrid="false"
     inkscape:zoom="6.2890625"
     inkscape:cx="55.81118"
     inkscape:cy="39.592547"
     inkscape:window-x="35"
     inkscape:window-y="32"
     inkscape:window-maximized="0"
     inkscape:current-layer="g877"
     inkscape:document-rotation="0"
     inkscape:pagecheckerboard="0"
     inkscape:showpageshadow="2"
     inkscape:deskcolor="#d1d1d1" />
  <defs
     id="defs29">
    <filter
       style="color-interpolation-filters:sRGB;"
       inkscape:label="Blur"
       id="filter1"
       x="-0.091333304"
       y="-0.091333304"
       width="1.1826666"
       height="1.1826666">
      <feGaussianBlur
         stdDeviation="1.3 1.3"
         result="blur"
         id="feGaussianBlur1" />
    </filter>
  </defs>
  <circle
     cx="32.516094"
     cy="31.877844"
     r="0"
     fill="url(#b)"
     stroke-width="1.5715"
     id="circle41"
     style="fill:url(#b)" />
  <g
     aria-label="GZ"
     transform="matrix(1.2212657,0,0,0.81882264,0.4960938,-0.1661539)"
     id="text93"
     style="font-weight:bold;font-size:11.5263px;line-height:1.25;font-family:sans-serif;-inkscape-font-specification:'sans-serif Bold';fill:#f2f2f2;stroke-width:0.288159" />
  <g
     id="g877"
     transform="matrix(1.1,0,0,1.1,-3.1845928,-3.2065454)">
    <rect
       style="fill:none;fill-opacity:1;stroke:#000000;stroke-width:2.72727;stroke-dasharray:none;stroke-opacity:1;filter:url(#filter1);opacity:0.5"
       id="rect1-5"
       width="49.090908"
       height="49.090908"
       x="7.4405394"
       y="7.4604964"
       rx="7.4768682"
       ry="7.477273" />
    <rect
       style="opacity:1;fill:#c4c2c5;stroke-width:2.72727273;stroke-opacity:1;fill-opacity:1;stroke:#1e2430;stroke-dasharray:none"
       id="rect1"
       width="49.090908"
       height="49.090908"
       x="7.4405394"
       y="7.4604964"
       rx="7.4768682"
       ry="7.477273" />
    <rect
       style="fill:#1e2430;fill-opacity:1;stroke:none;stroke-width:2.33829;stroke-dasharray:none;stroke-opacity:1"
       id="rect1-6"
       width="42.089317"
       height="42.089317"
       x="10.941335"
       y="10.961291"
       rx="5.5927272"
       ry="5.5927272" />
    <path
       id="path16"
       style="fill:#f4e3cf;fill-opacity:1;stroke:none;stroke-width:0.375111;stroke-dasharray:none;stroke-opacity:0.6"
       d="m 24.622572,18.742526 c -1.168792,-9.1e-5 -2.231973,0.07327 -2.728929,0.22084 -1.021793,0.303439 -1.522893,0.955109 -1.601951,2.085691 -0.04794,0.685638 0.0011,0.910977 0.289176,1.335545 l 0.34528,0.510029 2.983063,0.08412 c 2.54154,0.07189 3.23882,0.143799 4.714719,0.485493 5.315374,1.230607 9.341235,3.406704 13.160889,7.117638 1.843906,1.791418 2.117685,2.005072 2.567676,2.005072 0.641139,0 1.227303,-0.456021 1.577416,-1.226879 0.534076,-1.175894 0.339122,-1.769186 -1.144486,-3.477326 C 40.973484,23.49385 34.371663,19.988951 27.98597,18.963356 27.066397,18.815663 25.791361,18.742612 24.622572,18.742523 Z m -2.690371,8.328742 c -0.393817,-0.01286 -0.741919,0.002 -1.032328,0.04558 -1.367395,0.205057 -1.971455,1.932641 -1.034085,2.956776 0.242401,0.264833 0.456684,0.32728 1.112955,0.32775 2.740481,0.002 7.749687,1.380013 11.134793,3.063685 2.433838,1.210534 4.017148,2.311591 5.81014,4.03818 0.85569,0.823995 1.642811,1.497094 1.749171,1.4968 0.414086,-0.0012 1.167824,-0.611909 1.379366,-1.118215 0.307106,-0.735175 0.160001,-1.326204 -0.583651,-2.336328 C 39.224817,33.855988 36.588965,31.936072 33.294844,30.32075 29.713112,28.56439 24.68895,27.161173 21.932201,27.071277 Z m -2.401175,8.149974 c -0.404579,0.0086 -0.600268,0.07137 -0.832523,0.20857 -0.926952,0.54756 -1.226,1.882811 -0.587151,2.625513 0.300473,0.349305 0.468174,0.395636 1.931455,0.522303 2.880264,0.249341 6.276528,1.22098 9.336545,2.67284 1.834845,0.870564 3.326203,1.842126 4.802349,3.128537 0.770524,0.671477 1.128543,0.889987 1.465246,0.89037 1.153412,0.0014 1.777464,-1.575562 1.074395,-2.713158 -0.440765,-0.713176 -1.905356,-1.993211 -3.498354,-3.056679 -3.560568,-2.376986 -8.310333,-3.965141 -12.685922,-4.241489 -0.444749,-0.02809 -0.763288,-0.04201 -1.00604,-0.03681 z" />
  </g>
</svg>
