<?xml version="1.0" encoding="UTF-8" standalone="no"?>
<svg
   width="64"
   height="64"
   version="1.1"
   id="svg73"
   sodipodi:docname="accessories-calculator.svg"
   inkscape:version="1.2.2 (b0a8486541, 2022-12-01)"
   xmlns:inkscape="http://www.inkscape.org/namespaces/inkscape"
   xmlns:sodipodi="http://sodipodi.sourceforge.net/DTD/sodipodi-0.dtd"
   xmlns="http://www.w3.org/2000/svg"
   xmlns:svg="http://www.w3.org/2000/svg"
   xmlns:rdf="http://www.w3.org/1999/02/22-rdf-syntax-ns#"
   xmlns:cc="http://creativecommons.org/ns#"
   xmlns:dc="http://purl.org/dc/elements/1.1/">
  <metadata
     id="metadata77">
    <rdf:RDF>
      <cc:Work
         rdf:about="">
        <dc:format>image/svg+xml</dc:format>
        <dc:type
           rdf:resource="http://purl.org/dc/dcmitype/StillImage" />
      </cc:Work>
    </rdf:RDF>
  </metadata>
  <sodipodi:namedview
     pagecolor="#f5f7fa"
     bordercolor="#666666"
     borderopacity="1"
     objecttolerance="10"
     gridtolerance="10"
     guidetolerance="10"
     inkscape:pageopacity="0"
     inkscape:pageshadow="2"
     inkscape:window-width="1280"
     inkscape:window-height="603"
     id="namedview75"
     showgrid="false"
     inkscape:zoom="6.2890625"
     inkscape:cx="51.677019"
     inkscape:cy="37.843478"
     inkscape:window-x="35"
     inkscape:window-y="32"
     inkscape:window-maximized="0"
     inkscape:current-layer="g877"
     inkscape:document-rotation="0"
     inkscape:pagecheckerboard="0"
     inkscape:showpageshadow="2"
     inkscape:deskcolor="#d1d1d1" />
  <defs
     id="defs29">
    <filter
       style="color-interpolation-filters:sRGB;"
       inkscape:label="Blur"
       id="filter1"
       x="-0.091333304"
       y="-0.091333304"
       width="1.1826666"
       height="1.1826666">
      <feGaussianBlur
         stdDeviation="1.3 1.3"
         result="blur"
         id="feGaussianBlur1" />
    </filter>
    <filter
       style="color-interpolation-filters:sRGB"
       inkscape:label="Blur"
       id="filter1-3"
       x="-0.091333304"
       y="-0.091333304"
       width="1.1826666"
       height="1.1826666">
      <feGaussianBlur
         stdDeviation="1.3 1.3"
         result="blur"
         id="feGaussianBlur1-6" />
    </filter>
  </defs>
  <circle
     cx="32.516094"
     cy="31.877844"
     r="0"
     fill="url(#b)"
     stroke-width="1.5715"
     id="circle41"
     style="fill:url(#b)" />
  <g
     aria-label="GZ"
     transform="matrix(1.2212657,0,0,0.81882264,0.4960938,-0.1661539)"
     id="text93"
     style="font-weight:bold;font-size:11.5263px;line-height:1.25;font-family:sans-serif;-inkscape-font-specification:'sans-serif Bold';fill:#f2f2f2;stroke-width:0.288159" />
  <g
     id="g877"
     transform="matrix(1.1,0,0,1.1,-3.1845928,-3.2065454)">
    <rect
       style="fill:none;fill-opacity:1;stroke:#000000;stroke-width:2.72727;stroke-dasharray:none;stroke-opacity:1;filter:url(#filter1);opacity:0.5"
       id="rect1-5"
       width="49.090908"
       height="49.090908"
       x="7.4405394"
       y="7.4604964"
       rx="7.4768682"
       ry="7.477273" />
    <rect
       style="opacity:1;fill:#c4c2c5;stroke-width:2.72727273;stroke-opacity:1;fill-opacity:1;stroke:#1e2430;stroke-dasharray:none"
       id="rect1"
       width="49.090908"
       height="49.090908"
       x="7.4405394"
       y="7.4604964"
       rx="7.4768682"
       ry="7.477273" />
    <rect
       style="fill:#1e2430;fill-opacity:1;stroke:none;stroke-width:2.33829;stroke-dasharray:none;stroke-opacity:1"
       id="rect1-6"
       width="42.089317"
       height="42.089317"
       x="10.941335"
       y="10.961291"
       rx="5.5927272"
       ry="5.5927272" />
    <path
       fill="#000000"
       d="m 25.226289,18.065517 c -2.79409,1.286298 -4.637878,3.354449 -4.637878,5.674094 0,1.526749 0.784714,2.940522 2.117913,4.095483 -0.682037,1.485117 -1.110414,3.152317 -1.216835,4.924188 1.005392,0.03285 1.960617,0.24587 2.817961,0.684128 2.430493,1.242566 3.571741,3.914445 3.379001,7.080742 0.442407,0.107028 0.893727,0.196152 1.352007,0.267833 0.05224,-0.980019 0.04861,-1.956976 -0.02898,-2.930814 l 1.089369,-0.08683 c 0.08415,1.054602 0.08571,2.105876 0.02678,3.153968 0.46909,0.04444 0.943778,0.07066 1.422213,0.08093 v -3.288314 h 1.092675 v 3.282118 c 0.457855,-0.01454 0.917625,-0.04432 1.377924,-0.08844 -0.05802,-1.043457 -0.05611,-2.090142 0.02755,-3.14004 l 1.089372,0.08677 c -0.07744,0.970485 -0.08116,1.944059 -0.02931,2.920748 0.42727,-0.06256 0.853703,-0.137674 1.278427,-0.224786 -0.202802,-3.180637 0.937833,-5.866799 3.376637,-7.113622 0.857233,-0.43838 1.812565,-0.651533 2.81784,-0.684263 -0.107681,-1.796083 -0.546306,-3.484666 -1.244543,-4.984983 1.291103,-1.143741 2.049155,-2.534605 2.049155,-4.034681 0,-2.319642 -1.843801,-4.387852 -4.637898,-5.67398 0.763357,0.968731 1.233319,2.129432 1.233319,3.355039 0,2.496118 -1.842502,4.655306 -4.503973,5.68047 l -0.359008,-0.836171 c 0.65185,-0.259621 1.241559,-0.596249 1.746947,-0.991942 0.59059,-0.462236 1.064339,-0.999139 1.39809,-1.587793 -1.745404,-1.481311 -3.896772,-2.355489 -6.226721,-2.355489 -2.358813,0 -4.534829,0.895466 -6.291742,2.410454 0.33178,0.567195 0.794549,1.084977 1.36664,1.532828 0.565443,0.442643 1.236425,0.811431 1.981906,1.081178 l -0.358152,0.834066 C 25.945117,26.20235 23.993099,23.990123 23.993099,21.4208 c 0,-1.225607 0.470006,-2.386307 1.233377,-3.355039 z m 0.601475,10.708159 c 0.0039,-2.48e-4 0.0053,2.44e-4 0.0063,0.0053 1.076737,1.36532 3.036539,2.321197 5.326116,2.523799 -0.344509,1.151815 -1.578195,2.019092 -3.079778,2.019092 -1.766505,0 -3.224719,-1.203618 -3.224719,-2.66155 1.08e-4,-0.728859 0.362834,-1.403173 0.941998,-1.881262 0.0053,0.0053 0.01933,-0.0039 0.02882,-0.0053 z m 12.376984,1.03e-4 c 0.0047,-1.82e-4 0.0047,4e-4 0.0071,0.0053 0.579296,0.478021 0.942112,1.152339 0.942112,1.881258 0,1.457762 -1.45816,2.661433 -3.224815,2.661433 -1.501596,0 -2.735166,-0.86716 -3.079796,-2.019099 2.28972,-0.202667 4.249596,-1.158533 5.326302,-2.523699 0.0047,0.0053 0.01917,-0.0039 0.02814,-0.0053 z m -6.173646,2.581839 c 0.32891,1.60333 0.814405,3.206688 1.924356,4.810016 -1.185483,0.317661 -2.62066,0.329053 -3.848726,0 1.050643,-1.603328 1.569075,-3.206686 1.92437,-4.810016 z m -4.462118,10.264451 c -0.136835,0.900479 -0.374994,1.830219 -0.716302,2.769987 0.51374,0.335656 1.054701,0.622476 1.61755,0.855879 0.212096,-1.124135 0.382233,-2.24398 0.487071,-3.359573 -0.468934,-0.07141 -0.932284,-0.159877 -1.388382,-0.266225 z m 8.934888,0.02814 c -0.437395,0.08788 -0.87683,0.164113 -1.317198,0.227352 0.103936,1.109354 0.272218,2.222874 0.482302,3.340595 0.537486,-0.227879 1.054574,-0.504634 1.546735,-0.826017 -0.337721,-0.930213 -0.574438,-1.850488 -0.711839,-2.742135 z m -2.402923,0.357564 c -0.487381,0.04682 -0.974633,0.07734 -1.460382,0.09246 v 3.841393 c 0.680868,-0.04499 1.345229,-0.164362 1.986529,-0.351668 -0.227938,-1.189375 -0.412714,-2.383592 -0.526147,-3.582238 z m -4.05819,0.01361 c -0.114281,1.201154 -0.299967,2.397647 -0.528761,3.589502 0.656464,0.185977 1.3367,0.300922 2.033872,0.337551 V 42.10406 c -0.505322,-0.0099 -1.007724,-0.03779 -1.505111,-0.08436 z"
       id="path1-4"
       style="fill:#f4e3cf;fill-opacity:1;stroke:none;stroke-width:0.413556;stroke-dasharray:none;stroke-opacity:0.6" />
    <rect
       style="opacity:0.5;fill:none;fill-opacity:1;stroke:#000000;stroke-width:2.72727;stroke-dasharray:none;stroke-opacity:1;filter:url(#filter1-3)"
       id="rect1-5-5"
       width="49.090908"
       height="49.090908"
       x="7.4405394"
       y="7.4604964"
       rx="7.4768682"
       ry="7.477273"
       transform="matrix(0.43046721,0,0,0.43046721,34.695898,34.707264)" />
    <rect
       style="fill:#c4c2c5;fill-opacity:1;stroke:#1e2430;stroke-width:1.174;stroke-dasharray:none;stroke-opacity:1"
       id="rect1-3"
       width="21.132023"
       height="21.132023"
       x="37.898808"
       y="37.918762"
       rx="3.2185469"
       ry="3.2187209" />
    <rect
       style="fill:#1e2430;fill-opacity:1;stroke:none;stroke-width:1.00656;stroke-dasharray:none;stroke-opacity:1"
       id="rect1-6-5"
       width="18.118069"
       height="18.118069"
       x="39.405781"
       y="39.425739"
       rx="2.4074855"
       ry="2.4074855" />
    <path
       id="path1"
       style="fill:#f4e3cf;fill-opacity:1;stroke:none;stroke-width:0.181638;stroke-dasharray:none;stroke-dashoffset:2.2;stroke-opacity:0.6"
       d="m 51.778779,43.941045 c -0.187252,-8.1e-5 -0.387675,0.07531 -0.638521,0.222291 -0.596919,0.349749 -1.377579,0.514692 -2.44963,0.514692 -1.071954,0 -1.878654,-0.168464 -2.472018,-0.516184 -0.475801,-0.278826 -0.759862,-0.282522 -1.159175,-0.01336 -1.025175,0.690863 -1.797804,2.90589 -2.024459,5.800365 -0.135901,1.735692 -0.0089,2.650757 0.440096,3.165728 0.216586,0.248286 0.748267,0.206204 1.227806,-0.09847 0.406495,-0.258249 0.890832,-0.828123 1.469484,-1.729077 0.522892,-0.81415 1.155362,-1.082294 2.554068,-1.084584 1.395926,-0.0021 1.944506,0.26195 2.588383,1.251671 1.08027,1.660535 2.078776,2.238636 2.664465,1.542581 0.324469,-0.385605 0.383859,-0.758167 0.368487,-2.309398 -0.028,-2.817903 -0.76459,-5.381404 -1.826034,-6.359807 C 52.239036,44.06691 52.019542,43.9412 51.778779,43.9411 Z m -6.06442,1.660439 h 0.647469 0.647466 v 0.554974 0.554973 h 0.554977 0.554971 v 0.693717 0.693714 h -0.554971 -0.554977 v 0.601222 0.601221 h -0.586297 c -0.322099,0 -0.612073,-0.02889 -0.645977,-0.06265 -0.0339,-0.03389 -0.06262,-0.303056 -0.06262,-0.599727 V 48.098857 H 45.159418 44.604442 V 47.405144 46.71143 h 0.554976 0.55497 v -0.55498 z m 5.278213,0 c 0.5841,0 0.834244,0.647172 0.413247,1.068174 -0.26774,0.267713 -0.512097,0.288754 -0.77577,0.06565 -0.457352,-0.386999 -0.218646,-1.133819 0.362523,-1.133819 z m -1.123373,1.18603 c 0.145866,1.01e-4 0.292703,0.05822 0.408766,0.186472 0.180933,0.199943 0.20047,0.65765 0.03732,0.871247 -0.319324,0.418037 -1.086073,0.14915 -1.086073,-0.380423 0,-0.401918 0.319131,-0.677526 0.640008,-0.677304 z m 2.292994,0.02255 c 0.168103,0.0031 0.331322,0.05875 0.426667,0.164095 0.180934,0.199943 0.200443,0.65765 0.0373,0.87125 -0.339646,0.444632 -1.086079,0.147034 -1.086079,-0.432643 0,-0.1757 0.07042,-0.36615 0.168576,-0.455016 0.112217,-0.101585 0.285435,-0.150764 0.45353,-0.147674 z m -1.12934,1.19647 c 0.517834,0 0.769797,0.549277 0.456506,0.996564 -0.107097,0.152907 -0.23771,0.20587 -0.507235,0.20587 -0.310298,0 -0.382306,-0.04038 -0.507228,-0.281972 -0.246338,-0.476336 0.02255,-0.920482 0.557957,-0.920482 z" />
  </g>
</svg>
