<?xml version="1.0" encoding="UTF-8" standalone="no"?>
<svg
   width="64"
   height="64"
   version="1.1"
   id="svg73"
   sodipodi:docname="steam_icon_2842040.svg"
   inkscape:version="1.4.2 (ebf0e940d0, 2025-05-08)"
   xmlns:inkscape="http://www.inkscape.org/namespaces/inkscape"
   xmlns:sodipodi="http://sodipodi.sourceforge.net/DTD/sodipodi-0.dtd"
   xmlns="http://www.w3.org/2000/svg"
   xmlns:svg="http://www.w3.org/2000/svg"
   xmlns:rdf="http://www.w3.org/1999/02/22-rdf-syntax-ns#"
   xmlns:cc="http://creativecommons.org/ns#"
   xmlns:dc="http://purl.org/dc/elements/1.1/">
  <metadata
     id="metadata77">
    <rdf:RDF>
      <cc:Work
         rdf:about="">
        <dc:format>image/svg+xml</dc:format>
        <dc:type
           rdf:resource="http://purl.org/dc/dcmitype/StillImage" />
      </cc:Work>
    </rdf:RDF>
  </metadata>
  <sodipodi:namedview
     pagecolor="#f5f7fa"
     bordercolor="#666666"
     borderopacity="1"
     objecttolerance="10"
     gridtolerance="10"
     guidetolerance="10"
     inkscape:pageopacity="0"
     inkscape:pageshadow="2"
     inkscape:window-width="1374"
     inkscape:window-height="697"
     id="namedview75"
     showgrid="false"
     inkscape:zoom="6.2890625"
     inkscape:cx="51.677019"
     inkscape:cy="37.684472"
     inkscape:window-x="24"
     inkscape:window-y="21"
     inkscape:window-maximized="0"
     inkscape:current-layer="g877"
     inkscape:document-rotation="0"
     inkscape:pagecheckerboard="0"
     inkscape:showpageshadow="2"
     inkscape:deskcolor="#d1d1d1" />
  <defs
     id="defs29">
    <filter
       style="color-interpolation-filters:sRGB;"
       inkscape:label="Blur"
       id="filter1"
       x="-0.091333304"
       y="-0.091333304"
       width="1.1826666"
       height="1.1826666">
      <feGaussianBlur
         stdDeviation="1.3 1.3"
         result="blur"
         id="feGaussianBlur1" />
    </filter>
    <filter
       style="color-interpolation-filters:sRGB"
       inkscape:label="Blur"
       id="filter1-3"
       x="-0.091333304"
       y="-0.091333304"
       width="1.1826666"
       height="1.1826666">
      <feGaussianBlur
         stdDeviation="1.3 1.3"
         result="blur"
         id="feGaussianBlur1-6" />
    </filter>
  </defs>
  <circle
     cx="32.516094"
     cy="31.877844"
     r="0"
     fill="url(#b)"
     stroke-width="1.5715"
     id="circle41"
     style="fill:url(#b)" />
  <g
     aria-label="GZ"
     transform="matrix(1.2212657,0,0,0.81882264,0.4960938,-0.1661539)"
     id="text93"
     style="font-weight:bold;font-size:11.5263px;line-height:1.25;font-family:sans-serif;-inkscape-font-specification:'sans-serif Bold';fill:#f2f2f2;stroke-width:0.288159" />
  <g
     id="g877"
     transform="matrix(1.1,0,0,1.1,-3.1845928,-3.2065454)">
    <rect
       style="fill:none;fill-opacity:1;stroke:#000000;stroke-width:2.72727;stroke-dasharray:none;stroke-opacity:1;filter:url(#filter1);opacity:0.5"
       id="rect1-5"
       width="49.090908"
       height="49.090908"
       x="7.4405394"
       y="7.4604964"
       rx="7.4768682"
       ry="7.477273" />
    <rect
       style="opacity:1;fill:#c4c2c5;stroke-width:2.72727273;stroke-opacity:1;fill-opacity:1;stroke:#1e2430;stroke-dasharray:none"
       id="rect1"
       width="49.090908"
       height="49.090908"
       x="7.4405394"
       y="7.4604964"
       rx="7.4768682"
       ry="7.477273" />
    <rect
       style="fill:#1e2430;fill-opacity:1;stroke:none;stroke-width:2.33829;stroke-dasharray:none;stroke-opacity:1"
       id="rect1-6"
       width="42.089317"
       height="42.089317"
       x="10.941335"
       y="10.961291"
       rx="5.5927272"
       ry="5.5927272" />
    <path
       fill="#000000"
       d="m 26.781669,22.981018 c -0.113321,-0.87191 -1.69709,-1.831972 -2.474342,-1.831972 -0.152945,0 -0.274579,0.03685 -0.347619,0.118862 -1.313281,1.468338 0.856555,4.89317 0.856555,4.89317 0,0 2.152435,-1.733281 1.965406,-3.18006 z m 7.757583,3.644436 c 0,0 2.066268,-3.262796 0.815548,-4.65821 -0.06955,-0.0778 -0.185642,-0.113205 -0.330939,-0.113205 -0.741123,0 -2.249142,0.914241 -2.356924,1.745023 -0.178658,1.371691 1.872315,3.026392 1.872315,3.026392 z m -3.234975,-3.031932 c -0.107784,-0.830842 -1.616464,-1.745021 -2.356803,-1.745021 -0.145358,0 -0.261513,0.0354 -0.331,0.113202 -1.251383,1.398185 0.815547,4.658212 0.815547,4.658212 0,0 2.050913,-1.649101 1.872317,-3.026393 z M 20.071223,20.13744 a 0.99631264,0.99631264 0 0 0 -0.100198,0.0048 c -5.283842,0.538137 0.684822,17.224779 2.441707,18.334416 0,0 -1.022687,-9.130718 0.168299,-14.7066 0.435835,-2.053746 -1.445513,-3.632636 -2.509928,-3.632636 z m 23.928965,0.0048 a 0.99143536,0.99143527 0 0 0 -0.100134,-0.0048 c -1.064479,0 -2.948596,1.577503 -2.509872,3.632631 1.190926,5.575883 0.168241,14.706601 0.168241,14.706601 1.759654,-1.108914 7.726268,-17.795554 2.441703,-18.334355 z m -4.336242,1.006788 c -0.777976,0 -2.363908,0.960123 -2.474462,1.831973 -0.187028,1.443348 1.96613,3.180723 1.96613,3.180723 0,0 2.169175,-3.425494 0.856553,-4.893048 -0.0737,-0.08276 -0.195336,-0.119616 -0.348282,-0.119616 z M 30.734105,42.16275 c -0.122357,-0.684642 -1.541377,-2.128772 -1.541377,-2.128772 0,0 -1.23681,1.443346 -1.223563,2.030863 0,0.129281 -0.06956,1.390478 0.122236,1.565582 0.173178,0.159266 0.773157,0.243448 1.362057,0.243448 0.570112,0 1.129026,-0.07858 1.280647,-0.243389 0.139095,-0.148729 0.02017,-1.36886 0,-1.467612 z M 27.118813,40.696522 C 26.392322,39.450679 25.9654,37.62497 25.728335,36.256711 25.54203,35.174892 25.476036,34.379577 25.476036,34.379577 c -0.910869,0.711136 -2.667031,8.290059 0.152944,8.290059 a 1.8076458,1.8076458 0 0 0 0.298184,-0.02576 c 0.278193,-0.04588 0.629846,-0.258623 0.903823,-0.55614 0.357375,-0.387183 0.56939,-0.913459 0.287826,-1.391144 z m 11.371549,-6.318337 c 0,0 -0.06057,0.724383 -0.227433,1.73045 -0.229417,1.382833 -0.661157,3.296154 -1.414141,4.588603 -0.22665,0.389346 -0.128618,0.807901 0.105015,1.158294 0.278072,0.413069 0.741122,0.730702 1.085971,0.787726 a 1.813908,1.813908 0 0 0 0.298244,0.02572 c 2.824792,-0.0027 1.064416,-7.581634 0.15433,-8.293613 z m -2.49325,7.68942 c 0.01324,-0.587513 -1.223564,-2.030803 -1.223564,-2.030803 0,0 -1.416973,1.44124 -1.536559,2.126002 -0.01528,0.08695 -0.15433,1.300155 0,1.468397 0.15439,0.168238 0.711256,0.24327 1.280647,0.24327 0.5889,0 1.188878,-0.08406 1.362057,-0.24327 0.264161,-0.246159 0.11814,-1.522592 0.119525,-1.565703 z m -8.654421,0.33094 0.01463,0.0069 v -0.02649 z"
       class="cls-2"
       id="path1-3"
       style="fill:#f4e3cf;stroke-width:0.060215;fill-opacity:1" />
    <rect
       style="opacity:0.5;fill:none;fill-opacity:1;stroke:#000000;stroke-width:2.72727;stroke-dasharray:none;stroke-opacity:1;filter:url(#filter1-3)"
       id="rect1-5-5"
       width="49.090908"
       height="49.090908"
       x="7.4405394"
       y="7.4604964"
       rx="7.4768682"
       ry="7.477273"
       transform="matrix(0.43046721,0,0,0.43046721,34.695898,34.707264)" />
    <rect
       style="fill:#c4c2c5;fill-opacity:1;stroke:#1e2430;stroke-width:1.174;stroke-dasharray:none;stroke-opacity:1"
       id="rect1-3"
       width="21.132023"
       height="21.132023"
       x="37.898808"
       y="37.918762"
       rx="3.2185469"
       ry="3.2187209" />
    <rect
       style="fill:#1e2430;fill-opacity:1;stroke:none;stroke-width:1.00656;stroke-dasharray:none;stroke-opacity:1"
       id="rect1-6-5"
       width="18.118069"
       height="18.118069"
       x="39.405781"
       y="39.425739"
       rx="2.4074855"
       ry="2.4074855" />
    <path
       id="path1"
       style="fill:#f4e3cf;fill-opacity:1;stroke:none;stroke-width:0.181638;stroke-dasharray:none;stroke-dashoffset:2.2;stroke-opacity:0.6"
       d="m 51.778779,43.941045 c -0.187252,-8.1e-5 -0.387675,0.07531 -0.638521,0.222291 -0.596919,0.349749 -1.377579,0.514692 -2.44963,0.514692 -1.071954,0 -1.878654,-0.168464 -2.472018,-0.516184 -0.475801,-0.278826 -0.759862,-0.282522 -1.159175,-0.01336 -1.025175,0.690863 -1.797804,2.90589 -2.024459,5.800365 -0.135901,1.735692 -0.0089,2.650757 0.440096,3.165728 0.216586,0.248286 0.748267,0.206204 1.227806,-0.09847 0.406495,-0.258249 0.890832,-0.828123 1.469484,-1.729077 0.522892,-0.81415 1.155362,-1.082294 2.554068,-1.084584 1.395926,-0.0021 1.944506,0.26195 2.588383,1.251671 1.08027,1.660535 2.078776,2.238636 2.664465,1.542581 0.324469,-0.385605 0.383859,-0.758167 0.368487,-2.309398 -0.028,-2.817903 -0.76459,-5.381404 -1.826034,-6.359807 C 52.239036,44.06691 52.019542,43.9412 51.778779,43.9411 Z m -6.06442,1.660439 h 0.647469 0.647466 v 0.554974 0.554973 h 0.554977 0.554971 v 0.693717 0.693714 h -0.554971 -0.554977 v 0.601222 0.601221 h -0.586297 c -0.322099,0 -0.612073,-0.02889 -0.645977,-0.06265 -0.0339,-0.03389 -0.06262,-0.303056 -0.06262,-0.599727 V 48.098857 H 45.159418 44.604442 V 47.405144 46.71143 h 0.554976 0.55497 v -0.55498 z m 5.278213,0 c 0.5841,0 0.834244,0.647172 0.413247,1.068174 -0.26774,0.267713 -0.512097,0.288754 -0.77577,0.06565 -0.457352,-0.386999 -0.218646,-1.133819 0.362523,-1.133819 z m -1.123373,1.18603 c 0.145866,1.01e-4 0.292703,0.05822 0.408766,0.186472 0.180933,0.199943 0.20047,0.65765 0.03732,0.871247 -0.319324,0.418037 -1.086073,0.14915 -1.086073,-0.380423 0,-0.401918 0.319131,-0.677526 0.640008,-0.677304 z m 2.292994,0.02255 c 0.168103,0.0031 0.331322,0.05875 0.426667,0.164095 0.180934,0.199943 0.200443,0.65765 0.0373,0.87125 -0.339646,0.444632 -1.086079,0.147034 -1.086079,-0.432643 0,-0.1757 0.07042,-0.36615 0.168576,-0.455016 0.112217,-0.101585 0.285435,-0.150764 0.45353,-0.147674 z m -1.12934,1.19647 c 0.517834,0 0.769797,0.549277 0.456506,0.996564 -0.107097,0.152907 -0.23771,0.20587 -0.507235,0.20587 -0.310298,0 -0.382306,-0.04038 -0.507228,-0.281972 -0.246338,-0.476336 0.02255,-0.920482 0.557957,-0.920482 z" />
  </g>
</svg>
