<?xml version="1.0" encoding="UTF-8" standalone="no"?>
<svg
   width="64"
   height="64"
   version="1.1"
   id="svg73"
   sodipodi:docname="accessories-calculator.svg"
   inkscape:version="1.2.2 (b0a8486541, 2022-12-01)"
   xmlns:inkscape="http://www.inkscape.org/namespaces/inkscape"
   xmlns:sodipodi="http://sodipodi.sourceforge.net/DTD/sodipodi-0.dtd"
   xmlns="http://www.w3.org/2000/svg"
   xmlns:svg="http://www.w3.org/2000/svg"
   xmlns:rdf="http://www.w3.org/1999/02/22-rdf-syntax-ns#"
   xmlns:cc="http://creativecommons.org/ns#"
   xmlns:dc="http://purl.org/dc/elements/1.1/">
  <metadata
     id="metadata77">
    <rdf:RDF>
      <cc:Work
         rdf:about="">
        <dc:format>image/svg+xml</dc:format>
        <dc:type
           rdf:resource="http://purl.org/dc/dcmitype/StillImage" />
      </cc:Work>
    </rdf:RDF>
  </metadata>
  <sodipodi:namedview
     pagecolor="#f5f7fa"
     bordercolor="#666666"
     borderopacity="1"
     objecttolerance="10"
     gridtolerance="10"
     guidetolerance="10"
     inkscape:pageopacity="0"
     inkscape:pageshadow="2"
     inkscape:window-width="1280"
     inkscape:window-height="603"
     id="namedview75"
     showgrid="false"
     inkscape:zoom="6.2890625"
     inkscape:cx="51.677019"
     inkscape:cy="37.843478"
     inkscape:window-x="35"
     inkscape:window-y="32"
     inkscape:window-maximized="0"
     inkscape:current-layer="g877"
     inkscape:document-rotation="0"
     inkscape:pagecheckerboard="0"
     inkscape:showpageshadow="2"
     inkscape:deskcolor="#d1d1d1" />
  <defs
     id="defs29">
    <filter
       style="color-interpolation-filters:sRGB;"
       inkscape:label="Blur"
       id="filter1"
       x="-0.091333304"
       y="-0.091333304"
       width="1.1826666"
       height="1.1826666">
      <feGaussianBlur
         stdDeviation="1.3 1.3"
         result="blur"
         id="feGaussianBlur1" />
    </filter>
    <filter
       style="color-interpolation-filters:sRGB"
       inkscape:label="Blur"
       id="filter1-3"
       x="-0.091333304"
       y="-0.091333304"
       width="1.1826666"
       height="1.1826666">
      <feGaussianBlur
         stdDeviation="1.3 1.3"
         result="blur"
         id="feGaussianBlur1-6" />
    </filter>
  </defs>
  <circle
     cx="32.516094"
     cy="31.877844"
     r="0"
     fill="url(#b)"
     stroke-width="1.5715"
     id="circle41"
     style="fill:url(#b)" />
  <g
     aria-label="GZ"
     transform="matrix(1.2212657,0,0,0.81882264,0.4960938,-0.1661539)"
     id="text93"
     style="font-weight:bold;font-size:11.5263px;line-height:1.25;font-family:sans-serif;-inkscape-font-specification:'sans-serif Bold';fill:#f2f2f2;stroke-width:0.288159" />
  <g
     id="g877"
     transform="matrix(1.1,0,0,1.1,-3.1845928,-3.2065454)">
    <rect
       style="fill:none;fill-opacity:1;stroke:#000000;stroke-width:2.72727;stroke-dasharray:none;stroke-opacity:1;filter:url(#filter1);opacity:0.5"
       id="rect1-5"
       width="49.090908"
       height="49.090908"
       x="7.4405394"
       y="7.4604964"
       rx="7.4768682"
       ry="7.477273" />
    <rect
       style="opacity:1;fill:#c4c2c5;stroke-width:2.72727273;stroke-opacity:1;fill-opacity:1;stroke:#1e2430;stroke-dasharray:none"
       id="rect1"
       width="49.090908"
       height="49.090908"
       x="7.4405394"
       y="7.4604964"
       rx="7.4768682"
       ry="7.477273" />
    <rect
       style="fill:#1e2430;fill-opacity:1;stroke:none;stroke-width:2.33829;stroke-dasharray:none;stroke-opacity:1"
       id="rect1-6"
       width="42.089317"
       height="42.089317"
       x="10.941335"
       y="10.961291"
       rx="5.5927272"
       ry="5.5927272" />
    <path
       style="fill:#f4e3cf;fill-opacity:1;stroke-width:0.049073"
       d="m 22.918009,45.50602 c -0.01472,-0.114729 -0.09391,-0.661261 -0.17597,-1.214559 -0.257823,-1.738453 -0.314837,-2.521867 -0.285694,-3.925844 0.01886,-0.90913 0.0538,-1.432543 0.127682,-1.913851 0.383181,-2.495934 1.302703,-4.471864 2.898243,-6.227933 l 0.433133,-0.476711 -0.27606,-0.414033 c -0.804528,-1.206624 -1.852063,-1.816224 -3.737861,-2.175195 -0.679946,-0.129432 -2.341335,-0.323766 -3.668211,-0.429076 -0.411603,-0.03268 -0.748365,-0.0741 -0.748365,-0.09207 0,-0.06952 2.369893,-1.2264 3.091603,-1.509198 2.279952,-0.893391 3.897334,-1.238483 5.804524,-1.238483 0.955558,0 1.544153,0.05571 2.366141,0.223928 1.012648,0.207246 2.001111,0.541242 2.819364,0.952653 l 0.413478,0.207889 0.140184,-0.164698 c 0.531003,-0.62387 0.929179,-1.365744 1.115593,-2.07855 0.229608,-0.877984 0.176545,-2.097024 -0.148769,-3.417639 -0.244651,-0.99316 -0.809789,-2.958035 -0.906612,-3.15213 -0.03945,-0.07909 -0.07175,-0.152001 -0.07175,-0.162043 0,-0.01 0.17674,0.111469 0.392749,0.270023 0.48518,0.356119 1.502659,1.27867 1.92536,1.745731 0.716681,0.791894 1.548276,1.954666 2.119637,2.963774 1.359235,2.40061 1.835555,5.176312 1.324767,7.719947 -0.02474,0.122948 -0.008,0.133876 0.430599,0.27845 1.210034,0.399059 2.394944,0.319027 3.725898,-0.251654 0.487356,-0.208966 1.274382,-0.613327 2.496478,-1.282655 0.283387,-0.155216 0.780259,-0.414819 1.104141,-0.576901 0.323883,-0.162079 0.649606,-0.337656 0.723823,-0.390164 0.07425,-0.05253 0.134953,-0.08222 0.134953,-0.06601 0,0.01621 -0.184276,0.398642 -0.409521,0.849851 -0.551981,1.105786 -1.317635,2.402133 -1.788812,3.028671 -1.98218,2.635785 -4.240759,4.277589 -6.953797,5.054842 -0.473796,0.135757 -1.566757,0.367727 -1.732458,0.367727 -0.08561,0 -0.105917,0.04162 -0.135379,0.277419 -0.08997,0.720147 0.04541,1.566206 0.367667,2.29767 0.359661,0.81637 1.294749,1.873872 2.630792,2.975206 0.405918,0.334607 1.126881,0.928583 1.602146,1.319942 0.475262,0.391353 0.858503,0.717571 0.851654,0.724921 -0.02938,0.03151 -1.44354,-0.154064 -2.210372,-0.290005 -1.082835,-0.191976 -1.466986,-0.282831 -2.357268,-0.557659 -3.676175,-1.134776 -6.235353,-3.04943 -7.826384,-5.855339 -0.29624,-0.522446 -0.24221,-0.506823 -0.861796,-0.249186 -0.805582,0.334969 -1.574225,0.982809 -2.090117,1.761633 -0.347539,0.524664 -1.059355,1.956087 -1.909244,3.83939 -0.362213,0.802639 -0.672259,1.459604 -0.688991,1.459919 -0.01673,7.43e-4 -0.04247,-0.09327 -0.05718,-0.207964 z m 14.290179,-1.572017 c -0.01113,-0.008 -0.233199,-0.1844 -0.493266,-0.392744 -0.567339,-0.454534 -1.274205,-1.183171 -1.618744,-1.668604 -0.700868,-0.987481 -1.054308,-2.206413 -0.975502,-3.36427 l 0.02452,-0.360503 -2.339171,0.01701 c -1.286545,0.0096 -2.353313,0.03114 -2.370595,0.04843 -0.04869,0.04874 0.562665,1.04747 0.957971,1.565018 0.665976,0.871921 1.706198,1.808275 2.745796,2.471629 0.859218,0.548256 2.306616,1.182513 3.680479,1.612815 0.312311,0.09781 0.469829,0.126665 0.388492,0.07122 z M 24.001336,40.698451 c 0.560555,-1.232659 1.406596,-2.248553 2.375575,-2.85249 0.387503,-0.241485 1.124715,-0.569481 1.283638,-0.571049 0.06666,-6.68e-4 0.08216,-0.02381 0.05772,-0.08677 -0.160879,-0.413642 -0.465238,-1.365221 -0.691881,-2.163157 -0.29035,-1.022237 -0.544367,-1.871672 -0.616281,-2.060856 -0.04189,-0.110175 -0.05234,-0.104359 -0.300823,0.167155 -1.415632,1.546904 -2.297387,3.526788 -2.588063,5.811221 -0.07593,0.596784 -0.1189,2.058228 -0.07567,2.574449 l 0.03683,0.439773 0.184532,-0.464308 c 0.10149,-0.25537 0.251994,-0.612651 0.334443,-0.793962 z m 12.589329,-3.97047 c 2.409646,-0.522336 4.566498,-1.90232 6.370985,-4.076251 0.3302,-0.397803 0.939926,-1.21741 0.905665,-1.21741 -0.01113,0 -0.171473,0.09223 -0.356399,0.204946 -0.808149,0.492554 -1.853963,0.915878 -2.716304,1.099508 -0.505162,0.107569 -1.645225,0.122858 -2.085605,0.02795 -0.261525,-0.05634 -0.986016,-0.267979 -1.136096,-0.331863 -0.03491,-0.01488 -0.107677,0.131653 -0.190399,0.383283 -0.152641,0.464252 -0.589205,1.574404 -0.93208,2.370247 -0.204343,0.474269 -0.661256,1.635771 -0.661256,1.680914 0,0.02164 0.265924,-0.02535 0.801505,-0.141341 z m -3.991254,-0.469248 c 1.572952,-0.575399 3.408877,-1.812685 3.77373,-2.543236 0.361674,-0.724183 -0.0459,-1.287924 -1.629428,-2.25366 -0.887567,-0.5413 -1.260989,-0.992867 -1.260989,-1.524876 0,-0.110062 -0.04238,-0.192669 -0.146422,-0.28536 -0.15877,-0.141466 -0.260352,-0.346076 -0.313971,-0.632405 -0.04359,-0.232778 -0.132154,-0.295457 -0.09513,-0.06733 0.01516,0.09333 0.0025,0.241245 -0.02793,0.328706 -0.04703,0.13489 -0.03996,0.188695 0.0465,0.35459 0.06215,0.119212 0.09069,0.240385 0.07312,0.310347 -0.02755,0.10969 -0.125082,0.16395 -0.125082,0.06958 0,-0.02487 -0.104894,-0.149697 -0.233099,-0.277422 -0.128185,-0.127724 -0.288285,-0.333057 -0.355761,-0.4563 -0.07032,-0.128438 -0.21364,-0.285001 -0.335796,-0.366829 -0.198734,-0.13312 -0.211892,-0.155575 -0.194995,-0.332744 0.02097,-0.220148 -0.03253,-0.256458 -0.0738,-0.05007 -0.03638,0.181889 0.0046,0.33537 0.146336,0.546226 0.160304,0.238717 0.152625,0.486184 -0.0202,0.65106 -0.273934,0.261329 -0.645227,0.312192 -0.779791,0.10682 -0.0787,-0.120087 -0.07753,-0.137052 0.02338,-0.344824 0.122791,-0.252735 0.130651,-0.387802 0.03254,-0.559403 -0.06899,-0.120693 -0.07017,-0.119249 -0.07187,0.08911 -0.0023,0.289699 -0.07477,0.411638 -0.232942,0.392429 -0.11787,-0.01432 -0.135289,0.01166 -0.260615,0.388445 -0.09792,0.294419 -0.215629,0.512811 -0.434563,0.806289 -0.279109,0.374172 -0.339108,0.424755 -0.852408,0.718662 -1.370077,0.784485 -1.996395,1.387371 -1.998263,1.9235 -0.0011,0.274683 0.215392,0.669434 0.542098,0.989115 0.771828,0.755235 2.186068,1.597573 3.431262,2.043706 0.671243,0.240487 0.649667,0.240877 1.374046,-0.02399 z M 31.2499,35.977515 c -1.260565,-0.334984 -2.762566,-1.312769 -3.096723,-2.015932 -0.144006,-0.30303 -0.163783,-0.872417 -0.0387,-1.114295 0.189587,-0.366618 0.877707,-0.930054 1.736846,-1.422137 0.585211,-0.335189 1.54174,-0.628779 2.04858,-0.628779 0.367129,0 1.134292,0.212615 1.651953,0.457835 0.594229,0.281489 1.403984,0.819369 1.748599,1.161508 0.385299,0.382532 0.458861,0.562101 0.426099,1.040103 -0.02215,0.323367 -0.05142,0.423767 -0.183366,0.629401 -0.417423,0.650497 -1.87999,1.589131 -2.8947,1.857739 -0.607935,0.16093 -0.896231,0.168053 -1.398581,0.03456 z m 1.126641,-0.348979 c 1.168748,-0.304418 1.902323,-1.384639 1.740219,-2.562537 -0.170334,-1.237673 -1.419226,-2.148761 -2.645144,-1.929677 -1.107944,0.198 -1.913572,1.149866 -1.913572,2.260921 0,1.475557 1.41605,2.596586 2.818497,2.231293 z M 31.58941,35.165404 c -0.152997,-0.06189 -0.356166,-0.326744 -0.390324,-0.508825 -0.02007,-0.107024 0.0066,-0.266735 0.08003,-0.477018 0.15068,-0.432147 0.152097,-1.11456 0.0034,-1.567488 -0.12685,-0.385998 -0.129206,-0.451717 -0.02416,-0.67313 0.103822,-0.218781 0.328617,-0.357035 0.580537,-0.357035 0.28371,0 0.487048,0.143293 0.591522,0.416849 0.08593,0.225012 0.08551,0.235548 -0.02298,0.572366 -0.164213,0.509867 -0.181577,0.966379 -0.05382,1.414998 0.154926,0.54405 0.162452,0.642078 0.06397,0.833263 -0.162187,0.314834 -0.527658,0.467551 -0.82808,0.34602 z M 27.345852,30.55309 c 0.211229,-0.160794 0.745435,-0.528498 1.187126,-0.817119 1.905765,-1.24532 2.496092,-1.642713 2.496092,-1.680301 0,-0.02201 -0.188042,-0.121687 -0.417876,-0.221512 -1.468788,-0.637919 -2.676064,-0.895316 -4.267592,-0.909861 -1.522477,-0.01392 -3.033016,0.260452 -4.785631,0.869246 l -0.269905,0.09376 0.318974,0.03501 c 1.620444,0.177899 2.591992,0.454232 3.507753,0.997702 0.490127,0.290871 1.287076,1.074484 1.59585,1.569145 0.121451,0.194577 0.227651,0.354337 0.235994,0.355026 0.0083,6.71e-4 0.187987,-0.130305 0.399215,-0.291098 z m 9.56732,-0.406938 c 0.402062,-2.726683 -0.384775,-5.442217 -2.337659,-8.067743 -0.206638,-0.277813 -0.379947,-0.500192 -0.385127,-0.494177 -0.0052,0.006 0.04289,0.217032 0.106846,0.468926 0.432306,1.702859 0.391365,3.048181 -0.13094,4.302821 -0.153204,0.368005 -0.579934,1.051433 -0.875678,1.402434 l -0.148572,0.176326 0.353965,0.24079 c 0.194682,0.132438 0.86205,0.618717 1.483045,1.080619 1.106082,0.822717 1.777771,1.294855 1.842134,1.294855 0.01762,0 0.05916,-0.182186 0.092,-0.404855 z"
       id="path1-1-1" />
    <rect
       style="opacity:0.5;fill:none;fill-opacity:1;stroke:#000000;stroke-width:2.72727;stroke-dasharray:none;stroke-opacity:1;filter:url(#filter1-3)"
       id="rect1-5-5"
       width="49.090908"
       height="49.090908"
       x="7.4405394"
       y="7.4604964"
       rx="7.4768682"
       ry="7.477273"
       transform="matrix(0.43046721,0,0,0.43046721,34.695898,34.707264)" />
    <rect
       style="fill:#c4c2c5;fill-opacity:1;stroke:#1e2430;stroke-width:1.174;stroke-dasharray:none;stroke-opacity:1"
       id="rect1-3"
       width="21.132023"
       height="21.132023"
       x="37.898808"
       y="37.918762"
       rx="3.2185469"
       ry="3.2187209" />
    <rect
       style="fill:#1e2430;fill-opacity:1;stroke:none;stroke-width:1.00656;stroke-dasharray:none;stroke-opacity:1"
       id="rect1-6-5"
       width="18.118069"
       height="18.118069"
       x="39.405781"
       y="39.425739"
       rx="2.4074855"
       ry="2.4074855" />
    <path
       id="path1"
       style="fill:#f4e3cf;fill-opacity:1;stroke:none;stroke-width:0.181638;stroke-dasharray:none;stroke-dashoffset:2.2;stroke-opacity:0.6"
       d="m 51.778779,43.941045 c -0.187252,-8.1e-5 -0.387675,0.07531 -0.638521,0.222291 -0.596919,0.349749 -1.377579,0.514692 -2.44963,0.514692 -1.071954,0 -1.878654,-0.168464 -2.472018,-0.516184 -0.475801,-0.278826 -0.759862,-0.282522 -1.159175,-0.01336 -1.025175,0.690863 -1.797804,2.90589 -2.024459,5.800365 -0.135901,1.735692 -0.0089,2.650757 0.440096,3.165728 0.216586,0.248286 0.748267,0.206204 1.227806,-0.09847 0.406495,-0.258249 0.890832,-0.828123 1.469484,-1.729077 0.522892,-0.81415 1.155362,-1.082294 2.554068,-1.084584 1.395926,-0.0021 1.944506,0.26195 2.588383,1.251671 1.08027,1.660535 2.078776,2.238636 2.664465,1.542581 0.324469,-0.385605 0.383859,-0.758167 0.368487,-2.309398 -0.028,-2.817903 -0.76459,-5.381404 -1.826034,-6.359807 C 52.239036,44.06691 52.019542,43.9412 51.778779,43.9411 Z m -6.06442,1.660439 h 0.647469 0.647466 v 0.554974 0.554973 h 0.554977 0.554971 v 0.693717 0.693714 h -0.554971 -0.554977 v 0.601222 0.601221 h -0.586297 c -0.322099,0 -0.612073,-0.02889 -0.645977,-0.06265 -0.0339,-0.03389 -0.06262,-0.303056 -0.06262,-0.599727 V 48.098857 H 45.159418 44.604442 V 47.405144 46.71143 h 0.554976 0.55497 v -0.55498 z m 5.278213,0 c 0.5841,0 0.834244,0.647172 0.413247,1.068174 -0.26774,0.267713 -0.512097,0.288754 -0.77577,0.06565 -0.457352,-0.386999 -0.218646,-1.133819 0.362523,-1.133819 z m -1.123373,1.18603 c 0.145866,1.01e-4 0.292703,0.05822 0.408766,0.186472 0.180933,0.199943 0.20047,0.65765 0.03732,0.871247 -0.319324,0.418037 -1.086073,0.14915 -1.086073,-0.380423 0,-0.401918 0.319131,-0.677526 0.640008,-0.677304 z m 2.292994,0.02255 c 0.168103,0.0031 0.331322,0.05875 0.426667,0.164095 0.180934,0.199943 0.200443,0.65765 0.0373,0.87125 -0.339646,0.444632 -1.086079,0.147034 -1.086079,-0.432643 0,-0.1757 0.07042,-0.36615 0.168576,-0.455016 0.112217,-0.101585 0.285435,-0.150764 0.45353,-0.147674 z m -1.12934,1.19647 c 0.517834,0 0.769797,0.549277 0.456506,0.996564 -0.107097,0.152907 -0.23771,0.20587 -0.507235,0.20587 -0.310298,0 -0.382306,-0.04038 -0.507228,-0.281972 -0.246338,-0.476336 0.02255,-0.920482 0.557957,-0.920482 z" />
  </g>
</svg>
