<?xml version="1.0" encoding="UTF-8" standalone="no"?>
<svg
   width="64"
   height="64"
   version="1.1"
   id="svg73"
   sodipodi:docname="accessories-calculator.svg"
   inkscape:version="1.2.2 (b0a8486541, 2022-12-01)"
   xmlns:inkscape="http://www.inkscape.org/namespaces/inkscape"
   xmlns:sodipodi="http://sodipodi.sourceforge.net/DTD/sodipodi-0.dtd"
   xmlns="http://www.w3.org/2000/svg"
   xmlns:svg="http://www.w3.org/2000/svg"
   xmlns:rdf="http://www.w3.org/1999/02/22-rdf-syntax-ns#"
   xmlns:cc="http://creativecommons.org/ns#"
   xmlns:dc="http://purl.org/dc/elements/1.1/">
  <metadata
     id="metadata77">
    <rdf:RDF>
      <cc:Work
         rdf:about="">
        <dc:format>image/svg+xml</dc:format>
        <dc:type
           rdf:resource="http://purl.org/dc/dcmitype/StillImage" />
      </cc:Work>
    </rdf:RDF>
  </metadata>
  <sodipodi:namedview
     pagecolor="#f5f7fa"
     bordercolor="#666666"
     borderopacity="1"
     objecttolerance="10"
     gridtolerance="10"
     guidetolerance="10"
     inkscape:pageopacity="0"
     inkscape:pageshadow="2"
     inkscape:window-width="1280"
     inkscape:window-height="603"
     id="namedview75"
     showgrid="false"
     inkscape:zoom="6.2890625"
     inkscape:cx="51.677019"
     inkscape:cy="37.843478"
     inkscape:window-x="35"
     inkscape:window-y="32"
     inkscape:window-maximized="0"
     inkscape:current-layer="g877"
     inkscape:document-rotation="0"
     inkscape:pagecheckerboard="0"
     inkscape:showpageshadow="2"
     inkscape:deskcolor="#d1d1d1" />
  <defs
     id="defs29">
    <filter
       style="color-interpolation-filters:sRGB;"
       inkscape:label="Blur"
       id="filter1"
       x="-0.091333304"
       y="-0.091333304"
       width="1.1826666"
       height="1.1826666">
      <feGaussianBlur
         stdDeviation="1.3 1.3"
         result="blur"
         id="feGaussianBlur1" />
    </filter>
    <filter
       style="color-interpolation-filters:sRGB"
       inkscape:label="Blur"
       id="filter1-3"
       x="-0.091333304"
       y="-0.091333304"
       width="1.1826666"
       height="1.1826666">
      <feGaussianBlur
         stdDeviation="1.3 1.3"
         result="blur"
         id="feGaussianBlur1-6" />
    </filter>
  </defs>
  <circle
     cx="32.516094"
     cy="31.877844"
     r="0"
     fill="url(#b)"
     stroke-width="1.5715"
     id="circle41"
     style="fill:url(#b)" />
  <g
     aria-label="GZ"
     transform="matrix(1.2212657,0,0,0.81882264,0.4960938,-0.1661539)"
     id="text93"
     style="font-weight:bold;font-size:11.5263px;line-height:1.25;font-family:sans-serif;-inkscape-font-specification:'sans-serif Bold';fill:#f2f2f2;stroke-width:0.288159" />
  <g
     id="g877"
     transform="matrix(1.1,0,0,1.1,-3.1845928,-3.2065454)">
    <rect
       style="fill:none;fill-opacity:1;stroke:#000000;stroke-width:2.72727;stroke-dasharray:none;stroke-opacity:1;filter:url(#filter1);opacity:0.5"
       id="rect1-5"
       width="49.090908"
       height="49.090908"
       x="7.4405394"
       y="7.4604964"
       rx="7.4768682"
       ry="7.477273" />
    <rect
       style="opacity:1;fill:#c4c2c5;stroke-width:2.72727273;stroke-opacity:1;fill-opacity:1;stroke:#1e2430;stroke-dasharray:none"
       id="rect1"
       width="49.090908"
       height="49.090908"
       x="7.4405394"
       y="7.4604964"
       rx="7.4768682"
       ry="7.477273" />
    <rect
       style="fill:#1e2430;fill-opacity:1;stroke:none;stroke-width:2.33829;stroke-dasharray:none;stroke-opacity:1"
       id="rect1-6"
       width="42.089317"
       height="42.089317"
       x="10.941335"
       y="10.961291"
       rx="5.5927272"
       ry="5.5927272" />
    <g
       id="g10"
       transform="matrix(0.841995,0,0,0.841995,4.9839696,5.0955968)"
       style="fill:#f4e3cf;fill-opacity:1">
      <path
         style="fill:#f4e3cf;fill-opacity:1;stroke-width:0.187174"
         d="m 38.530503,47.046168 c -0.05131,-0.424335 0.05561,-0.960216 0.437856,-2.19442 0.362115,-1.169233 0.457698,-1.762652 0.4049,-2.513782 -0.116816,-1.661842 -1.234447,-4.173815 -2.799761,-6.292704 -1.196537,-1.619691 -3.012863,-3.273738 -4.262364,-3.881541 -0.987984,-0.480592 -1.271111,-0.528217 -3.067144,-0.515928 -0.930929,0.0063 -1.580819,0.03446 -1.616215,0.06986 -0.0372,0.0372 -0.07593,1.789281 -0.104236,4.714055 -0.02476,2.56017 -0.06214,5.556354 -0.08303,6.658183 l -0.038,2.003333 -0.167886,0.167887 c -0.155451,0.155451 -0.202602,0.167835 -0.636684,0.167297 -0.56068,-0.0017 -0.749676,-0.0782 -1.914089,-0.784979 -0.582904,-0.353804 -0.807614,-0.523796 -0.860184,-0.650712 -0.05494,-0.132633 -0.05505,-1.807711 -5.27e-4,-7.348845 0.03886,-3.947382 0.07497,-8.268653 0.08024,-9.602828 0.01105,-2.796858 0.02466,-2.715257 -0.591311,-3.543939 -0.52084,-0.700695 -0.670755,-1.245326 -0.812484,-2.951691 -0.06503,-0.782965 -0.06208,-0.893164 0.03043,-1.135398 0.121228,-0.317431 0.321955,-0.58966 0.399462,-0.541758 0.0303,0.01873 0.0551,0.14809 0.0551,0.287465 0,0.390956 0.164021,0.937513 0.376519,1.254665 0.376266,0.561568 0.966329,0.821058 1.865463,0.820363 0.650072,-5.85e-4 0.927739,-0.06363 3.445029,-0.78331 1.039381,-0.297152 2.361462,-0.66663 2.937957,-0.821062 1.034469,-0.277114 1.060311,-0.280792 1.976554,-0.281194 0.7919,-3.45e-4 0.998516,0.01987 1.405445,0.137546 0.762956,0.220626 1.135454,0.449326 1.769471,1.086397 1.274106,1.280239 2.16595,3.153277 2.168979,4.555256 0.0019,0.882473 -0.333107,2.197124 -0.794734,3.118671 -0.396006,0.790546 -0.578316,0.998248 -1.83937,2.095546 -0.33793,0.294046 -0.620935,0.5467 -0.628904,0.561452 -0.0079,0.01476 0.295472,0.289959 0.674311,0.61157 2.532115,2.149598 3.991508,4.278539 4.556577,6.64706 0.619943,2.598537 0.287781,4.473599 -1.203262,6.792457 -0.567224,0.882131 -0.826996,1.395575 -0.98804,1.952849 l -0.136287,0.471615 z M 29.894486,30.208225 c 0.952564,-0.147389 1.984581,-0.669387 2.570134,-1.299986 0.636118,-0.685053 1.811302,-2.727693 2.499627,-4.344715 0.231455,-0.543735 0.249761,-0.625034 0.229791,-1.020494 -0.02043,-0.404468 -0.05491,-0.49597 -0.587473,-1.558805 -0.618808,-1.234951 -0.719979,-1.351379 -1.174652,-1.351795 -0.374126,-3.45e-4 -1.500121,0.217991 -2.002005,0.388195 -0.984438,0.333854 -2.197677,1.019911 -3.461317,1.957289 l -0.57065,0.423315 0.03932,2.972893 c 0.04492,3.396045 0.07123,3.88164 0.21269,3.925886 0.152025,0.04755 1.772228,-0.0187 2.244538,-0.09178 z m 3.777232,-0.512405 c 1.071341,-0.265793 1.732915,-0.971101 1.926004,-2.053326 0.08646,-0.484594 0.104176,-1.279407 0.03257,-1.461484 -0.03484,-0.08858 -0.327698,0.26748 -1.433285,1.742576 -0.764227,1.019648 -1.389504,1.869036 -1.389504,1.887525 0,0.04783 0.44719,-0.01184 0.864209,-0.115291 z"
         id="path1-5-0" />
      <path
         style="fill:#f4e3cf;fill-opacity:1;stroke-width:0.168457"
         d="m 29.749421,48.471998 c -1.338026,-0.116932 -2.975463,-0.483563 -4.190814,-0.938354 -1.47898,-0.553432 -3.137286,-1.483991 -4.461106,-2.503353 -0.747054,-0.575238 -2.310458,-2.165304 -2.888881,-2.938135 -0.756967,-1.011391 -1.454472,-2.201696 -1.841065,-3.141827 -0.219115,-0.532833 0.06611,-0.151306 0.676337,0.904732 1.085272,1.878095 2.456321,3.418282 4.188373,4.705026 2.187217,1.624903 4.687144,2.608308 7.445506,2.928884 1.013429,0.117783 3.081972,0.0782 4.090388,-0.07827 2.300375,-0.356932 4.254533,-1.067628 5.821855,-2.117304 1.139179,-0.762931 2.789379,-2.265888 3.603637,-3.282105 2.954658,-3.687472 4.048012,-8.717751 2.964313,-13.638224 -0.427788,-1.942339 -1.556867,-4.352597 -2.815626,-6.010525 -0.576472,-0.759278 -2.425216,-2.474247 -3.580994,-3.321871 -1.574094,-1.154415 -3.846658,-2.056556 -6.316621,-2.507514 -0.830136,-0.151564 -2.824631,-0.138284 -3.773425,0.02513 -1.600283,0.275615 -3.079863,0.740176 -4.173356,1.31036 -0.471573,0.245894 -0.856241,0.406704 -1.105074,0.461975 -0.736028,0.163487 -1.007786,0.398741 -1.422722,1.231624 -0.174766,0.350795 -0.345606,0.610216 -0.484484,0.735684 -0.238711,0.215661 -0.251654,0.221004 -0.815339,0.336557 -0.863564,0.177032 -1.229967,0.662479 -1.177403,1.559942 0.02793,0.476901 -0.0236,0.707372 -0.176444,0.789175 -0.156151,0.08357 -0.262389,0.06269 -0.40462,-0.07955 -0.18313,-0.183129 -0.169119,-0.395157 0.05636,-0.852843 0.215534,-0.437504 0.236207,-0.578117 0.085,-0.578117 -0.163791,0 -0.418688,0.250067 -0.598198,0.586859 -0.09076,0.170279 -0.321825,0.48779 -0.513485,0.705581 -0.586859,0.666876 -0.752092,1.156581 -0.594913,1.763155 0.120497,0.46501 0.109981,0.644119 -0.04704,0.801136 -0.268686,0.268688 -0.784845,0.09579 -0.783392,-0.262416 0.0034,-0.849584 1.387152,-3.064981 2.879501,-4.610267 3.84393,-3.980287 9.191736,-5.748547 14.615795,-4.832738 2.401704,0.405508 4.506833,1.2302 6.473276,2.535924 4.088726,2.714927 6.686659,6.961106 7.273711,11.888463 0.102111,0.857089 0.115349,2.662888 0.02588,3.526208 -0.592441,5.714561 -3.856902,10.548262 -8.843912,13.095203 -2.798229,1.429103 -6.084312,2.073294 -9.190981,1.801798 z"
         id="path1-7" />
    </g>
    <rect
       style="opacity:0.5;fill:none;fill-opacity:1;stroke:#000000;stroke-width:2.72727;stroke-dasharray:none;stroke-opacity:1;filter:url(#filter1-3)"
       id="rect1-5-5"
       width="49.090908"
       height="49.090908"
       x="7.4405394"
       y="7.4604964"
       rx="7.4768682"
       ry="7.477273"
       transform="matrix(0.43046721,0,0,0.43046721,34.695898,34.707264)" />
    <rect
       style="fill:#c4c2c5;fill-opacity:1;stroke:#1e2430;stroke-width:1.174;stroke-dasharray:none;stroke-opacity:1"
       id="rect1-3"
       width="21.132023"
       height="21.132023"
       x="37.898808"
       y="37.918762"
       rx="3.2185469"
       ry="3.2187209" />
    <rect
       style="fill:#1e2430;fill-opacity:1;stroke:none;stroke-width:1.00656;stroke-dasharray:none;stroke-opacity:1"
       id="rect1-6-5"
       width="18.118069"
       height="18.118069"
       x="39.405781"
       y="39.425739"
       rx="2.4074855"
       ry="2.4074855" />
    <path
       id="path1"
       style="fill:#f4e3cf;fill-opacity:1;stroke:none;stroke-width:0.181638;stroke-dasharray:none;stroke-dashoffset:2.2;stroke-opacity:0.6"
       d="m 51.778779,43.941045 c -0.187252,-8.1e-5 -0.387675,0.07531 -0.638521,0.222291 -0.596919,0.349749 -1.377579,0.514692 -2.44963,0.514692 -1.071954,0 -1.878654,-0.168464 -2.472018,-0.516184 -0.475801,-0.278826 -0.759862,-0.282522 -1.159175,-0.01336 -1.025175,0.690863 -1.797804,2.90589 -2.024459,5.800365 -0.135901,1.735692 -0.0089,2.650757 0.440096,3.165728 0.216586,0.248286 0.748267,0.206204 1.227806,-0.09847 0.406495,-0.258249 0.890832,-0.828123 1.469484,-1.729077 0.522892,-0.81415 1.155362,-1.082294 2.554068,-1.084584 1.395926,-0.0021 1.944506,0.26195 2.588383,1.251671 1.08027,1.660535 2.078776,2.238636 2.664465,1.542581 0.324469,-0.385605 0.383859,-0.758167 0.368487,-2.309398 -0.028,-2.817903 -0.76459,-5.381404 -1.826034,-6.359807 C 52.239036,44.06691 52.019542,43.9412 51.778779,43.9411 Z m -6.06442,1.660439 h 0.647469 0.647466 v 0.554974 0.554973 h 0.554977 0.554971 v 0.693717 0.693714 h -0.554971 -0.554977 v 0.601222 0.601221 h -0.586297 c -0.322099,0 -0.612073,-0.02889 -0.645977,-0.06265 -0.0339,-0.03389 -0.06262,-0.303056 -0.06262,-0.599727 V 48.098857 H 45.159418 44.604442 V 47.405144 46.71143 h 0.554976 0.55497 v -0.55498 z m 5.278213,0 c 0.5841,0 0.834244,0.647172 0.413247,1.068174 -0.26774,0.267713 -0.512097,0.288754 -0.77577,0.06565 -0.457352,-0.386999 -0.218646,-1.133819 0.362523,-1.133819 z m -1.123373,1.18603 c 0.145866,1.01e-4 0.292703,0.05822 0.408766,0.186472 0.180933,0.199943 0.20047,0.65765 0.03732,0.871247 -0.319324,0.418037 -1.086073,0.14915 -1.086073,-0.380423 0,-0.401918 0.319131,-0.677526 0.640008,-0.677304 z m 2.292994,0.02255 c 0.168103,0.0031 0.331322,0.05875 0.426667,0.164095 0.180934,0.199943 0.200443,0.65765 0.0373,0.87125 -0.339646,0.444632 -1.086079,0.147034 -1.086079,-0.432643 0,-0.1757 0.07042,-0.36615 0.168576,-0.455016 0.112217,-0.101585 0.285435,-0.150764 0.45353,-0.147674 z m -1.12934,1.19647 c 0.517834,0 0.769797,0.549277 0.456506,0.996564 -0.107097,0.152907 -0.23771,0.20587 -0.507235,0.20587 -0.310298,0 -0.382306,-0.04038 -0.507228,-0.281972 -0.246338,-0.476336 0.02255,-0.920482 0.557957,-0.920482 z" />
  </g>
</svg>
