<?xml version="1.0" encoding="UTF-8" standalone="no"?>
<svg
   width="64"
   height="64"
   version="1.1"
   id="svg73"
   sodipodi:docname="accessories-calculator.svg"
   inkscape:version="1.2.2 (b0a8486541, 2022-12-01)"
   xmlns:inkscape="http://www.inkscape.org/namespaces/inkscape"
   xmlns:sodipodi="http://sodipodi.sourceforge.net/DTD/sodipodi-0.dtd"
   xmlns="http://www.w3.org/2000/svg"
   xmlns:svg="http://www.w3.org/2000/svg"
   xmlns:rdf="http://www.w3.org/1999/02/22-rdf-syntax-ns#"
   xmlns:cc="http://creativecommons.org/ns#"
   xmlns:dc="http://purl.org/dc/elements/1.1/">
  <metadata
     id="metadata77">
    <rdf:RDF>
      <cc:Work
         rdf:about="">
        <dc:format>image/svg+xml</dc:format>
        <dc:type
           rdf:resource="http://purl.org/dc/dcmitype/StillImage" />
      </cc:Work>
    </rdf:RDF>
  </metadata>
  <sodipodi:namedview
     pagecolor="#f5f7fa"
     bordercolor="#666666"
     borderopacity="1"
     objecttolerance="10"
     gridtolerance="10"
     guidetolerance="10"
     inkscape:pageopacity="0"
     inkscape:pageshadow="2"
     inkscape:window-width="1280"
     inkscape:window-height="603"
     id="namedview75"
     showgrid="false"
     inkscape:zoom="6.2890625"
     inkscape:cx="51.677019"
     inkscape:cy="37.843478"
     inkscape:window-x="35"
     inkscape:window-y="32"
     inkscape:window-maximized="0"
     inkscape:current-layer="g877"
     inkscape:document-rotation="0"
     inkscape:pagecheckerboard="0"
     inkscape:showpageshadow="2"
     inkscape:deskcolor="#d1d1d1" />
  <defs
     id="defs29">
    <filter
       style="color-interpolation-filters:sRGB;"
       inkscape:label="Blur"
       id="filter1"
       x="-0.091333304"
       y="-0.091333304"
       width="1.1826666"
       height="1.1826666">
      <feGaussianBlur
         stdDeviation="1.3 1.3"
         result="blur"
         id="feGaussianBlur1" />
    </filter>
    <filter
       style="color-interpolation-filters:sRGB"
       inkscape:label="Blur"
       id="filter1-3"
       x="-0.091333304"
       y="-0.091333304"
       width="1.1826666"
       height="1.1826666">
      <feGaussianBlur
         stdDeviation="1.3 1.3"
         result="blur"
         id="feGaussianBlur1-6" />
    </filter>
  </defs>
  <circle
     cx="32.516094"
     cy="31.877844"
     r="0"
     fill="url(#b)"
     stroke-width="1.5715"
     id="circle41"
     style="fill:url(#b)" />
  <g
     aria-label="GZ"
     transform="matrix(1.2212657,0,0,0.81882264,0.4960938,-0.1661539)"
     id="text93"
     style="font-weight:bold;font-size:11.5263px;line-height:1.25;font-family:sans-serif;-inkscape-font-specification:'sans-serif Bold';fill:#f2f2f2;stroke-width:0.288159" />
  <g
     id="g877"
     transform="matrix(1.1,0,0,1.1,-3.1845928,-3.2065454)">
    <rect
       style="fill:none;fill-opacity:1;stroke:#000000;stroke-width:2.72727;stroke-dasharray:none;stroke-opacity:1;filter:url(#filter1);opacity:0.5"
       id="rect1-5"
       width="49.090908"
       height="49.090908"
       x="7.4405394"
       y="7.4604964"
       rx="7.4768682"
       ry="7.477273" />
    <rect
       style="opacity:1;fill:#c4c2c5;stroke-width:2.72727273;stroke-opacity:1;fill-opacity:1;stroke:#1e2430;stroke-dasharray:none"
       id="rect1"
       width="49.090908"
       height="49.090908"
       x="7.4405394"
       y="7.4604964"
       rx="7.4768682"
       ry="7.477273" />
    <rect
       style="fill:#1e2430;fill-opacity:1;stroke:none;stroke-width:2.33829;stroke-dasharray:none;stroke-opacity:1"
       id="rect1-6"
       width="42.089317"
       height="42.089317"
       x="10.941335"
       y="10.961291"
       rx="5.5927272"
       ry="5.5927272" />
    <path
       style="fill:#f4e3cf;fill-opacity:1;stroke:none;stroke-width:0.434235;stroke-dasharray:none;stroke-opacity:0.6"
       d="m 18.656768,45.592911 c 0.03331,-0.03114 1.511094,-0.927325 3.283966,-1.991144 l 3.22339,-1.934221 -3.435377,-0.02968 -3.435383,-0.02969 3.512893,-2.112958 c 1.932085,-1.16213 3.540152,-2.128533 3.573462,-2.147555 0.0333,-0.01948 -0.239254,0.30219 -0.605676,0.713782 -2.0112,2.259172 -2.452287,2.763503 -2.452611,2.804245 -1.9e-4,0.02505 1.419819,0.05195 3.155592,0.06061 l 3.155942,0.01577 -4.948837,2.331829 c -5.093439,2.399515 -5.130085,2.416431 -5.027361,2.319889 z m 16.523269,0.0022 c 0.01725,-0.02752 1.314397,-0.922132 2.882377,-1.988104 l 2.850885,-1.938157 -3.042561,-0.0303 -3.042549,-0.0303 3.119201,-2.124606 c 1.715556,-1.168845 3.127534,-2.118985 3.137729,-2.111737 0.01021,0.0074 -0.596243,0.793189 -1.347622,1.746502 -0.751379,0.953314 -1.366133,1.746734 -1.366133,1.763152 0,0.01669 1.274171,0.0303 2.831514,0.0303 l 2.831505,0.0014 -3.815736,2.03168 c -2.09864,1.117414 -4.097951,2.182196 -4.442905,2.366203 -0.344965,0.183967 -0.613023,0.312033 -0.595702,0.284563 z M 27.72869,43.868206 c 0.359203,-0.343587 1.903659,-1.810282 3.432124,-3.259353 1.528465,-1.449069 2.781293,-2.654892 2.784084,-2.679604 0.0022,-0.02505 -1.604709,-0.05195 -3.572195,-0.06052 l -3.577268,-0.01563 1.562877,-1.483895 c 4.083537,-3.877222 5.347393,-5.102455 5.315863,-5.153469 -0.04798,-0.07763 -0.613354,-0.06916 -0.772983,0.01157 -0.07278,0.03676 -1.365775,1.297341 -2.87335,2.801229 l -2.741057,2.734248 -0.923253,-0.0022 c -0.881394,-0.0022 -0.949335,-0.0113 -1.498637,-0.19995 -1.977465,-0.679602 -3.305569,-2.36011 -3.484324,-4.409279 L 21.338331,31.6671 20.916863,31.523615 c -1.125782,-0.383284 -2.090177,-1.361086 -2.519281,-2.554311 -0.144851,-0.402835 -0.159766,-0.526137 -0.159766,-1.322476 0,-0.796345 0.01488,-0.919641 0.159769,-1.322478 0.586227,-1.630158 2.000533,-2.688052 3.729557,-2.789702 l 0.623749,-0.03667 0.138643,-0.393688 c 0.587833,-1.669152 1.906428,-3.127069 3.506357,-3.876821 3.058653,-1.433336 6.666155,-0.45371 8.551797,2.32226 0.214731,0.316106 0.409063,0.538515 0.483232,0.55301 0.06822,0.01333 0.296772,0.05519 0.507861,0.09302 0.860354,0.154169 1.912287,0.608544 2.627099,1.134761 l 0.359148,0.264404 0.333485,-0.221342 c 0.69507,-0.461363 1.502403,-0.670505 2.377754,-0.615964 1.544632,0.09625 2.832019,1.076029 3.380866,2.573048 0.30083,0.820602 0.244827,2.032086 -0.131302,2.842456 -0.127439,0.274491 -0.134551,0.323721 -0.05612,0.388745 0.15561,0.129189 0.554264,0.85646 0.685162,1.250081 0.20147,0.605971 0.265235,1.22632 0.186688,1.816559 -0.132386,0.995103 -0.494716,1.718544 -1.227473,2.451061 -0.378946,0.378822 -0.576411,0.520606 -1.02963,0.739231 -0.600399,0.289623 -1.277945,0.459506 -1.832672,0.459506 -0.790511,0 -1.799713,-0.338113 -2.46342,-0.825326 l -0.296499,-0.217672 -0.406765,0.271729 c -1.074023,0.717434 -2.200512,1.098983 -3.465465,1.173739 -0.83523,0.04937 -2.240985,-0.133085 -2.240985,-0.290847 0,-0.03062 0.354324,-0.717246 0.787375,-1.525823 0.654385,-1.221836 0.787382,-1.513505 0.787382,-1.726863 0,-0.281205 -0.101719,-0.522951 -0.292798,-0.695867 -0.121947,-0.110352 -0.125988,-0.107349 -0.324178,0.241693 -0.110381,0.194395 -0.790462,1.403098 -1.511301,2.686004 l -1.310605,2.332549 3.318303,0.03028 3.318314,0.0303 -5.120878,3.815724 c -2.816487,2.098646 -5.164478,3.837912 -5.217762,3.865023 -0.05325,0.02722 0.197017,-0.231745 0.55622,-0.575384 z"
       id="path1-3-5-9" />
    <rect
       style="opacity:0.5;fill:none;fill-opacity:1;stroke:#000000;stroke-width:2.72727;stroke-dasharray:none;stroke-opacity:1;filter:url(#filter1-3)"
       id="rect1-5-5"
       width="49.090908"
       height="49.090908"
       x="7.4405394"
       y="7.4604964"
       rx="7.4768682"
       ry="7.477273"
       transform="matrix(0.43046721,0,0,0.43046721,34.695898,34.707264)" />
    <rect
       style="fill:#c4c2c5;fill-opacity:1;stroke:#1e2430;stroke-width:1.174;stroke-dasharray:none;stroke-opacity:1"
       id="rect1-3"
       width="21.132023"
       height="21.132023"
       x="37.898808"
       y="37.918762"
       rx="3.2185469"
       ry="3.2187209" />
    <rect
       style="fill:#1e2430;fill-opacity:1;stroke:none;stroke-width:1.00656;stroke-dasharray:none;stroke-opacity:1"
       id="rect1-6-5"
       width="18.118069"
       height="18.118069"
       x="39.405781"
       y="39.425739"
       rx="2.4074855"
       ry="2.4074855" />
    <path
       id="path1"
       style="fill:#f4e3cf;fill-opacity:1;stroke:none;stroke-width:0.181638;stroke-dasharray:none;stroke-dashoffset:2.2;stroke-opacity:0.6"
       d="m 51.778779,43.941045 c -0.187252,-8.1e-5 -0.387675,0.07531 -0.638521,0.222291 -0.596919,0.349749 -1.377579,0.514692 -2.44963,0.514692 -1.071954,0 -1.878654,-0.168464 -2.472018,-0.516184 -0.475801,-0.278826 -0.759862,-0.282522 -1.159175,-0.01336 -1.025175,0.690863 -1.797804,2.90589 -2.024459,5.800365 -0.135901,1.735692 -0.0089,2.650757 0.440096,3.165728 0.216586,0.248286 0.748267,0.206204 1.227806,-0.09847 0.406495,-0.258249 0.890832,-0.828123 1.469484,-1.729077 0.522892,-0.81415 1.155362,-1.082294 2.554068,-1.084584 1.395926,-0.0021 1.944506,0.26195 2.588383,1.251671 1.08027,1.660535 2.078776,2.238636 2.664465,1.542581 0.324469,-0.385605 0.383859,-0.758167 0.368487,-2.309398 -0.028,-2.817903 -0.76459,-5.381404 -1.826034,-6.359807 C 52.239036,44.06691 52.019542,43.9412 51.778779,43.9411 Z m -6.06442,1.660439 h 0.647469 0.647466 v 0.554974 0.554973 h 0.554977 0.554971 v 0.693717 0.693714 h -0.554971 -0.554977 v 0.601222 0.601221 h -0.586297 c -0.322099,0 -0.612073,-0.02889 -0.645977,-0.06265 -0.0339,-0.03389 -0.06262,-0.303056 -0.06262,-0.599727 V 48.098857 H 45.159418 44.604442 V 47.405144 46.71143 h 0.554976 0.55497 v -0.55498 z m 5.278213,0 c 0.5841,0 0.834244,0.647172 0.413247,1.068174 -0.26774,0.267713 -0.512097,0.288754 -0.77577,0.06565 -0.457352,-0.386999 -0.218646,-1.133819 0.362523,-1.133819 z m -1.123373,1.18603 c 0.145866,1.01e-4 0.292703,0.05822 0.408766,0.186472 0.180933,0.199943 0.20047,0.65765 0.03732,0.871247 -0.319324,0.418037 -1.086073,0.14915 -1.086073,-0.380423 0,-0.401918 0.319131,-0.677526 0.640008,-0.677304 z m 2.292994,0.02255 c 0.168103,0.0031 0.331322,0.05875 0.426667,0.164095 0.180934,0.199943 0.200443,0.65765 0.0373,0.87125 -0.339646,0.444632 -1.086079,0.147034 -1.086079,-0.432643 0,-0.1757 0.07042,-0.36615 0.168576,-0.455016 0.112217,-0.101585 0.285435,-0.150764 0.45353,-0.147674 z m -1.12934,1.19647 c 0.517834,0 0.769797,0.549277 0.456506,0.996564 -0.107097,0.152907 -0.23771,0.20587 -0.507235,0.20587 -0.310298,0 -0.382306,-0.04038 -0.507228,-0.281972 -0.246338,-0.476336 0.02255,-0.920482 0.557957,-0.920482 z" />
  </g>
</svg>
