<?xml version="1.0" encoding="UTF-8" standalone="no"?>
<svg
   width="64"
   height="64"
   version="1.1"
   id="svg73"
   sodipodi:docname="accessories-calculator.svg"
   inkscape:version="1.2.2 (b0a8486541, 2022-12-01)"
   xmlns:inkscape="http://www.inkscape.org/namespaces/inkscape"
   xmlns:sodipodi="http://sodipodi.sourceforge.net/DTD/sodipodi-0.dtd"
   xmlns="http://www.w3.org/2000/svg"
   xmlns:svg="http://www.w3.org/2000/svg"
   xmlns:rdf="http://www.w3.org/1999/02/22-rdf-syntax-ns#"
   xmlns:cc="http://creativecommons.org/ns#"
   xmlns:dc="http://purl.org/dc/elements/1.1/">
  <metadata
     id="metadata77">
    <rdf:RDF>
      <cc:Work
         rdf:about="">
        <dc:format>image/svg+xml</dc:format>
        <dc:type
           rdf:resource="http://purl.org/dc/dcmitype/StillImage" />
      </cc:Work>
    </rdf:RDF>
  </metadata>
  <sodipodi:namedview
     pagecolor="#f5f7fa"
     bordercolor="#666666"
     borderopacity="1"
     objecttolerance="10"
     gridtolerance="10"
     guidetolerance="10"
     inkscape:pageopacity="0"
     inkscape:pageshadow="2"
     inkscape:window-width="1280"
     inkscape:window-height="603"
     id="namedview75"
     showgrid="false"
     inkscape:zoom="6.2890625"
     inkscape:cx="51.677019"
     inkscape:cy="37.843478"
     inkscape:window-x="35"
     inkscape:window-y="32"
     inkscape:window-maximized="0"
     inkscape:current-layer="g877"
     inkscape:document-rotation="0"
     inkscape:pagecheckerboard="0"
     inkscape:showpageshadow="2"
     inkscape:deskcolor="#d1d1d1" />
  <defs
     id="defs29">
    <filter
       style="color-interpolation-filters:sRGB;"
       inkscape:label="Blur"
       id="filter1"
       x="-0.091333304"
       y="-0.091333304"
       width="1.1826666"
       height="1.1826666">
      <feGaussianBlur
         stdDeviation="1.3 1.3"
         result="blur"
         id="feGaussianBlur1" />
    </filter>
    <filter
       style="color-interpolation-filters:sRGB"
       inkscape:label="Blur"
       id="filter1-3"
       x="-0.091333304"
       y="-0.091333304"
       width="1.1826666"
       height="1.1826666">
      <feGaussianBlur
         stdDeviation="1.3 1.3"
         result="blur"
         id="feGaussianBlur1-6" />
    </filter>
  </defs>
  <circle
     cx="32.516094"
     cy="31.877844"
     r="0"
     fill="url(#b)"
     stroke-width="1.5715"
     id="circle41"
     style="fill:url(#b)" />
  <g
     aria-label="GZ"
     transform="matrix(1.2212657,0,0,0.81882264,0.4960938,-0.1661539)"
     id="text93"
     style="font-weight:bold;font-size:11.5263px;line-height:1.25;font-family:sans-serif;-inkscape-font-specification:'sans-serif Bold';fill:#f2f2f2;stroke-width:0.288159" />
  <g
     id="g877"
     transform="matrix(1.1,0,0,1.1,-3.1845928,-3.2065454)">
    <rect
       style="fill:none;fill-opacity:1;stroke:#000000;stroke-width:2.72727;stroke-dasharray:none;stroke-opacity:1;filter:url(#filter1);opacity:0.5"
       id="rect1-5"
       width="49.090908"
       height="49.090908"
       x="7.4405394"
       y="7.4604964"
       rx="7.4768682"
       ry="7.477273" />
    <rect
       style="opacity:1;fill:#c4c2c5;stroke-width:2.72727273;stroke-opacity:1;fill-opacity:1;stroke:#1e2430;stroke-dasharray:none"
       id="rect1"
       width="49.090908"
       height="49.090908"
       x="7.4405394"
       y="7.4604964"
       rx="7.4768682"
       ry="7.477273" />
    <rect
       style="fill:#1e2430;fill-opacity:1;stroke:none;stroke-width:2.33829;stroke-dasharray:none;stroke-opacity:1"
       id="rect1-6"
       width="42.089317"
       height="42.089317"
       x="10.941335"
       y="10.961291"
       rx="5.5927272"
       ry="5.5927272" />
    <path
       style="fill:#f4e3cf;fill-opacity:1;stroke:none;stroke-width:0.434235;stroke-dasharray:none;stroke-opacity:0.6"
       d="m 27.496604,44.026793 c -0.07609,-0.09936 -1.233961,-3.443262 -2.573043,-7.43088 -1.429971,-4.25828 -2.600349,-7.51477 -2.836114,-7.891287 -0.465147,-0.742829 -1.181745,-1.185794 -2.14032,-1.323045 -0.696825,-0.09978 -1.013448,-0.419614 -0.645829,-0.652389 0.108073,-0.06843 0.662566,-0.125391 1.232214,-0.126572 0.768572,-0.0015 1.019025,-0.04756 0.970985,-0.178135 -0.0356,-0.09677 -0.398108,-1.179858 -0.805558,-2.406833 -0.825205,-2.48496 -1.207807,-3.085381 -2.123141,-3.331853 -0.632877,-0.170417 -0.789021,-0.351134 -0.551091,-0.63782 0.140623,-0.169442 0.771576,-0.204631 3.63723,-0.202849 1.913972,0.0014 3.560718,0.06136 3.676099,0.134309 0.114947,0.07269 0.970195,2.415701 1.900541,5.206712 0.930346,2.791009 1.75489,5.08494 1.83232,5.09762 0.07744,0.01274 0.566923,-0.698885 1.087756,-1.581256 0.520844,-0.882375 1.042873,-1.716305 1.160067,-1.853183 0.186063,-0.217306 0.476632,-0.248591 2.290987,-0.246711 1.142843,9.9e-4 2.166315,0.05815 2.27439,0.126568 0.308863,0.19557 0.07923,0.53894 -0.433345,0.64796 -0.619196,0.131693 -0.96026,0.451976 -0.957661,0.89931 0.0024,0.426555 1.371372,2.362547 1.539264,2.176934 0.223234,-0.246811 2.963605,-8.464 2.963605,-8.886604 0,-0.482669 -0.309843,-0.879131 -0.687057,-0.879131 -0.13455,0 -0.365176,-0.08817 -0.512559,-0.195937 -0.227694,-0.166477 -0.239723,-0.229977 -0.08009,-0.422344 0.164238,-0.197908 0.671698,-0.226413 4.030628,-0.226413 2.113501,0 3.942932,0.03848 4.065413,0.08546 0.431059,0.165415 0.254659,0.598945 -0.305251,0.750313 -0.682576,0.184531 -1.113567,0.493457 -1.363978,0.97768 -0.162104,0.313502 -4.23924,11.978659 -6.02112,17.227178 -0.304571,0.897112 -0.481737,1.229836 -0.652001,1.224471 -0.128892,-0.0043 -1.086339,-1.076218 -2.134311,-2.390059 -1.045278,-1.310485 -1.96218,-2.363599 -2.037535,-2.340245 -0.07537,0.02348 -0.500984,0.639592 -0.945834,1.369416 -1.088176,1.785254 -1.0944,2.364837 -0.02933,2.730987 0.371329,0.127686 0.549051,0.272751 0.549051,0.44821 0,0.2289 -0.157301,0.267771 -1.33742,0.329838 l -1.337409,0.07044 -1.150092,1.896753 c -0.63255,1.043204 -1.209044,1.916402 -1.281092,1.94042 -0.07205,0.02381 -0.193266,-0.03764 -0.269357,-0.136962 z"
       id="path1151" />
    <rect
       style="opacity:0.5;fill:none;fill-opacity:1;stroke:#000000;stroke-width:2.72727;stroke-dasharray:none;stroke-opacity:1;filter:url(#filter1-3)"
       id="rect1-5-5"
       width="49.090908"
       height="49.090908"
       x="7.4405394"
       y="7.4604964"
       rx="7.4768682"
       ry="7.477273"
       transform="matrix(0.43046721,0,0,0.43046721,34.695898,34.707264)" />
    <rect
       style="fill:#c4c2c5;fill-opacity:1;stroke:#1e2430;stroke-width:1.174;stroke-dasharray:none;stroke-opacity:1"
       id="rect1-3"
       width="21.132023"
       height="21.132023"
       x="37.898808"
       y="37.918762"
       rx="3.2185469"
       ry="3.2187209" />
    <rect
       style="fill:#1e2430;fill-opacity:1;stroke:none;stroke-width:1.00656;stroke-dasharray:none;stroke-opacity:1"
       id="rect1-6-5"
       width="18.118069"
       height="18.118069"
       x="39.405781"
       y="39.425739"
       rx="2.4074855"
       ry="2.4074855" />
    <path
       id="path1"
       style="fill:#f4e3cf;fill-opacity:1;stroke:none;stroke-width:0.181638;stroke-dasharray:none;stroke-dashoffset:2.2;stroke-opacity:0.6"
       d="m 51.778779,43.941045 c -0.187252,-8.1e-5 -0.387675,0.07531 -0.638521,0.222291 -0.596919,0.349749 -1.377579,0.514692 -2.44963,0.514692 -1.071954,0 -1.878654,-0.168464 -2.472018,-0.516184 -0.475801,-0.278826 -0.759862,-0.282522 -1.159175,-0.01336 -1.025175,0.690863 -1.797804,2.90589 -2.024459,5.800365 -0.135901,1.735692 -0.0089,2.650757 0.440096,3.165728 0.216586,0.248286 0.748267,0.206204 1.227806,-0.09847 0.406495,-0.258249 0.890832,-0.828123 1.469484,-1.729077 0.522892,-0.81415 1.155362,-1.082294 2.554068,-1.084584 1.395926,-0.0021 1.944506,0.26195 2.588383,1.251671 1.08027,1.660535 2.078776,2.238636 2.664465,1.542581 0.324469,-0.385605 0.383859,-0.758167 0.368487,-2.309398 -0.028,-2.817903 -0.76459,-5.381404 -1.826034,-6.359807 C 52.239036,44.06691 52.019542,43.9412 51.778779,43.9411 Z m -6.06442,1.660439 h 0.647469 0.647466 v 0.554974 0.554973 h 0.554977 0.554971 v 0.693717 0.693714 h -0.554971 -0.554977 v 0.601222 0.601221 h -0.586297 c -0.322099,0 -0.612073,-0.02889 -0.645977,-0.06265 -0.0339,-0.03389 -0.06262,-0.303056 -0.06262,-0.599727 V 48.098857 H 45.159418 44.604442 V 47.405144 46.71143 h 0.554976 0.55497 v -0.55498 z m 5.278213,0 c 0.5841,0 0.834244,0.647172 0.413247,1.068174 -0.26774,0.267713 -0.512097,0.288754 -0.77577,0.06565 -0.457352,-0.386999 -0.218646,-1.133819 0.362523,-1.133819 z m -1.123373,1.18603 c 0.145866,1.01e-4 0.292703,0.05822 0.408766,0.186472 0.180933,0.199943 0.20047,0.65765 0.03732,0.871247 -0.319324,0.418037 -1.086073,0.14915 -1.086073,-0.380423 0,-0.401918 0.319131,-0.677526 0.640008,-0.677304 z m 2.292994,0.02255 c 0.168103,0.0031 0.331322,0.05875 0.426667,0.164095 0.180934,0.199943 0.200443,0.65765 0.0373,0.87125 -0.339646,0.444632 -1.086079,0.147034 -1.086079,-0.432643 0,-0.1757 0.07042,-0.36615 0.168576,-0.455016 0.112217,-0.101585 0.285435,-0.150764 0.45353,-0.147674 z m -1.12934,1.19647 c 0.517834,0 0.769797,0.549277 0.456506,0.996564 -0.107097,0.152907 -0.23771,0.20587 -0.507235,0.20587 -0.310298,0 -0.382306,-0.04038 -0.507228,-0.281972 -0.246338,-0.476336 0.02255,-0.920482 0.557957,-0.920482 z" />
  </g>
</svg>
