<?xml version="1.0" encoding="UTF-8" standalone="no"?>
<svg
   width="64"
   height="64"
   version="1.1"
   id="svg73"
   sodipodi:docname="accessories-calculator.svg"
   inkscape:version="1.2.2 (b0a8486541, 2022-12-01)"
   xmlns:inkscape="http://www.inkscape.org/namespaces/inkscape"
   xmlns:sodipodi="http://sodipodi.sourceforge.net/DTD/sodipodi-0.dtd"
   xmlns="http://www.w3.org/2000/svg"
   xmlns:svg="http://www.w3.org/2000/svg"
   xmlns:rdf="http://www.w3.org/1999/02/22-rdf-syntax-ns#"
   xmlns:cc="http://creativecommons.org/ns#"
   xmlns:dc="http://purl.org/dc/elements/1.1/">
  <metadata
     id="metadata77">
    <rdf:RDF>
      <cc:Work
         rdf:about="">
        <dc:format>image/svg+xml</dc:format>
        <dc:type
           rdf:resource="http://purl.org/dc/dcmitype/StillImage" />
      </cc:Work>
    </rdf:RDF>
  </metadata>
  <sodipodi:namedview
     pagecolor="#f5f7fa"
     bordercolor="#666666"
     borderopacity="1"
     objecttolerance="10"
     gridtolerance="10"
     guidetolerance="10"
     inkscape:pageopacity="0"
     inkscape:pageshadow="2"
     inkscape:window-width="1280"
     inkscape:window-height="603"
     id="namedview75"
     showgrid="false"
     inkscape:zoom="6.2890625"
     inkscape:cx="51.677019"
     inkscape:cy="37.843478"
     inkscape:window-x="35"
     inkscape:window-y="32"
     inkscape:window-maximized="0"
     inkscape:current-layer="g877"
     inkscape:document-rotation="0"
     inkscape:pagecheckerboard="0"
     inkscape:showpageshadow="2"
     inkscape:deskcolor="#d1d1d1" />
  <defs
     id="defs29">
    <filter
       style="color-interpolation-filters:sRGB;"
       inkscape:label="Blur"
       id="filter1"
       x="-0.091333304"
       y="-0.091333304"
       width="1.1826666"
       height="1.1826666">
      <feGaussianBlur
         stdDeviation="1.3 1.3"
         result="blur"
         id="feGaussianBlur1" />
    </filter>
    <filter
       style="color-interpolation-filters:sRGB"
       inkscape:label="Blur"
       id="filter1-3"
       x="-0.091333304"
       y="-0.091333304"
       width="1.1826666"
       height="1.1826666">
      <feGaussianBlur
         stdDeviation="1.3 1.3"
         result="blur"
         id="feGaussianBlur1-6" />
    </filter>
  </defs>
  <circle
     cx="32.516094"
     cy="31.877844"
     r="0"
     fill="url(#b)"
     stroke-width="1.5715"
     id="circle41"
     style="fill:url(#b)" />
  <g
     aria-label="GZ"
     transform="matrix(1.2212657,0,0,0.81882264,0.4960938,-0.1661539)"
     id="text93"
     style="font-weight:bold;font-size:11.5263px;line-height:1.25;font-family:sans-serif;-inkscape-font-specification:'sans-serif Bold';fill:#f2f2f2;stroke-width:0.288159" />
  <g
     id="g877"
     transform="matrix(1.1,0,0,1.1,-3.1845928,-3.2065454)">
    <rect
       style="fill:none;fill-opacity:1;stroke:#000000;stroke-width:2.72727;stroke-dasharray:none;stroke-opacity:1;filter:url(#filter1);opacity:0.5"
       id="rect1-5"
       width="49.090908"
       height="49.090908"
       x="7.4405394"
       y="7.4604964"
       rx="7.4768682"
       ry="7.477273" />
    <rect
       style="opacity:1;fill:#c4c2c5;stroke-width:2.72727273;stroke-opacity:1;fill-opacity:1;stroke:#1e2430;stroke-dasharray:none"
       id="rect1"
       width="49.090908"
       height="49.090908"
       x="7.4405394"
       y="7.4604964"
       rx="7.4768682"
       ry="7.477273" />
    <rect
       style="fill:#1e2430;fill-opacity:1;stroke:none;stroke-width:2.33829;stroke-dasharray:none;stroke-opacity:1"
       id="rect1-6"
       width="42.089317"
       height="42.089317"
       x="10.941335"
       y="10.961291"
       rx="5.5927272"
       ry="5.5927272" />
    <path
       style="fill:#f4e3cf;fill-opacity:1;stroke:none;stroke-width:0.350929;stroke-dasharray:none;stroke-opacity:0.6"
       d="m 31.276656,46.076936 c -0.552789,-0.253848 -0.676572,-0.440379 -0.9881,-1.489031 -0.409402,-1.378089 -0.748513,-2.06012 -1.526747,-3.070653 -0.833954,-1.082859 -2.456996,-2.717419 -3.335011,-3.358663 -0.351002,-0.256329 -0.625324,-0.478942 -0.609608,-0.494664 0.01574,-0.01639 0.313563,0.0062 0.661873,0.04765 0.348315,0.04199 0.632411,0.05189 0.631331,0.02227 -0.0013,-0.02969 -0.246266,-0.211428 -0.544859,-0.403679 -0.631639,-0.406688 -1.498387,-1.152784 -1.634429,-1.406986 -0.08289,-0.154873 -0.02873,-0.146215 0.446785,0.07147 0.297622,0.136221 0.756321,0.266324 1.019345,0.28905 l 0.47823,0.04152 -0.426411,-0.277861 C 24.874493,35.672734 23.982432,34.69135 23.687344,34.109021 23.316785,33.37776 22.69759,30.164876 22.704505,29.009259 c 0.0023,-0.388888 0.03908,-0.319951 0.417566,0.783315 0.812852,2.369384 1.422643,3.326829 2.267391,3.560076 0.354577,0.09791 0.722897,0.05236 0.722897,-0.08937 0,-0.0455 -0.31305,-0.967978 -0.695671,-2.049929 -1.015195,-2.870731 -1.140418,-3.377412 -1.1419,-4.620406 -0.0014,-1.233693 0.105883,-1.593843 0.84737,-2.842732 0.922854,-1.554374 0.943042,-1.621449 0.941182,-3.127007 -0.0013,-1.092234 -0.0396,-1.458579 -0.216375,-2.073599 -0.118106,-0.410846 -0.196839,-0.764892 -0.174964,-0.786767 0.05854,-0.05855 0.601103,1.478769 0.925866,2.623473 0.415083,1.463061 0.438258,2.008708 0.141348,3.327929 -0.420144,1.866769 -0.316556,3.119917 0.371113,4.489586 0.337148,0.671509 1.476403,2.149606 1.529758,1.984743 0.01598,-0.04928 0.13417,-0.659871 0.262715,-1.35688 0.128551,-0.697009 0.252055,-1.285628 0.27447,-1.308037 0.02242,-0.02246 0.205455,0.376495 0.406763,0.886462 0.201952,0.511605 0.376946,0.84307 0.390406,0.739494 0.01342,-0.10325 0.126909,-1.310386 0.252213,-2.68253 0.125298,-1.372147 0.244634,-2.511627 0.265189,-2.532182 0.0205,-0.02054 0.354787,1.005797 0.742744,2.280779 0.38796,1.274981 0.726701,2.317879 0.752758,2.317557 0.0261,-3.28e-4 0.364913,-1.043376 0.753013,-2.317893 0.388097,-1.274511 0.722336,-2.300593 0.742749,-2.280178 0.03631,0.03631 0.490694,4.752286 0.492988,5.116745 0.0018,0.291972 0.135076,0.07186 0.472564,-0.780678 0.170997,-0.431978 0.328597,-0.767732 0.350206,-0.746122 0.0407,0.0407 0.504999,2.480442 0.504999,2.653613 0,0.195304 0.597767,-0.477487 1.132095,-1.274175 0.731548,-1.090754 0.960623,-1.7697 1.019729,-3.022284 0.04014,-0.850989 0.0096,-1.159491 -0.210501,-2.132048 -0.30757,-1.358238 -0.28682,-1.888873 0.131644,-3.363901 0.324733,-1.144704 0.867301,-2.68203 0.925868,-2.623473 0.02227,0.02183 -0.05687,0.375921 -0.174968,0.786767 -0.176762,0.615021 -0.215046,0.981365 -0.216375,2.0736 -0.0022,1.505557 0.01856,1.572633 0.941178,3.127007 0.742467,1.250547 0.849112,1.608919 0.845905,2.842731 -0.0034,1.265461 -0.138137,1.815429 -1.126544,4.592689 -0.39026,1.096609 -0.709557,2.03131 -0.709557,2.077111 0,0.142222 0.367782,0.187965 0.722895,0.08992 0.845927,-0.233569 1.45188,-1.185522 2.260023,-3.550461 0.382001,-1.117881 0.417109,-1.183857 0.422067,-0.792927 0.01423,1.130105 -0.607067,4.363857 -0.97997,5.099761 -0.294706,0.581609 -1.186372,1.562919 -1.761732,1.93891 l -0.426411,0.27865 0.531843,-0.04968 c 0.298386,-0.02802 0.748052,-0.15925 1.024402,-0.299265 0.443372,-0.224677 0.482615,-0.231045 0.393165,-0.0639 -0.140581,0.26249 -0.998429,1.00367 -1.639477,1.416357 -0.298633,0.192224 -0.543777,0.37386 -0.544854,0.40363 -0.0014,0.02969 0.283048,0.01979 0.631323,-0.02227 0.348322,-0.04193 0.646161,-0.06342 0.66187,-0.04768 0.01577,0.01639 -0.258587,0.2383 -0.609599,0.494666 -0.878016,0.641244 -2.501057,2.275806 -3.335013,3.35867 -0.778232,1.010519 -1.117347,1.692558 -1.526748,3.070653 -0.154481,0.519994 -0.354716,1.028597 -0.44497,1.130208 -0.234843,0.264461 -0.866508,0.53287 -1.253813,0.53287 -0.182411,0 -0.502215,-0.07827 -0.710682,-0.174041 z m -0.01228,-3.180141 c 0.143636,-0.219252 0.138685,-0.246651 -0.09457,-0.523875 -0.194598,-0.23125 -0.273681,-0.269689 -0.377582,-0.183472 -0.169473,0.140611 -0.166044,0.312633 0.01311,0.659126 0.175788,0.339911 0.261942,0.348969 0.459008,0.04824 z m 1.905063,-0.04821 c 0.174035,-0.336528 0.18188,-0.498032 0.03155,-0.648391 -0.08755,-0.08758 -0.162332,-0.06676 -0.331649,0.09231 -0.240701,0.226086 -0.26839,0.376039 -0.120514,0.652355 0.136783,0.255587 0.252367,0.229147 0.420645,-0.09633 z m -2.870158,-5.67315 c 0.138593,-0.05588 0.11039,-0.139561 -0.213363,-0.632952 -0.578598,-0.881758 -2.052396,-2.28439 -2.222046,-2.114744 -0.07355,0.07355 0.232298,0.939665 0.527144,1.492858 0.357781,0.671264 0.706697,1.020406 1.193012,1.193772 0.410459,0.146301 0.487535,0.152919 0.715254,0.06107 z m 3.988528,-0.02227 c 0.505708,-0.140828 0.981899,-0.595703 1.315989,-1.257535 0.223617,-0.442977 0.544564,-1.292903 0.55186,-1.461413 5.61e-4,-0.01299 -0.06037,-0.02372 -0.135429,-0.02372 -0.203767,0 -1.782715,1.581204 -2.175076,2.178178 -0.304347,0.463064 -0.323582,0.527105 -0.175883,0.585572 0.227035,0.0899 0.216166,0.09027 0.618531,-0.02196 z"
       id="path1-0" />
    <rect
       style="opacity:0.5;fill:none;fill-opacity:1;stroke:#000000;stroke-width:2.72727;stroke-dasharray:none;stroke-opacity:1;filter:url(#filter1-3)"
       id="rect1-5-5"
       width="49.090908"
       height="49.090908"
       x="7.4405394"
       y="7.4604964"
       rx="7.4768682"
       ry="7.477273"
       transform="matrix(0.43046721,0,0,0.43046721,34.695898,34.707264)" />
    <rect
       style="fill:#c4c2c5;fill-opacity:1;stroke:#1e2430;stroke-width:1.174;stroke-dasharray:none;stroke-opacity:1"
       id="rect1-3"
       width="21.132023"
       height="21.132023"
       x="37.898808"
       y="37.918762"
       rx="3.2185469"
       ry="3.2187209" />
    <rect
       style="fill:#1e2430;fill-opacity:1;stroke:none;stroke-width:1.00656;stroke-dasharray:none;stroke-opacity:1"
       id="rect1-6-5"
       width="18.118069"
       height="18.118069"
       x="39.405781"
       y="39.425739"
       rx="2.4074855"
       ry="2.4074855" />
    <path
       id="path1"
       style="fill:#f4e3cf;fill-opacity:1;stroke:none;stroke-width:0.181638;stroke-dasharray:none;stroke-dashoffset:2.2;stroke-opacity:0.6"
       d="m 51.778779,43.941045 c -0.187252,-8.1e-5 -0.387675,0.07531 -0.638521,0.222291 -0.596919,0.349749 -1.377579,0.514692 -2.44963,0.514692 -1.071954,0 -1.878654,-0.168464 -2.472018,-0.516184 -0.475801,-0.278826 -0.759862,-0.282522 -1.159175,-0.01336 -1.025175,0.690863 -1.797804,2.90589 -2.024459,5.800365 -0.135901,1.735692 -0.0089,2.650757 0.440096,3.165728 0.216586,0.248286 0.748267,0.206204 1.227806,-0.09847 0.406495,-0.258249 0.890832,-0.828123 1.469484,-1.729077 0.522892,-0.81415 1.155362,-1.082294 2.554068,-1.084584 1.395926,-0.0021 1.944506,0.26195 2.588383,1.251671 1.08027,1.660535 2.078776,2.238636 2.664465,1.542581 0.324469,-0.385605 0.383859,-0.758167 0.368487,-2.309398 -0.028,-2.817903 -0.76459,-5.381404 -1.826034,-6.359807 C 52.239036,44.06691 52.019542,43.9412 51.778779,43.9411 Z m -6.06442,1.660439 h 0.647469 0.647466 v 0.554974 0.554973 h 0.554977 0.554971 v 0.693717 0.693714 h -0.554971 -0.554977 v 0.601222 0.601221 h -0.586297 c -0.322099,0 -0.612073,-0.02889 -0.645977,-0.06265 -0.0339,-0.03389 -0.06262,-0.303056 -0.06262,-0.599727 V 48.098857 H 45.159418 44.604442 V 47.405144 46.71143 h 0.554976 0.55497 v -0.55498 z m 5.278213,0 c 0.5841,0 0.834244,0.647172 0.413247,1.068174 -0.26774,0.267713 -0.512097,0.288754 -0.77577,0.06565 -0.457352,-0.386999 -0.218646,-1.133819 0.362523,-1.133819 z m -1.123373,1.18603 c 0.145866,1.01e-4 0.292703,0.05822 0.408766,0.186472 0.180933,0.199943 0.20047,0.65765 0.03732,0.871247 -0.319324,0.418037 -1.086073,0.14915 -1.086073,-0.380423 0,-0.401918 0.319131,-0.677526 0.640008,-0.677304 z m 2.292994,0.02255 c 0.168103,0.0031 0.331322,0.05875 0.426667,0.164095 0.180934,0.199943 0.200443,0.65765 0.0373,0.87125 -0.339646,0.444632 -1.086079,0.147034 -1.086079,-0.432643 0,-0.1757 0.07042,-0.36615 0.168576,-0.455016 0.112217,-0.101585 0.285435,-0.150764 0.45353,-0.147674 z m -1.12934,1.19647 c 0.517834,0 0.769797,0.549277 0.456506,0.996564 -0.107097,0.152907 -0.23771,0.20587 -0.507235,0.20587 -0.310298,0 -0.382306,-0.04038 -0.507228,-0.281972 -0.246338,-0.476336 0.02255,-0.920482 0.557957,-0.920482 z" />
  </g>
</svg>
