<?xml version="1.0" encoding="UTF-8" standalone="no"?>
<svg
   width="64"
   height="64"
   version="1.1"
   id="svg73"
   sodipodi:docname="accessories-calculator.svg"
   inkscape:version="1.2.2 (b0a8486541, 2022-12-01)"
   xmlns:inkscape="http://www.inkscape.org/namespaces/inkscape"
   xmlns:sodipodi="http://sodipodi.sourceforge.net/DTD/sodipodi-0.dtd"
   xmlns="http://www.w3.org/2000/svg"
   xmlns:svg="http://www.w3.org/2000/svg"
   xmlns:rdf="http://www.w3.org/1999/02/22-rdf-syntax-ns#"
   xmlns:cc="http://creativecommons.org/ns#"
   xmlns:dc="http://purl.org/dc/elements/1.1/">
  <metadata
     id="metadata77">
    <rdf:RDF>
      <cc:Work
         rdf:about="">
        <dc:format>image/svg+xml</dc:format>
        <dc:type
           rdf:resource="http://purl.org/dc/dcmitype/StillImage" />
      </cc:Work>
    </rdf:RDF>
  </metadata>
  <sodipodi:namedview
     pagecolor="#f5f7fa"
     bordercolor="#666666"
     borderopacity="1"
     objecttolerance="10"
     gridtolerance="10"
     guidetolerance="10"
     inkscape:pageopacity="0"
     inkscape:pageshadow="2"
     inkscape:window-width="1280"
     inkscape:window-height="603"
     id="namedview75"
     showgrid="false"
     inkscape:zoom="6.2890625"
     inkscape:cx="51.677019"
     inkscape:cy="37.843478"
     inkscape:window-x="35"
     inkscape:window-y="32"
     inkscape:window-maximized="0"
     inkscape:current-layer="g877"
     inkscape:document-rotation="0"
     inkscape:pagecheckerboard="0"
     inkscape:showpageshadow="2"
     inkscape:deskcolor="#d1d1d1" />
  <defs
     id="defs29">
    <filter
       style="color-interpolation-filters:sRGB;"
       inkscape:label="Blur"
       id="filter1"
       x="-0.091333304"
       y="-0.091333304"
       width="1.1826666"
       height="1.1826666">
      <feGaussianBlur
         stdDeviation="1.3 1.3"
         result="blur"
         id="feGaussianBlur1" />
    </filter>
    <filter
       style="color-interpolation-filters:sRGB"
       inkscape:label="Blur"
       id="filter1-3"
       x="-0.091333304"
       y="-0.091333304"
       width="1.1826666"
       height="1.1826666">
      <feGaussianBlur
         stdDeviation="1.3 1.3"
         result="blur"
         id="feGaussianBlur1-6" />
    </filter>
  </defs>
  <circle
     cx="32.516094"
     cy="31.877844"
     r="0"
     fill="url(#b)"
     stroke-width="1.5715"
     id="circle41"
     style="fill:url(#b)" />
  <g
     aria-label="GZ"
     transform="matrix(1.2212657,0,0,0.81882264,0.4960938,-0.1661539)"
     id="text93"
     style="font-weight:bold;font-size:11.5263px;line-height:1.25;font-family:sans-serif;-inkscape-font-specification:'sans-serif Bold';fill:#f2f2f2;stroke-width:0.288159" />
  <g
     id="g877"
     transform="matrix(1.1,0,0,1.1,-3.1845928,-3.2065454)">
    <rect
       style="fill:none;fill-opacity:1;stroke:#000000;stroke-width:2.72727;stroke-dasharray:none;stroke-opacity:1;filter:url(#filter1);opacity:0.5"
       id="rect1-5"
       width="49.090908"
       height="49.090908"
       x="7.4405394"
       y="7.4604964"
       rx="7.4768682"
       ry="7.477273" />
    <rect
       style="opacity:1;fill:#c4c2c5;stroke-width:2.72727273;stroke-opacity:1;fill-opacity:1;stroke:#1e2430;stroke-dasharray:none"
       id="rect1"
       width="49.090908"
       height="49.090908"
       x="7.4405394"
       y="7.4604964"
       rx="7.4768682"
       ry="7.477273" />
    <rect
       style="fill:#1e2430;fill-opacity:1;stroke:none;stroke-width:2.33829;stroke-dasharray:none;stroke-opacity:1"
       id="rect1-6"
       width="42.089317"
       height="42.089317"
       x="10.941335"
       y="10.961291"
       rx="5.5927272"
       ry="5.5927272" />
    <path
       style="fill:#f4e3cf;stroke:none;stroke-width:0.437628;stroke-dasharray:none;stroke-opacity:0.6;fill-opacity:1"
       d="m 29.69469,46.118729 c -0.494413,-0.109901 -0.521679,-0.332517 -0.05606,-0.457774 l 0.136155,-0.03655 V 45.161068 44.69777 h 2.21054 2.210538 v 0.463298 0.463303 l 0.136156,0.03659 c 0.385096,0.103627 0.445512,0.271204 0.145108,0.402489 -0.129368,0.05653 -0.26628,0.06017 -2.427724,0.06475 -1.259845,0.0027 -2.319462,-0.0018 -2.354702,-0.0096 z m 0.518197,-1.762459 c -0.02666,-0.0266 -0.0291,-1.068162 -0.0027,-1.068162 0.0106,0 0.06097,0.02969 0.112152,0.06627 0.145569,0.103627 0.655282,0.332715 0.990054,0.44493 0.607675,0.203727 1.437407,0.370735 2.194522,0.441851 0.195762,0.01856 0.256289,0.03547 0.256289,0.07218 0,0.04202 -0.221082,0.0491 -1.764423,0.05638 -0.970433,0.0043 -1.774156,-0.0014 -1.786052,-0.01329 z m 3.117981,-0.635191 C 31.947203,43.551195 30.91037,43.169326 30.343434,42.620805 l -0.152168,-0.14726 v -0.617912 c 0,-0.339858 0.01225,-0.617917 0.02743,-0.617917 0.01503,0 0.164006,0.0719 0.330925,0.159785 0.684694,0.360456 1.645097,0.623978 2.68514,0.736762 0.185019,0.0201 0.383496,0.04354 0.441074,0.05205 l 0.104681,0.01608 -0.0087,0.774915 c -0.0075,0.660837 -0.01565,0.775692 -0.05663,0.780201 -0.02641,0.0034 -0.199429,-0.0133 -0.384442,-0.03605 z m -0.0961,-2.086416 c -0.993422,-0.132924 -1.790558,-0.367167 -2.350502,-0.690728 -0.257337,-0.148698 -0.645238,-0.451967 -0.67401,-0.526954 -0.02808,-0.07307 -0.0231,-1.268779 0.005,-1.256282 0.0133,0.0062 0.189901,0.09296 0.392449,0.193491 0.423963,0.2105 0.976692,0.401242 1.505588,0.519533 0.319978,0.07159 0.560862,0.109904 1.473692,0.234589 l 0.176202,0.02412 0.0086,0.776901 0.0087,0.776892 -0.104681,-0.0037 c -0.05758,-0.0019 -0.256076,-0.02319 -0.441089,-0.0483 z m -0.06408,-2.080218 c -1.226663,-0.168793 -2.155869,-0.509625 -2.75155,-1.009286 l -0.211854,-0.177689 -0.0088,-0.64724 c -0.0049,-0.355985 -0.0032,-0.647246 0.0032,-0.647246 0.0067,0 0.147495,0.07106 0.313024,0.157867 0.734964,0.38552 1.538823,0.610864 2.680466,0.751435 l 0.567865,0.06988 0.0087,0.775846 0.0086,0.775853 -0.152737,-0.004 c -0.08401,-0.0022 -0.289702,-0.02227 -0.457095,-0.04565 z m 0.192223,-2.053194 c -0.828397,-0.09449 -1.674933,-0.311705 -2.216854,-0.568869 -0.320957,-0.152307 -0.692324,-0.402035 -0.838536,-0.56387 l -0.11627,-0.128681 v -0.624634 c 0,-0.343544 0.0055,-0.624625 0.01203,-0.624625 0.0066,0 0.09424,0.04946 0.19458,0.109858 0.629929,0.379317 1.834376,0.71599 2.965797,0.828999 l 0.399592,0.03992 0.0086,0.765864 c 0.005,0.421219 -0.0024,0.775349 -0.01602,0.786951 -0.01342,0.01206 -0.190412,0.0022 -0.393043,-0.02041 z m 0.04804,-2.06494 c -1.45638,-0.180652 -2.465617,-0.542773 -3.04812,-1.093678 L 30.191256,34.180361 V 33.56029 c 0,-0.341038 0.0096,-0.620067 0.0218,-0.620067 0.01219,0 0.159762,0.07085 0.328383,0.157402 0.723222,0.371321 1.534319,0.60151 2.549146,0.723448 0.229061,0.02755 0.478005,0.05775 0.553204,0.0672 l 0.136728,0.01714 -0.0086,0.774846 c -0.0096,0.88902 0.03049,0.80461 -0.36097,0.756053 z M 33.218727,33.338198 C 31.904707,33.161899 30.919302,32.79184 30.343426,32.258412 L 30.19126,32.117449 v -0.629814 c 0,-0.346395 0.0041,-0.629809 0.0095,-0.629809 0.005,0 0.174576,0.08369 0.376433,0.185958 0.71329,0.361413 1.608692,0.602731 2.705256,0.729084 0.246443,0.02842 0.459083,0.05842 0.472543,0.06674 0.01342,0.0084 0.02449,0.36027 0.02449,0.782116 v 0.766989 l -0.120117,-0.0039 c -0.06608,-0.0022 -0.264302,-0.02318 -0.440504,-0.04679 z m -0.06408,-2.082816 C 31.894066,31.084579 30.878817,30.69467 30.33306,30.17174 l -0.141801,-0.135883 v -0.405951 -0.405953 h 1.794058 1.794062 v 1.041195 1.041199 l -0.152162,-0.0037 c -0.08369,-0.0022 -0.296345,-0.02332 -0.472549,-0.0472 z M 29.16912,28.755288 c -0.147735,-0.16783 -0.283946,-0.42955 -0.297976,-0.572533 l -0.0095,-0.0961 h 3.123586 3.12359 l -0.0095,0.0961 c -0.01407,0.14299 -0.150257,0.404703 -0.297975,0.572535 l -0.130546,0.148289 h -2.685478 -2.685643 z m -3.014524,-1.309381 v -0.432494 h 5.830697 5.830695 v 0.432494 0.4325 H 31.985303 26.15461 Z m -0.548861,0.150759 c -0.244712,-0.177489 -0.999234,-0.73208 -1.812847,-1.332488 l -0.135174,-0.09975 -2.24e-4,-2.915347 -2.29e-4,-2.91535 1.110551,-0.816938 c 0.6108,-0.449316 1.122242,-0.821744 1.136536,-0.827618 0.01432,-0.0058 0.02604,0.167366 0.02604,0.384973 v 0.395654 l -1.041826,0.396671 c -0.572982,0.218169 -1.037525,0.400935 -1.032305,0.406149 0.0049,0.0052 0.463198,-0.112266 1.01775,-0.261032 0.554554,-0.148788 1.019094,-0.270518 1.032307,-0.270529 0.01327,-9e-6 0.02399,1.5786 0.02399,3.508014 0,1.929416 -0.01129,3.508027 -0.02511,3.508027 -0.02425,0 -0.452553,-0.112622 -1.474372,-0.387732 -0.269678,-0.07261 -0.495638,-0.126696 -0.50214,-0.120184 -0.0061,0.0063 0.441203,0.184453 0.994902,0.395457 l 1.006711,0.383639 v 0.393025 c 0,0.216168 -0.0057,0.393022 -0.01219,0.393022 -0.0068,0 -0.147306,-0.09794 -0.312363,-0.217659 z m 12.434529,-0.16565 c 0,-0.345311 0.0062,-0.386581 0.06151,-0.416261 0.03383,-0.01813 0.40508,-0.163424 0.824945,-0.322908 0.937653,-0.35615 1.157041,-0.443779 1.115791,-0.445662 -0.01732,-8.04e-4 -0.463981,0.113824 -0.9919,0.25473 -0.527932,0.140915 -0.971237,0.256193 -0.98514,0.256193 -0.01361,0 -0.02567,-1.578609 -0.02567,-3.508027 0,-1.929416 0.01051,-3.50803 0.02505,-3.50803 0.0133,0 0.45638,0.115522 0.983916,0.2567 0.527533,0.141184 0.970377,0.252913 0.984111,0.248283 0.0133,-0.0046 -0.429028,-0.180927 -0.983916,-0.391777 l -1.008713,-0.383352 v -0.396203 c 0,-0.217905 0.01206,-0.391397 0.0266,-0.385521 0.01423,0.0058 0.526147,0.3783 1.136882,0.827615 l 1.11041,0.816938 3.98e-4,2.910741 3.99e-4,2.910734 -0.07623,0.05996 c -0.177535,0.139649 -2.170764,1.599165 -2.183944,1.599165 -0.0071,0 -0.01423,-0.172488 -0.01423,-0.383315 z m -11.885641,-4.18193 v -3.508027 h 5.830698 5.830696 v 3.508027 3.50803 h -5.830696 -5.830698 z m 0,-4.19682 v -0.432495 h 5.830698 5.830696 v 0.432495 0.432499 h -5.830696 -5.830698 z m 3.972562,-0.897028 v -0.272314 h 1.858136 1.858134 v 0.272311 0.272314 h -1.858134 -1.858137 z"
       id="path1-7" />
    <rect
       style="opacity:0.5;fill:none;fill-opacity:1;stroke:#000000;stroke-width:2.72727;stroke-dasharray:none;stroke-opacity:1;filter:url(#filter1-3)"
       id="rect1-5-5"
       width="49.090908"
       height="49.090908"
       x="7.4405394"
       y="7.4604964"
       rx="7.4768682"
       ry="7.477273"
       transform="matrix(0.43046721,0,0,0.43046721,34.695898,34.707264)" />
    <rect
       style="fill:#c4c2c5;fill-opacity:1;stroke:#1e2430;stroke-width:1.174;stroke-dasharray:none;stroke-opacity:1"
       id="rect1-3"
       width="21.132023"
       height="21.132023"
       x="37.898808"
       y="37.918762"
       rx="3.2185469"
       ry="3.2187209" />
    <rect
       style="fill:#1e2430;fill-opacity:1;stroke:none;stroke-width:1.00656;stroke-dasharray:none;stroke-opacity:1"
       id="rect1-6-5"
       width="18.118069"
       height="18.118069"
       x="39.405781"
       y="39.425739"
       rx="2.4074855"
       ry="2.4074855" />
    <path
       id="path1"
       style="fill:#f4e3cf;fill-opacity:1;stroke:none;stroke-width:0.181638;stroke-dasharray:none;stroke-dashoffset:2.2;stroke-opacity:0.6"
       d="m 51.778779,43.941045 c -0.187252,-8.1e-5 -0.387675,0.07531 -0.638521,0.222291 -0.596919,0.349749 -1.377579,0.514692 -2.44963,0.514692 -1.071954,0 -1.878654,-0.168464 -2.472018,-0.516184 -0.475801,-0.278826 -0.759862,-0.282522 -1.159175,-0.01336 -1.025175,0.690863 -1.797804,2.90589 -2.024459,5.800365 -0.135901,1.735692 -0.0089,2.650757 0.440096,3.165728 0.216586,0.248286 0.748267,0.206204 1.227806,-0.09847 0.406495,-0.258249 0.890832,-0.828123 1.469484,-1.729077 0.522892,-0.81415 1.155362,-1.082294 2.554068,-1.084584 1.395926,-0.0021 1.944506,0.26195 2.588383,1.251671 1.08027,1.660535 2.078776,2.238636 2.664465,1.542581 0.324469,-0.385605 0.383859,-0.758167 0.368487,-2.309398 -0.028,-2.817903 -0.76459,-5.381404 -1.826034,-6.359807 C 52.239036,44.06691 52.019542,43.9412 51.778779,43.9411 Z m -6.06442,1.660439 h 0.647469 0.647466 v 0.554974 0.554973 h 0.554977 0.554971 v 0.693717 0.693714 h -0.554971 -0.554977 v 0.601222 0.601221 h -0.586297 c -0.322099,0 -0.612073,-0.02889 -0.645977,-0.06265 -0.0339,-0.03389 -0.06262,-0.303056 -0.06262,-0.599727 V 48.098857 H 45.159418 44.604442 V 47.405144 46.71143 h 0.554976 0.55497 v -0.55498 z m 5.278213,0 c 0.5841,0 0.834244,0.647172 0.413247,1.068174 -0.26774,0.267713 -0.512097,0.288754 -0.77577,0.06565 -0.457352,-0.386999 -0.218646,-1.133819 0.362523,-1.133819 z m -1.123373,1.18603 c 0.145866,1.01e-4 0.292703,0.05822 0.408766,0.186472 0.180933,0.199943 0.20047,0.65765 0.03732,0.871247 -0.319324,0.418037 -1.086073,0.14915 -1.086073,-0.380423 0,-0.401918 0.319131,-0.677526 0.640008,-0.677304 z m 2.292994,0.02255 c 0.168103,0.0031 0.331322,0.05875 0.426667,0.164095 0.180934,0.199943 0.200443,0.65765 0.0373,0.87125 -0.339646,0.444632 -1.086079,0.147034 -1.086079,-0.432643 0,-0.1757 0.07042,-0.36615 0.168576,-0.455016 0.112217,-0.101585 0.285435,-0.150764 0.45353,-0.147674 z m -1.12934,1.19647 c 0.517834,0 0.769797,0.549277 0.456506,0.996564 -0.107097,0.152907 -0.23771,0.20587 -0.507235,0.20587 -0.310298,0 -0.382306,-0.04038 -0.507228,-0.281972 -0.246338,-0.476336 0.02255,-0.920482 0.557957,-0.920482 z" />
  </g>
</svg>
