<?xml version="1.0" encoding="UTF-8" standalone="no"?>
<svg
   width="64"
   height="64"
   version="1.1"
   id="svg73"
   sodipodi:docname="accessories-calculator.svg"
   inkscape:version="1.2.2 (b0a8486541, 2022-12-01)"
   xmlns:inkscape="http://www.inkscape.org/namespaces/inkscape"
   xmlns:sodipodi="http://sodipodi.sourceforge.net/DTD/sodipodi-0.dtd"
   xmlns="http://www.w3.org/2000/svg"
   xmlns:svg="http://www.w3.org/2000/svg"
   xmlns:rdf="http://www.w3.org/1999/02/22-rdf-syntax-ns#"
   xmlns:cc="http://creativecommons.org/ns#"
   xmlns:dc="http://purl.org/dc/elements/1.1/">
  <metadata
     id="metadata77">
    <rdf:RDF>
      <cc:Work
         rdf:about="">
        <dc:format>image/svg+xml</dc:format>
        <dc:type
           rdf:resource="http://purl.org/dc/dcmitype/StillImage" />
      </cc:Work>
    </rdf:RDF>
  </metadata>
  <sodipodi:namedview
     pagecolor="#f5f7fa"
     bordercolor="#666666"
     borderopacity="1"
     objecttolerance="10"
     gridtolerance="10"
     guidetolerance="10"
     inkscape:pageopacity="0"
     inkscape:pageshadow="2"
     inkscape:window-width="1280"
     inkscape:window-height="603"
     id="namedview75"
     showgrid="false"
     inkscape:zoom="6.2890625"
     inkscape:cx="51.677019"
     inkscape:cy="37.843478"
     inkscape:window-x="35"
     inkscape:window-y="32"
     inkscape:window-maximized="0"
     inkscape:current-layer="g877"
     inkscape:document-rotation="0"
     inkscape:pagecheckerboard="0"
     inkscape:showpageshadow="2"
     inkscape:deskcolor="#d1d1d1" />
  <defs
     id="defs29">
    <filter
       style="color-interpolation-filters:sRGB;"
       inkscape:label="Blur"
       id="filter1"
       x="-0.091333304"
       y="-0.091333304"
       width="1.1826666"
       height="1.1826666">
      <feGaussianBlur
         stdDeviation="1.3 1.3"
         result="blur"
         id="feGaussianBlur1" />
    </filter>
    <filter
       style="color-interpolation-filters:sRGB"
       inkscape:label="Blur"
       id="filter1-3"
       x="-0.091333304"
       y="-0.091333304"
       width="1.1826666"
       height="1.1826666">
      <feGaussianBlur
         stdDeviation="1.3 1.3"
         result="blur"
         id="feGaussianBlur1-6" />
    </filter>
  </defs>
  <circle
     cx="32.516094"
     cy="31.877844"
     r="0"
     fill="url(#b)"
     stroke-width="1.5715"
     id="circle41"
     style="fill:url(#b)" />
  <g
     aria-label="GZ"
     transform="matrix(1.2212657,0,0,0.81882264,0.4960938,-0.1661539)"
     id="text93"
     style="font-weight:bold;font-size:11.5263px;line-height:1.25;font-family:sans-serif;-inkscape-font-specification:'sans-serif Bold';fill:#f2f2f2;stroke-width:0.288159" />
  <g
     id="g877"
     transform="matrix(1.1,0,0,1.1,-3.1845928,-3.2065454)">
    <rect
       style="fill:none;fill-opacity:1;stroke:#000000;stroke-width:2.72727;stroke-dasharray:none;stroke-opacity:1;filter:url(#filter1);opacity:0.5"
       id="rect1-5"
       width="49.090908"
       height="49.090908"
       x="7.4405394"
       y="7.4604964"
       rx="7.4768682"
       ry="7.477273" />
    <rect
       style="opacity:1;fill:#c4c2c5;stroke-width:2.72727273;stroke-opacity:1;fill-opacity:1;stroke:#1e2430;stroke-dasharray:none"
       id="rect1"
       width="49.090908"
       height="49.090908"
       x="7.4405394"
       y="7.4604964"
       rx="7.4768682"
       ry="7.477273" />
    <rect
       style="fill:#1e2430;fill-opacity:1;stroke:none;stroke-width:2.33829;stroke-dasharray:none;stroke-opacity:1"
       id="rect1-6"
       width="42.089317"
       height="42.089317"
       x="10.941335"
       y="10.961291"
       rx="5.5927272"
       ry="5.5927272" />
    <path
       style="fill:#f4e3cf;fill-opacity:1;stroke:none;stroke-width:0.416787;stroke-dasharray:none;stroke-opacity:0.6"
       d="m 29.407563,45.879317 0.393291,-0.418641 -1.014319,-0.206015 c -2.290246,-0.465138 -4.503072,-1.717764 -6.556575,-3.71151 -0.672184,-0.652621 -1.375743,-1.173542 -1.673227,-1.238884 -0.706546,-0.155211 -0.645917,-0.432519 0.09455,-0.432519 0.33434,0 0.607887,-0.03754 0.607887,-0.08338 0,-0.0458 -0.306037,-0.487656 -0.680087,-0.981868 -1.679546,-2.219055 -2.442958,-4.667042 -2.452324,-7.863747 -0.0045,-1.492307 -0.07795,-2.225427 -0.254368,-2.534013 -0.287088,-0.502211 -0.319287,-0.69472 -0.116194,-0.69472 0.07937,0 0.248901,0.19539 0.376712,0.434197 0.127812,0.238817 0.281693,0.434211 0.341958,0.434211 0.06027,0 0.203175,-0.453113 0.317562,-1.006916 0.422436,-2.04524 1.755086,-4.280618 3.831609,-6.427121 0.490029,-0.506533 0.93897,-1.112242 0.997644,-1.346025 0.05864,-0.233767 0.170898,-0.425041 0.249405,-0.425041 0.0785,0 0.07004,0.253488 -0.01886,0.563314 -0.280861,0.97934 -0.205128,1.046387 0.5766,0.510478 1.183988,-0.811654 2.436133,-1.386259 4.022959,-1.846108 0.814619,-0.236059 1.710056,-0.547591 1.989861,-0.692284 0.484233,-0.250416 0.504384,-0.246439 0.418386,0.08246 -0.04972,0.190029 -0.159073,0.38797 -0.243068,0.439877 -0.417991,0.258327 -0.02623,0.332648 1.19331,0.226365 2.405656,-0.209644 3.841939,0.07543 6.209097,1.232136 2.057295,1.005353 4.059782,2.455091 4.663181,3.375983 0.174473,0.266315 0.519882,0.477836 0.895219,0.54824 0.895953,0.168087 0.981621,0.478255 0.1091,0.395055 -0.394683,-0.03765 -0.717589,-0.05303 -0.717589,-0.03413 0,0.01886 0.391903,0.666141 0.87091,1.438456 0.587359,0.94701 1.018545,1.926949 1.324343,3.009754 0.29013,1.027381 0.613656,1.777541 0.898386,2.083172 0.473536,0.50829 0.324173,0.64793 -0.238114,0.222628 -0.185483,-0.140259 -0.395757,-0.257489 -0.467402,-0.260523 -0.07165,-0.0026 -0.131644,0.756503 -0.133251,1.687868 -0.0062,3.442831 -1.017771,6.034052 -3.46367,8.871856 -0.768272,0.891376 -1.444309,1.809717 -1.502288,2.040757 -0.118006,0.470075 -0.415146,0.572085 -0.415146,0.142466 0,-0.234032 -0.08857,-0.218478 -0.564459,0.09886 -2.146068,1.431384 -4.873595,2.262838 -7.423124,2.262838 -0.853629,0 -1.646324,0.101894 -2.025866,0.260472 -0.83561,0.349139 -0.882182,0.331683 -0.422031,-0.158145 z m 4.443488,-3.836431 c 1.484878,-0.310687 3.715289,-1.39534 4.797429,-2.332997 1.113549,-0.96487 2.3325,-2.815066 2.870982,-4.357759 1.872994,-5.365872 -1.033319,-11.34129 -6.362756,-13.081897 -1.834772,-0.599238 -3.105938,-0.701143 -4.861284,-0.3897 -3.723791,0.660693 -6.744673,3.305979 -7.935479,6.948852 -0.385329,1.178796 -0.459625,1.722347 -0.464783,3.40041 -0.0055,1.731267 0.05307,2.153298 0.438413,3.168201 0.986066,2.59715 2.652406,4.528371 4.948216,5.734778 2.145201,1.12727 4.182428,1.409507 6.569262,0.910112 z M 29.161664,39.97368 c -0.57315,-0.131783 -1.315636,-0.310805 -1.649972,-0.39785 l -0.607885,-0.15825 -0.15307,-1.411861 c -0.178422,-1.645653 -0.101206,-1.954944 0.488137,-1.954944 0.466552,0 0.541284,0.06592 1.302363,1.149302 1.015463,1.445445 3.093332,1.929313 4.779617,1.112993 0.915249,-0.443083 1.282717,-0.906665 1.427916,-1.801414 0.20296,-1.250708 -0.788323,-2.347452 -4.175409,-4.619633 -2.618251,-1.756407 -3.410484,-2.7565 -3.407335,-4.301287 0.0036,-1.712539 1.236301,-3.376661 2.928674,-3.953312 1.072917,-0.365576 3.2606,-0.329051 5.137146,0.08572 0.854964,0.189007 1.608451,0.402247 1.674412,0.473877 0.06596,0.07166 0.174566,0.814089 0.241362,1.649934 l 0.121408,1.519703 -0.666889,-0.0092 c -0.600821,-0.0091 -0.718548,-0.09026 -1.187953,-0.824987 -1.320664,-2.067147 -4.442229,-2.376439 -5.394722,-0.534509 -0.582676,1.126768 0.117367,2.172682 2.545574,3.803327 4.040825,2.713578 4.935177,3.810557 4.816667,5.907949 -0.05183,0.917609 -0.17648,1.344578 -0.587525,2.012401 -0.561129,0.911736 -1.785867,1.847283 -2.825486,2.158345 -1.035246,0.309762 -3.646279,0.360731 -4.807025,0.09392 z"
       id="path2363" />
    <rect
       style="opacity:0.5;fill:none;fill-opacity:1;stroke:#000000;stroke-width:2.72727;stroke-dasharray:none;stroke-opacity:1;filter:url(#filter1-3)"
       id="rect1-5-5"
       width="49.090908"
       height="49.090908"
       x="7.4405394"
       y="7.4604964"
       rx="7.4768682"
       ry="7.477273"
       transform="matrix(0.43046721,0,0,0.43046721,34.695898,34.707264)" />
    <rect
       style="fill:#c4c2c5;fill-opacity:1;stroke:#1e2430;stroke-width:1.174;stroke-dasharray:none;stroke-opacity:1"
       id="rect1-3"
       width="21.132023"
       height="21.132023"
       x="37.898808"
       y="37.918762"
       rx="3.2185469"
       ry="3.2187209" />
    <rect
       style="fill:#1e2430;fill-opacity:1;stroke:none;stroke-width:1.00656;stroke-dasharray:none;stroke-opacity:1"
       id="rect1-6-5"
       width="18.118069"
       height="18.118069"
       x="39.405781"
       y="39.425739"
       rx="2.4074855"
       ry="2.4074855" />
    <path
       id="path1"
       style="fill:#f4e3cf;fill-opacity:1;stroke:none;stroke-width:0.181638;stroke-dasharray:none;stroke-dashoffset:2.2;stroke-opacity:0.6"
       d="m 51.778779,43.941045 c -0.187252,-8.1e-5 -0.387675,0.07531 -0.638521,0.222291 -0.596919,0.349749 -1.377579,0.514692 -2.44963,0.514692 -1.071954,0 -1.878654,-0.168464 -2.472018,-0.516184 -0.475801,-0.278826 -0.759862,-0.282522 -1.159175,-0.01336 -1.025175,0.690863 -1.797804,2.90589 -2.024459,5.800365 -0.135901,1.735692 -0.0089,2.650757 0.440096,3.165728 0.216586,0.248286 0.748267,0.206204 1.227806,-0.09847 0.406495,-0.258249 0.890832,-0.828123 1.469484,-1.729077 0.522892,-0.81415 1.155362,-1.082294 2.554068,-1.084584 1.395926,-0.0021 1.944506,0.26195 2.588383,1.251671 1.08027,1.660535 2.078776,2.238636 2.664465,1.542581 0.324469,-0.385605 0.383859,-0.758167 0.368487,-2.309398 -0.028,-2.817903 -0.76459,-5.381404 -1.826034,-6.359807 C 52.239036,44.06691 52.019542,43.9412 51.778779,43.9411 Z m -6.06442,1.660439 h 0.647469 0.647466 v 0.554974 0.554973 h 0.554977 0.554971 v 0.693717 0.693714 h -0.554971 -0.554977 v 0.601222 0.601221 h -0.586297 c -0.322099,0 -0.612073,-0.02889 -0.645977,-0.06265 -0.0339,-0.03389 -0.06262,-0.303056 -0.06262,-0.599727 V 48.098857 H 45.159418 44.604442 V 47.405144 46.71143 h 0.554976 0.55497 v -0.55498 z m 5.278213,0 c 0.5841,0 0.834244,0.647172 0.413247,1.068174 -0.26774,0.267713 -0.512097,0.288754 -0.77577,0.06565 -0.457352,-0.386999 -0.218646,-1.133819 0.362523,-1.133819 z m -1.123373,1.18603 c 0.145866,1.01e-4 0.292703,0.05822 0.408766,0.186472 0.180933,0.199943 0.20047,0.65765 0.03732,0.871247 -0.319324,0.418037 -1.086073,0.14915 -1.086073,-0.380423 0,-0.401918 0.319131,-0.677526 0.640008,-0.677304 z m 2.292994,0.02255 c 0.168103,0.0031 0.331322,0.05875 0.426667,0.164095 0.180934,0.199943 0.200443,0.65765 0.0373,0.87125 -0.339646,0.444632 -1.086079,0.147034 -1.086079,-0.432643 0,-0.1757 0.07042,-0.36615 0.168576,-0.455016 0.112217,-0.101585 0.285435,-0.150764 0.45353,-0.147674 z m -1.12934,1.19647 c 0.517834,0 0.769797,0.549277 0.456506,0.996564 -0.107097,0.152907 -0.23771,0.20587 -0.507235,0.20587 -0.310298,0 -0.382306,-0.04038 -0.507228,-0.281972 -0.246338,-0.476336 0.02255,-0.920482 0.557957,-0.920482 z" />
  </g>
</svg>
