<?xml version="1.0" encoding="UTF-8" standalone="no"?>
<svg
   width="64"
   height="64"
   version="1.1"
   id="svg73"
   sodipodi:docname="accessories-calculator.svg"
   inkscape:version="1.2.2 (b0a8486541, 2022-12-01)"
   xmlns:inkscape="http://www.inkscape.org/namespaces/inkscape"
   xmlns:sodipodi="http://sodipodi.sourceforge.net/DTD/sodipodi-0.dtd"
   xmlns="http://www.w3.org/2000/svg"
   xmlns:svg="http://www.w3.org/2000/svg"
   xmlns:rdf="http://www.w3.org/1999/02/22-rdf-syntax-ns#"
   xmlns:cc="http://creativecommons.org/ns#"
   xmlns:dc="http://purl.org/dc/elements/1.1/">
  <metadata
     id="metadata77">
    <rdf:RDF>
      <cc:Work
         rdf:about="">
        <dc:format>image/svg+xml</dc:format>
        <dc:type
           rdf:resource="http://purl.org/dc/dcmitype/StillImage" />
      </cc:Work>
    </rdf:RDF>
  </metadata>
  <sodipodi:namedview
     pagecolor="#f5f7fa"
     bordercolor="#666666"
     borderopacity="1"
     objecttolerance="10"
     gridtolerance="10"
     guidetolerance="10"
     inkscape:pageopacity="0"
     inkscape:pageshadow="2"
     inkscape:window-width="1280"
     inkscape:window-height="603"
     id="namedview75"
     showgrid="false"
     inkscape:zoom="6.2890625"
     inkscape:cx="51.677019"
     inkscape:cy="37.843478"
     inkscape:window-x="35"
     inkscape:window-y="32"
     inkscape:window-maximized="0"
     inkscape:current-layer="g877"
     inkscape:document-rotation="0"
     inkscape:pagecheckerboard="0"
     inkscape:showpageshadow="2"
     inkscape:deskcolor="#d1d1d1" />
  <defs
     id="defs29">
    <filter
       style="color-interpolation-filters:sRGB;"
       inkscape:label="Blur"
       id="filter1"
       x="-0.091333304"
       y="-0.091333304"
       width="1.1826666"
       height="1.1826666">
      <feGaussianBlur
         stdDeviation="1.3 1.3"
         result="blur"
         id="feGaussianBlur1" />
    </filter>
    <filter
       style="color-interpolation-filters:sRGB"
       inkscape:label="Blur"
       id="filter1-3"
       x="-0.091333304"
       y="-0.091333304"
       width="1.1826666"
       height="1.1826666">
      <feGaussianBlur
         stdDeviation="1.3 1.3"
         result="blur"
         id="feGaussianBlur1-6" />
    </filter>
  </defs>
  <circle
     cx="32.516094"
     cy="31.877844"
     r="0"
     fill="url(#b)"
     stroke-width="1.5715"
     id="circle41"
     style="fill:url(#b)" />
  <g
     aria-label="GZ"
     transform="matrix(1.2212657,0,0,0.81882264,0.4960938,-0.1661539)"
     id="text93"
     style="font-weight:bold;font-size:11.5263px;line-height:1.25;font-family:sans-serif;-inkscape-font-specification:'sans-serif Bold';fill:#f2f2f2;stroke-width:0.288159" />
  <g
     id="g877"
     transform="matrix(1.1,0,0,1.1,-3.1845928,-3.2065454)">
    <rect
       style="fill:none;fill-opacity:1;stroke:#000000;stroke-width:2.72727;stroke-dasharray:none;stroke-opacity:1;filter:url(#filter1);opacity:0.5"
       id="rect1-5"
       width="49.090908"
       height="49.090908"
       x="7.4405394"
       y="7.4604964"
       rx="7.4768682"
       ry="7.477273" />
    <rect
       style="opacity:1;fill:#c4c2c5;stroke-width:2.72727273;stroke-opacity:1;fill-opacity:1;stroke:#1e2430;stroke-dasharray:none"
       id="rect1"
       width="49.090908"
       height="49.090908"
       x="7.4405394"
       y="7.4604964"
       rx="7.4768682"
       ry="7.477273" />
    <rect
       style="fill:#1e2430;fill-opacity:1;stroke:none;stroke-width:2.33829;stroke-dasharray:none;stroke-opacity:1"
       id="rect1-6"
       width="42.089317"
       height="42.089317"
       x="10.941335"
       y="10.961291"
       rx="5.5927272"
       ry="5.5927272" />
    <path
       style="fill:#f4e3cf;fill-opacity:1;stroke:none;stroke-width:0.413556;stroke-dasharray:none;stroke-opacity:0.6"
       d="m 29.184146,20.810127 c -2.660216,0 -5.462075,0.691778 -8.341647,2.058256 -2.343892,1.112275 -3.346069,2.029957 -2.791836,2.557654 0.195507,0.186151 0.06033,0.224905 3.34343,-0.993154 2.243695,-0.832427 5.003244,-1.534724 6.495004,-1.654787 2.3034,-0.185383 5.046771,0.391083 9.903326,2.079419 1.743997,0.606284 3.749599,1.243114 4.456494,1.41496 1.511828,0.367523 1.671035,0.31052 2.931495,0.314593 l 0.890169,0.0014 v -0.720885 c 0,-0.822266 -0.102698,-0.756151 -1.192059,-0.756151 -2.42862,0 -3.034428,-0.372692 -6.689681,-1.914359 -3.915107,-1.651292 -6.286902,-2.38696 -9.004695,-2.38696 z m -1.633626,5.786816 c -0.412911,0.01516 -0.781398,0.0532 -1.077795,0.114267 -1.367048,0.281587 -3.198124,1.304844 -4.321071,2.343227 -1.740607,1.609534 -3.708189,4.618946 -3.515538,5.377702 0.08675,0.341678 0.178917,0.364794 1.712626,0.428862 0.890338,0.03718 2.634017,0.238956 4.000833,0.447203 l 2.515332,0.376666 v 1.059458 c -0.428708,1.941742 -0.122834,2.990353 -0.04655,3.697524 0.285694,2.559401 0.289411,2.837964 0.950831,2.745282 1.021753,-1.660966 0.994214,-4.846838 1.001616,-6.682629 l 1.042531,1.010082 c 2.856317,2.519324 3.914134,2.700183 6.363801,3.878104 2.026141,0.825819 3.763272,1.191734 5.720512,1.049574 1.203155,0 2.722214,-1.333497 2.721301,-2.875065 -4.95e-4,-1.188686 -0.335612,-2.192692 -1.149745,-2.574582 -1.496689,-0.702055 -3.155809,0.13053 -3.155809,1.688646 0,1.529242 1.473879,2.37888 2.451854,1.412136 0.407956,-0.403262 0.508357,-1.083531 0.218633,-1.492554 -0.128551,-0.181617 -0.142374,-0.15125 -0.06209,0.129788 0.277048,0.969839 -0.478425,1.641833 -1.347251,1.197712 -0.907991,-0.464145 -0.736044,-1.955137 0.253948,-2.200741 0.489007,-0.121316 1.345445,0.662191 1.666071,1.309155 0.172773,0.348646 0.179144,0.56099 0.03095,1.049583 -0.485826,1.602891 -2.668915,1.611055 -5.954689,0.02629 -0.796329,-0.383492 -1.86434,-0.962662 -2.372727,-1.287472 -0.876226,-0.559827 -2.01726,-1.246225 -3.546576,-2.574585 -0.810154,-0.703705 -0.855996,-0.607282 1.25696,-0.948012 0.607474,-0.09795 2.383745,-0.608041 3.945809,-1.132816 2.775094,-0.932285 2.88052,-1.151793 4.576406,-1.163852 0.954612,-0.0068 -0.631527,-0.0667 0.952246,0.0014 l 2.965357,0.122697 V 31.727752 30.184413 L 41.91035,30.099793 C 37.11653,29.975349 39.453491,29.864791 34.50543,27.975247 33.560599,27.614439 32.553399,27.178266 31.892758,27.007484 30.721192,26.704622 28.789257,26.551512 27.55053,26.596962 Z m 5.613296,2.458904 c 0.05745,0 0.875146,0.458899 2.193686,1.017137 1.318542,0.558234 2.568525,1.055867 2.776316,1.107419 0.207778,0.05156 0.376673,0.149741 0.376673,0.215844 0,0.06612 -0.798399,0.512544 -1.774705,0.991744 -1.990997,0.977241 -3.171769,1.386854 -5.095561,1.481267 l -0.474004,0.01972 0.512096,-0.399236 c 0.282095,-0.219769 0.708001,-0.727366 0.9466,-1.128588 0.378546,-0.636538 0.434506,-0.893121 0.434506,-2.015933 0,-0.707719 0.04694,-1.28941 0.104399,-1.289409 z m -8.302145,0.339985 c 0.236466,-0.0443 0.234784,0.318325 0.236998,1.042529 0.0044,1.425178 0.350598,2.201772 1.345836,3.018963 l 0.650352,0.533257 -3.346252,-0.280737 c -1.62529,-0.153252 -2.887428,-0.311937 -2.931502,-0.355504 -0.157964,-0.156143 1.003494,-1.349384 2.281153,-2.561886 0.951313,-0.902795 1.526939,-1.352332 1.763415,-1.396622 z"
       id="path3-8" />
    <rect
       style="opacity:0.5;fill:none;fill-opacity:1;stroke:#000000;stroke-width:2.72727;stroke-dasharray:none;stroke-opacity:1;filter:url(#filter1-3)"
       id="rect1-5-5"
       width="49.090908"
       height="49.090908"
       x="7.4405394"
       y="7.4604964"
       rx="7.4768682"
       ry="7.477273"
       transform="matrix(0.43046721,0,0,0.43046721,34.695898,34.707264)" />
    <rect
       style="fill:#c4c2c5;fill-opacity:1;stroke:#1e2430;stroke-width:1.174;stroke-dasharray:none;stroke-opacity:1"
       id="rect1-3"
       width="21.132023"
       height="21.132023"
       x="37.898808"
       y="37.918762"
       rx="3.2185469"
       ry="3.2187209" />
    <rect
       style="fill:#1e2430;fill-opacity:1;stroke:none;stroke-width:1.00656;stroke-dasharray:none;stroke-opacity:1"
       id="rect1-6-5"
       width="18.118069"
       height="18.118069"
       x="39.405781"
       y="39.425739"
       rx="2.4074855"
       ry="2.4074855" />
    <path
       id="path1"
       style="fill:#f4e3cf;fill-opacity:1;stroke:none;stroke-width:0.181638;stroke-dasharray:none;stroke-dashoffset:2.2;stroke-opacity:0.6"
       d="m 51.778779,43.941045 c -0.187252,-8.1e-5 -0.387675,0.07531 -0.638521,0.222291 -0.596919,0.349749 -1.377579,0.514692 -2.44963,0.514692 -1.071954,0 -1.878654,-0.168464 -2.472018,-0.516184 -0.475801,-0.278826 -0.759862,-0.282522 -1.159175,-0.01336 -1.025175,0.690863 -1.797804,2.90589 -2.024459,5.800365 -0.135901,1.735692 -0.0089,2.650757 0.440096,3.165728 0.216586,0.248286 0.748267,0.206204 1.227806,-0.09847 0.406495,-0.258249 0.890832,-0.828123 1.469484,-1.729077 0.522892,-0.81415 1.155362,-1.082294 2.554068,-1.084584 1.395926,-0.0021 1.944506,0.26195 2.588383,1.251671 1.08027,1.660535 2.078776,2.238636 2.664465,1.542581 0.324469,-0.385605 0.383859,-0.758167 0.368487,-2.309398 -0.028,-2.817903 -0.76459,-5.381404 -1.826034,-6.359807 C 52.239036,44.06691 52.019542,43.9412 51.778779,43.9411 Z m -6.06442,1.660439 h 0.647469 0.647466 v 0.554974 0.554973 h 0.554977 0.554971 v 0.693717 0.693714 h -0.554971 -0.554977 v 0.601222 0.601221 h -0.586297 c -0.322099,0 -0.612073,-0.02889 -0.645977,-0.06265 -0.0339,-0.03389 -0.06262,-0.303056 -0.06262,-0.599727 V 48.098857 H 45.159418 44.604442 V 47.405144 46.71143 h 0.554976 0.55497 v -0.55498 z m 5.278213,0 c 0.5841,0 0.834244,0.647172 0.413247,1.068174 -0.26774,0.267713 -0.512097,0.288754 -0.77577,0.06565 -0.457352,-0.386999 -0.218646,-1.133819 0.362523,-1.133819 z m -1.123373,1.18603 c 0.145866,1.01e-4 0.292703,0.05822 0.408766,0.186472 0.180933,0.199943 0.20047,0.65765 0.03732,0.871247 -0.319324,0.418037 -1.086073,0.14915 -1.086073,-0.380423 0,-0.401918 0.319131,-0.677526 0.640008,-0.677304 z m 2.292994,0.02255 c 0.168103,0.0031 0.331322,0.05875 0.426667,0.164095 0.180934,0.199943 0.200443,0.65765 0.0373,0.87125 -0.339646,0.444632 -1.086079,0.147034 -1.086079,-0.432643 0,-0.1757 0.07042,-0.36615 0.168576,-0.455016 0.112217,-0.101585 0.285435,-0.150764 0.45353,-0.147674 z m -1.12934,1.19647 c 0.517834,0 0.769797,0.549277 0.456506,0.996564 -0.107097,0.152907 -0.23771,0.20587 -0.507235,0.20587 -0.310298,0 -0.382306,-0.04038 -0.507228,-0.281972 -0.246338,-0.476336 0.02255,-0.920482 0.557957,-0.920482 z" />
  </g>
</svg>
