<?xml version="1.0" encoding="UTF-8" standalone="no"?>
<svg
   width="64"
   height="64"
   version="1.1"
   id="svg73"
   sodipodi:docname="steam_icon_200510.svg"
   inkscape:version="1.2.2 (b0a8486541, 2022-12-01)"
   xmlns:inkscape="http://www.inkscape.org/namespaces/inkscape"
   xmlns:sodipodi="http://sodipodi.sourceforge.net/DTD/sodipodi-0.dtd"
   xmlns="http://www.w3.org/2000/svg"
   xmlns:svg="http://www.w3.org/2000/svg"
   xmlns:rdf="http://www.w3.org/1999/02/22-rdf-syntax-ns#"
   xmlns:cc="http://creativecommons.org/ns#"
   xmlns:dc="http://purl.org/dc/elements/1.1/">
  <metadata
     id="metadata77">
    <rdf:RDF>
      <cc:Work
         rdf:about="">
        <dc:format>image/svg+xml</dc:format>
        <dc:type
           rdf:resource="http://purl.org/dc/dcmitype/StillImage" />
      </cc:Work>
    </rdf:RDF>
  </metadata>
  <sodipodi:namedview
     pagecolor="#f5f7fa"
     bordercolor="#666666"
     borderopacity="1"
     objecttolerance="10"
     gridtolerance="10"
     guidetolerance="10"
     inkscape:pageopacity="0"
     inkscape:pageshadow="2"
     inkscape:window-width="1920"
     inkscape:window-height="931"
     id="namedview75"
     showgrid="false"
     inkscape:zoom="6.2890625"
     inkscape:cx="47.542857"
     inkscape:cy="38.002484"
     inkscape:window-x="0"
     inkscape:window-y="0"
     inkscape:window-maximized="1"
     inkscape:current-layer="g877"
     inkscape:document-rotation="0"
     inkscape:pagecheckerboard="0"
     inkscape:showpageshadow="2"
     inkscape:deskcolor="#d1d1d1" />
  <defs
     id="defs29">
    <filter
       style="color-interpolation-filters:sRGB;"
       inkscape:label="Blur"
       id="filter1"
       x="-0.091333304"
       y="-0.091333304"
       width="1.1826666"
       height="1.1826666">
      <feGaussianBlur
         stdDeviation="1.3 1.3"
         result="blur"
         id="feGaussianBlur1" />
    </filter>
    <filter
       style="color-interpolation-filters:sRGB"
       inkscape:label="Blur"
       id="filter1-3"
       x="-0.091333304"
       y="-0.091333304"
       width="1.1826666"
       height="1.1826666">
      <feGaussianBlur
         stdDeviation="1.3 1.3"
         result="blur"
         id="feGaussianBlur1-6" />
    </filter>
  </defs>
  <circle
     cx="32.516094"
     cy="31.877844"
     r="0"
     fill="url(#b)"
     stroke-width="1.5715"
     id="circle41"
     style="fill:url(#b)" />
  <g
     aria-label="GZ"
     transform="matrix(1.2212657,0,0,0.81882264,0.4960938,-0.1661539)"
     id="text93"
     style="font-weight:bold;font-size:11.5263px;line-height:1.25;font-family:sans-serif;-inkscape-font-specification:'sans-serif Bold';fill:#f2f2f2;stroke-width:0.288159" />
  <g
     id="g877"
     transform="matrix(1.1,0,0,1.1,-3.1845928,-3.2065454)">
    <rect
       style="fill:none;fill-opacity:1;stroke:#000000;stroke-width:2.72727;stroke-dasharray:none;stroke-opacity:1;filter:url(#filter1);opacity:0.5"
       id="rect1-5"
       width="49.090908"
       height="49.090908"
       x="7.4405394"
       y="7.4604964"
       rx="7.4768682"
       ry="7.477273" />
    <rect
       style="opacity:1;fill:#c4c2c5;stroke-width:2.72727273;stroke-opacity:1;fill-opacity:1;stroke:#1e2430;stroke-dasharray:none"
       id="rect1"
       width="49.090908"
       height="49.090908"
       x="7.4405394"
       y="7.4604964"
       rx="7.4768682"
       ry="7.477273" />
    <rect
       style="fill:#1e2430;fill-opacity:1;stroke:none;stroke-width:2.33829;stroke-dasharray:none;stroke-opacity:1"
       id="rect1-6"
       width="42.089317"
       height="42.089317"
       x="10.941335"
       y="10.961291"
       rx="5.5927272"
       ry="5.5927272" />
    <path
       style="fill:#f4e3cf;stroke-width:0.521779;fill-opacity:1"
       d="m 31.14372,46.311376 c -0.251994,-0.6457 -0.722148,-2.159094 -1.044788,-3.363098 -0.361957,-1.350725 -1.560109,-3.254251 -3.128527,-4.970348 -2.520685,-2.758033 -2.535195,-2.794211 -1.737961,-4.333135 1.187135,-2.291561 1.61844,-2.375309 4.389289,-0.852282 l 2.524309,1.387514 2.609164,-1.434891 c 1.43504,-0.78919 2.720833,-1.43489 2.857316,-1.43489 0.136484,0 0.697503,0.875874 1.246708,1.946387 l 0.998557,1.946387 -2.539009,2.77808 c -1.565916,1.713364 -2.763834,3.617069 -3.125627,4.967178 -0.881589,3.289854 -1.444339,4.537101 -2.047109,4.537101 -0.299283,0 -0.750328,-0.528301 -1.002322,-1.174003 z M 18.752767,33.667064 c 1.052783,-1.378786 1.914149,-2.82532 1.914149,-3.214519 0,-0.430193 0.58325,-0.707634 1.487622,-0.707634 0.818193,0 2.612085,-0.597884 3.98643,-1.328629 3.97505,-2.113555 4.637712,-1.412092 1.454343,1.5395 -1.49848,1.389376 -2.846621,2.910881 -2.99587,3.381122 -0.157168,0.495195 -1.316162,1.118077 -2.754166,1.480184 -1.365543,0.343861 -3.050672,0.789825 -3.74473,0.991031 -1.184792,0.343469 -1.144925,0.212597 0.652222,-2.141055 z m 4.869588,-1.087444 c 0.434883,-1.133284 -0.669145,-2.199044 -1.459387,-1.408802 -0.667893,0.667894 -0.254133,2.226542 0.591061,2.226542 0.304991,0 0.695739,-0.367984 0.868326,-0.81774 z m 20.59513,2.623542 c -0.965627,-0.419236 -2.299906,-0.762246 -2.965065,-0.762246 -0.709483,0 -1.333468,-0.390969 -1.509583,-0.945857 -0.165112,-0.520223 -1.510146,-2.105125 -2.988964,-3.522005 -3.13646,-3.005092 -2.494507,-3.681821 1.483688,-1.564065 1.380237,0.734758 3.157091,1.335922 3.948564,1.335922 0.89688,0 1.439042,0.279814 1.439042,0.742702 0,0.408485 0.820251,1.817286 1.822779,3.13067 1.916297,2.510485 1.66047,2.839999 -1.230461,1.584879 z M 42.40638,32.57962 c 0.434882,-1.133284 -0.669147,-2.199044 -1.459388,-1.408802 -0.667893,0.667894 -0.254133,2.226542 0.591061,2.226542 0.304993,0 0.695741,-0.367984 0.868327,-0.81774 z M 20.666916,28.162816 c 0,-1.660777 1.299628,-4.297357 2.800477,-5.681381 1.575805,-1.453143 2.268104,-1.19076 1.35582,0.513859 -0.370038,0.691423 -0.500319,2.070667 -0.319916,3.386852 0.328222,2.394635 -0.07627,2.840986 -2.57461,2.840986 -0.920567,0 -1.261771,-0.286728 -1.261771,-1.060316 z m 19.451491,0.719834 c -0.432732,-0.175339 -0.538907,-0.973591 -0.331128,-2.489508 0.181836,-1.326639 0.05273,-2.704368 -0.31841,-3.397848 -0.912283,-1.704619 -0.219983,-1.967002 1.355821,-0.513859 1.500849,1.384024 2.800477,4.020604 2.800477,5.681381 0,0.818842 -0.326778,1.050935 -1.43489,1.019123 -0.78919,-0.02265 -1.721531,-0.157336 -2.07187,-0.299289 z M 29.628104,22.797717 c -2.251513,-2.396624 -0.750237,-6.271195 2.429894,-6.271195 3.473716,0 5.05909,3.971047 2.532862,6.344316 -1.566698,1.471835 -3.538641,1.442781 -4.962756,-0.07312 z"
       id="path293" />
    <rect
       style="opacity:0.5;fill:none;fill-opacity:1;stroke:#000000;stroke-width:2.72727;stroke-dasharray:none;stroke-opacity:1;filter:url(#filter1-3)"
       id="rect1-5-5"
       width="49.090908"
       height="49.090908"
       x="7.4405394"
       y="7.4604964"
       rx="7.4768682"
       ry="7.477273"
       transform="matrix(0.43046721,0,0,0.43046721,34.695898,34.707264)" />
    <rect
       style="fill:#c4c2c5;fill-opacity:1;stroke:#1e2430;stroke-width:1.174;stroke-dasharray:none;stroke-opacity:1"
       id="rect1-3"
       width="21.132023"
       height="21.132023"
       x="37.898808"
       y="37.918762"
       rx="3.2185469"
       ry="3.2187209" />
    <rect
       style="fill:#1e2430;fill-opacity:1;stroke:none;stroke-width:1.00656;stroke-dasharray:none;stroke-opacity:1"
       id="rect1-6-5"
       width="18.118069"
       height="18.118069"
       x="39.405781"
       y="39.425739"
       rx="2.4074855"
       ry="2.4074855" />
    <path
       id="path1"
       style="fill:#f4e3cf;fill-opacity:1;stroke:none;stroke-width:0.181638;stroke-dasharray:none;stroke-dashoffset:2.2;stroke-opacity:0.6"
       d="m 51.778779,43.941045 c -0.187252,-8.1e-5 -0.387675,0.07531 -0.638521,0.222291 -0.596919,0.349749 -1.377579,0.514692 -2.44963,0.514692 -1.071954,0 -1.878654,-0.168464 -2.472018,-0.516184 -0.475801,-0.278826 -0.759862,-0.282522 -1.159175,-0.01336 -1.025175,0.690863 -1.797804,2.90589 -2.024459,5.800365 -0.135901,1.735692 -0.0089,2.650757 0.440096,3.165728 0.216586,0.248286 0.748267,0.206204 1.227806,-0.09847 0.406495,-0.258249 0.890832,-0.828123 1.469484,-1.729077 0.522892,-0.81415 1.155362,-1.082294 2.554068,-1.084584 1.395926,-0.0021 1.944506,0.26195 2.588383,1.251671 1.08027,1.660535 2.078776,2.238636 2.664465,1.542581 0.324469,-0.385605 0.383859,-0.758167 0.368487,-2.309398 -0.028,-2.817903 -0.76459,-5.381404 -1.826034,-6.359807 C 52.239036,44.06691 52.019542,43.9412 51.778779,43.9411 Z m -6.06442,1.660439 h 0.647469 0.647466 v 0.554974 0.554973 h 0.554977 0.554971 v 0.693717 0.693714 h -0.554971 -0.554977 v 0.601222 0.601221 h -0.586297 c -0.322099,0 -0.612073,-0.02889 -0.645977,-0.06265 -0.0339,-0.03389 -0.06262,-0.303056 -0.06262,-0.599727 V 48.098857 H 45.159418 44.604442 V 47.405144 46.71143 h 0.554976 0.55497 v -0.55498 z m 5.278213,0 c 0.5841,0 0.834244,0.647172 0.413247,1.068174 -0.26774,0.267713 -0.512097,0.288754 -0.77577,0.06565 -0.457352,-0.386999 -0.218646,-1.133819 0.362523,-1.133819 z m -1.123373,1.18603 c 0.145866,1.01e-4 0.292703,0.05822 0.408766,0.186472 0.180933,0.199943 0.20047,0.65765 0.03732,0.871247 -0.319324,0.418037 -1.086073,0.14915 -1.086073,-0.380423 0,-0.401918 0.319131,-0.677526 0.640008,-0.677304 z m 2.292994,0.02255 c 0.168103,0.0031 0.331322,0.05875 0.426667,0.164095 0.180934,0.199943 0.200443,0.65765 0.0373,0.87125 -0.339646,0.444632 -1.086079,0.147034 -1.086079,-0.432643 0,-0.1757 0.07042,-0.36615 0.168576,-0.455016 0.112217,-0.101585 0.285435,-0.150764 0.45353,-0.147674 z m -1.12934,1.19647 c 0.517834,0 0.769797,0.549277 0.456506,0.996564 -0.107097,0.152907 -0.23771,0.20587 -0.507235,0.20587 -0.310298,0 -0.382306,-0.04038 -0.507228,-0.281972 -0.246338,-0.476336 0.02255,-0.920482 0.557957,-0.920482 z" />
  </g>
</svg>
