<?xml version="1.0" encoding="UTF-8" standalone="no"?>
<svg
   width="64"
   height="64"
   version="1.1"
   id="svg73"
   sodipodi:docname="accessories-calculator.svg"
   inkscape:version="1.2.2 (b0a8486541, 2022-12-01)"
   xmlns:inkscape="http://www.inkscape.org/namespaces/inkscape"
   xmlns:sodipodi="http://sodipodi.sourceforge.net/DTD/sodipodi-0.dtd"
   xmlns="http://www.w3.org/2000/svg"
   xmlns:svg="http://www.w3.org/2000/svg"
   xmlns:rdf="http://www.w3.org/1999/02/22-rdf-syntax-ns#"
   xmlns:cc="http://creativecommons.org/ns#"
   xmlns:dc="http://purl.org/dc/elements/1.1/">
  <metadata
     id="metadata77">
    <rdf:RDF>
      <cc:Work
         rdf:about="">
        <dc:format>image/svg+xml</dc:format>
        <dc:type
           rdf:resource="http://purl.org/dc/dcmitype/StillImage" />
      </cc:Work>
    </rdf:RDF>
  </metadata>
  <sodipodi:namedview
     pagecolor="#f5f7fa"
     bordercolor="#666666"
     borderopacity="1"
     objecttolerance="10"
     gridtolerance="10"
     guidetolerance="10"
     inkscape:pageopacity="0"
     inkscape:pageshadow="2"
     inkscape:window-width="1280"
     inkscape:window-height="603"
     id="namedview75"
     showgrid="false"
     inkscape:zoom="6.2890625"
     inkscape:cx="51.677019"
     inkscape:cy="37.843478"
     inkscape:window-x="35"
     inkscape:window-y="32"
     inkscape:window-maximized="0"
     inkscape:current-layer="g877"
     inkscape:document-rotation="0"
     inkscape:pagecheckerboard="0"
     inkscape:showpageshadow="2"
     inkscape:deskcolor="#d1d1d1" />
  <defs
     id="defs29">
    <filter
       style="color-interpolation-filters:sRGB;"
       inkscape:label="Blur"
       id="filter1"
       x="-0.091333304"
       y="-0.091333304"
       width="1.1826666"
       height="1.1826666">
      <feGaussianBlur
         stdDeviation="1.3 1.3"
         result="blur"
         id="feGaussianBlur1" />
    </filter>
    <filter
       style="color-interpolation-filters:sRGB"
       inkscape:label="Blur"
       id="filter1-3"
       x="-0.091333304"
       y="-0.091333304"
       width="1.1826666"
       height="1.1826666">
      <feGaussianBlur
         stdDeviation="1.3 1.3"
         result="blur"
         id="feGaussianBlur1-6" />
    </filter>
  </defs>
  <circle
     cx="32.516094"
     cy="31.877844"
     r="0"
     fill="url(#b)"
     stroke-width="1.5715"
     id="circle41"
     style="fill:url(#b)" />
  <g
     aria-label="GZ"
     transform="matrix(1.2212657,0,0,0.81882264,0.4960938,-0.1661539)"
     id="text93"
     style="font-weight:bold;font-size:11.5263px;line-height:1.25;font-family:sans-serif;-inkscape-font-specification:'sans-serif Bold';fill:#f2f2f2;stroke-width:0.288159" />
  <g
     id="g877"
     transform="matrix(1.1,0,0,1.1,-3.1845928,-3.2065454)">
    <rect
       style="fill:none;fill-opacity:1;stroke:#000000;stroke-width:2.72727;stroke-dasharray:none;stroke-opacity:1;filter:url(#filter1);opacity:0.5"
       id="rect1-5"
       width="49.090908"
       height="49.090908"
       x="7.4405394"
       y="7.4604964"
       rx="7.4768682"
       ry="7.477273" />
    <rect
       style="opacity:1;fill:#c4c2c5;stroke-width:2.72727273;stroke-opacity:1;fill-opacity:1;stroke:#1e2430;stroke-dasharray:none"
       id="rect1"
       width="49.090908"
       height="49.090908"
       x="7.4405394"
       y="7.4604964"
       rx="7.4768682"
       ry="7.477273" />
    <rect
       style="fill:#1e2430;fill-opacity:1;stroke:none;stroke-width:2.33829;stroke-dasharray:none;stroke-opacity:1"
       id="rect1-6"
       width="42.089317"
       height="42.089317"
       x="10.941335"
       y="10.961291"
       rx="5.5927272"
       ry="5.5927272" />
    <path
       style="fill:#f4e3cf;fill-opacity:1;stroke:none;stroke-width:0.416787;stroke-dasharray:none;stroke-opacity:0.6"
       d="m 26.514859,45.736857 c -1.185206,-0.424256 -1.768241,-1.172311 -1.78309,-2.287774 -0.0072,-0.537991 0.04184,-0.738988 0.264641,-1.085102 0.150384,-0.233662 0.417938,-0.508357 0.594559,-0.610487 l 0.321128,-0.185698 -0.132385,0.45118 c -0.249297,0.849632 0.110037,1.448788 0.918912,1.532196 0.573069,0.05913 1.135078,-0.226704 1.360261,-0.691733 0.365444,-0.75467 0.05288,-1.768142 -0.909812,-2.950077 -0.492287,-0.60441 -0.755621,-1.096602 -0.87274,-1.631254 -0.08217,-0.375093 -0.07421,-1.579364 0.0132,-1.998747 0.130744,-0.627192 0.698053,-1.683642 1.184808,-2.20634 0.488575,-0.524643 0.607935,-0.928351 0.308456,-1.043275 -0.247309,-0.0949 -0.272048,-0.08295 -0.251258,0.121392 0.03433,0.337601 -0.0014,0.413949 -0.512887,1.099259 -0.534103,0.71545 -0.706668,1.042741 -0.921187,1.747149 -0.186652,0.612904 -0.198064,1.821047 -0.02263,2.399953 0.199735,0.659205 0.422776,1.152183 0.521301,1.152183 0.04416,0 0.08026,0.04998 0.08026,0.111017 0,0.06992 -0.147356,0.08507 -0.398249,0.041 -1.071724,-0.18859 -1.963992,-0.886975 -2.42795,-1.900392 -0.232823,-0.508555 -0.269751,-0.716717 -0.232928,-1.313055 0.06088,-0.985864 0.468831,-1.766171 1.390111,-2.658876 0.998532,-0.96756 1.264707,-1.437014 1.223426,-2.157737 -0.02876,-0.501977 -0.06031,-0.568822 -0.283551,-0.600408 -0.388543,-0.05498 -0.531198,0.165082 -0.190894,0.294468 0.160121,0.06088 0.282537,0.189273 0.2822,0.295995 -8.99e-4,0.307302 -0.214619,0.984981 -0.310535,0.984981 -0.196337,0 -0.690946,-1.231296 -0.713437,-1.77605 -0.01919,-0.465204 0.04838,-0.696638 0.418617,-1.433702 0.393953,-0.784245 0.441541,-0.960279 0.441672,-1.633751 1.83e-4,-0.645208 -0.04213,-0.818681 -0.290996,-1.194749 -0.160127,-0.241972 -0.329244,-0.439947 -0.37581,-0.439947 -0.04657,0 -0.189261,0.09744 -0.317091,0.216539 -0.234295,0.218277 -0.323251,0.739263 -0.126223,0.739263 0.05839,0 0.106203,-0.04221 0.106203,-0.09381 0,-0.05161 0.107529,-0.126061 0.238947,-0.165487 0.226224,-0.06786 0.228012,-0.07602 0.0336,-0.153364 -0.149741,-0.05956 -0.169399,-0.103914 -0.07259,-0.163746 0.156404,-0.09666 0.149391,-0.102948 0.370631,0.332189 0.287412,0.565286 0.226216,1.45882 -0.154932,2.262023 l -0.327573,0.690297 -0.200777,-0.3717 c -0.453744,-0.840006 -0.651032,-1.715214 -0.694251,-3.079804 -0.03675,-1.160676 -0.009,-1.450807 0.220799,-2.308753 0.386804,-1.444032 0.888065,-2.36071 1.845341,-3.374666 0.773596,-0.819396 1.382703,-1.278608 2.304224,-1.73717 4.716455,-2.346979 10.307587,0.381847 11.396249,5.56209 0.03686,0.175227 0.06714,0.93987 0.06732,1.6992 3.46e-4,1.231662 -0.03226,1.480234 -0.302437,2.304183 -0.446725,1.362826 -0.492478,1.397078 -0.870289,0.651439 -0.25871,-0.510538 -0.313754,-0.749706 -0.313754,-1.362623 0,-0.770263 0.260195,-1.408962 0.510836,-1.254044 0.08112,0.05014 0.07765,0.08437 -0.01175,0.114141 -0.185544,0.06184 -0.156042,0.202367 0.05832,0.277985 0.102174,0.03605 0.24563,0.0934 0.318608,0.127438 0.230322,0.107346 0.145002,-0.243607 -0.142189,-0.584868 -0.151187,-0.179715 -0.31458,-0.326749 -0.363048,-0.326749 -0.15196,0 -0.514068,0.676303 -0.623972,1.165431 -0.141972,0.631831 -7.33e-4,1.308851 0.477609,2.289862 0.346374,0.710322 0.382258,0.860527 0.328985,1.376739 -0.05597,0.542665 -0.538072,1.646166 -0.719125,1.646166 -0.04329,0 -0.136283,-0.239964 -0.206635,-0.533255 -0.136622,-0.569667 -0.041,-0.847347 0.292016,-0.847347 0.126664,0 0.133313,-0.03137 0.03228,-0.152984 -0.130778,-0.157548 -0.423051,-0.109551 -0.561154,0.09214 -0.117511,0.171553 -0.09685,0.673714 0.04775,1.163623 0.09438,0.319773 0.367089,0.672936 1.015804,1.315544 0.614222,0.608428 0.972944,1.06542 1.1671,1.4868 0.321271,0.697288 0.424572,1.663552 0.247949,2.319444 -0.251628,0.934436 -1.176031,1.822454 -2.210084,2.123063 -0.718509,0.208892 -0.848279,0.164423 -0.566391,-0.193863 0.328892,-0.418117 0.533055,-1.204657 0.531426,-2.047219 -0.0022,-1.299291 -0.362306,-2.315066 -1.1609,-3.277248 -0.282512,-0.340368 -0.42829,-0.620527 -0.42829,-0.823052 0,-0.328579 -0.09248,-0.384449 -0.297359,-0.179592 -0.216051,0.216091 -0.145717,0.405086 0.360202,0.967821 1.129205,1.255956 1.579821,2.975126 1.154872,4.406079 -0.0984,0.331536 -0.420034,0.889755 -0.812968,1.411224 -0.357539,0.474495 -0.754956,1.120766 -0.883144,1.436164 -0.433092,1.065598 -0.04713,2.056119 0.868347,2.228396 1.031616,0.194111 1.765038,-0.655845 1.373834,-1.592137 l -0.159846,-0.382605 0.303797,0.157125 c 0.882813,0.456522 1.188178,1.707296 0.678853,2.780607 -0.406753,0.857155 -1.772119,1.492272 -2.942438,1.368691 -1.289778,-0.136221 -2.281984,-0.801328 -2.830208,-1.897201 -0.307765,-0.6152 -0.327509,-0.724834 -0.309577,-1.719113 0.01051,-0.584099 0.109459,-1.492102 0.219838,-2.017794 0.346521,-1.65035 0.368888,-1.795526 0.340774,-2.21194 -0.01506,-0.223611 -0.08314,-0.57531 -0.151222,-0.781567 -0.133181,-0.403419 -0.745621,-1.054949 -1.136193,-1.208693 -0.605081,-0.238183 -1.579876,0.746756 -1.710094,1.727888 -0.07885,0.594171 -0.06831,0.680944 0.289734,2.384768 0.275777,1.312331 0.301509,2.858743 0.05939,3.569302 -0.538144,1.579355 -2.730427,2.596276 -4.348444,2.017093 z m 3.241317,-11.446182 c 0,-0.03034 -0.122162,-0.248732 -0.271473,-0.485256 -0.577414,-0.914684 -0.450877,-1.387367 0.871677,-3.256182 0.149601,-0.211384 0.150384,-0.238944 0.0068,-0.238944 -0.189378,0 -0.793739,0.808814 -1.192798,1.596318 -0.195232,0.385285 -0.269716,0.681199 -0.249158,0.989967 0.03412,0.512576 0.480557,1.449313 0.69072,1.449313 0.07933,0 0.144226,-0.02487 0.144226,-0.05521 z m 5.039313,-0.48509 c 0.382996,-0.703692 0.38856,-1.20222 0.02133,-1.91006 -0.513849,-0.990418 -1.237436,-1.864212 -1.237436,-1.49431 0,0.05 0.160261,0.300909 0.356127,0.557553 0.926933,1.214523 1.071114,1.861814 0.613765,2.755408 -0.406208,0.793664 -0.181409,0.877116 0.24622,0.0914 z m -5.518706,-3.148323 c 0.299846,-0.220073 0.662369,-0.836603 0.555038,-0.943927 -0.04089,-0.04089 -0.158263,-0.0022 -0.260844,0.08586 -0.102575,0.08812 -0.28208,0.196494 -0.398899,0.240845 -0.209922,0.0797 -0.209959,0.08156 -0.004,0.158201 0.198118,0.07374 0.195493,0.08574 -0.0531,0.243045 -0.143837,0.09101 -0.369052,0.19757 -0.500475,0.236791 -0.131422,0.03922 -0.238954,0.121862 -0.238954,0.183636 0,0.15856 0.588522,0.02508 0.901207,-0.204461 z m 6.222652,0.128276 c -0.0039,-0.05694 -0.145051,-0.139198 -0.31321,-0.182774 -0.305644,-0.0792 -0.737898,-0.447852 -0.443352,-0.378118 0.0756,0.0179 0.159354,-0.02718 0.186128,-0.100206 0.02722,-0.07426 -0.03342,-0.132741 -0.137664,-0.132741 -0.102486,0 -0.27403,-0.07936 -0.381202,-0.176345 -0.289876,-0.262334 -0.370792,-0.07826 -0.147709,0.335987 0.26033,0.483398 1.26321,0.997569 1.237009,0.634197 z m -5.345007,-1.22556 c 0.248237,0.0049 0.451349,-0.01116 0.451349,-0.03572 0,-0.02455 -0.203114,-0.144589 -0.451349,-0.266764 -0.249185,-0.122637 -0.588539,-0.416869 -0.757632,-0.656886 -0.398603,-0.565804 -0.858037,-0.838232 -1.414471,-0.838724 -0.444833,-4.69e-4 -0.987346,0.177008 -0.987346,0.322867 0,0.170067 0.537965,0.176551 0.636648,0.0077 0.07606,-0.130163 0.101072,-0.07708 0.103525,0.219702 0.0076,0.912137 0.517148,1.37268 1.426223,1.288877 0.29794,-0.02743 0.744811,-0.04592 0.993055,-0.04102 z m 5.635599,-0.130107 c 0.234936,-0.189988 0.444343,-0.683457 0.444343,-1.047147 0,-0.241338 0.03355,-0.311532 0.111673,-0.233449 0.128031,0.128004 0.631736,0.06088 0.631736,-0.0842 0,-0.253657 -1.021179,-0.395482 -1.506431,-0.20921 -0.264693,0.10161 -0.784556,0.578053 -1.042059,0.955039 -0.08746,0.128032 -0.338354,0.311913 -0.557553,0.408622 -0.489916,0.216153 -0.52076,0.393593 -0.0534,0.307191 0.18983,-0.0351 0.488517,-0.01955 0.66375,0.03448 0.36194,0.111679 1.098938,0.03767 1.307953,-0.131347 z m -3.099074,-0.55287 c 0.196662,-0.128851 0.241476,-0.211937 0.158888,-0.294527 -0.08259,-0.08259 -0.17605,-0.05984 -0.331322,0.08068 -0.269311,0.243718 -0.784743,0.252974 -1.043582,0.01877 -0.241056,-0.218156 -0.338156,-0.224209 -0.338156,-0.02106 0,0.421328 1.023761,0.563744 1.554178,0.216202 z m -6.153666,-2.020466 c -0.123629,-0.761825 0.155452,-1.105591 0.934032,-1.150538 0.402259,-0.02322 0.253506,-0.22308 -0.194162,-0.26086 -0.317807,-0.02684 -0.45149,0.02672 -0.70864,0.283876 -0.265727,0.265727 -0.316938,0.401205 -0.316938,0.838408 0,0.521723 0.05201,0.66307 0.243994,0.66307 0.05783,0 0.07599,-0.162758 0.04171,-0.373956 z m 4.174691,0.27048 c 0,-0.05691 -0.135128,-0.173351 -0.300278,-0.258754 -0.532318,-0.275268 -1.220153,-1.237965 -1.372582,-1.921071 -0.127532,-0.571527 -0.01951,-1.487407 0.252166,-2.138381 0.15237,-0.365073 0.2547,-0.845725 0.302169,-1.419315 0.04781,-0.57774 -0.35002,-1.380601 -0.684116,-1.380601 -0.22016,0 -0.63996,0.519325 -0.63996,0.791674 0,0.324729 0.113383,0.347071 0.293955,0.05791 0.07296,-0.116818 0.215875,-0.213916 0.317598,-0.215775 0.17242,-0.0032 0.171925,-0.0133 -0.0073,-0.149106 -0.108843,-0.08253 -0.147068,-0.17362 -0.08816,-0.210036 0.05722,-0.03538 0.203459,0.06206 0.324957,0.216527 0.312553,0.397366 0.283799,1.020249 -0.11112,2.406759 -0.394597,1.385421 -0.376975,2.003147 0.08116,2.844905 0.438447,0.805571 1.631456,1.811228 1.631459,1.375255 z m 3.21296,-0.204279 c 1.0861,-0.822342 1.60154,-2.232081 1.246517,-3.409242 -0.592864,-1.965772 -0.655216,-2.573472 -0.309176,-3.01339 0.121493,-0.154462 0.267727,-0.251894 0.324956,-0.216526 0.0589,0.03641 0.02074,0.127505 -0.08816,0.210035 -0.141873,0.107563 -0.152677,0.146608 -0.04127,0.149107 0.08302,0.0019 0.235326,0.07974 0.338459,0.173084 0.180503,0.163363 0.413302,0.128656 0.413302,-0.06161 0,-0.187699 -0.556761,-0.74528 -0.744177,-0.74528 -0.326039,0 -0.668616,0.686572 -0.662844,1.328418 0.005,0.53739 0.06395,0.787984 0.437124,1.852843 0.255973,0.73042 0.215819,1.759935 -0.09262,2.374779 -0.249061,0.496495 -1.051888,1.346959 -1.271507,1.346959 -0.05971,0 -0.108575,0.07168 -0.108575,0.159299 0,0.223921 0.101982,0.196787 0.557962,-0.148451 z m 3.7821,0.07736 c 0.141262,-0.381805 -0.04273,-1.065619 -0.360103,-1.338631 -0.211026,-0.181512 -0.391059,-0.239098 -0.673722,-0.215491 -0.212142,0.01772 -0.37066,0.07999 -0.352229,0.138413 0.01867,0.05839 0.107832,0.09083 0.198649,0.07206 0.269058,-0.05565 0.738308,0.188667 0.88354,0.460022 0.08024,0.149951 0.111667,0.42759 0.07744,0.683296 -0.06142,0.458052 0.08368,0.586399 0.226518,0.200326 z m -6.251662,-1.511289 c 0,-0.02332 -0.173557,-0.216033 -0.385675,-0.428154 -0.359291,-0.359293 -0.381227,-0.418136 -0.320631,-0.86022 0.0639,-0.466102 -0.07645,-0.666083 -0.214672,-0.3059 -0.174638,0.455099 -0.05624,0.968078 0.322559,1.397804 0.176387,0.200087 0.598419,0.33865 0.598419,0.19647 z m 1.682028,-0.22487 c 0.362807,-0.305275 0.531656,-0.959634 0.340026,-1.317698 -0.19842,-0.370755 -0.294246,-0.247114 -0.240667,0.310513 0.04864,0.506221 0.03218,0.548123 -0.354941,0.902699 -0.476007,0.436004 -0.24879,0.528895 0.255582,0.104486 z m -11.70351,11.258294 c -0.116739,-0.304222 -0.07355,-1.107081 0.0787,-1.462918 0.176832,-0.413275 0.648604,-0.871568 1.055446,-1.025285 0.404976,-0.153011 1.238659,-0.136145 1.540171,0.03112 0.230124,0.127686 0.234206,0.146441 0.06275,0.288287 -0.219787,0.181836 -0.678089,1.133387 -0.679548,1.410925 -7.65e-4,0.147637 -0.04779,0.176917 -0.18689,0.116583 -0.665888,-0.288947 -1.367819,-0.08158 -1.642302,0.485156 -0.128102,0.264503 -0.174556,0.296274 -0.228333,0.156095 z m 20.941116,-0.07367 c -0.0727,-0.504184 -1.063276,-0.889234 -1.578412,-0.61354 -0.172277,0.09222 -0.213901,0.06436 -0.276522,-0.185096 -0.04051,-0.161488 -0.230322,-0.55683 -0.421656,-0.878489 -0.315375,-0.53008 -0.331681,-0.597263 -0.174133,-0.717586 0.212572,-0.162277 1.072829,-0.173781 1.480389,-0.01976 0.366242,0.138376 0.850682,0.585271 1.05184,0.970319 0.166959,0.319572 0.205026,1.52505 0.05121,1.620133 -0.05427,0.03353 -0.113986,-0.04562 -0.132758,-0.175952 z"
       id="path1-9-7" />
    <rect
       style="opacity:0.5;fill:none;fill-opacity:1;stroke:#000000;stroke-width:2.72727;stroke-dasharray:none;stroke-opacity:1;filter:url(#filter1-3)"
       id="rect1-5-5"
       width="49.090908"
       height="49.090908"
       x="7.4405394"
       y="7.4604964"
       rx="7.4768682"
       ry="7.477273"
       transform="matrix(0.43046721,0,0,0.43046721,34.695898,34.707264)" />
    <rect
       style="fill:#c4c2c5;fill-opacity:1;stroke:#1e2430;stroke-width:1.174;stroke-dasharray:none;stroke-opacity:1"
       id="rect1-3"
       width="21.132023"
       height="21.132023"
       x="37.898808"
       y="37.918762"
       rx="3.2185469"
       ry="3.2187209" />
    <rect
       style="fill:#1e2430;fill-opacity:1;stroke:none;stroke-width:1.00656;stroke-dasharray:none;stroke-opacity:1"
       id="rect1-6-5"
       width="18.118069"
       height="18.118069"
       x="39.405781"
       y="39.425739"
       rx="2.4074855"
       ry="2.4074855" />
    <path
       id="path1"
       style="fill:#f4e3cf;fill-opacity:1;stroke:none;stroke-width:0.181638;stroke-dasharray:none;stroke-dashoffset:2.2;stroke-opacity:0.6"
       d="m 51.778779,43.941045 c -0.187252,-8.1e-5 -0.387675,0.07531 -0.638521,0.222291 -0.596919,0.349749 -1.377579,0.514692 -2.44963,0.514692 -1.071954,0 -1.878654,-0.168464 -2.472018,-0.516184 -0.475801,-0.278826 -0.759862,-0.282522 -1.159175,-0.01336 -1.025175,0.690863 -1.797804,2.90589 -2.024459,5.800365 -0.135901,1.735692 -0.0089,2.650757 0.440096,3.165728 0.216586,0.248286 0.748267,0.206204 1.227806,-0.09847 0.406495,-0.258249 0.890832,-0.828123 1.469484,-1.729077 0.522892,-0.81415 1.155362,-1.082294 2.554068,-1.084584 1.395926,-0.0021 1.944506,0.26195 2.588383,1.251671 1.08027,1.660535 2.078776,2.238636 2.664465,1.542581 0.324469,-0.385605 0.383859,-0.758167 0.368487,-2.309398 -0.028,-2.817903 -0.76459,-5.381404 -1.826034,-6.359807 C 52.239036,44.06691 52.019542,43.9412 51.778779,43.9411 Z m -6.06442,1.660439 h 0.647469 0.647466 v 0.554974 0.554973 h 0.554977 0.554971 v 0.693717 0.693714 h -0.554971 -0.554977 v 0.601222 0.601221 h -0.586297 c -0.322099,0 -0.612073,-0.02889 -0.645977,-0.06265 -0.0339,-0.03389 -0.06262,-0.303056 -0.06262,-0.599727 V 48.098857 H 45.159418 44.604442 V 47.405144 46.71143 h 0.554976 0.55497 v -0.55498 z m 5.278213,0 c 0.5841,0 0.834244,0.647172 0.413247,1.068174 -0.26774,0.267713 -0.512097,0.288754 -0.77577,0.06565 -0.457352,-0.386999 -0.218646,-1.133819 0.362523,-1.133819 z m -1.123373,1.18603 c 0.145866,1.01e-4 0.292703,0.05822 0.408766,0.186472 0.180933,0.199943 0.20047,0.65765 0.03732,0.871247 -0.319324,0.418037 -1.086073,0.14915 -1.086073,-0.380423 0,-0.401918 0.319131,-0.677526 0.640008,-0.677304 z m 2.292994,0.02255 c 0.168103,0.0031 0.331322,0.05875 0.426667,0.164095 0.180934,0.199943 0.200443,0.65765 0.0373,0.87125 -0.339646,0.444632 -1.086079,0.147034 -1.086079,-0.432643 0,-0.1757 0.07042,-0.36615 0.168576,-0.455016 0.112217,-0.101585 0.285435,-0.150764 0.45353,-0.147674 z m -1.12934,1.19647 c 0.517834,0 0.769797,0.549277 0.456506,0.996564 -0.107097,0.152907 -0.23771,0.20587 -0.507235,0.20587 -0.310298,0 -0.382306,-0.04038 -0.507228,-0.281972 -0.246338,-0.476336 0.02255,-0.920482 0.557957,-0.920482 z" />
  </g>
</svg>
