<?xml version="1.0" encoding="UTF-8" standalone="no"?>
<svg
   width="64"
   height="64"
   version="1.1"
   id="svg73"
   sodipodi:docname="accessories-calculator.svg"
   inkscape:version="1.2.2 (b0a8486541, 2022-12-01)"
   xmlns:inkscape="http://www.inkscape.org/namespaces/inkscape"
   xmlns:sodipodi="http://sodipodi.sourceforge.net/DTD/sodipodi-0.dtd"
   xmlns="http://www.w3.org/2000/svg"
   xmlns:svg="http://www.w3.org/2000/svg"
   xmlns:rdf="http://www.w3.org/1999/02/22-rdf-syntax-ns#"
   xmlns:cc="http://creativecommons.org/ns#"
   xmlns:dc="http://purl.org/dc/elements/1.1/">
  <metadata
     id="metadata77">
    <rdf:RDF>
      <cc:Work
         rdf:about="">
        <dc:format>image/svg+xml</dc:format>
        <dc:type
           rdf:resource="http://purl.org/dc/dcmitype/StillImage" />
      </cc:Work>
    </rdf:RDF>
  </metadata>
  <sodipodi:namedview
     pagecolor="#f5f7fa"
     bordercolor="#666666"
     borderopacity="1"
     objecttolerance="10"
     gridtolerance="10"
     guidetolerance="10"
     inkscape:pageopacity="0"
     inkscape:pageshadow="2"
     inkscape:window-width="1280"
     inkscape:window-height="603"
     id="namedview75"
     showgrid="false"
     inkscape:zoom="6.2890625"
     inkscape:cx="51.677019"
     inkscape:cy="37.843478"
     inkscape:window-x="35"
     inkscape:window-y="32"
     inkscape:window-maximized="0"
     inkscape:current-layer="g877"
     inkscape:document-rotation="0"
     inkscape:pagecheckerboard="0"
     inkscape:showpageshadow="2"
     inkscape:deskcolor="#d1d1d1" />
  <defs
     id="defs29">
    <filter
       style="color-interpolation-filters:sRGB;"
       inkscape:label="Blur"
       id="filter1"
       x="-0.091333304"
       y="-0.091333304"
       width="1.1826666"
       height="1.1826666">
      <feGaussianBlur
         stdDeviation="1.3 1.3"
         result="blur"
         id="feGaussianBlur1" />
    </filter>
    <filter
       style="color-interpolation-filters:sRGB"
       inkscape:label="Blur"
       id="filter1-3"
       x="-0.091333304"
       y="-0.091333304"
       width="1.1826666"
       height="1.1826666">
      <feGaussianBlur
         stdDeviation="1.3 1.3"
         result="blur"
         id="feGaussianBlur1-6" />
    </filter>
  </defs>
  <circle
     cx="32.516094"
     cy="31.877844"
     r="0"
     fill="url(#b)"
     stroke-width="1.5715"
     id="circle41"
     style="fill:url(#b)" />
  <g
     aria-label="GZ"
     transform="matrix(1.2212657,0,0,0.81882264,0.4960938,-0.1661539)"
     id="text93"
     style="font-weight:bold;font-size:11.5263px;line-height:1.25;font-family:sans-serif;-inkscape-font-specification:'sans-serif Bold';fill:#f2f2f2;stroke-width:0.288159" />
  <g
     id="g877"
     transform="matrix(1.1,0,0,1.1,-3.1845928,-3.2065454)">
    <rect
       style="fill:none;fill-opacity:1;stroke:#000000;stroke-width:2.72727;stroke-dasharray:none;stroke-opacity:1;filter:url(#filter1);opacity:0.5"
       id="rect1-5"
       width="49.090908"
       height="49.090908"
       x="7.4405394"
       y="7.4604964"
       rx="7.4768682"
       ry="7.477273" />
    <rect
       style="opacity:1;fill:#c4c2c5;stroke-width:2.72727273;stroke-opacity:1;fill-opacity:1;stroke:#1e2430;stroke-dasharray:none"
       id="rect1"
       width="49.090908"
       height="49.090908"
       x="7.4405394"
       y="7.4604964"
       rx="7.4768682"
       ry="7.477273" />
    <rect
       style="fill:#1e2430;fill-opacity:1;stroke:none;stroke-width:2.33829;stroke-dasharray:none;stroke-opacity:1"
       id="rect1-6"
       width="42.089317"
       height="42.089317"
       x="10.941335"
       y="10.961291"
       rx="5.5927272"
       ry="5.5927272" />
    <path
       style="fill:#f4e3cf;fill-opacity:1;stroke:none;stroke-width:0.413556;stroke-dasharray:none;stroke-opacity:0.6"
       d="m 32.777956,45.383818 c 0.118881,-0.01762 0.216143,-0.0556 0.216143,-0.08489 0,-0.02938 -0.276826,-0.187864 -0.61517,-0.352454 -1.105614,-0.537771 -1.666424,-1.046451 -2.020068,-1.832319 -0.142761,-0.317235 -0.212936,-0.746283 -0.122072,-0.746283 0.01973,0 0.146934,0.05563 0.282651,0.123696 0.287192,0.14392 0.726365,0.217612 0.899277,0.150971 0.109681,-0.0423 0.102458,-0.06917 -0.08056,-0.299468 -0.344056,-0.432918 -0.472212,-0.885278 -0.472212,-1.666743 0,-0.684015 0.0022,-0.693425 0.300071,-1.288471 0.638774,-1.276014 1.871131,-2.263081 3.2912,-2.636129 0.54821,-0.144005 2.095471,-0.20601 2.892971,-0.115922 0.329208,0.03718 0.610898,0.05538 0.625977,0.04043 0.182142,-0.180619 -1.293384,-1.707503 -2.321885,-2.402732 -0.365418,-0.24701 -2.065294,-1.101874 -2.414229,-1.214114 -0.139062,-0.04474 -0.242734,-0.115902 -0.230391,-0.158164 0.04664,-0.159598 0.904126,-0.513182 1.647065,-0.679163 0.420645,-0.09398 0.788789,-0.194458 0.818101,-0.223291 0.09147,-0.08997 -0.735469,-0.544984 -1.548785,-0.852168 -0.506128,-0.191161 -2.305296,-0.616174 -2.614663,-0.617657 -0.241359,-0.0013 -0.434757,-0.09827 -0.354978,-0.178251 0.02938,-0.02941 0.594456,-0.06348 1.255799,-0.07565 0.901042,-0.01664 1.370613,0.0058 1.873363,0.0894 1.201241,0.199735 2.473053,0.678796 3.401369,1.28122 0.420214,0.2727 1.293109,1.051096 1.293109,1.153127 0,0.03238 -0.09924,0.0589 -0.220581,0.0589 -0.438526,0 -1.578055,0.261169 -1.726525,0.395704 -0.02845,0.02573 0.300768,0.175358 0.731555,0.332437 1.53208,0.558666 2.690302,1.241494 3.94223,2.324143 l 0.698302,0.603878 0.04466,-1.060897 c 0.07097,-1.685446 0.184306,-2.054748 0.812819,-2.649199 0.567814,-0.537007 0.949027,-0.682477 1.994465,-0.761065 0.479778,-0.03607 0.902255,-0.09429 0.938832,-0.12938 0.09913,-0.09504 -0.4551,-0.558205 -1.529575,-1.278352 -0.887402,-0.594771 -1.223321,-0.795646 -2.593694,-1.551026 -0.780599,-0.430286 -0.918186,-0.619632 -0.885456,-1.218539 0.04527,-0.828674 0.589272,-1.653004 1.493527,-2.263188 0.269132,-0.181579 0.489265,-0.355921 0.489265,-0.38742 0,-0.11158 -0.378152,-0.150844 -1.394708,-0.144805 -1.104921,0.0064 -1.322409,0.02873 -1.818468,0.185176 -0.176112,0.05557 -0.335943,0.08527 -0.355168,0.06604 -0.01917,-0.01923 0.07177,-0.27141 0.202305,-0.560403 0.27009,-0.598255 0.400386,-1.152166 0.516468,-2.196091 0.05291,-0.475626 0.05937,-0.803259 0.01856,-0.944572 l -0.06207,-0.216353 -0.443689,0.559956 c -0.564737,0.712844 -1.548016,1.652274 -2.186071,2.088678 -0.272743,0.186542 -1.06118,0.645793 -1.752094,1.020559 -1.989132,1.078949 -2.747152,1.600925 -3.889748,2.67851 -0.468659,0.441993 -0.713326,0.632019 -0.726833,0.56451 -0.02894,-0.144687 0.450809,-1.071527 0.799406,-1.544386 0.382365,-0.518665 1.324757,-1.504994 1.841906,-1.927778 0.507607,-0.414982 0.639657,-0.685863 0.742223,-1.522534 0.156925,-1.280097 -0.02067,-2.618379 -0.536579,-4.043088 -0.26884,-0.74243 -0.374555,-0.842089 -0.432208,-0.407441 -0.18496,1.394388 -0.446696,2.046909 -1.252961,3.123704 -0.486169,0.649294 -1.184956,1.339927 -3.936635,3.89069 -1.634716,1.515353 -2.915759,2.905133 -3.645282,3.954698 -0.206508,0.297099 -0.425589,0.581409 -0.486847,0.631796 -0.101458,0.08344 -0.107344,0.07124 -0.06607,-0.137017 0.07099,-0.358185 0.657614,-1.524482 0.995501,-1.979152 0.517187,-0.695946 1.200601,-1.437923 3.141732,-3.410955 1.849014,-1.879396 2.197863,-2.283853 2.346843,-2.720951 0.105258,-0.308808 0.09495,-1.208196 -0.02006,-1.75091 -0.179118,-0.845184 -0.501437,-1.333573 -0.501437,-0.759788 0,0.327693 -0.379523,1.470459 -0.698834,2.104221 -0.156842,0.31132 -0.477342,0.790493 -0.712215,1.064826 -0.434263,0.507225 -2.056205,2.077638 -4.499142,4.356213 -1.497169,1.396439 -2.038878,2.044105 -2.507497,2.997962 -0.382795,0.779154 -0.491381,1.307979 -0.492822,2.400007 -6.36e-4,0.481664 -0.01929,0.923092 -0.04152,0.980949 -0.02267,0.05912 -0.117388,0.105312 -0.216141,0.105445 -0.444485,6.29e-4 -0.937559,0.563153 -0.992216,1.131971 -0.02388,0.248227 -0.05876,0.330732 -0.139712,0.330252 -0.230825,-0.0014 -0.98565,-0.659378 -1.33333,-1.162308 -0.19077,-0.27595 -0.374663,-0.484539 -0.408659,-0.463527 -0.03398,0.021 -0.06144,0.388084 -0.06094,0.815716 0.0023,2.149684 0.82403,3.829886 2.459812,5.030329 l 0.432281,0.317231 0.03551,-0.655651 c 0.04218,-0.778933 0.183691,-1.145348 0.597352,-1.546795 0.598723,-0.58104 1.593932,-0.88388 2.845505,-0.865874 0.376834,0.0055 0.700756,-0.0058 0.719831,-0.02453 0.01905,-0.01905 -0.0124,-0.125762 -0.06998,-0.237063 -0.128898,-0.249279 -0.135339,-0.738392 -0.01354,-1.029864 0.204699,-0.489914 0.883681,-0.878523 1.904047,-1.089761 0.747278,-0.154701 2.884739,-0.152016 3.447002,0.0043 0.543518,0.151136 1.141847,0.416294 1.141847,0.506024 0,0.04287 -0.190544,0.07017 -0.48971,0.07017 -0.585208,0 -1.011522,0.07448 -1.524304,0.266346 -0.444315,0.166241 -0.471274,0.257869 -0.179878,0.611381 0.256103,0.310705 0.516187,0.871687 0.569763,1.228943 0.03282,0.218819 0.0053,0.358688 -0.128734,0.651182 -0.194351,0.424513 -0.429302,0.567401 -0.933014,0.567401 -0.509271,0 -0.528696,0.02907 -0.296024,0.441223 0.177092,0.313783 0.20061,0.411639 0.174538,0.726041 -0.05178,0.624563 -0.46346,0.932989 -1.169631,0.876306 l -0.427458,-0.03435 0.04513,0.24232 c 0.123034,0.660707 0.118569,0.768678 -0.04165,1.007143 -0.250533,0.372913 -0.581814,0.499664 -1.285217,0.491744 -0.458085,-0.0056 -0.711693,-0.04648 -1.080709,-0.17605 -0.357184,-0.125427 -0.482159,-0.146641 -0.482159,-0.08179 0,0.164639 0.652702,1.062519 1.07477,1.478545 0.575033,0.566782 0.96973,0.84131 1.751696,1.218357 1.239847,0.597826 2.946484,0.978164 4.588848,1.022667 0.512089,0.01423 1.028334,0.01144 1.147211,-0.0065 z M 24.333837,33.014759 c -0.0661,-0.04067 0.155966,-0.584686 0.423779,-1.038155 0.60088,-1.017422 1.777001,-2.056749 2.500419,-2.209596 l 0.216144,-0.04567 v 0.372385 c 0,0.620884 -0.521431,1.65744 -1.208992,2.403352 -0.332677,0.360912 -0.580186,0.503229 -0.985677,0.56676 -0.282534,0.04425 -0.841093,0.01527 -0.945672,-0.0491 z"
       id="path2-65" />
    <rect
       style="opacity:0.5;fill:none;fill-opacity:1;stroke:#000000;stroke-width:2.72727;stroke-dasharray:none;stroke-opacity:1;filter:url(#filter1-3)"
       id="rect1-5-5"
       width="49.090908"
       height="49.090908"
       x="7.4405394"
       y="7.4604964"
       rx="7.4768682"
       ry="7.477273"
       transform="matrix(0.43046721,0,0,0.43046721,34.695898,34.707264)" />
    <rect
       style="fill:#c4c2c5;fill-opacity:1;stroke:#1e2430;stroke-width:1.174;stroke-dasharray:none;stroke-opacity:1"
       id="rect1-3"
       width="21.132023"
       height="21.132023"
       x="37.898808"
       y="37.918762"
       rx="3.2185469"
       ry="3.2187209" />
    <rect
       style="fill:#1e2430;fill-opacity:1;stroke:none;stroke-width:1.00656;stroke-dasharray:none;stroke-opacity:1"
       id="rect1-6-5"
       width="18.118069"
       height="18.118069"
       x="39.405781"
       y="39.425739"
       rx="2.4074855"
       ry="2.4074855" />
    <path
       id="path1"
       style="fill:#f4e3cf;fill-opacity:1;stroke:none;stroke-width:0.181638;stroke-dasharray:none;stroke-dashoffset:2.2;stroke-opacity:0.6"
       d="m 51.778779,43.941045 c -0.187252,-8.1e-5 -0.387675,0.07531 -0.638521,0.222291 -0.596919,0.349749 -1.377579,0.514692 -2.44963,0.514692 -1.071954,0 -1.878654,-0.168464 -2.472018,-0.516184 -0.475801,-0.278826 -0.759862,-0.282522 -1.159175,-0.01336 -1.025175,0.690863 -1.797804,2.90589 -2.024459,5.800365 -0.135901,1.735692 -0.0089,2.650757 0.440096,3.165728 0.216586,0.248286 0.748267,0.206204 1.227806,-0.09847 0.406495,-0.258249 0.890832,-0.828123 1.469484,-1.729077 0.522892,-0.81415 1.155362,-1.082294 2.554068,-1.084584 1.395926,-0.0021 1.944506,0.26195 2.588383,1.251671 1.08027,1.660535 2.078776,2.238636 2.664465,1.542581 0.324469,-0.385605 0.383859,-0.758167 0.368487,-2.309398 -0.028,-2.817903 -0.76459,-5.381404 -1.826034,-6.359807 C 52.239036,44.06691 52.019542,43.9412 51.778779,43.9411 Z m -6.06442,1.660439 h 0.647469 0.647466 v 0.554974 0.554973 h 0.554977 0.554971 v 0.693717 0.693714 h -0.554971 -0.554977 v 0.601222 0.601221 h -0.586297 c -0.322099,0 -0.612073,-0.02889 -0.645977,-0.06265 -0.0339,-0.03389 -0.06262,-0.303056 -0.06262,-0.599727 V 48.098857 H 45.159418 44.604442 V 47.405144 46.71143 h 0.554976 0.55497 v -0.55498 z m 5.278213,0 c 0.5841,0 0.834244,0.647172 0.413247,1.068174 -0.26774,0.267713 -0.512097,0.288754 -0.77577,0.06565 -0.457352,-0.386999 -0.218646,-1.133819 0.362523,-1.133819 z m -1.123373,1.18603 c 0.145866,1.01e-4 0.292703,0.05822 0.408766,0.186472 0.180933,0.199943 0.20047,0.65765 0.03732,0.871247 -0.319324,0.418037 -1.086073,0.14915 -1.086073,-0.380423 0,-0.401918 0.319131,-0.677526 0.640008,-0.677304 z m 2.292994,0.02255 c 0.168103,0.0031 0.331322,0.05875 0.426667,0.164095 0.180934,0.199943 0.200443,0.65765 0.0373,0.87125 -0.339646,0.444632 -1.086079,0.147034 -1.086079,-0.432643 0,-0.1757 0.07042,-0.36615 0.168576,-0.455016 0.112217,-0.101585 0.285435,-0.150764 0.45353,-0.147674 z m -1.12934,1.19647 c 0.517834,0 0.769797,0.549277 0.456506,0.996564 -0.107097,0.152907 -0.23771,0.20587 -0.507235,0.20587 -0.310298,0 -0.382306,-0.04038 -0.507228,-0.281972 -0.246338,-0.476336 0.02255,-0.920482 0.557957,-0.920482 z" />
  </g>
</svg>
