<?xml version="1.0" encoding="UTF-8" standalone="no"?>
<svg
   width="64"
   height="64"
   version="1.1"
   id="svg73"
   sodipodi:docname="steam_icon_281990.svg"
   inkscape:version="1.4.2 (ebf0e940d0, 2025-05-08)"
   xmlns:inkscape="http://www.inkscape.org/namespaces/inkscape"
   xmlns:sodipodi="http://sodipodi.sourceforge.net/DTD/sodipodi-0.dtd"
   xmlns="http://www.w3.org/2000/svg"
   xmlns:svg="http://www.w3.org/2000/svg"
   xmlns:rdf="http://www.w3.org/1999/02/22-rdf-syntax-ns#"
   xmlns:cc="http://creativecommons.org/ns#"
   xmlns:dc="http://purl.org/dc/elements/1.1/">
  <metadata
     id="metadata77">
    <rdf:RDF>
      <cc:Work
         rdf:about="">
        <dc:format>image/svg+xml</dc:format>
        <dc:type
           rdf:resource="http://purl.org/dc/dcmitype/StillImage" />
      </cc:Work>
    </rdf:RDF>
  </metadata>
  <sodipodi:namedview
     pagecolor="#f5f7fa"
     bordercolor="#666666"
     borderopacity="1"
     objecttolerance="10"
     gridtolerance="10"
     guidetolerance="10"
     inkscape:pageopacity="0"
     inkscape:pageshadow="2"
     inkscape:window-width="1024"
     inkscape:window-height="621"
     id="namedview75"
     showgrid="false"
     inkscape:zoom="6.2890625"
     inkscape:cx="51.677019"
     inkscape:cy="37.684472"
     inkscape:window-x="24"
     inkscape:window-y="21"
     inkscape:window-maximized="0"
     inkscape:current-layer="g877"
     inkscape:document-rotation="0"
     inkscape:pagecheckerboard="0"
     inkscape:showpageshadow="2"
     inkscape:deskcolor="#d1d1d1" />
  <defs
     id="defs29">
    <filter
       style="color-interpolation-filters:sRGB;"
       inkscape:label="Blur"
       id="filter1"
       x="-0.091333304"
       y="-0.091333304"
       width="1.1826666"
       height="1.1826666">
      <feGaussianBlur
         stdDeviation="1.3 1.3"
         result="blur"
         id="feGaussianBlur1" />
    </filter>
    <filter
       style="color-interpolation-filters:sRGB"
       inkscape:label="Blur"
       id="filter1-3"
       x="-0.091333304"
       y="-0.091333304"
       width="1.1826666"
       height="1.1826666">
      <feGaussianBlur
         stdDeviation="1.3 1.3"
         result="blur"
         id="feGaussianBlur1-6" />
    </filter>
  </defs>
  <circle
     cx="32.516094"
     cy="31.877844"
     r="0"
     fill="url(#b)"
     stroke-width="1.5715"
     id="circle41"
     style="fill:url(#b)" />
  <g
     aria-label="GZ"
     transform="matrix(1.2212657,0,0,0.81882264,0.4960938,-0.1661539)"
     id="text93"
     style="font-weight:bold;font-size:11.5263px;line-height:1.25;font-family:sans-serif;-inkscape-font-specification:'sans-serif Bold';fill:#f2f2f2;stroke-width:0.288159" />
  <g
     id="g877"
     transform="matrix(1.1,0,0,1.1,-3.1845928,-3.2065454)">
    <rect
       style="fill:none;fill-opacity:1;stroke:#000000;stroke-width:2.72727;stroke-dasharray:none;stroke-opacity:1;filter:url(#filter1);opacity:0.5"
       id="rect1-5"
       width="49.090908"
       height="49.090908"
       x="7.4405394"
       y="7.4604964"
       rx="7.4768682"
       ry="7.477273" />
    <rect
       style="opacity:1;fill:#c4c2c5;stroke-width:2.72727273;stroke-opacity:1;fill-opacity:1;stroke:#1e2430;stroke-dasharray:none"
       id="rect1"
       width="49.090908"
       height="49.090908"
       x="7.4405394"
       y="7.4604964"
       rx="7.4768682"
       ry="7.477273" />
    <rect
       style="fill:#1e2430;fill-opacity:1;stroke:none;stroke-width:2.33829;stroke-dasharray:none;stroke-opacity:1"
       id="rect1-6"
       width="42.089317"
       height="42.089317"
       x="10.941335"
       y="10.961291"
       rx="5.5927272"
       ry="5.5927272" />
    <path
       style="fill:#f4e3cf;stroke-width:0.110987;fill-opacity:1"
       d="m 31.079166,47.351526 c -1.380756,-0.145104 -2.486074,-0.414469 -3.699592,-0.90161 -1.920524,-0.770945 -3.263802,-1.758378 -4.770632,-3.506852 -1.516104,-1.75924 -2.329926,-3.282885 -3.139382,-5.877584 -0.124496,-0.399073 -0.3021,-1.41306 -0.409707,-2.339129 -0.188356,-1.620989 -0.01415,-3.978825 0.41215,-5.577998 0.223772,-0.839455 0.276435,-1.014328 0.490222,-1.627822 0.361531,-1.037476 0.400288,-1.130479 0.939464,-2.254435 0.839561,-1.750138 1.849465,-3.167078 3.316802,-4.653618 2.094368,-2.121778 4.137789,-3.348516 6.453719,-3.874393 0.426201,-0.09678 0.906827,-0.125782 2.071773,-0.125024 1.695812,9.09e-4 2.488342,0.124115 3.65291,0.56698 1.303491,0.495694 2.957352,1.562496 3.696275,2.38424 0.07424,0.08256 0.342577,0.366538 0.5963,0.631058 0.449363,0.468484 1.300766,1.572348 1.527112,1.97994 0.06195,0.111551 0.236443,0.412175 0.387767,0.668053 1.133194,1.916149 1.972546,4.505055 2.28404,7.044936 0.179176,1.461008 0.110544,3.66305 -0.164902,5.290421 -0.131723,0.778213 -0.603945,2.70918 -0.769032,3.144652 -0.05399,0.142436 -0.173435,0.458751 -0.265409,0.702924 -0.223028,0.59208 -0.758155,1.721994 -1.042928,2.202133 -0.126431,0.213169 -0.295139,0.50412 -0.374909,0.646551 -0.453718,0.810178 -1.731801,2.293886 -2.579948,2.995026 -1.038661,0.858644 -2.552575,1.704134 -3.580647,1.999728 -0.244173,0.0702 -0.524054,0.158775 -0.621955,0.196821 -0.65939,0.256245 -3.150834,0.417274 -4.409491,0.285002 z m 2.863541,-1.412318 c 0.642165,-0.129859 1.322655,-0.349826 1.612965,-0.521402 0.06104,-0.03606 0.188863,-0.09911 0.284045,-0.140072 0.247337,-0.106458 1.113449,-0.677185 1.412594,-0.930831 0.496328,-0.420845 1.202118,-1.186819 1.709833,-1.855631 0.283303,-0.373195 0.515095,-0.697187 0.515095,-0.719985 0,-0.0228 0.112033,-0.2169 0.248961,-0.431342 0.473728,-0.741905 0.920774,-1.711297 1.578804,-3.423558 0.06256,-0.162782 0.142915,-0.362561 0.178578,-0.443951 0.07543,-0.172162 0.421705,-1.474595 0.521307,-1.960785 0.386328,-1.885797 0.479747,-3.25059 0.367521,-5.369157 -0.04933,-0.931271 -0.118814,-1.827271 -0.154403,-1.991111 -0.0356,-0.163837 -0.102827,-0.529264 -0.149424,-0.812051 -0.04658,-0.28279 -0.198509,-0.932069 -0.33759,-1.442843 -0.966277,-3.548667 -2.815726,-6.001362 -5.404307,-7.167062 -0.685456,-0.308678 -0.920503,-0.300674 -1.631849,0.05555 -0.582686,0.291805 -1.621432,1.157452 -1.819441,1.516246 -0.05192,0.0941 -0.251477,0.365482 -0.443438,0.603077 -0.374732,0.463816 -0.665547,0.977122 -0.855931,1.510781 -0.152561,0.427639 -0.170041,1.960455 -0.02792,2.449042 0.134539,0.462544 0.569409,1.012227 0.981625,1.240788 0.332442,0.184328 0.345523,0.185721 0.541112,0.05757 0.110241,-0.07224 0.264639,-0.281111 0.343108,-0.464176 0.07847,-0.183064 0.193124,-0.383294 0.254784,-0.444953 0.06166,-0.06165 0.14595,-0.175342 0.187311,-0.252628 0.132588,-0.247734 0.333367,-0.306486 0.522904,-0.153005 0.164284,0.133029 0.172879,0.132999 0.316791,-0.001 0.08135,-0.0758 0.166619,-0.136755 0.189466,-0.135461 0.09622,0.0055 0.271661,0.196951 0.35691,0.389588 0.2947,0.66593 -0.154089,1.478523 -1.055285,1.910745 -0.419189,0.201046 -0.497888,0.212923 -1.410914,0.212979 -1.076691,6.5e-5 -1.511417,-0.09139 -2.177692,-0.458134 -0.543546,-0.299186 -0.964401,-0.766811 -1.279748,-1.421961 -0.660978,-1.373216 -0.660977,-2.466256 7e-6,-4.140073 0.14683,-0.371819 0.298947,-0.717429 0.338038,-0.768017 0.0391,-0.05059 0.167715,-0.296324 0.285829,-0.546079 0.199952,-0.42278 0.589859,-0.992703 0.76495,-1.118099 0.171714,-0.122979 -0.07033,-0.04323 -0.464687,0.153142 -1.263902,0.629301 -2.217729,1.475402 -3.371831,2.991018 -0.147466,0.193656 -0.268119,0.367816 -0.268119,0.387023 0,0.0192 -0.11078,0.210369 -0.246179,0.424811 -0.720559,1.141191 -1.606426,3.704607 -1.924655,5.569319 -0.341119,1.998866 -0.374258,2.408169 -0.374397,4.62449 -1.5e-4,2.901781 0.182795,4.328278 0.811321,6.325077 0.162561,0.516457 0.628811,1.605814 0.74723,1.74586 0.05432,0.06424 0.09878,0.138663 0.09878,0.165368 0,0.05243 0.446954,0.80367 0.514441,0.864692 0.02251,0.02034 0.140709,0.184714 0.262683,0.365255 0.634596,0.939327 2.355137,2.342539 3.528485,2.877708 1.408616,0.642476 2.85066,0.890016 3.922343,0.673307 z"
       id="path1-7" />
    <rect
       style="opacity:0.5;fill:none;fill-opacity:1;stroke:#000000;stroke-width:2.72727;stroke-dasharray:none;stroke-opacity:1;filter:url(#filter1-3)"
       id="rect1-5-5"
       width="49.090908"
       height="49.090908"
       x="7.4405394"
       y="7.4604964"
       rx="7.4768682"
       ry="7.477273"
       transform="matrix(0.43046721,0,0,0.43046721,34.695898,34.707264)" />
    <rect
       style="fill:#c4c2c5;fill-opacity:1;stroke:#1e2430;stroke-width:1.174;stroke-dasharray:none;stroke-opacity:1"
       id="rect1-3"
       width="21.132023"
       height="21.132023"
       x="37.898808"
       y="37.918762"
       rx="3.2185469"
       ry="3.2187209" />
    <rect
       style="fill:#1e2430;fill-opacity:1;stroke:none;stroke-width:1.00656;stroke-dasharray:none;stroke-opacity:1"
       id="rect1-6-5"
       width="18.118069"
       height="18.118069"
       x="39.405781"
       y="39.425739"
       rx="2.4074855"
       ry="2.4074855" />
    <path
       id="path1"
       style="fill:#f4e3cf;fill-opacity:1;stroke:none;stroke-width:0.181638;stroke-dasharray:none;stroke-dashoffset:2.2;stroke-opacity:0.6"
       d="m 51.778779,43.941045 c -0.187252,-8.1e-5 -0.387675,0.07531 -0.638521,0.222291 -0.596919,0.349749 -1.377579,0.514692 -2.44963,0.514692 -1.071954,0 -1.878654,-0.168464 -2.472018,-0.516184 -0.475801,-0.278826 -0.759862,-0.282522 -1.159175,-0.01336 -1.025175,0.690863 -1.797804,2.90589 -2.024459,5.800365 -0.135901,1.735692 -0.0089,2.650757 0.440096,3.165728 0.216586,0.248286 0.748267,0.206204 1.227806,-0.09847 0.406495,-0.258249 0.890832,-0.828123 1.469484,-1.729077 0.522892,-0.81415 1.155362,-1.082294 2.554068,-1.084584 1.395926,-0.0021 1.944506,0.26195 2.588383,1.251671 1.08027,1.660535 2.078776,2.238636 2.664465,1.542581 0.324469,-0.385605 0.383859,-0.758167 0.368487,-2.309398 -0.028,-2.817903 -0.76459,-5.381404 -1.826034,-6.359807 C 52.239036,44.06691 52.019542,43.9412 51.778779,43.9411 Z m -6.06442,1.660439 h 0.647469 0.647466 v 0.554974 0.554973 h 0.554977 0.554971 v 0.693717 0.693714 h -0.554971 -0.554977 v 0.601222 0.601221 h -0.586297 c -0.322099,0 -0.612073,-0.02889 -0.645977,-0.06265 -0.0339,-0.03389 -0.06262,-0.303056 -0.06262,-0.599727 V 48.098857 H 45.159418 44.604442 V 47.405144 46.71143 h 0.554976 0.55497 v -0.55498 z m 5.278213,0 c 0.5841,0 0.834244,0.647172 0.413247,1.068174 -0.26774,0.267713 -0.512097,0.288754 -0.77577,0.06565 -0.457352,-0.386999 -0.218646,-1.133819 0.362523,-1.133819 z m -1.123373,1.18603 c 0.145866,1.01e-4 0.292703,0.05822 0.408766,0.186472 0.180933,0.199943 0.20047,0.65765 0.03732,0.871247 -0.319324,0.418037 -1.086073,0.14915 -1.086073,-0.380423 0,-0.401918 0.319131,-0.677526 0.640008,-0.677304 z m 2.292994,0.02255 c 0.168103,0.0031 0.331322,0.05875 0.426667,0.164095 0.180934,0.199943 0.200443,0.65765 0.0373,0.87125 -0.339646,0.444632 -1.086079,0.147034 -1.086079,-0.432643 0,-0.1757 0.07042,-0.36615 0.168576,-0.455016 0.112217,-0.101585 0.285435,-0.150764 0.45353,-0.147674 z m -1.12934,1.19647 c 0.517834,0 0.769797,0.549277 0.456506,0.996564 -0.107097,0.152907 -0.23771,0.20587 -0.507235,0.20587 -0.310298,0 -0.382306,-0.04038 -0.507228,-0.281972 -0.246338,-0.476336 0.02255,-0.920482 0.557957,-0.920482 z" />
  </g>
</svg>
