<?xml version="1.0" encoding="UTF-8" standalone="no"?>
<svg
   width="64"
   height="64"
   version="1.1"
   id="svg73"
   sodipodi:docname="accessories-calculator.svg"
   inkscape:version="1.2.2 (b0a8486541, 2022-12-01)"
   xmlns:inkscape="http://www.inkscape.org/namespaces/inkscape"
   xmlns:sodipodi="http://sodipodi.sourceforge.net/DTD/sodipodi-0.dtd"
   xmlns="http://www.w3.org/2000/svg"
   xmlns:svg="http://www.w3.org/2000/svg"
   xmlns:rdf="http://www.w3.org/1999/02/22-rdf-syntax-ns#"
   xmlns:cc="http://creativecommons.org/ns#"
   xmlns:dc="http://purl.org/dc/elements/1.1/">
  <metadata
     id="metadata77">
    <rdf:RDF>
      <cc:Work
         rdf:about="">
        <dc:format>image/svg+xml</dc:format>
        <dc:type
           rdf:resource="http://purl.org/dc/dcmitype/StillImage" />
      </cc:Work>
    </rdf:RDF>
  </metadata>
  <sodipodi:namedview
     pagecolor="#f5f7fa"
     bordercolor="#666666"
     borderopacity="1"
     objecttolerance="10"
     gridtolerance="10"
     guidetolerance="10"
     inkscape:pageopacity="0"
     inkscape:pageshadow="2"
     inkscape:window-width="1280"
     inkscape:window-height="603"
     id="namedview75"
     showgrid="false"
     inkscape:zoom="6.2890625"
     inkscape:cx="51.677019"
     inkscape:cy="37.843478"
     inkscape:window-x="35"
     inkscape:window-y="32"
     inkscape:window-maximized="0"
     inkscape:current-layer="g877"
     inkscape:document-rotation="0"
     inkscape:pagecheckerboard="0"
     inkscape:showpageshadow="2"
     inkscape:deskcolor="#d1d1d1" />
  <defs
     id="defs29">
    <filter
       style="color-interpolation-filters:sRGB;"
       inkscape:label="Blur"
       id="filter1"
       x="-0.091333304"
       y="-0.091333304"
       width="1.1826666"
       height="1.1826666">
      <feGaussianBlur
         stdDeviation="1.3 1.3"
         result="blur"
         id="feGaussianBlur1" />
    </filter>
    <filter
       style="color-interpolation-filters:sRGB"
       inkscape:label="Blur"
       id="filter1-3"
       x="-0.091333304"
       y="-0.091333304"
       width="1.1826666"
       height="1.1826666">
      <feGaussianBlur
         stdDeviation="1.3 1.3"
         result="blur"
         id="feGaussianBlur1-6" />
    </filter>
  </defs>
  <circle
     cx="32.516094"
     cy="31.877844"
     r="0"
     fill="url(#b)"
     stroke-width="1.5715"
     id="circle41"
     style="fill:url(#b)" />
  <g
     aria-label="GZ"
     transform="matrix(1.2212657,0,0,0.81882264,0.4960938,-0.1661539)"
     id="text93"
     style="font-weight:bold;font-size:11.5263px;line-height:1.25;font-family:sans-serif;-inkscape-font-specification:'sans-serif Bold';fill:#f2f2f2;stroke-width:0.288159" />
  <g
     id="g877"
     transform="matrix(1.1,0,0,1.1,-3.1845928,-3.2065454)">
    <rect
       style="fill:none;fill-opacity:1;stroke:#000000;stroke-width:2.72727;stroke-dasharray:none;stroke-opacity:1;filter:url(#filter1);opacity:0.5"
       id="rect1-5"
       width="49.090908"
       height="49.090908"
       x="7.4405394"
       y="7.4604964"
       rx="7.4768682"
       ry="7.477273" />
    <rect
       style="opacity:1;fill:#c4c2c5;stroke-width:2.72727273;stroke-opacity:1;fill-opacity:1;stroke:#1e2430;stroke-dasharray:none"
       id="rect1"
       width="49.090908"
       height="49.090908"
       x="7.4405394"
       y="7.4604964"
       rx="7.4768682"
       ry="7.477273" />
    <rect
       style="fill:#1e2430;fill-opacity:1;stroke:none;stroke-width:2.33829;stroke-dasharray:none;stroke-opacity:1"
       id="rect1-6"
       width="42.089317"
       height="42.089317"
       x="10.941335"
       y="10.961291"
       rx="5.5927272"
       ry="5.5927272" />
    <path
       style="fill:#f4e3cf;fill-opacity:1;stroke:none;stroke-width:0.354767;stroke-dasharray:none;stroke-opacity:0.6"
       d="m 18.406189,45.43562 c 0.01228,-0.09352 0.108608,-0.915113 0.213814,-1.825696 0.157447,-1.363013 0.202822,-1.651992 0.25662,-1.635123 0.194262,0.06092 0.649663,0.04923 0.869899,-0.02257 0.394298,-0.128056 0.938751,-0.431644 1.169937,-0.65241 0.119571,-0.114141 0.815116,-0.952636 1.545684,-1.863221 1.036625,-1.292061 2.079422,-2.589299 2.296024,-2.856245 0.04515,-0.05563 0.441702,0.217025 0.554006,0.380957 0.17144,0.250299 0.316961,0.667875 0.356008,1.021862 l 0.03246,0.29285 0.383125,0.05944 c 0.388629,0.06021 0.77261,0.206047 0.987052,0.374691 0.159342,0.125335 0.330775,0.363469 0.330775,0.45946 0,0.04871 -0.885696,0.792106 -2.34733,1.970132 -1.523097,1.227566 -2.400924,1.965478 -2.49996,2.101507 -0.414269,0.568936 -0.667151,1.350563 -0.56309,1.74044 0.02802,0.105513 0.04742,0.195873 0.04267,0.200604 -0.0072,0.0074 -3.570092,0.423128 -3.627467,0.423128 -0.01228,0 -0.01228,-0.07654 -7.4e-5,-0.170114 z m 9.724339,-4.152905 c -0.05605,-0.147569 -0.13942,-0.90505 -0.13942,-1.267523 0,-1.001748 -0.613264,-1.750293 -1.646623,-2.009859 l -0.294997,-0.07416 -0.07423,-0.295448 c -0.134435,-0.535214 -0.437914,-1.018371 -0.808095,-1.286529 -0.323385,-0.234276 -0.630397,-0.317026 -1.343716,-0.362235 -0.359823,-0.02251 -0.752809,-0.05455 -0.873284,-0.07049 -0.419667,-0.0557 -0.427425,-0.01984 0.247417,-1.152227 0.334228,-0.560956 0.936813,-1.573522 1.339082,-2.250145 0.598923,-1.007413 0.756134,-1.240471 0.867983,-1.286801 0.09702,-0.04016 0.260371,-0.04729 0.563499,-0.02455 0.525069,0.03936 0.617049,0.110077 0.66742,0.513041 0.08813,0.705043 0.07691,0.755141 -0.345453,1.541881 -0.212095,0.394998 -0.385549,0.753851 -0.385549,0.797447 0,0.133294 0.117914,0.313482 0.360146,0.550152 l 0.231185,0.22589 7.891339,-7.891576 7.891342,-7.891584 1.644561,-0.323763 c 0.904506,-0.178072 1.647725,-0.320943 1.65159,-0.317514 0.004,0.0036 -0.136097,0.741068 -0.311006,1.639172 l -0.3181,1.63292 -7.898031,7.902973 -7.898031,7.902969 0.225933,0.231157 c 0.270744,0.277049 0.446906,0.377295 0.606405,0.345019 0.06519,-0.01268 0.421085,-0.188698 0.790972,-0.389954 0.737063,-0.401116 0.752523,-0.404601 1.44949,-0.327133 0.455608,0.05065 0.524516,0.135447 0.560954,0.690085 0.02214,0.340909 0.01352,0.458986 -0.04144,0.565383 -0.05472,0.105544 -0.545686,0.417644 -2.280751,1.449888 -1.216062,0.72348 -2.228345,1.322181 -2.249517,1.330438 -0.02124,0.008 -0.05765,-0.03529 -0.0811,-0.09692 z M 44.454537,19.508789 c -0.01144,-0.01051 -0.43922,0.02001 -0.950642,0.068 l -0.92987,0.08727 -7.585907,7.584014 -7.585916,7.584012 0.441439,0.443098 0.441436,0.443097 8.095116,-8.095116 c 4.452313,-4.452317 8.085757,-8.103784 8.074344,-8.114382 z"
       id="path1-7" />
    <rect
       style="opacity:0.5;fill:none;fill-opacity:1;stroke:#000000;stroke-width:2.72727;stroke-dasharray:none;stroke-opacity:1;filter:url(#filter1-3)"
       id="rect1-5-5"
       width="49.090908"
       height="49.090908"
       x="7.4405394"
       y="7.4604964"
       rx="7.4768682"
       ry="7.477273"
       transform="matrix(0.43046721,0,0,0.43046721,34.695898,34.707264)" />
    <rect
       style="fill:#c4c2c5;fill-opacity:1;stroke:#1e2430;stroke-width:1.174;stroke-dasharray:none;stroke-opacity:1"
       id="rect1-3"
       width="21.132023"
       height="21.132023"
       x="37.898808"
       y="37.918762"
       rx="3.2185469"
       ry="3.2187209" />
    <rect
       style="fill:#1e2430;fill-opacity:1;stroke:none;stroke-width:1.00656;stroke-dasharray:none;stroke-opacity:1"
       id="rect1-6-5"
       width="18.118069"
       height="18.118069"
       x="39.405781"
       y="39.425739"
       rx="2.4074855"
       ry="2.4074855" />
    <path
       id="path1"
       style="fill:#f4e3cf;fill-opacity:1;stroke:none;stroke-width:0.181638;stroke-dasharray:none;stroke-dashoffset:2.2;stroke-opacity:0.6"
       d="m 51.778779,43.941045 c -0.187252,-8.1e-5 -0.387675,0.07531 -0.638521,0.222291 -0.596919,0.349749 -1.377579,0.514692 -2.44963,0.514692 -1.071954,0 -1.878654,-0.168464 -2.472018,-0.516184 -0.475801,-0.278826 -0.759862,-0.282522 -1.159175,-0.01336 -1.025175,0.690863 -1.797804,2.90589 -2.024459,5.800365 -0.135901,1.735692 -0.0089,2.650757 0.440096,3.165728 0.216586,0.248286 0.748267,0.206204 1.227806,-0.09847 0.406495,-0.258249 0.890832,-0.828123 1.469484,-1.729077 0.522892,-0.81415 1.155362,-1.082294 2.554068,-1.084584 1.395926,-0.0021 1.944506,0.26195 2.588383,1.251671 1.08027,1.660535 2.078776,2.238636 2.664465,1.542581 0.324469,-0.385605 0.383859,-0.758167 0.368487,-2.309398 -0.028,-2.817903 -0.76459,-5.381404 -1.826034,-6.359807 C 52.239036,44.06691 52.019542,43.9412 51.778779,43.9411 Z m -6.06442,1.660439 h 0.647469 0.647466 v 0.554974 0.554973 h 0.554977 0.554971 v 0.693717 0.693714 h -0.554971 -0.554977 v 0.601222 0.601221 h -0.586297 c -0.322099,0 -0.612073,-0.02889 -0.645977,-0.06265 -0.0339,-0.03389 -0.06262,-0.303056 -0.06262,-0.599727 V 48.098857 H 45.159418 44.604442 V 47.405144 46.71143 h 0.554976 0.55497 v -0.55498 z m 5.278213,0 c 0.5841,0 0.834244,0.647172 0.413247,1.068174 -0.26774,0.267713 -0.512097,0.288754 -0.77577,0.06565 -0.457352,-0.386999 -0.218646,-1.133819 0.362523,-1.133819 z m -1.123373,1.18603 c 0.145866,1.01e-4 0.292703,0.05822 0.408766,0.186472 0.180933,0.199943 0.20047,0.65765 0.03732,0.871247 -0.319324,0.418037 -1.086073,0.14915 -1.086073,-0.380423 0,-0.401918 0.319131,-0.677526 0.640008,-0.677304 z m 2.292994,0.02255 c 0.168103,0.0031 0.331322,0.05875 0.426667,0.164095 0.180934,0.199943 0.200443,0.65765 0.0373,0.87125 -0.339646,0.444632 -1.086079,0.147034 -1.086079,-0.432643 0,-0.1757 0.07042,-0.36615 0.168576,-0.455016 0.112217,-0.101585 0.285435,-0.150764 0.45353,-0.147674 z m -1.12934,1.19647 c 0.517834,0 0.769797,0.549277 0.456506,0.996564 -0.107097,0.152907 -0.23771,0.20587 -0.507235,0.20587 -0.310298,0 -0.382306,-0.04038 -0.507228,-0.281972 -0.246338,-0.476336 0.02255,-0.920482 0.557957,-0.920482 z" />
  </g>
</svg>
