<?xml version="1.0" encoding="UTF-8" standalone="no"?>
<svg
   width="64"
   height="64"
   version="1.1"
   id="svg73"
   sodipodi:docname="accessories-calculator.svg"
   inkscape:version="1.2.2 (b0a8486541, 2022-12-01)"
   xmlns:inkscape="http://www.inkscape.org/namespaces/inkscape"
   xmlns:sodipodi="http://sodipodi.sourceforge.net/DTD/sodipodi-0.dtd"
   xmlns="http://www.w3.org/2000/svg"
   xmlns:svg="http://www.w3.org/2000/svg"
   xmlns:rdf="http://www.w3.org/1999/02/22-rdf-syntax-ns#"
   xmlns:cc="http://creativecommons.org/ns#"
   xmlns:dc="http://purl.org/dc/elements/1.1/">
  <metadata
     id="metadata77">
    <rdf:RDF>
      <cc:Work
         rdf:about="">
        <dc:format>image/svg+xml</dc:format>
        <dc:type
           rdf:resource="http://purl.org/dc/dcmitype/StillImage" />
      </cc:Work>
    </rdf:RDF>
  </metadata>
  <sodipodi:namedview
     pagecolor="#f5f7fa"
     bordercolor="#666666"
     borderopacity="1"
     objecttolerance="10"
     gridtolerance="10"
     guidetolerance="10"
     inkscape:pageopacity="0"
     inkscape:pageshadow="2"
     inkscape:window-width="1280"
     inkscape:window-height="603"
     id="namedview75"
     showgrid="false"
     inkscape:zoom="6.2890625"
     inkscape:cx="51.677019"
     inkscape:cy="37.843478"
     inkscape:window-x="35"
     inkscape:window-y="32"
     inkscape:window-maximized="0"
     inkscape:current-layer="g877"
     inkscape:document-rotation="0"
     inkscape:pagecheckerboard="0"
     inkscape:showpageshadow="2"
     inkscape:deskcolor="#d1d1d1" />
  <defs
     id="defs29">
    <filter
       style="color-interpolation-filters:sRGB;"
       inkscape:label="Blur"
       id="filter1"
       x="-0.091333304"
       y="-0.091333304"
       width="1.1826666"
       height="1.1826666">
      <feGaussianBlur
         stdDeviation="1.3 1.3"
         result="blur"
         id="feGaussianBlur1" />
    </filter>
    <filter
       style="color-interpolation-filters:sRGB"
       inkscape:label="Blur"
       id="filter1-3"
       x="-0.091333304"
       y="-0.091333304"
       width="1.1826666"
       height="1.1826666">
      <feGaussianBlur
         stdDeviation="1.3 1.3"
         result="blur"
         id="feGaussianBlur1-6" />
    </filter>
  </defs>
  <circle
     cx="32.516094"
     cy="31.877844"
     r="0"
     fill="url(#b)"
     stroke-width="1.5715"
     id="circle41"
     style="fill:url(#b)" />
  <g
     aria-label="GZ"
     transform="matrix(1.2212657,0,0,0.81882264,0.4960938,-0.1661539)"
     id="text93"
     style="font-weight:bold;font-size:11.5263px;line-height:1.25;font-family:sans-serif;-inkscape-font-specification:'sans-serif Bold';fill:#f2f2f2;stroke-width:0.288159" />
  <g
     id="g877"
     transform="matrix(1.1,0,0,1.1,-3.1845928,-3.2065454)">
    <rect
       style="fill:none;fill-opacity:1;stroke:#000000;stroke-width:2.72727;stroke-dasharray:none;stroke-opacity:1;filter:url(#filter1);opacity:0.5"
       id="rect1-5"
       width="49.090908"
       height="49.090908"
       x="7.4405394"
       y="7.4604964"
       rx="7.4768682"
       ry="7.477273" />
    <rect
       style="opacity:1;fill:#c4c2c5;stroke-width:2.72727273;stroke-opacity:1;fill-opacity:1;stroke:#1e2430;stroke-dasharray:none"
       id="rect1"
       width="49.090908"
       height="49.090908"
       x="7.4405394"
       y="7.4604964"
       rx="7.4768682"
       ry="7.477273" />
    <rect
       style="fill:#1e2430;fill-opacity:1;stroke:none;stroke-width:2.33829;stroke-dasharray:none;stroke-opacity:1"
       id="rect1-6"
       width="42.089317"
       height="42.089317"
       x="10.941335"
       y="10.961291"
       rx="5.5927272"
       ry="5.5927272" />
    <path
       style="fill:#f4e3cf;fill-opacity:1;stroke:none;stroke-width:0.416787;stroke-dasharray:none;stroke-opacity:0.6"
       d="m 32.178621,45.347013 c -0.398266,-0.516159 -0.871986,-1.071176 -1.052714,-1.233361 -0.320333,-0.28747 -0.350578,-0.277048 -1.203189,0.41557 -0.481028,0.390755 -0.96071,0.762972 -1.065959,0.827143 -0.294187,0.179359 0.06159,-0.959628 0.533018,-1.706412 0.21605,-0.342224 0.392811,-0.649281 0.392811,-0.682311 0,-0.06111 -1.013704,-0.506659 -1.481185,-0.650972 -0.283329,-0.08748 -0.959235,-2.148127 -1.020931,-3.112546 -0.02569,-0.40212 -0.228396,-0.814854 -0.644668,-1.312848 -0.333932,-0.399492 -0.607149,-0.853311 -0.607149,-1.00849 0,-0.684302 1.249335,-2.514482 3.156337,-4.623797 1.341197,-1.483477 1.871036,-2.305884 2.125059,-3.298477 0.213606,-0.834665 0.238645,-0.861779 0.814265,-0.881768 0.64244,-0.02232 1.200759,-0.420413 1.42986,-1.019539 0.215672,-0.564008 -0.18046,-1.334273 -1.31138,-2.549924 -0.792156,-0.851515 -0.99161,-1.172935 -0.992917,-1.600118 -0.0015,-0.525903 1.623847,-5.176103 1.811612,-5.182763 0.05294,-0.0018 -0.04375,0.712694 -0.214811,1.58793 -0.59051,3.02123 -0.379851,4.09049 1.307326,6.635688 0.583715,0.880562 0.76243,1.310761 0.816776,1.966112 0.06046,0.729354 0.01183,0.907495 -0.372356,1.364106 -0.243061,0.288863 -1.077185,0.961064 -1.853614,1.493785 -2.161127,1.482789 -4.139349,3.458904 -4.745716,4.740661 -0.484515,1.024185 -0.65735,2.168086 -0.355749,2.354496 0.08017,0.04955 0.55907,-0.421451 1.064221,-1.046676 0.505152,-0.625215 1.596342,-1.677305 2.424863,-2.33798 4.926485,-3.928429 5.758498,-5.836817 3.790507,-8.69426 -0.676331,-0.982004 -0.633343,-1.439258 0.05765,-0.612946 1.066033,1.274844 2.636309,4.741892 2.636309,5.820765 0,0.486283 -1.258191,2.978106 -1.935566,3.833371 -0.294717,0.372116 -1.17329,1.090972 -1.952376,1.597451 -2.534192,1.647484 -3.120884,2.067322 -3.704684,2.65112 -0.316185,0.31617 -0.551186,0.645994 -0.522221,0.732894 0.02898,0.08689 0.493999,0.473934 1.033404,0.860067 l 0.980732,0.702078 1.2142,-0.902011 c 0.667807,-0.496101 1.594179,-1.119433 2.058601,-1.385151 1.117288,-0.639302 1.492566,-1.047848 2.175058,-2.36788 0.651755,-1.260576 0.979292,-1.498725 0.979292,-0.712044 0,0.800471 -0.612438,1.714097 -1.660743,2.47749 -0.522878,0.38077 -0.950692,0.737946 -0.950692,0.793733 0,0.05579 0.158548,0.172185 0.352336,0.258648 0.318367,0.142065 0.209799,0.247176 -1.125969,1.090003 -2.026343,1.278575 -2.005201,1.238102 -1.112851,2.130461 0.851997,0.851988 1.395349,1.676666 1.396231,2.11914 4.9e-4,0.22358 -0.374049,-0.03433 -1.393809,-0.960265 l -1.394421,-1.265961 -0.393939,0.370089 -0.393942,0.370093 0.542676,0.671787 c 0.298472,0.369477 0.625769,0.832091 0.727329,1.028031 0.266902,0.51492 0.514491,1.194283 0.435249,1.194283 -0.03743,0 -0.39388,-0.422308 -0.792146,-0.938482 z"
       id="path1-9" />
    <rect
       style="opacity:0.5;fill:none;fill-opacity:1;stroke:#000000;stroke-width:2.72727;stroke-dasharray:none;stroke-opacity:1;filter:url(#filter1-3)"
       id="rect1-5-5"
       width="49.090908"
       height="49.090908"
       x="7.4405394"
       y="7.4604964"
       rx="7.4768682"
       ry="7.477273"
       transform="matrix(0.43046721,0,0,0.43046721,34.695898,34.707264)" />
    <rect
       style="fill:#c4c2c5;fill-opacity:1;stroke:#1e2430;stroke-width:1.174;stroke-dasharray:none;stroke-opacity:1"
       id="rect1-3"
       width="21.132023"
       height="21.132023"
       x="37.898808"
       y="37.918762"
       rx="3.2185469"
       ry="3.2187209" />
    <rect
       style="fill:#1e2430;fill-opacity:1;stroke:none;stroke-width:1.00656;stroke-dasharray:none;stroke-opacity:1"
       id="rect1-6-5"
       width="18.118069"
       height="18.118069"
       x="39.405781"
       y="39.425739"
       rx="2.4074855"
       ry="2.4074855" />
    <path
       id="path1"
       style="fill:#f4e3cf;fill-opacity:1;stroke:none;stroke-width:0.181638;stroke-dasharray:none;stroke-dashoffset:2.2;stroke-opacity:0.6"
       d="m 51.778779,43.941045 c -0.187252,-8.1e-5 -0.387675,0.07531 -0.638521,0.222291 -0.596919,0.349749 -1.377579,0.514692 -2.44963,0.514692 -1.071954,0 -1.878654,-0.168464 -2.472018,-0.516184 -0.475801,-0.278826 -0.759862,-0.282522 -1.159175,-0.01336 -1.025175,0.690863 -1.797804,2.90589 -2.024459,5.800365 -0.135901,1.735692 -0.0089,2.650757 0.440096,3.165728 0.216586,0.248286 0.748267,0.206204 1.227806,-0.09847 0.406495,-0.258249 0.890832,-0.828123 1.469484,-1.729077 0.522892,-0.81415 1.155362,-1.082294 2.554068,-1.084584 1.395926,-0.0021 1.944506,0.26195 2.588383,1.251671 1.08027,1.660535 2.078776,2.238636 2.664465,1.542581 0.324469,-0.385605 0.383859,-0.758167 0.368487,-2.309398 -0.028,-2.817903 -0.76459,-5.381404 -1.826034,-6.359807 C 52.239036,44.06691 52.019542,43.9412 51.778779,43.9411 Z m -6.06442,1.660439 h 0.647469 0.647466 v 0.554974 0.554973 h 0.554977 0.554971 v 0.693717 0.693714 h -0.554971 -0.554977 v 0.601222 0.601221 h -0.586297 c -0.322099,0 -0.612073,-0.02889 -0.645977,-0.06265 -0.0339,-0.03389 -0.06262,-0.303056 -0.06262,-0.599727 V 48.098857 H 45.159418 44.604442 V 47.405144 46.71143 h 0.554976 0.55497 v -0.55498 z m 5.278213,0 c 0.5841,0 0.834244,0.647172 0.413247,1.068174 -0.26774,0.267713 -0.512097,0.288754 -0.77577,0.06565 -0.457352,-0.386999 -0.218646,-1.133819 0.362523,-1.133819 z m -1.123373,1.18603 c 0.145866,1.01e-4 0.292703,0.05822 0.408766,0.186472 0.180933,0.199943 0.20047,0.65765 0.03732,0.871247 -0.319324,0.418037 -1.086073,0.14915 -1.086073,-0.380423 0,-0.401918 0.319131,-0.677526 0.640008,-0.677304 z m 2.292994,0.02255 c 0.168103,0.0031 0.331322,0.05875 0.426667,0.164095 0.180934,0.199943 0.200443,0.65765 0.0373,0.87125 -0.339646,0.444632 -1.086079,0.147034 -1.086079,-0.432643 0,-0.1757 0.07042,-0.36615 0.168576,-0.455016 0.112217,-0.101585 0.285435,-0.150764 0.45353,-0.147674 z m -1.12934,1.19647 c 0.517834,0 0.769797,0.549277 0.456506,0.996564 -0.107097,0.152907 -0.23771,0.20587 -0.507235,0.20587 -0.310298,0 -0.382306,-0.04038 -0.507228,-0.281972 -0.246338,-0.476336 0.02255,-0.920482 0.557957,-0.920482 z" />
  </g>
</svg>
