<?xml version="1.0" encoding="UTF-8" standalone="no"?>
<svg
   width="64"
   height="64"
   version="1.1"
   id="svg73"
   sodipodi:docname="org.freecad.FreeCAD.svg"
   inkscape:version="1.2.2 (b0a8486541, 2022-12-01)"
   xmlns:inkscape="http://www.inkscape.org/namespaces/inkscape"
   xmlns:sodipodi="http://sodipodi.sourceforge.net/DTD/sodipodi-0.dtd"
   xmlns="http://www.w3.org/2000/svg"
   xmlns:svg="http://www.w3.org/2000/svg"
   xmlns:rdf="http://www.w3.org/1999/02/22-rdf-syntax-ns#"
   xmlns:cc="http://creativecommons.org/ns#"
   xmlns:dc="http://purl.org/dc/elements/1.1/">
  <metadata
     id="metadata77">
    <rdf:RDF>
      <cc:Work
         rdf:about="">
        <dc:format>image/svg+xml</dc:format>
        <dc:type
           rdf:resource="http://purl.org/dc/dcmitype/StillImage" />
      </cc:Work>
    </rdf:RDF>
  </metadata>
  <sodipodi:namedview
     pagecolor="#f5f7fa"
     bordercolor="#666666"
     borderopacity="1"
     objecttolerance="10"
     gridtolerance="10"
     guidetolerance="10"
     inkscape:pageopacity="0"
     inkscape:pageshadow="2"
     inkscape:window-width="1280"
     inkscape:window-height="603"
     id="namedview75"
     showgrid="false"
     inkscape:zoom="6.2890625"
     inkscape:cx="35.617391"
     inkscape:cy="37.843478"
     inkscape:window-x="35"
     inkscape:window-y="32"
     inkscape:window-maximized="0"
     inkscape:current-layer="g877"
     inkscape:document-rotation="0"
     inkscape:pagecheckerboard="0"
     inkscape:showpageshadow="2"
     inkscape:deskcolor="#d1d1d1" />
  <defs
     id="defs29">
    <filter
       style="color-interpolation-filters:sRGB;"
       inkscape:label="Blur"
       id="filter1"
       x="-0.091333304"
       y="-0.091333304"
       width="1.1826666"
       height="1.1826666">
      <feGaussianBlur
         stdDeviation="1.3 1.3"
         result="blur"
         id="feGaussianBlur1" />
    </filter>
    <filter
       style="color-interpolation-filters:sRGB"
       inkscape:label="Blur"
       id="filter1-3"
       x="-0.091333304"
       y="-0.091333304"
       width="1.1826666"
       height="1.1826666">
      <feGaussianBlur
         stdDeviation="1.3 1.3"
         result="blur"
         id="feGaussianBlur1-6" />
    </filter>
  </defs>
  <circle
     cx="32.516094"
     cy="31.877844"
     r="0"
     fill="url(#b)"
     stroke-width="1.5715"
     id="circle41"
     style="fill:url(#b)" />
  <g
     aria-label="GZ"
     transform="matrix(1.2212657,0,0,0.81882264,0.4960938,-0.1661539)"
     id="text93"
     style="font-weight:bold;font-size:11.5263px;line-height:1.25;font-family:sans-serif;-inkscape-font-specification:'sans-serif Bold';fill:#f2f2f2;stroke-width:0.288159" />
  <g
     id="g877"
     transform="matrix(1.1,0,0,1.1,-3.1845928,-3.2065454)">
    <rect
       style="fill:none;fill-opacity:1;stroke:#000000;stroke-width:2.72727;stroke-dasharray:none;stroke-opacity:1;filter:url(#filter1);opacity:0.5"
       id="rect1-5"
       width="49.090908"
       height="49.090908"
       x="7.4405394"
       y="7.4604964"
       rx="7.4768682"
       ry="7.477273" />
    <rect
       style="opacity:1;fill:#c4c2c5;stroke-width:2.72727273;stroke-opacity:1;fill-opacity:1;stroke:#1e2430;stroke-dasharray:none"
       id="rect1"
       width="49.090908"
       height="49.090908"
       x="7.4405394"
       y="7.4604964"
       rx="7.4768682"
       ry="7.477273" />
    <rect
       style="fill:#1e2430;fill-opacity:1;stroke:none;stroke-width:2.33829;stroke-dasharray:none;stroke-opacity:1"
       id="rect1-6"
       width="42.089317"
       height="42.089317"
       x="10.941335"
       y="10.961291"
       rx="5.5927272"
       ry="5.5927272" />
    <g
       id="g2"
       transform="matrix(0.17067803,0,0,0.17067803,17.981008,19.662768)"
       style="fill:#f4e3cf;fill-opacity:1;stroke:none;stroke-width:2.39686;stroke-dasharray:none;stroke-opacity:0.6">
      <path
         d="m 34.089,6.949 c 0,0 32.8,-17.843 60.859,3.654 L 79.246,64.561 c 0,0 -17.574,-12.104 -30.623,-10.8 -13.049,1.304 -30.234,7.554 -30.234,7.554 z M 15.621,70.823 c 0,0 17.604,-8.188 32.221,-7.146 14.615,1.043 26.285,8.91 28.802,10.717 l -15.865,54.521 c 0,0 -17.635,-11.476 -30.162,-10.432 C 18.089,119.53 7.229,121.438 0,125.181 Z m 69.238,8.849 c 0,0 16.744,10.888 27.705,10.627 10.799,-0.258 18.27,-1.109 32.921,-6.852 0.114,-0.045 0.412,-0.258 0.313,-0.195 -0.313,0.195 -15.699,54.031 -15.699,54.031 0,0 -17.273,8.082 -32.935,7.301 -15.658,-0.783 -25.062,-9.738 -27.929,-10.873 z"
         id="path1-6"
         style="fill:#f4e3cf;fill-opacity:1;stroke:none;stroke-width:2.39686;stroke-dasharray:none;stroke-opacity:0.6" />
      <path
         d="M 103.251,16.295 87.51,69.942 c 0,0 12.788,12.527 30.797,11.482 18.008,-1.043 27.795,-6.719 30.176,-7.52 l 15.627,-54.12 c 0,0 -20.748,8.66 -34.32,7.094 -13.571,-1.564 -22.024,-7.335 -26.539,-10.583 z"
         id="path2"
         style="fill:#f4e3cf;fill-opacity:1;stroke:none;stroke-width:2.39686;stroke-dasharray:none;stroke-opacity:0.6" />
    </g>
    <rect
       style="opacity:0.5;fill:none;fill-opacity:1;stroke:#000000;stroke-width:2.72727;stroke-dasharray:none;stroke-opacity:1;filter:url(#filter1-3)"
       id="rect1-5-5"
       width="49.090908"
       height="49.090908"
       x="7.4405394"
       y="7.4604964"
       rx="7.4768682"
       ry="7.477273"
       transform="matrix(0.43046721,0,0,0.43046721,34.695898,34.707264)" />
    <rect
       style="fill:#c4c2c5;fill-opacity:1;stroke:#1e2430;stroke-width:1.174;stroke-dasharray:none;stroke-opacity:1"
       id="rect1-3"
       width="21.132023"
       height="21.132023"
       x="37.898808"
       y="37.918762"
       rx="3.2185469"
       ry="3.2187209" />
    <rect
       style="fill:#1e2430;fill-opacity:1;stroke:none;stroke-width:1.00656;stroke-dasharray:none;stroke-opacity:1"
       id="rect1-6-5"
       width="18.118069"
       height="18.118069"
       x="39.405781"
       y="39.425739"
       rx="2.4074855"
       ry="2.4074855" />
    <path
       style="fill:#f4e3cf;fill-opacity:1;stroke:none;stroke-width:0.426217;stroke-dasharray:none;stroke-opacity:0.6"
       d="m 43.235663,54.248885 c 0.07974,-0.131773 0.984181,-1.560792 2.009892,-3.175578 l 1.864924,-2.935972 -1.806893,-2.770601 c -0.99379,-1.523832 -1.80689,-2.811965 -1.80689,-2.862518 0,-0.05055 0.539245,-0.09192 1.198323,-0.09192 h 1.198329 l 1.160481,1.856514 c 0.638265,1.021081 1.241945,1.879428 1.341506,1.90744 0.09956,0.02803 0.700065,-0.78586 1.334449,-1.808596 l 1.153421,-1.859515 1.194726,-0.05705 c 0.657098,-0.03126 1.194723,-0.0052 1.194723,0.05845 0,0.06354 -0.332083,0.606763 -0.737967,1.207186 -0.405882,0.600418 -1.217429,1.837176 -1.803434,2.748349 l -1.065468,1.65668 1.569174,2.464559 c 0.863042,1.35551 1.767885,2.788031 2.010755,3.183381 l 0.441581,0.718819 h -1.249981 -1.249981 l -1.087157,-1.773095 c -0.597935,-0.975201 -1.23531,-2.014015 -1.41638,-2.308477 l -0.329223,-0.535388 -1.422592,2.307181 -1.422589,2.307179 -1.209347,0.0014 c -0.917243,0.0012 -1.174334,-0.05658 -1.064382,-0.238321 z"
       id="path16" />
  </g>
</svg>
