<?xml version="1.0" encoding="UTF-8" standalone="no"?>
<svg
   width="64"
   height="64"
   version="1.1"
   id="svg73"
   sodipodi:docname="1password.svg"
   inkscape:version="1.4.2 (ebf0e940d0, 2025-05-08)"
   xmlns:inkscape="http://www.inkscape.org/namespaces/inkscape"
   xmlns:sodipodi="http://sodipodi.sourceforge.net/DTD/sodipodi-0.dtd"
   xmlns="http://www.w3.org/2000/svg"
   xmlns:svg="http://www.w3.org/2000/svg"
   xmlns:rdf="http://www.w3.org/1999/02/22-rdf-syntax-ns#"
   xmlns:cc="http://creativecommons.org/ns#"
   xmlns:dc="http://purl.org/dc/elements/1.1/">
  <metadata
     id="metadata77">
    <rdf:RDF>
      <cc:Work
         rdf:about="">
        <dc:format>image/svg+xml</dc:format>
        <dc:type
           rdf:resource="http://purl.org/dc/dcmitype/StillImage" />
      </cc:Work>
    </rdf:RDF>
  </metadata>
  <sodipodi:namedview
     pagecolor="#f5f7fa"
     bordercolor="#666666"
     borderopacity="1"
     objecttolerance="10"
     gridtolerance="10"
     guidetolerance="10"
     inkscape:pageopacity="0"
     inkscape:pageshadow="2"
     inkscape:window-width="1920"
     inkscape:window-height="931"
     id="namedview75"
     showgrid="false"
     inkscape:zoom="6.2890625"
     inkscape:cx="52.313043"
     inkscape:cy="37.684472"
     inkscape:window-x="0"
     inkscape:window-y="0"
     inkscape:window-maximized="1"
     inkscape:current-layer="g877"
     inkscape:document-rotation="0"
     inkscape:pagecheckerboard="0"
     inkscape:showpageshadow="2"
     inkscape:deskcolor="#d1d1d1" />
  <defs
     id="defs29">
    <filter
       style="color-interpolation-filters:sRGB;"
       inkscape:label="Blur"
       id="filter1"
       x="-0.091333304"
       y="-0.091333304"
       width="1.1826666"
       height="1.1826666">
      <feGaussianBlur
         stdDeviation="1.3 1.3"
         result="blur"
         id="feGaussianBlur1" />
    </filter>
  </defs>
  <circle
     cx="32.516094"
     cy="31.877844"
     r="0"
     fill="url(#b)"
     stroke-width="1.5715"
     id="circle41"
     style="fill:url(#b)" />
  <g
     aria-label="GZ"
     transform="matrix(1.2212657,0,0,0.81882264,0.4960938,-0.1661539)"
     id="text93"
     style="font-weight:bold;font-size:11.5263px;line-height:1.25;font-family:sans-serif;-inkscape-font-specification:'sans-serif Bold';fill:#f2f2f2;stroke-width:0.288159" />
  <g
     id="g877"
     transform="matrix(1.1,0,0,1.1,-3.1845928,-3.2065454)">
    <rect
       style="fill:none;fill-opacity:1;stroke:#000000;stroke-width:2.72727;stroke-dasharray:none;stroke-opacity:1;filter:url(#filter1);opacity:0.5"
       id="rect1-5"
       width="49.090908"
       height="49.090908"
       x="7.4405394"
       y="7.4604964"
       rx="7.4768682"
       ry="7.477273" />
    <rect
       style="opacity:1;fill:#c4c2c5;stroke-width:2.72727273;stroke-opacity:1;fill-opacity:1;stroke:#1e2430;stroke-dasharray:none"
       id="rect1"
       width="49.090908"
       height="49.090908"
       x="7.4405394"
       y="7.4604964"
       rx="7.4768682"
       ry="7.477273" />
    <rect
       style="fill:#1e2430;fill-opacity:1;stroke:none;stroke-width:2.33829;stroke-dasharray:none;stroke-opacity:1"
       id="rect1-6"
       width="42.089317"
       height="42.089317"
       x="10.941335"
       y="10.961291"
       rx="5.5927272"
       ry="5.5927272" />
    <g
       id="g2"
       transform="matrix(0.9025,0,0,0.9025,3.118667,3.1205713)">
      <path
         style="fill:#f4e3cf;fill-opacity:1;stroke-width:0.634851"
         d="m 36.947144,40.89388 c -1.378342,-2.598217 -3.070145,-5.021426 -4.903685,-7.31722 -1.878068,2.351484 -3.761233,4.715308 -5.28679,7.31722 -1.08545,0 -2.1709,0 -3.256351,0 1.845347,-3.367562 4.294502,-6.345283 6.665948,-9.347645 -2.132591,-2.809408 -4.265185,-5.618807 -6.397779,-8.428214 1.187611,0 2.375225,0 3.562836,0 1.596251,2.068743 3.192505,4.137485 4.788755,6.206228 1.468552,-2.068743 2.937105,-4.137485 4.405658,-6.206228 1.123759,0 2.247521,0 3.37128,0 -1.953808,2.745553 -3.907622,5.491109 -5.861438,8.23666 2.283166,3.080218 4.667638,6.121855 6.436091,9.539199 -1.174842,0 -2.349682,0 -3.524525,0 z"
         id="path3-7" />
      <path
         style="baseline-shift:baseline;display:inline;overflow:visible;opacity:1;vector-effect:none;fill:#f4e3cf;fill-opacity:1;enable-background:accumulate;stop-color:#000000;stop-opacity:1"
         d="m 31.986328,15.060547 c -9.347947,0 -16.945312,7.597365 -16.945312,16.945312 0,9.347948 7.597365,16.945312 16.945312,16.945313 9.347948,0 16.945313,-7.597365 16.945313,-16.945313 0,-9.347948 -7.597365,-16.945312 -16.945313,-16.945312 z m 0,1.818359 c 8.365331,0 15.126953,6.761623 15.126953,15.126953 0,8.365331 -6.761622,15.126953 -15.126953,15.126953 -8.36533,0 -15.126953,-6.761622 -15.126953,-15.126953 0,-8.36533 6.761623,-15.126952 15.126953,-15.126953 z"
         id="path1" />
    </g>
  </g>
</svg>
