<?xml version="1.0" encoding="UTF-8" standalone="no"?>
<svg
   width="64"
   height="64"
   version="1.1"
   id="svg73"
   sodipodi:docname="printer.svg"
   inkscape:version="1.2.2 (b0a8486541, 2022-12-01)"
   xmlns:inkscape="http://www.inkscape.org/namespaces/inkscape"
   xmlns:sodipodi="http://sodipodi.sourceforge.net/DTD/sodipodi-0.dtd"
   xmlns="http://www.w3.org/2000/svg"
   xmlns:svg="http://www.w3.org/2000/svg"
   xmlns:rdf="http://www.w3.org/1999/02/22-rdf-syntax-ns#"
   xmlns:cc="http://creativecommons.org/ns#"
   xmlns:dc="http://purl.org/dc/elements/1.1/">
  <metadata
     id="metadata77">
    <rdf:RDF>
      <cc:Work
         rdf:about="">
        <dc:format>image/svg+xml</dc:format>
        <dc:type
           rdf:resource="http://purl.org/dc/dcmitype/StillImage" />
      </cc:Work>
    </rdf:RDF>
  </metadata>
  <sodipodi:namedview
     pagecolor="#f5f7fa"
     bordercolor="#666666"
     borderopacity="1"
     objecttolerance="10"
     gridtolerance="10"
     guidetolerance="10"
     inkscape:pageopacity="0"
     inkscape:pageshadow="2"
     inkscape:window-width="1280"
     inkscape:window-height="603"
     id="namedview75"
     showgrid="false"
     inkscape:zoom="6.2890625"
     inkscape:cx="52.313043"
     inkscape:cy="37.843478"
     inkscape:window-x="35"
     inkscape:window-y="32"
     inkscape:window-maximized="0"
     inkscape:current-layer="g877"
     inkscape:document-rotation="0"
     inkscape:pagecheckerboard="0"
     inkscape:showpageshadow="2"
     inkscape:deskcolor="#d1d1d1" />
  <defs
     id="defs29">
    <filter
       style="color-interpolation-filters:sRGB;"
       inkscape:label="Blur"
       id="filter1"
       x="-0.091333304"
       y="-0.091333304"
       width="1.1826666"
       height="1.1826666">
      <feGaussianBlur
         stdDeviation="1.3 1.3"
         result="blur"
         id="feGaussianBlur1" />
    </filter>
  </defs>
  <circle
     cx="32.516094"
     cy="31.877844"
     r="0"
     fill="url(#b)"
     stroke-width="1.5715"
     id="circle41"
     style="fill:url(#b)" />
  <g
     aria-label="GZ"
     transform="matrix(1.2212657,0,0,0.81882264,0.4960938,-0.1661539)"
     id="text93"
     style="font-weight:bold;font-size:11.5263px;line-height:1.25;font-family:sans-serif;-inkscape-font-specification:'sans-serif Bold';fill:#f2f2f2;stroke-width:0.288159" />
  <g
     id="g877"
     transform="matrix(1.1,0,0,1.1,-3.1845928,-3.2065454)">
    <rect
       style="fill:none;fill-opacity:1;stroke:#000000;stroke-width:2.72727;stroke-dasharray:none;stroke-opacity:1;filter:url(#filter1);opacity:0.5"
       id="rect1-5"
       width="49.090908"
       height="49.090908"
       x="7.4405394"
       y="7.4604964"
       rx="7.4768682"
       ry="7.477273" />
    <rect
       style="opacity:1;fill:#c4c2c5;stroke-width:2.72727273;stroke-opacity:1;fill-opacity:1;stroke:#1e2430;stroke-dasharray:none"
       id="rect1"
       width="49.090908"
       height="49.090908"
       x="7.4405394"
       y="7.4604964"
       rx="7.4768682"
       ry="7.477273" />
    <rect
       style="fill:#1e2430;fill-opacity:1;stroke:none;stroke-width:2.33829;stroke-dasharray:none;stroke-opacity:1"
       id="rect1-6"
       width="42.089317"
       height="42.089317"
       x="10.941335"
       y="10.961291"
       rx="5.5927272"
       ry="5.5927272" />
    <path
       id="path50"
       style="fill:#f4e3cf;fill-opacity:1;stroke:none;stroke-width:0.941481;stroke-dasharray:none;stroke-dashoffset:2.2;stroke-opacity:0.3"
       d="m 31.957131,17.332779 c -0.984911,-1.98e-4 -1.960393,0.06513 -2.587233,0.196753 -1.351526,0.283755 -3.066484,0.881902 -4.095072,1.42877 l -0.904703,0.481773 h -1.366248 c -1.211686,9.9e-4 -1.42745,0.03044 -1.906866,0.257436 -0.654125,0.309765 -1.155477,0.819651 -1.450836,1.4729 -0.182335,0.403273 -0.220521,0.71266 -0.222498,1.813085 l -0.0019,1.327634 -0.592058,1.213628 c -1.141996,2.346282 -1.51075,3.948562 -1.50416,6.51313 0.0067,2.564523 0.409291,4.25711 1.566682,6.571971 l 0.529581,1.055487 v 1.353378 c 0,0.952078 0.0469,1.467048 0.159977,1.737693 0.275258,0.658781 0.789897,1.203085 1.437963,1.520713 0.559765,0.274353 0.758251,0.308497 2.131205,0.36226 1.391656,0.05442 1.555351,0.08266 2.008001,0.349352 1.089303,0.641886 2.942179,1.273197 4.534549,1.542778 0.44607,0.07551 1.42085,0.141267 2.164299,0.147098 2.325566,0.01797 4.380062,-0.441479 6.434064,-1.4398 l 1.18788,-0.577395 1.460036,-0.04596 c 1.255273,-0.03939 1.528892,-0.08193 1.94732,-0.296065 0.662912,-0.339265 1.049774,-0.719727 1.382796,-1.360731 0.253011,-0.487046 0.283779,-0.685634 0.321774,-2.000643 l 0.04233,-1.458194 0.467059,-0.919414 c 0.997443,-1.966671 1.451133,-3.77757 1.533586,-6.110403 0.08968,-2.536855 -0.333243,-4.587384 -1.395673,-6.757693 l -0.555315,-1.136396 -0.0662,-1.46003 c -0.07334,-1.647752 -0.238929,-2.178868 -0.888182,-2.828122 -0.669394,-0.669393 -1.052652,-0.79039 -2.625851,-0.829311 L 39.696736,19.423521 38.50701,18.846128 C 37.182401,18.202214 36.035082,17.81586 34.601359,17.531375 33.936767,17.399527 32.942034,17.332979 31.957124,17.33278 Z m -10.082297,3.556294 c 0.05095,-0.0038 0.103169,-0.004 0.154457,0 0.246211,0.01882 0.492126,0.126201 0.695078,0.329151 0.52424,0.524236 0.42565,1.303928 -0.213303,1.693561 -0.951947,0.580497 -2.036939,-0.420932 -1.526224,-1.408545 0.194501,-0.376123 0.533229,-0.588 0.889992,-0.614167 z m 20.212402,0 c 0.278866,0.01507 0.528688,0.149979 0.742882,0.404542 0.373194,0.443508 0.364424,0.96122 -0.02383,1.391994 -0.358849,0.398058 -0.91889,0.508232 -1.349698,0.266626 -0.374323,-0.209926 -0.516712,-0.476057 -0.516712,-0.970902 0,-0.536007 0.165765,-0.801156 0.616012,-0.989289 0.186814,-0.07805 0.364094,-0.11202 0.531416,-0.102976 z m -10.124589,0.514871 c 3.382926,-0.01119 6.827323,1.765527 8.756502,4.56949 0.527249,0.766328 1.279355,2.411084 1.537263,3.361377 0.343408,1.265251 0.34363,4.054551 0.0018,5.288471 -1.050735,3.793228 -3.683918,6.482863 -7.42703,7.585169 -1.332467,0.392387 -3.654494,0.471857 -5.029196,0.171015 -3.123209,-0.683524 -5.708896,-2.645349 -7.187981,-5.450295 -3.562447,-6.755841 1.008735,-14.922161 8.673753,-15.497645 0.224524,-0.01688 0.449324,-0.02685 0.674852,-0.02753 z m 0.04596,7.028001 c -0.06718,8.91e-4 -0.136022,0.0021 -0.205947,0.0055 -1.390346,0.06713 -2.499523,0.784742 -3.096584,2.002509 -0.363964,0.742339 -0.40947,2.02878 -0.10114,2.850182 0.404881,1.07861 1.338457,1.911374 2.487935,2.221306 1.16546,0.31424 2.367673,0.01397 3.282309,-0.821956 1.604442,-1.466369 1.633471,-3.849339 0.06437,-5.323409 -0.715093,-0.671766 -1.42332,-0.946775 -2.430925,-0.934108 z M 42.12952,40.948851 c 0.199027,0.01687 0.398708,0.09113 0.577398,0.231665 0.557064,0.438188 0.467957,1.461796 -0.154468,1.783664 -0.786781,0.406862 -1.612655,-0.06518 -1.612655,-0.923094 0,-0.682882 0.59261,-1.142732 1.189718,-1.092261 z m -20.170108,0.011 c 0.508184,0 0.882558,0.25466 1.029742,0.70059 0.157585,0.477497 0.04616,0.863384 -0.343861,1.191561 -0.895529,0.753433 -2.202162,-0.296505 -1.664138,-1.336934 0.212048,-0.410067 0.470064,-0.555328 0.978257,-0.555328 z" />
  </g>
</svg>
