<?xml version="1.0" encoding="UTF-8" standalone="no"?>
<svg
   width="64"
   height="64"
   version="1.1"
   id="svg73"
   sodipodi:docname="printer.svg"
   inkscape:version="1.2.2 (b0a8486541, 2022-12-01)"
   xmlns:inkscape="http://www.inkscape.org/namespaces/inkscape"
   xmlns:sodipodi="http://sodipodi.sourceforge.net/DTD/sodipodi-0.dtd"
   xmlns="http://www.w3.org/2000/svg"
   xmlns:svg="http://www.w3.org/2000/svg"
   xmlns:rdf="http://www.w3.org/1999/02/22-rdf-syntax-ns#"
   xmlns:cc="http://creativecommons.org/ns#"
   xmlns:dc="http://purl.org/dc/elements/1.1/">
  <metadata
     id="metadata77">
    <rdf:RDF>
      <cc:Work
         rdf:about="">
        <dc:format>image/svg+xml</dc:format>
        <dc:type
           rdf:resource="http://purl.org/dc/dcmitype/StillImage" />
      </cc:Work>
    </rdf:RDF>
  </metadata>
  <sodipodi:namedview
     pagecolor="#f5f7fa"
     bordercolor="#666666"
     borderopacity="1"
     objecttolerance="10"
     gridtolerance="10"
     guidetolerance="10"
     inkscape:pageopacity="0"
     inkscape:pageshadow="2"
     inkscape:window-width="1280"
     inkscape:window-height="603"
     id="namedview75"
     showgrid="false"
     inkscape:zoom="6.2890625"
     inkscape:cx="52.313043"
     inkscape:cy="37.843478"
     inkscape:window-x="35"
     inkscape:window-y="32"
     inkscape:window-maximized="0"
     inkscape:current-layer="g877"
     inkscape:document-rotation="0"
     inkscape:pagecheckerboard="0"
     inkscape:showpageshadow="2"
     inkscape:deskcolor="#d1d1d1" />
  <defs
     id="defs29">
    <filter
       style="color-interpolation-filters:sRGB;"
       inkscape:label="Blur"
       id="filter1"
       x="-0.091333304"
       y="-0.091333304"
       width="1.1826666"
       height="1.1826666">
      <feGaussianBlur
         stdDeviation="1.3 1.3"
         result="blur"
         id="feGaussianBlur1" />
    </filter>
  </defs>
  <circle
     cx="32.516094"
     cy="31.877844"
     r="0"
     fill="url(#b)"
     stroke-width="1.5715"
     id="circle41"
     style="fill:url(#b)" />
  <g
     aria-label="GZ"
     transform="matrix(1.2212657,0,0,0.81882264,0.4960938,-0.1661539)"
     id="text93"
     style="font-weight:bold;font-size:11.5263px;line-height:1.25;font-family:sans-serif;-inkscape-font-specification:'sans-serif Bold';fill:#f2f2f2;stroke-width:0.288159" />
  <g
     id="g877"
     transform="matrix(1.1,0,0,1.1,-3.1845928,-3.2065454)">
    <rect
       style="fill:none;fill-opacity:1;stroke:#000000;stroke-width:2.72727;stroke-dasharray:none;stroke-opacity:1;filter:url(#filter1);opacity:0.5"
       id="rect1-5"
       width="49.090908"
       height="49.090908"
       x="7.4405394"
       y="7.4604964"
       rx="7.4768682"
       ry="7.477273" />
    <rect
       style="opacity:1;fill:#c4c2c5;stroke-width:2.72727273;stroke-opacity:1;fill-opacity:1;stroke:#1e2430;stroke-dasharray:none"
       id="rect1"
       width="49.090908"
       height="49.090908"
       x="7.4405394"
       y="7.4604964"
       rx="7.4768682"
       ry="7.477273" />
    <rect
       style="fill:#1e2430;fill-opacity:1;stroke:none;stroke-width:2.33829;stroke-dasharray:none;stroke-opacity:1"
       id="rect1-6"
       width="42.089317"
       height="42.089317"
       x="10.941335"
       y="10.961291"
       rx="5.5927272"
       ry="5.5927272" />
    <path
       style="color:#444444;fill:#f4e3cf;fill-opacity:1;stroke:none;stroke-width:0.855887;stroke-dasharray:none;stroke-opacity:0.3"
       class="ColorScheme-Text"
       d="m 39.294008,21.677369 c -0.415593,0.0019 -0.799707,0.132498 -1.159036,0.387471 -0.909455,0.649148 -2.804562,1.344959 -6.148979,1.347719 -3.344416,0 -5.239511,-0.698571 -6.148975,-1.347719 -0.35937,-0.254967 -0.70392,-0.379259 -1.121976,-0.377362 -0.418056,0.0018 -0.90013,0.113772 -1.391519,0.377362 -1.7896,0.942756 -3.434752,4.029878 -4.329553,8.032413 -0.762761,3.399962 -1.044359,8.049401 -0.589629,9.91922 0.396046,1.60726 1.080405,2.318081 2.297862,2.318081 1.804266,-0.03102 4.0713,-2.039565 5.50881,-4.743982 1.039707,-1.497198 3.451122,-2.177827 5.77498,-2.10244 2.323684,-0.08108 4.735099,0.605242 5.77498,2.10244 1.437511,2.704417 3.704547,4.713098 5.508811,4.743982 1.217494,0 1.901781,-0.710821 2.297863,-2.318081 0.454728,-1.869819 0.173132,-6.519258 -0.589629,-9.91922 -0.894784,-4.002535 -2.539948,-7.089657 -4.329554,-8.032413 -0.491387,-0.262729 -0.938862,-0.389412 -1.354456,-0.387471 z m -14.151065,5.185355 h 1.711606 v 1.725081 h 1.708233 v 1.725081 h -1.708233 v 1.725084 h -1.711606 v -1.725084 h -1.711602 v -1.725081 h 1.711602 z m 12.830302,0 c 0.472501,0 0.855799,0.386245 0.855799,0.862542 0,0.476466 -0.383298,0.862539 -0.855799,0.862539 -0.472505,0 -0.852435,-0.386073 -0.852438,-0.862539 0,-0.476297 0.379933,-0.862542 0.852438,-0.862542 z m -1.70824,1.725081 c 0.472504,0 0.855802,0.386247 0.855802,0.862541 0,0.476467 -0.383298,0.86254 -0.855802,0.86254 -0.472482,0 -0.855803,-0.386073 -0.855803,-0.86254 0,-0.476294 0.383321,-0.862541 0.855803,-0.862541 z m 3.419838,0 c 0.472486,0 0.855802,0.386247 0.855802,0.862541 0,0.476467 -0.383316,0.86254 -0.855802,0.86254 -0.472501,0 -0.855799,-0.386073 -0.855799,-0.86254 0,-0.476294 0.383298,-0.862541 0.855799,-0.862541 z m -1.711598,1.725081 c 0.472501,0 0.855799,0.386248 0.855799,0.862542 0,0.476467 -0.383298,0.862542 -0.855799,0.862542 -0.472505,0 -0.852438,-0.386075 -0.852438,-0.862542 0,-0.476294 0.379933,-0.862542 0.852438,-0.862542 z"
       id="path5-2" />
  </g>
</svg>
