<?xml version="1.0" encoding="UTF-8" standalone="no"?>
<svg
   width="64"
   height="64"
   version="1.1"
   id="svg73"
   sodipodi:docname="printer.svg"
   inkscape:version="1.2.2 (b0a8486541, 2022-12-01)"
   xmlns:inkscape="http://www.inkscape.org/namespaces/inkscape"
   xmlns:sodipodi="http://sodipodi.sourceforge.net/DTD/sodipodi-0.dtd"
   xmlns="http://www.w3.org/2000/svg"
   xmlns:svg="http://www.w3.org/2000/svg"
   xmlns:rdf="http://www.w3.org/1999/02/22-rdf-syntax-ns#"
   xmlns:cc="http://creativecommons.org/ns#"
   xmlns:dc="http://purl.org/dc/elements/1.1/">
  <metadata
     id="metadata77">
    <rdf:RDF>
      <cc:Work
         rdf:about="">
        <dc:format>image/svg+xml</dc:format>
        <dc:type
           rdf:resource="http://purl.org/dc/dcmitype/StillImage" />
      </cc:Work>
    </rdf:RDF>
  </metadata>
  <sodipodi:namedview
     pagecolor="#f5f7fa"
     bordercolor="#666666"
     borderopacity="1"
     objecttolerance="10"
     gridtolerance="10"
     guidetolerance="10"
     inkscape:pageopacity="0"
     inkscape:pageshadow="2"
     inkscape:window-width="1280"
     inkscape:window-height="603"
     id="namedview75"
     showgrid="false"
     inkscape:zoom="6.2890625"
     inkscape:cx="52.313043"
     inkscape:cy="37.843478"
     inkscape:window-x="35"
     inkscape:window-y="32"
     inkscape:window-maximized="0"
     inkscape:current-layer="g877"
     inkscape:document-rotation="0"
     inkscape:pagecheckerboard="0"
     inkscape:showpageshadow="2"
     inkscape:deskcolor="#d1d1d1" />
  <defs
     id="defs29">
    <filter
       style="color-interpolation-filters:sRGB;"
       inkscape:label="Blur"
       id="filter1"
       x="-0.091333304"
       y="-0.091333304"
       width="1.1826666"
       height="1.1826666">
      <feGaussianBlur
         stdDeviation="1.3 1.3"
         result="blur"
         id="feGaussianBlur1" />
    </filter>
  </defs>
  <circle
     cx="32.516094"
     cy="31.877844"
     r="0"
     fill="url(#b)"
     stroke-width="1.5715"
     id="circle41"
     style="fill:url(#b)" />
  <g
     aria-label="GZ"
     transform="matrix(1.2212657,0,0,0.81882264,0.4960938,-0.1661539)"
     id="text93"
     style="font-weight:bold;font-size:11.5263px;line-height:1.25;font-family:sans-serif;-inkscape-font-specification:'sans-serif Bold';fill:#f2f2f2;stroke-width:0.288159" />
  <g
     id="g877"
     transform="matrix(1.1,0,0,1.1,-3.1845928,-3.2065454)">
    <rect
       style="fill:none;fill-opacity:1;stroke:#000000;stroke-width:2.72727;stroke-dasharray:none;stroke-opacity:1;filter:url(#filter1);opacity:0.5"
       id="rect1-5"
       width="49.090908"
       height="49.090908"
       x="7.4405394"
       y="7.4604964"
       rx="7.4768682"
       ry="7.477273" />
    <rect
       style="opacity:1;fill:#c4c2c5;stroke-width:2.72727273;stroke-opacity:1;fill-opacity:1;stroke:#1e2430;stroke-dasharray:none"
       id="rect1"
       width="49.090908"
       height="49.090908"
       x="7.4405394"
       y="7.4604964"
       rx="7.4768682"
       ry="7.477273" />
    <rect
       style="fill:#1e2430;fill-opacity:1;stroke:none;stroke-width:2.33829;stroke-dasharray:none;stroke-opacity:1"
       id="rect1-6"
       width="42.089317"
       height="42.089317"
       x="10.941335"
       y="10.961291"
       rx="5.5927272"
       ry="5.5927272" />
    <path
       id="path46"
       style="fill:#f4e3cf;fill-opacity:1;stroke-width:0.154475;stroke-opacity:0.3"
       d="m 30.146123,20.099067 c -12.561295,0 -12.091341,-0.033 -12.585767,0.923127 -0.202721,0.392024 -0.234031,1.870831 -0.234031,10.971676 0,11.494767 -0.02623,11.156287 0.889696,11.653343 0.644121,0.349521 23.15545,0.356525 23.83049,0.0076 0.90695,-0.46903 0.921273,-0.579984 0.921273,-6.900251 V 30.994549 L 41.1921,32.76651 39.416423,34.538473 v 2.899406 2.897549 h -9.2703 -9.268445 v -8.34348 -8.343451 l 9.378031,0.0076 9.376167,0.0055 1.435778,-1.430198 c 0.790082,-0.786799 1.437632,-1.482147 1.437632,-1.545359 0,-0.06322 -0.206239,-0.221428 -0.456922,-0.351048 -0.39649,-0.205041 -1.944062,-0.235891 -11.902241,-0.235891 z m 14.664202,1.87226 c -0.243178,0.01203 -0.490853,0.0773 -0.729962,0.204316 -0.488496,0.259513 -11.509426,11.290805 -11.742505,11.753644 -0.08688,0.172533 -0.207035,0.816841 -0.267458,1.430198 l -0.109593,1.114441 h 1.014144 c 0.557698,0 1.209601,-0.07269 1.448776,-0.161597 0.239168,-0.0889 3.059514,-2.78155 6.266877,-5.984547 4.701651,-4.695245 5.848654,-5.922671 5.925114,-6.330027 0.214141,-1.141488 -0.751635,-2.078401 -1.805393,-2.026428 z" />
  </g>
</svg>
