<?xml version="1.0" encoding="UTF-8" standalone="no"?>
<svg
   width="64"
   height="64"
   version="1.1"
   id="svg73"
   sodipodi:docname="transmission-remote-gtk.svg"
   inkscape:version="1.2.2 (b0a8486541, 2022-12-01)"
   xmlns:inkscape="http://www.inkscape.org/namespaces/inkscape"
   xmlns:sodipodi="http://sodipodi.sourceforge.net/DTD/sodipodi-0.dtd"
   xmlns="http://www.w3.org/2000/svg"
   xmlns:svg="http://www.w3.org/2000/svg"
   xmlns:rdf="http://www.w3.org/1999/02/22-rdf-syntax-ns#"
   xmlns:cc="http://creativecommons.org/ns#"
   xmlns:dc="http://purl.org/dc/elements/1.1/">
  <metadata
     id="metadata77">
    <rdf:RDF>
      <cc:Work
         rdf:about="">
        <dc:format>image/svg+xml</dc:format>
        <dc:type
           rdf:resource="http://purl.org/dc/dcmitype/StillImage" />
      </cc:Work>
    </rdf:RDF>
  </metadata>
  <sodipodi:namedview
     pagecolor="#f5f7fa"
     bordercolor="#666666"
     borderopacity="1"
     objecttolerance="10"
     gridtolerance="10"
     guidetolerance="10"
     inkscape:pageopacity="0"
     inkscape:pageshadow="2"
     inkscape:window-width="1280"
     inkscape:window-height="603"
     id="namedview75"
     showgrid="false"
     inkscape:zoom="6.2890625"
     inkscape:cx="27.508075"
     inkscape:cy="37.843478"
     inkscape:window-x="35"
     inkscape:window-y="32"
     inkscape:window-maximized="0"
     inkscape:current-layer="g877"
     inkscape:document-rotation="0"
     inkscape:pagecheckerboard="0"
     inkscape:showpageshadow="2"
     inkscape:deskcolor="#d1d1d1" />
  <defs
     id="defs29">
    <filter
       style="color-interpolation-filters:sRGB;"
       inkscape:label="Blur"
       id="filter1"
       x="-0.091333304"
       y="-0.091333304"
       width="1.1826666"
       height="1.1826666">
      <feGaussianBlur
         stdDeviation="1.3 1.3"
         result="blur"
         id="feGaussianBlur1" />
    </filter>
    <filter
       style="color-interpolation-filters:sRGB"
       inkscape:label="Blur"
       id="filter1-3"
       x="-0.091333304"
       y="-0.091333304"
       width="1.1826666"
       height="1.1826666">
      <feGaussianBlur
         stdDeviation="1.3 1.3"
         result="blur"
         id="feGaussianBlur1-6" />
    </filter>
  </defs>
  <circle
     cx="32.516094"
     cy="31.877844"
     r="0"
     fill="url(#b)"
     stroke-width="1.5715"
     id="circle41"
     style="fill:url(#b)" />
  <g
     aria-label="GZ"
     transform="matrix(1.2212657,0,0,0.81882264,0.4960938,-0.1661539)"
     id="text93"
     style="font-weight:bold;font-size:11.5263px;line-height:1.25;font-family:sans-serif;-inkscape-font-specification:'sans-serif Bold';fill:#f2f2f2;stroke-width:0.288159" />
  <g
     id="g877"
     transform="matrix(1.1,0,0,1.1,-3.1845928,-3.2065454)">
    <rect
       style="fill:none;fill-opacity:1;stroke:#000000;stroke-width:2.72727;stroke-dasharray:none;stroke-opacity:1;filter:url(#filter1);opacity:0.5"
       id="rect1-5"
       width="49.090908"
       height="49.090908"
       x="7.4405394"
       y="7.4604964"
       rx="7.4768682"
       ry="7.477273" />
    <rect
       style="opacity:1;fill:#c4c2c5;stroke-width:2.72727273;stroke-opacity:1;fill-opacity:1;stroke:#1e2430;stroke-dasharray:none"
       id="rect1"
       width="49.090908"
       height="49.090908"
       x="7.4405394"
       y="7.4604964"
       rx="7.4768682"
       ry="7.477273" />
    <rect
       style="fill:#1e2430;fill-opacity:1;stroke:none;stroke-width:2.33829;stroke-dasharray:none;stroke-opacity:1"
       id="rect1-6"
       width="42.089317"
       height="42.089317"
       x="10.941335"
       y="10.961291"
       rx="5.5927272"
       ry="5.5927272" />
    <path
       style="color:#444444;fill:#f4e3cf;fill-opacity:1;stroke:none;stroke-width:0.855887;stroke-dasharray:none;stroke-opacity:0.3"
       class="ColorScheme-Text"
       d="m 23.705601,18.550316 v 4.140193 h 16.560784 v -4.140193 z m -4.140199,6.210292 c -1.035047,0 -2.070097,1.03505 -2.070097,2.070097 V 35.1111 c 0,1.035043 1.03505,2.070097 2.070097,2.070097 h 2.070101 v -4.140195 h 20.700981 v 4.140195 h 2.070106 c 1.035044,0 2.070092,-1.035054 2.070092,-2.070097 v -8.280395 c 0,-1.035047 -1.035048,-2.070097 -2.070092,-2.070097 z M 23.705601,35.1111 V 45.461585 H 40.266385 V 35.1111 Z"
       id="path5" />
    <rect
       style="opacity:0.5;fill:none;fill-opacity:1;stroke:#000000;stroke-width:2.72727;stroke-dasharray:none;stroke-opacity:1;filter:url(#filter1-3)"
       id="rect1-5-5"
       width="49.090908"
       height="49.090908"
       x="7.4405394"
       y="7.4604964"
       rx="7.4768682"
       ry="7.477273"
       transform="matrix(0.43046721,0,0,0.43046721,34.695898,34.707264)" />
    <rect
       style="fill:#c4c2c5;fill-opacity:1;stroke:#1e2430;stroke-width:1.174;stroke-dasharray:none;stroke-opacity:1"
       id="rect1-3"
       width="21.132023"
       height="21.132023"
       x="37.898808"
       y="37.918762"
       rx="3.2185469"
       ry="3.2187209" />
    <rect
       style="fill:#1e2430;fill-opacity:1;stroke:none;stroke-width:1.00656;stroke-dasharray:none;stroke-opacity:1"
       id="rect1-6-5"
       width="18.118069"
       height="18.118069"
       x="39.405781"
       y="39.425739"
       rx="2.4074855"
       ry="2.4074855" />
    <g
       id="g19"
       transform="matrix(0.55368849,0,0,0.55368849,23.560217,21.900927)"
       style="fill:#f4e3cf;fill-opacity:1;stroke:none;stroke-width:0.685871;stroke-dasharray:none;stroke-opacity:0.6">
      <path
         style="fill:#f4e3cf;fill-opacity:1;stroke:none;stroke-width:0.685871;stroke-dasharray:none;stroke-opacity:0.6"
         d="m 55,38 v 1.666667 c 0,0.916933 -0.755783,1.666666 -1.666667,1.666666 -8.284333,0 -15,6.715667 -15,15 C 38.333333,57.250267 37.57755,58 36.666667,58 H 35 V 56.333333 C 35,46.208333 43.208333,38 53.333333,38 Z"
         id="path17" />
      <path
         style="fill:#f4e3cf;fill-opacity:1;stroke:none;stroke-width:0.685871;stroke-dasharray:none;stroke-opacity:0.6"
         d="m 55,44.666667 v 1.666666 C 55,47.250267 54.244217,48 53.333333,48 48.731,48 45,51.731 45,56.333333 45,57.250267 44.244217,58 43.333333,58 H 41.666667 V 56.333333 C 41.666667,49.89 46.89,44.666667 53.333333,44.666667 Z"
         id="path18" />
      <path
         style="fill:#f4e3cf;fill-opacity:1;stroke:none;stroke-width:0.685871;stroke-dasharray:none;stroke-opacity:0.6"
         d="M 51.500001,51 C 53.43305,51 55,52.567003 55,54.500001 55,56.432998 53.432998,58 51.500001,58 49.567003,58 48,56.432998 48,54.500001 48,52.567003 49.566951,51 51.500001,51 Z"
         id="path19" />
    </g>
  </g>
</svg>
