<?xml version="1.0" encoding="UTF-8" standalone="no"?>
<svg
   width="64"
   height="64"
   version="1.1"
   id="svg73"
   sodipodi:docname="printer.svg"
   inkscape:version="1.2.2 (b0a8486541, 2022-12-01)"
   xmlns:inkscape="http://www.inkscape.org/namespaces/inkscape"
   xmlns:sodipodi="http://sodipodi.sourceforge.net/DTD/sodipodi-0.dtd"
   xmlns="http://www.w3.org/2000/svg"
   xmlns:svg="http://www.w3.org/2000/svg"
   xmlns:rdf="http://www.w3.org/1999/02/22-rdf-syntax-ns#"
   xmlns:cc="http://creativecommons.org/ns#"
   xmlns:dc="http://purl.org/dc/elements/1.1/">
  <metadata
     id="metadata77">
    <rdf:RDF>
      <cc:Work
         rdf:about="">
        <dc:format>image/svg+xml</dc:format>
        <dc:type
           rdf:resource="http://purl.org/dc/dcmitype/StillImage" />
      </cc:Work>
    </rdf:RDF>
  </metadata>
  <sodipodi:namedview
     pagecolor="#f5f7fa"
     bordercolor="#666666"
     borderopacity="1"
     objecttolerance="10"
     gridtolerance="10"
     guidetolerance="10"
     inkscape:pageopacity="0"
     inkscape:pageshadow="2"
     inkscape:window-width="1280"
     inkscape:window-height="603"
     id="namedview75"
     showgrid="false"
     inkscape:zoom="6.2890625"
     inkscape:cx="52.313043"
     inkscape:cy="37.843478"
     inkscape:window-x="35"
     inkscape:window-y="32"
     inkscape:window-maximized="0"
     inkscape:current-layer="g877"
     inkscape:document-rotation="0"
     inkscape:pagecheckerboard="0"
     inkscape:showpageshadow="2"
     inkscape:deskcolor="#d1d1d1" />
  <defs
     id="defs29">
    <filter
       style="color-interpolation-filters:sRGB;"
       inkscape:label="Blur"
       id="filter1"
       x="-0.091333304"
       y="-0.091333304"
       width="1.1826666"
       height="1.1826666">
      <feGaussianBlur
         stdDeviation="1.3 1.3"
         result="blur"
         id="feGaussianBlur1" />
    </filter>
  </defs>
  <circle
     cx="32.516094"
     cy="31.877844"
     r="0"
     fill="url(#b)"
     stroke-width="1.5715"
     id="circle41"
     style="fill:url(#b)" />
  <g
     aria-label="GZ"
     transform="matrix(1.2212657,0,0,0.81882264,0.4960938,-0.1661539)"
     id="text93"
     style="font-weight:bold;font-size:11.5263px;line-height:1.25;font-family:sans-serif;-inkscape-font-specification:'sans-serif Bold';fill:#f2f2f2;stroke-width:0.288159" />
  <g
     id="g877"
     transform="matrix(1.1,0,0,1.1,-3.1845928,-3.2065454)">
    <rect
       style="fill:none;fill-opacity:1;stroke:#000000;stroke-width:2.72727;stroke-dasharray:none;stroke-opacity:1;filter:url(#filter1);opacity:0.5"
       id="rect1-5"
       width="49.090908"
       height="49.090908"
       x="7.4405394"
       y="7.4604964"
       rx="7.4768682"
       ry="7.477273" />
    <rect
       style="opacity:1;fill:#c4c2c5;stroke-width:2.72727273;stroke-opacity:1;fill-opacity:1;stroke:#1e2430;stroke-dasharray:none"
       id="rect1"
       width="49.090908"
       height="49.090908"
       x="7.4405394"
       y="7.4604964"
       rx="7.4768682"
       ry="7.477273" />
    <rect
       style="fill:#1e2430;fill-opacity:1;stroke:none;stroke-width:2.33829;stroke-dasharray:none;stroke-opacity:1"
       id="rect1-6"
       width="42.089317"
       height="42.089317"
       x="10.941335"
       y="10.961291"
       rx="5.5927272"
       ry="5.5927272" />
    <g
       transform="matrix(0.93983256,0,0,0.93983256,1.9113516,1.9313085)"
       id="g2"
       style="clip-rule:evenodd;fill:#f4e3cf;fill-opacity:1;fill-rule:evenodd;stroke-linejoin:round;stroke-miterlimit:2">
      <path
         d="m 42.711,28.673 c 0.244,0.244 0.366,0.532 0.366,0.865 V 32 c 0,2.833 -0.946,5.298 -2.837,7.394 -1.891,2.096 -4.227,3.298 -7.009,3.606 v 2.538 h 4.922 c 0.334,0 0.623,0.122 0.866,0.366 0.243,0.243 0.366,0.532 0.366,0.865 0,0.333 -0.123,0.622 -0.366,0.865 C 38.776,47.878 38.487,48 38.153,48 H 25.846 c -0.333,0 -0.622,-0.122 -0.865,-0.366 -0.244,-0.243 -0.366,-0.532 -0.366,-0.865 0,-0.333 0.122,-0.622 0.366,-0.865 0.243,-0.244 0.532,-0.366 0.865,-0.366 h 4.923 V 43 C 27.987,42.692 25.65,41.49 23.759,39.394 21.868,37.298 20.923,34.833 20.923,32 v -2.462 c 0,-0.333 0.122,-0.621 0.365,-0.865 0.244,-0.244 0.532,-0.365 0.866,-0.365 0.333,0 0.622,0.121 0.865,0.365 0.244,0.244 0.366,0.532 0.366,0.865 V 32 c 0,2.372 0.842,4.401 2.528,6.086 1.686,1.686 3.715,2.529 6.087,2.529 2.372,0 4.401,-0.843 6.086,-2.529 C 39.772,36.4 40.615,34.372 40.615,32 v -2.462 c 0,-0.333 0.122,-0.621 0.366,-0.865 0.243,-0.244 0.532,-0.365 0.865,-0.365 0.333,0 0.622,0.121 0.865,0.365 z M 32,38.153 c 1.692,0 3.141,-0.602 4.346,-1.807 1.205,-1.205 1.807,-2.654 1.807,-4.346 v -9.846 c 0,-1.692 -0.602,-3.141 -1.807,-4.346 C 35.141,16.603 33.692,16 32,16 c -1.693,0 -3.141,0.603 -4.346,1.808 -1.205,1.205 -1.808,2.654 -1.808,4.346 V 32 c 0,1.692 0.603,3.141 1.808,4.346 1.205,1.205 2.653,1.807 4.346,1.807 z"
         style="fill:#f4e3cf;fill-opacity:1;fill-rule:nonzero"
         id="path1" />
    </g>
  </g>
</svg>
