<?xml version="1.0" encoding="UTF-8" standalone="no"?>
<svg
   width="64"
   height="64"
   version="1.1"
   id="svg73"
   sodipodi:docname="printer.svg"
   inkscape:version="1.2.2 (b0a8486541, 2022-12-01)"
   xmlns:inkscape="http://www.inkscape.org/namespaces/inkscape"
   xmlns:sodipodi="http://sodipodi.sourceforge.net/DTD/sodipodi-0.dtd"
   xmlns="http://www.w3.org/2000/svg"
   xmlns:svg="http://www.w3.org/2000/svg"
   xmlns:rdf="http://www.w3.org/1999/02/22-rdf-syntax-ns#"
   xmlns:cc="http://creativecommons.org/ns#"
   xmlns:dc="http://purl.org/dc/elements/1.1/">
  <metadata
     id="metadata77">
    <rdf:RDF>
      <cc:Work
         rdf:about="">
        <dc:format>image/svg+xml</dc:format>
        <dc:type
           rdf:resource="http://purl.org/dc/dcmitype/StillImage" />
      </cc:Work>
    </rdf:RDF>
  </metadata>
  <sodipodi:namedview
     pagecolor="#f5f7fa"
     bordercolor="#666666"
     borderopacity="1"
     objecttolerance="10"
     gridtolerance="10"
     guidetolerance="10"
     inkscape:pageopacity="0"
     inkscape:pageshadow="2"
     inkscape:window-width="1280"
     inkscape:window-height="603"
     id="namedview75"
     showgrid="false"
     inkscape:zoom="6.2890625"
     inkscape:cx="52.313043"
     inkscape:cy="37.843478"
     inkscape:window-x="35"
     inkscape:window-y="32"
     inkscape:window-maximized="0"
     inkscape:current-layer="g877"
     inkscape:document-rotation="0"
     inkscape:pagecheckerboard="0"
     inkscape:showpageshadow="2"
     inkscape:deskcolor="#d1d1d1" />
  <defs
     id="defs29">
    <filter
       style="color-interpolation-filters:sRGB;"
       inkscape:label="Blur"
       id="filter1"
       x="-0.091333304"
       y="-0.091333304"
       width="1.1826666"
       height="1.1826666">
      <feGaussianBlur
         stdDeviation="1.3 1.3"
         result="blur"
         id="feGaussianBlur1" />
    </filter>
  </defs>
  <circle
     cx="32.516094"
     cy="31.877844"
     r="0"
     fill="url(#b)"
     stroke-width="1.5715"
     id="circle41"
     style="fill:url(#b)" />
  <g
     aria-label="GZ"
     transform="matrix(1.2212657,0,0,0.81882264,0.4960938,-0.1661539)"
     id="text93"
     style="font-weight:bold;font-size:11.5263px;line-height:1.25;font-family:sans-serif;-inkscape-font-specification:'sans-serif Bold';fill:#f2f2f2;stroke-width:0.288159" />
  <g
     id="g877"
     transform="matrix(1.1,0,0,1.1,-3.1845928,-3.2065454)">
    <rect
       style="fill:none;fill-opacity:1;stroke:#000000;stroke-width:2.72727;stroke-dasharray:none;stroke-opacity:1;filter:url(#filter1);opacity:0.5"
       id="rect1-5"
       width="49.090908"
       height="49.090908"
       x="7.4405394"
       y="7.4604964"
       rx="7.4768682"
       ry="7.477273" />
    <rect
       style="opacity:1;fill:#c4c2c5;stroke-width:2.72727273;stroke-opacity:1;fill-opacity:1;stroke:#1e2430;stroke-dasharray:none"
       id="rect1"
       width="49.090908"
       height="49.090908"
       x="7.4405394"
       y="7.4604964"
       rx="7.4768682"
       ry="7.477273" />
    <rect
       style="fill:#1e2430;fill-opacity:1;stroke:none;stroke-width:2.33829;stroke-dasharray:none;stroke-opacity:1"
       id="rect1-6"
       width="42.089317"
       height="42.089317"
       x="10.941335"
       y="10.961291"
       rx="5.5927272"
       ry="5.5927272" />
    <path
       style="color:#444444;fill:#f4e3cf;fill-opacity:1;stroke:none;stroke-width:0.847341;stroke-dasharray:none;stroke-opacity:0.3"
       class="ColorScheme-Text"
       d="m 28.570333,20.051131 c -0.683133,0 -0.682184,0.0011 -1.330908,0.690469 l -1.851262,2.725192 H 21.05521 c -1.502895,0 -2.731867,1.120619 -2.731867,2.581759 v 15.257071 c 0,1.461147 1.228972,2.655147 2.731867,2.655147 h 21.861571 c 1.502894,0 2.731862,-1.194 2.731862,-2.655147 V 26.048551 c 0,-1.46114 -1.228967,-2.581759 -2.731862,-2.581759 H 38.583825 L 36.709213,20.714917 C 36.085552,20.05228 36.08479,20.051131 35.401656,20.051131 Z m 14.496549,5.123493 a 0.85391553,0.85391553 0 0 1 0.01967,0 0.85391553,0.85391553 0 0 1 0.85398,0.853916 0.85391553,0.85391553 0 0 1 -0.853957,0.853913 0.85391553,0.85391553 0 0 1 -0.853912,-0.853913 0.85391553,0.85391553 0 0 1 0.833899,-0.853916 z m -11.184293,1.707829 a 6.8313244,6.8313245 0 0 1 0.103407,0 6.8313244,6.8313245 0 0 1 6.831325,6.831329 6.8313244,6.8313245 0 0 1 -6.831324,6.831322 6.8313244,6.8313245 0 0 1 -6.831323,-6.831322 6.8313244,6.8313245 0 0 1 6.727915,-6.831329 z m 0.01997,3.415665 a 3.4156621,3.4156622 0 0 0 -3.332257,3.415664 3.4156621,3.4156622 0 0 0 3.415664,3.415659 3.4156621,3.4156622 0 0 0 3.415662,-3.415659 3.4156621,3.4156622 0 0 0 -3.415662,-3.415664 3.4156621,3.4156622 0 0 0 -0.0834,0 z"
       id="path5" />
  </g>
</svg>
