<?xml version="1.0" encoding="UTF-8" standalone="no"?>
<svg
   width="64"
   height="64"
   version="1.1"
   id="svg73"
   sodipodi:docname="printer.svg"
   inkscape:version="1.2.2 (b0a8486541, 2022-12-01)"
   xmlns:inkscape="http://www.inkscape.org/namespaces/inkscape"
   xmlns:sodipodi="http://sodipodi.sourceforge.net/DTD/sodipodi-0.dtd"
   xmlns="http://www.w3.org/2000/svg"
   xmlns:svg="http://www.w3.org/2000/svg"
   xmlns:rdf="http://www.w3.org/1999/02/22-rdf-syntax-ns#"
   xmlns:cc="http://creativecommons.org/ns#"
   xmlns:dc="http://purl.org/dc/elements/1.1/">
  <metadata
     id="metadata77">
    <rdf:RDF>
      <cc:Work
         rdf:about="">
        <dc:format>image/svg+xml</dc:format>
        <dc:type
           rdf:resource="http://purl.org/dc/dcmitype/StillImage" />
      </cc:Work>
    </rdf:RDF>
  </metadata>
  <sodipodi:namedview
     pagecolor="#f5f7fa"
     bordercolor="#666666"
     borderopacity="1"
     objecttolerance="10"
     gridtolerance="10"
     guidetolerance="10"
     inkscape:pageopacity="0"
     inkscape:pageshadow="2"
     inkscape:window-width="1280"
     inkscape:window-height="603"
     id="namedview75"
     showgrid="false"
     inkscape:zoom="6.2890625"
     inkscape:cx="52.313043"
     inkscape:cy="37.843478"
     inkscape:window-x="35"
     inkscape:window-y="32"
     inkscape:window-maximized="0"
     inkscape:current-layer="g877"
     inkscape:document-rotation="0"
     inkscape:pagecheckerboard="0"
     inkscape:showpageshadow="2"
     inkscape:deskcolor="#d1d1d1" />
  <defs
     id="defs29">
    <filter
       style="color-interpolation-filters:sRGB;"
       inkscape:label="Blur"
       id="filter1"
       x="-0.091333304"
       y="-0.091333304"
       width="1.1826666"
       height="1.1826666">
      <feGaussianBlur
         stdDeviation="1.3 1.3"
         result="blur"
         id="feGaussianBlur1" />
    </filter>
  </defs>
  <circle
     cx="32.516094"
     cy="31.877844"
     r="0"
     fill="url(#b)"
     stroke-width="1.5715"
     id="circle41"
     style="fill:url(#b)" />
  <g
     aria-label="GZ"
     transform="matrix(1.2212657,0,0,0.81882264,0.4960938,-0.1661539)"
     id="text93"
     style="font-weight:bold;font-size:11.5263px;line-height:1.25;font-family:sans-serif;-inkscape-font-specification:'sans-serif Bold';fill:#f2f2f2;stroke-width:0.288159" />
  <g
     id="g877"
     transform="matrix(1.1,0,0,1.1,-3.1845928,-3.2065454)">
    <rect
       style="fill:none;fill-opacity:1;stroke:#000000;stroke-width:2.72727;stroke-dasharray:none;stroke-opacity:1;filter:url(#filter1);opacity:0.5"
       id="rect1-5"
       width="49.090908"
       height="49.090908"
       x="7.4405394"
       y="7.4604964"
       rx="7.4768682"
       ry="7.477273" />
    <rect
       style="opacity:1;fill:#c4c2c5;stroke-width:2.72727273;stroke-opacity:1;fill-opacity:1;stroke:#1e2430;stroke-dasharray:none"
       id="rect1"
       width="49.090908"
       height="49.090908"
       x="7.4405394"
       y="7.4604964"
       rx="7.4768682"
       ry="7.477273" />
    <rect
       style="fill:#1e2430;fill-opacity:1;stroke:none;stroke-width:2.33829;stroke-dasharray:none;stroke-opacity:1"
       id="rect1-6"
       width="42.089317"
       height="42.089317"
       x="10.941335"
       y="10.961291"
       rx="5.5927272"
       ry="5.5927272" />
    <path
       id="path53"
       style="fill:#f4e3cf;fill-opacity:1;stroke:none;stroke-width:0.941481;stroke-dasharray:none;stroke-dashoffset:2.2;stroke-opacity:0.3"
       d="m 40.474026,17.326589 -2.567007,2.568844 -2.568844,2.567002 2.539421,2.541263 c 1.396895,1.397843 2.56574,2.541262 2.59643,2.541262 0.03101,0 1.197691,-1.143419 2.594585,-2.541262 l 2.541261,-2.541263 -2.568852,-2.567002 z m -16.977903,0.0019 -2.567006,2.565165 -2.567003,2.567005 0.915737,0.921253 c 0.503495,0.506124 0.94122,0.919413 0.97274,0.919413 0.03151,0 1.199665,-1.143551 2.596423,-2.54126 l 2.539424,-2.541262 -0.945156,-0.945157 z m 3.300696,3.29518 -2.568841,2.567006 -2.568845,2.567002 0.889995,0.893673 c 0.488971,0.49153 0.913625,0.893671 0.945154,0.893671 0.03151,0 1.200112,-1.142157 2.596428,-2.539424 l 2.539422,-2.541262 -0.915738,-0.919413 z m 5.187333,4.012324 c -0.487169,0 -0.973107,0.06875 -1.502323,0.204111 -1.19118,0.304653 -2.052427,0.795616 -2.938446,1.675172 -0.872389,0.866029 -1.250484,1.456524 -1.640235,2.572521 -0.35004,1.002283 -0.39114,2.599214 -0.09378,3.594909 0.782411,2.619881 2.911077,4.427103 5.527513,4.692691 3.289772,0.333944 6.238749,-1.870299 6.932384,-5.17998 0.672578,-3.209179 -1.473113,-6.509311 -4.780952,-7.355313 -0.529215,-0.135351 -1.016998,-0.204111 -1.504164,-0.204111 z m 0,2.749048 c 0.908394,0.0011 1.162092,0.0416 1.583233,0.250082 0.767731,0.38006 1.315121,0.908283 1.721142,1.660463 0.345798,0.640604 0.369938,0.748088 0.371443,1.710107 0.0014,0.907629 -0.03278,1.10029 -0.299732,1.643916 -0.436177,0.888227 -1.304212,1.645832 -2.202911,1.923414 -0.875857,0.270519 -1.515073,0.268999 -2.381283,-0.0055 -0.858751,-0.272146 -1.741257,-1.052685 -2.166139,-1.917897 -0.262828,-0.535215 -0.301568,-0.742193 -0.301568,-1.588748 0,-0.822416 0.04365,-1.067281 0.281338,-1.574035 0.387461,-0.826076 0.83639,-1.301126 1.634721,-1.734018 0.645107,-0.349806 0.733369,-0.368987 1.759756,-0.367768 z m -3.62249,12.055376 v 1.298217 1.298213 h 3.62249 3.624332 v -1.298285 -1.298216 h -3.624332 z m 0,4.54191 v 1.351533 1.351542 h 3.62249 3.624332 v -1.351644 -1.351537 h -3.624332 z" />
  </g>
</svg>
