<?xml version="1.0" encoding="UTF-8" standalone="no"?>
<svg
   width="64"
   height="64"
   version="1.1"
   id="svg73"
   sodipodi:docname="printer.svg"
   inkscape:version="1.2.2 (b0a8486541, 2022-12-01)"
   xmlns:inkscape="http://www.inkscape.org/namespaces/inkscape"
   xmlns:sodipodi="http://sodipodi.sourceforge.net/DTD/sodipodi-0.dtd"
   xmlns="http://www.w3.org/2000/svg"
   xmlns:svg="http://www.w3.org/2000/svg"
   xmlns:rdf="http://www.w3.org/1999/02/22-rdf-syntax-ns#"
   xmlns:cc="http://creativecommons.org/ns#"
   xmlns:dc="http://purl.org/dc/elements/1.1/">
  <metadata
     id="metadata77">
    <rdf:RDF>
      <cc:Work
         rdf:about="">
        <dc:format>image/svg+xml</dc:format>
        <dc:type
           rdf:resource="http://purl.org/dc/dcmitype/StillImage" />
      </cc:Work>
    </rdf:RDF>
  </metadata>
  <sodipodi:namedview
     pagecolor="#f5f7fa"
     bordercolor="#666666"
     borderopacity="1"
     objecttolerance="10"
     gridtolerance="10"
     guidetolerance="10"
     inkscape:pageopacity="0"
     inkscape:pageshadow="2"
     inkscape:window-width="1280"
     inkscape:window-height="603"
     id="namedview75"
     showgrid="false"
     inkscape:zoom="6.2890625"
     inkscape:cx="52.313043"
     inkscape:cy="37.843478"
     inkscape:window-x="35"
     inkscape:window-y="32"
     inkscape:window-maximized="0"
     inkscape:current-layer="g877"
     inkscape:document-rotation="0"
     inkscape:pagecheckerboard="0"
     inkscape:showpageshadow="2"
     inkscape:deskcolor="#d1d1d1" />
  <defs
     id="defs29">
    <filter
       style="color-interpolation-filters:sRGB;"
       inkscape:label="Blur"
       id="filter1"
       x="-0.091333304"
       y="-0.091333304"
       width="1.1826666"
       height="1.1826666">
      <feGaussianBlur
         stdDeviation="1.3 1.3"
         result="blur"
         id="feGaussianBlur1" />
    </filter>
  </defs>
  <circle
     cx="32.516094"
     cy="31.877844"
     r="0"
     fill="url(#b)"
     stroke-width="1.5715"
     id="circle41"
     style="fill:url(#b)" />
  <g
     aria-label="GZ"
     transform="matrix(1.2212657,0,0,0.81882264,0.4960938,-0.1661539)"
     id="text93"
     style="font-weight:bold;font-size:11.5263px;line-height:1.25;font-family:sans-serif;-inkscape-font-specification:'sans-serif Bold';fill:#f2f2f2;stroke-width:0.288159" />
  <g
     id="g877"
     transform="matrix(1.1,0,0,1.1,-3.1845928,-3.2065454)">
    <rect
       style="fill:none;fill-opacity:1;stroke:#000000;stroke-width:2.72727;stroke-dasharray:none;stroke-opacity:1;filter:url(#filter1);opacity:0.5"
       id="rect1-5"
       width="49.090908"
       height="49.090908"
       x="7.4405394"
       y="7.4604964"
       rx="7.4768682"
       ry="7.477273" />
    <rect
       style="opacity:1;fill:#c4c2c5;stroke-width:2.72727273;stroke-opacity:1;fill-opacity:1;stroke:#1e2430;stroke-dasharray:none"
       id="rect1"
       width="49.090908"
       height="49.090908"
       x="7.4405394"
       y="7.4604964"
       rx="7.4768682"
       ry="7.477273" />
    <rect
       style="fill:#1e2430;fill-opacity:1;stroke:none;stroke-width:2.33829;stroke-dasharray:none;stroke-opacity:1"
       id="rect1-6"
       width="42.089317"
       height="42.089317"
       x="10.941335"
       y="10.961291"
       rx="5.5927272"
       ry="5.5927272" />
    <path
       style="color:#444444;fill:#f4e3cf;fill-opacity:1;stroke:none;stroke-width:0.855887;stroke-dasharray:none;stroke-opacity:0.3"
       class="ColorScheme-Text"
       d="m 21.739004,20.827419 c 0,0 -3.726178,0 -3.726178,3.726179 v 14.904705 c 0,3.726179 3.726178,3.726179 3.726178,3.726179 h 20.493975 c 0,0 3.726182,0 3.726182,-3.726179 V 24.553598 c 0,-3.726179 -3.726182,-3.726179 -3.726182,-3.726179 z m 0.465774,3.726179 h 2.794632 c 0.258041,0 0.46577,0.207739 0.46577,0.465774 v 2.794632 c 0,0.258037 -0.207737,0.465771 -0.46577,0.465771 h -2.794632 c -0.258038,0 -0.465774,-0.207738 -0.465774,-0.465771 v -2.794632 c 0,-0.258038 0.207737,-0.465774 0.465774,-0.465774 z m 5.589265,0 h 2.794632 c 0.258041,0 0.46577,0.207739 0.46577,0.465774 v 2.794632 c 0,0.258037 -0.207734,0.465771 -0.46577,0.465771 h -2.794632 c -0.258044,0 -0.465773,-0.207738 -0.465773,-0.465771 v -2.794632 c 0,-0.258038 0.207735,-0.465774 0.465773,-0.465774 z m 5.589266,0 h 2.794631 c 0.258036,0 0.465774,0.207739 0.465774,0.465774 v 2.794632 c 0,0.258037 -0.207721,0.465771 -0.465774,0.465771 h -2.794631 c -0.258042,0 -0.465773,-0.207738 -0.465773,-0.465771 v -2.794632 c 0,-0.258038 0.207732,-0.465774 0.465773,-0.465774 z m 5.589263,0 h 2.794635 c 0.258013,0 0.465772,0.207739 0.465772,0.465774 v 2.794632 c 0,0.258037 -0.207771,0.465771 -0.465772,0.465771 h -2.794635 c -0.258012,0 -0.465771,-0.207738 -0.465771,-0.465771 v -2.794632 c 0,-0.258038 0.207771,-0.465774 0.465771,-0.465774 z m -16.767794,5.589266 h 2.794632 c 0.258038,0 0.46577,0.207735 0.46577,0.46577 v 2.794635 c 0,0.258044 -0.207737,0.46577 -0.46577,0.46577 h -2.794632 c -0.258038,0 -0.465774,-0.207737 -0.465774,-0.46577 v -2.794635 c 0,-0.258036 0.207737,-0.46577 0.465774,-0.46577 z m 5.589265,0 h 2.794632 c 0.258041,0 0.46577,0.207735 0.46577,0.46577 v 2.794635 c 0,0.258044 -0.207734,0.46577 -0.46577,0.46577 h -2.794632 c -0.258044,0 -0.465773,-0.207737 -0.465773,-0.46577 v -2.794635 c 0,-0.258036 0.207735,-0.46577 0.465773,-0.46577 z m 5.589266,0 h 2.794631 c 0.258036,0 0.465774,0.207735 0.465774,0.46577 v 2.794635 c 0,0.258044 -0.207721,0.46577 -0.465774,0.46577 h -2.794631 c -0.258042,0 -0.465773,-0.207737 -0.465773,-0.46577 v -2.794635 c 0,-0.258036 0.207732,-0.46577 0.465773,-0.46577 z m 5.589263,0 h 2.794635 c 0.258013,0 0.465772,0.207735 0.465772,0.46577 v 2.794635 c 0,0.258044 -0.207771,0.46577 -0.465772,0.46577 h -2.794635 c -0.258012,0 -0.465771,-0.207737 -0.465771,-0.46577 v -2.794635 c 0,-0.258036 0.207771,-0.46577 0.465771,-0.46577 z m -13.04162,5.589265 h 12.110079 c 0.258048,0 0.46577,0.20774 0.46577,0.465772 v 2.794628 c 0,0.258045 -0.207771,0.465772 -0.46577,0.465772 H 25.930952 c -0.25804,0 -0.465772,-0.207739 -0.465772,-0.465772 v -2.794628 c 0,-0.258031 0.207739,-0.465772 0.465772,-0.465772 z"
       id="path5" />
  </g>
</svg>
