<?xml version="1.0" encoding="UTF-8" standalone="no"?>
<svg
   width="64"
   height="64"
   version="1.1"
   id="svg73"
   sodipodi:docname="printer.svg"
   inkscape:version="1.2.2 (b0a8486541, 2022-12-01)"
   xmlns:inkscape="http://www.inkscape.org/namespaces/inkscape"
   xmlns:sodipodi="http://sodipodi.sourceforge.net/DTD/sodipodi-0.dtd"
   xmlns="http://www.w3.org/2000/svg"
   xmlns:svg="http://www.w3.org/2000/svg"
   xmlns:rdf="http://www.w3.org/1999/02/22-rdf-syntax-ns#"
   xmlns:cc="http://creativecommons.org/ns#"
   xmlns:dc="http://purl.org/dc/elements/1.1/">
  <metadata
     id="metadata77">
    <rdf:RDF>
      <cc:Work
         rdf:about="">
        <dc:format>image/svg+xml</dc:format>
        <dc:type
           rdf:resource="http://purl.org/dc/dcmitype/StillImage" />
      </cc:Work>
    </rdf:RDF>
  </metadata>
  <sodipodi:namedview
     pagecolor="#f5f7fa"
     bordercolor="#666666"
     borderopacity="1"
     objecttolerance="10"
     gridtolerance="10"
     guidetolerance="10"
     inkscape:pageopacity="0"
     inkscape:pageshadow="2"
     inkscape:window-width="1280"
     inkscape:window-height="603"
     id="namedview75"
     showgrid="false"
     inkscape:zoom="6.2890625"
     inkscape:cx="52.313043"
     inkscape:cy="37.843478"
     inkscape:window-x="35"
     inkscape:window-y="32"
     inkscape:window-maximized="0"
     inkscape:current-layer="g877"
     inkscape:document-rotation="0"
     inkscape:pagecheckerboard="0"
     inkscape:showpageshadow="2"
     inkscape:deskcolor="#d1d1d1" />
  <defs
     id="defs29">
    <filter
       style="color-interpolation-filters:sRGB;"
       inkscape:label="Blur"
       id="filter1"
       x="-0.091333304"
       y="-0.091333304"
       width="1.1826666"
       height="1.1826666">
      <feGaussianBlur
         stdDeviation="1.3 1.3"
         result="blur"
         id="feGaussianBlur1" />
    </filter>
  </defs>
  <circle
     cx="32.516094"
     cy="31.877844"
     r="0"
     fill="url(#b)"
     stroke-width="1.5715"
     id="circle41"
     style="fill:url(#b)" />
  <g
     aria-label="GZ"
     transform="matrix(1.2212657,0,0,0.81882264,0.4960938,-0.1661539)"
     id="text93"
     style="font-weight:bold;font-size:11.5263px;line-height:1.25;font-family:sans-serif;-inkscape-font-specification:'sans-serif Bold';fill:#f2f2f2;stroke-width:0.288159" />
  <g
     id="g877"
     transform="matrix(1.1,0,0,1.1,-3.1845928,-3.2065454)">
    <rect
       style="fill:none;fill-opacity:1;stroke:#000000;stroke-width:2.72727;stroke-dasharray:none;stroke-opacity:1;filter:url(#filter1);opacity:0.5"
       id="rect1-5"
       width="49.090908"
       height="49.090908"
       x="7.4405394"
       y="7.4604964"
       rx="7.4768682"
       ry="7.477273" />
    <rect
       style="opacity:1;fill:#c4c2c5;stroke-width:2.72727273;stroke-opacity:1;fill-opacity:1;stroke:#1e2430;stroke-dasharray:none"
       id="rect1"
       width="49.090908"
       height="49.090908"
       x="7.4405394"
       y="7.4604964"
       rx="7.4768682"
       ry="7.477273" />
    <rect
       style="fill:#1e2430;fill-opacity:1;stroke:none;stroke-width:2.33829;stroke-dasharray:none;stroke-opacity:1"
       id="rect1-6"
       width="42.089317"
       height="42.089317"
       x="10.941335"
       y="10.961291"
       rx="5.5927272"
       ry="5.5927272" />
    <path
       id="path6189"
       style="fill:#f4e3cf;fill-opacity:1;stroke-width:0.0644916"
       d="m 26.135838,16.766379 c -4.357413,-8.02e-4 -4.440387,0.02427 -4.706714,0.123924 -0.446294,0.166981 -0.960768,0.623451 -1.188072,1.054287 l -0.173759,0.329398 -0.0168,13.619918 c -0.01659,13.521168 -0.01562,13.621992 0.11353,13.967171 0.235858,0.630383 0.796923,1.129109 1.478828,1.314121 0.229647,0.0623 2.545655,0.07726 10.484239,0.06769 l 10.189484,-0.01227 0.36511,-0.179356 c 0.479828,-0.235636 0.865398,-0.618333 1.076404,-1.068414 l 0.170831,-0.364575 V 31.97839 18.338486 l -0.221193,-0.407751 c -0.242802,-0.447822 -0.577769,-0.771063 -1.031371,-0.99459 L 42.381072,16.7909 32.083118,16.773841 c -2.567478,-0.0042 -4.494815,-0.0072 -5.947284,-0.0075 z m 5.743946,2.651441 c 6.607195,-0.01265 8.935557,0.0023 9.06964,0.05756 0.3826,0.157947 0.367774,-0.09203 0.367774,6.20233 0,4.053306 -0.02144,5.826315 -0.07169,5.970471 -0.03999,0.114701 -0.15226,0.246804 -0.254779,0.29982 -0.158726,0.08208 -1.365003,0.09443 -9.005411,0.09088 -4.852275,-0.0023 -8.884627,-0.02929 -8.960639,-0.05996 -0.362713,-0.146376 -0.345388,0.166359 -0.345388,-6.266825 v -5.915303 l 0.155638,-0.180955 0.155638,-0.180956 z m -2.059805,3.453615 c -0.104966,-0.0036 -0.244689,0.05609 -0.338458,0.144179 l -0.159637,0.150042 v 2.557098 2.557099 l 0.14498,0.132187 c 0.07981,0.07261 0.188514,0.146255 0.241718,0.163898 0.0532,0.01762 0.19751,-0.0088 0.320602,-0.0589 0.539245,-0.21927 4.404071,-2.375834 4.518562,-2.521385 0.164894,-0.209626 0.160049,-0.356307 -0.0184,-0.561256 -0.194057,-0.222887 -4.479635,-2.555215 -4.709386,-2.562964 z m 7.176134,10.215606 c 1.338758,0.06489 2.216138,1.130346 2.108308,2.560559 -0.06717,0.890775 -0.600767,1.65026 -1.357035,1.931617 -1.495227,0.556269 -2.934255,-0.358538 -3.053595,-1.941476 -0.112795,-1.496152 0.900354,-2.618661 2.302322,-2.5507 z m -9.93151,0.02028 c 0.540843,-4.75e-4 0.65581,0.02101 0.980463,0.180424 0.465167,0.228427 0.904414,0.710953 1.085735,1.192867 0.117606,0.312552 0.134532,0.46937 0.112998,1.044959 -0.02177,0.582191 -0.0502,0.724778 -0.201744,1.017777 -0.326614,0.631533 -0.877636,1.039719 -1.585427,1.173948 -0.38663,0.07332 -0.442624,0.0732 -0.820563,-0.0016 -0.647974,-0.128247 -1.305735,-0.655256 -1.592623,-1.276018 -0.117258,-0.253718 -0.139381,-0.419068 -0.139381,-1.043095 0,-0.721501 0.0061,-0.752698 0.219864,-1.147029 0.249082,-0.459355 0.506017,-0.709305 0.991924,-0.965009 0.297953,-0.156795 0.405788,-0.176951 0.948754,-0.177226 z m 9.932842,6.505346 c 1.095595,0.03303 2.016943,0.91576 2.107773,2.120566 0.08044,1.066965 -0.395442,1.949905 -1.270688,2.357754 -0.517774,0.241277 -1.254083,0.265732 -1.745862,0.0581 -0.96931,-0.409258 -1.479541,-1.292874 -1.394877,-2.415854 0.08224,-1.090867 0.770526,-1.8756 1.82528,-2.081126 0.161719,-0.03151 0.321861,-0.04416 0.478374,-0.03944 z m -9.932842,0.02104 c 0.273608,0.0021 0.604046,0.04856 0.760867,0.106598 0.61624,0.228073 1.121041,0.741524 1.327186,1.349841 0.154353,0.455482 0.140545,1.364364 -0.02773,1.81409 -0.174142,0.465434 -0.61977,0.953294 -1.072941,1.175009 -0.433453,0.212069 -1.250609,0.277166 -1.642461,0.130855 -0.643896,-0.240418 -1.015666,-0.565568 -1.331716,-1.16462 -0.159539,-0.302398 -0.173761,-0.390192 -0.173761,-1.071077 0,-0.87223 0.09758,-1.153666 0.576981,-1.66618 0.42586,-0.455281 0.952011,-0.67947 1.583563,-0.674516 z" />
  </g>
</svg>
