<?xml version="1.0" encoding="UTF-8" standalone="no"?>
<svg
   width="64"
   height="64"
   version="1.1"
   id="svg73"
   sodipodi:docname="printer.svg"
   inkscape:version="1.2.2 (b0a8486541, 2022-12-01)"
   xmlns:inkscape="http://www.inkscape.org/namespaces/inkscape"
   xmlns:sodipodi="http://sodipodi.sourceforge.net/DTD/sodipodi-0.dtd"
   xmlns="http://www.w3.org/2000/svg"
   xmlns:svg="http://www.w3.org/2000/svg"
   xmlns:rdf="http://www.w3.org/1999/02/22-rdf-syntax-ns#"
   xmlns:cc="http://creativecommons.org/ns#"
   xmlns:dc="http://purl.org/dc/elements/1.1/">
  <metadata
     id="metadata77">
    <rdf:RDF>
      <cc:Work
         rdf:about="">
        <dc:format>image/svg+xml</dc:format>
        <dc:type
           rdf:resource="http://purl.org/dc/dcmitype/StillImage" />
      </cc:Work>
    </rdf:RDF>
  </metadata>
  <sodipodi:namedview
     pagecolor="#f5f7fa"
     bordercolor="#666666"
     borderopacity="1"
     objecttolerance="10"
     gridtolerance="10"
     guidetolerance="10"
     inkscape:pageopacity="0"
     inkscape:pageshadow="2"
     inkscape:window-width="1280"
     inkscape:window-height="603"
     id="namedview75"
     showgrid="false"
     inkscape:zoom="6.2890625"
     inkscape:cx="52.313043"
     inkscape:cy="37.843478"
     inkscape:window-x="35"
     inkscape:window-y="32"
     inkscape:window-maximized="0"
     inkscape:current-layer="g877"
     inkscape:document-rotation="0"
     inkscape:pagecheckerboard="0"
     inkscape:showpageshadow="2"
     inkscape:deskcolor="#d1d1d1" />
  <defs
     id="defs29">
    <filter
       style="color-interpolation-filters:sRGB;"
       inkscape:label="Blur"
       id="filter1"
       x="-0.091333304"
       y="-0.091333304"
       width="1.1826666"
       height="1.1826666">
      <feGaussianBlur
         stdDeviation="1.3 1.3"
         result="blur"
         id="feGaussianBlur1" />
    </filter>
  </defs>
  <circle
     cx="32.516094"
     cy="31.877844"
     r="0"
     fill="url(#b)"
     stroke-width="1.5715"
     id="circle41"
     style="fill:url(#b)" />
  <g
     aria-label="GZ"
     transform="matrix(1.2212657,0,0,0.81882264,0.4960938,-0.1661539)"
     id="text93"
     style="font-weight:bold;font-size:11.5263px;line-height:1.25;font-family:sans-serif;-inkscape-font-specification:'sans-serif Bold';fill:#f2f2f2;stroke-width:0.288159" />
  <g
     id="g877"
     transform="matrix(1.1,0,0,1.1,-3.1845928,-3.2065454)">
    <rect
       style="fill:none;fill-opacity:1;stroke:#000000;stroke-width:2.72727;stroke-dasharray:none;stroke-opacity:1;filter:url(#filter1);opacity:0.5"
       id="rect1-5"
       width="49.090908"
       height="49.090908"
       x="7.4405394"
       y="7.4604964"
       rx="7.4768682"
       ry="7.477273" />
    <rect
       style="opacity:1;fill:#c4c2c5;stroke-width:2.72727273;stroke-opacity:1;fill-opacity:1;stroke:#1e2430;stroke-dasharray:none"
       id="rect1"
       width="49.090908"
       height="49.090908"
       x="7.4405394"
       y="7.4604964"
       rx="7.4768682"
       ry="7.477273" />
    <rect
       style="fill:#1e2430;fill-opacity:1;stroke:none;stroke-width:2.33829;stroke-dasharray:none;stroke-opacity:1"
       id="rect1-6"
       width="42.089317"
       height="42.089317"
       x="10.941335"
       y="10.961291"
       rx="5.5927272"
       ry="5.5927272" />
    <path
       style="fill:#f4e3cf;fill-opacity:1;stroke:none;stroke-width:0.911358;stroke-dasharray:none;stroke-opacity:0.3"
       d="M 22.143141,46.009954 C 20.636404,45.834472 19.37267,44.733386 18.938276,43.21758 18.846234,42.896408 18.835297,42.328823 18.817213,36.935753 l -0.0199,-5.928748 H 31.98457 45.171818 l -0.01933,5.928748 c -0.02201,6.612432 0.005,6.177082 -0.441286,7.07624 -0.302823,0.610117 -0.994059,1.301364 -1.604165,1.604174 -0.595894,0.295787 -1.008834,0.390602 -1.895801,0.435497 l -0.749238,0.03798 -0.01633,-3.113116 -0.016,-3.113125 -0.136091,-0.276284 c -0.17385,-0.352675 -0.529747,-0.708597 -0.882375,-0.882293 l -0.276384,-0.13609 -7.058938,-0.01568 c -8.111039,-0.01767 -7.406477,-0.06524 -8.010483,0.539739 -0.574667,0.575631 -0.554409,0.430989 -0.554409,3.958394 v 3.020101 l -0.48548,-0.0076 c -0.26675,-0.0047 -0.663699,-0.02868 -0.881856,-0.05387 z m 16.035417,-10.44406 c 0.285186,-0.193794 0.396847,-0.420318 0.396579,-0.804521 -3.99e-4,-0.578269 -0.355982,-0.929312 -0.941313,-0.929312 -0.585334,0 -0.940908,0.351036 -0.941314,0.929312 -3.99e-4,0.592513 0.355852,0.953323 0.941314,0.953323 0.251513,0 0.37568,-0.03398 0.544744,-0.148815 z m 3.736859,0.03141 c 0.287154,-0.175087 0.42566,-0.443257 0.42566,-0.824166 0,-0.590626 -0.350448,-0.9411 -0.941097,-0.9411 -0.59063,0 -0.941097,0.350474 -0.941097,0.9411 0,0.590624 0.350455,0.941097 0.941097,0.941097 0.219441,0 0.385437,-0.03774 0.515452,-0.116931 z M 24.452285,44.659302 V 43.24699 h 7.532305 7.532312 v 1.412312 1.412311 H 31.984589 24.452285 Z M 18.818688,28.373635 c 0.03407,-1.884 0.06509,-2.084295 0.439814,-2.839328 0.302638,-0.609772 0.993934,-1.301194 1.604171,-1.604452 0.722966,-0.359288 1.051842,-0.419082 2.324423,-0.422619 1.034636,-0.0032 1.135639,0.0064 1.353457,0.123237 0.515701,0.276816 0.754384,0.64107 0.823383,1.256533 0.05353,0.477266 0.159456,0.73924 0.400659,0.990692 0.40882,0.426195 -0.369771,0.388866 8.809225,0.422301 l 8.26788,0.0301 0.348364,0.131996 c 0.494614,0.187398 0.800555,0.379348 1.120443,0.702989 0.568762,0.575436 0.77842,1.121174 0.834618,2.172493 l 0.03874,0.727867 H 31.9861 18.788123 Z m 8.204218,-3.102525 c -0.415944,-0.145743 -0.628701,-0.441063 -0.628701,-0.872676 0,-0.302727 0.174252,-0.600256 0.441549,-0.753975 0.09698,-0.05576 2.308036,-0.847826 4.913453,-1.760115 2.605412,-0.912291 6.245573,-2.186877 8.089248,-2.832414 3.663532,-1.282734 3.599928,-1.267561 3.97837,-0.949131 0.469034,0.394668 0.471389,1.090575 0.0047,1.422802 -0.09315,0.0663 -1.238832,0.494795 -2.545992,0.95218 -1.307263,0.457383 -3.383029,1.183715 -4.612916,1.614072 -7.571443,2.649369 -9.136283,3.19372 -9.268247,3.22409 -0.08094,0.0186 -0.248172,-0.0019 -0.371683,-0.04483 z"
       id="path1-3" />
  </g>
</svg>
