<?xml version="1.0" encoding="UTF-8" standalone="no"?>
<svg
   width="64"
   height="64"
   version="1.1"
   id="svg73"
   sodipodi:docname="1password.svg"
   inkscape:version="1.2.2 (b0a8486541, 2022-12-01)"
   xmlns:inkscape="http://www.inkscape.org/namespaces/inkscape"
   xmlns:sodipodi="http://sodipodi.sourceforge.net/DTD/sodipodi-0.dtd"
   xmlns="http://www.w3.org/2000/svg"
   xmlns:svg="http://www.w3.org/2000/svg"
   xmlns:rdf="http://www.w3.org/1999/02/22-rdf-syntax-ns#"
   xmlns:cc="http://creativecommons.org/ns#"
   xmlns:dc="http://purl.org/dc/elements/1.1/">
  <metadata
     id="metadata77">
    <rdf:RDF>
      <cc:Work
         rdf:about="">
        <dc:format>image/svg+xml</dc:format>
        <dc:type
           rdf:resource="http://purl.org/dc/dcmitype/StillImage" />
      </cc:Work>
    </rdf:RDF>
  </metadata>
  <sodipodi:namedview
     pagecolor="#f5f7fa"
     bordercolor="#666666"
     borderopacity="1"
     objecttolerance="10"
     gridtolerance="10"
     guidetolerance="10"
     inkscape:pageopacity="0"
     inkscape:pageshadow="2"
     inkscape:window-width="1280"
     inkscape:window-height="603"
     id="namedview75"
     showgrid="false"
     inkscape:zoom="6.2890625"
     inkscape:cx="52.313043"
     inkscape:cy="37.843478"
     inkscape:window-x="35"
     inkscape:window-y="32"
     inkscape:window-maximized="0"
     inkscape:current-layer="g877"
     inkscape:document-rotation="0"
     inkscape:pagecheckerboard="0"
     inkscape:showpageshadow="2"
     inkscape:deskcolor="#d1d1d1" />
  <defs
     id="defs29">
    <filter
       style="color-interpolation-filters:sRGB;"
       inkscape:label="Blur"
       id="filter1"
       x="-0.091333304"
       y="-0.091333304"
       width="1.1826666"
       height="1.1826666">
      <feGaussianBlur
         stdDeviation="1.3 1.3"
         result="blur"
         id="feGaussianBlur1" />
    </filter>
  </defs>
  <circle
     cx="32.516094"
     cy="31.877844"
     r="0"
     fill="url(#b)"
     stroke-width="1.5715"
     id="circle41"
     style="fill:url(#b)" />
  <g
     aria-label="GZ"
     transform="matrix(1.2212657,0,0,0.81882264,0.4960938,-0.1661539)"
     id="text93"
     style="font-weight:bold;font-size:11.5263px;line-height:1.25;font-family:sans-serif;-inkscape-font-specification:'sans-serif Bold';fill:#f2f2f2;stroke-width:0.288159" />
  <g
     id="g877"
     transform="matrix(1.1,0,0,1.1,-3.1845928,-3.2065454)">
    <rect
       style="fill:none;fill-opacity:1;stroke:#000000;stroke-width:2.72727;stroke-dasharray:none;stroke-opacity:1;filter:url(#filter1);opacity:0.5"
       id="rect1-5"
       width="49.090908"
       height="49.090908"
       x="7.4405394"
       y="7.4604964"
       rx="7.4768682"
       ry="7.477273" />
    <rect
       style="opacity:1;fill:#c4c2c5;stroke-width:2.72727273;stroke-opacity:1;fill-opacity:1;stroke:#1e2430;stroke-dasharray:none"
       id="rect1"
       width="49.090908"
       height="49.090908"
       x="7.4405394"
       y="7.4604964"
       rx="7.4768682"
       ry="7.477273" />
    <rect
       style="fill:#1e2430;fill-opacity:1;stroke:none;stroke-width:2.33829;stroke-dasharray:none;stroke-opacity:1"
       id="rect1-6"
       width="42.089317"
       height="42.089317"
       x="10.941335"
       y="10.961291"
       rx="5.5927272"
       ry="5.5927272" />
    <path
       id="path59"
       style="fill:#f4e3cf;fill-opacity:1;stroke:none;stroke-width:0.941481;stroke-dasharray:none;stroke-dashoffset:2.2;stroke-opacity:0.3"
       d="m 32.264854,18.029423 c -14.091015,0 -13.533972,-0.02114 -13.831665,0.535099 -0.06886,0.128655 -0.112169,1.375919 -0.112169,3.271275 0,3.383336 0.0061,3.418823 0.689562,3.716274 0.278024,0.12101 2.604909,0.147304 13.189913,0.150784 11.676737,0.004 12.886366,-0.0122 13.224853,-0.172848 0.678195,-0.321829 0.701185,-0.452239 0.66565,-3.837636 l -0.03134,-3.032226 -0.353073,-0.316279 -0.354873,-0.314438 z m 7.682622,1.184206 c 0.430602,0.01093 0.840785,0.189321 1.044459,0.500162 0.398167,0.607684 0.144194,1.321168 -0.579234,1.627362 -0.429319,0.18172 -0.639543,0.180879 -1.072035,-0.0074 -0.438213,-0.190727 -0.68956,-0.559616 -0.68956,-1.011362 0,-0.474993 0.152662,-0.741809 0.538776,-0.941481 0.23391,-0.120962 0.499236,-0.173881 0.757594,-0.167337 z m -3.947962,0.0055 c 1.31975,0 1.677565,1.620372 0.465228,2.105457 -0.461583,0.184668 -0.534136,0.187745 -1.024232,0.04595 -0.683115,-0.19767 -0.977263,-0.936656 -0.636236,-1.596132 0.19324,-0.373677 0.586266,-0.555327 1.19524,-0.555327 z m 7.390247,0 c 1.374965,0 1.804434,1.597575 0.562678,2.094424 -0.241412,0.09658 -0.498731,0.170862 -0.571872,0.165498 -1.161493,-0.08519 -1.660635,-1.132559 -0.90102,-1.892166 0.320526,-0.320539 0.436634,-0.367764 0.910214,-0.367766 z m -12.147296,0.540557 c 0.264124,0 0.704272,0.496864 0.704272,0.794375 0,0.240596 -1.394657,2.20157 -2.145912,3.017515 -0.492744,0.535174 -1.314764,0.289097 -1.314764,-0.393509 0,-0.282159 0.220407,-0.643919 1.086748,-1.778146 1.064548,-1.393738 1.317458,-1.640247 1.669656,-1.640247 z m -9.047034,0.01843 c 0.14379,-0.01593 0.275452,0.04951 0.433964,0.167324 0.546709,0.406289 0.458388,0.720819 -0.586587,2.094395 -0.516589,0.679023 -1.063663,1.368173 -1.215466,1.531732 -0.331666,0.357352 -0.789552,0.390975 -1.099618,0.08092 -0.410467,-0.410465 -0.288243,-0.716471 0.921253,-2.296695 0.854344,-1.116208 1.230113,-1.542717 1.546454,-1.577713 z m 3.05613,0.0036 c 0.04925,2.62e-4 0.09922,0.0091 0.150783,0.02207 0.353119,0.08859 0.639703,0.529851 0.557163,0.858699 -0.06725,0.267928 -1.87606,2.689217 -2.252562,3.015672 -0.291679,0.252906 -0.765144,0.240409 -1.007678,-0.02758 -0.386188,-0.42677 -0.260156,-0.74606 0.860573,-2.20295 1.011299,-1.31463 1.346951,-1.66782 1.691721,-1.665978 z m 2.870413,0.02207 c 0.304869,-0.02132 0.649028,0.128354 0.728175,0.334613 0.178351,0.464785 0.04412,0.755504 -0.970902,2.090749 -0.572367,0.752936 -1.118553,1.429805 -1.211786,1.504155 -0.437285,0.348687 -1.20811,-0.01309 -1.20811,-0.566361 0,-0.375897 2.18182,-3.254622 2.533904,-3.342989 0.04101,-0.01026 0.08517,-0.01716 0.128718,-0.02025 z m 4.027033,8.153288 c -6.480432,0.0019 -12.947554,0.06337 -13.177042,0.182044 -0.646445,0.334277 -0.650945,0.35531 -0.650945,3.70892 0,1.886635 0.04394,3.143771 0.11217,3.271274 0.06096,0.113924 0.242476,0.27981 0.404541,0.367765 0.255305,0.138553 2.046121,0.159887 13.405057,0.163653 l 13.109006,0.0036 0.354869,-0.31444 0.353078,-0.316279 0.03134,-3.032229 c 0.03558,-3.400528 0.006,-3.571555 -0.684038,-3.859701 -0.283652,-0.118476 -6.777522,-0.176594 -13.257953,-0.174653 z m 3.817407,1.219143 c 0.182936,0.004 0.36426,0.05921 0.592104,0.167338 0.721198,0.342228 0.87574,1.236564 0.30709,1.77079 -0.192305,0.180643 -0.434723,0.266252 -0.860571,0.301566 -0.562716,0.04667 -0.613295,0.02847 -0.97458,-0.332824 -0.623166,-0.623167 -0.47105,-1.429395 0.33283,-1.765275 0.234661,-0.09805 0.420182,-0.145574 0.603138,-0.141588 z m 7.461964,0 c 0.182935,0.004 0.364261,0.05921 0.592104,0.167338 0.721195,0.342228 0.875748,1.236564 0.307089,1.77079 -0.192302,0.180643 -0.434724,0.266252 -0.860571,0.301573 -0.562719,0.04667 -0.613292,0.02844 -0.974582,-0.332828 -0.623165,-0.623168 -0.471047,-1.429397 0.332829,-1.765276 0.234677,-0.09805 0.420175,-0.145574 0.603131,-0.141589 z m -3.429413,0.0239 c 0.05841,0.0028 0.114789,0.01015 0.169165,0.02207 0.425116,0.09338 0.929372,0.521117 1.015031,0.862411 0.09795,0.390289 -0.190536,0.987012 -0.57188,1.184206 -0.622947,0.322146 -1.583171,0.132372 -1.849851,-0.365928 -0.179968,-0.336232 -0.126989,-0.927155 0.108487,-1.226498 0.235243,-0.29905 0.719996,-0.495771 1.129041,-0.476255 z M 22.215659,29.81628 c 0.40223,0 0.755757,0.338227 0.755757,0.722661 0,0.360382 -2.086676,3.146194 -2.464029,3.289662 -0.350081,0.133105 -0.38867,0.127159 -0.711626,-0.126876 -0.487876,-0.383765 -0.390052,-0.698791 0.641749,-2.065005 1.296005,-1.716042 1.399072,-1.82044 1.778149,-1.820442 z m 3.081874,0 c 0.279254,0 0.702432,0.455985 0.702432,0.757597 0,0.259598 -2.159091,3.093329 -2.465869,3.236339 -0.287009,0.133793 -0.320616,0.133218 -0.632555,0.0074 -0.296602,-0.119656 -0.374838,-0.251124 -0.386154,-0.64909 -0.0069,-0.247891 0.243733,-0.652738 1.09778,-1.77447 1.122543,-1.47438 1.23278,-1.577714 1.684366,-1.577714 z m 2.907189,0.0036 c 0.20624,-0.0085 0.409018,0.05376 0.535097,0.193083 0.381458,0.421502 0.240306,0.777402 -0.90654,2.274628 -0.59749,0.780034 -1.178545,1.467956 -1.29086,1.528068 -0.11231,0.06012 -0.282973,0.11033 -0.378798,0.11033 -0.261514,0 -0.70427,-0.496725 -0.70427,-0.788857 0,-0.226772 1.501273,-2.337089 2.190042,-3.078198 0.139799,-0.150415 0.349085,-0.23044 0.555329,-0.239041 z m 2.920058,0.0092 c 0.493481,-0.05285 0.913855,0.366234 0.787018,0.871601 -0.08485,0.338071 -2.069209,2.918497 -2.373926,3.087368 -0.295037,0.163487 -0.395979,0.164448 -0.673013,0.0074 -0.656108,-0.372094 -0.544829,-0.75014 0.707948,-2.392357 0.597976,-0.783862 1.199708,-1.469404 1.336829,-1.522549 0.07215,-0.02801 0.144648,-0.04394 0.215141,-0.05149 z m 1.140074,8.204856 c -14.090986,0 -13.533975,-0.02134 -13.831665,0.535094 -0.153642,0.28702 -0.150265,6.219979 0.0036,6.507618 0.06326,0.118223 0.270202,0.309225 0.459708,0.424762 0.336071,0.204905 0.661705,0.20924 13.24324,0.209606 14.14962,4.46e-4 13.457948,0.03267 13.807756,-0.643585 0.150496,-0.290921 0.170899,-0.749448 0.14346,-3.368732 l -0.03129,-3.034021 -0.353075,-0.314425 -0.354872,-0.316258 z m 3.401831,1.193406 c 0.08946,-6.76e-4 0.197667,0.0084 0.338331,0.02035 0.425852,0.03524 0.668286,0.119089 0.860576,0.299688 0.568653,0.534232 0.414114,1.428564 -0.307092,1.770801 -0.447306,0.212239 -0.767721,0.218506 -1.219144,0.02201 -0.78207,-0.340345 -0.923502,-1.147012 -0.308919,-1.761591 0.270962,-0.270951 0.367821,-0.349196 0.636234,-0.351209 z m 4.107942,0 c 0.596934,-0.03921 1.187217,0.270451 1.360735,0.796221 0.149861,0.454024 0.005,0.844416 -0.43212,1.167654 -0.828723,0.612819 -2.052136,0.09869 -2.052136,-0.862412 0,-0.474988 0.152662,-0.741813 0.538776,-0.94148 0.185168,-0.09575 0.385772,-0.146894 0.584745,-0.159997 z m 3.354022,0 c 0.08945,-6.76e-4 0.197639,0.0084 0.338341,0.02035 0.425844,0.03524 0.668283,0.119089 0.860575,0.299688 0.568655,0.534232 0.414107,1.428564 -0.30709,1.770801 -0.447306,0.212239 -0.767722,0.218506 -1.219142,0.02201 -0.782075,-0.340353 -0.923507,-1.147022 -0.308891,-1.761605 0.27095,-0.27095 0.367819,-0.349191 0.636235,-0.351204 z m -11.928476,0.536907 c 0.298431,0 0.746562,0.476661 0.746562,0.794372 0,0.240544 -1.394658,2.201575 -2.145911,3.01752 -0.512747,0.556897 -1.314764,0.301623 -1.314764,-0.41925 0,-0.239177 0.253503,-0.656374 0.981935,-1.614495 1.103017,-1.450817 1.421247,-1.778147 1.732178,-1.778147 z m -8.912799,0.02767 c 0.114184,0.011 0.224298,0.07121 0.351216,0.165463 0.533647,0.396551 0.443172,0.716672 -0.592104,2.085237 -0.514531,0.68016 -1.061691,1.370018 -1.215465,1.533579 -0.335777,0.357135 -0.79357,0.390639 -1.103297,0.08088 -0.409493,-0.409508 -0.286716,-0.715396 0.915737,-2.283841 0.928389,-1.210967 1.301365,-1.614976 1.643913,-1.581393 z m 2.934766,0.01834 c 0.276609,0.0084 0.570942,0.180967 0.689561,0.441317 0.171758,0.376954 0.0085,0.676563 -1.233852,2.270953 -0.917816,1.177831 -1.046778,1.300172 -1.391993,1.329474 -0.275044,0.02367 -0.435183,-0.02967 -0.581068,-0.191236 -0.395314,-0.436816 -0.271504,-0.743443 0.908379,-2.263595 0.610345,-0.786369 1.216193,-1.47811 1.346022,-1.537265 0.08124,-0.03704 0.170748,-0.05237 0.262951,-0.04968 z m 2.892479,0.0019 c 0.261215,-0.01333 0.591583,0.126388 0.720818,0.319925 0.252984,0.37888 0.0651,0.785504 -1.009515,2.173498 -0.598297,0.772776 -1.144297,1.439824 -1.213626,1.483933 -0.43673,0.277853 -1.152945,-0.104752 -1.152945,-0.616009 0,-0.379698 2.191258,-3.256972 2.548616,-3.346668 0.03366,-0.0084 0.06934,-0.013 0.106653,-0.01435 z" />
  </g>
</svg>
