<?xml version="1.0" encoding="UTF-8" standalone="no"?>
<svg
   width="128"
   height="128"
   version="1.1"
   id="svg73"
   sodipodi:docname="abcd.svg"
   inkscape:version="1.2.2 (b0a8486541, 2022-12-01)"
   xmlns:inkscape="http://www.inkscape.org/namespaces/inkscape"
   xmlns:sodipodi="http://sodipodi.sourceforge.net/DTD/sodipodi-0.dtd"
   xmlns="http://www.w3.org/2000/svg"
   xmlns:svg="http://www.w3.org/2000/svg"
   xmlns:rdf="http://www.w3.org/1999/02/22-rdf-syntax-ns#"
   xmlns:cc="http://creativecommons.org/ns#"
   xmlns:dc="http://purl.org/dc/elements/1.1/">
  <metadata
     id="metadata77">
    <rdf:RDF>
      <cc:Work
         rdf:about="">
        <dc:format>image/svg+xml</dc:format>
        <dc:type
           rdf:resource="http://purl.org/dc/dcmitype/StillImage" />
      </cc:Work>
    </rdf:RDF>
  </metadata>
  <sodipodi:namedview
     pagecolor="#f5f7fa"
     bordercolor="#666666"
     borderopacity="1"
     objecttolerance="10"
     gridtolerance="10"
     guidetolerance="10"
     inkscape:pageopacity="0"
     inkscape:pageshadow="2"
     inkscape:window-width="1226"
     inkscape:window-height="605"
     id="namedview75"
     showgrid="false"
     inkscape:zoom="2.2235194"
     inkscape:cx="92.645922"
     inkscape:cy="100.29146"
     inkscape:window-x="35"
     inkscape:window-y="32"
     inkscape:window-maximized="0"
     inkscape:current-layer="g877"
     inkscape:document-rotation="0"
     inkscape:pagecheckerboard="0"
     inkscape:showpageshadow="2"
     inkscape:deskcolor="#d1d1d1" />
  <defs
     id="defs29">
    <filter
       style="color-interpolation-filters:sRGB;"
       inkscape:label="Blur"
       id="filter1745"
       x="-0.13107264"
       y="-0.13107267"
       width="1.2621453"
       height="1.2621453">
      <feGaussianBlur
         stdDeviation="5 5"
         result="blur"
         id="feGaussianBlur1743" />
    </filter>
  </defs>
  <g
     id="g877"
     transform="matrix(1.1,0,0,1.1,-3.1845928,-3.2065454)">
    <rect
       style="fill:#000000;fill-opacity:1;stroke:none;stroke-width:1.54636;stroke-dasharray:none;stroke-dashoffset:0;stroke-opacity:1;filter:url(#filter1745);opacity:0.5"
       id="rect1-6-2"
       width="91.552284"
       height="91.552269"
       x="15.30076"
       y="15.320724"
       rx="10.239244"
       ry="10.239242" />
    <path
       style="fill:#f5f7fa;stroke-width:0.204426;fill-opacity:1"
       d=""
       id="path3" />
    <rect
       style="fill:#f4e3cf;fill-opacity:1;stroke:none;stroke-width:1.54636;stroke-dasharray:none;stroke-dashoffset:0;stroke-opacity:1"
       id="rect1-6"
       width="91.552284"
       height="91.552269"
       x="15.30076"
       y="15.320724"
       rx="10.239244"
       ry="10.239242" />
    <rect
       style="fill:#1e2430;fill-opacity:1;stroke:none;stroke-width:1.62368;stroke-dasharray:none;stroke-dashoffset:0;stroke-opacity:1"
       id="rect1-6-7"
       width="82.625923"
       height="82.625931"
       x="19.763933"
       y="19.783899"
       rx="6.4776411"
       ry="6.4776425" />
    <path
       d="m 73.077527,84.193249 h 8.330968 v 1.09375 l -6.704548,8.302562 h 6.8679 v 1.20738 h -8.657672 v -1.09374 l 6.704548,-8.302566 h -6.541196 z m 10.575288,0 h 1.434658 v 10.603692 h -1.434658 z m 5.724434,1.178978 v 3.984376 h 1.803978 q 1.00142,0 1.548296,-0.518466 0.546874,-0.518466 0.546874,-1.477274 0,-0.951704 -0.546874,-1.47017 -0.546876,-0.518466 -1.548296,-0.518466 z m -1.43466,-1.178978 h 3.238638 q 1.78267,0 2.691762,0.809658 0.916194,0.802558 0.916194,2.357956 0,1.569604 -0.916194,2.37216 -0.909092,0.802558 -2.691762,0.802558 h -1.803978 v 4.26136 h -1.43466 z"
       id="text3"
       style="font-size:7.27273px;fill:#f4e3cf;fill-opacity:1;stroke-width:1.81818"
       aria-label="ZIP" />
    <path
       style="fill:#f4e3cf;fill-opacity:1;stroke-width:1.47272"
       d="m 55.080796,33.805954 c 0,6.075002 0,11.78182 -3.53286,11.78182 -1.599505,0 -3.501009,-0.01296 -4.633708,-2.020686 -1.544815,-2.737694 2.170466,-7.736132 2.170466,-7.736132 -9.264792,2.906086 -15.98961,8.693291 -15.98961,15.717482 0,5.483686 4.880226,11.386796 10.992856,14.657519 0,0 -2.936863,-8.946166 0.944698,-10.125 2.104209,-0.338771 4.863796,1.979131 6.050758,4.05 0,0 -0.427074,-3.988219 2.627195,-4.05 3.054274,-0.06179 6.84931,5.434121 7.366311,10.125 0.516998,-4.690879 4.312035,-10.186782 7.366307,-10.125 3.054271,0.06179 2.627198,4.05 2.627198,4.05 1.186959,-2.070869 3.946546,-4.388771 6.050757,-4.05 3.88156,1.178834 0.944698,10.125 0.944698,10.125 6.112629,-3.270723 10.992857,-9.173834 10.992857,-14.657519 0,-7.02419 -6.724818,-12.811396 -15.98961,-15.717482 0,0 3.715281,4.998438 2.170465,7.736132 -1.132701,2.00767 -3.034203,2.020686 -4.63371,2.020686 -3.532858,0 -3.532858,-5.706817 -3.532858,-11.78182 l -4.184782,4.418184 h -1.811322 -1.811324 z"
       id="path6" />
  </g>
</svg>
