<?xml version="1.0" encoding="UTF-8" standalone="no"?>
<svg
   width="128"
   height="128"
   version="1.1"
   id="svg73"
   sodipodi:docname="abcd.svg"
   inkscape:version="1.2.2 (b0a8486541, 2022-12-01)"
   xmlns:inkscape="http://www.inkscape.org/namespaces/inkscape"
   xmlns:sodipodi="http://sodipodi.sourceforge.net/DTD/sodipodi-0.dtd"
   xmlns="http://www.w3.org/2000/svg"
   xmlns:svg="http://www.w3.org/2000/svg"
   xmlns:rdf="http://www.w3.org/1999/02/22-rdf-syntax-ns#"
   xmlns:cc="http://creativecommons.org/ns#"
   xmlns:dc="http://purl.org/dc/elements/1.1/">
  <metadata
     id="metadata77">
    <rdf:RDF>
      <cc:Work
         rdf:about="">
        <dc:format>image/svg+xml</dc:format>
        <dc:type
           rdf:resource="http://purl.org/dc/dcmitype/StillImage" />
      </cc:Work>
    </rdf:RDF>
  </metadata>
  <sodipodi:namedview
     pagecolor="#f5f7fa"
     bordercolor="#666666"
     borderopacity="1"
     objecttolerance="10"
     gridtolerance="10"
     guidetolerance="10"
     inkscape:pageopacity="0"
     inkscape:pageshadow="2"
     inkscape:window-width="1226"
     inkscape:window-height="605"
     id="namedview75"
     showgrid="false"
     inkscape:zoom="2"
     inkscape:cx="39.5"
     inkscape:cy="55.5"
     inkscape:window-x="35"
     inkscape:window-y="32"
     inkscape:window-maximized="0"
     inkscape:current-layer="g877"
     inkscape:document-rotation="0"
     inkscape:pagecheckerboard="0"
     inkscape:showpageshadow="2"
     inkscape:deskcolor="#d1d1d1" />
  <defs
     id="defs29">
    <filter
       style="color-interpolation-filters:sRGB;"
       inkscape:label="Blur"
       id="filter6"
       x="-0.044145008"
       y="-0.044145008"
       width="1.08829"
       height="1.08829">
      <feGaussianBlur
         stdDeviation="1 1"
         result="blur"
         id="feGaussianBlur6" />
    </filter>
    <filter
       style="color-interpolation-filters:sRGB;"
       inkscape:label="Blur"
       id="filter7"
       x="-0.098100013"
       y="-0.098100021"
       width="1.1962"
       height="1.1962">
      <feGaussianBlur
         stdDeviation="2 2"
         result="blur"
         id="feGaussianBlur7" />
    </filter>
    <clipPath
       id="clip0_515_3621">
      <rect
         width="16"
         height="16"
         fill="#ffffff"
         transform="translate(0.00292969)"
         id="rect7969"
         x="0"
         y="0" />
    </clipPath>
    <filter
       style="color-interpolation-filters:sRGB;"
       inkscape:label="Blur"
       id="filter3991"
       x="-0.12945447"
       y="-0.10485813"
       width="1.2589089"
       height="1.2097163">
      <feGaussianBlur
         stdDeviation="4 4"
         result="blur"
         id="feGaussianBlur3989" />
    </filter>
  </defs>
  <g
     id="g877"
     transform="matrix(1.1,0,0,1.1,-3.1845928,-3.2065454)">
    <rect
       style="fill:#000000;fill-opacity:1;stroke:none;stroke-width:1.39173;stroke-dasharray:none;stroke-dashoffset:0;stroke-opacity:1;filter:url(#filter3991);opacity:0.5"
       id="rect1-6-5"
       width="74.157349"
       height="91.552269"
       x="23.998228"
       y="15.320724"
       rx="8.293788"
       ry="10.239242" />
    <path
       style="fill:#f5f7fa;fill-opacity:1;stroke-width:0.408852"
       d=""
       id="path3" />
    <rect
       style="fill:#f4e3cf;fill-opacity:1;stroke:none;stroke-width:1.39173;stroke-dasharray:none;stroke-dashoffset:0;stroke-opacity:1"
       id="rect1-6"
       width="74.157349"
       height="91.552269"
       x="23.998228"
       y="15.320724"
       rx="8.293788"
       ry="10.239242" />
    <rect
       style="fill:#1e2430;fill-opacity:1;stroke:none;stroke-width:1.45399;stroke-dasharray:none;stroke-dashoffset:0;stroke-opacity:1"
       id="rect1-6-7"
       width="66.257729"
       height="82.625931"
       x="27.948032"
       y="19.783897"
       rx="5.1944203"
       ry="6.4776425" />
    <path
       style="fill:#f4e3cf;fill-opacity:1;stroke-width:1.63636"
       d="m 61.626582,73.376796 c -0.267242,0.01656 -0.533754,0.06169 -0.792563,0.13104 -1.035227,0.277415 -1.947269,0.979839 -2.483145,1.908089 -0.535873,0.928254 -0.686452,2.071305 -0.409063,3.106638 0.277387,1.035333 0.97974,1.947463 1.907899,2.483391 0.928163,0.535927 2.0711,0.68652 3.10633,0.409104 1.035229,-0.277414 1.947271,-0.979839 2.483147,-1.908088 0.535873,-0.928255 0.686452,-2.071305 0.409063,-3.106638 -0.277389,-1.035335 -0.97974,-1.947467 -1.907901,-2.483395 -0.696121,-0.401944 -1.512042,-0.589731 -2.313767,-0.540146 z M 73.134698,57.00888 c -1.172741,0.03213 -2.338804,0.406994 -3.28849,1.096272 -1.101287,0.79931 -1.882904,1.949801 -2.742005,3.00436 -0.42955,0.527281 -0.885592,1.036715 -1.41255,1.467023 -0.526955,0.43031 -1.128868,0.782932 -1.786456,0.958839 -0.657589,0.175896 -1.354277,0.170352 -2.026147,0.06073 -0.671873,-0.109602 -1.32295,-0.323493 -1.959032,-0.565715 -1.272166,-0.484441 -2.52245,-1.091207 -3.876519,-1.233706 -1.868265,-0.196615 -3.813119,0.57804 -5.033402,2.003973 -1.220284,1.425936 -1.681455,3.465241 -1.195232,5.276806 0.48622,1.81157 1.904224,3.343819 3.675181,3.96959 1.77096,0.625776 3.843077,0.326186 5.36257,-0.776656 1.101291,-0.79931 1.882905,-1.949804 2.742007,-3.004361 0.42955,-0.527281 0.885595,-1.036715 1.412552,-1.467023 0.526955,-0.43031 1.128868,-0.782932 1.786457,-0.958838 0.657586,-0.175896 1.354273,-0.170352 2.026144,-0.06073 0.671872,0.10962 1.322946,0.323492 1.95903,0.565713 1.272165,0.484444 2.52245,1.091206 3.87652,1.233707 1.868267,0.196614 3.813118,-0.578038 5.033405,-2.003972 1.220283,-1.425935 1.681454,-3.465242 1.19523,-5.276808 C 78.397738,59.486513 76.97974,57.954267 75.208781,57.328491 74.544671,57.093827 73.838345,56.9896 73.134698,57.00888 Z M 72.78955,40.645247 c -1.563656,0.04178 -3.118408,0.529416 -4.38465,1.425474 -1.468386,1.039104 -2.507346,2.537941 -3.652814,3.908864 -0.572733,0.685463 -1.182921,1.345491 -1.885527,1.904893 -0.70261,0.559402 -1.504096,1.014615 -2.380882,1.243294 -0.876783,0.228678 -1.804633,0.225611 -2.700462,0.08309 -0.895828,-0.142506 -1.766061,-0.420224 -2.614173,-0.735111 -1.696219,-0.629776 -3.365395,-1.419206 -5.17082,-1.604455 -2.491022,-0.2556 -5.084161,0.751131 -6.711205,2.604845 -1.627045,1.853712 -2.243005,4.503852 -1.594708,6.858889 0.648293,2.355039 2.544289,4.348244 4.905569,5.161749 2.361279,0.813508 5.123037,0.423716 7.149029,-1.009977 1.468386,-1.039102 2.507344,-2.53794 3.652812,-3.908865 0.572733,-0.685464 1.182921,-1.34549 1.885529,-1.904892 0.702605,-0.559402 1.504094,-1.014618 2.380878,-1.243294 0.876785,-0.228679 1.804635,-0.225612 2.700463,-0.08309 0.895831,0.142506 1.766062,0.420223 2.614174,0.735111 1.696221,0.629775 3.365395,1.419206 5.170822,1.604453 2.49102,0.2556 5.084156,-0.751127 6.711203,-2.604843 1.627045,-1.853713 2.243003,-4.503852 1.59471,-6.858891 -0.648297,-2.355037 -2.544291,-4.348242 -4.905571,-5.161748 -0.885479,-0.305064 -1.826183,-0.440561 -2.764377,-0.415496 z"
       id="path7" />
    <g
       id="g6019"
       style="fill:#f4e3cf;fill-opacity:1"
       transform="matrix(1.6363636,0,0,1.6363636,8.6240773,-3.6100595)" />
  </g>
</svg>
