<?xml version="1.0" encoding="UTF-8" standalone="no"?>
<svg
   width="128"
   height="128"
   version="1.1"
   id="svg73"
   sodipodi:docname="abcd.svg"
   inkscape:version="1.2.2 (b0a8486541, 2022-12-01)"
   xmlns:inkscape="http://www.inkscape.org/namespaces/inkscape"
   xmlns:sodipodi="http://sodipodi.sourceforge.net/DTD/sodipodi-0.dtd"
   xmlns="http://www.w3.org/2000/svg"
   xmlns:svg="http://www.w3.org/2000/svg"
   xmlns:rdf="http://www.w3.org/1999/02/22-rdf-syntax-ns#"
   xmlns:cc="http://creativecommons.org/ns#"
   xmlns:dc="http://purl.org/dc/elements/1.1/">
  <metadata
     id="metadata77">
    <rdf:RDF>
      <cc:Work
         rdf:about="">
        <dc:format>image/svg+xml</dc:format>
        <dc:type
           rdf:resource="http://purl.org/dc/dcmitype/StillImage" />
      </cc:Work>
    </rdf:RDF>
  </metadata>
  <sodipodi:namedview
     pagecolor="#f5f7fa"
     bordercolor="#666666"
     borderopacity="1"
     objecttolerance="10"
     gridtolerance="10"
     guidetolerance="10"
     inkscape:pageopacity="0"
     inkscape:pageshadow="2"
     inkscape:window-width="1226"
     inkscape:window-height="605"
     id="namedview75"
     showgrid="false"
     inkscape:zoom="2"
     inkscape:cx="39.5"
     inkscape:cy="55.5"
     inkscape:window-x="35"
     inkscape:window-y="32"
     inkscape:window-maximized="0"
     inkscape:current-layer="g877"
     inkscape:document-rotation="0"
     inkscape:pagecheckerboard="0"
     inkscape:showpageshadow="2"
     inkscape:deskcolor="#d1d1d1" />
  <defs
     id="defs29">
    <filter
       style="color-interpolation-filters:sRGB;"
       inkscape:label="Blur"
       id="filter6"
       x="-0.044145008"
       y="-0.044145008"
       width="1.08829"
       height="1.08829">
      <feGaussianBlur
         stdDeviation="1 1"
         result="blur"
         id="feGaussianBlur6" />
    </filter>
    <filter
       style="color-interpolation-filters:sRGB;"
       inkscape:label="Blur"
       id="filter7"
       x="-0.098100013"
       y="-0.098100021"
       width="1.1962"
       height="1.1962">
      <feGaussianBlur
         stdDeviation="2 2"
         result="blur"
         id="feGaussianBlur7" />
    </filter>
    <clipPath
       id="clip0_515_3621">
      <rect
         width="16"
         height="16"
         fill="#ffffff"
         transform="translate(0.00292969)"
         id="rect7969"
         x="0"
         y="0" />
    </clipPath>
    <filter
       style="color-interpolation-filters:sRGB;"
       inkscape:label="Blur"
       id="filter3991"
       x="-0.12945447"
       y="-0.10485813"
       width="1.2589089"
       height="1.2097163">
      <feGaussianBlur
         stdDeviation="4 4"
         result="blur"
         id="feGaussianBlur3989" />
    </filter>
  </defs>
  <g
     id="g877"
     transform="matrix(1.1,0,0,1.1,-3.1845928,-3.2065454)">
    <rect
       style="fill:#000000;fill-opacity:1;stroke:none;stroke-width:1.39173;stroke-dasharray:none;stroke-dashoffset:0;stroke-opacity:1;filter:url(#filter3991);opacity:0.5"
       id="rect1-6-5"
       width="74.157349"
       height="91.552269"
       x="23.998228"
       y="15.320724"
       rx="8.293788"
       ry="10.239242" />
    <path
       style="fill:#f5f7fa;fill-opacity:1;stroke-width:0.408852"
       d=""
       id="path3" />
    <rect
       style="fill:#f4e3cf;fill-opacity:1;stroke:none;stroke-width:1.39173;stroke-dasharray:none;stroke-dashoffset:0;stroke-opacity:1"
       id="rect1-6"
       width="74.157349"
       height="91.552269"
       x="23.998228"
       y="15.320724"
       rx="8.293788"
       ry="10.239242" />
    <rect
       style="fill:#1e2430;fill-opacity:1;stroke:none;stroke-width:1.45399;stroke-dasharray:none;stroke-dashoffset:0;stroke-opacity:1"
       id="rect1-6-7"
       width="66.257729"
       height="82.625931"
       x="27.948032"
       y="19.783897"
       rx="5.1944203"
       ry="6.4776425" />
    <path
       fill="#f5f7fa"
       d="m 67.787468,58.323722 c -1.166757,-0.4255 -1.988831,-1.417698 -1.988831,-2.585617 0,-1.169644 0.824053,-2.161856 1.990811,-2.585616 0.154512,-0.05684 0.249584,-0.196369 0.209955,-0.33933 -0.352582,-1.262681 -0.927048,-2.449547 -1.685736,-3.527891 -0.08716,-0.124038 -0.267417,-0.165384 -0.423918,-0.108522 -1.170714,0.416871 -2.55933,0.222221 -3.510169,-0.60463 -0.950837,-0.826839 -1.174678,-2.032658 -0.6953,-3.050711 0.06338,-0.13437 0.01805,-0.291117 -0.124794,-0.368632 -1.242024,-0.659753 -2.606865,-1.159305 -4.058867,-1.465929 -0.164412,-0.03442 -0.324869,0.04819 -0.39024,0.182597 -0.487305,1.016332 -1.630285,1.734655 -2.975321,1.734655 -1.343054,0 -2.484057,-0.716602 -2.973339,-1.731206 -0.06538,-0.13437 -0.225822,-0.21705 -0.390238,-0.182601 -1.452006,0.308349 -2.818831,0.809615 -4.058876,1.471095 -0.142632,0.07582 -0.186206,0.23083 -0.124794,0.363465 0.4774,1.018053 0.253555,2.223869 -0.697277,3.050717 -0.948853,0.825122 -2.333507,1.021493 -3.502242,0.608071 -0.154512,-0.05515 -0.330816,-0.01548 -0.417967,0.108522 -0.758689,1.080068 -1.333152,2.268657 -1.683772,3.531321 -0.03962,0.141228 0.05548,0.282483 0.209977,0.339332 1.162791,0.425499 1.984869,1.417691 1.984869,2.583889 0,1.166197 -0.818114,2.154966 -1.978925,2.582169 -0.15453,0.05684 -0.249594,0.196369 -0.209977,0.33933 0.352602,1.262668 0.931026,2.449532 1.691692,3.529602 0.08716,0.12231 0.263462,0.161892 0.417974,0.10854 1.168735,-0.411672 2.55141,-0.213582 3.49828,0.609801 0.946874,0.821678 1.172695,2.024049 0.701241,3.038654 -0.06143,0.13437 -0.01584,0.287658 0.124794,0.363502 1.24203,0.661479 2.608857,1.161033 4.060859,1.467657 0.162432,0.03456 0.32487,-0.0486 0.390238,-0.182604 0.491265,-1.009442 1.630286,-1.720879 2.969378,-1.720879 1.341072,0 2.478114,0.711437 2.969379,1.720879 0.06538,0.134352 0.22582,0.217069 0.390238,0.182604 1.452004,-0.306644 2.818829,-0.806178 4.060854,-1.467657 0.142632,-0.0758 0.18621,-0.229141 0.124776,-0.363502 -0.47542,-1.016329 -0.249581,-2.220425 0.699258,-3.045543 0.94886,-0.825127 2.335497,-1.019774 3.504226,-0.606359 0.154548,0.05515 0.33079,0.01548 0.417958,-0.10854 0.760662,-1.080055 1.337107,-2.266929 1.689714,-3.53131 0.03557,-0.142956 -0.05942,-0.282535 -0.215967,-0.339332 z m -13.644484,3.441737 c -3.823148,0 -6.933167,-2.704472 -6.933167,-6.029081 0,-3.324598 3.110019,-6.029076 6.933167,-6.029076 3.823147,0 6.933169,2.704478 6.933169,6.029076 0,3.324609 -3.110022,6.029081 -6.933169,6.029081 z m 27.715829,9.20115 c -0.0085,0.0947 -0.09653,0.166176 -0.203344,0.173286 -0.815569,0.06962 -1.544854,0.546651 -1.801642,1.271932 -0.256745,0.723515 0.03708,1.4756 0.665597,1.932924 0.08428,0.06077 0.110934,0.16263 0.05546,0.244723 -0.495108,0.725294 -1.113444,1.364839 -1.82218,1.90791 -0.08217,0.06257 -0.199236,0.05717 -0.283496,-0.002 -0.634783,-0.450173 -1.536633,-0.559159 -2.304943,-0.205448 -0.768327,0.353682 -1.170965,1.061141 -1.101121,1.770354 0.0099,0.09472 -0.05134,0.182197 -0.15615,0.205446 -0.914172,0.20184 -1.869432,0.285802 -2.837016,0.234004 -0.108864,-0.0059 -0.19107,-0.08217 -0.201341,-0.176832 -0.08422,-0.707433 -0.63274,-1.336255 -1.462678,-1.559562 -0.832002,-0.223329 -1.692758,0.03006 -2.218677,0.573455 -0.06984,0.07326 -0.18691,0.0965 -0.281441,0.0486 -0.834049,-0.432336 -1.569502,-0.968245 -2.194016,-1.58456 -0.07189,-0.07151 -0.06572,-0.173286 0.002,-0.246574 0.513585,-0.550224 0.638897,-1.33269 0.23215,-1.999023 -0.406786,-0.668127 -1.220264,-1.020056 -2.033777,-0.959321 -0.106812,0.0092 -0.207501,-0.04459 -0.234202,-0.135756 -0.234205,-0.796744 -0.330743,-1.62743 -0.273231,-2.468844 0.0061,-0.09472 0.09448,-0.166176 0.203397,-0.175086 0.813511,-0.07333 1.536634,-0.550335 1.793421,-1.272052 0.256797,-0.723509 -0.03506,-1.473808 -0.66149,-1.931134 -0.08219,-0.06077 -0.110934,-0.162576 -0.05546,-0.244724 0.493055,-0.72351 1.111385,-1.364838 1.818067,-1.90791 0.08219,-0.06257 0.199285,-0.05717 0.283498,0.002 0.63274,0.450171 1.534579,0.559157 2.302899,0.205448 0.770374,-0.353684 1.173016,-1.064714 1.101124,-1.773932 -0.0099,-0.09288 0.0513,-0.182198 0.15615,-0.205449 0.914174,-0.203639 1.871486,-0.287604 2.839068,-0.237555 0.108864,0.0058 0.191067,0.08395 0.201338,0.178704 0.08015,0.711002 0.630678,1.343394 1.46268,1.5667 0.834051,0.223332 1.698917,-0.03208 2.224819,-0.580593 0.06984,-0.07142 0.186912,-0.09648 0.281447,-0.0486 0.834057,0.430533 1.569504,0.968249 2.194018,1.582776 0.07189,0.06964 0.06777,0.175086 -0.0018,0.24833 -0.51975,0.552007 -0.645068,1.336255 -0.238263,2.006166 0.406739,0.669921 1.224378,1.02184 2.041996,0.957528 0.108864,-0.0092 0.211561,0.0461 0.238261,0.13752 0.232149,0.79497 0.328685,1.625663 0.269119,2.467075 z m -10.553035,3.245952 c 2.368631,0.634183 4.891329,-0.525218 5.620614,-2.584974 0.729286,-2.059755 -0.603974,-4.253501 -2.972598,-4.887683 -2.36863,-0.634186 -4.891339,0.525215 -5.620626,2.584968 -0.729286,2.059765 0.60398,4.253508 2.97261,4.887689 z"
       id="path42-3"
       style="fill:#f4e3cf;fill-opacity:1;stroke:none;stroke-width:1.63636;stroke-dasharray:none;stroke-opacity:0.3" />
    <g
       id="g6019"
       style="fill:#f4e3cf;fill-opacity:1"
       transform="matrix(1.6363636,0,0,1.6363636,8.6240773,-3.6100595)" />
  </g>
</svg>
