<?xml version="1.0" encoding="UTF-8" standalone="no"?>
<svg
   width="128"
   height="128"
   version="1.1"
   id="svg73"
   sodipodi:docname="abcd.svg"
   inkscape:version="1.2.2 (b0a8486541, 2022-12-01)"
   xmlns:inkscape="http://www.inkscape.org/namespaces/inkscape"
   xmlns:sodipodi="http://sodipodi.sourceforge.net/DTD/sodipodi-0.dtd"
   xmlns="http://www.w3.org/2000/svg"
   xmlns:svg="http://www.w3.org/2000/svg"
   xmlns:rdf="http://www.w3.org/1999/02/22-rdf-syntax-ns#"
   xmlns:cc="http://creativecommons.org/ns#"
   xmlns:dc="http://purl.org/dc/elements/1.1/">
  <metadata
     id="metadata77">
    <rdf:RDF>
      <cc:Work
         rdf:about="">
        <dc:format>image/svg+xml</dc:format>
        <dc:type
           rdf:resource="http://purl.org/dc/dcmitype/StillImage" />
      </cc:Work>
    </rdf:RDF>
  </metadata>
  <sodipodi:namedview
     pagecolor="#f5f7fa"
     bordercolor="#666666"
     borderopacity="1"
     objecttolerance="10"
     gridtolerance="10"
     guidetolerance="10"
     inkscape:pageopacity="0"
     inkscape:pageshadow="2"
     inkscape:window-width="1226"
     inkscape:window-height="605"
     id="namedview75"
     showgrid="false"
     inkscape:zoom="2"
     inkscape:cx="39.5"
     inkscape:cy="55.5"
     inkscape:window-x="35"
     inkscape:window-y="32"
     inkscape:window-maximized="0"
     inkscape:current-layer="g877"
     inkscape:document-rotation="0"
     inkscape:pagecheckerboard="0"
     inkscape:showpageshadow="2"
     inkscape:deskcolor="#d1d1d1" />
  <defs
     id="defs29">
    <filter
       style="color-interpolation-filters:sRGB;"
       inkscape:label="Blur"
       id="filter6"
       x="-0.044145008"
       y="-0.044145008"
       width="1.08829"
       height="1.08829">
      <feGaussianBlur
         stdDeviation="1 1"
         result="blur"
         id="feGaussianBlur6" />
    </filter>
    <filter
       style="color-interpolation-filters:sRGB;"
       inkscape:label="Blur"
       id="filter7"
       x="-0.098100013"
       y="-0.098100021"
       width="1.1962"
       height="1.1962">
      <feGaussianBlur
         stdDeviation="2 2"
         result="blur"
         id="feGaussianBlur7" />
    </filter>
    <clipPath
       id="clip0_515_3621">
      <rect
         width="16"
         height="16"
         fill="#ffffff"
         transform="translate(0.00292969)"
         id="rect7969"
         x="0"
         y="0" />
    </clipPath>
    <filter
       style="color-interpolation-filters:sRGB;"
       inkscape:label="Blur"
       id="filter3991"
       x="-0.12945447"
       y="-0.10485813"
       width="1.2589089"
       height="1.2097163">
      <feGaussianBlur
         stdDeviation="4 4"
         result="blur"
         id="feGaussianBlur3989" />
    </filter>
  </defs>
  <g
     id="g877"
     transform="matrix(1.1,0,0,1.1,-3.1845928,-3.2065454)">
    <rect
       style="fill:#000000;fill-opacity:1;stroke:none;stroke-width:1.39173;stroke-dasharray:none;stroke-dashoffset:0;stroke-opacity:1;filter:url(#filter3991);opacity:0.5"
       id="rect1-6-5"
       width="74.157349"
       height="91.552269"
       x="23.998228"
       y="15.320724"
       rx="8.293788"
       ry="10.239242" />
    <path
       style="fill:#f5f7fa;fill-opacity:1;stroke-width:0.408852"
       d=""
       id="path3" />
    <rect
       style="fill:#f4e3cf;fill-opacity:1;stroke:none;stroke-width:1.39173;stroke-dasharray:none;stroke-dashoffset:0;stroke-opacity:1"
       id="rect1-6"
       width="74.157349"
       height="91.552269"
       x="23.998228"
       y="15.320724"
       rx="8.293788"
       ry="10.239242" />
    <rect
       style="fill:#1e2430;fill-opacity:1;stroke:none;stroke-width:1.45399;stroke-dasharray:none;stroke-dashoffset:0;stroke-opacity:1"
       id="rect1-6-7"
       width="66.257729"
       height="82.625931"
       x="27.948032"
       y="19.783897"
       rx="5.1944203"
       ry="6.4776425" />
    <g
       id="g1175"
       style="fill:#f4e3cf;fill-opacity:1"
       transform="matrix(1.3254546,0,0,1.3254546,18.662659,18.682345)">
      <path
         id="path84-6-5"
         style="fill:#f4e3cf;fill-opacity:1;fill-rule:nonzero;stroke:none;stroke-width:0.0399999"
         d="m 29.168215,18.873124 c -1.271761,0.282725 -2.529802,0.676348 -3.709278,1.27002 0.02697,1.041485 0.09431,2.039389 0.230801,3.053027 -0.458054,0.293464 -0.93951,0.545327 -1.367343,0.888867 -0.434702,0.334424 -0.87863,0.65437 -1.272247,1.045489 -0.786358,-0.520118 -1.61864,-1.008897 -2.476054,-1.440352 -0.924225,0.994656 -1.788399,2.068201 -2.494336,3.269531 0.554791,0.870863 1.149885,1.746171 1.700977,2.42877 v 5.933496 0.753633 0.685839 c 0.01349,1.2e-4 0.02695,6.27e-4 0.04031,0.0019 l 4.520098,0.435821 c 0.236769,0.02285 0.422383,0.213434 0.438867,0.450703 l 0.139336,1.995293 3.94289,0.281367 0.271641,-1.841601 c 0.03522,-0.238768 0.240009,-0.415723 0.481523,-0.415723 h 4.768829 c 0.241389,0 0.44619,0.176955 0.481406,0.415723 l 0.27164,1.841601 3.943008,-0.281367 0.139278,-1.995293 c 0.01661,-0.237269 0.202039,-0.427726 0.438808,-0.450703 l 4.518339,-0.435821 c 0.01336,-0.0012 0.02671,-0.0018 0.0402,-0.0019 v -0.588339 l 0.0019,-5.85e-4 v -6.784044 c 0.636495,-0.801279 1.239204,-1.685145 1.700976,-2.42877 -0.705687,-1.201329 -1.570344,-2.274875 -2.494569,-3.269531 -0.857166,0.431455 -1.689756,0.920233 -2.476116,1.440352 -0.393487,-0.391119 -0.836685,-0.711065 -1.272011,-1.045489 -0.427708,-0.34354 -0.909695,-0.595403 -1.366875,-0.888867 0.136118,-1.013638 0.20341,-2.011541 0.230508,-3.053027 -1.1796,-0.593671 -2.437477,-0.987295 -3.709863,-1.27002 -0.508005,0.853793 -0.972582,1.778377 -1.377187,2.682246 -0.479783,-0.08017 -0.961799,-0.109861 -1.444454,-0.115605 v -7.62e-4 c -0.0034,0 -0.0065,7.62e-4 -0.0094,7.62e-4 -0.003,0 -0.0061,-7.62e-4 -0.0091,-7.62e-4 v 7.62e-4 c -0.483529,0.0057 -0.965191,0.03543 -1.445098,0.115605 -0.404356,-0.903869 -0.868609,-1.828453 -1.377363,-2.682246 z m -3.575977,10.785703 c 1.504534,0 2.723965,1.218524 2.723965,2.722559 0,1.505034 -1.219431,2.724258 -2.723965,2.724258 -1.503785,0 -2.723613,-1.219224 -2.723613,-2.724258 0,-1.504035 1.219828,-2.722559 2.723613,-2.722559 z m 12.815391,0 c 1.50366,0 2.723319,1.218524 2.723319,2.722559 0,1.505034 -1.219659,2.724258 -2.723319,2.724258 -1.504784,0 -2.724258,-1.219224 -2.724258,-2.724258 0,-1.504035 1.219474,-2.722559 2.724258,-2.722559 z m -6.408047,1.593282 c 0.484278,0 0.877617,0.357244 0.877617,0.796816 v 2.507695 c 0,0.439947 -0.393339,0.796875 -0.877617,0.796875 -0.484278,0 -0.876797,-0.356928 -0.876797,-0.796875 v -2.507695 c 0,-0.439572 0.392519,-0.796816 0.876797,-0.796816 z" />
      <path
         d="m 40.16191,38.128569 -0.139988,2.00592 c -0.01686,0.241765 -0.209171,0.434202 -0.450936,0.45156 l -4.814684,0.34354 c -0.01174,8.74e-4 -0.02348,0.0012 -0.03509,0.0012 -0.239267,0 -0.44569,-0.175579 -0.481031,-0.415845 l -0.276106,-1.872425 h -3.928547 l -0.276106,1.872426 c -0.03709,0.252004 -0.262369,0.433202 -0.516122,0.414595 L 24.428615,40.586 C 24.186851,40.56864 23.994539,40.376205 23.97768,40.13444 l -0.139989,-2.00592 -4.064415,-0.391868 c 0.0019,0.436824 0.0075,0.915358 0.0075,1.01064 0,4.292568 5.44532,6.355807 12.210728,6.379534 h 0.0082 0.0084 c 6.765408,-0.02373 12.208856,-2.086966 12.208856,-6.379534 0,-0.09703 0.0059,-0.573566 0.0079,-1.01064 z"
         style="fill:#f4e3cf;fill-opacity:1;fill-rule:nonzero;stroke:none;stroke-width:0.0399999"
         id="path88-5-2"
         inkscape:connector-curvature="0" />
      <path
         d="m 27.660773,32.542987 c 0,0.998278 -0.809087,1.807364 -1.808113,1.807364 -0.998527,0 -1.808114,-0.809086 -1.808114,-1.807364 0,-0.998277 0.809587,-1.808113 1.808114,-1.808113 0.999026,0 1.808113,0.809836 1.808113,1.808113"
         style="fill:#f4e3cf;fill-opacity:1;fill-rule:nonzero;stroke:none;stroke-width:0.0399999"
         id="path96-2-7"
         inkscape:connector-curvature="0" />
      <path
         d="m 36.338984,32.542987 c 0,0.998278 0.808837,1.807364 1.807114,1.807364 0.999277,0 1.808114,-0.809086 1.808114,-1.807364 0,-0.998277 -0.808837,-1.808113 -1.808114,-1.808113 -0.998277,0 -1.807114,0.809836 -1.807114,1.808113"
         style="fill:#f4e3cf;fill-opacity:1;fill-rule:nonzero;stroke:none;stroke-width:0.0399999"
         id="path108-9-6"
         inkscape:connector-curvature="0" />
    </g>
    <g
       id="g6019"
       style="fill:#f4e3cf;fill-opacity:1"
       transform="matrix(1.6363636,0,0,1.6363636,8.6240773,-3.6100595)" />
  </g>
</svg>
