<?xml version="1.0" encoding="UTF-8" standalone="no"?>
<svg
   width="128"
   height="128"
   version="1.1"
   id="svg73"
   sodipodi:docname="abcd.svg"
   inkscape:version="1.2.2 (b0a8486541, 2022-12-01)"
   xmlns:inkscape="http://www.inkscape.org/namespaces/inkscape"
   xmlns:sodipodi="http://sodipodi.sourceforge.net/DTD/sodipodi-0.dtd"
   xmlns="http://www.w3.org/2000/svg"
   xmlns:svg="http://www.w3.org/2000/svg"
   xmlns:rdf="http://www.w3.org/1999/02/22-rdf-syntax-ns#"
   xmlns:cc="http://creativecommons.org/ns#"
   xmlns:dc="http://purl.org/dc/elements/1.1/">
  <metadata
     id="metadata77">
    <rdf:RDF>
      <cc:Work
         rdf:about="">
        <dc:format>image/svg+xml</dc:format>
        <dc:type
           rdf:resource="http://purl.org/dc/dcmitype/StillImage" />
      </cc:Work>
    </rdf:RDF>
  </metadata>
  <sodipodi:namedview
     pagecolor="#f5f7fa"
     bordercolor="#666666"
     borderopacity="1"
     objecttolerance="10"
     gridtolerance="10"
     guidetolerance="10"
     inkscape:pageopacity="0"
     inkscape:pageshadow="2"
     inkscape:window-width="1226"
     inkscape:window-height="605"
     id="namedview75"
     showgrid="false"
     inkscape:zoom="2"
     inkscape:cx="39.5"
     inkscape:cy="55.5"
     inkscape:window-x="35"
     inkscape:window-y="32"
     inkscape:window-maximized="0"
     inkscape:current-layer="g877"
     inkscape:document-rotation="0"
     inkscape:pagecheckerboard="0"
     inkscape:showpageshadow="2"
     inkscape:deskcolor="#d1d1d1" />
  <defs
     id="defs29">
    <filter
       style="color-interpolation-filters:sRGB;"
       inkscape:label="Blur"
       id="filter6"
       x="-0.044145008"
       y="-0.044145008"
       width="1.08829"
       height="1.08829">
      <feGaussianBlur
         stdDeviation="1 1"
         result="blur"
         id="feGaussianBlur6" />
    </filter>
    <filter
       style="color-interpolation-filters:sRGB;"
       inkscape:label="Blur"
       id="filter7"
       x="-0.098100013"
       y="-0.098100021"
       width="1.1962"
       height="1.1962">
      <feGaussianBlur
         stdDeviation="2 2"
         result="blur"
         id="feGaussianBlur7" />
    </filter>
    <clipPath
       id="clip0_515_3621">
      <rect
         width="16"
         height="16"
         fill="#ffffff"
         transform="translate(0.00292969)"
         id="rect7969"
         x="0"
         y="0" />
    </clipPath>
    <filter
       style="color-interpolation-filters:sRGB;"
       inkscape:label="Blur"
       id="filter3991"
       x="-0.12945447"
       y="-0.10485813"
       width="1.2589089"
       height="1.2097163">
      <feGaussianBlur
         stdDeviation="4 4"
         result="blur"
         id="feGaussianBlur3989" />
    </filter>
  </defs>
  <g
     id="g877"
     transform="matrix(1.1,0,0,1.1,-3.1845928,-3.2065454)">
    <rect
       style="fill:#000000;fill-opacity:1;stroke:none;stroke-width:1.39173;stroke-dasharray:none;stroke-dashoffset:0;stroke-opacity:1;filter:url(#filter3991);opacity:0.5"
       id="rect1-6-5"
       width="74.157349"
       height="91.552269"
       x="23.998228"
       y="15.320724"
       rx="8.293788"
       ry="10.239242" />
    <path
       style="fill:#f5f7fa;fill-opacity:1;stroke-width:0.408852"
       d=""
       id="path3" />
    <rect
       style="fill:#f4e3cf;fill-opacity:1;stroke:none;stroke-width:1.39173;stroke-dasharray:none;stroke-dashoffset:0;stroke-opacity:1"
       id="rect1-6"
       width="74.157349"
       height="91.552269"
       x="23.998228"
       y="15.320724"
       rx="8.293788"
       ry="10.239242" />
    <rect
       style="fill:#1e2430;fill-opacity:1;stroke:none;stroke-width:1.45399;stroke-dasharray:none;stroke-dashoffset:0;stroke-opacity:1"
       id="rect1-6-7"
       width="66.257729"
       height="82.625931"
       x="27.948032"
       y="19.783897"
       rx="5.1944203"
       ry="6.4776425" />
    <g
       fill="#393634"
       fill-opacity="0.51"
       id="g25"
       transform="matrix(1.4727273,0,0,1.4727273,-315.94129,-310.03042)"
       style="fill:#f4e3cf;fill-opacity:1">
      <path
         d="m 241.5,232 0.5,-1 h -3 v 3 h 1.5 c 0.373,0 0.5,0 0.5,0.5 0,0.6 0,1.5 -0.5,1.5 -1,0 -1.5,-0.5 -1.5,-0.5 v 1 c 0,0 0.5,0.5 1.5,0.5 1.5,0 1.5,-1.528 1.5,-2.5 0,-1 0,-1.5 -1.5,-1.5 H 240 v -1 z"
         id="path2"
         style="fill:#f4e3cf;fill-opacity:1" />
      <path
         d="m 245,231 a 2,3 0 0 0 -2,3 2,3 0 0 0 2,3 2,3 0 0 0 2,-3 2,3 0 0 0 -2,-3 z m 0,1 a 1,2 0 0 1 1,2 1,2 0 0 1 -1,2 1,2 0 0 1 -1,-2 1,2 0 0 1 1,-2 z"
         id="path3-0"
         style="fill:#f4e3cf;fill-opacity:1" />
      <path
         d="m 253.5,231 c -1.5,0 -1.5,0 -1.5,3 0,3 0,3 1.5,3 1.5,0 1.5,0 1.5,-2 0,-2 0,-2 -1.5,-2 H 253 c 0,-0.5 0,-1 0.5,-1 h 1 l 0.5,-1 z m 0,3 c 0.276,0 0.5,0.448 0.5,1 0,0.552 -0.224,1 -0.5,1 -0.276,0 -0.5,-0.448 -0.5,-1 v -1 z"
         id="path4"
         style="fill:#f4e3cf;fill-opacity:1" />
      <path
         d="m 259,231 -0.5,1 H 257 v 1 h 1 v 1 h -1 v 3 h -1 v -6 z"
         id="path5"
         style="fill:#f4e3cf;fill-opacity:1" />
      <path
         d="m 265,231 h 3 v 1 l -2,5 -1,-0.5 2,-4.5 h -2 z"
         id="path6"
         style="fill:#f4e3cf;fill-opacity:1" />
      <path
         d="m 240,243 c 0,4 0,4 1,4 v -2 h 1 v 4 h -1 v -1 c -2,0 -2,0 -2,-5 z"
         id="path7"
         style="fill:#f4e3cf;fill-opacity:1" />
      <path
         d="m 244.5,249 c 1.5,0 1.5,0 1.5,-3 0,-3 0,-3 -1.5,-3 -1.5,0 -1.5,0 -1.5,2 0,2 0,2 1.5,2 h 0.5 c 0,0.5 0,1 -0.5,1 h -1 l -0.5,1 z m 0,-3 c -0.276,0 -0.5,-0.448 -0.5,-1 0,-0.552 0.224,-1 0.5,-1 0.276,0 0.5,0.448 0.5,1 v 1 z"
         id="path8"
         style="fill:#f4e3cf;fill-opacity:1" />
      <path
         d="m 253.5,243 c -1.5,0 -1.5,0 -1.5,3 0,3 0,3 1.5,3 1.5,0 1.5,0 1.5,-2 0,-2 0,-2 -1.5,-2 H 253 c 0,-0.5 0,-1 0.5,-1 h 1 l 0.5,-1 z m 0,3 c 0.276,0 0.5,0.448 0.5,1 0,0.552 -0.224,1 -0.5,1 -0.276,0 -0.5,-0.448 -0.5,-1 v -1 z"
         id="path9"
         style="fill:#f4e3cf;fill-opacity:1" />
      <path
         d="m 271,231 a 2,3 0 0 0 -2,3 2,3 0 0 0 2,3 2,3 0 0 0 2,-3 2,3 0 0 0 -2,-3 z m 0,1 a 1,2 0 0 1 1,2 1,2 0 0 1 -1,2 1,2 0 0 1 -1,-2 1,2 0 0 1 1,-2 z"
         id="path10"
         style="fill:#f4e3cf;fill-opacity:1" />
      <path
         d="m 256,249 v -1 h 2 v -1 h -1 v -1 h 1 v -2 h -1.5 l -0.5,-1 h 3 v 6 z"
         id="path11"
         style="fill:#f4e3cf;fill-opacity:1" />
      <path
         d="m 272,243 -0.5,1 H 270 v 1 h 1 v 1 h -1 v 3 h -1 v -6 z"
         id="path12"
         style="fill:#f4e3cf;fill-opacity:1" />
      <path
         d="m 266.5,243 c -1.5,0 -1.5,0 -1.5,3 0,3 0,3 1.5,3 1.5,0 1.5,0 1.5,-2 0,-2 0,-2 -1.5,-2 H 266 c 0,-0.5 0,-1 0.5,-1 h 1 l 0.5,-1 z m 0,3 c 0.276,0 0.5,0.448 0.5,1 0,0.552 -0.224,1 -0.5,1 -0.276,0 -0.5,-0.448 -0.5,-1 v -1 z"
         id="path13"
         style="fill:#f4e3cf;fill-opacity:1" />
      <path
         d="m 240.5,255 c -1.5,0 -1.5,0 -1.5,3 0,3 0,3 1.5,3 1.5,0 1.5,0 1.5,-2 0,-2 0,-2 -1.5,-2 H 240 c 0,-0.5 0,-1 0.5,-1 h 1 l 0.5,-1 z m 0,3 c 0.276,0 0.5,0.448 0.5,1 0,0.552 -0.224,1 -0.5,1 -0.276,0 -0.5,-0.448 -0.5,-1 v -1 z"
         id="path14"
         style="fill:#f4e3cf;fill-opacity:1" />
      <path
         d="m 246,255 -0.5,1 H 244 v 1 h 1 v 1 h -1 v 2 h 1.5 l 0.5,1 h -3 v -6 z"
         id="path15"
         style="fill:#f4e3cf;fill-opacity:1" />
      <path
         d="m 256,261 v -1 h 2 v -1 h -1 v -1 h 1 v -2 h -1.5 l -0.5,-1 h 3 v 6 z"
         id="path16"
         style="fill:#f4e3cf;fill-opacity:1" />
      <path
         d="m 268,260 -0.5,1 H 265 v -3 h 1.5 c 0.373,0 0.5,0 0.5,-0.5 0,-0.6 0,-1.5 -0.5,-1.5 -1,0 -1.5,0.5 -1.5,0.5 v -1 c 0,0 0.5,-0.5 1.5,-0.5 1.5,0 1.5,1.528 1.5,2.5 0,1 0,1.5 -1.5,1.5 H 266 v 1 z"
         id="path17"
         style="fill:#f4e3cf;fill-opacity:1" />
      <path
         d="m 252,255 h 3 v 1 l -2,5 -1,-0.5 2,-4.5 h -2 z"
         id="path18"
         style="fill:#f4e3cf;fill-opacity:1" />
      <path
         d="m 271,255 a 2,3 0 0 0 -2,3 2,3 0 0 0 2,3 2,3 0 0 0 2,-3 2,3 0 0 0 -2,-3 z m 0,1 a 1,2 0 0 1 1,2 1,2 0 0 1 -1,2 1,2 0 0 1 -1,-2 1,2 0 0 1 1,-2 z"
         id="path19"
         style="fill:#f4e3cf;fill-opacity:1" />
      <path
         d="m 240,267 c 0,4 0,4 1,4 v -2 h 1 v 4 h -1 v -1 c -2,0 -2,0 -2,-5 z"
         id="path20"
         style="fill:#f4e3cf;fill-opacity:1" />
      <path
         d="m 244.5,273 c 1.5,0 1.5,0 1.5,-3 0,-3 0,-3 -1.5,-3 -1.5,0 -1.5,0 -1.5,2 0,2 0,2 1.5,2 h 0.5 c 0,0.5 0,1 -0.5,1 h -1 l -0.5,1 z m 0,-3 c -0.276,0 -0.5,-0.448 -0.5,-1 0,-0.552 0.224,-1 0.5,-1 0.276,0 0.5,0.448 0.5,1 v 1 z"
         id="path21"
         style="fill:#f4e3cf;fill-opacity:1" />
      <path
         d="m 253.5,267 c -1.5,0 -1.5,0 -1.5,3 0,3 0,3 1.5,3 1.5,0 1.5,0 1.5,-2 0,-2 0,-2 -1.5,-2 H 253 c 0,-0.5 0,-1 0.5,-1 h 1 l 0.5,-1 z m 0,3 c 0.276,0 0.5,0.448 0.5,1 0,0.552 -0.224,1 -0.5,1 -0.276,0 -0.5,-0.448 -0.5,-1 v -1 z"
         id="path22"
         style="fill:#f4e3cf;fill-opacity:1" />
      <path
         d="m 266.5,267 c -1.5,0 -1.5,0 -1.5,3 0,3 0,3 1.5,3 1.5,0 1.5,0 1.5,-2 0,-2 0,-2 -1.5,-2 H 266 c 0,-0.5 0,-1 0.5,-1 h 1 l 0.5,-1 z m 0,3 c 0.276,0 0.5,0.448 0.5,1 0,0.552 -0.224,1 -0.5,1 -0.276,0 -0.5,-0.448 -0.5,-1 v -1 z"
         id="path23"
         style="fill:#f4e3cf;fill-opacity:1" />
      <path
         d="m 272,267 -0.5,1 H 270 v 1 h 1 v 1 h -1 v 2 h 1.5 l 0.5,1 h -3 v -6 z"
         id="path24"
         style="fill:#f4e3cf;fill-opacity:1" />
      <path
         d="m 257,267 -0.5,1 h 0.5 v 4 h -1 v 1 h 3 v -1 h -1 v -5 z"
         id="path25"
         style="fill:#f4e3cf;fill-opacity:1" />
    </g>
    <g
       id="g6019"
       style="fill:#f4e3cf;fill-opacity:1"
       transform="matrix(1.6363636,0,0,1.6363636,8.6240773,-3.6100595)" />
  </g>
</svg>
