<?xml version="1.0" encoding="UTF-8" standalone="no"?>
<svg
   width="128"
   height="128"
   version="1.1"
   id="svg73"
   sodipodi:docname="abcd.svg"
   inkscape:version="1.2.2 (b0a8486541, 2022-12-01)"
   xmlns:inkscape="http://www.inkscape.org/namespaces/inkscape"
   xmlns:sodipodi="http://sodipodi.sourceforge.net/DTD/sodipodi-0.dtd"
   xmlns="http://www.w3.org/2000/svg"
   xmlns:svg="http://www.w3.org/2000/svg"
   xmlns:rdf="http://www.w3.org/1999/02/22-rdf-syntax-ns#"
   xmlns:cc="http://creativecommons.org/ns#"
   xmlns:dc="http://purl.org/dc/elements/1.1/">
  <metadata
     id="metadata77">
    <rdf:RDF>
      <cc:Work
         rdf:about="">
        <dc:format>image/svg+xml</dc:format>
        <dc:type
           rdf:resource="http://purl.org/dc/dcmitype/StillImage" />
      </cc:Work>
    </rdf:RDF>
  </metadata>
  <sodipodi:namedview
     pagecolor="#f5f7fa"
     bordercolor="#666666"
     borderopacity="1"
     objecttolerance="10"
     gridtolerance="10"
     guidetolerance="10"
     inkscape:pageopacity="0"
     inkscape:pageshadow="2"
     inkscape:window-width="1226"
     inkscape:window-height="605"
     id="namedview75"
     showgrid="false"
     inkscape:zoom="2"
     inkscape:cx="76"
     inkscape:cy="80"
     inkscape:window-x="35"
     inkscape:window-y="32"
     inkscape:window-maximized="0"
     inkscape:current-layer="g877"
     inkscape:document-rotation="0"
     inkscape:pagecheckerboard="0"
     inkscape:showpageshadow="2"
     inkscape:deskcolor="#d1d1d1" />
  <defs
     id="defs29">
    <filter
       style="color-interpolation-filters:sRGB;"
       inkscape:label="Blur"
       id="filter6"
       x="-0.044145008"
       y="-0.044145008"
       width="1.08829"
       height="1.08829">
      <feGaussianBlur
         stdDeviation="1 1"
         result="blur"
         id="feGaussianBlur6" />
    </filter>
    <filter
       style="color-interpolation-filters:sRGB;"
       inkscape:label="Blur"
       id="filter7"
       x="-0.098100013"
       y="-0.098100021"
       width="1.1962"
       height="1.1962">
      <feGaussianBlur
         stdDeviation="2 2"
         result="blur"
         id="feGaussianBlur7" />
    </filter>
    <clipPath
       id="clip0_515_3621">
      <rect
         width="16"
         height="16"
         fill="#ffffff"
         transform="translate(0.00292969)"
         id="rect7969"
         x="0"
         y="0" />
    </clipPath>
    <filter
       style="color-interpolation-filters:sRGB;"
       inkscape:label="Blur"
       id="filter3991"
       x="-0.12945447"
       y="-0.10485813"
       width="1.2589089"
       height="1.2097163">
      <feGaussianBlur
         stdDeviation="4 4"
         result="blur"
         id="feGaussianBlur3989" />
    </filter>
  </defs>
  <g
     id="g877"
     transform="matrix(1.1,0,0,1.1,-3.1845928,-3.2065454)">
    <rect
       style="fill:#000000;fill-opacity:1;stroke:none;stroke-width:1.39173;stroke-dasharray:none;stroke-dashoffset:0;stroke-opacity:1;filter:url(#filter3991);opacity:0.5"
       id="rect1-6-5"
       width="74.157349"
       height="91.552269"
       x="23.998228"
       y="15.320724"
       rx="8.293788"
       ry="10.239242" />
    <path
       style="fill:#f5f7fa;fill-opacity:1;stroke-width:0.408852"
       d=""
       id="path3" />
    <rect
       style="fill:#f4e3cf;fill-opacity:1;stroke:none;stroke-width:1.39173;stroke-dasharray:none;stroke-dashoffset:0;stroke-opacity:1"
       id="rect1-6"
       width="74.157349"
       height="91.552269"
       x="23.998228"
       y="15.320724"
       rx="8.293788"
       ry="10.239242" />
    <rect
       style="fill:#1e2430;fill-opacity:1;stroke:none;stroke-width:1.45399;stroke-dasharray:none;stroke-dashoffset:0;stroke-opacity:1"
       id="rect1-6-7"
       width="66.257729"
       height="82.625931"
       x="27.948032"
       y="19.783897"
       rx="5.1944203"
       ry="6.4776425" />
    <path
       fill="#f5f7fa"
       d="m 65.287034,72.691496 h -9.893423 v -1.164384 c 0.870489,-0.05486 1.593099,-0.164016 2.167848,-0.327987 0.574747,-0.164016 0.862115,-0.366255 0.862115,-0.606834 0,-0.09844 -0.01116,-0.218621 -0.03346,-0.360745 -0.02234,-0.142128 -0.0558,-0.267867 -0.100422,-0.377129 l -1.97535,-5.21519 H 47.99449 c -0.312484,0.765315 -0.566374,1.432222 -0.761676,2.000764 -0.195298,0.568503 -0.371072,1.093308 -0.527315,1.574374 -0.14508,0.470108 -0.24552,0.852784 -0.301322,1.147986 -0.05582,0.29522 -0.0837,0.535734 -0.0837,0.721584 0,0.437346 0.351542,0.776263 1.054631,1.016791 0.703087,0.240516 1.495449,0.382641 2.377101,0.426377 v 1.164379 h -8.939235 v -1.164379 c 0.290167,-0.02205 0.652863,-0.08467 1.088111,-0.188617 0.435247,-0.103932 0.792365,-0.243271 1.071369,-0.41821 0.446407,-0.29522 0.792363,-0.604087 1.037887,-0.926579 0.245518,-0.322524 0.485463,-0.768052 0.719825,-1.336591 1.19414,-2.919122 2.511015,-6.199033 3.950673,-9.839805 1.439659,-3.640759 2.723059,-6.882404 3.850232,-9.725047 h 1.339202 l 7.918085,20.073301 c 0.167418,0.426422 0.357139,0.770784 0.569163,1.033184 0.212062,0.262361 0.507782,0.519349 0.887233,0.770785 0.256696,0.153036 0.591483,0.281493 1.004412,0.385393 0.412897,0.10395 0.758882,0.161262 1.037882,0.172134 z m -9.575361,-9.51185 -3.599131,-9.019866 -3.532172,9.019866 z m 25.629159,9.216657 c -0.524525,0.185857 -0.984873,0.336148 -1.381061,0.45097 -0.396167,0.114804 -0.845371,0.17217 -1.347582,0.17217 -0.870487,0 -1.565197,-0.199533 -2.084143,-0.5986 -0.518951,-0.399071 -0.850959,-0.981249 -0.996044,-1.746573 H 75.43158 c -0.725415,0.787187 -1.503819,1.388518 -2.335246,1.803973 -0.831433,0.415505 -1.833039,0.623221 -3.004856,0.623221 -1.238787,0 -2.257131,-0.37172 -3.055078,-1.115186 -0.797935,-0.743456 -1.196907,-1.716506 -1.196907,-2.919163 0,-0.623214 0.08928,-1.180777 0.267869,-1.67278 0.178542,-0.491992 0.446407,-0.934763 0.803524,-1.328358 0.278991,-0.327984 0.64728,-0.620475 1.104845,-0.877392 0.457535,-0.256947 0.887213,-0.461941 1.288978,-0.614988 0.502207,-0.185861 1.520556,-0.530251 3.055081,-1.033188 1.53452,-0.502896 2.569604,-0.896518 3.105293,-1.180783 v -1.623555 c 0,-0.14211 -0.03056,-0.41546 -0.09207,-0.819987 -0.06136,-0.404528 -0.192524,-0.787185 -0.393413,-1.147975 -0.22318,-0.404536 -0.538465,-0.757132 -0.945819,-1.057786 -0.407337,-0.300665 -0.984874,-0.450994 -1.732605,-0.450994 -0.513363,0 -0.990451,0.0848 -1.431279,0.254198 -0.44085,0.169452 -0.750517,0.34713 -0.92908,0.532982 0,0.218671 0.05299,0.541191 0.159012,0.967595 0.106056,0.426391 0.159012,0.819974 0.159012,1.180779 0,0.382654 -0.175734,0.732517 -0.527309,1.049581 -0.351531,0.317096 -0.8398,0.475605 -1.464769,0.475605 -0.558006,0 -0.96813,-0.194094 -1.230398,-0.582201 -0.26226,-0.388126 -0.393411,-0.822709 -0.393411,-1.303772 0,-0.502933 0.181352,-0.983992 0.544055,-1.44319 0.362702,-0.45919 0.834198,-0.869175 1.414528,-1.229974 0.502204,-0.306124 1.110428,-0.56579 1.824673,-0.778984 0.714251,-0.213205 1.411749,-0.31979 2.092523,-0.31979 0.937451,0 1.754918,0.06287 2.452425,0.188593 0.697514,0.125748 1.330841,0.396326 1.90001,0.811788 0.569165,0.404526 1.001611,0.953913 1.297359,1.648173 0.29577,0.69426 0.443606,1.58804 0.443606,2.681356 0,1.563448 -0.0171,2.949208 -0.05024,4.157334 -0.03355,1.208126 -0.05024,2.528289 -0.05024,3.960547 0,0.426379 0.07535,0.765313 0.225988,1.016779 0.150696,0.251485 0.382239,0.464648 0.694714,0.639608 0.167364,0.09844 0.432435,0.153054 0.795157,0.164016 0.362702,0.01098 0.733774,0.01656 1.113219,0.01656 z m -5.842305,-8.659065 c -0.948616,0.273328 -1.780036,0.541148 -2.494283,0.803583 -0.714251,0.262407 -1.378264,0.590376 -1.992078,0.983988 -0.558002,0.371718 -0.998829,0.81178 -1.322475,1.320177 -0.323672,0.50838 -0.485485,1.112447 -0.485485,1.812168 0,0.907456 0.242719,1.574386 0.728196,2.000778 0.48549,0.426423 1.102059,0.639604 1.849786,0.639604 0.792376,0 1.489869,-0.188611 2.09252,-0.565831 0.602645,-0.377131 1.110427,-0.822716 1.52335,-1.336576 z"
       id="path42-3-7"
       style="fill:#f4e3cf;fill-opacity:1;stroke:none;stroke-width:1.63636;stroke-dasharray:none;stroke-opacity:0.3" />
    <g
       id="g6019"
       style="fill:#f4e3cf;fill-opacity:1"
       transform="matrix(1.6363636,0,0,1.6363636,8.6240773,-3.6100595)" />
  </g>
</svg>
