<?xml version="1.0" encoding="UTF-8" standalone="no"?>
<svg
   width="128"
   height="128"
   version="1.1"
   id="svg73"
   sodipodi:docname="abcd.svg"
   inkscape:version="1.2.2 (b0a8486541, 2022-12-01)"
   xmlns:inkscape="http://www.inkscape.org/namespaces/inkscape"
   xmlns:sodipodi="http://sodipodi.sourceforge.net/DTD/sodipodi-0.dtd"
   xmlns="http://www.w3.org/2000/svg"
   xmlns:svg="http://www.w3.org/2000/svg"
   xmlns:rdf="http://www.w3.org/1999/02/22-rdf-syntax-ns#"
   xmlns:cc="http://creativecommons.org/ns#"
   xmlns:dc="http://purl.org/dc/elements/1.1/">
  <metadata
     id="metadata77">
    <rdf:RDF>
      <cc:Work
         rdf:about="">
        <dc:format>image/svg+xml</dc:format>
        <dc:type
           rdf:resource="http://purl.org/dc/dcmitype/StillImage" />
      </cc:Work>
    </rdf:RDF>
  </metadata>
  <sodipodi:namedview
     pagecolor="#f5f7fa"
     bordercolor="#666666"
     borderopacity="1"
     objecttolerance="10"
     gridtolerance="10"
     guidetolerance="10"
     inkscape:pageopacity="0"
     inkscape:pageshadow="2"
     inkscape:window-width="1226"
     inkscape:window-height="605"
     id="namedview75"
     showgrid="false"
     inkscape:zoom="2"
     inkscape:cx="76"
     inkscape:cy="42.5"
     inkscape:window-x="35"
     inkscape:window-y="32"
     inkscape:window-maximized="0"
     inkscape:current-layer="g877"
     inkscape:document-rotation="0"
     inkscape:pagecheckerboard="0"
     inkscape:showpageshadow="2"
     inkscape:deskcolor="#d1d1d1" />
  <defs
     id="defs29">
    <filter
       style="color-interpolation-filters:sRGB;"
       inkscape:label="Blur"
       id="filter6"
       x="-0.044145008"
       y="-0.044145008"
       width="1.08829"
       height="1.08829">
      <feGaussianBlur
         stdDeviation="1 1"
         result="blur"
         id="feGaussianBlur6" />
    </filter>
    <filter
       style="color-interpolation-filters:sRGB;"
       inkscape:label="Blur"
       id="filter7"
       x="-0.098100013"
       y="-0.098100021"
       width="1.1962"
       height="1.1962">
      <feGaussianBlur
         stdDeviation="2 2"
         result="blur"
         id="feGaussianBlur7" />
    </filter>
    <clipPath
       id="clip0_515_3621">
      <rect
         width="16"
         height="16"
         fill="#ffffff"
         transform="translate(0.00292969)"
         id="rect7969"
         x="0"
         y="0" />
    </clipPath>
    <filter
       style="color-interpolation-filters:sRGB;"
       inkscape:label="Blur"
       id="filter3991"
       x="-0.12945447"
       y="-0.10485813"
       width="1.2589089"
       height="1.2097163">
      <feGaussianBlur
         stdDeviation="4 4"
         result="blur"
         id="feGaussianBlur3989" />
    </filter>
  </defs>
  <g
     id="g877"
     transform="matrix(1.1,0,0,1.1,-3.1845928,-3.2065454)">
    <rect
       style="fill:#000000;fill-opacity:1;stroke:none;stroke-width:1.39173;stroke-dasharray:none;stroke-dashoffset:0;stroke-opacity:1;filter:url(#filter3991);opacity:0.5"
       id="rect1-6-5"
       width="74.157349"
       height="91.552269"
       x="23.998228"
       y="15.320724"
       rx="8.293788"
       ry="10.239242" />
    <path
       style="fill:#f5f7fa;fill-opacity:1;stroke-width:0.408852"
       d=""
       id="path3" />
    <rect
       style="fill:#f4e3cf;fill-opacity:1;stroke:none;stroke-width:1.39173;stroke-dasharray:none;stroke-dashoffset:0;stroke-opacity:1"
       id="rect1-6"
       width="74.157349"
       height="91.552269"
       x="23.998228"
       y="15.320724"
       rx="8.293788"
       ry="10.239242" />
    <rect
       style="fill:#1e2430;fill-opacity:1;stroke:none;stroke-width:1.45399;stroke-dasharray:none;stroke-dashoffset:0;stroke-opacity:1"
       id="rect1-6-7"
       width="66.257729"
       height="82.625931"
       x="27.948032"
       y="19.783897"
       rx="5.1944203"
       ry="6.4776425" />
    <path
       fill="#ffffff"
       d="m 53.164043,39.427427 a 5.2100782,5.2100782 0 0 0 -2.554944,0.776502 5.5106597,5.5106597 0 0 0 -1.43778,1.197317 10.319963,10.319963 0 0 0 -5.665959,-1.958789 10.52035,10.52035 0 0 0 -3.231252,0.310601 l -0.64124,0.185358 0.190368,0.65126 c 0,0 0.681318,2.144148 2.018906,4.21315 0.666288,1.037006 1.502906,2.074011 2.554941,2.805426 1.00194,0.711377 2.224303,1.117161 3.576921,0.941822 a 43.584309,43.584309 0 0 0 1.703293,7.985448 q -0.551065,1.387683 -1.132189,3.040882 c -1.287492,3.7222 -2.504846,8.065604 -1.938752,11.046362 0.49095,2.579989 1.507918,4.689069 3.231252,6.252091 -0.300582,1.31755 -0.3106,2.459758 0.05009,3.416609 a 3.6069772,3.6069772 0 0 0 2.219294,2.114089 c 2.048964,0.746444 5.079825,0.305592 8.962337,-0.96186 3.887519,1.272461 6.923392,1.703295 8.972356,0.96186 a 3.6069772,3.6069772 0 0 0 2.229312,-2.114089 c 0.355687,-0.951842 0.340659,-2.09405 0.04019,-3.40659 1.728342,-1.568032 2.750319,-3.677112 3.241269,-6.26211 0.566095,-2.980758 -0.65126,-7.324162 -1.938749,-11.046362 a 75.14536,75.14536 0 0 0 -1.132191,-3.040882 43.584309,43.584309 0 0 0 1.703295,-7.985448 5.0096907,5.0096907 0 0 0 3.576918,-0.936812 c 1.047026,-0.741435 1.873626,-1.77343 2.544923,-2.810436 1.332578,-2.069002 2.013896,-4.218159 2.013896,-4.218159 l 0.200389,-0.646251 -0.641241,-0.185358 c 0,0 -1.342597,-0.400776 -3.226241,-0.310601 -1.653198,0.07515 -3.732219,0.536036 -5.67097,1.953779 A 5.5106597,5.5106597 0 0 0 71.549721,40.203929 5.2100782,5.2100782 0 0 0 68.99478,39.432436 c -1.432771,0 -2.494827,0.300582 -3.632026,0.576116 -1.1372,0.275533 -2.364575,0.551066 -4.283285,0.551066 -1.918712,0 -3.151096,-0.275533 -4.288297,-0.551066 -1.137198,-0.275534 -2.199252,-0.576116 -3.627014,-0.576116 z m -9.688742,1.30252 c 1.372655,0.02506 3.191172,0.430833 5.00969,1.828537 -0.551066,1.342596 -0.701357,2.980766 -0.616192,4.684061 a 3.6069772,3.6069772 0 0 1 -2.710242,-0.716386 9.0174431,9.0174431 0 0 1 -2.209273,-2.43972 c -0.98691,-1.522946 -1.30252,-2.585 -1.502908,-3.146085 a 8.5164741,8.5164741 0 0 1 2.028925,-0.210407 m 35.208105,0 a 8.5164741,8.5164741 0 0 1 2.023916,0.210407 c -0.200388,0.561085 -0.526017,1.623139 -1.507917,3.146085 a 9.0174431,9.0174431 0 0 1 -2.204264,2.43972 3.6069772,3.6069772 0 0 1 -2.705233,0.716386 c 0.08015,-1.703295 -0.05999,-3.341465 -0.616192,-4.684061 1.818517,-1.402713 3.637035,-1.803489 5.00969,-1.828537 m -25.519363,0.01008 c 1.242403,0 2.154166,0.265512 3.316415,0.551064 a 18.034886,18.034886 0 0 0 4.598896,0.576115 c 2.043954,0 3.436648,-0.290561 4.598895,-0.576115 1.162249,-0.285552 2.069003,-0.551064 3.316416,-0.551064 0.49095,0 1.237393,0.215416 1.888653,0.601162 0.65126,0.380736 1.212345,0.926793 1.47786,1.477859 0.901744,1.883643 0.651259,5.460563 0.07013,8.491425 a 45.087215,45.087215 0 0 1 -0.756465,3.24127 C 71.25904,53.579862 70.913371,52.808371 70.913371,52.808371 a 0.65125978,0.65125978 0 0 0 -0.636231,-0.395766 0.66127916,0.66127916 0 0 0 -0.556076,0.95184 c 0,0 0.601164,1.342599 1.362636,3.236262 l -0.07515,0.235454 0.200387,0.06512 c 0.365707,0.941823 0.756464,1.9638 1.15223,3.106008 1.257431,3.647056 2.339525,8.010501 1.888652,10.370056 -0.681318,3.586935 -2.169196,5.846306 -5.50064,7.163856 a 4.5087215,4.5087215 0 0 1 -1.803488,0.110214 20.038763,20.038763 0 0 1 -2.529895,-0.48093 C 62.963,76.804718 62.056244,76.464059 61.735625,76.348836 v -8.39623 c 0.526017,-0.200387 2.464769,-1.913702 4.323362,-4.919519 -0.08015,0.310601 -0.150282,0.681317 -0.235454,0.921782 a 3.0058144,3.0058144 0 0 1 -0.260505,0.551067 l -0.03506,0.04009 a 0.66127916,0.66127916 0 0 0 0.300582,1.282482 1.2023258,1.2023258 0 0 0 0.826599,-0.576116 4.0077526,4.0077526 0 0 0 0.410795,-0.851646 c 0.235454,-0.631221 0.410794,-1.392694 0.561085,-2.154168 0.290561,-1.497899 0.445862,-2.925661 0.450871,-2.955719 l 0.01008,-0.02506 a 0.66209992,0.66209992 0 0 0 -1.31254,-0.175338 c -0.95685,5.941496 -5.134932,7.594695 -5.696017,7.795082 -0.571104,-0.200387 -4.739168,-1.853586 -5.696019,-7.795082 a 0.66145469,0.66145469 0 0 0 -1.312539,0.165312 l 0.01008,0.03506 h -0.01008 q 0.005,0.01008 0.01008,0.01008 c 0.005,0.05009 0.13527,1.427764 0.415806,2.890591 0.140274,0.741436 0.320619,1.49289 0.551066,2.114091 a 3.5067834,3.5067834 0 0 0 0.400774,0.831609 c 0.16533,0.245475 0.400775,0.51099 0.81658,0.576115 a 0.66127916,0.66127916 0 0 0 0.295571,-1.287493 c -0.01008,-0.005 -0.01008,0 -0.03006,-0.03506 A 2.5048453,2.5048453 0 0 1 56.280198,63.85473 c -0.09018,-0.230445 -0.150282,-0.591144 -0.230445,-0.891726 1.853586,3.050903 3.827403,4.769228 4.363439,4.984645 v 8.401239 c -0.320619,0.115218 -1.227373,0.460892 -2.670165,0.82159 a 20.038763,20.038763 0 0 1 -2.534902,0.48093 4.5087215,4.5087215 0 0 1 -1.803488,-0.110214 c -3.326436,-1.31755 -4.814315,-3.576921 -5.495633,-7.163856 -0.450871,-2.359556 0.631223,-6.722999 1.888654,-10.370054 q 0.601164,-1.703295 1.15724,-3.106008 l 0.190368,-0.06512 -0.07013,-0.235456 c 0.761474,-1.893663 1.362636,-3.23626 1.362636,-3.23626 a 0.66127916,0.66127916 0 0 0 -0.576114,-0.951842 0.65125978,0.65125978 0 0 0 -0.616192,0.395766 c 0,0 -0.350678,0.771493 -0.761474,1.743372 a 45.087215,45.087215 0 0 1 -0.751453,-3.241269 c -0.586134,-3.030863 -0.836618,-6.607782 0.06512,-8.491426 a 3.757268,3.757268 0 0 1 1.47786,-1.477859 4.0077526,4.0077526 0 0 1 1.888653,-0.601163 m 2.099059,5.059788 c -0.63122,0.03006 -1.302519,0.175338 -1.973817,0.465901 l -0.100188,0.03006 h 0.02003 l -0.05009,0.01494 a 0.65125978,0.65125978 0 0 0 -0.380737,0.596155 c 0,0.47091 0.06512,1.367645 0.415805,2.269389 0.350678,0.901744 1.067063,1.878633 2.304457,2.063992 a 2.4046515,2.4046515 0 0 0 1.833547,-0.515997 4.5087215,4.5087215 0 0 0 1.067065,-1.342599 c 0.470911,-0.856656 0.63122,-1.558013 0.676307,-1.718323 l 0.100188,-0.335649 -0.04509,-0.250485 -0.06512,-0.140274 -0.06012,-0.09018 c -0.07515,-0.09018 -0.13527,-0.130248 -0.200387,-0.175338 a 5.0096907,5.0096907 0 0 0 -0.405789,-0.235454 6.5125978,6.5125978 0 0 0 -3.136068,-0.636232 m 11.632502,0 a 6.5125978,6.5125978 0 0 0 -3.136066,0.636232 5.0096907,5.0096907 0 0 0 -0.410794,0.235454 c -0.06012,0.04509 -0.12024,0.08516 -0.195378,0.175338 l -0.06012,0.09018 -0.06512,0.135252 -0.04009,0.250485 0.100188,0.340659 c 0.03506,0.160308 0.200387,0.861667 0.671298,1.718323 a 4.5087215,4.5087215 0 0 0 1.067065,1.342598 2.3545546,2.3545546 0 0 0 1.818516,0.515997 c 1.237394,-0.185358 1.973819,-1.162247 2.319488,-2.063991 0.350677,-0.901745 0.410794,-1.798479 0.410794,-2.26939 A 0.65125978,0.65125978 0 0 0 68.994771,46.305686 5.5106597,5.5106597 0 0 0 66.8907,45.799708 Z m -10.685669,1.377664 q 0.305591,0.01512 0.581124,0.08516 a 5.0096907,5.0096907 0 0 1 0.911763,0.32062 c -0.08015,0.275533 -0.150282,0.601164 -0.460892,1.162249 a 3.0058144,3.0058144 0 0 1 -0.731413,0.941821 c -0.265515,0.210408 -0.485941,0.290564 -0.801551,0.240466 -0.676309,-0.100188 -1.031996,-0.561085 -1.28248,-1.222364 -0.18035,-0.450873 -0.19037,-0.851648 -0.225438,-1.242403 0.686328,-0.210407 1.387685,-0.320621 2.003877,-0.285554 z m 9.738838,0 c 0.616193,-0.03506 1.322558,0.07515 2.008887,0.285554 -0.03506,0.390755 -0.05009,0.786521 -0.225438,1.242403 -0.250484,0.661279 -0.606171,1.122171 -1.28248,1.222364 -0.31561,0.05009 -0.536036,-0.03006 -0.801551,-0.240465 a 3.0058144,3.0058144 0 0 1 -0.736425,-0.941822 c -0.30058,-0.556075 -0.375726,-0.886716 -0.45588,-1.162249 a 5.0096907,5.0096907 0 0 1 0.906753,-0.320619 5.0096907,5.0096907 0 0 1 0.586134,-0.08516 m -4.874551,30.363762 c 0.30058,0.10521 1.472848,0.521007 3.020843,0.911763 0.876695,0.220426 1.828537,0.415804 2.715253,0.505978 0.886714,0.09018 1.718323,0.100188 2.4297,-0.185358 a 10.019381,10.019381 0 0 0 1.903681,-0.996928 4.0077526,4.0077526 0 0 1 -0.100188,2.043954 2.2042638,2.2042638 0 0 1 -1.45281,1.352617 c -1.527955,0.556076 -4.408528,0.30058 -8.306066,-1.00194 l -0.200389,-0.06512 -0.220426,0.07013 c -3.89754,1.297511 -6.77811,1.553006 -8.306067,0.99693 a 2.2042638,2.2042638 0 0 1 -1.437781,-1.352617 4.0077526,4.0077526 0 0 1 -0.115218,-2.048963 c 0.581125,0.375726 1.202326,0.721395 1.913702,1.001937 0.711377,0.280543 1.537974,0.275534 2.42469,0.185359 a 20.038763,20.038763 0 0 0 2.720263,-0.505982 c 1.547995,-0.390757 2.715251,-0.801551 3.010824,-0.911763"
       color="#000000"
       style="font-variant-ligatures:normal;font-variant-position:normal;font-variant-caps:normal;font-variant-numeric:normal;font-variant-alternates:normal;font-feature-settings:normal;text-indent:0;text-decoration:none;text-decoration-line:none;text-decoration-style:solid;text-decoration-color:#000000;text-transform:none;text-orientation:mixed;white-space:normal;shape-padding:0;isolation:auto;mix-blend-mode:normal;fill:#f4e3cf;fill-opacity:1;stroke-width:1.32547"
       id="path6" />
    <g
       id="g6019"
       style="fill:#f4e3cf;fill-opacity:1"
       transform="matrix(1.6363636,0,0,1.6363636,8.6240773,-3.6100595)" />
  </g>
</svg>
