<?xml version="1.0" encoding="UTF-8" standalone="no"?>
<svg
   width="128"
   height="128"
   version="1.1"
   id="svg73"
   sodipodi:docname="abcd.svg"
   inkscape:version="1.2.2 (b0a8486541, 2022-12-01)"
   xmlns:inkscape="http://www.inkscape.org/namespaces/inkscape"
   xmlns:sodipodi="http://sodipodi.sourceforge.net/DTD/sodipodi-0.dtd"
   xmlns="http://www.w3.org/2000/svg"
   xmlns:svg="http://www.w3.org/2000/svg"
   xmlns:rdf="http://www.w3.org/1999/02/22-rdf-syntax-ns#"
   xmlns:cc="http://creativecommons.org/ns#"
   xmlns:dc="http://purl.org/dc/elements/1.1/">
  <metadata
     id="metadata77">
    <rdf:RDF>
      <cc:Work
         rdf:about="">
        <dc:format>image/svg+xml</dc:format>
        <dc:type
           rdf:resource="http://purl.org/dc/dcmitype/StillImage" />
      </cc:Work>
    </rdf:RDF>
  </metadata>
  <sodipodi:namedview
     pagecolor="#f5f7fa"
     bordercolor="#666666"
     borderopacity="1"
     objecttolerance="10"
     gridtolerance="10"
     guidetolerance="10"
     inkscape:pageopacity="0"
     inkscape:pageshadow="2"
     inkscape:window-width="1226"
     inkscape:window-height="605"
     id="namedview75"
     showgrid="false"
     inkscape:zoom="2"
     inkscape:cx="76"
     inkscape:cy="80"
     inkscape:window-x="35"
     inkscape:window-y="32"
     inkscape:window-maximized="0"
     inkscape:current-layer="g877"
     inkscape:document-rotation="0"
     inkscape:pagecheckerboard="0"
     inkscape:showpageshadow="2"
     inkscape:deskcolor="#d1d1d1" />
  <defs
     id="defs29">
    <filter
       style="color-interpolation-filters:sRGB;"
       inkscape:label="Blur"
       id="filter6"
       x="-0.044145008"
       y="-0.044145008"
       width="1.08829"
       height="1.08829">
      <feGaussianBlur
         stdDeviation="1 1"
         result="blur"
         id="feGaussianBlur6" />
    </filter>
    <filter
       style="color-interpolation-filters:sRGB;"
       inkscape:label="Blur"
       id="filter7"
       x="-0.098100013"
       y="-0.098100021"
       width="1.1962"
       height="1.1962">
      <feGaussianBlur
         stdDeviation="2 2"
         result="blur"
         id="feGaussianBlur7" />
    </filter>
    <clipPath
       id="clip0_515_3621">
      <rect
         width="16"
         height="16"
         fill="#ffffff"
         transform="translate(0.00292969)"
         id="rect7969"
         x="0"
         y="0" />
    </clipPath>
    <filter
       style="color-interpolation-filters:sRGB;"
       inkscape:label="Blur"
       id="filter3991"
       x="-0.12945447"
       y="-0.10485813"
       width="1.2589089"
       height="1.2097163">
      <feGaussianBlur
         stdDeviation="4 4"
         result="blur"
         id="feGaussianBlur3989" />
    </filter>
  </defs>
  <g
     id="g877"
     transform="matrix(1.1,0,0,1.1,-3.1845928,-3.2065454)">
    <rect
       style="fill:#000000;fill-opacity:1;stroke:none;stroke-width:1.39173;stroke-dasharray:none;stroke-dashoffset:0;stroke-opacity:1;filter:url(#filter3991);opacity:0.5"
       id="rect1-6-5"
       width="74.157349"
       height="91.552269"
       x="23.998228"
       y="15.320724"
       rx="8.293788"
       ry="10.239242" />
    <path
       style="fill:#f5f7fa;fill-opacity:1;stroke-width:0.408852"
       d=""
       id="path3" />
    <rect
       style="fill:#f4e3cf;fill-opacity:1;stroke:none;stroke-width:1.39173;stroke-dasharray:none;stroke-dashoffset:0;stroke-opacity:1"
       id="rect1-6"
       width="74.157349"
       height="91.552269"
       x="23.998228"
       y="15.320724"
       rx="8.293788"
       ry="10.239242" />
    <rect
       style="fill:#1e2430;fill-opacity:1;stroke:none;stroke-width:1.45399;stroke-dasharray:none;stroke-dashoffset:0;stroke-opacity:1"
       id="rect1-6-7"
       width="66.257729"
       height="82.625931"
       x="27.948032"
       y="19.783897"
       rx="5.1944203"
       ry="6.4776425" />
    <path
       id="path6"
       style="fill:#f4e3cf;fill-opacity:1;stroke:none;stroke-width:0.320832;stroke-opacity:1"
       d="m 61.68436,39.920651 c -1.073106,0.0088 -2.149684,0.06001 -2.717595,0.147186 -3.005055,0.461336 -5.569499,1.361743 -7.990486,2.808181 -1.625321,0.971063 -2.663109,1.79014 -4.125464,3.253569 -1.834709,1.836057 -2.896687,3.297758 -4.023552,5.5371 -0.298651,0.593495 -0.543517,1.108107 -0.543517,1.143656 0,0.03551 1.792373,0.05485 3.982032,0.0434 l 3.980147,-0.02077 0.330262,-0.539745 c 1.169457,-1.914078 3.000913,-3.806586 4.870914,-5.0351 3.931921,-2.583115 8.818592,-3.296913 13.397371,-1.957048 0.117612,0.03442 0.134172,-0.09788 0.160416,-1.226691 0.0335,-1.440602 0.13869,-1.784013 0.702043,-2.292975 l 0.30384,-0.273633 -0.790745,-0.294406 c -1.452249,-0.537061 -3.125362,-0.947126 -4.838831,-1.18895 -0.553696,-0.07816 -1.623727,-0.112464 -2.696837,-0.103788 z m 12.593417,2.376009 c -0.287089,0.0012 -0.612662,0.0041 -0.985131,0.0076 l -2.602472,0.02264 -0.217032,0.200043 c -0.418971,0.386775 -0.437101,0.520923 -0.432174,3.106364 0.005,2.648383 0.03249,2.834273 0.468032,3.127122 0.270141,0.181606 0.29634,0.183062 2.915754,0.183062 2.575045,0 2.647832,-0.0038 2.88367,-0.171738 0.441448,-0.31434 0.464258,-0.470245 0.464258,-3.129012 0,-2.27713 -0.0099,-2.444659 -0.164196,-2.762887 -0.252162,-0.52086 -0.321104,-0.591136 -2.330716,-0.583117 z m 3.578166,4.921869 -0.05474,0.662413 c -0.08541,1.030232 -0.488552,1.647765 -1.296518,1.985353 l -0.301954,0.126432 0.373669,0.458593 c 1.128714,1.390016 2.25107,3.42603 2.800631,5.080398 0.859972,2.588799 1.053369,5.516506 0.53786,8.141464 l -0.145314,0.73224 1.009665,0.03587 c 0.839846,0.02912 1.070698,0.06568 1.388992,0.218915 0.210105,0.101142 0.402487,0.218511 0.428398,0.260436 0.07799,0.126234 0.09583,0.05945 0.243452,-0.939832 0.177444,-1.201054 0.201411,-4.343488 0.04151,-5.491811 -0.363512,-2.610702 -1.124948,-5.031077 -2.270324,-7.218614 -0.560187,-1.069891 -1.6184,-2.68237 -2.289199,-3.489469 z m -36.89514,6.737371 -0.34536,0.184949 c -0.530968,0.283507 -0.951641,0.707328 -1.196496,1.205931 l -0.222694,0.454821 -0.02264,5.125689 c -0.02473,5.677077 -0.02749,5.640345 0.486903,6.31841 0.290383,0.38277 0.900416,0.829114 1.288969,0.941722 0.138294,0.0401 2.56677,0.07529 5.395561,0.07925 5.631264,0.0079 5.464664,0.02029 6.148561,-0.471803 0.476905,-0.343156 0.86548,-0.949563 0.990788,-1.547521 0.07888,-0.376379 0.106326,-1.636287 0.107568,-5.118138 0.0018,-4.739631 -0.02864,-5.277618 -0.320824,-5.85038 -0.205974,-0.40374 -0.743019,-0.917388 -1.187061,-1.136104 L 51.708515,53.95589 h -5.3748 z m 37.314105,11.512041 c -3.341515,-0.002 -3.45091,0.0097 -3.893336,0.422735 -0.415818,0.38826 -0.415186,0.376659 -0.415186,3.865025 0,3.503138 0.0072,3.576532 0.422736,3.959388 0.11178,0.103014 0.341825,0.236718 0.511437,0.298179 0.247327,0.08968 0.927814,0.109062 3.436625,0.09436 3.536357,-0.02074 3.544047,-0.02279 3.9575,-0.647314 l 0.213255,-0.322715 0.02453,-3.174305 c 0.01602,-2.067309 -0.005,-3.274224 -0.06041,-3.463046 -0.11907,-0.407145 -0.376996,-0.707994 -0.758661,-0.881332 -0.300207,-0.13635 -0.583954,-0.149328 -3.438516,-0.150984 z m -31.720385,3.849926 c -2.349076,-0.0012 -4.270777,0.02714 -4.270777,0.06228 0,0.03512 0.24487,0.550167 0.543517,1.143654 0.623432,1.238898 1.285736,2.313201 2.113688,3.427192 0.74142,0.997555 3.007751,3.261777 4.02355,4.019778 3.226977,2.408006 6.888912,3.844185 10.843962,4.253793 0.987037,0.102204 3.914267,0.03775 4.893561,-0.107568 4.659176,-0.691413 8.573119,-2.616016 11.868725,-5.839058 l 1.124782,-1.100246 -1.245566,-0.0038 c -1.419115,-0.0032 -1.981852,-0.111258 -2.525099,-0.485023 -0.191938,-0.132048 -0.429491,-0.356841 -0.528423,-0.50011 -0.09891,-0.143262 -0.189729,-0.274331 -0.201931,-0.290634 -0.01224,-0.01638 -0.251735,0.115416 -0.532195,0.292518 -5.036528,3.180865 -11.724682,3.186076 -16.843435,0.01116 -1.783552,-1.106197 -3.629767,-2.854373 -4.712388,-4.463272 l -0.281192,-0.418963 z" />
    <g
       id="g6019"
       style="fill:#f4e3cf;fill-opacity:1"
       transform="matrix(1.6363636,0,0,1.6363636,8.6240773,-3.6100595)" />
  </g>
</svg>
