<?xml version="1.0" encoding="UTF-8" standalone="no"?>
<svg
   width="128"
   height="128"
   version="1.1"
   id="svg73"
   sodipodi:docname="abcd.svg"
   inkscape:version="1.2.2 (b0a8486541, 2022-12-01)"
   xmlns:inkscape="http://www.inkscape.org/namespaces/inkscape"
   xmlns:sodipodi="http://sodipodi.sourceforge.net/DTD/sodipodi-0.dtd"
   xmlns="http://www.w3.org/2000/svg"
   xmlns:svg="http://www.w3.org/2000/svg"
   xmlns:rdf="http://www.w3.org/1999/02/22-rdf-syntax-ns#"
   xmlns:cc="http://creativecommons.org/ns#"
   xmlns:dc="http://purl.org/dc/elements/1.1/">
  <metadata
     id="metadata77">
    <rdf:RDF>
      <cc:Work
         rdf:about="">
        <dc:format>image/svg+xml</dc:format>
        <dc:type
           rdf:resource="http://purl.org/dc/dcmitype/StillImage" />
      </cc:Work>
    </rdf:RDF>
  </metadata>
  <sodipodi:namedview
     pagecolor="#f5f7fa"
     bordercolor="#666666"
     borderopacity="1"
     objecttolerance="10"
     gridtolerance="10"
     guidetolerance="10"
     inkscape:pageopacity="0"
     inkscape:pageshadow="2"
     inkscape:window-width="1226"
     inkscape:window-height="605"
     id="namedview75"
     showgrid="false"
     inkscape:zoom="2"
     inkscape:cx="39.5"
     inkscape:cy="55.5"
     inkscape:window-x="35"
     inkscape:window-y="32"
     inkscape:window-maximized="0"
     inkscape:current-layer="g877"
     inkscape:document-rotation="0"
     inkscape:pagecheckerboard="0"
     inkscape:showpageshadow="2"
     inkscape:deskcolor="#d1d1d1" />
  <defs
     id="defs29">
    <filter
       style="color-interpolation-filters:sRGB;"
       inkscape:label="Blur"
       id="filter6"
       x="-0.044145008"
       y="-0.044145008"
       width="1.08829"
       height="1.08829">
      <feGaussianBlur
         stdDeviation="1 1"
         result="blur"
         id="feGaussianBlur6" />
    </filter>
    <filter
       style="color-interpolation-filters:sRGB;"
       inkscape:label="Blur"
       id="filter7"
       x="-0.098100013"
       y="-0.098100021"
       width="1.1962"
       height="1.1962">
      <feGaussianBlur
         stdDeviation="2 2"
         result="blur"
         id="feGaussianBlur7" />
    </filter>
    <clipPath
       id="clip0_515_3621">
      <rect
         width="16"
         height="16"
         fill="#ffffff"
         transform="translate(0.00292969)"
         id="rect7969"
         x="0"
         y="0" />
    </clipPath>
    <filter
       style="color-interpolation-filters:sRGB;"
       inkscape:label="Blur"
       id="filter3991"
       x="-0.12945447"
       y="-0.10485813"
       width="1.2589089"
       height="1.2097163">
      <feGaussianBlur
         stdDeviation="4 4"
         result="blur"
         id="feGaussianBlur3989" />
    </filter>
  </defs>
  <g
     id="g877"
     transform="matrix(1.1,0,0,1.1,-3.1845928,-3.2065454)">
    <rect
       style="fill:#000000;fill-opacity:1;stroke:none;stroke-width:1.39173;stroke-dasharray:none;stroke-dashoffset:0;stroke-opacity:1;filter:url(#filter3991);opacity:0.5"
       id="rect1-6-5"
       width="74.157349"
       height="91.552269"
       x="23.998228"
       y="15.320724"
       rx="8.293788"
       ry="10.239242" />
    <path
       style="fill:#f5f7fa;fill-opacity:1;stroke-width:0.408852"
       d=""
       id="path3" />
    <rect
       style="fill:#f4e3cf;fill-opacity:1;stroke:none;stroke-width:1.39173;stroke-dasharray:none;stroke-dashoffset:0;stroke-opacity:1"
       id="rect1-6"
       width="74.157349"
       height="91.552269"
       x="23.998228"
       y="15.320724"
       rx="8.293788"
       ry="10.239242" />
    <rect
       style="fill:#1e2430;fill-opacity:1;stroke:none;stroke-width:1.45399;stroke-dasharray:none;stroke-dashoffset:0;stroke-opacity:1"
       id="rect1-6-7"
       width="66.257729"
       height="82.625931"
       x="27.948032"
       y="19.783897"
       rx="5.1944203"
       ry="6.4776425" />
    <path
       d="m 49.875994,79.096857 h -0.864 c -2.017636,0 -3.616363,-0.589102 -4.796181,-1.768908 -1.152,-1.178181 -1.728,-2.75073 -1.728,-4.716 v -6.720551 c 0,-1.073455 -0.274908,-1.886727 -0.826363,-2.436544 -0.549819,-0.576 -1.243637,-0.864002 -2.083092,-0.864002 v -2.987998 c 0.839455,0 1.533273,-0.274909 2.083092,-0.824728 0.551455,-0.576004 0.826363,-1.402364 0.826363,-2.475819 v -6.720545 c 0,-1.965272 0.576002,-3.537819 1.728,-4.716 1.179818,-1.179819 2.778545,-1.768908 4.796181,-1.768908 h 0.864 v 2.986363 h -0.864 c -0.918,0 -1.690363,0.328907 -2.318727,0.983454 -0.603816,0.654546 -0.904909,1.533272 -0.904909,2.632908 v 6.720547 c 0,2.384181 -0.903272,3.917455 -2.711455,4.598181 v 0.157086 c 1.808183,0.628364 2.711455,2.161636 2.711455,4.598183 v 6.72055 c 0,1.101272 0.30109,1.978364 0.904909,2.632909 0.628364,0.656182 1.400727,0.983451 2.318727,0.983451 h 0.864 z m 23.265816,0 h -0.863998 v -2.986364 h 0.863998 c 0.918005,0 1.677276,-0.327299 2.279459,-0.983451 0.629996,-0.65455 0.944179,-1.531642 0.944179,-2.632914 v -6.720549 c 0,-2.436544 0.903272,-3.969817 2.711455,-4.598181 V 61.018312 C 77.26872,60.337588 76.365448,58.804314 76.365448,56.420133 v -6.720546 c 0,-1.099637 -0.314188,-1.978362 -0.944179,-2.632909 -0.602183,-0.654545 -1.361454,-0.983453 -2.279459,-0.983453 h -0.863998 v -2.986364 h 0.863998 c 2.017638,0 3.603272,0.589089 4.755272,1.768908 1.179821,1.178181 1.768911,2.750728 1.768911,4.716 v 6.720545 c 0,1.073455 0.274914,1.899819 0.826363,2.475819 0.54983,0.549816 1.24364,0.824728 2.083092,0.824728 v 2.988 c -0.839452,0 -1.533274,0.288002 -2.083092,0.864 -0.551437,0.549817 -0.826363,1.363089 -0.826363,2.436545 v 6.72055 c 0,1.96527 -0.589103,3.537819 -1.768911,4.716 -1.152,1.179819 -2.737634,1.768908 -4.755272,1.768908 z M 61.037631,59.017035 c 1.129091,0 2.045455,0.916363 2.045455,2.045455 0,1.129089 -0.916364,2.045453 -2.045455,2.045453 -1.12909,0 -2.045456,-0.916364 -2.045456,-2.045453 0,-1.129092 0.916366,-2.045455 2.045456,-2.045455 z m 9.818184,0 c 1.129092,0 2.04545,0.916363 2.04545,2.045455 0,1.129089 -0.916358,2.045453 -2.04545,2.045453 -1.129093,0 -2.045457,-0.916364 -2.045457,-2.045453 0,-1.129092 0.916364,-2.045455 2.045457,-2.045455 z m -19.636365,0 c 1.129089,0 2.045453,0.916363 2.045453,2.045455 0,1.129089 -0.916364,2.045453 -2.045453,2.045453 -1.129092,0 -2.045456,-0.916364 -2.045456,-2.045453 0,-1.129092 0.916364,-2.045455 2.045456,-2.045455 z"
       style="clip-rule:evenodd;fill:#f4e3cf;fill-opacity:1;fill-rule:nonzero;stroke-width:1.63636;stroke-linejoin:round;stroke-miterlimit:2"
       id="path6" />
    <g
       id="g6019"
       style="fill:#f4e3cf;fill-opacity:1"
       transform="matrix(1.6363636,0,0,1.6363636,8.6240773,-3.6100595)" />
  </g>
</svg>
