<?xml version="1.0" encoding="UTF-8" standalone="no"?>
<svg
   width="128"
   height="128"
   version="1.1"
   id="svg73"
   sodipodi:docname="abcd.svg"
   inkscape:version="1.2.2 (b0a8486541, 2022-12-01)"
   xmlns:inkscape="http://www.inkscape.org/namespaces/inkscape"
   xmlns:sodipodi="http://sodipodi.sourceforge.net/DTD/sodipodi-0.dtd"
   xmlns="http://www.w3.org/2000/svg"
   xmlns:svg="http://www.w3.org/2000/svg"
   xmlns:rdf="http://www.w3.org/1999/02/22-rdf-syntax-ns#"
   xmlns:cc="http://creativecommons.org/ns#"
   xmlns:dc="http://purl.org/dc/elements/1.1/">
  <metadata
     id="metadata77">
    <rdf:RDF>
      <cc:Work
         rdf:about="">
        <dc:format>image/svg+xml</dc:format>
        <dc:type
           rdf:resource="http://purl.org/dc/dcmitype/StillImage" />
      </cc:Work>
    </rdf:RDF>
  </metadata>
  <sodipodi:namedview
     pagecolor="#f5f7fa"
     bordercolor="#666666"
     borderopacity="1"
     objecttolerance="10"
     gridtolerance="10"
     guidetolerance="10"
     inkscape:pageopacity="0"
     inkscape:pageshadow="2"
     inkscape:window-width="1226"
     inkscape:window-height="605"
     id="namedview75"
     showgrid="false"
     inkscape:zoom="2"
     inkscape:cx="76"
     inkscape:cy="42.5"
     inkscape:window-x="35"
     inkscape:window-y="32"
     inkscape:window-maximized="0"
     inkscape:current-layer="g877"
     inkscape:document-rotation="0"
     inkscape:pagecheckerboard="0"
     inkscape:showpageshadow="2"
     inkscape:deskcolor="#d1d1d1" />
  <defs
     id="defs29">
    <filter
       style="color-interpolation-filters:sRGB;"
       inkscape:label="Blur"
       id="filter6"
       x="-0.044145008"
       y="-0.044145008"
       width="1.08829"
       height="1.08829">
      <feGaussianBlur
         stdDeviation="1 1"
         result="blur"
         id="feGaussianBlur6" />
    </filter>
    <filter
       style="color-interpolation-filters:sRGB;"
       inkscape:label="Blur"
       id="filter7"
       x="-0.098100013"
       y="-0.098100021"
       width="1.1962"
       height="1.1962">
      <feGaussianBlur
         stdDeviation="2 2"
         result="blur"
         id="feGaussianBlur7" />
    </filter>
    <clipPath
       id="clip0_515_3621">
      <rect
         width="16"
         height="16"
         fill="#ffffff"
         transform="translate(0.00292969)"
         id="rect7969"
         x="0"
         y="0" />
    </clipPath>
    <filter
       style="color-interpolation-filters:sRGB;"
       inkscape:label="Blur"
       id="filter3991"
       x="-0.12945447"
       y="-0.10485813"
       width="1.2589089"
       height="1.2097163">
      <feGaussianBlur
         stdDeviation="4 4"
         result="blur"
         id="feGaussianBlur3989" />
    </filter>
  </defs>
  <g
     id="g877"
     transform="matrix(1.1,0,0,1.1,-3.1845928,-3.2065454)">
    <rect
       style="fill:#000000;fill-opacity:1;stroke:none;stroke-width:1.39173;stroke-dasharray:none;stroke-dashoffset:0;stroke-opacity:1;filter:url(#filter3991);opacity:0.5"
       id="rect1-6-5"
       width="74.157349"
       height="91.552269"
       x="23.998228"
       y="15.320724"
       rx="8.293788"
       ry="10.239242" />
    <path
       style="fill:#f5f7fa;fill-opacity:1;stroke-width:0.408852"
       d=""
       id="path3" />
    <rect
       style="fill:#f4e3cf;fill-opacity:1;stroke:none;stroke-width:1.39173;stroke-dasharray:none;stroke-dashoffset:0;stroke-opacity:1"
       id="rect1-6"
       width="74.157349"
       height="91.552269"
       x="23.998228"
       y="15.320724"
       rx="8.293788"
       ry="10.239242" />
    <rect
       style="fill:#1e2430;fill-opacity:1;stroke:none;stroke-width:1.45399;stroke-dasharray:none;stroke-dashoffset:0;stroke-opacity:1"
       id="rect1-6-7"
       width="66.257729"
       height="82.625931"
       x="27.948032"
       y="19.783897"
       rx="5.1944203"
       ry="6.4776425" />
    <path
       style="fill:#f4e3cf;fill-opacity:1;stroke-width:1.47273"
       d="m 61.078254,40.478746 c -1.836978,4.500301 -2.945016,7.447925 -4.989348,11.814398 1.254672,1.328337 2.7921,2.867614 5.288868,4.61466 C 58.692492,55.802731 56.863908,54.701223 55.49404,53.54985 52.877893,59.007567 48.774568,66.774291 40.458784,81.714972 46.994145,77.942726 52.416956,75.619891 57.138203,74.731823 56.93501,73.860488 56.821907,72.913762 56.83029,71.929336 l 0.0059,-0.203171 c 0.102636,-4.186964 1.929229,-7.901701 4.509774,-7.683869 2.580557,0.217831 4.086039,4.288641 3.98131,8.475586 -0.01897,0.787556 -0.106776,1.543682 -0.261825,2.245347 4.668871,0.915309 10.186584,3.231857 16.629572,6.951734 -1.271415,-2.339581 -2.410889,-4.444589 -3.493805,-6.453234 -1.707091,-1.32374 -3.483315,-3.045442 -7.11535,-4.909585 2.494671,0.64931 4.28764,1.394962 5.680559,2.232781 C 65.748764,52.071547 64.85436,49.346142 61.0778,40.479999 Z"
       id="path6" />
    <g
       id="g6019"
       style="fill:#f4e3cf;fill-opacity:1"
       transform="matrix(1.6363636,0,0,1.6363636,8.6240773,-3.6100595)" />
  </g>
</svg>
